<?xml version="1.0" encoding="UTF-8"?>
<svg xmlns="http://www.w3.org/2000/svg" xmlns:xlink="http://www.w3.org/1999/xlink" viewBox="0 0 220 220">
  <defs>
    <style>
      .cls-1 {
        fill: #664bbc;
      }

      .cls-2 {
        fill: #fff2de;
      }

      .cls-3 {
        fill: #c49f75;
      }

      .cls-4 {
        fill: #855ed3;
      }

      .cls-5, .cls-6, .cls-7 {
        mix-blend-mode: multiply;
      }

      .cls-5, .cls-7, .cls-8 {
        opacity: .4;
      }

      .cls-5, .cls-9, .cls-10 {
        fill: #ffe6b8;
      }

      .cls-6, .cls-11 {
        fill: #633e2a;
      }

      .cls-6, .cls-12 {
        opacity: .2;
      }

      .cls-13 {
        fill: #a63232;
      }

      .cls-14 {
        fill: #9a6de2;
      }

      .cls-15 {
        isolation: isolate;
      }

      .cls-16, .cls-17 {
        fill: #774e34;
      }

      .cls-18 {
        fill: #543faf;
      }

      .cls-7, .cls-19 {
        fill: #af8b68;
      }

      .cls-9, .cls-20, .cls-12, .cls-17 {
        mix-blend-mode: screen;
      }

      .cls-9, .cls-20, .cls-17 {
        opacity: .3;
      }

      .cls-21 {
        fill: #b584f4;
      }

      .cls-8, .cls-22 {
        fill: #d1c1b0;
      }

      .cls-20, .cls-12 {
        fill: #c47442;
      }

      .cls-23 {
        fill: #332722;
      }

      .cls-24 {
        fill: #e2c47c;
      }

      .cls-25 {
        clip-path: url(#clippath);
      }

      .cls-26 {
        fill: #7554c6;
      }

      .cls-27 {
        fill: #efe1ce;
      }

      .cls-28 {
        fill: none;
      }

      .cls-29 {
        fill: #d9e5d1;
      }

      .cls-30 {
        fill: #ca5959;
      }

      .cls-31 {
        fill: #ffebb2;
      }

      .cls-32 {
        fill: #f7d892;
      }

      .cls-33 {
        fill: #d7b25f;
      }
    </style>
    <clipPath id="clippath">
      <path class="cls-28" d="m199.5,94.89c0,3.91-33.29,12.35-74.35,12.35s-74.35-8.45-74.35-12.35,41.27-41.89,82.33-41.89,66.37,37.99,66.37,41.89Z"/>
    </clipPath>
  </defs>
  <g class="cls-15">
    <g id="Layer_2" data-name="Layer 2">
      <g id="_2" data-name="2">
        <g>
          <circle class="cls-29" cx="110" cy="110" r="110"/>
          <g>
            <g>
              <path class="cls-16" d="m40.3,94.81s25.2,54.86,51.25,68.83c10.08,7.25,55.03,6.83,64.69,0,25.2-15.01,53.77-68.83,53.77-68.83H40.3Z"/>
              <path class="cls-3" d="m210,94.81c0,4.64-37.99,16.46-84.85,16.46s-84.85-11.83-84.85-16.46,45.97-16.72,92.83-16.72,76.87,12.08,76.87,16.72Z"/>
              <path class="cls-19" d="m199.5,94.89c0,3.91-33.29,12.35-74.35,12.35s-74.35-8.45-74.35-12.35,41.27-14.28,82.33-14.28,66.37,10.37,66.37,14.28Z"/>
              <path class="cls-7" d="m94.32,101.94c0-12.19,20.57-19.13,45.44-21.23-2.17-.06-4.37-.1-6.63-.1-41.06,0-82.33,10.37-82.33,14.28,0,2.89,18.21,8.26,44.29,10.86-.49-1.27-.77-2.54-.77-3.81Z"/>
              <g>
                <path class="cls-16" d="m82.37,48.23c-14.92,4.09-14.06-5.12-21.02-27.51-3.24-11.36-21.91.73-15.63,10.69,12.51,18.77,16.84,20.24,6.9,31.52l17.81,33.44,26.85-13.89-14.91-34.25Z"/>
                <path class="cls-12" d="m95.74,83.14l-14.73-32.92c-6.47,1.87-10.87-.24-13.98-4.17-7.3-9.22-7.48-28.47-10.77-29.9-5.7-.48-13.45,6.36-11.51,13.09,4.23,10.58,23.72,19.78,8.87,33.67l16.23,30.67,17.79-6.13,8.1-4.32Z"/>
                <path class="cls-20" d="m75.52,95.2l-15.05-29s8.24-7.82,19.43-8.48l-4.37,37.48Z"/>
                <path class="cls-11" d="m79.89,57.72c-7.36,1.62-11.74,3.34-17.83,8.81l12.7,27.07,18.36-8.59-13.23-27.29Z"/>
                <path class="cls-6" d="m62.06,66.53s13.15,4.17,17.83-8.81c0,0-10.29,1.33-17.83,8.81Z"/>
                <path class="cls-20" d="m52.92,18.64c.81.76-.37,8.05-2.35,10.18s-4.66,0-5.12-1.44c-.34-1.06.43-4.14,2.41-6.27,1.98-2.13,4.25-3.23,5.06-2.48Z"/>
              </g>
              <path class="cls-17" d="m40.77,95.8c3.49,7.36,26.77,54.96,50.78,67.84.75.54,1.71,1.03,2.81,1.48,35.69,4.47,72.17-21.62,70.5-38.04-2.46-24.16-75.98-2.55-124.09-31.28Z"/>
              <path class="cls-3" d="m202.21,108.41c.46-.77.91-1.51,1.33-2.23-11.88,4.87-41.46,12.12-78.39,12.12s-68.2-7.66-79.38-12.53c.37.7.75,1.42,1.15,2.17,13.57,5.61,44.14,11.96,78.22,11.96s62.95-6,77.06-11.49Z"/>
              <path class="cls-7" d="m154.11,116.81c1.21.37,2.33.78,3.35,1.24,19.36-2.2,35.46-6.03,44.75-9.64h0c.46-.77.9-1.51,1.33-2.22,0,0,0,0,0,0-8.57,3.51-26.34,8.26-49.43,10.63Z"/>
              <g class="cls-25">
                <g>
                  <g>
                    <g>
                      <path class="cls-1" d="m149.17,74.55c-1.03-.87-1.86-1.93-3.05-2.61-1.61-.91-4.8-1.17-5.21,1.35-.61,3.75,5.45,3.44,7.61,3.55-1.69.92-6,5.11-3.29,6.95,2.45,1.65,6.38-2.69,6.78-4.9-.01,4.14,4.83,7.18,8.04,3.76,1.5-1.6.8-3.79-.99-4.88-1.26-.76-3.1-.93-4.54-.78,2.7-.22,6.43-4.78,4.99-7.45-1.58-2.94-7.03,1.74-6.65,4.03,2.11-2.46-.63-10.68-4.19-7.2-1.69,1.66-1.43,4.52-.38,6.45.22.41,1.4,1.91.88,1.73Z"/>
                      <path class="cls-18" d="m153.23,74.92c-.22-.27-.5-.43-.81-.52-.03-.01-.06-.02-.09-.04-.03,0-.06-.02-.09-.02-.12-.04-.25-.08-.38-.09-.72-.03-1.37.31-1.69.97-.08.16-.12.32-.14.5-.04.09-.09.18-.11.28-.1.35-.12.73.03,1.08.16.36.46.62.82.76.02,0,.05.01.07.02.14.11.29.2.46.25.73.22,1.56-.08,1.97-.73.45-.72.53-1.76-.03-2.45Z"/>
                    </g>
                    <g>
                      <path class="cls-1" d="m129.97,68.9c-1.03-.87-1.86-1.93-3.06-2.61-1.61-.91-4.8-1.17-5.21,1.35-.61,3.75,5.44,3.44,7.61,3.55-1.69.92-6,5.11-3.29,6.95,2.45,1.65,6.38-2.69,6.78-4.9-.01,4.14,4.83,7.18,8.04,3.76,1.5-1.6.8-3.79-.99-4.88-1.26-.76-3.1-.93-4.54-.78,2.7-.22,6.43-4.78,4.99-7.45-1.58-2.94-7.03,1.74-6.65,4.03,2.11-2.46-.63-10.68-4.19-7.2-1.69,1.66-1.43,4.52-.38,6.45.22.41,1.4,1.91.88,1.73Z"/>
                      <path class="cls-18" d="m134.03,69.27c-.22-.27-.5-.43-.81-.52-.03-.01-.06-.02-.09-.04-.03,0-.06-.02-.09-.02-.12-.04-.25-.08-.38-.09-.72-.03-1.37.31-1.69.97-.08.16-.12.32-.14.5-.04.09-.09.18-.11.28-.1.35-.12.73.03,1.08.16.36.46.62.82.76.02,0,.05.01.07.02.14.11.29.2.46.25.73.22,1.56-.08,1.97-.73.45-.72.53-1.76-.03-2.45Z"/>
                    </g>
                    <g>
                      <path class="cls-1" d="m118.83,70.38c-1.03-.87-1.86-1.93-3.06-2.61-1.61-.91-4.8-1.17-5.21,1.35-.61,3.75,5.44,3.44,7.61,3.55-1.69.92-6,5.11-3.29,6.95,2.45,1.65,6.38-2.69,6.78-4.9-.01,4.14,4.83,7.18,8.04,3.76,1.5-1.6.8-3.79-.99-4.88-1.26-.76-3.1-.93-4.54-.78,2.7-.22,6.43-4.78,4.99-7.45-1.58-2.94-7.03,1.74-6.65,4.03,2.11-2.46-.63-10.68-4.19-7.2-1.69,1.66-1.43,4.52-.38,6.45.22.41,1.4,1.91.88,1.73Z"/>
                      <path class="cls-18" d="m122.9,70.75c-.22-.27-.5-.43-.81-.52-.03-.01-.06-.02-.09-.04-.03,0-.06-.02-.09-.02-.12-.04-.25-.08-.38-.09-.72-.03-1.37.31-1.69.97-.08.16-.12.32-.14.5-.04.09-.09.18-.11.28-.1.35-.12.73.03,1.08.16.36.46.62.82.76.02,0,.05.01.07.02.14.11.29.2.46.25.73.22,1.56-.08,1.97-.73.45-.72.53-1.76-.03-2.45Z"/>
                    </g>
                    <g>
                      <path class="cls-1" d="m131.62,81.42c-1.03-.87-1.86-1.93-3.06-2.61-1.61-.91-4.8-1.17-5.21,1.35-.61,3.75,5.44,3.44,7.61,3.55-1.69.92-6,5.11-3.29,6.95,2.45,1.65,6.38-2.69,6.78-4.9-.01,4.14,4.83,7.18,8.04,3.76,1.5-1.6.8-3.79-.99-4.88-1.26-.76-3.1-.93-4.54-.78,2.7-.22,6.43-4.78,4.99-7.45-1.58-2.94-7.03,1.74-6.65,4.03,2.11-2.46-.63-10.68-4.19-7.2-1.69,1.66-1.43,4.52-.38,6.45.22.41,1.4,1.91.88,1.73Z"/>
                      <path class="cls-18" d="m135.68,81.79c-.22-.27-.5-.43-.81-.52-.03-.01-.06-.02-.09-.04-.03,0-.06-.02-.09-.02-.12-.04-.25-.08-.38-.09-.72-.03-1.37.31-1.69.97-.08.16-.12.32-.14.5-.04.09-.09.18-.11.28-.1.35-.12.73.03,1.08.16.36.46.62.82.76.02,0,.05.01.07.02.14.11.29.2.46.25.73.22,1.56-.08,1.97-.73.45-.72.53-1.76-.03-2.45Z"/>
                    </g>
                    <g>
                      <path class="cls-4" d="m140.73,71.02c-.05-1.93.3-3.83-.11-5.76-.55-2.59-3.31-6.26-6.4-4.3-4.6,2.92,1.49,9.11,3.44,11.53-2.59-.93-11.19-1.56-10.57,3.09.56,4.19,8.95,4.28,11.7,2.61-4.45,3.93-3.1,12.01,3.62,12.2,3.15.09,4.83-2.75,4.28-5.7-.38-2.07-1.95-4.2-3.49-5.6,2.81,2.69,11.24,2.34,12.73-1.75,1.64-4.49-8.55-5.89-10.65-3.3,4.64-.08,10.85-10.84,3.73-11.34-3.39-.24-6.2,2.76-7.28,5.73-.23.64-.72,3.32-1.02,2.59Z"/>
                      <path class="cls-26" d="m144.2,75.72c.08-.49-.02-.95-.21-1.37-.01-.05-.03-.09-.05-.14-.02-.04-.04-.08-.06-.12-.07-.17-.14-.34-.26-.49-.65-.81-1.63-1.17-2.64-.89-.24.07-.46.18-.67.32-.14.04-.28.08-.41.14-.47.23-.9.56-1.13,1.05-.23.51-.23,1.08-.04,1.6.01.03.03.07.05.1.02.25.06.5.17.73.46.99,1.57,1.61,2.66,1.42,1.2-.21,2.39-1.1,2.6-2.37Z"/>
                    </g>
                    <g>
                      <path class="cls-4" d="m105.83,76.07c-1.03-.87-1.86-1.93-3.06-2.61-1.61-.91-4.8-1.17-5.21,1.35-.61,3.75,5.44,3.44,7.61,3.55-1.69.92-6,5.11-3.29,6.95,2.45,1.65,6.38-2.69,6.78-4.9-.01,4.14,4.83,7.18,8.04,3.76,1.5-1.6.8-3.79-.99-4.88-1.26-.76-3.1-.93-4.54-.78,2.7-.22,6.43-4.78,4.99-7.45-1.58-2.94-7.03,1.74-6.65,4.03,2.11-2.46-.63-10.68-4.19-7.2-1.69,1.66-1.43,4.52-.38,6.45.22.41,1.4,1.91.88,1.73Z"/>
                      <path class="cls-26" d="m109.89,76.43c-.22-.27-.5-.43-.81-.52-.03-.01-.06-.02-.09-.04-.03,0-.06-.02-.09-.02-.12-.04-.25-.08-.38-.09-.72-.03-1.37.31-1.69.97-.08.16-.12.32-.14.5-.04.09-.09.18-.11.28-.1.35-.12.73.03,1.08.16.36.46.62.82.76.02,0,.05.01.07.02.14.11.29.2.46.25.73.22,1.56-.08,1.97-.73.45-.72.53-1.76-.03-2.45Z"/>
                    </g>
                    <g>
                      <path class="cls-4" d="m126.44,86.34c-1.03-.87-1.86-1.93-3.06-2.61-1.61-.91-4.8-1.17-5.21,1.35-.61,3.75,5.44,3.44,7.61,3.55-1.69.92-6,5.11-3.29,6.95,2.45,1.65,6.38-2.69,6.78-4.9-.01,4.14,4.83,7.18,8.04,3.76,1.5-1.6.8-3.79-.99-4.88-1.26-.76-3.1-.93-4.54-.78,2.7-.22,6.43-4.78,4.99-7.45-1.58-2.94-7.03,1.74-6.65,4.03,2.11-2.46-.63-10.68-4.19-7.2-1.69,1.66-1.43,4.52-.38,6.45.22.41,1.4,1.91.88,1.73Z"/>
                      <path class="cls-26" d="m130.5,86.71c-.22-.27-.5-.43-.81-.52-.03-.01-.06-.02-.09-.04-.03,0-.06-.02-.09-.02-.12-.04-.25-.08-.38-.09-.72-.03-1.37.31-1.69.97-.08.16-.12.32-.14.5-.04.09-.09.18-.11.28-.1.35-.12.73.03,1.08.16.36.46.62.82.76.02,0,.05.01.07.02.14.11.29.2.46.25.73.22,1.56-.08,1.97-.73.45-.72.53-1.76-.03-2.45Z"/>
                    </g>
                    <g>
                      <path class="cls-21" d="m120.21,73.6c-1.08-2.03-1.72-4.25-3.18-6.1-1.97-2.47-6.87-4.92-9.12-1.18-3.36,5.56,6.44,8.94,9.82,10.48-3.26.39-12.78,4.29-9.65,8.93,2.83,4.18,11.84-.19,13.89-3.44-2.66,6.56,3.08,14.48,10.36,11.1,3.41-1.58,3.69-5.51,1.54-8.37-1.51-2.01-4.32-3.45-6.71-4.13,4.43,1.38,13.25-3.49,12.67-8.65-.64-5.67-12.27-1.74-13.13,2.15,4.92-2.55,5.82-17.36-2.05-14.1-3.75,1.55-5.15,6.25-4.72,9.99.09.8,1,3.93.29,3.31Z"/>
                      <path class="cls-14" d="m126.43,76.78c-.17-.56-.52-1.01-.95-1.35-.04-.04-.08-.08-.13-.12-.04-.03-.08-.06-.13-.09-.17-.14-.34-.29-.54-.38-1.13-.52-2.37-.38-3.29.46-.22.2-.39.44-.55.7-.12.12-.26.23-.36.37-.38.5-.66,1.08-.64,1.73.02.66.33,1.28.81,1.73.03.03.07.05.1.08.15.26.33.5.57.69,1.02.81,2.53.88,3.59.1,1.18-.86,1.96-2.45,1.52-3.91Z"/>
                    </g>
                    <g>
                      <path class="cls-21" d="m148.04,84.86c-.12-1.73.13-3.46-.31-5.17-.59-2.31-3.21-5.5-5.91-3.62-4.02,2.79,1.68,8.13,3.53,10.23-2.36-.74-10.11-.98-9.38,3.17.66,3.75,8.2,3.51,10.61,1.9-3.85,3.7-2.33,10.91,3.71,10.82,2.83-.04,4.23-2.65,3.63-5.29-.42-1.85-1.91-3.7-3.35-4.9,2.62,2.31,10.19,1.68,11.38-2.05,1.31-4.1-7.91-4.97-9.69-2.56,4.17-.24,9.34-10.15,2.92-10.33-3.05-.08-5.47,2.72-6.32,5.42-.18.58-.52,3.01-.82,2.36Z"/>
                      <path class="cls-14" d="m151.34,88.95c.05-.44-.05-.85-.24-1.22-.01-.04-.03-.08-.05-.12-.02-.03-.04-.07-.06-.1-.07-.15-.14-.3-.26-.43-.62-.7-1.51-.99-2.41-.7-.21.07-.41.18-.59.31-.12.04-.25.08-.36.14-.41.23-.79.54-.97.99-.19.46-.17.98.03,1.44.01.03.03.06.05.09.03.23.07.45.18.65.45.87,1.47,1.38,2.44,1.17,1.07-.23,2.1-1.08,2.25-2.22Z"/>
                    </g>
                  </g>
                  <g>
                    <g>
                      <path class="cls-1" d="m127.95,77.39c-1.03-.87-1.86-1.93-3.06-2.61-1.61-.91-4.8-1.17-5.21,1.35-.61,3.75,5.44,3.44,7.61,3.55-1.69.92-6,5.11-3.29,6.95,2.45,1.65,6.38-2.69,6.78-4.9-.01,4.14,4.83,7.18,8.04,3.76,1.5-1.6.8-3.79-.99-4.88-1.26-.76-3.1-.93-4.54-.78,2.7-.22,6.43-4.78,4.99-7.45-1.58-2.94-7.03,1.74-6.65,4.03,2.11-2.46-.63-10.68-4.19-7.2-1.69,1.66-1.43,4.52-.38,6.45.22.41,1.4,1.91.88,1.73Z"/>
                      <path class="cls-18" d="m132.01,77.76c-.22-.27-.5-.43-.81-.52-.03-.01-.06-.02-.09-.04-.03,0-.06-.02-.09-.02-.12-.04-.25-.08-.38-.09-.72-.03-1.37.31-1.69.97-.08.16-.12.32-.14.5-.04.09-.09.18-.11.28-.1.35-.12.73.03,1.08.16.36.46.62.82.76.02,0,.05.01.07.02.14.11.29.2.46.25.73.22,1.56-.08,1.97-.73.45-.72.53-1.76-.03-2.45Z"/>
                    </g>
                    <g>
                      <path class="cls-1" d="m108.75,71.73c-1.03-.87-1.86-1.93-3.06-2.61-1.61-.91-4.8-1.17-5.21,1.35-.61,3.75,5.44,3.44,7.61,3.55-1.69.92-6,5.11-3.29,6.95,2.45,1.65,6.38-2.69,6.78-4.9-.01,4.14,4.83,7.18,8.04,3.76,1.5-1.6.8-3.79-.99-4.88-1.26-.76-3.1-.93-4.54-.78,2.7-.22,6.43-4.78,4.99-7.45-1.58-2.94-7.03,1.74-6.65,4.03,2.11-2.46-.63-10.68-4.19-7.2-1.69,1.66-1.43,4.52-.38,6.45.22.41,1.4,1.91.88,1.73Z"/>
                      <path class="cls-18" d="m112.81,72.1c-.22-.27-.5-.43-.81-.52-.03-.01-.06-.02-.09-.04-.03,0-.06-.02-.09-.02-.12-.04-.25-.08-.38-.09-.72-.03-1.37.31-1.69.97-.08.16-.12.32-.14.5-.04.09-.09.18-.11.28-.1.35-.12.73.03,1.08.16.36.46.62.82.76.02,0,.05.01.07.02.14.11.29.2.46.25.73.22,1.56-.08,1.97-.73.45-.72.53-1.76-.03-2.45Z"/>
                    </g>
                    <g>
                      <path class="cls-1" d="m97.62,73.22c-1.03-.87-1.86-1.93-3.05-2.61-1.61-.91-4.8-1.17-5.21,1.35-.61,3.75,5.45,3.44,7.61,3.55-1.69.92-6,5.11-3.29,6.95,2.45,1.65,6.38-2.69,6.78-4.9-.01,4.14,4.83,7.18,8.04,3.76,1.5-1.6.8-3.79-.99-4.88-1.26-.76-3.1-.93-4.54-.78,2.7-.22,6.43-4.78,4.99-7.45-1.58-2.94-7.03,1.74-6.65,4.03,2.11-2.46-.63-10.68-4.19-7.2-1.69,1.66-1.43,4.52-.38,6.45.22.41,1.4,1.91.88,1.73Z"/>
                      <path class="cls-18" d="m101.68,73.58c-.22-.27-.5-.43-.81-.52-.03-.01-.06-.02-.09-.04-.03,0-.06-.02-.09-.02-.12-.04-.25-.08-.38-.09-.72-.03-1.37.31-1.69.97-.08.16-.12.32-.14.5-.04.09-.09.18-.11.28-.1.35-.12.73.03,1.08.16.36.46.62.82.76.02,0,.05.01.07.02.14.11.29.2.46.25.73.22,1.56-.08,1.97-.73.45-.72.53-1.76-.03-2.45Z"/>
                    </g>
                    <g>
                      <path class="cls-1" d="m110.4,84.25c-1.03-.87-1.86-1.93-3.06-2.61-1.61-.91-4.8-1.17-5.21,1.35-.61,3.75,5.45,3.44,7.61,3.55-1.69.92-6,5.11-3.29,6.95,2.45,1.65,6.38-2.69,6.78-4.9-.01,4.14,4.83,7.18,8.04,3.76,1.5-1.6.8-3.79-.99-4.88-1.26-.76-3.1-.93-4.54-.78,2.7-.22,6.43-4.78,4.99-7.45-1.58-2.94-7.03,1.74-6.65,4.03,2.11-2.46-.63-10.68-4.19-7.2-1.69,1.66-1.43,4.52-.38,6.45.22.41,1.4,1.91.88,1.73Z"/>
                      <path class="cls-18" d="m114.47,84.62c-.22-.27-.5-.43-.81-.52-.03-.01-.06-.02-.09-.04-.03,0-.06-.02-.09-.02-.12-.04-.25-.08-.38-.09-.72-.03-1.37.31-1.69.97-.08.16-.12.32-.14.5-.04.09-.09.18-.11.28-.1.35-.12.73.03,1.08.16.36.46.62.82.76.02,0,.05.01.07.02.14.11.29.2.46.25.73.22,1.56-.08,1.97-.73.45-.72.53-1.76-.03-2.45Z"/>
                    </g>
                    <g>
                      <path class="cls-4" d="m119.51,73.85c-.05-1.93.3-3.83-.11-5.76-.55-2.59-3.31-6.26-6.4-4.3-4.6,2.92,1.49,9.11,3.44,11.53-2.59-.93-11.19-1.56-10.57,3.09.56,4.19,8.95,4.28,11.7,2.61-4.45,3.93-3.1,12.01,3.62,12.2,3.15.09,4.83-2.75,4.28-5.7-.38-2.07-1.95-4.2-3.49-5.6,2.81,2.69,11.24,2.34,12.73-1.75,1.64-4.49-8.55-5.89-10.65-3.3,4.64-.07,10.85-10.84,3.73-11.34-3.39-.24-6.2,2.76-7.28,5.73-.23.64-.72,3.32-1.02,2.59Z"/>
                      <path class="cls-26" d="m122.98,78.56c.08-.49-.02-.95-.21-1.37-.01-.05-.03-.09-.05-.14-.02-.04-.04-.08-.06-.12-.07-.17-.14-.34-.26-.49-.65-.81-1.63-1.17-2.64-.89-.24.07-.46.18-.67.32-.14.04-.28.08-.41.14-.47.23-.9.56-1.13,1.05-.23.51-.23,1.08-.04,1.6.01.03.03.07.05.1.02.25.06.5.17.73.46.99,1.57,1.6,2.66,1.42,1.2-.21,2.39-1.1,2.6-2.37Z"/>
                    </g>
                    <g>
                      <path class="cls-4" d="m84.61,78.9c-1.03-.87-1.86-1.93-3.06-2.61-1.61-.91-4.8-1.17-5.21,1.35-.61,3.75,5.44,3.44,7.61,3.55-1.69.92-6,5.11-3.29,6.95,2.45,1.65,6.38-2.69,6.78-4.9-.01,4.14,4.83,7.18,8.04,3.76,1.5-1.6.8-3.79-.99-4.88-1.26-.76-3.1-.93-4.54-.78,2.7-.22,6.43-4.78,4.99-7.45-1.58-2.94-7.03,1.74-6.65,4.03,2.11-2.46-.63-10.68-4.19-7.2-1.69,1.66-1.43,4.52-.38,6.45.22.41,1.4,1.91.88,1.73Z"/>
                      <path class="cls-26" d="m88.67,79.27c-.22-.27-.5-.43-.81-.52-.03-.01-.06-.02-.09-.04-.03,0-.06-.02-.09-.02-.12-.04-.25-.08-.38-.09-.72-.03-1.37.31-1.69.97-.08.16-.12.32-.14.5-.04.09-.09.18-.11.28-.1.35-.12.73.03,1.08.16.36.46.62.82.76.02,0,.05.01.07.02.14.11.29.2.46.25.73.22,1.56-.08,1.97-.73.45-.72.53-1.76-.03-2.45Z"/>
                    </g>
                    <g>
                      <path class="cls-4" d="m105.22,89.18c-1.03-.87-1.86-1.93-3.06-2.61-1.61-.91-4.8-1.17-5.21,1.35-.61,3.75,5.44,3.44,7.61,3.55-1.69.92-6,5.11-3.29,6.95,2.45,1.65,6.38-2.69,6.78-4.9-.01,4.14,4.83,7.18,8.04,3.76,1.5-1.6.8-3.79-.99-4.88-1.26-.76-3.1-.93-4.54-.78,2.7-.22,6.43-4.78,4.99-7.45-1.58-2.94-7.03,1.74-6.65,4.03,2.11-2.46-.63-10.68-4.19-7.2-1.69,1.66-1.43,4.52-.38,6.45.22.41,1.4,1.91.88,1.73Z"/>
                      <path class="cls-26" d="m109.29,89.54c-.22-.27-.5-.43-.81-.52-.03-.01-.06-.02-.09-.04-.03,0-.06-.02-.09-.02-.12-.04-.25-.08-.38-.09-.72-.03-1.37.31-1.69.97-.08.16-.12.32-.14.5-.04.09-.09.18-.11.28-.1.35-.12.73.03,1.08.16.36.46.62.82.76.02,0,.05.01.07.02.14.11.29.2.46.25.73.22,1.56-.08,1.97-.73.45-.72.53-1.76-.03-2.45Z"/>
                    </g>
                    <g>
                      <path class="cls-21" d="m98.99,76.44c-1.08-2.03-1.72-4.25-3.18-6.1-1.97-2.47-6.87-4.92-9.12-1.18-3.36,5.56,6.44,8.94,9.82,10.48-3.26.39-12.78,4.29-9.65,8.93,2.83,4.18,11.84-.19,13.89-3.44-2.66,6.56,3.08,14.48,10.36,11.1,3.41-1.58,3.69-5.51,1.54-8.37-1.51-2.01-4.32-3.45-6.71-4.13,4.43,1.38,13.25-3.49,12.67-8.65-.64-5.67-12.27-1.74-13.13,2.15,4.92-2.55,5.82-17.36-2.05-14.1-3.75,1.55-5.15,6.25-4.72,9.99.09.8,1,3.93.29,3.31Z"/>
                      <path class="cls-14" d="m105.21,79.61c-.17-.56-.52-1.01-.95-1.35-.04-.04-.08-.08-.13-.12-.04-.03-.08-.06-.13-.09-.17-.14-.34-.29-.54-.38-1.13-.52-2.37-.38-3.29.46-.22.2-.39.44-.55.7-.12.12-.26.23-.36.37-.38.5-.66,1.08-.64,1.73.02.66.33,1.28.81,1.73.03.03.07.05.1.08.15.26.33.5.57.69,1.02.81,2.53.88,3.59.1,1.18-.86,1.96-2.45,1.52-3.91Z"/>
                    </g>
                    <g>
                      <path class="cls-21" d="m126.82,87.69c-.12-1.73.13-3.46-.31-5.17-.59-2.31-3.21-5.5-5.91-3.62-4.02,2.79,1.68,8.13,3.53,10.23-2.36-.74-10.11-.98-9.38,3.17.66,3.75,8.2,3.51,10.61,1.9-3.85,3.7-2.33,10.91,3.71,10.82,2.83-.04,4.23-2.65,3.63-5.29-.42-1.85-1.91-3.7-3.35-4.9,2.62,2.31,10.19,1.68,11.38-2.05,1.31-4.1-7.91-4.97-9.69-2.56,4.17-.24,9.34-10.15,2.92-10.33-3.05-.08-5.47,2.72-6.32,5.42-.18.58-.52,3.01-.82,2.36Z"/>
                      <path class="cls-14" d="m130.12,91.79c.05-.44-.05-.85-.24-1.22-.01-.04-.03-.08-.05-.12-.02-.03-.04-.07-.06-.1-.07-.15-.14-.3-.26-.43-.62-.7-1.51-.99-2.41-.7-.21.07-.41.18-.59.31-.12.04-.25.08-.36.14-.41.23-.79.54-.97.99-.19.46-.17.98.03,1.44.01.03.03.06.05.09.03.23.07.45.18.65.45.87,1.47,1.38,2.44,1.17,1.07-.23,2.1-1.08,2.25-2.22Z"/>
                    </g>
                  </g>
                  <g>
                    <g>
                      <path class="cls-1" d="m103.76,86.77c-1.22-.57-2.3-1.39-3.63-1.74-1.79-.47-4.94.11-4.68,2.65.38,3.78,6.15,1.92,8.27,1.46-1.39,1.33-4.48,6.49-1.38,7.56,2.79.97,5.47-4.24,5.29-6.48,1.06,4,6.52,5.69,8.74,1.56,1.04-1.94-.2-3.87-2.22-4.46-1.41-.41-3.23-.1-4.59.42,2.55-.91,4.98-6.28,2.89-8.49-2.29-2.43-6.35,3.49-5.39,5.61,1.41-2.92-3.37-10.16-5.9-5.87-1.21,2.04-.22,4.73,1.3,6.33.32.34,1.84,1.49,1.3,1.45Z"/>
                      <path class="cls-18" d="m107.78,86.07c-.28-.2-.6-.29-.92-.3-.03,0-.07,0-.1-.01-.03,0-.06,0-.09,0-.13,0-.26-.02-.39.01-.71.15-1.24.65-1.38,1.37-.03.17-.03.34-.01.52-.02.1-.04.2-.04.3,0,.37.07.74.31,1.03.24.3.6.48.99.52.03,0,.05,0,.08,0,.16.07.33.12.51.12.76.02,1.49-.48,1.72-1.21.25-.82.06-1.84-.66-2.36Z"/>
                    </g>
                    <g>
                      <path class="cls-1" d="m83.75,86.26c-1.22-.57-2.3-1.39-3.63-1.74-1.79-.47-4.94.11-4.68,2.65.38,3.78,6.15,1.92,8.27,1.46-1.39,1.33-4.48,6.49-1.38,7.56,2.79.97,5.47-4.24,5.29-6.48,1.06,4,6.52,5.69,8.74,1.56,1.04-1.94-.2-3.87-2.22-4.46-1.41-.41-3.23-.1-4.59.42,2.55-.91,4.98-6.28,2.89-8.49-2.29-2.43-6.35,3.49-5.39,5.61,1.41-2.92-3.37-10.16-5.9-5.87-1.21,2.04-.22,4.73,1.3,6.33.32.34,1.84,1.49,1.3,1.45Z"/>
                      <path class="cls-18" d="m87.77,85.56c-.28-.2-.6-.29-.92-.3-.03,0-.07,0-.1-.01-.03,0-.06,0-.09,0-.13,0-.26-.02-.39.01-.71.15-1.24.65-1.38,1.37-.03.17-.03.34-.01.52-.02.1-.04.2-.04.3,0,.37.07.74.31,1.03.24.3.6.48.99.52.03,0,.05,0,.08,0,.16.07.33.12.51.12.76.02,1.49-.48,1.72-1.21.25-.82.06-1.84-.66-2.36Z"/>
                    </g>
                    <g>
                      <path class="cls-1" d="m73.37,90.56c-1.22-.57-2.3-1.39-3.63-1.74-1.79-.47-4.94.11-4.68,2.65.38,3.78,6.15,1.92,8.27,1.46-1.39,1.33-4.48,6.49-1.38,7.56,2.79.97,5.47-4.24,5.29-6.48,1.06,4,6.52,5.69,8.74,1.56,1.04-1.94-.2-3.87-2.22-4.46-1.41-.41-3.23-.1-4.59.42,2.55-.91,4.98-6.28,2.89-8.49-2.29-2.43-6.35,3.49-5.39,5.61,1.41-2.92-3.37-10.16-5.9-5.87-1.21,2.04-.22,4.73,1.3,6.33.32.34,1.84,1.49,1.3,1.45Z"/>
                      <path class="cls-18" d="m77.4,89.87c-.28-.2-.6-.29-.92-.3-.03,0-.07,0-.1-.01-.03,0-.06,0-.09,0-.13,0-.26-.02-.39.01-.71.15-1.24.65-1.38,1.37-.03.17-.03.34-.01.52-.02.1-.04.2-.04.3,0,.37.07.74.31,1.03.24.3.6.48.99.52.03,0,.05,0,.08,0,.16.07.33.12.51.12.76.02,1.49-.48,1.72-1.21.25-.82.06-1.84-.66-2.36Z"/>
                    </g>
                    <g>
                      <path class="cls-1" d="m101.18,102.95c-.22.39-.45.72-.71,1-.61.7-1.37,1.11-2.15,1.28-.58.14-1.2.13-1.79,0-.59-.1-1.16-.32-1.69-.63v-.02c-.07-.02-.12-.06-.17-.12-.3-.18-.58-.4-.84-.69v-.02c-.3-.25-.57-.6-.79-.97-.22-.35-.4-.74-.51-1.14-.05-.09-.08-.17-.1-.26,0,.05.01.11,0,.16.02.74-.24,1.78-.72,2.8-.04.12-.1.23-.16.35-.16.32-.33.62-.53.92-.49-.04-.97-.08-1.46-.12-1.22-.09-2.43-.21-3.65-.32h-.02c0-.11.03-.23.07-.34.09-.43.25-.87.43-1.3.44-1.03,1.08-2.01,1.63-2.69.11-.16.23-.3.34-.4.06-.05.09-.1.15-.16-.05.02-.11.03-.16.05-.07.01-.15.03-.24.04-1.42.35-3.87,1.01-5.66.71v-.02c-.84-.14-1.53-.5-1.91-1.22-.15-.28-.26-.62-.3-1.02-.05-.47.02-.87.18-1.22.32-.71,1.01-1.15,1.81-1.37.04-.02.09-.03.15-.05.13-.03.26-.06.4-.07.42-.07.83-.11,1.23-.07.34.01.65.06.93.13.18.04.34.1.5.15.6.22,1.17.54,1.71.85.23.12.44.24.67.37.23.14.48.26.72.37.29.03.03-.27-.34-.59-.35-.32-.8-.68-.96-.85-.24-.26-.48-.54-.69-.86-.14-.2-.25-.41-.39-.61,0-.02.02-.02.02-.02h-.02c-.1-.2-.2-.42-.28-.63-.31-.72-.5-1.5-.48-2.26,0-.13.01-.25.03-.38.04-.54.21-1.07.5-1.58.27-.46.58-.79.89-1.03h.02c.09-.05.18-.1.28-.15.2-.08.38-.13.58-.14h.02c.87-.05,1.78.55,2.54,1.44h.02c.21.24.39.49.56.76.51.78.9,1.68,1.1,2.56.02.07.03.16.04.24.02-.07.04-.14.1-.21.39-1.01,1.08-2.05,1.87-2.79.02-.02.06-.05.08-.07.02-.02.06-.03.07-.05.84-.74,1.78-1.12,2.58-.72.11.06.19.12.28.17.09.08.19.15.28.25t.03.04c.33.37.54.84.63,1.34.2.8.13,1.72-.15,2.65-.04.18-.11.37-.19.55-.59,1.67-1.74,3.21-2.96,3.79-.04.02-.09.05-.13.07.06-.03.11-.03.15-.05,1.32-.47,2.99-.72,4.29-.32.59.17,1.12.46,1.53.84l.05.06c.16.13.29.28.41.45.67.86.84,1.99.23,3.11Z"/>
                      <path class="cls-18" d="m92.6,97.23c-.28-.2-.6-.29-.92-.3-.03,0-.07,0-.1-.01-.03,0-.06,0-.09,0-.13,0-.26-.02-.39.01-.71.15-1.24.65-1.38,1.37-.03.17-.03.34-.01.52-.02.1-.04.2-.04.3,0,.37.07.74.31,1.03.24.3.6.48.99.52.03,0,.05,0,.08,0,.16.07.33.12.51.12.76.02,1.49-.48,1.72-1.21.25-.82.06-1.84-.66-2.36Z"/>
                    </g>
                    <g>
                      <path class="cls-4" d="m94.69,85.53c-.55-1.85-.7-3.78-1.59-5.54-1.2-2.36-4.81-5.19-7.29-2.5-3.69,4,3.79,8.42,6.3,10.25-2.74-.23-11.21,1.38-9.42,5.71,1.62,3.91,9.75,1.83,11.98-.5-3.28,4.94.11,12.4,6.64,10.85,3.06-.73,3.96-3.9,2.67-6.62-.9-1.91-2.97-3.56-4.82-4.51,3.4,1.87,11.46-.64,11.85-4.97.43-4.76-9.78-3.48-11.14-.44,4.47-1.27,7.69-13.28.68-11.92-3.33.65-5.28,4.27-5.55,7.41-.06.67.16,3.39-.32,2.76Z"/>
                      <path class="cls-26" d="m99.26,89.18c-.05-.49-.26-.91-.55-1.27-.03-.04-.06-.08-.08-.12-.03-.03-.06-.07-.09-.1-.12-.14-.23-.29-.38-.41-.84-.61-1.88-.71-2.78-.17-.21.13-.4.3-.56.48-.12.08-.25.15-.36.24-.4.35-.72.78-.82,1.31-.09.55.06,1.1.38,1.56.02.03.05.05.07.08.08.24.19.47.35.66.7.84,1.93,1.15,2.93.68,1.11-.51,2.02-1.68,1.9-2.96Z"/>
                    </g>
                    <g>
                      <path class="cls-4" d="m75.08,103.96c-2.58-.35-5.38-.74-8.16-1.27-4.31-.83-8.61-2.01-12.09-3.84.61-.71,1.49-1.07,2.42-1.32.51-.01.99.04,1.4.15,1.32.35,2.41,1.15,3.63,1.73.56.04-.96-1.11-1.29-1.45-.31-.34-.62-.73-.87-1.14-.96-1.56-1.38-3.58-.43-5.18.56-.95,1.23-1.32,1.9-1.33,1.8,0,3.73,2.69,4.15,5,.21-.59.52-1.21.91-1.77,1.21-1.75,3.05-3.01,4.33-1.66.38.4.59.89.7,1.44.06.27.08.55.07.85.02.34-.01.7-.08,1.08-.02,0-.02.02-.02.04-.07.45-.22.91-.38,1.36-.16.41-.36.81-.57,1.2-.68,1.2-1.63,2.19-2.6,2.54.42-.16.88-.31,1.37-.41.49-.11,1.02-.19,1.52-.19.6-.03,1.17.01,1.69.16.34.1.66.24.96.42,1.29.76,1.97,2.14,1.45,3.58Z"/>
                      <path class="cls-26" d="m66.3,98.72c-.28-.2-.6-.29-.92-.3-.03,0-.07,0-.1-.01-.03,0-.06,0-.09,0-.13,0-.26-.02-.39.01-.71.15-1.24.65-1.38,1.37-.03.17-.03.34-.01.52-.02.1-.04.2-.04.3,0,.37.07.74.31,1.03.24.3.6.48.99.52.03,0,.05,0,.08,0,.16.07.33.12.51.12.76.02,1.49-.48,1.72-1.21.25-.82.06-1.84-.66-2.36Z"/>
                    </g>
                    <g>
                      <path class="cls-4" d="m97.33,106.07c-.32-.01-.63-.04-.95-.06-.74-.05-1.48-.1-2.21-.15-1.04-.08-2.09-.14-3.13-.24-.49-.04-.97-.08-1.46-.12-1.22-.09-2.43-.21-3.65-.32h-.02c-2.09-.2-4.17-.41-6.25-.66-.68-.07-1.35-.15-2.03-.23l-.59-.08c-.16-.02-.31-.03-.47-.06.23-1.15,1.32-1.75,2.5-1.93.11-.03.22-.04.33-.06.63-.06,1.28-.02,1.82.13,1.34.35,2.41,1.15,3.63,1.73.56.04-.96-1.11-1.29-1.45-.4-.43-.77-.94-1.07-1.47v-.02c-.33-.63-.59-1.32-.69-2.01-.07-.38-.09-.76-.06-1.14.04-.58.21-1.15.52-1.67.02-.02.04-.05.06-.07.12-.21.25-.4.4-.56.42-.45.86-.67,1.31-.68.4-.04.79.07,1.16.28.18.06.3.18.47.29,0,.02.02.02.02.02h.02c.07.04.14.1.21.15.47.4.9.92,1.27,1.5.12.19.24.35.32.56.25.44.47.92.63,1.42.08.26.14.51.18.77.06-.2.16-.41.26-.62.71-1.52,2.04-3.02,3.3-3.32h.04c.55-.12,1.08,0,1.55.45.04.02.05.04.09.08.05.06.1.13.14.19.41.5.6,1.13.63,1.81.05.6-.02,1.24-.21,1.89-.19.73-.5,1.46-.87,2.11-.06.09-.12.19-.17.28-.39.62-.84,1.16-1.33,1.57-.34.29-.71.53-1.07.66.29-.11.59-.21.92-.3.78-.2,1.64-.35,2.47-.31.22,0,.43.02.65.06.04,0,.09,0,.13.02.14.02.29.05.43.09.48.15.92.36,1.31.65.31.25.59.53.79.85Z"/>
                      <path class="cls-26" d="m89.58,105.5c-1.22-.09-2.43-.21-3.65-.32,0-.09.03-.18.05-.27v-.07c-.03-.15-.02-.29,0-.45.07-.34.23-.62.43-.85.26-.26.58-.43.94-.52.15-.03.27,0,.4,0,.04,0,.05,0,.09-.01.04.02.07,0,.11.02.31.01.63.1.91.29.67.48.88,1.41.72,2.18Z"/>
                    </g>
                    <g>
                      <path class="cls-21" d="m94.17,105.86c-1.04-.08-2.09-.14-3.13-.24-.49-.04-.97-.08-1.46-.12-1.22-.09-2.43-.21-3.65-.32h-.02c-2.09-.2-4.17-.41-6.25-.66-.18-.77-.28-1.55-.26-2.36.01-.31.04-.59.07-.9-.09.3-.23.62-.4.96-.35.65-.85,1.37-1.44,2.07l-.59-.08c-.16-.02-.31-.03-.47-.06-.48-.06-.99-.13-1.49-.19-2.58-.35-5.38-.74-8.16-1.27.67-.95,1.58-1.88,2.53-2.71.39-.34.8-.67,1.21-.96,1.25-.94,2.47-1.65,3.3-1.97-.7-.12-1.65-.25-2.71-.4-.07-.02-.14-.02-.21-.05-1.6-.25-3.44-.6-5.06-1.19-.09-.02-.16-.04-.25-.08-2.5-.94-4.46-2.45-4.15-5.01.03-.27.1-.56.18-.86,1.23-4.19,6.59-3.09,9.13-1.2.86.63,1.58,1.4,2.23,2.19.46.54.91,1.1,1.37,1.67.31.39.64.77.98,1.14.02.02.03.04.05.06.11.06.18.06.22,0,.19-.21-.7-1.78-1.15-2.68-.08-.18-.15-.33-.2-.44-.96-2.46-1.19-5.59-.12-8.09.44-1.08,1.13-2.05,2.1-2.78.06-.05.11-.09.17-.12,1.77-1.28,3.26-1.21,4.42-.35.72.52,1.3,1.32,1.74,2.29.12.22.22.44.3.68.52,1.32.8,2.85.86,4.37v.02c.01.56-.01,1.12-.05,1.64-.03.27-.06.52-.11.77-.02.13-.03.25-.05.38.36-.4.77-.8,1.21-1.18.43-.36.9-.72,1.38-1.02.58-.39,1.17-.73,1.77-.99.02-.04.06-.03.07-.03.28-.15.55-.27.83-.34,1.08-.39,2.13-.54,3.01-.36.93.17,1.68.7,2.13,1.72.02.04.05.09.07.15.13.31.21.64.25.97.08.55.08,1.07-.03,1.62v.02c-.05.39-.16.79-.3,1.18v.02s-.02.05-.04.09c-.35.96-.89,1.93-1.6,2.82-.1.14-.21.28-.32.42-.06.07-.11.14-.19.21-.15.19-.32.38-.51.56v.02c-.95.99-2.03,1.83-3.14,2.48-.13.07-.26.15-.39.22-.13.07-.24.12-.35.18-1.18.56-2.35.87-3.37.83,1.26.02,2.66.2,4,.59.16.04.3.09.44.15.41.11.8.25,1.19.43h.02c.69.28,1.31.63,1.87,1.07.02,0,.02.02.04.02.28.21.52.46.76.72.04.02.07.06.1.09.26.26.48.56.69.86.25.41.47.83.61,1.25v.02c.08.2.14.4.19.62.12.47.16.98.14,1.47Z"/>
                      <path class="cls-14" d="m82.36,94.78c-.31-.5-.77-.84-1.27-1.06-.05-.03-.1-.05-.15-.08-.05-.02-.1-.04-.15-.05-.2-.09-.4-.19-.62-.23-1.22-.21-2.39.24-3.06,1.29-.16.25-.27.53-.35.81-.09.15-.19.29-.25.45-.24.58-.36,1.22-.17,1.83.19.64.65,1.15,1.23,1.46.04.02.08.03.12.05.22.21.45.4.73.52,1.19.52,2.67.2,3.5-.83.91-1.14,1.27-2.87.45-4.17Z"/>
                    </g>
                    <g>
                      <path class="cls-21" d="m120.08,98.34c-.01.23-.04.45-.1.66-.05.21-.13.41-.22.6-.2.48-.53.93-.92,1.33-.02.04-.06.05-.08.09l-.02.02c-.24.24-.53.48-.82.7h-.02c-.62.46-1.32.85-2.07,1.16-.64.26-1.34.47-2.01.6-1.57.35-3.12.3-4.2-.23.85.4,1.76.96,2.57,1.63.4.32.78.68,1.11,1.06.21.26.41.52.58.8-.7-.01-1.42-.02-2.13-.07-1.93-.03-3.86-.09-5.79-.19-.42,0-.85-.02-1.28-.04.04-.43.11-.86.25-1.27.15-.52.37-1.01.66-1.49-.23.26-.53.52-.9.76-.48.34-1.09.68-1.76.95t-.02.02c-.86.36-1.83.64-2.8.8l-1.3-.06c-.5-.04-.99-.06-1.49-.1-.32-.01-.63-.04-.95-.06-.67-.28-1.21-.74-1.53-1.42v-.02s-.03-.06-.05-.09c-.41-.96-.23-1.8.32-2.49,1.05-1.34,3.42-2.2,5.42-2.6.26-.06.51-.1.75-.15.14-.01.27-.02.4-.04.55-.08,1.02-.12,1.38-.1h.04s-.02-.02-.04-.02c-.14-.1-.32-.21-.49-.31-.58-.37-1.3-.83-2.05-1.33-1.02-.71-2.1-1.53-2.91-2.43-.19-.21-.38-.43-.53-.65-.48-.63-.77-1.31-.82-2-.06-.4,0-.83.18-1.24.02-.07.04-.12.08-.18.06-.14.16-.28.25-.42.06-.12.14-.23.23-.33.02-.02.02-.04.04-.05.09-.1.17-.19.26-.28.02-.02.04-.03.06-.05.56-.52,1.2-.74,1.87-.75.27.01.56.04.86.13.02,0,.05,0,.09.02.37.11.76.29,1.12.5.26.14.49.31.72.5.19.13.37.29.52.46.26.25.5.53.69.79.19.22.32.43.44.65.02,0,.02.02.02.02.18.33.33.66.46.99.38.92.61,1.88.85,2.83.03.11.06.22.09.31.03.13.06.24.11.35.03.15.08.27.13.42.15.19.22.03.25-.3,0-.11.01-.23,0-.36.01-.31,0-.65-.03-.98v-.02c-.02-.31-.05-.58-.04-.76-.02-.02,0-.04,0-.07.02-.47.08-.94.19-1.42,0-.13.05-.23.09-.36-.02-.04,0-.05.02-.09,0-.07.02-.14.05-.23v-.02c.06-.21.13-.39.21-.6.08-.25.18-.48.32-.73v-.02c.16-.35.36-.71.59-1.02.1-.18.23-.33.36-.49.19-.24.4-.47.62-.68.15-.14.3-.28.47-.38.15-.12.32-.22.48-.32,0,0,.02,0,.02-.02.41-.22.81-.4,1.29-.5.29-.06.56-.1.82-.13.09,0,.16-.01.23,0t.02,0c.36-.02.65.03.93.13.02,0,.05.02.07.04.07.04.16.08.25.1.02-.02.04,0,.04,0h.02l.02.02c.21.1.39.23.54.4l.02.02c.14.19.27.37.39.56l.03.04c.05.11.1.22.15.35.07.17.11.33.14.51.05.13.08.26.09.38.05.42.07.83.05,1.28v.11c-.01.14-.03.29-.04.43-.08.66-.24,1.36-.47,2.04,0,.05-.02.09-.04.12-.19.55-.41,1.08-.68,1.58-.16.32-.33.62-.53.88.26-.12.51-.21.81-.29.2-.08.39-.15.57-.19.88-.23,1.8-.37,2.69-.35.14-.01.29,0,.43,0,.04,0,.09,0,.13.02.76.03,1.42.2,1.96.48,0,.02.04.02.04.02.35.2.65.46.85.78.15.24.27.52.31.83v.02c.03.16.04.33.03.51Z"/>
                      <path class="cls-14" d="m109.57,100.12c-.06-.44-.27-.81-.55-1.12-.02-.04-.05-.07-.08-.1-.03-.03-.05-.06-.09-.08-.11-.13-.22-.25-.36-.35-.78-.52-1.72-.57-2.51-.05-.19.12-.35.28-.49.45-.11.07-.22.14-.31.23-.34.33-.62.73-.68,1.21-.06.5.09.99.4,1.38.02.03.05.05.07.07.08.21.19.41.34.58.66.73,1.78.96,2.66.5.98-.5,1.75-1.59,1.6-2.73Z"/>
                    </g>
                  </g>
                  <g>
                    <g>
                      <path class="cls-1" d="m144.75,89.45c-1.14-.72-2.11-1.66-3.38-2.17-1.72-.69-4.91-.51-4.97,2.05-.09,3.8,5.86,2.67,8.02,2.47-1.54,1.14-5.25,5.88-2.31,7.33,2.65,1.3,5.95-3.53,6.05-5.77.55,4.1,5.77,6.45,8.48,2.63,1.27-1.79.28-3.87-1.65-4.7-1.35-.58-3.19-.5-4.6-.15,2.65-.58,5.72-5.61,3.92-8.06-1.97-2.7-6.73,2.68-6.04,4.9,1.76-2.72-2.08-10.5-5.13-6.56-1.45,1.87-.8,4.67.5,6.44.28.38,1.65,1.71,1.11,1.59Z"/>
                      <path class="cls-18" d="m148.82,89.26c-.25-.24-.56-.36-.87-.41-.03-.01-.06-.02-.1-.02-.03,0-.06,0-.09,0-.13-.02-.25-.05-.39-.04-.72.07-1.31.49-1.54,1.19-.05.16-.07.34-.08.51-.03.1-.06.19-.08.29-.05.36-.02.74.18,1.06.2.33.54.55.91.64.02,0,.05,0,.08.01.15.09.32.16.49.19.75.12,1.54-.29,1.85-.99.35-.78.29-1.81-.37-2.42Z"/>
                    </g>
                    <g>
                      <path class="cls-1" d="m124.96,86.46c-1.14-.72-2.11-1.66-3.38-2.17-1.72-.69-4.91-.51-4.97,2.05-.09,3.8,5.86,2.67,8.02,2.47-1.54,1.14-5.25,5.88-2.31,7.33,2.65,1.3,5.95-3.53,6.05-5.77.55,4.1,5.77,6.45,8.48,2.63,1.27-1.79.28-3.87-1.65-4.7-1.35-.58-3.19-.5-4.6-.15,2.65-.58,5.72-5.61,3.93-8.06-1.97-2.7-6.73,2.68-6.04,4.9,1.76-2.72-2.08-10.5-5.13-6.56-1.45,1.87-.8,4.67.5,6.44.28.38,1.65,1.71,1.11,1.59Z"/>
                      <path class="cls-18" d="m129.03,86.27c-.25-.24-.56-.36-.87-.41-.03,0-.06-.02-.1-.02-.03,0-.06,0-.09,0-.13-.02-.25-.05-.39-.04-.72.07-1.31.49-1.54,1.19-.05.16-.07.34-.08.51-.03.1-.06.19-.08.29-.05.36-.02.74.18,1.06.2.33.54.55.91.64.02,0,.05,0,.08.01.15.09.32.16.49.19.75.12,1.54-.29,1.85-.99.35-.78.29-1.81-.37-2.42Z"/>
                    </g>
                    <g>
                      <path class="cls-1" d="m114.13,89.45c-1.14-.72-2.11-1.66-3.38-2.17-1.72-.69-4.91-.51-4.97,2.05-.09,3.8,5.86,2.67,8.02,2.47-1.54,1.14-5.25,5.88-2.31,7.33,2.65,1.3,5.95-3.53,6.05-5.77.55,4.1,5.77,6.45,8.48,2.63,1.27-1.79.28-3.87-1.65-4.7-1.35-.58-3.19-.5-4.6-.15,2.65-.58,5.72-5.61,3.92-8.06-1.97-2.7-6.73,2.68-6.04,4.9,1.76-2.72-2.08-10.5-5.13-6.56-1.45,1.87-.8,4.67.5,6.44.28.38,1.65,1.71,1.11,1.59Z"/>
                      <path class="cls-18" d="m118.21,89.26c-.25-.24-.56-.36-.87-.41-.03-.01-.06-.02-.1-.02-.03,0-.06,0-.09,0-.13-.02-.25-.05-.39-.04-.72.07-1.31.49-1.54,1.19-.05.16-.07.34-.08.51-.03.1-.06.19-.08.29-.05.36-.02.74.18,1.06.2.33.54.55.91.64.02,0,.05,0,.08.01.15.09.32.16.49.19.75.12,1.54-.29,1.85-.99.35-.78.29-1.81-.37-2.42Z"/>
                    </g>
                    <g>
                      <path class="cls-1" d="m140.18,105.17c-.27.37-.55.68-.85.94-.37.33-.8.58-1.22.74-.63,0-1.26.02-1.9.03h-.13c-.25,0-.52,0-.78,0v.02s-.02,0-.04,0c-.55-.19-1.08-.48-1.55-.84l-.02-.02c-.07-.06-.12-.11-.19-.15-.26-.23-.5-.49-.71-.75-.26-.34-.49-.71-.68-1.09-.05-.13-.1-.26-.15-.39-.11-.28-.19-.57-.23-.88-.01-.07-.03-.15-.04-.22,0,.05,0,.09-.02.14-.04.49-.23,1.09-.53,1.73-.14.32-.32.64-.51.97-.08.1-.15.23-.23.35-.27.42-.58.81-.92,1.17-.52,0-1.03,0-1.53,0-.92,0-1.82,0-2.74-.03h-.02c-.2,0-.4.02-.6,0-.1-.53.01-1.12.25-1.72.16-.41.36-.83.61-1.24.56-.97,1.33-1.89,1.95-2.48.13-.14.28-.26.39-.36.06-.05.11-.09.15-.12-.04,0-.09.01-.14.01-.07.01-.14.01-.24.03-1.02.12-2.58.32-4,.26-.61-.03-1.2-.11-1.72-.27-.82-.25-1.45-.69-1.74-1.45-.07-.17-.13-.37-.14-.57-.03-.16-.04-.31-.03-.49.01-.25.04-.47.1-.68v-.02c.06-.18.14-.35.24-.5.41-.65,1.14-1,1.94-1.13v-.02c.05,0,.11,0,.15-.01.14-.01.27-.02.42-.02.38-.04.78,0,1.13.07h.13s.02,0,.04,0c.3.07.59.15.84.25.18.06.34.14.5.22.58.3,1.11.68,1.62,1.06.19.15.4.29.6.42.21.17.44.33.67.46.27.07.05-.25-.26-.62-.31-.36-.71-.77-.84-.96-.22-.3-.41-.63-.59-.96-.1-.2-.2-.41-.28-.63v-.02c-.07-.15-.11-.31-.16-.48-.03-.06-.05-.13-.06-.18-.11-.42-.2-.84-.22-1.27,0-.04-.02-.05,0-.09-.02-.33,0-.65.04-.97.08-.66.34-1.3.76-1.84.02-.04.06-.07.06-.09.13-.16.26-.28.38-.4.21-.17.39-.31.59-.41h.02c.07-.05.17-.08.26-.11.2-.06.4-.09.6-.08.22,0,.43.05.64.15h.02c.14.04.25.12.37.18.3.19.58.44.83.74.05.04.1.09.14.15.62.75,1.12,1.74,1.4,2.79.13.42.22.86.25,1.27,0,.05.01.11.01.16.02-.05.04-.09.08-.14.53-.95,1.35-1.91,2.22-2.54l.02-.02s.04-.03.06-.03c.95-.66,1.95-.95,2.73-.43.07.02.14.08.19.12.03.04.05.06.07.08.09.08.17.17.24.26.1.15.19.3.25.44v.02s0,.04,0,.04c.15.3.23.59.27.93v.02c.05.51,0,1.03-.14,1.6v.02c-.06.2-.13.41-.21.62-.1.32-.24.62-.4.94-.04.05-.08.12-.1.19-.88,1.6-2.29,2.97-3.6,3.26,1.42-.35,3.27-.44,4.61.14.32.14.64.32.9.53h.02c.21.17.38.34.54.55.88.99,1.07,2.37.19,3.62Z"/>
                      <path class="cls-18" d="m132.38,98.45c-.25-.24-.56-.36-.87-.41-.03-.01-.06-.02-.1-.02-.03,0-.06,0-.09,0-.13-.02-.25-.05-.39-.04-.72.07-1.31.49-1.54,1.19-.05.16-.07.34-.08.51-.03.1-.06.19-.08.29-.05.36-.02.74.18,1.06.2.33.54.55.91.64.02,0,.05,0,.08.01.15.09.32.16.49.19.75.12,1.54-.29,1.85-.99.35-.78.29-1.81-.37-2.42Z"/>
                    </g>
                    <g>
                      <path class="cls-4" d="m135.91,87.1c-.31-1.9-.22-3.84-.89-5.69-.9-2.49-4.13-5.75-6.93-3.38-4.16,3.52,2.72,8.82,4.98,10.95-2.69-.57-11.3-.03-10.05,4.5,1.12,4.08,9.45,3.02,11.95.99-3.87,4.5-1.43,12.32,5.25,11.59,3.13-.34,4.41-3.38,3.47-6.23-.66-2-2.5-3.9-4.22-5.08,3.15,2.28,11.45.79,12.38-3.47,1.01-4.67-9.27-4.67-11-1.81,4.59-.71,9.27-12.22,2.15-11.74-3.39.23-5.77,3.58-6.43,6.67-.14.66-.26,3.39-.66,2.7Z"/>
                      <path class="cls-26" d="m139.99,91.28c.01-.49-.15-.94-.39-1.33-.02-.04-.05-.08-.07-.13-.03-.04-.05-.07-.08-.11-.1-.16-.19-.32-.33-.45-.76-.71-1.78-.94-2.74-.52-.23.1-.43.24-.62.41-.13.06-.27.12-.38.2-.44.29-.82.68-.97,1.2-.16.53-.08,1.1.18,1.59.02.03.04.06.06.09.05.25.13.49.26.7.59.92,1.77,1.38,2.83,1.04,1.16-.37,2.22-1.42,2.25-2.7Z"/>
                    </g>
                    <g>
                      <path class="cls-4" d="m113.91,103.38c-.04.05-.06.09-.1.12-.48.65-1.04,1.11-1.63,1.39-2.1,1.05-4.64.05-5.95-1.95,0-.02-.02-.02-.02-.02-.27-.44-.5-.92-.64-1.45-.06-.22-.12-.47-.15-.71-.02.38-.13.82-.31,1.3-.41,1.12-1.22,2.4-2.18,3.34t-.02.02c-.36.36-.75.67-1.16.89-.56-.02-1.1-.05-1.64-.09l-1.3-.06c-.28-.26-.44-.58-.5-.94-.09-.4-.05-.85.07-1.33.39-1.45,1.59-3.07,2.56-4.06.28-.26.53-.48.73-.64-.13.01-.25.03-.4.04-.24.03-.51.07-.8.09-1.8.21-4.4.43-5.83-.52l-.02-.02c-.12-.08-.25-.17-.35-.29-.42-.41-.64-.98-.63-1.78v-.04c.06-1.86,1.8-2.43,3.4-2.35.23.01.48.06.72.1.3.05.59.13.84.23.73.28,1.36.73,1.97,1.17.47.35.93.69,1.42,1,.18.04.15-.08.01-.29-.2-.28-.64-.73-.91-1.05-.09-.09-.15-.19-.21-.24,0-.02-.02-.02-.02-.04-.46-.63-.84-1.39-1.06-2.18-.02-.04-.03-.07-.03-.11-.17-.64-.25-1.29-.21-1.92.03-.25.06-.48.12-.72.02-.13.06-.25.09-.38h.02c.06-.21.16-.43.28-.64.02-.04.04-.07.08-.1.06-.12.14-.25.23-.37.67-.87,1.39-1.17,2.07-1.07.99.11,1.92,1.09,2.55,2.33h.02c.23.44.43.92.59,1.42.1.29.17.62.21.91.02.02,0,.02,0,.02.03.07.03.15.05.2.03.13.04.25.04.38.01.07.03.13.03.2.02-.04.04-.07.06-.11.12-.23.25-.44.41-.67.02-.04.06-.09.1-.14.17-.25.36-.49.57-.72.15-.17.32-.35.49-.5.08-.09.17-.16.24-.24.39-.33.8-.62,1.21-.8h.02s0-.02.02-.02c.15-.07.28-.11.4-.16.24-.08.47-.11.71-.11.33,0,.63.08.91.29.18.1.35.25.49.45.15.21.25.41.33.65.02.02.02.04.02.05.05.11.1.24.11.38.03.13.06.27.05.42.05.6-.05,1.26-.26,1.92v.02c-.02.05-.04.11-.06.16-.12.37-.29.76-.5,1.13-.2.39-.45.76-.7,1.11-.06.07-.1.12-.13.17-.25.31-.49.59-.78.83-.43.43-.92.77-1.4.99-.2.1-.42.18-.62.23.24-.06.49-.11.75-.15.22-.04.45-.07.69-.08l.02-.02c.51-.05,1.01-.05,1.5,0,.2,0,.41.04.61.08.38.05.73.16,1.05.3.02,0,.02.02.04.02.32.14.6.31.86.51,1.29,1.01,1.8,2.68.74,4.17Z"/>
                      <path class="cls-26" d="m106.1,96.66c-.25-.24-.56-.36-.87-.41-.03-.01-.06-.02-.1-.02-.03,0-.06,0-.09,0-.13-.02-.25-.05-.39-.04-.72.07-1.31.49-1.54,1.19-.05.16-.07.34-.08.51-.03.1-.06.19-.08.29-.05.36-.02.74.18,1.06.2.33.54.55.91.64.02,0,.05,0,.08.01.15.09.32.16.49.19.75.12,1.54-.29,1.85-.99.35-.78.29-1.81-.37-2.42Z"/>
                    </g>
                    <g>
                      <path class="cls-4" d="m135.31,106.88v.02s-.02,0-.04,0c-.36,0-.74,0-1.1-.01-.42.02-.85.02-1.26.02-1.14,0-2.27.01-3.41.02-.52,0-1.03,0-1.53,0-.92,0-1.82,0-2.74-.03h-.02c-.2,0-.4.02-.6,0-.49,0-.99,0-1.48,0,.13-.14.26-.24.37-.33-.72.06-1.91.24-3.12.3h-.09c-.29.02-.6.02-.89.01-.25-.01-.49-.02-.7-.05-1.64-.14-3.04-.71-3.2-2.3-.01-.14-.02-.29-.02-.43,0-.47.13-.88.34-1.19.43-.69,1.22-1.03,2.07-1.16h.02c.14-.01.27-.02.42-.02.11-.01.24-.03.34-.02.65,0,1.28.14,1.79.35,1.28.51,2.23,1.45,3.37,2.17.54.11-.81-1.21-1.1-1.6-.34-.47-.64-1.02-.87-1.61-.26-.66-.43-1.35-.44-2.06v-.02c-.04-.4,0-.76.07-1.13.11-.57.35-1.12.74-1.61v-.02s.04-.03.06-.05c.13-.17.27-.31.4-.43h.02s.04-.05.08-.07c.45-.38.89-.54,1.34-.52h.02c.14,0,.25.03.39.07h.02c.25.07.5.18.73.34.02,0,.02.02.02.02.14.1.28.21.42.34.09.06.16.13.24.23.41.45.79,1.03,1.08,1.65.08.17.16.37.23.55.2.48.35.99.42,1.5.06.26.09.49.11.74.1-.18.2-.37.33-.55.81-1.3,2.15-2.53,3.37-2.82.11-.03.22-.04.33-.06h.11c.53-.05.99.16,1.38.64h.02s.05.04.07.08c.63.88.65,2.09.29,3.3-.06.21-.13.43-.21.64v.02c-.3.69-.69,1.38-1.15,1.97-.06.09-.13.17-.21.26-.46.56-.96,1.02-1.48,1.36-.39.25-.78.44-1.16.51.29-.06.6-.12.93-.16.8-.13,1.68-.14,2.49,0,.2.03.41.07.61.13.05,0,.11.02.16.04.14.04.27.08.41.14.48.2.88.49,1.23.81Z"/>
                      <path class="cls-26" d="m128.29,106.45c-.08.18-.19.33-.33.47-.92,0-1.82,0-2.74-.03h-.02c-.1-.08-.19-.17-.26-.28-.18-.33-.22-.71-.17-1.07.02-.09.04-.2.08-.29v-.07c0-.16.02-.29.08-.45.1-.34.28-.6.54-.79.26-.22.61-.35.99-.39.13-.01.27.01.4.03h.09s.05.02.09.03c.32.05.62.17.88.42.28.26.44.61.52.98.11.47.05.99-.15,1.44Z"/>
                    </g>
                    <g>
                      <path class="cls-21" d="m135.09,91.02c-.11.39-.27.78-.47,1.17-.02.02-.02.05-.04.07l-.02.02c-.45.92-1.14,1.81-1.93,2.61-.11.12-.23.22-.36.33-.04.05-.1.12-.17.17l-.06.05c-.17.16-.32.29-.51.47h-.02s-.04.02-.05.01c-.19.17-.37.31-.58.46-.89.65-1.87,1.22-2.85,1.63-.13.05-.28.11-.4.16-.13.05-.24.1-.37.13-1.23.43-2.44.6-3.47.43,1.24.18,2.61.53,3.89,1.07.16.06.3.12.44.2.39.16.76.36,1.11.57.65.37,1.23.81,1.73,1.3l.02.02.02.02c.24.25.48.51.67.79.04.02.05.06.07.08.14.2.27.41.41.63.07.11.13.24.18.37.22.44.38.9.47,1.36.06.2.09.4.1.62.06.38.06.76,0,1.16-1.14,0-2.27.01-3.41.02-.52,0-1.03,0-1.53,0-.92,0-1.82,0-2.74-.03h-.02c-.2,0-.4.02-.6,0-.49,0-.99,0-1.48,0-.9,0-1.82-.02-2.74-.03h-.09c-.29.02-.6.02-.89.01,0-.02-.02-.02-.02-.04-.69-1.55-.98-3.33-.72-5.14.05-.25.09-.52.16-.77,0-.04.02-.07.02-.11-.02.07-.06.12-.1.19l-.02.02c-.1.21-.24.44-.41.69-.64.93-1.63,1.92-2.83,2.8-.67.53-1.43,1.02-2.21,1.42-.5.3-1.03.53-1.55.73-1.93-.03-3.86-.09-5.79-.19-.14-.1-.28-.23-.4-.36-.28-.32-.5-.63-.63-.95-.12-.24-.2-.48-.24-.73-.13-.76.07-1.55.5-2.29.1-.23.25-.46.39-.69.77-1.03,1.87-2.01,3.08-2.86.13-.1.28-.2.43-.29l.02-.02c.32-.22.65-.42.96-.61.11-.07.22-.13.33-.18.31-.19.63-.35.94-.5.06-.03.13-.07.18-.1.24-.12.48-.23.7-.33.29-.13.59-.25.84-.34.2-.08.39-.15.57-.19.09-.03.18-.06.26-.08-.32-.1-.7-.19-1.11-.32-.16-.04-.34-.09-.52-.13h-.02c-.32-.1-.64-.19-.98-.3-.07-.02-.14-.04-.2-.04h-.02c-.94-.28-1.94-.61-2.94-.97-.09-.04-.16-.06-.23-.1-.28-.1-.55-.2-.82-.32-.07-.04-.16-.08-.23-.1-.05-.02-.11-.06-.14-.06-.09-.06-.18-.1-.25-.14-.18-.08-.34-.16-.5-.24h-.02c-.09-.06-.18-.1-.25-.14-.16-.1-.32-.18-.46-.27-.47-.29-.91-.6-1.31-.94h-.02c-.16-.17-.28-.28-.41-.45-.31-.32-.58-.69-.77-1.08-.05-.06-.07-.13-.1-.2-.1-.22-.18-.44-.24-.7v-.02c-.08-.53-.08-1.09.09-1.69.05-.25.13-.52.25-.8,0-.02.02-.02.02-.04.08-.18.16-.35.27-.51.06-.14.14-.26.23-.37.1-.14.19-.26.3-.37.02-.04.04-.03.06-.05v-.02s.02-.02.06-.03c.55-.57,1.25-.89,2.01-.98h.02c.05-.02.11-.03.16-.03h.04c.34-.04.71-.04,1.07,0h.2c.09.03.18.03.27.04h.04s0,0,.02,0t.05.02h.02c.68.14,1.37.37,2.01.66.02,0,.04.02.05.02v.02s.02,0,.03.02l.02.02s.02,0,.04.02c.11.02.23.06.34.14.05.02.11.06.16.08.02.02.04.02.04.02.3.18.58.35.83.54.11.06.19.13.28.21.21.15.42.32.59.49.1.09.19.19.28.28h.02s.26.28.26.28c.12.15.24.28.36.43.1.13.21.24.29.37l.02.02c.14.19.27.37.39.56l.03.04c.1.17.2.32.3.46.05.07.1.15.15.22.12.19.24.37.36.56.15.26.32.52.47.78.07.09.12.19.19.28.25.43.52.83.8,1.23.02.04.05.06.07.09.12.08.2.08.23.01.02-.07.03-.2,0-.36v-.02c-.1-.49-.41-1.32-.65-1.98-.02-.04-.02-.05-.01-.07-.07-.13-.1-.24-.13-.35-.08-.2-.13-.37-.16-.48-.08-.31-.15-.66-.19-.98-.05-.18-.07-.38-.08-.58-.04-.24-.05-.47-.06-.71-.02-.31-.03-.61-.01-.94,0-.09,0-.18,0-.27v-.02c0-.11.01-.22.03-.32.03-.59.1-1.19.26-1.76.14-.68.36-1.32.64-1.92.08-.14.16-.28.23-.42.02-.05.04-.09.08-.12.18-.35.41-.69.67-.98.1-.14.21-.28.36-.4.15-.19.34-.36.53-.52.26-.22.54-.41.86-.6.26-.15.52-.28.76-.38h.02c.07-.05.15-.08.22-.08h.02c.11-.07.22-.1.33-.13.09-.03.18-.06.27-.06.13-.05.24-.06.35-.08.82-.13,1.5.03,2.09.41,0,.02.02.02.02.02h.02c.12.06.25.16.37.25.05.04.1.09.16.15.19.17.36.36.52.58.03.04.07.09.08.13.31.43.56.91.75,1.46.1.26.18.51.26.79.02.04.01.07.03.11.09.35.17.71.22,1.09.03.15.04.29.05.44.08.58.11,1.18.1,1.77,0,.38-.01.74-.05,1.12v.14s0,.02,0,.04c0,.18-.03.36-.06.54-.08.56-.17,1.09-.32,1.61-.02.07-.04.16-.08.23-.02.13-.06.23-.11.36.22-.19.47-.4.73-.56.09-.09.21-.17.32-.22.09-.09.21-.15.32-.22.3-.2.61-.41.94-.57.11-.07.22-.12.33-.18.05-.02.11-.05.17-.08.02-.02.04-.02.07-.03.61-.3,1.25-.56,1.87-.75.26-.1.51-.16.77-.2h.02c.06-.03.07-.05.13-.05,1.11-.24,2.16-.27,3.03.02h.02c.32.09.62.24.88.44.21.15.4.34.54.56.03.04.07.06.09.09.07.09.12.19.15.3.12.17.18.35.23.55v.02s.05.07.05.11v.02s.02.02.02.04c.03.11.04.24.06.35v.02s.01.07.01.09h.02c.01.07.01.15.03.22,0,.09,0,.2,0,.29.03.52-.05,1.06-.21,1.62Z"/>
                      <path class="cls-14" d="m122.52,94.75c-.25-.53-.66-.93-1.13-1.21-.05-.04-.09-.07-.14-.1-.05-.02-.09-.05-.14-.07-.19-.12-.37-.24-.59-.31-1.19-.36-2.4-.06-3.2.9-.19.23-.33.49-.45.76-.11.14-.22.27-.31.42-.31.55-.51,1.16-.4,1.8.11.65.5,1.22,1.04,1.6.04.03.08.04.11.07.19.24.4.45.66.61,1.12.67,2.63.53,3.57-.39,1.05-1.01,1.61-2.7.97-4.08Z"/>
                    </g>
                    <g>
                      <path class="cls-21" d="m159.55,102.61c0,.07,0,.13-.03.2.02.05,0,.11,0,.16-.07.47-.25.89-.51,1.28-.46.74-1.21,1.36-2.1,1.84-.13.08-.28.15-.43.23-.01-.07-.03-.15-.05-.2-1.05.08-2.08.15-3.11.19-.02.02-.04.03-.06.03v-.04c-.98.07-1.95.12-2.91.16-.6.03-1.21.06-1.81.09h-.02c-.8.04-1.61.06-2.4.08-.6.05-1.21.06-1.81.07.04-.07.1-.16.15-.23-.09.07-.19.15-.28.22-.52.03-1.07.04-1.59.06-.49.02-.98.03-1.46.03h-.02c-1.01.05-2.02.06-3.02.07-.63,0-1.26.02-1.9.03h-.13c-.25,0-.52,0-.78,0v.02s-.02,0-.04,0c-.36,0-.74,0-1.1-.01-.21-.24-.36-.52-.45-.83l-.02-.02s-.01-.07-.03-.11c-.28-1,0-1.8.65-2.43.93-.97,2.68-1.53,4.37-1.8.45-.07.89-.11,1.31-.14.51-.03.98-.05,1.39-.03h.02c.45,0,.85.04,1.15.09-.45-.4-1.12-.91-1.83-1.54-.91-.76-1.88-1.65-2.65-2.62l-.02-.02c-.15-.19-.29-.36-.43-.54-.26-.35-.47-.72-.64-1.09-.13-.28-.23-.53-.27-.81-.09-.31-.14-.62-.12-.93.02-.45.15-.9.42-1.34.14-.21.29-.4.48-.59.04-.05.09-.09.13-.14l.06-.05c.08-.07.15-.14.24-.19.02-.04.04-.03.06-.03.02-.04.04-.05.06-.05.24-.19.5-.32.76-.4.4-.15.8-.16,1.18-.11.07,0,.13,0,.18.03.2.03.38.09.57.15.09.04.2.08.28.12.34.16.65.35.95.6.16.11.33.25.49.42.21.19.42.41.62.66.19.24.38.49.51.74,0,0,.02,0,.02.02.15.24.29.48.38.72.02.04.03.07.05.11.08.2.15.39.21.59.05.16.09.31.14.48.03.15.06.29.09.44v.04s0,.02,0,.04v.04s.01.04.01.05c.15.67.23,1.38.33,2.05v.02c.03.07.03.16.04.25.06.36.11.73.19,1.09.14.2.21.06.28-.24.07-.34.11-.88.13-1.35.03-.36.07-.68.09-.86.07-.45.18-.91.33-1.36.06-.14.1-.28.16-.43.22-.59.52-1.15.88-1.68.29-.46.65-.87,1.03-1.24.23-.21.45-.4.69-.58.09-.07.2-.14.3-.19.07-.05.15-.1.22-.13.57-.32,1.21-.54,1.9-.62.22-.03.43-.04.61-.03h.2c.05.01.09.01.14.03.41.02.77.12,1.07.26h.02s.05.04.07.06c.48.25.8.65,1.02,1.13.1.24.18.48.2.75.07.36.09.74.08,1.16-.05.77-.25,1.61-.55,2.43-.1.32-.24.66-.4.98-.42.85-.94,1.64-1.54,2.3.22-.06.44-.13.66-.19h.02c.36-.07.73-.13,1.11-.17.2-.03.42-.04.63-.06,1.19-.04,2.4.1,3.34.47.48.18.88.43,1.2.76.12.11.22.24.33.37v.02c.22.35.33.75.31,1.22Z"/>
                      <path class="cls-14" d="m148.87,103.42c0-.44-.17-.84-.4-1.18-.02-.04-.04-.07-.07-.11-.03-.03-.05-.06-.07-.09-.09-.14-.18-.28-.31-.39-.71-.61-1.63-.78-2.48-.36-.2.1-.38.24-.54.39-.11.06-.23.11-.34.19-.38.28-.71.64-.83,1.11-.12.49-.03.99.22,1.42.02.03.04.05.06.08.06.22.13.43.26.62.56.8,1.65,1.17,2.58.83,1.03-.38,1.94-1.36,1.92-2.51Z"/>
                    </g>
                  </g>
                  <g>
                    <g>
                      <path class="cls-1" d="m182.52,91.26c-1.14-.72-2.11-1.66-3.38-2.17-1.72-.69-4.91-.51-4.97,2.05-.09,3.8,5.86,2.67,8.02,2.47-1.54,1.14-5.25,5.88-2.31,7.33,2.65,1.3,5.95-3.53,6.05-5.77.55,4.1,5.77,6.45,8.48,2.63,1.27-1.79.28-3.87-1.65-4.7-1.35-.58-3.19-.5-4.6-.15,2.65-.58,5.72-5.61,3.93-8.06-1.97-2.69-6.73,2.68-6.04,4.9,1.76-2.72-2.08-10.5-5.13-6.56-1.45,1.87-.8,4.67.5,6.44.28.38,1.65,1.71,1.11,1.59Z"/>
                      <path class="cls-18" d="m186.6,91.07c-.25-.24-.56-.36-.87-.41-.03-.01-.06-.02-.1-.02-.03,0-.06,0-.09,0-.13-.02-.25-.05-.39-.04-.72.07-1.31.49-1.54,1.19-.05.16-.07.34-.08.51-.03.1-.06.19-.08.29-.05.36-.02.74.18,1.06.2.33.54.55.91.64.02,0,.05,0,.08.01.15.09.32.16.49.19.75.12,1.54-.29,1.85-.99.35-.78.29-1.81-.37-2.42Z"/>
                    </g>
                    <g>
                      <path class="cls-1" d="m162.73,88.28c-1.14-.72-2.11-1.66-3.38-2.17-1.72-.69-4.91-.51-4.97,2.05-.09,3.8,5.86,2.67,8.02,2.47-1.54,1.14-5.25,5.88-2.31,7.33,2.65,1.3,5.95-3.53,6.05-5.77.55,4.1,5.77,6.45,8.48,2.63,1.27-1.79.28-3.87-1.65-4.7-1.35-.58-3.19-.5-4.6-.15,2.65-.58,5.72-5.61,3.92-8.06-1.97-2.7-6.73,2.68-6.04,4.9,1.76-2.72-2.08-10.5-5.13-6.56-1.45,1.87-.8,4.67.5,6.44.28.38,1.65,1.71,1.11,1.59Z"/>
                      <path class="cls-18" d="m166.81,88.08c-.25-.24-.56-.36-.87-.41-.03-.01-.07-.02-.1-.02-.03,0-.06,0-.09,0-.13-.02-.25-.05-.39-.04-.72.07-1.31.49-1.54,1.19-.05.16-.07.34-.08.51-.03.1-.06.19-.08.29-.05.36-.02.74.18,1.06.2.33.54.55.91.64.02,0,.05,0,.08.01.15.09.31.16.49.19.75.12,1.54-.29,1.85-.99.35-.78.29-1.81-.37-2.42Z"/>
                    </g>
                    <g>
                      <path class="cls-1" d="m151.91,91.26c-1.14-.72-2.11-1.66-3.38-2.17-1.72-.69-4.91-.51-4.97,2.05-.09,3.8,5.86,2.67,8.02,2.47-1.54,1.14-5.25,5.88-2.31,7.33,2.65,1.3,5.95-3.53,6.05-5.77.55,4.1,5.77,6.45,8.48,2.63,1.27-1.79.28-3.87-1.65-4.7-1.35-.58-3.19-.5-4.6-.15,2.65-.58,5.72-5.61,3.93-8.06-1.97-2.7-6.73,2.68-6.04,4.9,1.76-2.72-2.08-10.5-5.13-6.56-1.45,1.87-.8,4.67.5,6.44.28.38,1.65,1.71,1.11,1.59Z"/>
                      <path class="cls-18" d="m155.98,91.07c-.25-.24-.56-.36-.87-.41-.03,0-.07-.02-.1-.02-.03,0-.06,0-.09,0-.13-.02-.25-.05-.39-.04-.72.07-1.31.49-1.54,1.19-.05.16-.07.34-.08.51-.03.1-.06.19-.08.29-.05.36-.02.74.18,1.06.2.33.54.55.91.64.02,0,.05,0,.08.01.15.09.31.16.49.19.75.12,1.54-.29,1.85-.99.35-.78.29-1.81-.37-2.42Z"/>
                    </g>
                    <g>
                      <path class="cls-1" d="m165.09,110.24s-.07.02-.11.01c.04-.11.05-.21.05-.32.01.11.03.22.06.31Z"/>
                      <path class="cls-1" d="m178.14,103.85c-1.67.25-3.34.47-5.01.67-.47.07-.93.12-1.4.18-.36.06-.74.09-1.11.13-.29.04-.58.08-.87.11-.05,0-.09.01-.14.01-.03-.11-.06-.22-.08-.33-.01-.09-.03-.16-.04-.25,0,.05,0,.11-.03.16,0,.14-.03.29-.07.45-1.51.17-3.01.32-4.51.48-.43.04-.87.07-1.3.11-.07.02-.16.01-.24.03.56-.91,1.27-1.75,1.85-2.3.15-.14.28-.26.39-.34.06-.05.11-.1.17-.14-.05,0-.11.01-.16.01-.07.01-.14.01-.24.03-1.47.17-3.96.52-5.7,0-.04-.02-.09-.04-.12-.04-.76-.27-1.36-.71-1.64-1.42-.11-.29-.19-.64-.17-1.05v-.09c.02-.43.15-.79.34-1.09.39-.67,1.13-1.02,1.94-1.14v-.02c.05,0,.11,0,.15-.01.14-.01.27-.02.42-.02.43-.04.87,0,1.26.07h.04c.3.07.59.15.84.25.16.06.32.14.48.22.58.3,1.11.66,1.62,1.04.21.15.4.31.61.44.23.17.44.33.67.46.29.07.06-.25-.26-.62-.29-.36-.71-.77-.84-.96-.22-.3-.41-.63-.59-.96-.1-.22-.2-.41-.28-.64v-.02c-.08-.2-.16-.42-.21-.64v-.02c-.24-.77-.31-1.55-.19-2.32.03-.27.09-.52.2-.77.13-.39.3-.75.57-1.08.34-.44.68-.73,1.03-.89h.02c.3-.15.59-.21.87-.2,1.12.07,2.17,1.18,2.85,2.59.42.85.7,1.8.79,2.69,0,.05.01.11.01.16.02-.05.06-.09.08-.14.53-.93,1.33-1.89,2.2-2.52h.02s.02-.02.02-.02c.02-.02.06-.03.07-.05.95-.68,1.97-.94,2.73-.43v.02c.09.02.18.1.24.17.09.08.17.17.24.26.07.09.12.19.15.28.22.35.33.74.37,1.15v.02c.1,1-.22,2.12-.75,3.18-.87,1.68-2.34,3.15-3.69,3.45,1.4-.36,3.25-.44,4.6.14.6.26,1.11.62,1.47,1.07.14.15.26.32.36.48Z"/>
                      <path class="cls-18" d="m170.15,100.26c-.25-.24-.56-.36-.87-.41-.03-.01-.06-.02-.1-.02-.03,0-.06,0-.09,0-.13-.02-.25-.05-.39-.04-.72.07-1.31.49-1.54,1.19-.05.16-.07.34-.08.51-.03.1-.06.19-.08.29-.05.36-.02.74.18,1.06.2.33.54.55.91.64.02,0,.05,0,.08.01.15.09.32.16.49.19.75.12,1.54-.29,1.85-.99.35-.78.29-1.81-.37-2.42Z"/>
                    </g>
                    <g>
                      <path class="cls-4" d="m189.67,92.7c.01.07,0,.14-.03.22,0,.05,0,.13-.03.18-.25,1.13-1.01,2.05-2.05,2.76-.39.27-.8.51-1.24.71-.28.13-.57.26-.88.36-.53.19-1.08.33-1.63.45-.56.1-1.13.19-1.67.22-1.03.06-2.02,0-2.9-.2-.79-.16-1.48-.44-2.02-.84.6.4,1.19.9,1.76,1.47.94.89,1.77,1.97,2.25,3.09.08.17.15.33.21.51.18.55.29,1.13.31,1.67-1.2.2-2.42.38-3.62.55-1.67.25-3.34.47-5.01.67-.47.07-.93.12-1.4.18-.2-.35-.37-.72-.49-1.1v-.02c-.4-1.26-.46-2.67-.15-4.01.25-1.09.74-2.15,1.49-3.08.06-.07.11-.14.17-.21-.13.1-.28.2-.45.31-.59.37-1.38.7-2.26.95-.11.03-.24.06-.36.07v.02c-.13.03-.26.06-.4.09-1.59.37-3.36.47-4.9.19-.2-.03-.39-.07-.57-.13-.11,0-.21-.05-.32-.09-.21-.05-.41-.13-.59-.21-.37-.14-.69-.34-.99-.57-.52-.4-.92-.94-1.1-1.64-.17-.6-.15-1.14,0-1.61t.02-.02c.02-.16.1-.3.18-.44.08-.14.16-.26.25-.39.15-.17.3-.33.49-.47.66-.55,1.57-.94,2.6-1.22h.02c.88-.25,1.82-.39,2.75-.48,1.5-.12,2.91-.06,3.75.12-.31-.28-.7-.63-1.13-1.04-.09-.06-.19-.13-.28-.23-.47-.42-.99-.91-1.51-1.4-.52-.53-1.04-1.07-1.5-1.65-.09-.09-.15-.21-.24-.3-1.44-1.85-2.29-3.89-1.01-5.6.19-.26.4-.49.68-.73,2.17-1.82,4.58-.29,5.98,1.65l.02.02c.41.56.71,1.13.92,1.68,0,.02.02.02.02.04.66,1.87.58,3.8.88,5.7.4.69.52-2.05.66-2.72.67-3.08,3.05-6.44,6.44-6.66,2.7-.19,3.7,1.35,3.65,3.39-.04,2.18-1.33,4.94-3.03,6.68,0,.02-.02.04-.04.05.02,0,.04-.02.05-.02,1.42-.35,3.1-.43,4.59-.18.07.02.14.04.21.05,1.83.35,3.3,1.22,3.46,2.69.01.16.02.33,0,.51Z"/>
                      <path class="cls-26" d="m177.77,93.09c.01-.49-.15-.94-.39-1.33-.02-.04-.05-.08-.07-.13-.03-.04-.05-.07-.08-.11-.1-.16-.19-.32-.33-.45-.76-.71-1.78-.94-2.74-.52-.23.1-.43.24-.62.41-.13.06-.27.12-.39.2-.44.29-.82.68-.97,1.2-.16.53-.08,1.1.18,1.59.02.03.04.06.06.09.05.25.13.49.26.7.59.92,1.77,1.38,2.83,1.04,1.16-.37,2.22-1.42,2.25-2.7Z"/>
                    </g>
                    <g>
                      <path class="cls-4" d="m151.68,105.19c-.38.56-.84.98-1.32,1.28-.6.03-1.21.06-1.81.09h-.02c-.8.04-1.61.06-2.4.08-1.15-.55-2.12-1.59-2.62-2.87-.07-.15-.11-.31-.16-.48-.06-.22-.12-.47-.15-.71-.03.74-.42,1.75-1.02,2.75,0,0,0,.02-.02.02v.02c-.28.51-.62.97-1.02,1.42h-.02c-1.01.05-2.02.06-3.02.07-.63,0-1.26.02-1.9.03h-.13c-.07-.48.02-1,.23-1.53v-.02c.47-1.33,1.51-2.73,2.38-3.63.28-.28.55-.52.75-.69-1.27.13-3.85.56-5.75.13-.14-.04-.29-.08-.41-.13-.16-.04-.3-.1-.44-.18-.04,0-.05-.02-.07-.04-.83-.4-1.36-1.1-1.33-2.26,0-.18.01-.34.06-.5.05-.21.11-.37.2-.53v-.02c.06-.14.14-.25.23-.35.44-.52,1.1-.8,1.83-.93t.04-.02h.07c.34-.04.69-.04,1.03-.02h.04s.02,0,.02,0c.54.04,1.04.17,1.47.33.39.16.76.36,1.11.59.18.1.35.21.53.35l.02.02c.56.38,1.12.84,1.72,1.21.54.11-.83-1.21-1.11-1.58-.26-.34-.47-.72-.66-1.13-.08-.15-.15-.3-.2-.46-.16-.39-.29-.81-.36-1.22-.02-.05-.03-.13-.05-.2-.1-.64-.09-1.3.06-1.93,0-.07.02-.14.06-.21,0-.11.04-.2.09-.3,0-.02,0-.04.04-.05.02-.13.08-.23.14-.35,0,0,0-.02.02-.04v-.02c.06-.12.14-.23.23-.35.02-.05.08-.12.12-.18.32-.42.66-.69.99-.88.07-.03.15-.07.22-.1h.02c.28-.11.55-.14.83-.09.48.06.94.31,1.38.71.02.02.05.04.07.06.36.34.69.77.97,1.27.07.11.13.24.2.37.08.13.15.28.22.44.07.15.13.29.2.46v.02c.11.31.22.66.28.99,0,0,.02,0,.02.02.09.36.15.73.17,1.09.06-.12.14-.25.21-.37.25-.42.56-.84.9-1.23.19-.23.38-.42.58-.59l.02-.02c.24-.22.49-.41.73-.58.17-.12.32-.2.48-.29.81-.42,1.61-.51,2.24-.03.04,0,.07.02.09.06.07.04.14.1.19.19.05.04.1.09.16.17.32.43.48.94.51,1.48.02.07.01.13,0,.2.03.56-.07,1.13-.27,1.74v.02c-.04.14-.1.28-.16.43-.1.3-.24.59-.4.87-.2.39-.45.76-.7,1.11v.02s0,.02-.02.02c-.76,1-1.65,1.75-2.54,2.08-.13.05-.24.08-.37.11.13-.03.26-.06.38-.09.35-.06.69-.11,1.05-.14l.02-.02c.51-.05,1.01-.05,1.5,0,.59.04,1.17.16,1.66.38.32.14.64.32.9.53.33.27.61.55.81.88.64.97.74,2.18-.07,3.28Z"/>
                      <path class="cls-26" d="m143.87,98.47c-.25-.24-.56-.36-.87-.41-.03,0-.07-.02-.1-.02-.03,0-.06,0-.09,0-.13-.02-.25-.05-.39-.04-.72.07-1.31.49-1.54,1.19-.05.16-.07.34-.08.51-.03.1-.06.19-.08.29-.05.36-.02.74.18,1.06.2.33.54.55.91.64.02,0,.05,0,.08.01.15.09.32.16.49.19.75.12,1.54-.29,1.85-.99.35-.78.29-1.81-.37-2.42Z"/>
                    </g>
                    <g>
                      <path class="cls-4" d="m161.19,105.76c-1.43.12-2.84.24-4.27.32-.13.08-.28.15-.43.23-.01-.07-.03-.15-.05-.2-1.05.08-2.08.15-3.11.19-.02.02-.04.03-.06.03v-.04c-.01-.13-.02-.25-.02-.4.05-1.68,1.42-2.32,2.84-2.37.11-.01.24-.03.34-.02.65,0,1.28.14,1.79.35.27.1.53.24.78.38.78.45,1.46,1,2.17,1.52Z"/>
                      <path class="cls-4" d="m171.24,103.57v.02c-.16.43-.38.83-.61,1.24-.29.04-.58.08-.87.11-.05,0-.09.01-.14.01-.07.02-.14.01-.22.03-1.51.17-3.01.32-4.51.48-.43.04-.87.07-1.3.11-.07.02-.16.01-.24.03-.58.07-1.16.11-1.74.14-.27-.37-.91-1.03-1.1-1.29-.34-.47-.64-1-.85-1.59-.05-.07-.08-.15-.1-.24-.15-.4-.25-.81-.31-1.22v-.02c-.04-.2-.05-.4-.05-.6v-.02c-.04-.4,0-.78.09-1.15.11-.57.34-1.12.72-1.59v-.02s.04-.03.06-.05c.17-.21.32-.37.49-.5.45-.38.91-.54,1.36-.52.41.02.8.18,1.17.43.14.1.28.21.4.34.07.06.14.13.23.21.41.45.79,1.03,1.08,1.65.1.18.18.37.25.57.2.48.34.99.42,1.48.06.26.1.53.11.78.1-.19.22-.39.33-.58.91-1.41,2.41-2.73,3.7-2.86h.02c.56-.07,1.08.12,1.47.62.04.02.05.06.09.09.75,1.02.65,2.5.07,3.92Z"/>
                      <path class="cls-26" d="m164.88,105.45c-.43.04-.87.07-1.3.11.2-.1.42-.16.66-.19.14-.01.27.01.4.03h.09s.07.03.11.03c.02,0,.04,0,.05.02Z"/>
                    </g>
                    <g>
                      <path class="cls-21" d="m165.09,110.24s-.07.02-.11.01c.04-.11.05-.21.05-.32.01.11.03.22.06.31Z"/>
                      <path class="cls-21" d="m173.07,91.23c.03.92-.21,1.85-.68,2.77-.02.04-.02.05-.04.09,0,0,0,.02-.02.02-.47.92-1.14,1.79-1.93,2.59-.11.12-.23.24-.36.35-.08.07-.15.14-.23.22-.17.16-.36.31-.54.45-1.07.88-2.27,1.6-3.47,2.11-.13.07-.28.11-.4.16-.13.05-.26.1-.37.13-1.25.43-2.44.6-3.47.43,1.24.18,2.59.53,3.89,1.05.14.06.3.12.44.2.39.18.76.38,1.13.59v.02c.63.35,1.23.79,1.71,1.28l.03.04c.26.26.48.53.69.81.03.04.05.06.07.09.09.11.15.21.22.32-.05,0-.09.01-.14.01-.07.02-.14.01-.22.03-1.51.17-3.01.32-4.51.48-.43.04-.87.07-1.3.11-.07.02-.16.01-.24.03-.58.07-1.16.11-1.74.14-.14.01-.27.02-.42.04-1.43.12-2.84.24-4.27.32-.13.08-.28.15-.43.23-.01-.07-.03-.15-.05-.2-.13-.85-.13-1.72,0-2.6.05-.29.12-.59.18-.88-.12.28-.3.58-.53.9-.63.91-1.62,1.9-2.77,2.77-.02.02-.04.03-.06.03v-.04c-.98.07-1.95.12-2.91.16-.6.03-1.21.06-1.81.09h-.02c-.8.04-1.61.06-2.4.08-.6.05-1.21.06-1.81.07-.04.02-.09.01-.13,0-.52.03-1.07.04-1.59.06-.21-.55-.22-1.11-.09-1.66.13-.61.43-1.21.84-1.81.17-.21.34-.42.53-.63.04-.07.08-.1.13-.16h.02s.02-.02.02-.02v-.02c.11-.14.23-.26.36-.4.08-.07.17-.16.24-.21.45-.45.96-.84,1.48-1.24.24-.17.48-.34.73-.49l.02-.02c.43-.29.87-.56,1.3-.79,1.35-.77,2.64-1.31,3.5-1.55-.68-.21-1.61-.45-2.62-.74-.07-.02-.14-.04-.2-.04h-.02c-.61-.19-1.23-.38-1.87-.59-.37-.14-.75-.27-1.1-.41-.23-.08-.43-.18-.66-.28h-.04c-.21-.08-.43-.18-.64-.26-.11-.06-.21-.1-.3-.14-.16-.08-.32-.16-.46-.24-.02-.02-.04-.02-.05-.02-.51-.27-.99-.57-1.42-.89-.63-.44-1.15-.95-1.52-1.53-.05-.06-.1-.13-.14-.2-.07-.11-.12-.22-.17-.33-.12-.22-.21-.48-.26-.72-.03-.07-.03-.13-.06-.2,0-.09-.01-.18-.02-.27-.01-.16-.02-.33-.02-.49,0-.14.03-.29.04-.45.02-.13.05-.27.11-.41.05-.27.15-.55.27-.84.24-.57.57-1.02.96-1.38.4-.4.88-.67,1.41-.81.07-.05.15-.07.22-.06.53-.14,1.09-.17,1.67-.11.63.04,1.29.22,1.91.44.14.06.3.12.44.18.37.16.73.34,1.06.53.07.06.16.1.23.15.02,0,.04.02.05.02h.02s.02,0,.02.02c.47.29.86.61,1.22.95.43.42.83.88,1.19,1.35.17.22.34.47.49.69.05.09.1.17.15.24.03.06.07.09.1.15h.02s0,.02,0,.02c.05.07.1.15.13.22.24.35.46.72.69,1.09.1.18.22.35.32.52.03.06.07.11.1.17.24.37.47.72.73,1.08.02.02.03.06.05.07.12.08.2.08.22,0,.06-.14-.03-.54-.19-1.02-.08-.24-.16-.49-.26-.73-.13-.37-.26-.73-.35-1.03-.02-.04-.03-.07-.03-.11h-.02c-.05-.15-.1-.28-.11-.37-.02-.05-.03-.09-.03-.15-.11-.4-.18-.82-.24-1.26-.09-.74-.12-1.52-.07-2.28-.01-.11,0-.22.03-.32v-.02c.1-1.44.48-2.81,1.2-4.01v-.02s.02-.02.02-.02c.02-.07.06-.14.12-.21.56-.91,1.32-1.69,2.28-2.27.69-.4,1.33-.63,1.89-.71,1.07-.19,1.98.12,2.67.76.02.02.04.02.03.06,1.6,1.48,2.24,4.66,1.97,7.63v.04c-.09.84-.25,1.63-.48,2.38h.02s0,0-.02.02c-.02.11-.05.23-.09.34.41-.36.88-.72,1.38-1.04,1.04-.68,2.22-1.24,3.37-1.61.29-.1.6-.19.89-.23,1.11-.26,2.2-.29,3.07,0,.89.27,1.59.92,1.88,1.96v.02c.03.06.05.11.06.17.08.31.12.64.12.98Z"/>
                      <path class="cls-14" d="m160.3,96.56c-.25-.53-.66-.93-1.13-1.21-.04-.04-.09-.07-.14-.1-.05-.02-.09-.05-.14-.07-.19-.12-.37-.24-.59-.31-1.19-.36-2.4-.06-3.2.9-.19.23-.33.49-.45.76-.11.14-.22.27-.31.42-.31.55-.51,1.16-.4,1.8.11.65.5,1.22,1.04,1.6.04.03.08.04.11.07.19.24.4.45.66.61,1.12.67,2.63.53,3.57-.39,1.05-1.01,1.61-2.7.97-4.08Z"/>
                    </g>
                    <g>
                      <path class="cls-21" d="m192.13,97.12c-.14.84-.45,1.73-.85,2.58-.38.78-.86,1.53-1.39,2.14-.64.12-1.26.24-1.86.35-1.22.24-2.44.46-3.67.67-.02,0-.04,0-.07.02-.2.03-.42.07-.64.1-.62.12-1.25.22-1.89.32-1.2.2-2.42.38-3.62.55-1.67.25-3.34.47-5.01.67,1.31-.68,3.09-1.04,4.65-1.15,1.03-.08,1.95-.04,2.56.06-1.15-.99-3.55-2.77-4.94-4.72-.65-.93-1.07-1.89-1.03-2.82.02-.36.1-.72.26-1.05.08-.14.16-.26.23-.39.04-.05.08-.09.1-.14,0,0,0-.02.02-.02.12-.16.27-.31.42-.47.02-.02.04-.03.06-.05.09-.09.19-.17.3-.22.65-.51,1.35-.65,2.01-.56.68.08,1.37.42,1.97.9.35.25.68.57.97.91.03.06.09.11.14.17.41.5.75,1.06.96,1.59.15.35.26.72.35,1.06.25.97.33,1.93.49,2.91.04.36.11.74.19,1.11.27.44.35-.69.39-1.59.03-.36.07-.68.09-.86.1-.59.27-1.2.51-1.78.28-.73.66-1.42,1.13-2.03.23-.31.5-.61.78-.89.36-.36.75-.65,1.19-.89.57-.34,1.22-.56,1.9-.64.29-.02.56-.05.81-.02,2.29.12,2.89,2.04,2.49,4.2Z"/>
                      <path class="cls-14" d="m184.29,102.89c-.2.03-.42.07-.64.1.22-.08.44-.13.64-.1Z"/>
                    </g>
                  </g>
                </g>
              </g>
            </g>
            <g>
              <g>
                <g>
                  <path class="cls-24" d="m189.81,178.68c-.07-.04-.13-.07-.2-.11-.01,0-.02,0-.03-.01-1.06-.55-2.19-.9-3.26-1.33-1.4-.57-2.68-1.3-3.49-2.82-1.16-2.18-1.43-5.11-3.44-6.77-.19-.15-.33-.23-.44-.24-.5-.09-.34,1.03-.46,1.57-.27,1.17-.86,2.29-1.63,3.22-.81.97-1.87,1.66-2.95,2.3-1.1.65-2.1,1.38-3.17,2.13-1.11.77-2.46,1.32-3.42,2.28-.13-1.54-.2-3.05-.51-4.57,0-.02,0-.05,0-.06-.03-.1-.05-.2-.08-.31-.6-2.58-1.91-5.28-.39-7.76.98-1.62,2.46-2.59,4.09-3.31.26-.12.52-.23.8-.34l-.3-.02c-.39-.02-.78-.02-1.18-.03-.57,0-1.14,0-1.71.04-1.48.06-2.96.22-4.42.47-.01,0-.03,0-.05,0-.81.13-1.61.3-2.39.5-.89.21-2.27.95-2.98.66h0c-.29-.12-.48-.42-.47-.99.04-2.86,2.92-6.17,4.99-7.87,3.01-2.49,7.05-1.91,9.94.52.22.18.43.38.6.59.23.23.42.47.61.73-.2-1.6-.18-3.25-.16-4.66.07-3.17,1.08-5.42,3.53-7.43,1.21-.98,3.14-1.87,3.98-3.24,0,.09,0,.18.02.28.21,3.7.77,7.71-.05,11.35-.23,1-.56,1.98-1.02,2.92,1.25-.93,2.59-1.75,4-2.26,3.33-1.22,6.42-.49,9.48,1.12,1.53.79,4.06,1.89,5.11,3.38-.06.07-.13.13-.2.19-.77.61-2.18.77-3.08,1.26-2.12,1.14-3.95,2.53-6.36,3.05-1.02.23-2.07.34-3.13.36-.93.01-2-.29-2.89-.18.05.11.14.21.24.31.62.59,1.95.99,2.56,1.37,1.73,1.09,3.34,2.4,3.97,4.42.65,2.1-.06,4.12-.26,6.22-.1,1.06.12,2.05.21,3.09Z"/>
                  <path class="cls-33" d="m178.29,163.24c-.15-.04-.3-.08-.43-.13-.11-.04-.21-.08-.3-.12-.01,0-.03,0-.03,0-.06-.02-.11-.04-.15-.07-.31-.13-.59-.27-.83-.44-.05-.04-.12-.08-.17-.13-.01,0-.02,0-.02,0h0c-.35-.28-.66-.6-.93-.96-.37-.49-.69-1.08-1.04-1.74-.26-.5-.48-.99-.65-1.49-.22-.58-.37-1.16-.46-1.77.23.23.42.47.61.73-.2-1.6-.18-3.25-.16-4.66.07-3.17,1.08-5.42,3.53-7.43,1.21-.98,3.14-1.87,3.98-3.24,0,.09,0,.18.02.28-.32.4-.68.76-1.03,1.1-1.22,1.21-2.42,2.53-3.4,3.94-1.2,1.75-1.66,3.81-1.62,5.91.01.83.07,1.67.12,2.5.02.38-.04.93.25,1.19.31-.29.43-.74.61-1.12.3-.63.7-1.22.84-1.91.22.73.24,1.59.3,2.33.06.79-.14,1.83.19,2.53.94-1.99,1.48-4.21,2.11-6.33.35.44.5,1.08.52,1.65.04,1.12-.04,2.4-.16,3.53-.05.45-.13.89-.22,1.34-.19.8-.43,1.61-.67,2.4-.11.34-.22.67-.31.99l-.04.09-.14.32-.03.05-.27.63Z"/>
                  <path class="cls-33" d="m177.81,163.32c-.07.07-.15.13-.23.19h0s-.03.03-.05.03c-.05.03-.1.07-.15.08-.26.12-.56.19-.9.21-1.23.1-2.82-.35-3.7-.49-.8-.13-1.57-.31-2.35-.47-.36-.07-.72-.15-1.09-.21-.43-.07-.86-.12-1.3-.14-.12-.01-.26-.02-.39-.02-1.37-.03-2.71.16-4.03.49-.01,0-.03,0-.05,0-.81.13-1.61.3-2.39.5-.89.21-2.27.95-2.98.66.16-.11.31-.22.44-.31,1.71-1.23,3.48-2.19,5.53-2.7,1.89-.47,3.96-.56,5.9-.54.51,0,1.51.27,1.96-.07-.11-.75-1.45-1.18-1.98-1.62.49-.03,1.18.26,1.67.44.35.13.91.53,1.29.43-.14-.64-1.1-1.17-1.59-1.55-.95-.72-2.32-1.07-3.13-1.92.7-.34,2.13.27,2.83.51.94.31,1.8.77,2.59,1.35h0c.2.16.4.32.59.47.62.52,2.05,1.63,1.83,2.64,0,.01,0,.02,0,.03l.38.46.02.02.37.46.41.48.21.25.03.03.2.25.06.08Z"/>
                  <path class="cls-33" d="m174.14,164.41c-1.14.62-1.79,2.32-2.79,3.17-.11-1.16,1.08-3.28,1.88-3.97-3.15,1.63-5.84,4.44-6.35,8.09-.12.8-.13,1.68-.07,2.55-.03-.1-.05-.2-.08-.31-.6-2.58-1.91-5.28-.39-7.76.98-1.62,2.46-2.59,4.09-3.31-.36-.07-.72-.15-1.09-.21.13-.07.26-.13.4-.18.77-.34,1.61-.55,2.46-.59l3.2-.5.73-.11,1.17-.17.17-.03c.06.25.09.5.09.75h0s0,.02,0,.03c0,.07.01.15.01.23,0,.3-.02.6-.07.89,0,.01,0,.02,0,.02-.01.11-.04.2-.06.29-.02.11-.05.22-.08.33-.11.38-.26.76-.44,1.14-.96,1.93-2.77,3.61-4.3,4.79-.03-.62.79-1.51,1.01-2.13.32-.86.47-2.08.5-3.01Z"/>
                  <path class="cls-33" d="m189.58,178.55c-1.06-.55-2.19-.9-3.26-1.33-1.4-.57-2.68-1.3-3.49-2.82-1.16-2.18-1.43-5.11-3.44-6.77-.19-.15-.33-.23-.44-.24-.66-.83-1.46-1.71-2.01-2.64-.19-.3-.34-.62-.46-.93-.13-.39-.2-.79-.17-1.2,0-.04,0-.08,0-.11v-.02c0-.05.01-.1.03-.14h0c.04-.2.09-.39.18-.59.01-.03.03-.07.05-.1-.05-.03-.07-.05-.09-.06.03,0,.06,0,.11.01.11.04.3.12.49.2.01.01.04.03.06.03.08.04.15.08.23.12.07.03.15.08.22.12.31.17.63.34.93.51,0,0,.03.01.03.02.36.2.71.41,1.06.63,1.56.98,2.97,2.07,4.26,3.4.99,1.01,1.95,2.13,2.77,3.3.19.28.63.77.5,1.09-1.43-.83-2.42-2.73-4.06-3.19.48,1.1,1.79,1.95,2.54,2.89.65.83,1.48,1.91,1.66,2.97-.86-.79-1.54-1.82-2.37-2.66-.78-.81-2.02-2.48-3.2-2.71.42,1.18,1.34,2.35,1.94,3.47.81,1.51,1.72,2.89,2.92,4.11.88.9,1.9,1.87,3,2.64Z"/>
                  <path class="cls-33" d="m177.58,161.82s.03,0,.04.01c-.01,0-.03,0-.03.02-.07.03-.14.07-.21.11-.16.09-.31.17-.46.27-.2.12-.41.25-.6.39-.01,0-.02,0-.03.01l.04-.13.22-.73.03-.12.02-.05.02-.07c.33.08.65.17.96.29Z"/>
                  <path class="cls-33" d="m198.55,158.77c-.77.61-2.18.77-3.08,1.26-2.12,1.14-3.95,2.53-6.36,3.05-1.02.23-2.07.34-3.13.36-.93.01-2-.29-2.89-.18.05.11.14.21.24.31-.67-.14-1.34-.29-2.01-.45-1.28-.3-2.47-.88-3.7-1.29,1.81-.98,3.86-1.63,5.91-1.45,2.13.18,4.17.99,6.33.61,2.07-.36,4.09-1.21,6.13-1.73.84-.22,1.7-.38,2.56-.5Z"/>
                  <path class="cls-33" d="m177.05,161.66c.44-1.29,1.92-2.39,3-3.11,1.49-1,3.56-2.23,5.39-2.39-1.18.99-3.05,1.5-3.93,2.8,1.54-.58,2.97-.98,4.65-1.01.9-.01,3.04-.21,3.84.38-2.1.12-4.32.98-6.27,1.68-1.62.58-3.15,1.26-4.59,2.21-.53.35-1.34.76-1.6,1.38l-.49-1.93Z"/>
                </g>
                <path class="cls-13" d="m177.15,161.03c.77-2.17,1.2-4.43,2.17-6.53.28-.6.58-1.18.91-1.75.38.06.76-.23.72-.69,0-.04-.02-.07-.02-.1.05,0,.1-.02.11-.02.27-.05.47-.39.45-.65.45.07.84-.3.72-.79-.01-.05-.02-.14-.02-.12,0-.05,0-.1,0-.16,0-.03.02-.18,0-.02,0-.02,0-.05,0-.07.45.25,1.09-.33.79-.81.29.04.55-.12.63-.41.03-.1.02-.2.02-.3.2-.04.36-.31.25-.53-.24-.47-.8-.46-1.21-.23-.38.09-.71.35-.89.69-.03.07-.04.13-.06.2-.23.09-.42.27-.54.48-.13.24-.2.52-.23.8-.1.03-.2.08-.29.14-.24.16-.37.41-.44.68-.21.12-.4.29-.51.51-.19.37-.18.91.14,1.21.02.02.04.03.07.05-.33.52-.64,1.05-.95,1.59-1.18,2.07-1.82,4.41-2.47,6.68-.12.41.5.53.63.15Z"/>
              </g>
              <g>
                <g>
                  <path class="cls-31" d="m173.97,176.17c-.08-.02-.15-.02-.23-.04-.01,0-.02,0-.03,0-1.18-.17-2.36-.13-3.52-.19-1.51-.08-2.96-.35-4.22-1.52-1.8-1.68-3.02-4.36-5.47-5.27-.23-.08-.39-.11-.49-.08-.5.08.02,1.08.08,1.63.13,1.2-.06,2.44-.49,3.57-.45,1.18-1.22,2.18-2.03,3.14-.83.98-1.54,1.99-2.3,3.05-.8,1.09-1.89,2.05-2.48,3.27-.63-1.42-1.19-2.81-1.98-4.15-.01-.02-.02-.04-.03-.06-.06-.09-.12-.18-.18-.27-1.41-2.24-3.53-4.37-2.91-7.21.4-1.85,1.48-3.25,2.78-4.47.21-.2.42-.39.64-.58-.1.03-.2.05-.3.08-.38.11-.75.24-1.12.36-.54.18-1.08.38-1.6.59-1.38.54-2.72,1.18-4.02,1.89-.01,0-.03,0-.04.02-.72.39-1.42.81-2.1,1.25-.77.49-1.83,1.64-2.6,1.6h0c-.31-.02-.59-.24-.77-.78-.9-2.72.74-6.79,2.13-9.07,2.03-3.34,6.04-4.11,9.56-2.76.27.1.53.22.76.36.29.15.55.31.81.49-.71-1.45-1.24-3.01-1.67-4.35-.97-3.02-.76-5.48.91-8.17.82-1.32,2.35-2.79,2.7-4.36.03.08.06.17.11.26,1.41,3.43,3.26,7.03,3.67,10.74.11,1.02.12,2.06-.01,3.09.88-1.29,1.87-2.5,3.04-3.45,2.74-2.25,5.91-2.56,9.32-2.05,1.7.25,4.46.45,5.93,1.52-.03.09-.08.16-.13.24-.53.83-1.81,1.44-2.5,2.2-1.63,1.77-2.9,3.68-5.01,4.97-.89.55-1.85,1-2.84,1.37-.87.31-1.98.38-2.79.78.09.09.2.15.33.22.78.36,2.16.3,2.87.46,1.99.47,3.94,1.17,5.2,2.88,1.3,1.77,1.29,3.91,1.79,5.96.25,1.04.79,1.9,1.21,2.86Z"/>
                  <path class="cls-32" d="m158.03,165.36c-.15,0-.31.02-.45.02-.12,0-.22,0-.33-.01-.01,0-.03,0-.03,0-.06,0-.12,0-.16-.02-.33-.02-.64-.06-.93-.14-.06-.02-.14-.04-.2-.07-.01,0-.02,0-.02,0h0c-.42-.15-.81-.35-1.19-.6-.51-.34-1.01-.79-1.55-1.31-.41-.38-.78-.78-1.11-1.19-.39-.47-.73-.97-1.02-1.52.29.15.55.31.81.49-.71-1.45-1.24-3.01-1.67-4.35-.97-3.02-.76-5.48.91-8.17.82-1.32,2.35-2.79,2.7-4.36.03.08.06.17.11.26-.17.48-.39.94-.61,1.37-.75,1.54-1.46,3.19-1.92,4.84-.56,2.05-.32,4.15.41,6.11.28.78.61,1.56.94,2.33.15.35.26.89.62,1.05.2-.38.16-.84.21-1.25.08-.69.26-1.38.17-2.08.44.62.75,1.42,1.05,2.1.31.72.47,1.77,1.01,2.33.24-2.19.02-4.46-.08-6.67.47.3.82.86,1.03,1.39.41,1.05.74,2.28,1.01,3.39.1.44.17.89.23,1.34.08.82.12,1.66.15,2.49,0,.36.01.7.03,1.04v.1s-.03.35-.03.35v.06s-.06.68-.06.68Z"/>
                  <path class="cls-32" d="m157.61,165.59c-.04.09-.1.18-.16.25h0s-.03.04-.04.04c-.03.05-.07.09-.12.12-.21.2-.47.36-.78.49-1.13.49-2.78.59-3.65.75-.8.14-1.59.23-2.37.33-.37.05-.73.1-1.1.16-.43.07-.85.16-1.28.29-.12.03-.25.07-.37.1-1.3.42-2.51,1.04-3.65,1.79-.01,0-.03,0-.04.02-.72.39-1.42.81-2.1,1.25-.77.49-1.83,1.64-2.6,1.6.11-.16.22-.31.32-.44,1.21-1.73,2.57-3.21,4.34-4.36,1.63-1.07,3.56-1.83,5.4-2.44.49-.16,1.51-.24,1.83-.7-.35-.67-1.76-.64-2.4-.89.46-.19,1.2-.14,1.72-.13.37,0,1.03.2,1.36-.02-.34-.56-1.42-.75-2.01-.95-1.13-.37-2.54-.25-3.58-.79.55-.55,2.1-.44,2.84-.45.99-.02,1.95.14,2.89.42h0c.24.08.48.17.71.25.75.29,2.47.87,2.59,1.9,0,.01.01.02,0,.03l.51.31h.03s.5.32.5.32l.54.32.28.17.03.02.27.17.08.05Z"/>
                  <path class="cls-32" d="m154.5,167.82c-.88.96-.93,2.77-1.59,3.91-.49-1.06-.05-3.46.48-4.37-2.44,2.57-4.07,6.11-3.36,9.72.15.8.43,1.63.77,2.43-.06-.09-.12-.18-.18-.27-1.41-2.24-3.53-4.37-2.91-7.21.4-1.85,1.48-3.25,2.78-4.47-.37.05-.73.1-1.1.16.1-.11.2-.21.32-.3.62-.57,1.34-1.04,2.13-1.36l2.86-1.52.65-.35,1.05-.55.15-.09c.14.22.25.44.33.68h0s0,.02,0,.03c.03.07.06.14.09.21.1.29.18.57.22.86,0,.01,0,.02,0,.02.02.11.03.2.03.3.02.12.03.23.03.34.03.4,0,.8-.04,1.22-.27,2.14-1.43,4.32-2.5,5.94-.24-.58.25-1.68.26-2.34.02-.92-.24-2.12-.51-3Z"/>
                  <path class="cls-32" d="m173.72,176.13c-1.18-.17-2.36-.13-3.52-.19-1.51-.08-2.96-.35-4.22-1.52-1.8-1.68-3.02-4.36-5.47-5.27-.23-.08-.39-.11-.49-.08-.9-.56-1.94-1.14-2.76-1.84-.27-.22-.52-.47-.74-.73-.25-.33-.45-.68-.55-1.08-.01-.04-.03-.08-.03-.11v-.02c-.02-.05-.03-.1-.03-.14h0c-.02-.2-.04-.4-.02-.61,0-.03,0-.07.01-.11-.06,0-.09-.02-.1-.03.03-.02.06-.01.11-.02.12,0,.33.01.53.03.02,0,.05.01.07.01.09.01.17.02.26.04.08,0,.17.02.25.04.35.06.7.11,1.04.18,0,0,.03,0,.04,0,.4.07.81.16,1.21.25,1.79.41,3.48.99,5.13,1.82,1.27.63,2.54,1.37,3.7,2.21.27.2.85.52.83.86-1.62-.31-3.18-1.79-4.88-1.68.81.88,2.33,1.25,3.34,1.9.88.57,2.03,1.32,2.54,2.26-1.07-.46-2.06-1.22-3.11-1.74-1.01-.51-2.72-1.69-3.91-1.51.78.98,2.03,1.78,2.97,2.64,1.26,1.16,2.57,2.17,4.1,2.93,1.12.56,2.41,1.15,3.7,1.51Z"/>
                  <path class="cls-32" d="m156.9,164.25s.03,0,.04,0c-.01,0-.03,0-.03.03-.06.06-.11.12-.16.18-.12.13-.24.27-.35.4-.15.18-.3.37-.44.56-.01,0-.02.01-.02.02v-.13s-.04-.76-.04-.76v-.12s0-.05,0-.05v-.08c.33-.03.66-.05,1-.04Z"/>
                  <path class="cls-32" d="m175.71,154.49c-.53.83-1.81,1.44-2.5,2.2-1.63,1.77-2.9,3.68-5.01,4.97-.89.55-1.85,1-2.84,1.37-.87.31-1.98.38-2.79.78.09.09.2.15.33.22-.68.09-1.36.16-2.05.23-1.3.13-2.62-.02-3.92,0,1.39-1.52,3.11-2.8,5.11-3.3,2.07-.53,4.27-.43,6.18-1.5,1.83-1.02,3.47-2.48,5.22-3.64.72-.48,1.48-.92,2.26-1.31Z"/>
                  <path class="cls-32" d="m156.34,164.27c0-1.37,1.04-2.88,1.82-3.92,1.08-1.43,2.63-3.27,4.31-4.03-.79,1.32-2.39,2.42-2.8,3.93,1.27-1.06,2.49-1.9,4.06-2.47.85-.31,2.81-1.2,3.75-.9-1.95.8-3.76,2.34-5.37,3.64-1.34,1.07-2.57,2.22-3.62,3.59-.39.5-1.02,1.16-1.06,1.83l-1.1-1.66Z"/>
                </g>
                <path class="cls-30" d="m156.23,163.64c.01-2.3-.32-4.58-.08-6.88.07-.66.17-1.31.29-1.95.38-.07.64-.46.45-.89-.01-.03-.04-.06-.05-.09.04-.02.09-.05.1-.05.24-.14.31-.52.22-.76.45-.09.7-.56.42-.98-.03-.05-.06-.12-.06-.1-.02-.05-.04-.1-.06-.15-.01-.03-.04-.18,0-.02,0-.02,0-.05-.01-.07.51.09.92-.66.48-1.03.29-.06.48-.3.46-.6,0-.1-.05-.19-.08-.29.18-.11.24-.41.06-.59-.39-.37-.91-.17-1.22.18-.33.21-.56.56-.61.95,0,.07,0,.14,0,.21-.19.16-.31.39-.35.63-.04.27-.02.55.04.83-.08.06-.16.14-.23.23-.17.23-.22.51-.19.79-.16.18-.28.41-.32.65-.06.41.13.92.53,1.1.03.01.05.01.08.02-.14.6-.26,1.21-.38,1.81-.43,2.34-.28,4.76-.14,7.12.02.43.64.34.65-.07Z"/>
              </g>
            </g>
            <g>
              <path class="cls-10" d="m106.78,172.91c0-5.85-6.22-17.67-18.43-24.91H28.43c-7.64,5.44-18.43,15.67-18.43,24.91,0,6.3,6.14,19.43,24.29,27.47,11.96,5.64,40.32,3.55,48.19,0,17.5-7.87,24.29-20.33,24.29-27.47Z"/>
              <path class="cls-5" d="m106.78,172.91c0-5.85-6.22-17.67-18.43-24.91H28.43c-.09.06-.18.13-.27.2.07.14.11.27.2.4,0,0,14.53,11.59,53.28,10.5,0,0,24.47,22.37,1.73,34.38-13.9,7.34-29.53,9.17-39.59,9.49,13.6,2.08,32.5.21,38.72-2.58,17.5-7.87,24.29-20.33,24.29-27.47Z"/>
              <path class="cls-27" d="m88.43,148.22c0,1.49-13.45,5.81-30.04,5.81s-30.04-4.32-30.04-5.81,13.45-5.03,30.04-5.03,30.04,3.54,30.04,5.03Z"/>
              <path class="cls-5" d="m100.8,159.1c.54,1.65.84,3.35.84,5.09,0,16.08-24.31,29.11-54.3,29.11-24.03,0-34.21-8.37-37.32-19.97.25,6.45,6.49,19.18,24.27,27.05,11.96,5.64,40.32,3.55,48.19,0,17.5-7.87,24.29-20.33,24.29-27.47,0-3.32-2.01-8.57-5.98-13.81Z"/>
              <path class="cls-22" d="m58.39,154.02c4.66,0,9.06-.35,13-.87-2.36-.69-7.38-1.49-13.22-1.49s-10.66.77-13.08,1.45c4.01.55,8.52.91,13.3.91Z"/>
              <path class="cls-9" d="m70.98,177.65c-.47,6.01-15.6,11.64-29.47,10.55-13.87-1.09-25.21-11.09-24.74-17.1.47-6.01,13.23-1.09,27.11,0,13.87,1.09,27.58.54,27.11,6.55Z"/>
              <path class="cls-8" d="m58.39,154.02c8.82,0,16.72-1.22,22.22-2.59-1.56-1.23-10.9-3.43-22.22-3.43s-20.66,2.2-22.22,3.43c5.49,1.37,13.4,2.59,22.22,2.59Z"/>
              <path class="cls-2" d="m58.39,143.18c-16.59,0-30.04,3.54-30.04,5.03s13.45,5.81,30.04,5.81,30.04-4.32,30.04-5.81-13.45-5.03-30.04-5.03Zm0,9.71c-15.13,0-27.39-3.28-27.39-4.64s12.26-4.59,27.39-4.59,27.39,3.23,27.39,4.59-12.26,4.64-27.39,4.64Z"/>
              <g>
                <path class="cls-23" d="m64.37,133.39c-.25.78-1.47,1.17-2.74.87-1.27-.3-2.09-1.18-1.84-1.97.25-.78,1.47-1.17,2.74-.87,1.27.3,2.09,1.18,1.84,1.97Z"/>
                <path class="cls-23" d="m59.08,152.88c.53-2.37,1.64-13.15,5.15-19.42l-4.31-1.23c-2.25,7.79-1.69,18.34-1.21,20.66.12,0,.24,0,.36,0Z"/>
              </g>
            </g>
          </g>
        </g>
      </g>
    </g>
  </g>
</svg>