<?xml version="1.0" encoding="UTF-8"?>
<svg xmlns="http://www.w3.org/2000/svg" viewBox="0 0 220 220">
  <defs>
    <style>
      .cls-1, .cls-2, .cls-3, .cls-4 {
        opacity: .6;
      }

      .cls-1, .cls-5, .cls-6, .cls-3, .cls-7, .cls-8, .cls-9, .cls-10 {
        mix-blend-mode: screen;
      }

      .cls-1, .cls-11, .cls-9 {
        fill: #332722;
      }

      .cls-12, .cls-13, .cls-4, .cls-14 {
        fill: #a8846f;
      }

      .cls-2, .cls-15 {
        fill: #231a17;
      }

      .cls-16, .cls-17 {
        fill: #fff;
      }

      .cls-18, .cls-19 {
        fill: #fff2de;
      }

      .cls-20, .cls-21 {
        fill: #c49f75;
      }

      .cls-22, .cls-23, .cls-24, .cls-25, .cls-26, .cls-21, .cls-27, .cls-28 {
        mix-blend-mode: multiply;
      }

      .cls-22, .cls-17 {
        opacity: .7;
      }

      .cls-29 {
        fill: #f9eae1;
      }

      .cls-23, .cls-25, .cls-30, .cls-31, .cls-9, .cls-10 {
        opacity: .4;
      }

      .cls-23, .cls-5, .cls-32 {
        fill: #ffe6b8;
      }

      .cls-24, .cls-33 {
        fill: #633e2a;
      }

      .cls-24, .cls-7 {
        opacity: .2;
      }

      .cls-34 {
        isolation: isolate;
      }

      .cls-35 {
        fill: #c0ded8;
      }

      .cls-13, .cls-36 {
        opacity: .1;
      }

      .cls-37 {
        fill: #35241f;
      }

      .cls-38, .cls-8 {
        fill: #774e34;
      }

      .cls-39 {
        fill: #796b87;
      }

      .cls-39, .cls-5, .cls-6, .cls-26, .cls-21, .cls-14, .cls-27, .cls-8, .cls-19, .cls-28 {
        opacity: .3;
      }

      .cls-25, .cls-40 {
        fill: #af8b68;
      }

      .cls-31, .cls-41 {
        fill: #d1c1b0;
      }

      .cls-6, .cls-7 {
        fill: #c47442;
      }

      .cls-42 {
        fill: #a4c9bf;
      }

      .cls-43 {
        fill: #cbdffd;
      }

      .cls-3, .cls-10, .cls-44 {
        fill: #45312a;
      }

      .cls-45 {
        fill: #fff5ee;
      }

      .cls-46 {
        fill: #efe1ce;
      }

      .cls-47, .cls-28 {
        fill: #d3ac7d;
      }

      .cls-27, .cls-48 {
        fill: #966948;
      }

      .cls-49 {
        fill: #a7c3e5;
      }

      .cls-50 {
        fill: #d9e5d1;
      }

      .cls-51 {
        fill: #b29c8a;
      }

      .cls-52 {
        fill: #377f65;
      }
    </style>
  </defs>
  <g class="cls-34">
    <g id="Layer_2" data-name="Layer 2">
      <g id="_2" data-name="2">
        <g>
          <circle class="cls-50" cx="110" cy="110" r="110"/>
          <g>
            <g>
              <path class="cls-38" d="m59.24,102.01s20.26,44.09,41.19,55.32c8.1,5.83,44.23,5.49,51.99,0,20.26-12.07,43.21-55.32,43.21-55.32H59.24Z"/>
              <path class="cls-20" d="m195.63,102.01c0,3.73-30.53,13.23-68.2,13.23s-68.2-9.5-68.2-13.23,36.95-13.44,74.61-13.44,61.78,9.71,61.78,13.44Z"/>
              <path class="cls-40" d="m187.19,102.08c0,3.14-26.75,9.93-59.76,9.93s-59.76-6.79-59.76-9.93,33.17-11.47,66.17-11.47,53.34,8.33,53.34,11.47Z"/>
              <path class="cls-25" d="m102.66,107.74c0-9.8,16.53-15.37,36.52-17.06-1.74-.05-3.51-.08-5.33-.08-33,0-66.17,8.33-66.17,11.47,0,2.32,14.63,6.64,35.6,8.73-.4-1.02-.62-2.04-.62-3.06Z"/>
              <path class="cls-18" d="m127.43,112c27.65,0,50.9-4.76,57.72-8.16l-1-1.94-2.59-1.21-1.46,2.14-1.69-1.54-2.25-1.27-2.14,1.27-.68-1.86-2.7-1.33-2.03,1.33-1.24-2.79-2.48-.68-1.35.68-2.81-.56-1.69,2.48v-1.69l-2.36-.45-3.49,1.69-1.24-1.69h-3.26l.79-2.14-3.71-.11v1.8l-2.93-.11-2.03,1.69-.68-2.03-4.39-1.91-2.48,1.91-1.35-1.91h-4.5l-.9,2.81-1.8-1.78-2.7,1.1-.68,1.35-2.36-2.45h-1.91l-1.89,1.76-1.8-1.76h-3.35l-3.65,3.58-1.24-1.58h-2.25l-2.36,2.14-2.81-2.14-6.32,1.66-.77,2.99-3.26-1.5-4.73.9-.9,2.7-3.47-.9-4.4,1.01-.55,1.75c9.54,3.16,30.18,6.73,54.11,6.73Z"/>
              <polygon class="cls-39" points="123.72 96.36 127.91 97.55 129.24 95.85 131.41 96.52 134.09 96.66 135.76 93.62 133.29 95.53 131.94 93.62 127.43 93.62 126.53 96.43 124.73 94.65 123.31 95.23 123.72 96.36"/>
              <g>
                <path class="cls-38" d="m112.45,70.28c-11.99,3.29-11.3-4.11-16.9-22.11-2.61-9.13-17.61.59-12.56,8.59,10.05,15.09,13.54,16.26,5.55,25.33l14.32,26.88,21.58-11.16-11.98-27.53Z"/>
                <path class="cls-7" d="m123.2,98.34l-11.84-26.45c-5.2,1.5-8.74-.19-11.23-3.35-5.86-7.41-6.02-22.89-8.65-24.03-4.58-.38-10.81,5.12-9.25,10.52,3.4,8.5,19.06,15.9,7.13,27.06l13.04,24.65,14.3-4.93,6.51-3.48Z"/>
                <path class="cls-6" d="m106.95,108.03l-12.1-23.31s6.63-6.29,15.61-6.81l-3.51,30.12Z"/>
                <path class="cls-33" d="m110.46,77.91c-5.91,1.3-9.44,2.69-14.33,7.08l10.21,21.76,14.75-6.9-10.63-21.93Z"/>
                <path class="cls-24" d="m96.13,84.99s10.57,3.35,14.33-7.08c0,0-8.27,1.07-14.33,7.08Z"/>
                <path class="cls-6" d="m88.78,46.5c.65.61-.3,6.47-1.89,8.18s-3.75,0-4.12-1.16c-.27-.85.34-3.33,1.94-5.04,1.59-1.71,3.42-2.6,4.07-1.99Z"/>
              </g>
              <polygon class="cls-18" points="99.95 107.36 98.42 105.24 101.75 102.81 106.73 103.02 107.73 101.45 109.54 100.63 113.21 101.1 111.99 98.62 114.86 97.49 117.39 98.45 119.11 96.95 121.55 97.24 121.71 98.5 123.85 96.36 127.91 97.55 128.32 99.85 103.2 110.15 99.95 107.36"/>
              <path class="cls-8" d="m59.61,102.81c2.81,5.92,21.52,44.17,40.81,54.52.6.43,1.37.83,2.26,1.19,28.68,3.6,58-17.38,56.66-30.58-1.98-19.42-61.07-2.05-99.73-25.14Z"/>
              <path class="cls-39" d="m184.15,101.91l-3.05,2.68-2.26-.32-3.33.11-1.51,1.18-1.18-2.04h-3.76l.43,1.61-2.47.11-2.04,3.23-3.44-.99h-3.98l-1.08,1.5-.97-1.5-2.37.67-1.61,2.01-2.69-1.79-2.04.62-.75,1.18-3.01-2.68-2.47,1.5v2.29l-2.58-1.11h-3.23l-1.94,1.11v-2.29l-3.57-.94-.92,1.72-1.64.39v1.11l-2.25-1.72-2.37-.57-3.12,1.86-2.69-1.86h-2.88l-2.91,1.18-.96-.82-2.39-.35-1.18,1.18-1.29-2.01-3.33-.67-2.88,2.07-2.29-.57h-2.57l-2.63-2.23h3.33l2.53-1.13,2.72,1.13.69-2.8-3.73-6.96-5.07,1.33-.77,2.99-3.26-1.5-4.73.9-.9,2.7-3.47-.9-4.4,1.01-.55,1.75c9.54,3.16,30.18,6.73,54.11,6.73,27.65,0,50.9-4.76,57.72-8.16l-1-1.94Z"/>
              <polygon class="cls-39" points="136.15 101.3 138.94 99.32 141.63 99.32 144 101.91 145.18 100.62 147.76 100.62 147.76 99.32 150.99 99.32 153.35 102.81 154.43 101.3 157.55 101.3 160.02 103.25 162.39 101.91 164.75 101.3 162.71 102.81 160.13 104.49 157.22 102.01 155.5 102.01 153.03 104.49 150.45 100.18 148.62 100.18 148.73 102.12 145.39 101.3 143.89 103.25 140.99 100.18 138.94 100.18 136.15 101.3"/>
              <polygon class="cls-39" points="116.79 105.77 118.19 104 121.1 104.49 121.1 103.25 123.2 103.25 124.43 104.08 125.74 103.25 128.32 103.6 128.32 105.77 129.69 104.51 131.63 104.51 132.76 105.37 135.34 104.51 136.79 104.51 135.34 105.05 132.76 106.34 131.14 105.13 129.85 105.21 127.84 107.23 127.43 104.49 125.82 103.92 124.43 105.24 123.2 103.76 121.79 103.76 121.55 105.24 118.32 104.49 116.79 105.77"/>
              <path class="cls-20" d="m189.37,112.94c.37-.62.73-1.21,1.07-1.79-9.55,3.92-33.32,9.74-63,9.74s-54.82-6.16-63.8-10.07c.3.56.61,1.15.93,1.75,10.91,4.51,35.48,9.61,62.87,9.61s50.6-4.83,61.93-9.23Z"/>
              <path class="cls-25" d="m150.71,119.69c.97.3,1.87.63,2.69,1,15.56-1.77,28.5-4.85,35.96-7.75h0c.37-.62.73-1.21,1.07-1.79,0,0,0,0,0,0-6.89,2.82-21.17,6.64-39.73,8.55Z"/>
            </g>
            <g>
              <path class="cls-41" d="m69.04,70.64H14.26s2.73,84.69,2.73,84.7c0,.8,10.18,3.58,24.62,3.58s24.31-2.7,24.59-3.54l2.84-84.73Z"/>
              <path class="cls-19" d="m15.97,71.44l3.73,83.57s13,3.74,32.05,1.96l3.02-83.88s-21.84,1.84-38.8-1.65Z"/>
              <path class="cls-46" d="m69.04,70.64c0,1.36-12.26,5.3-27.39,5.3s-27.39-3.94-27.39-5.3,12.26-4.59,27.39-4.59,27.39,3.23,27.39,4.59Z"/>
              <path class="cls-18" d="m41.65,66.05c-15.13,0-27.39,3.23-27.39,4.59s12.26,5.3,27.39,5.3,27.39-3.94,27.39-5.3-12.26-4.59-27.39-4.59Zm0,8.16c-13.09,0-23.71-2.34-23.71-3.52s10.61-3.97,23.71-3.97,23.71,2.79,23.71,3.97-10.61,3.52-23.71,3.52Z"/>
              <path class="cls-46" d="m17.94,70.69s10.56-6.97,24.15-6.97,23.27,6.97,23.27,6.97H17.94Z"/>
              <g class="cls-30">
                <path class="cls-41" d="m65.35,70.69s.06-.34-.95-.74c-2.1-.96-10.31-6.22-22.31-6.22-.13,0-.25.01-.38.01l-.06,2.63s19.88,4.99-10.04,7.38c4.66.43,13.43.65,20.76-.09,4.74-.48,13.01-1.96,12.98-2.97Z"/>
              </g>
              <path class="cls-41" d="m49.29,65.04c0,.34-3.42,1.32-7.64,1.32s-7.64-.98-7.64-1.32,3.42-1.14,7.64-1.14,7.64.8,7.64,1.14Z"/>
              <g>
                <path class="cls-11" d="m44.81,55.06c-2.07,3.68-2.53,10.38-2.78,10.38s-.79-6.43.54-11.02l2.24.64Z"/>
                <path class="cls-11" d="m44.88,55.03c-.13.41-.77.61-1.43.45s-1.09-.62-.96-1.02.77-.61,1.43-.45c.66.16,1.09.62.96,1.02Z"/>
              </g>
              <path class="cls-19" d="m41.65,75.94c-9.6,0-18.05-1.59-22.94-3.09h0l3.73,78s12.95,4.96,26.05,1.8l1.71-77.12h0c-2.69.26-5.56.41-8.54.41Z"/>
              <g>
                <g class="cls-22">
                  <path class="cls-41" d="m31.29,107.84c-2.23-.37-4.22-.76-5.98-1.15-6.08-.11-9.75-.51-9.84-.52-.02,0-.04,0-.06,0l.04,1.14c.74.08,5.61.54,13.15.54.86,0,1.76,0,2.69-.02Z"/>
                  <path class="cls-41" d="m31.38,106.71c2.02.33,4.26.64,6.69.91,8.56-.43,18.9-1.53,29.88-3.96l.04-1.17s-.02,0-.03,0c-14.03,3.14-27.03,4.07-36.58,4.21Z"/>
                  <path class="cls-41" d="m31.29,107.84c6.59,1.08,15.29,1.94,26.29,1.94,3.19,0,6.59-.07,10.17-.23l.04-1.14s-.01,0-.02,0c-12.15.54-21.98.08-29.7-.79-2.44-.27-4.67-.58-6.69-.91-10.78-1.77-15.75-4.13-15.84-4.17-.08-.04-.16-.05-.25-.05l.04,1.21c.93.41,4.16,1.71,9.98,3.01,1.75.39,3.74.78,5.98,1.15Z"/>
                  <path class="cls-41" d="m67.63,113.62l.04-1.14s-.06,0-.09,0c-29.98,5.07-51.62-1.37-51.84-1.44-.05-.02-.11-.01-.16-.02l.04,1.16c1.6.45,12.54,3.37,28.89,3.37,6.85,0,14.66-.52,23.12-1.94Z"/>
                  <path class="cls-41" d="m26.67,119.07c-3.49-.18-7.09-.52-10.79-1.05-.03,0-.05,0-.08,0l.04,1.14c5.87.84,11.52,1.19,16.8,1.21-2.14-.43-4.14-.87-5.97-1.3Z"/>
                  <path class="cls-41" d="m32.78,119.23c1.79.36,3.68.71,5.64,1.03,15.8-.64,27.23-3.93,29.14-4.51l.04-1.18s-.07,0-.1.01c-.18.06-14.75,4.71-34.71,4.65Z"/>
                  <path class="cls-41" d="m32.64,120.37c7.69,1.54,17.09,2.89,26.37,2.89,2.8,0,5.58-.13,8.31-.4l.04-1.15c-9.61,1-20.01.04-28.94-1.44-1.96-.32-3.85-.67-5.64-1.03-9.88-1.98-16.89-4.26-17.03-4.31-.02,0-.03,0-.05,0l.04,1.2c1.16.37,5.21,1.61,10.93,2.95,1.83.43,3.83.87,5.97,1.3Z"/>
                </g>
                <g>
                  <path class="cls-48" d="m28.61,107.15c-8.11,0-13.14-.54-13.25-.56-.3-.03-.51-.3-.47-.59.03-.3.3-.51.59-.47.24.03,24.28,2.62,52.49-3.69.3-.07.58.12.64.41.06.29-.12.58-.41.64-15.53,3.47-29.81,4.26-39.59,4.26Z"/>
                  <path class="cls-48" d="m57.59,109.07c-29.47,0-42.39-6.15-42.53-6.22-.27-.13-.38-.45-.25-.72.13-.27.45-.38.72-.25.15.08,15.83,7.51,52.25,5.87.31-.03.55.22.56.51.01.3-.22.55-.51.56-3.61.16-7.03.24-10.24.24Z"/>
                  <path class="cls-48" d="m44.51,114.84c-17.6,0-28.93-3.38-29.09-3.43-.28-.09-.44-.39-.36-.67.09-.28.38-.45.67-.36.22.06,21.86,6.51,51.85,1.44.29-.04.57.15.62.44.05.29-.15.57-.44.62-8.51,1.44-16.36,1.96-23.25,1.96Z"/>
                  <path class="cls-48" d="m33.16,119.66c-5.46,0-11.34-.35-17.44-1.23-.29-.04-.5-.32-.45-.61.04-.29.32-.5.61-.46,28.12,4.09,51.39-3.36,51.62-3.43.28-.1.59.06.68.34.09.28-.06.59-.34.68-.18.06-14.71,4.71-34.68,4.71Z"/>
                  <path class="cls-48" d="m59.02,122.54c-21.37,0-43.36-7.17-43.61-7.25-.28-.09-.44-.4-.34-.68.09-.28.39-.44.68-.34.28.09,28.48,9.28,51.87,6.76.29-.03.56.18.59.48.03.3-.18.56-.48.59-2.85.31-5.78.44-8.71.44Z"/>
                </g>
              </g>
              <g>
                <path class="cls-48" d="m31.61,107.95c-.11,0-.22-.03-.32-.09-6.4-3.7-10.66-5.08-13.78-6.09-2.32-.75-4-1.29-5.49-2.42-2.26-1.71-2.11-3.42-1.82-4.28.77-2.3,3.93-3.72,6.41-3.72.93,0,1.75.18,2.46.54,5.85,2.94,11.05,11.67,12.76,14.53l.33.54c.15.25.12.58-.09.79-.12.13-.29.19-.46.19Zm-15-15.3c-2.26,0-4.68,1.33-5.19,2.84-.32.95.14,1.91,1.38,2.84,1.32.99,2.91,1.51,5.11,2.22,2.81.91,6.54,2.12,11.89,5.01-2.21-3.59-6.59-10.14-11.31-12.51-.52-.26-1.17-.4-1.88-.4Z"/>
                <path class="cls-48" d="m31.6,108.03c-.18,0-.37-.08-.49-.23-.19-.23-.2-.55-.03-.79,7.18-10.11,13.15-12.23,16.89-12.23,2.48,0,4.74.97,6.2,2.67,1.01,1.18,1.51,2.61,1.32,3.81-.37,2.4-3.15,2.59-6.99,2.86-4.26.29-10.09.7-16.62,3.84-.09.04-.19.06-.28.06Zm16.37-11.96c-2.63,0-7.85,1.32-14.39,9.73,5.83-2.35,10.97-2.7,14.84-2.97,3.67-.25,5.6-.45,5.8-1.77.13-.84-.26-1.87-1.03-2.77-1.21-1.41-3.11-2.22-5.22-2.22Z"/>
                <path class="cls-48" d="m41.93,133.74c-1.79,0-3.4-.55-4.79-1.64-7.19-5.65-6.23-23.98-6.19-24.75.02-.36.33-.63.68-.61.36.02.63.33.61.68-.01.18-.97,18.44,5.7,23.67,1.85,1.45,4.06,1.75,6.78.91.34-.11.7.09.81.43.11.34-.09.7-.43.81-1.11.34-2.17.51-3.16.51Z"/>
                <path class="cls-48" d="m23.76,142.64c-.27,0-.52-.17-.61-.43-5.52-15.95,7.38-34.49,7.93-35.28.21-.29.61-.36.9-.15.29.21.36.61.16.9-.13.19-13.06,18.79-7.76,34.11.12.34-.06.7-.4.82-.07.02-.14.04-.21.04Z"/>
                <g class="cls-26">
                  <path class="cls-48" d="m45.11,132.92c-1.11.34-2.18.51-3.18.51-1.8,0-3.41-.55-4.81-1.65-5.56-4.36-6.26-16.27-6.27-21.85-.02,5.42.59,17.74,6.27,22.19,1.4,1.1,3.01,1.65,4.81,1.65,1,0,2.06-.17,3.18-.51.36-.11.56-.48.45-.84-.05.23-.21.42-.45.5Z"/>
                </g>
                <path class="cls-48" d="m31.48,109.1s-.05,0-.07,0c-.4.03-.75-.27-.78-.68-.14-1.93.39-3.7.41-3.78.12-.39.53-.6.91-.49.39.12.6.53.49.91,0,.02-.48,1.59-.36,3.24.03.38-.24.71-.6.77Z"/>
                <path class="cls-27" d="m31.3,107.79c-.25,0-.48-.11-.69-.28,0,.3,0,.61.02.92.03.4.38.71.78.68.02,0,.05,0,.07,0,.37-.06.63-.39.6-.77-.02-.3-.02-.6,0-.89-.23.22-.49.35-.78.35Z"/>
                <g>
                  <path class="cls-27" d="m23.98,142.3c-.07.03-.15.04-.22.04-.28,0-.55-.18-.65-.46-1-2.9-1.39-5.88-1.36-8.82-.06,3.06.32,6.16,1.36,9.17.1.28.36.46.65.46.07,0,.15-.01.22-.04.34-.12.52-.48.43-.83-.05.22-.2.41-.43.49Z"/>
                  <g class="cls-26">
                    <path class="cls-48" d="m31.07,109.05c-2.45,4-8.18,14.51-7.93,25.07-.12-10.71,5.8-21.31,8.12-25.03-.06,0-.13-.02-.18-.05Z"/>
                  </g>
                </g>
                <g>
                  <path class="cls-27" d="m36.21,102.76c5.3-5.67,9.49-6.66,11.76-6.66,2.09,0,3.99.81,5.19,2.21.57.67.93,1.41,1.02,2.09,0-.76-.35-1.65-1.02-2.43-1.2-1.4-3.1-2.21-5.19-2.21-2.61,0-8.51,1.85-15,10.16.27-.11.53-.19.8-.3.84-1.07,1.66-2.02,2.45-2.87h0Z"/>
                  <path class="cls-27" d="m55.53,100.3c0,.21.02.42,0,.63-.37,2.43-3.16,2.62-7.02,2.89-4.21.29-9.97.7-16.43,3.76,0,.11,0,.23,0,.34,6.46-3.07,12.21-3.47,16.43-3.76,3.86-.27,6.65-.46,7.02-2.89.05-.31.05-.64,0-.97Z"/>
                </g>
                <g>
                  <path class="cls-27" d="m18.47,92.74c-.51-.26-1.16-.39-1.86-.39-2.24,0-4.65,1.31-5.15,2.81-.08.25-.11.5-.08.75.01-.14.04-.27.08-.41.5-1.5,2.91-2.81,5.15-2.81.71,0,1.35.14,1.86.39,4.65,2.34,8.98,8.76,11.21,12.37.17.09.33.17.5.26-2.23-3.61-7.06-10.63-11.71-12.97Z"/>
                  <g class="cls-26">
                    <path class="cls-48" d="m30.63,107.2c-6.03-3.42-10.13-4.76-13.13-5.73-2.32-.75-4-1.29-5.5-2.42-1.54-1.16-1.96-2.31-1.99-3.22-.07.94.25,2.25,1.99,3.56,1.49,1.13,3.17,1.67,5.5,2.42,3,.97,7.09,2.31,13.12,5.72,0-.11,0-.22.01-.33Z"/>
                  </g>
                </g>
              </g>
              <path class="cls-51" d="m16.98,155.34s24.54,6.85,49.21,0c0,0-5.03,3.86-23.52,3.8-23.25-.39-25.7-3.8-25.7-3.8Z"/>
            </g>
            <g>
              <path class="cls-11" d="m102.41,151.56c0,6.38-12.22,16.23-29.03,16.23s-31.84-9.85-31.84-16.23,13.63-14.93,30.44-14.93,30.44,8.55,30.44,14.93Z"/>
              <path class="cls-2" d="m52.42,140.73c2.71,2.54,8.75,5.84,18.61,5.84,8.68,0,15.9-3.18,20.12-6-5.24-2.33-11.91-3.94-19.19-3.94s-14.26,1.68-19.55,4.1Z"/>
              <path class="cls-15" d="m86.98,138.97c5.19,3.26,8.2,7.28,8.2,9.52,0,3.07-8.58,12.9-24.15,12.9s-28.56-5.73-28.56-12.9c-.61,1.05-.94,2.09-.94,3.07,0,6.38,15.03,16.23,31.84,16.23s29.03-9.85,29.03-16.23c0-4.31-6.22-9.6-15.43-12.59Z"/>
              <path class="cls-1" d="m80.19,152.21c-.51,2.59-15.22,6.53-24.66,4.76-5.88-1.1-10.5-5.94-9.99-8.53.51-2.59,7.45-2.94,13.32-1.78,5.87,1.16,21.84,2.96,21.33,5.56Z"/>
              <path class="cls-9" d="m90.98,150.96c-2.01,1.23-4.01,1.62-4.48.86-.47-.76,1.63-4.85,3.63-6.08,2.01-1.23,6.61,1.67.85,5.22Z"/>
              <path class="cls-1" d="m101.82,152.21s-4.6,4.84-12.1,8.95c-5.41,2.97-12.39,5.81-22.63,4.99,0,0,12.37,2.65,24.37-3.46,4.14-2.16,7.9-5.47,10.36-10.48Z"/>
              <path class="cls-11" d="m95.16,123.34c.56,4.78-8.75,15.5-21.47,17.44-18.42,2.81-24.27-7.29-24.82-12.07-.56-4.78,8.6-12.51,21.39-14,12.78-1.48,24.35,3.84,24.91,8.62Z"/>
              <path class="cls-15" d="m95.16,123.34c-.45-3.84-8-8.03-17.58-8.76,7.37,1.53,12.43,4.07,12.43,6.55,0,5.42-9.26,12.47-23.65,12.47-9.57,0-14.89-2.81-17.39-6.28-.11.49-.14.95-.09,1.4.55,4.78,6.4,14.88,24.82,12.07,12.72-1.94,22.03-12.66,21.47-17.44Z"/>
              <path class="cls-2" d="m70.72,118.34c-3.66,0-6.64-.61-9.05-1.56-1.27.47-2.46,1-3.58,1.58,2.95,1.7,7.95,3.47,13.65,3.47,6.73,0,12.47-3.08,15.04-5.33-1.71-.61-3.61-1.12-5.65-1.47-2.55,1.91-6,3.32-10.4,3.32Z"/>
              <path class="cls-1" d="m77.07,126.69c0,2.1-7.62,4.68-14.26,4.68s-11.32-5.03-9.56-6.18c6.44-4.23,23.82-.38,23.82,1.5Z"/>
              <path class="cls-9" d="m86.44,125.49c-1.58,1.19-5.73,1.31-6.23.49-.51-.83,3.24-3.12,4.93-4.15,2.57-1.57,6.87-.53,1.3,3.67Z"/>
              <path class="cls-11" d="m58.09,138.71s8.66,3.59,20.64-.21c11.98-3.8,15.02-13.5,15.02-13.5-1.22,1.95-15.05,18-35.67,13.71Z"/>
              <path class="cls-44" d="m86.63,106.18c.15,3.48-4.98,12.16-15.91,12.16-12.6,0-17.31-7.22-17.47-10.7-.15-3.48,4.19-9.22,13.41-9.62,9.22-.4,19.81,4.68,19.96,8.16Z"/>
              <path class="cls-37" d="m79.93,100.59c2.36,1.6,3.8,3.26,3.8,4.34,0,4.2-8.06,7.7-18,7.7-7.8,0-11.76-3.5-11.76-7.7,0-.07.01-.13.02-.2-.52,1.03-.77,2.03-.73,2.9.15,3.48,4.86,10.7,17.47,10.7,10.93,0,16.06-8.68,15.91-12.16-.08-1.76-2.82-3.92-6.7-5.59Z"/>
              <path class="cls-3" d="m69.94,108.84c-.19,1.87-6.45,1.66-9.41.46-7.43-3.01-2.43-10.2,4.44-7.15,2.92,1.29,5.03,6.1,4.97,6.69Z"/>
              <path class="cls-10" d="m81.69,105.75c.25.71-.82,1.73-2.38,2.28s-4.77.45-5.02-.26,2.55-1.76,4.11-2.31c1.57-.55,3.04-.42,3.29.28Z"/>
              <path class="cls-44" d="m62.76,116.48s5.35,1.52,10.3.9,10.58-4.33,12.8-9.4c1.01-2.31-7.63,10.72-23.1,8.51Z"/>
            </g>
            <g>
              <path class="cls-13" d="m49.38,143.56c-1.11-2.18-3.52-1.16-3.61-3.29-.07-1.55,2.43-2.16,2.43-2.16v-3.24h-.03c-.11-.24-3.28-.76-7.18-.76s-7.06.53-7.18.76h-.03v3.24s2.5.61,2.43,2.16c-.09,2.14-2.5,1.12-3.61,3.29-2.66,5.2-2.16,22.51-.36,24.59,2.91,3.36,14.58,3.35,17.49,0,1.8-2.08,2.31-19.39-.36-24.59Z"/>
              <g class="cls-36">
                <path class="cls-12" d="m48.61,144.41c-1.01-1.98-3.07-1.54-3.53-3.6-.31-1.38.56-2.25.56-2.25h0c-1.25.13-2.87.24-4.64.24s-3.39-.1-4.64-.24h0s.86.87.56,2.25c-.46,2.05-2.52,1.62-3.53,3.6-2.42,4.72-1.96,20.43-.32,22.32,1.32,1.52,4.63,2.28,7.94,2.28,3.31,0,6.62-.76,7.94-2.28,1.63-1.88,2.09-17.6-.32-22.32Z"/>
              </g>
              <g>
                <path class="cls-20" d="m37.07,134.86l.5,2.87c2.11.48,3.94.37,6.89,0l.46-2.87h-7.85Z"/>
                <path class="cls-21" d="m37.07,134.86s2.02.69,5.03.95c0,.24,0,1.11-.05,1.56-.81.67-4.48.36-4.48.36,2.11.48,3.94.37,6.89,0l.46-2.87h-7.85Z"/>
                <g>
                  <circle class="cls-21" cx="38.09" cy="135.93" r=".21"/>
                  <path class="cls-21" d="m41.81,136.95c0,.08-.07.15-.15.15s-.15-.07-.15-.15.07-.15.15-.15.15.07.15.15Z"/>
                  <path class="cls-21" d="m40.59,136.08c0,.08-.07.15-.15.15s-.15-.07-.15-.15.07-.15.15-.15.15.07.15.15Z"/>
                </g>
              </g>
              <path class="cls-12" d="m49.26,143.63c-.09-.15-.17-.33-.28-.45-.1-.13-.21-.26-.34-.38-.12-.12-.27-.22-.41-.31-.15-.09-.3-.17-.46-.25-.32-.15-.67-.26-1-.42-.17-.08-.33-.17-.48-.29-.08-.06-.15-.12-.21-.2-.07-.07-.12-.15-.16-.23-.1-.16-.14-.35-.18-.53l-.03-.28c0-.11,0-.18,0-.28.03-.19.09-.38.18-.54.1-.16.21-.31.35-.44.26-.26.58-.47.9-.64.33-.17.66-.32,1.02-.43h0s-.11.14-.11.14c.07-.54.08-1.08.07-1.62,0-.54-.02-1.08-.07-1.62h0s.15.14.15.14h-.03l.13-.21s.02.04.02.06c0,.03.01-.04,0,.06h0s0,0,0,0c0,0-.01.03-.03.06-.06.06-.08.06-.1.08-.05.02-.09.04-.12.05-.08.03-.15.05-.23.07-.15.04-.3.07-.45.1-.3.06-.6.1-.91.14-.61.08-1.21.14-1.82.19-1.21.1-2.43.14-3.65.14-1.22,0-2.44-.05-3.65-.14-.61-.05-1.21-.11-1.82-.19-.3-.04-.6-.09-.91-.14-.15-.03-.3-.06-.45-.1-.08-.02-.15-.04-.23-.07-.04-.01-.08-.03-.12-.05-.02-.01-.04-.02-.08-.05-.01-.01-.03-.03-.05-.08,0-.03-.02-.03,0-.09h0s.14.17.14.17h-.03s.15-.15.15-.15c-.04.54-.05,1.08-.06,1.62,0,.54,0,1.08.06,1.62h0s-.11-.14-.11-.14c.78.27,1.55.62,2.1,1.26.27.32.41.76.35,1.18-.02.39-.2.84-.53,1.1-.33.27-.73.4-1.1.55-.37.14-.74.3-1.06.53-.67.43-.99,1.2-1.26,1.94-.53,1.5-.79,3.1-.99,4.69-.19,1.59-.29,3.2-.35,4.8-.05,1.61-.04,3.21.01,4.82.06,1.6.16,3.21.35,4.8.09.79.21,1.59.38,2.36.08.39.18.77.3,1.14.13.37.27.71.52.95.53.55,1.21.92,1.94,1.22.72.29,1.49.51,2.26.66,1.55.31,3.15.42,4.74.38,1.59-.03,3.18-.21,4.7-.62.76-.21,1.5-.48,2.17-.86.65-.38,1.31-.86,1.5-1.55.51-1.46.68-3.09.85-4.67.29-3.19.36-6.41.21-9.62-.08-1.6-.2-3.2-.44-4.79-.25-1.57-.54-3.18-1.23-4.6h0Zm.25-.14c.38.73.63,1.51.83,2.3.2.79.37,1.58.49,2.38.26,1.6.41,3.21.51,4.82.18,3.23.19,6.46-.1,9.69-.07.81-.17,1.61-.29,2.42-.13.8-.28,1.61-.57,2.4-.06.19-.18.43-.29.61-.07.09-.08.15-.2.27l-.23.23c-.32.29-.66.55-1.03.75-.73.42-1.51.71-2.3.93-1.59.44-3.22.63-4.85.67-1.63.03-3.27-.11-4.87-.44-.8-.17-1.59-.4-2.36-.72-.75-.32-1.52-.74-2.1-1.36-.33-.33-.49-.77-.63-1.15-.12-.4-.22-.8-.31-1.2-.16-.8-.28-1.61-.36-2.41-.34-3.22-.38-6.46-.25-9.68.08-1.61.2-3.22.42-4.83.23-1.6.51-3.2,1.07-4.73.15-.39.29-.75.51-1.11.21-.36.5-.67.85-.9.68-.49,1.54-.58,2.17-1.04.31-.24.47-.6.5-1,.05-.38-.08-.77-.33-1.07-.52-.58-1.3-.9-2.06-1.07-.06-.01-.11-.07-.11-.13h0c.06-.55.06-1.09.06-1.63,0-.54-.02-1.08-.06-1.62,0-.07.05-.14.12-.14h0s.02,0,.02,0h0s.03,0,.03,0h.06c.06,0,.11.05.11.11,0,.03,0,.05-.02.07h0s0-.03,0-.05c-.02-.04-.02-.04-.02-.04,0,0,0,0,.02,0,.02.01.05.02.09.04.06.02.14.04.21.06.14.04.29.07.44.1.29.06.59.1.89.14.6.08,1.2.14,1.8.19,1.21.1,2.42.14,3.63.14,1.21,0,2.42-.05,3.63-.14.6-.05,1.21-.11,1.8-.19.3-.04.6-.09.89-.14.15-.03.29-.06.44-.1.07-.02.14-.04.21-.06.03-.01.06-.02.09-.04.01,0,.03-.02,0,.01,0,.02,0,.03,0,.01h0s0,0,0,0v.06s0,.03,0,.04l.13-.21h.03c.08,0,.15.07.15.15h0c-.05.54-.07,1.08-.07,1.62,0,.54,0,1.08.07,1.62,0,.05-.02.1-.07.12l-.04.02h0c-.67.16-1.37.43-1.88.9-.12.12-.23.26-.32.4-.08.15-.14.31-.17.47,0,.09-.02.19-.01.26l.03.26c.04.17.08.34.17.48.04.08.09.14.15.2.05.07.12.12.19.17.13.11.29.18.45.25.32.14.67.25,1.01.39.17.07.34.15.5.24.16.1.32.2.46.33.15.12.28.26.39.41.13.15.2.31.3.46h0Z"/>
              <path class="cls-12" d="m40.99,135.77c-2.95,0-7.33-.38-7.33-.9s4.45-.92,7.33-.92,7.33.4,7.33.92-4.38.9-7.33.9Zm-6.89-.9c.74.23,3.5.61,6.89.61s6.16-.38,6.89-.61c-.74-.23-3.51-.63-6.89-.63s-6.15.4-6.89.63Z"/>
              <path class="cls-12" d="m48.32,138.1s0,0,0,0c0,0,0,.02-.04.06-.04.05-.07.06-.09.07-.03.02-.05.02-.08.04-.11.05-.27.09-.47.14-.4.09-.96.19-1.64.27-1.36.17-3.18.29-5.01.3-1.82,0-3.65-.13-5.01-.3-.68-.08-1.24-.18-1.64-.27-.2-.05-.35-.09-.47-.14-.06-.03-.1-.04-.15-.09-.01-.01-.02-.02-.03-.03-.01-.02-.02-.04-.03-.06-.01-.04-.01-.05-.01-.05,0-.08.07-.15.15-.15s.15.07.15.15c0,0,0-.01,0-.03,0-.01,0-.02-.02-.04,0,0,0,0,0,0-.01,0,.02.01.06.03.08.03.23.07.42.11.38.08.94.16,1.61.24,1.35.16,3.16.27,4.97.26,1.81,0,3.62-.1,4.97-.26.67-.08,1.23-.16,1.61-.24.19-.04.34-.08.42-.11.02,0,.04-.02.05-.02.02,0,.02-.02,0,.01-.01.03,0,.03,0,.02,0,0,0,0,0,0v-.02c.04-.07.12-.11.2-.08.07.03.11.11.08.19Z"/>
              <path class="cls-4" d="m45.64,134.87c0,.15-2.08.36-4.65.36s-4.65-.21-4.65-.36,2.08-.5,4.65-.5,4.65.35,4.65.5Z"/>
              <path class="cls-47" d="m46.2,129.38c0,.16-1.75.42-4.3.46-3.06.05-6.11-.23-6.16-.46-.04-.23,2.91-.72,6.05-.65,2.59.06,4.4.48,4.4.65Z"/>
              <path class="cls-20" d="m41.9,129.84c-3.06.05-6.11-.23-6.16-.46l1.32,5.5c0,.15,2.17.35,4.47.33,1.98-.02,3.41-.2,3.42-.32l1.24-5.52c0,.16-1.75.42-4.3.46Z"/>
              <g>
                <path class="cls-29" d="m32.8,146.96c-1.43,6.07-.91,17.83.47,19.42,1.28,1.48,4.5,2.22,7.72,2.22,3.22,0,6.44-.74,7.72-2.22,1.38-1.59,1.9-13.35.47-19.42h-16.38Z"/>
                <path class="cls-16" d="m49.19,146.96h-.25c1.39,5.99.88,17.61-.45,19.18-1.24,1.46-4.37,2.2-7.48,2.19-3.12,0-6.24-.73-7.48-2.19-1.34-1.57-1.84-13.2-.45-19.19h-.25c-1.43,6.07-.91,17.83.47,19.42,1.28,1.48,4.5,2.22,7.72,2.22,3.22,0,6.44-.74,7.72-2.22,1.38-1.59,1.9-13.35.47-19.42Z"/>
              </g>
              <path class="cls-45" d="m49.18,146.95c0,.26-3.67.86-8.19.86s-8.19-.59-8.19-.86,3.67-.89,8.19-.89,8.19.63,8.19.89Z"/>
              <path class="cls-16" d="m49.09,146.88c-.57.27-3.97.66-8.1.66s-7.53-.39-8.1-.66c-.05.03-.09.05-.09.08,0,.26,3.67.86,8.19.86s8.19-.59,8.19-.86c0-.02-.04-.05-.09-.08Z"/>
              <path class="cls-14" d="m49.38,143.56c-1.11-2.18-3.52-1.16-3.61-3.29-.07-1.55,2.43-2.16,2.43-2.16v-3.24h-.03s.01,0,.01.01c0,.21-2.62.65-6.05.73v3.18s-4.96-.08-7.44-.36c3.93,1.19,6.84,1,6.76,1.12-.26.38-.49.85-.44,1.34.11,1.06,2.64,1.37,3.04,3.29.41,1.93,3.45,23.42-3.64,25.4-3.76,1.08-8.87-.98-9.17-4.94.25,1.75.6,3.03,1.01,3.51,2.91,3.36,14.58,3.35,17.49,0,1.8-2.08,2.31-19.39-.36-24.59Z"/>
              <path class="cls-17" d="m34.29,135.63v1.94s3.32.74,6.95.71v-1.82s-4.72-.03-6.95-.83Z"/>
              <path class="cls-17" d="m38.89,155.42c-.13,6.36-1.61,11.49-3.32,11.45-1.7-.03-2.98-5.22-2.86-11.58.13-6.36,1.61-11.49,3.32-11.45,1.7.03,2.98,5.22,2.86,11.58Z"/>
              <path class="cls-21" d="m41.9,129.84c-3.06.05-6.11-.23-6.16-.46,0,0,.17,1.05,7.35,1.76-.1.6-.38,3.22-.41,3.45-1.4.7-5.61.3-5.61.3,0,.15,2.17.35,4.47.33,1.98-.02,3.41-.2,3.42-.32l1.24-5.52c0,.16-1.75.42-4.3.46Z"/>
              <g>
                <path class="cls-21" d="m41.22,131.8c0-.14.12-.25.27-.25.15,0,.27.12.27.26,0,.14-.12.25-.27.25-.15,0-.26-.12-.26-.26Z"/>
                <path class="cls-21" d="m37.98,132.5c0-.13.11-.23.23-.22.12,0,.21.12.21.25,0,.13-.11.23-.23.22-.12,0-.21-.12-.2-.25Z"/>
                <path class="cls-21" d="m40.91,134.35c0-.15.12-.25.27-.24.15.02.27.15.27.3,0,.15-.13.26-.28.24-.15-.02-.27-.15-.26-.3Z"/>
                <path class="cls-21" d="m39.69,133.02c0-.09.08-.17.17-.16.09,0,.16.09.16.18,0,.1-.08.17-.17.16-.09,0-.16-.09-.16-.18Z"/>
                <path class="cls-21" d="m38.34,133.95c0-.09.08-.16.16-.15.08,0,.15.09.15.18,0,.09-.08.16-.16.15-.08,0-.15-.09-.15-.18Z"/>
                <path class="cls-21" d="m38.76,131.34c0-.09.07-.16.16-.16.08,0,.15.07.15.16,0,.09-.08.16-.16.16-.08,0-.15-.07-.15-.16Z"/>
              </g>
              <path class="cls-28" d="m43.14,129.72c-2.81.03-5.57-.24-5.61-.46-.02-.14,1.1-.38,2.71-.52-2.5.08-4.53.45-4.49.64.04.23,3.09.51,6.16.46,1.39-.02,2.52-.11,3.27-.2-.57.04-1.26.08-2.04.08Z"/>
              <g>
                <path class="cls-28" d="m42.11,129.39c0,.05-.14.1-.34.1-.2,0-.36-.05-.37-.1s.15-.1.34-.1c.19,0,.35.05.36.1Z"/>
                <path class="cls-28" d="m40.87,128.95s-.12.09-.27.09c-.16,0-.29-.04-.29-.09,0-.05.12-.09.28-.09.16,0,.28.04.29.09Z"/>
                <path class="cls-28" d="m43.55,129.05c0,.05-.13.09-.29.09-.17,0-.31-.05-.31-.1,0-.05.13-.09.3-.09.17,0,.3.05.31.1Z"/>
                <path class="cls-28" d="m45.06,129.41s-.12.08-.27.07c-.16,0-.29-.04-.3-.08,0-.04.12-.08.28-.07.16,0,.29.04.29.08Z"/>
                <path class="cls-28" d="m38.95,129.14s-.08.06-.18.06c-.1,0-.19-.03-.19-.06,0-.03.08-.06.18-.06.1,0,.19.03.19.06Z"/>
              </g>
            </g>
            <g>
              <g>
                <path class="cls-43" d="m133.83,165.3c.06,0,.11.02.17.03,0,0,.01,0,.02,0,.85.15,1.66.46,2.47.68,1.06.29,2.12.44,3.26-.08,1.63-.74,3.09-2.31,4.99-2.37.18,0,.29.02.36.06.33.17-.26.74-.43,1.11-.37.8-.52,1.7-.49,2.58.04.92.34,1.79.68,2.63.35.87.6,1.73.88,2.63.3.93.83,1.85.96,2.83.76-.83,1.47-1.67,2.32-2.41.01,0,.02-.02.03-.03.06-.04.12-.09.18-.15,1.49-1.22,3.44-2.2,3.67-4.3.15-1.37-.27-2.58-.89-3.73-.1-.18-.2-.37-.31-.55.06.04.12.08.19.12.23.16.46.34.69.51.33.25.66.51.97.78.83.69,1.61,1.44,2.34,2.23,0,0,.02.01.02.02.41.44.79.89,1.16,1.35.42.52.89,1.56,1.43,1.7h0c.22.06.46-.03.71-.36,1.25-1.67,1.05-4.86.62-6.75-.63-2.77-3.22-4.23-5.96-4.11-.21,0-.42.03-.61.07-.23.03-.45.08-.67.15.82-.83,1.55-1.79,2.16-2.62,1.36-1.86,1.79-3.6,1.26-5.85-.26-1.1-.98-2.47-.85-3.63-.04.05-.08.1-.13.15-1.77,2.04-3.87,4.1-5.01,6.57-.31.68-.56,1.39-.7,2.14-.31-1.1-.72-2.16-1.3-3.08-1.38-2.18-3.48-3.13-5.96-3.56-1.23-.22-3.18-.71-4.45-.32,0,.07.02.13.03.2.17.69.92,1.41,1.21,2.09.72,1.6,1.15,3.21,2.31,4.58.49.58,1.04,1.12,1.64,1.6.53.42,1.28.72,1.75,1.18-.08.04-.17.06-.28.07-.62.07-1.56-.29-2.09-.35-1.48-.14-2.99-.1-4.25.79-1.3.92-1.79,2.4-2.61,3.7-.41.66-.98,1.13-1.49,1.69Z"/>
                <path class="cls-49" d="m147.32,161.52c.1.04.21.08.3.12.08.02.15.05.23.07,0,0,.02.01.02.01.04.01.08.02.12.03.23.07.46.1.68.12.05,0,.11,0,.15,0,0,0,.01,0,.01,0h0c.32,0,.64-.05.96-.14.43-.12.88-.31,1.37-.54.37-.17.72-.36,1.04-.57.38-.24.73-.5,1.05-.82-.23.03-.45.08-.67.15.82-.83,1.55-1.79,2.16-2.62,1.36-1.86,1.79-3.6,1.26-5.85-.26-1.1-.98-2.47-.85-3.63-.04.05-.08.1-.13.15,0,.37.05.74.1,1.09.17,1.23.27,2.53.21,3.78-.09,1.54-.73,2.94-1.69,4.12-.38.47-.78.93-1.18,1.39-.18.21-.39.55-.67.58-.05-.31.08-.62.15-.91.11-.49.14-1.01.36-1.48-.45.32-.84.81-1.21,1.21-.38.43-.73,1.11-1.23,1.38.34-1.57,1.02-3.08,1.59-4.58-.39.1-.77.4-1.03.72-.52.63-1.04,1.4-1.48,2.11-.17.28-.32.57-.47.87-.25.55-.47,1.12-.68,1.68-.09.24-.17.48-.26.71l-.02.07-.06.25v.04s-.13.48-.13.48Z"/>
                <path class="cls-49" d="m147.56,161.77c0,.07.03.14.05.21h0s.01.03.02.04c.01.04.03.08.05.11.1.18.24.36.42.52.67.6,1.79,1.05,2.35,1.36.52.28,1.04.52,1.56.77.24.12.48.23.72.36.28.15.55.31.81.5.08.05.16.1.23.16.8.59,1.49,1.3,2.11,2.07,0,0,.02.01.02.02.41.44.79.89,1.16,1.35.42.52.89,1.56,1.43,1.7-.04-.13-.08-.26-.12-.38-.44-1.47-1.03-2.81-1.99-4.01-.88-1.11-2.04-2.08-3.16-2.93-.3-.23-.99-.52-1.1-.91.4-.38,1.36-.04,1.86-.06-.27-.24-.8-.37-1.16-.48-.26-.08-.76-.1-.94-.33.36-.3,1.15-.19,1.6-.19.87,0,1.81.41,2.65.28-.25-.51-1.35-.79-1.86-.96-.68-.24-1.38-.35-2.09-.37h0c-.18,0-.37,0-.55,0-.59.03-1.91.03-2.23.71,0,0-.01,0-.01.02l-.42.09h-.02s-.41.1-.41.1l-.45.1-.23.05h-.03s-.22.06-.22.06l-.07.02Z"/>
                <path class="cls-49" d="m149.19,164.03c.38.87,0,2.13.2,3.07.58-.62.83-2.37.68-3.13,1.09,2.33,1.4,5.15.07,7.48-.29.52-.67,1.02-1.09,1.5.06-.04.12-.09.18-.15,1.49-1.22,3.44-2.2,3.67-4.3.15-1.37-.27-2.58-.89-3.73.24.12.48.23.72.36-.04-.1-.09-.19-.15-.28-.29-.54-.69-1.03-1.16-1.43l-1.62-1.7-.37-.39-.6-.62-.08-.09c-.14.12-.27.25-.39.39h0s0,0-.01.02c-.04.04-.07.08-.11.13-.14.17-.25.35-.35.54,0,0,0,.01,0,.01-.04.07-.07.13-.09.2-.04.08-.07.15-.1.23-.11.27-.19.55-.25.85-.3,1.54,0,3.31.35,4.67.3-.34.22-1.22.36-1.67.2-.64.65-1.41,1.05-1.95Z"/>
                <path class="cls-49" d="m134.02,165.33c.85.15,1.66.46,2.47.68,1.06.29,2.12.44,3.26-.08,1.63-.74,3.09-2.31,4.99-2.37.18,0,.29.02.36.06.75-.18,1.6-.34,2.33-.63.24-.09.47-.21.68-.33.25-.17.47-.37.63-.62.02-.02.04-.05.05-.07h0s.04-.08.05-.11h0c.06-.13.12-.26.15-.42,0-.02.01-.05.02-.08.04,0,.06,0,.08,0-.02-.02-.04-.02-.07-.04-.08-.03-.23-.07-.37-.1-.01,0-.04,0-.05,0-.06-.01-.12-.02-.19-.03-.06-.01-.12-.02-.18-.03-.25-.04-.51-.08-.76-.12,0,0-.02,0-.03,0-.29-.04-.59-.08-.89-.11-1.33-.13-2.63-.12-3.96.07-1.02.14-2.07.36-3.06.67-.24.08-.71.16-.77.4,1.19.16,2.61-.5,3.76-.04-.76.42-1.89.33-2.74.54-.74.19-1.7.44-2.27.97.85-.07,1.7-.37,2.55-.48.81-.12,2.27-.54,3.05-.14-.77.49-1.81.76-2.66,1.14-1.14.51-2.27.9-3.5,1.08-.9.13-1.93.24-2.9.19Z"/>
                <path class="cls-49" d="m148.36,161.01s-.02-.01-.03,0c0,0,.02.01.01.03.03.05.05.11.07.16.05.12.1.24.15.36.06.16.12.33.17.49,0,0,0,.01,0,.02l.04-.09.19-.52.04-.08v-.04s.03-.05.03-.05c-.23-.1-.45-.19-.68-.26Z"/>
                <path class="cls-49" d="m137.63,149.94c.17.69.92,1.41,1.21,2.09.72,1.6,1.15,3.21,2.31,4.58.49.58,1.04,1.12,1.64,1.6.53.42,1.28.72,1.75,1.18-.08.04-.17.06-.28.07.45.22.9.43,1.36.63.87.39,1.81.59,2.71.9-.61-1.37-1.5-2.65-2.76-3.46-1.31-.84-2.84-1.28-3.92-2.46-1.03-1.13-1.82-2.51-2.76-3.72-.39-.5-.81-.98-1.25-1.43Z"/>
                <path class="cls-49" d="m148.74,161.15c.32-.94-.05-2.23-.35-3.13-.42-1.24-1.06-2.86-2.05-3.77.24,1.09,1.09,2.22,1.02,3.36-.63-1.02-1.28-1.89-2.23-2.64-.51-.41-1.66-1.47-2.38-1.48,1.16,1,2.05,2.48,2.87,3.75.68,1.05,1.26,2.13,1.67,3.31.15.44.44,1.03.31,1.5l1.14-.89Z"/>
              </g>
              <path class="cls-52" d="m149.39,160.94c.64-1.6,1.3-3.23,1.54-4.95.06-.44.12-.89.16-1.33.02,0,.04,0,.06,0,.31-.03.57-.34.62-.63.03-.17,0-.36-.07-.52.08-.19.11-.39.05-.59-.02-.08-.06-.15-.1-.21.11-.18.19-.37.22-.57.03-.18,0-.37-.09-.52.02-.05.04-.09.05-.14.05-.28-.03-.57-.2-.79-.13-.31-.45-.57-.8-.4-.16.08-.19.3-.09.42-.04.06-.09.11-.12.18-.08.2,0,.41.18.52-.39.15-.28.76.1.82,0,.02-.02.03-.03.05.06-.1,0,0-.01.01-.02.03-.05.06-.07.09,0-.01-.03.03-.06.06-.29.23-.22.61.07.78-.12.14-.16.43-.03.57,0,0,.03.03.05.06-.02.02-.04.03-.06.05-.23.25-.14.58.11.72-.07.47-.15.94-.25,1.41-.37,1.64-1.12,3.14-1.64,4.73-.09.28.32.49.43.2Z"/>
            </g>
            <g>
              <g>
                <path class="cls-35" d="m116.48,168.85c-.06,0-.11,0-.17-.01,0,0-.02,0-.02,0-.86-.06-1.72.04-2.56.06-1.1.03-2.16-.09-3.15-.87-1.4-1.12-2.44-2.99-4.26-3.51-.17-.05-.29-.06-.36-.03-.36.09.07.78.15,1.18.16.86.09,1.77-.15,2.62-.26.88-.77,1.65-1.3,2.39-.55.76-1,1.53-1.49,2.34-.52.83-1.25,1.6-1.62,2.51-.54-.99-1.02-1.97-1.67-2.9-.01-.01-.02-.03-.02-.04-.05-.06-.09-.12-.14-.19-1.15-1.55-2.81-2.97-2.52-5.07.18-1.37.89-2.44,1.77-3.4.14-.15.28-.31.43-.46-.07.02-.14.05-.21.07-.27.1-.53.21-.79.33-.38.16-.76.34-1.13.52-.97.47-1.91,1.01-2.81,1.6,0,0-.02,0-.03.02-.5.32-.98.67-1.45,1.03-.53.4-1.24,1.29-1.8,1.31h0c-.23,0-.44-.14-.6-.52-.81-1.92.15-4.97,1.04-6.7,1.28-2.54,4.15-3.32,6.78-2.54.2.06.4.13.57.22.22.09.42.19.62.31-.6-1.01-1.07-2.11-1.46-3.06-.87-2.13-.86-3.93.2-5.98.52-1.01,1.55-2.16,1.71-3.32.03.06.06.12.09.18,1.22,2.41,2.76,4.92,3.27,7.59.14.73.2,1.49.17,2.24.56-.99,1.22-1.92,2.01-2.67,1.86-1.78,4.14-2.19,6.65-2.01,1.25.08,3.26.08,4.39.77-.02.07-.05.12-.08.18-.34.63-1.23,1.15-1.69,1.74-1.08,1.38-1.9,2.84-3.35,3.89-.62.45-1.28.83-1.98,1.15-.62.28-1.42.39-1.98.72.07.06.15.1.25.14.59.22,1.58.09,2.11.17,1.47.23,2.92.63,3.93,1.79,1.04,1.21,1.16,2.77,1.63,4.22.24.74.68,1.33,1.04,2Z"/>
                <path class="cls-42" d="m104.3,161.91c-.11.02-.22.03-.32.04-.08,0-.16,0-.24,0,0,0-.02,0-.02,0-.05,0-.08,0-.12,0-.24,0-.47,0-.68-.05-.05-.01-.1-.02-.15-.04,0,0-.02,0-.02,0h0c-.31-.08-.61-.2-.9-.37-.39-.22-.77-.52-1.2-.86-.32-.26-.61-.52-.87-.8-.31-.32-.59-.67-.82-1.05.22.09.42.19.62.31-.6-1.01-1.07-2.11-1.46-3.06-.87-2.13-.86-3.93.2-5.98.52-1.01,1.55-2.16,1.71-3.32.03.06.06.12.09.18-.1.36-.23.7-.36,1.03-.46,1.16-.88,2.39-1.12,3.62-.29,1.52,0,3.03.64,4.41.25.55.53,1.09.81,1.63.13.25.24.63.51.72.12-.29.07-.62.08-.92.02-.5.11-1.01,0-1.52.36.42.62.99.88,1.47.27.51.44,1.26.86,1.63.05-1.6-.24-3.24-.43-4.83.36.19.65.58.83.95.36.74.67,1.61.92,2.4.1.31.17.63.24.96.11.59.18,1.2.25,1.8.02.26.05.51.08.75v.07s0,.26,0,.26v.04s0,.5,0,.5Z"/>
                <path class="cls-42" d="m104.01,162.09c-.03.06-.06.13-.1.19h0s-.02.03-.03.03c-.02.04-.04.07-.08.1-.14.15-.32.29-.54.4-.79.42-1.99.59-2.61.75-.57.15-1.14.25-1.7.37-.26.06-.53.11-.79.18-.31.08-.61.17-.91.28-.09.03-.18.06-.26.1-.92.38-1.76.9-2.54,1.5,0,0-.02,0-.03.02-.5.32-.98.67-1.45,1.03-.53.4-1.24,1.29-1.8,1.31.07-.12.14-.24.2-.34.78-1.32,1.68-2.47,2.9-3.41,1.12-.87,2.48-1.53,3.78-2.08.34-.15,1.08-.26,1.28-.61-.29-.46-1.31-.36-1.79-.51.32-.16.86-.17,1.24-.19.27-.02.76.09.99-.09-.28-.38-1.07-.46-1.51-.57-.84-.2-1.85-.04-2.64-.37.37-.43,1.5-.44,2.04-.48.72-.07,1.42-.01,2.12.14h0c.18.04.35.09.53.14.56.17,1.84.49,1.99,1.23,0,0,.01.01,0,.02l.39.19h.02s.38.21.38.21l.41.2.21.11h.03s.21.12.21.12l.06.03Z"/>
                <path class="cls-42" d="m101.88,163.89c-.58.75-.52,2.06-.94,2.93-.41-.74-.23-2.5.1-3.2-1.63,2-2.61,4.66-1.89,7.24.15.57.4,1.15.69,1.72-.05-.06-.09-.12-.14-.19-1.15-1.55-2.81-2.97-2.52-5.07.18-1.37.89-2.44,1.77-3.4-.26.06-.53.11-.79.18.07-.09.13-.16.22-.24.41-.45.91-.83,1.47-1.11l1.99-1.26.45-.29.73-.45.1-.07c.11.15.21.31.28.47h0s0,.01,0,.02c.03.05.05.1.07.15.09.2.16.4.21.61,0,0,0,.02,0,.02.02.08.03.14.04.21.02.08.03.16.04.24.04.29.05.58.04.89-.08,1.57-.8,3.21-1.48,4.45-.2-.41.09-1.23.05-1.71-.04-.67-.29-1.52-.54-2.15Z"/>
                <path class="cls-42" d="m116.29,168.83c-.86-.06-1.72.04-2.56.06-1.1.03-2.16-.09-3.15-.87-1.4-1.12-2.44-2.99-4.26-3.51-.17-.05-.29-.06-.36-.03-.68-.36-1.47-.72-2.11-1.18-.21-.15-.41-.31-.58-.49-.2-.22-.37-.47-.46-.75-.01-.03-.02-.05-.03-.08v-.02s-.03-.07-.03-.1h0c-.03-.14-.05-.29-.05-.44,0-.02,0-.05,0-.08-.04,0-.06-.01-.08-.02.02-.01.04-.01.08-.02.09-.01.24,0,.39,0,.01,0,.03,0,.05,0,.07,0,.13,0,.19.02.06,0,.13,0,.18.01.25.02.52.04.77.07,0,0,.02,0,.03,0,.3.03.6.07.89.11,1.32.2,2.58.52,3.83,1.03.96.39,1.92.85,2.81,1.39.21.13.65.33.65.58-1.19-.14-2.41-1.12-3.64-.94.64.6,1.76.78,2.53,1.19.67.36,1.54.84,1.97,1.5-.81-.27-1.56-.77-2.35-1.09-.76-.31-2.07-1.07-2.92-.87.62.67,1.57,1.18,2.3,1.75.98.77,1.98,1.43,3.14,1.89.85.34,1.81.7,2.77.89Z"/>
                <path class="cls-42" d="m103.42,161.16s.02,0,.03,0c0,0-.02,0-.02.02-.04.04-.07.09-.11.14-.08.1-.16.21-.23.31-.1.14-.2.29-.29.43,0,0-.01.01-.01.02v-.1s-.08-.55-.08-.55l-.02-.09v-.04s0-.06,0-.06c.24-.04.48-.08.73-.09Z"/>
                <path class="cls-42" d="m116.52,153.03c-.34.63-1.23,1.15-1.69,1.74-1.08,1.38-1.9,2.84-3.35,3.89-.62.45-1.28.83-1.98,1.15-.62.28-1.42.39-1.98.72.07.06.15.1.25.14-.49.1-.98.2-1.47.28-.94.17-1.9.13-2.84.22.92-1.18,2.1-2.21,3.52-2.68,1.47-.5,3.07-.55,4.4-1.43,1.27-.84,2.38-2,3.58-2.94.5-.39,1.02-.75,1.56-1.08Z"/>
                <path class="cls-42" d="m103.02,161.21c-.08-.99.59-2.15,1.1-2.95.7-1.1,1.72-2.52,2.9-3.16-.5,1-1.6,1.89-1.81,3.01.86-.84,1.7-1.52,2.81-2.02.6-.27,1.97-1.03,2.67-.86-1.37.69-2.59,1.91-3.69,2.94-.91.85-1.74,1.76-2.42,2.81-.25.39-.67.9-.67,1.38l-.89-1.14Z"/>
              </g>
              <path class="cls-52" d="m102.9,160.76c-.12-1.67-.49-3.3-.45-4.98.01-.48.05-.96.1-1.43.27-.07.44-.37.28-.67-.01-.02-.03-.04-.04-.06.03-.02.06-.04.07-.04.17-.11.2-.4.11-.56.32-.09.48-.45.25-.74-.02-.03-.05-.09-.05-.07-.02-.03-.04-.07-.05-.1,0-.02-.04-.13,0-.02,0-.02,0-.03-.01-.05.38.03.63-.53.29-.77.21-.06.33-.24.3-.46,0-.07-.05-.14-.07-.2.12-.09.15-.31.01-.43-.3-.25-.67-.07-.88.2-.22.17-.37.44-.39.72,0,.05.01.1.02.15-.13.12-.2.3-.22.48-.02.2.02.4.08.6-.06.05-.11.11-.15.18-.11.18-.13.38-.09.58-.11.14-.18.31-.19.49-.02.3.15.66.45.77.02,0,.04,0,.06.01-.07.44-.12.89-.17,1.33-.18,1.72.07,3.47.3,5.17.04.31.49.21.47-.09Z"/>
            </g>
            <g>
              <path class="cls-32" d="m210,149.02c0-3.71-3.94-11.19-11.68-15.79h-37.97c-4.84,3.45-11.68,9.93-11.68,15.79,0,3.99,3.89,12.31,15.39,17.4,7.58,3.57,25.54,2.25,30.54,0,11.09-4.99,15.39-12.88,15.39-17.4Z"/>
              <path class="cls-23" d="m210,149.02c0-3.71-3.94-11.19-11.68-15.79h-37.97c-.06.04-.12.09-.17.13.05.09.07.17.13.26,0,0,9.21,7.34,33.76,6.65,0,0,15.5,14.18,1.09,21.78-8.81,4.65-18.71,5.81-25.08,6.01,8.62,1.32,20.6.13,24.53-1.64,11.09-4.99,15.39-12.88,15.39-17.4Z"/>
              <path class="cls-46" d="m198.37,133.37c0,.94-8.52,3.68-19.03,3.68s-19.03-2.74-19.03-3.68,8.52-3.19,19.03-3.19,19.03,2.24,19.03,3.19Z"/>
              <path class="cls-23" d="m206.21,140.26c.35,1.05.54,2.12.54,3.23,0,10.19-15.4,18.44-34.41,18.44-15.23,0-21.68-5.3-23.64-12.65.16,4.08,4.11,12.15,15.38,17.14,7.58,3.57,25.54,2.25,30.54,0,11.09-4.99,15.39-12.88,15.39-17.4,0-2.11-1.27-5.43-3.79-8.75Z"/>
              <path class="cls-41" d="m179.34,137.05c2.95,0,5.74-.22,8.24-.55-1.5-.44-4.68-.94-8.37-.94s-6.76.49-8.29.92c2.54.35,5.4.58,8.43.58Z"/>
              <path class="cls-5" d="m187.32,152.02c-.3,3.81-9.88,7.37-18.67,6.69-8.79-.69-15.97-7.03-15.68-10.84.3-3.81,8.38-.69,17.17,0,8.79.69,17.47.34,17.17,4.15Z"/>
              <path class="cls-31" d="m179.34,137.05c5.59,0,10.6-.77,14.08-1.64-.99-.78-6.91-2.18-14.08-2.18s-13.09,1.39-14.08,2.18c3.48.87,8.49,1.64,14.08,1.64Z"/>
              <path class="cls-18" d="m179.34,130.18c-10.51,0-19.03,2.24-19.03,3.19s8.52,3.68,19.03,3.68,19.03-2.74,19.03-3.68-8.52-3.19-19.03-3.19Zm0,6.15c-9.58,0-17.35-2.08-17.35-2.94s7.77-2.91,17.35-2.91,17.35,2.05,17.35,2.91-7.77,2.94-17.35,2.94Z"/>
              <g>
                <path class="cls-11" d="m183.13,123.97c-.16.5-.93.74-1.73.55-.8-.19-1.33-.75-1.17-1.25.16-.5.93-.74,1.73-.55.8.19,1.33.75,1.17,1.25Z"/>
                <path class="cls-11" d="m179.78,136.32c.34-1.5,1.04-8.33,3.26-12.31l-2.73-.78c-1.42,4.93-1.07,11.62-.76,13.09.08,0,.15,0,.23,0Z"/>
              </g>
            </g>
          </g>
        </g>
      </g>
    </g>
  </g>
</svg>