<?xml version="1.0" encoding="UTF-8"?>
<svg xmlns="http://www.w3.org/2000/svg" viewBox="0 0 220 220">
  <defs>
    <style>
      .cls-1, .cls-2 {
        opacity: .6;
      }

      .cls-1, .cls-3, .cls-4, .cls-5 {
        mix-blend-mode: screen;
      }

      .cls-1, .cls-6, .cls-5 {
        fill: #332722;
      }

      .cls-7 {
        fill: #a8846f;
      }

      .cls-2, .cls-8 {
        fill: #231a17;
      }

      .cls-3, .cls-9, .cls-4 {
        fill: #e9dac8;
      }

      .cls-3, .cls-10, .cls-11 {
        opacity: .2;
      }

      .cls-12 {
        fill: #797c51;
      }

      .cls-13 {
        isolation: isolate;
      }

      .cls-14 {
        fill: #8cad66;
      }

      .cls-15, .cls-10 {
        fill: #774e34;
      }

      .cls-10 {
        mix-blend-mode: multiply;
      }

      .cls-4, .cls-16 {
        opacity: .3;
      }

      .cls-17 {
        fill: #c9b9a7;
      }

      .cls-18 {
        fill: #8e6a4c;
      }

      .cls-11 {
        fill: #7e9e54;
      }

      .cls-19 {
        fill: #845b3e;
      }

      .cls-20 {
        fill: #718c4b;
      }

      .cls-21 {
        fill: #d9e5d1;
      }

      .cls-22 {
        fill: #ca5959;
      }

      .cls-23 {
        fill: #ffebb2;
      }

      .cls-24 {
        fill: #f7d892;
      }

      .cls-5 {
        opacity: .4;
      }
    </style>
  </defs>
  <g class="cls-13">
    <g id="Layer_2" data-name="Layer 2">
      <g id="_2" data-name="2">
        <g>
          <circle class="cls-21" cx="110" cy="110" r="110"/>
          <g>
            <g>
              <g>
                <path class="cls-20" d="m132.11,132.6s2.07,1.58,1.72,1.98c-.35.4-2.72-.5-2.72-.5,0,0,.31,1.36-.32,1.77-.64.4-2.68-.75-2.68-.75,0,0,.52,1.25-.22,1.21-.74-.04-3.44-.63-3.44-.63,0,0-.93,1.52-1.58,1.49-.65-.03-2.84-.52-2.84-.52,0,0-.07,1.77-.35,1.9-.28.14-2.06-1.44-2.06-1.44,0,0-.6,1.8-1.05,1.72s-2.1-1.11-2.1-1.11c0,0-1.07,1-1.56,1.1-.49.1-2.14-.39-2.14-.39,0,0,.13,2.02-.39,2.15-.53.12-2.41-1.61-2.41-1.61,0,0-.13.97-.71,1.06s-1.76-.59-1.76-.59c0,0-.73,1.92-1.73,1.74-1-.18-2.14-1-2.14-1,0,0-.76,1.5-1.22,1.41-.45-.08-1.7-.86-1.7-.86,0,0,.94,1.93.27,2-.67.07-2.32-1.61-2.32-1.61,0,0-.54.84-1.04,1.01-.5.17-2.17-.4-2.17-.4,0,0,.15,1.79-.34,1.89-.5.1-1.66-1.5-1.66-1.5,0,0-1.32,1.37-3.24.62,0,0,1.14,1.97.56,2.05-.58.08-2.94-1.6-2.94-1.6,0,0-.27,1.76-.73,1.68-.45-.08-2.21-1.11-2.21-1.11,0,0-.37,1.31-3.29.63,0,0,.81,1.97-.36,1.94-.25,0-1.91-.68-2.77-1.3-.54.04-.15,1.28-.78,1.34-.38.04-1.75-1.11-2.15-1.07-.64.07-.54.61-1.23.69-.46.06-1.7-.34-2.18-.28-.71.09-.44,1.16-1.17,1.27-.58.08-2.17-.8-2.76-.72-.57.08-.34.85-.9.94-.44.07-1.58-.29-2.01-.22-.7.11-.54,1.07-1.19,1.17-.7.11-1.99-.79-2.6-.69-.74.12-.86,1.32-1.43,1.42-1.32.22-2.82-.65-2.82-.65,0,0-.88,1.05-1.55,1.12-.67.07-2.76-.5-2.76-.5,0,0-.08,1.67-1.09,1.58s-2.71-.85-2.71-.85c0,0-.72,1.16-1.21,1.26-.49.1-1.44-.75-1.44-.75,0,0-.13,1.68-.78,1.66-.65-.03-2.02-1.12-2.02-1.12,0,0-.21,2.4-.83,2-.61-.39-1.58-1.54-1.58-1.54,0,0-.45,1.17-1.01,1.21-.57.04-1.16-.82-1.16-.82l94.99-18.89Z"/>
                <path class="cls-14" d="m25.23,97.07s-3.4-.57-3.75,0-.32,1.75-.32,1.75c0,0-1.99-.05-2.44.37-.45.42.24,2.17.24,2.17,0,0-1.71.17-2.08.89-.37.73-.41,2.25-.41,2.25,0,0-1.01-1.38-1.33-1.21-.31.18.2,2.76.2,2.76,0,0-1.63-.21-1.66.26-.03.46.83,1.42.83,1.42,0,0-1.36,1.02-1.57,1.4-.21.38-.06,2.38-.06,2.38,0,0-1.13.54-1.12,1.01,0,.47.66,1.57.5,1.54-.16-.03-1.59.6-1.78,1.13s1.33,1.37,1.33,1.37c0,0-1.07.55-1.08.88-.01.33.88,1.15.88,1.15,0,0-1.5-.04-1.61.27s1.2,1.06,1.2,1.06c0,0-1.04.89-1.03,1.36,0,.47,1.39.25,1.39.25,0,0-.64,1.05-.4,1.52s.63,1.23.63,1.23c0,0-1.3.85-1.31,1.17-.01.33,1.61.57,1.61.57,0,0-1.07,1.07-.89,1.39.18.31,1.27.23,1.27.23,0,0-.5,1.17-.31,1.44.19.27.98.66.98.66,0,0-.91,1.27-.73,1.82s1.58.29,1.58.29c0,0-1.06.98-.62,1.39.44.41,1.43.26,1.43.26,0,0-.17,1.52.15,1.85s1.05.19,1.05.19c0,0,.12,1.9.28,2.3.16.4,1.47.18,1.47.18,0,0-1.27,1.08-1.11,1.44.17.36,2.02-.3,2.02-.3,0,0-.62,1.36-.33,1.79s1.27-.72,1.27-.72c0,0,.42,1.49.93,1.78.51.28,1.25.42,1.25.42,0,0-.39,1.79.05,1.95.44.15,1.59-.49,1.59-.49,0,0-.04.98.16,1.16.2.18.88-.19.88-.19,0,0-.04,1.23.42,1.51.47.27,1.3-.32,1.3-.32,0,0,.11,1.09.44,1.34.33.25,1.5,0,1.5,0,0,0-1.22.8-1.21.99.01.19,1.81-.14,1.81-.14,0,0-.24,1.31.1,1.52.34.2,1.53-.97,1.53-.97,0,0-.02,1.44.41,1.61s1.49-.52,1.49-.52c0,0,.27,1.41.66,1.34s1.26-.32,1.26-.32c0,0,.4,1.14,1.78.88,0,0-18.06-12.2-20.65-20.87-4.42-17.86,9.92-33.8,9.92-33.8Z"/>
                <path class="cls-20" d="m127.04,129.16s2.1.22,2.38-.29c.28-.51-.97-2.47-.97-2.47,0,0,1.72-.54,1.77-.82.05-.27-.66-1.72-.66-1.72,0,0,1.44.58,2.02.31s-.77-1.77-.77-1.77c0,0,1.87-.85,1.91-1.03.03-.18-1.72-1.5-1.72-1.5,0,0,1.58-.98.82-3,0,0,2.3-.65,1.97-1.37-.34-.72-1.42-1.39-1.42-1.39,0,0,1.42-1.58.51-2.87,0,0,1.66-2.57-.23-3.95,0,0,1.05-1.02.5-1.59-.55-.57-.88-.89-.88-.89,0,0,.52-1.45.19-2.17-.33-.72-1.41-1.51-1.41-1.51,0,0,1.99-1.2,1.61-1.64-.38-.44-2.59-.23-2.59-.23,0,0,.73-1.05.35-1.49-.39-.45-1.45-.24-1.45-.24,0,0,.13-1.39-1.25-1.65,0,0,.47-2.2-.49-2.56-.96-.36-2.51-.65-2.51-.65,0,0,1.41-2.05.45-2.42-.96-.36-2.78.4-2.78.4,0,0,.04-1.3-.44-1.75-.48-.45-2.61-.48-2.61-.48,0,0,.22-1.67-.85-1.96-1.07-.29-3.03-.35-3.03-.35,0,0-.69-1.27-1.4-1.39-.71-.12-4.49.12-4.49.12,0,0,16.88,8.35,19.65,14.53,2.77,6.18,5.19,10.06-2.16,29.77Z"/>
                <path class="cls-20" d="m130.87,131.48l-3.82-2.32s9.47-16.25,3.99-28.01c-3.31-7.1-10.09-11.94-14.73-14.57-2.8-1.59-6.02-2.18-9.2-1.7l-81.88,12.19c-11.47,3.77-27.53,34.49,10.73,54.68l94.33-17.07c2.73-.82,2.51-1.9.59-3.2Z"/>
                <polygon class="cls-20" points="127.04 129.16 32.54 146.07 36.55 148.48 130.87 131.48 127.04 129.16"/>
                <path class="cls-14" d="m35.95,151.75c-38.74-18.43-22.64-51.02-10.73-54.68,12.48,3.25,20.06,16.84,20.51,24.18.99,16.16-12.53,24.81-12.53,24.81,3.05,2.21,7.08,4.87,2.74,5.69Z"/>
                <path class="cls-14" d="m28.28,96.61s80.02-11.86,80.62-11.88c25.1,9.4,16.82,30.26,16.82,30.26l-72.87,11.62c-.38-19.5-16.59-28.87-24.56-29.99Z"/>
                <path class="cls-20" d="m24.01,101.13c1.24-1.57,13.77,5.6,17.06,17.32,3.42,12.2-5.48,21.81-7.97,22.13-1.55.2-10.47-6.26-12.42-15.78-.5-2.44-.54-5.09.11-7.88.28-1.19,2.19-8.81,4.22-9.2,2.04-.39,9.33,6.3,10.27,12.7.86,5.94-2.04,11.9-3.4,12.08-1.79.23-8.33-7.74-5.81-10.66,5.92-6.87.68.99,1.65,3.01.89,1.84,2.92,4.75,3.86,4.8.52.02,3.11-4.33,2.46-8.99-.52-3.78-3.55-7.67-8.57-10.23-2.7,5.42-4.3,10.27-3.53,14.2,1.76,8.91,10.72,13.66,11.25,13.58,1.22-.17,9.02-8.94,6.6-19.32-2.06-8.83-13.83-16.03-14.94-15.2-.81.6-7.41,9.73-7.32,19.51.25,9.56,8.77,17.48,16.01,22.63-1.09.77-6.06-4.06-6.97-4.87-2.94-2.63-5.7-5.6-7.7-9.03-6.3-10.77-.27-23.96,5.14-30.81Z"/>
              </g>
              <path class="cls-12" d="m63.62,148.16s-.07,0-.11-.01c-.24-.06-.38-.3-.32-.53,4.46-17.88,3.59-31.97-2.58-41.85-5.97-9.56-14.95-11.57-15.04-11.58-.24-.05-.39-.28-.34-.52.05-.24.28-.39.52-.34.38.08,9.41,2.09,15.59,11.96,6.32,10.1,7.23,24.41,2.7,42.55-.05.2-.23.33-.43.33Z"/>
              <path class="cls-12" d="m108.19,140.3s-.09,0-.14-.02c-.23-.08-.35-.33-.28-.56,14.09-41.89-14.11-52.38-14.4-52.48-.23-.08-.35-.33-.27-.56.08-.23.34-.35.56-.27.29.1,29.3,10.89,14.94,53.59-.06.18-.23.3-.42.3Z"/>
            </g>
            <path class="cls-15" d="m35.99,137.46s73.83-20.3,171.66-3.43c0,0-92.6,49.66-171.66,3.43Z"/>
            <path class="cls-10" d="m58.93,148.2c44.82,16.24,90.69,7.19,119.41-2.22-18.41-3.84-46.78-6.41-55.27-6.38-10.04.04-47.83,3.59-64.14,8.6Z"/>
            <path class="cls-18" d="m35.99,137.46c79.06,46.23,171.66-3.43,171.66-3.43-97.82-16.87-171.66,3.43-171.66,3.43Zm5.97.33s68.7-18.89,159.72-3.19c0,0-36.03,18.45-81.38,20.47-24.78,1.11-52.34-2.08-78.34-17.28Z"/>
            <g>
              <path class="cls-17" d="m70.86,84.27s-1.13-5.06,11.09-10.24c0,0,.61-.05,1.08,2.54l-12.17,7.7Z"/>
              <path class="cls-17" d="m83.37,77.1s.03-2.33,1.46-2.23c1.43.1,5.88,1.72,7.26,5.06l-8.72-2.83Z"/>
              <path class="cls-9" d="m77.92,116.08s-20.3,7.95-15.14,22.71c0,0,3.81,9.61,15.47,13.87,0,0,13.12,2.28,24.45-2.65,0,0,15.02-12.45,6.68-24.08-6.53-9.11-16.18-10.7-16.18-10.7l-15.29.85Z"/>
              <path class="cls-4" d="m98.03,130.71c.09,4.83-11.32,12.55-18.41,12.55-7.09,0-13.77-7.33-14.07-12.16-.3-4.88,9.5-10.58,16.81-10.59,7.31-.01,15.59,5.3,15.67,10.19Z"/>
              <path class="cls-17" d="m109.39,125.93c-2.02-2.81-4.34-4.91-6.59-6.47,3.1,2.78,4.88,6.18,4.9,9.91.05,9.58-10.03,18.91-25.43,18.92-8.64,0-15.27-4.31-19.57-9.8.03.1.06.21.09.31,0,0,3.81,9.61,15.47,13.87,0,0,13.12,2.28,24.45-2.65,0,0,15.02-12.45,6.68-24.08Z"/>
              <path class="cls-9" d="m77.92,116.08s.86-4.89-7.07-31.81c0,0,.67-6.06,9.52-7.9,8.9-1.85,11.7,3.56,11.7,3.56,0,0-1.74,32.89,1.73,35.42,0,0-8.44,4.42-15.89.73Z"/>
              <path class="cls-17" d="m80.38,116.36c-6.7,1.83-12.3,9.01-14.07,15.59,4.09-11.23,14.77-15.27,14.77-15.27-.02-.42-.6-.35-.7-.33Z"/>
              <path class="cls-17" d="m82.79,116.36c-3.99,2.27-6.14,6.68-7.14,10.75,1.24-2.89,7.43-10.28,7.43-10.33,0-.17-.09-.33-.29-.42Z"/>
              <path class="cls-17" d="m84.43,116.75c-.94,2.48-1.3,5.12-1.2,7.77.13,3.45,1.03,6.9,2.42,10.03-.66-2.54-1.02-5.09-1.11-7.66-.18-5.03.94-10.35.94-10.37,0-.18-.06-.34-.26-.44-.04,0-.07-.01-.1-.01-.33,0-.5.42-.67.67Z"/>
              <path class="cls-17" d="m86.81,116.18c5.56,6.56,6.95,14.93,8.87,22.49-.86-11.23-4.68-22.77-8.05-22.77-.28,0-.56.08-.82.27Z"/>
              <path class="cls-17" d="m90.89,115.8c6.14,2.44,10.4,7.86,12.45,13.48-1.42-5.52-5.03-13.5-12.08-13.48-.12,0-.24,0-.37,0Z"/>
              <path class="cls-7" d="m91.77,88.15c-8.95-3.69-16,.6-18.88,3.18,5.74,20.68,5.03,24.71,5.03,24.71,4.78,1.53,12.11.47,15.89-.73-2.36-1.72-2.32-17.16-2.04-27.16Z"/>
              <g>
                <path class="cls-9" d="m76.1,91.39c.57-.37,1.22-.65,1.88-.99.68-.28,1.38-.61,2.13-.84.75-.23,1.5-.49,2.3-.62.39-.07.78-.17,1.18-.23.4-.04.8-.08,1.19-.11.79-.12,1.58-.05,2.34-.04.77-.03,1.49.15,2.19.23.7.06,1.34.25,1.94.41.17.05.33.09.49.13,0-.06,0-.12,0-.17-.15-.04-.29-.09-.44-.14-.59-.19-1.23-.41-1.94-.51-.7-.11-1.44-.33-2.22-.33-.78-.04-1.59-.15-2.4-.07-.41.02-.82.04-1.24.06-.41.04-.82.12-1.23.18-.83.1-1.62.32-2.41.53-.79.21-1.53.51-2.25.77-.7.32-1.39.59-2,.94-.63.32-1.19.66-1.71.98-.29.17-.55.35-.8.53.11.38.21.77.31,1.14.33-.26.68-.54,1.1-.82.48-.34,1-.69,1.59-1.02Z"/>
                <path class="cls-9" d="m77.11,93.46c.56-.28,1.15-.57,1.79-.83.62-.28,1.29-.52,1.97-.76.68-.26,1.4-.42,2.1-.63.72-.15,1.45-.32,2.17-.42.36-.04.72-.08,1.08-.12.36-.05.71-.07,1.06-.06.7.01,1.38-.05,2.02.06.32.04.63.07.93.11.3.02.59.07.87.15.21.05.4.1.59.15,0-.06,0-.11,0-.16-.18-.05-.36-.11-.55-.17-.27-.1-.56-.16-.87-.2-.31-.05-.62-.1-.94-.15-.65-.14-1.34-.11-2.06-.16-.36-.03-.72-.02-1.09.01-.37.02-.74.04-1.12.06-.75.06-1.5.2-2.25.32-.73.18-1.49.31-2.19.54-.71.21-1.42.42-2.07.68-.67.23-1.29.5-1.88.76-.6.25-1.13.53-1.64.77-.51.27-.97.52-1.38.74.1.38.21.77.3,1.14.45-.29.98-.62,1.61-.99.48-.25.98-.56,1.55-.83Z"/>
                <path class="cls-9" d="m83.12,93.62c1.35-.38,2.73-.64,4.05-.75.66-.05,1.3-.06,1.91-.04.61.03,1.18.1,1.71.18.31.06.59.13.87.2,0-.05,0-.1,0-.15-.26-.08-.54-.16-.83-.23-.53-.11-1.11-.21-1.73-.28-.62-.06-1.28-.08-1.96-.07-1.36.04-2.79.23-4.19.55-2.81.62-5.45,1.7-7.36,2.62-.5.24-.95.47-1.35.68.1.38.2.76.29,1.13.43-.27.96-.57,1.57-.91,1.8-.99,4.32-2.18,7.02-2.93Z"/>
                <path class="cls-9" d="m90.24,97.41c.51,0,.98,0,1.4.04,0-.05,0-.1,0-.15-.42-.06-.89-.1-1.4-.13-2.18-.14-5.09.13-7.92.71-2.64.53-5.21,1.29-7.19,1.95.11.45.22.88.32,1.3,1.91-.8,4.45-1.75,7.09-2.48,2.72-.76,5.55-1.22,7.7-1.23Z"/>
                <path class="cls-9" d="m79.52,104.09c.6-.17,1.23-.3,1.86-.46.63-.15,1.29-.25,1.94-.37.65-.11,1.31-.18,1.96-.26.65-.04,1.29-.12,1.91-.13.62-.02,1.22-.04,1.79-.02.57,0,1.1.05,1.59.08.43.04.82.09,1.17.14-.02-.47-.03-.94-.04-1.41-.34-.02-.7-.04-1.09-.05-.52,0-1.09,0-1.68.04-.59.02-1.22.08-1.85.15-.64.06-1.29.19-1.96.28-.66.13-1.32.26-1.98.42-.65.18-1.31.32-1.94.53-.63.21-1.25.39-1.84.6-.58.22-1.15.44-1.68.64-.48.21-.93.41-1.35.59.02.08.04.17.06.25.45-.16.93-.33,1.44-.51.54-.16,1.12-.33,1.71-.51Z"/>
                <path class="cls-9" d="m80.86,108.99c1.08-.33,2.25-.64,3.43-.91.6-.12,1.19-.26,1.78-.36.59-.09,1.17-.21,1.74-.27.57-.06,1.12-.15,1.65-.17.53-.03,1.02-.08,1.49-.08.36,0,.69,0,.99,0,0-.06,0-.11-.01-.17-.31-.02-.63-.05-.98-.07-.47-.04-.97-.02-1.51-.03-.54-.02-1.1.03-1.68.04-.59.01-1.18.09-1.79.13-.61.05-1.22.15-1.84.22-1.23.18-2.45.4-3.58.66-1.13.24-2.18.52-3.07.77-.12.03-.23.07-.34.1.09.48.17.93.24,1.35.18-.07.38-.14.58-.22.84-.31,1.83-.66,2.91-.98Z"/>
                <path class="cls-9" d="m81.79,113.35c.55-.01,1.13-.03,1.71-.04.58-.04,1.17-.08,1.76-.12,1.18-.08,2.36-.16,3.47-.23,1.11-.06,2.14-.2,3.03-.28.31-.03.59-.06.86-.09-.09-.41-.17-.86-.25-1.35-.27.05-.55.1-.86.16-.86.15-1.86.37-2.95.52-1.09.16-2.25.33-3.41.51-.58.09-1.16.17-1.73.26-.57.06-1.14.12-1.69.18-1.1.11-2.12.22-2.99.31-.33.04-.64.07-.93.1,0,.06.01.11.02.16.29,0,.6-.01.94-.02.89-.02,1.92-.04,3.03-.07Z"/>
              </g>
              <path class="cls-3" d="m72.17,84.26s5.63,17.39,7.41,30.99c0,0,4.03,1.32,9.24-.02,0,0-2.71-23.3-1.09-36.71,0,0-10.35-3.01-15.56,5.74Z"/>
            </g>
            <g>
              <path class="cls-9" d="m136.93,90.92s-35.11,13.6-30.31,37.79c0,0,3.64,12.8,19.75,22.74,0,0,16.25,5.69,41.43.02,0,0,18.64-10.6,20.39-27.69,1.82-17.73-24.85-32.63-24.85-32.63l-26.41-.24Z"/>
              <path class="cls-9" d="m136.93,90.92s-1.39-43.55,12.33-64.51c0,0,16.5-5.47,31.88-.79,0,0-2.73,3.99-.34,4.86,2.39.86,8.21,2,8.19,4.81-.02,2.8-26.47,35.87-25.66,55.87,0,0-20.73,9.57-26.41-.24Z"/>
              <path class="cls-9" d="m138.83,144.98c27.71.04,42.95-16.17,47.09-32.18-6.22-12.49-22.58-21.64-22.58-21.64l-26.41-.24s-33.05,12.8-30.63,35.7c6.05,10.31,16.17,18.34,32.52,18.36Z"/>
              <path class="cls-17" d="m185.92,112.79c-4.14,16.02-19.38,32.23-47.09,32.18-16.36-.03-26.47-8.06-32.52-18.36-.06-.54-.08-1.06-.09-1.59.04,1.2.16,2.43.41,3.69,0,0,3.64,12.8,19.75,22.74,0,0,16.25,5.69,41.43.02,0,0,18.64-10.6,20.39-27.69.39-3.84-.55-7.54-2.27-10.99Z"/>
              <path class="cls-4" d="m161.69,120.27c-.43,7.41-18.01,16.42-30.52,16.39-12.57-.04-19.75-13.28-19.7-20.83.04-7.67,23.48-16.94,30.59-15.81,9.72,1.54,20.07,12.73,19.63,20.26Z"/>
              <path class="cls-17" d="m139.87,90.5c-13.01,5.26-24.43,15.63-27.79,27.93,6.25-11.22,14.98-22.67,28.75-27.38-.18-.36-.57-.55-.96-.55Z"/>
              <path class="cls-17" d="m142.55,91.97c-7.55,4.95-12.01,12.53-15.26,20.01,8.36-11.68,17.85-19.35,17.85-19.35,0-.05-.88-.72-1.34-.73-.39,0-.87.07-1.26.07Z"/>
              <path class="cls-17" d="m147.57,92.75c.73,7.12.11,45.13.67,32.36.29-6.44.92-12.96,1.22-19.57.34-7.6.44-13.15-1.05-13.17-.29,0-.59.06-.84.38Z"/>
              <path class="cls-17" d="m152.5,91.9c5.51,5.6,9.22,13.92,12.82,20.36-2.28-6.26-3.75-19.91-12.82-20.36Z"/>
              <path class="cls-17" d="m159.04,91.97c11.44,8.24,28.21,36.73,15.34,15-2.24-3.33-4.12-6.52-6.61-9.55-2.14-2.69-4.87-5.41-8.74-5.45Z"/>
              <path class="cls-7" d="m183.6,44.33c-20.69-6.64-33.79-6.92-39.7-6.51-8.3,23.18-6.97,53.09-6.97,53.09,14.94,5.1,26.41.24,26.41.24-.57-14.19,12.51-34.87,20.26-46.82Z"/>
              <path class="cls-17" d="m180.81,30.48c-2.39-.86.34-4.86.34-4.86-15.38-4.67-31.88.79-31.88.79,0,0,23.01-1.89,39.74,8.87.02-2.82-5.8-3.95-8.19-4.81Z"/>
              <g>
                <path class="cls-9" d="m149.78,40.92c1.35.05,2.78.06,4.24.23,1.47.13,2.98.27,4.52.4,1.54.09,3.07.42,4.62.62,1.54.23,3.09.47,4.6.7,1.5.29,2.96.65,4.38.95,1.42.32,2.79.62,4.08.91,1.31.25,2.48.69,3.58,1.01.86.26,1.67.51,2.41.74.04-.06.07-.11.11-.16-.74-.26-1.55-.54-2.42-.84-1.1-.35-2.25-.85-3.55-1.14-1.29-.34-2.65-.69-4.05-1.06-1.41-.36-2.86-.78-4.36-1.12-1.51-.29-3.06-.58-4.6-.87-1.55-.26-3.08-.65-4.63-.8-1.55-.19-3.07-.38-4.54-.57-1.47-.22-2.91-.28-4.28-.38-1.37-.08-2.66-.21-3.86-.24-.94-.02-1.81-.03-2.61-.05-.18.54-.36,1.08-.53,1.62.93-.02,1.96-.03,3.09-.05,1.18-.01,2.46.07,3.81.1Z"/>
                <path class="cls-9" d="m145.83,44.53c1.09.04,2.26.09,3.51.14,1.25.02,2.55.17,3.9.28,1.35.12,2.75.22,4.16.38,1.41.19,2.84.38,4.26.58,1.42.22,2.87.34,4.25.63,1.39.26,2.75.51,4.07.76,1.32.25,2.59.48,3.8.71,1.19.28,2.31.55,3.35.8,1.16.28,2.2.53,3.12.75.03-.04.06-.09.08-.13-.91-.26-1.95-.55-3.12-.88-1.03-.29-2.14-.6-3.32-.93-1.2-.27-2.46-.56-3.77-.86-1.31-.3-2.67-.61-4.05-.92-1.37-.35-2.82-.52-4.24-.8-1.43-.25-2.86-.5-4.26-.75-1.42-.21-2.82-.36-4.18-.54-1.36-.16-2.67-.36-3.93-.43-1.26-.1-2.45-.19-3.55-.28-1.1-.08-2.12-.08-3.02-.12-.22-.01-.42-.01-.63-.02-.16.55-.32,1.1-.47,1.65.34,0,.69-.01,1.07-.01.88,0,1.88-.03,2.96,0Z"/>
                <path class="cls-9" d="m144.33,48.31c1.08.04,2.26.09,3.5.13,1.24.02,2.54.17,3.89.28,1.35.12,2.74.22,4.15.37,1.4.19,2.83.38,4.25.57,1.42.21,2.86.33,4.23.62,1.38.26,2.74.51,4.06.75,1.32.24,2.59.48,3.79.7,1.19.28,2.31.55,3.34.79.91.22,1.74.41,2.49.6.03-.05.06-.1.1-.16-.76-.21-1.59-.45-2.51-.7-1.02-.29-2.13-.6-3.31-.92-1.19-.27-2.46-.56-3.76-.85-1.31-.3-2.66-.6-4.04-.91-1.37-.35-2.81-.52-4.22-.79-1.42-.25-2.85-.5-4.25-.74-1.41-.21-2.81-.36-4.17-.54-1.36-.16-2.66-.36-3.92-.43-1.25-.1-2.44-.19-3.54-.27-1.1-.07-2.11-.08-3.01-.11-.06,0-.11,0-.17,0-.13.54-.26,1.08-.39,1.62.18,0,.34,0,.53,0,.88,0,1.87-.03,2.95,0Z"/>
                <path class="cls-9" d="m145.63,57.46c1.21.12,2.48.24,3.8.36,1.32.13,2.67.25,4.05.39,1.38.1,2.76.38,4.15.56,1.38.2,2.76.41,4.12.61,1.34.26,2.66.52,3.94.77,1.27.26,2.51.48,3.64.79,1.14.29,2.22.56,3.22.81.14.04.27.08.41.12.33-.6.66-1.2.99-1.8-.27-.06-.53-.13-.82-.19-1.03-.2-2.15-.43-3.34-.66-1.18-.26-2.45-.42-3.75-.61-1.31-.19-2.66-.38-4.03-.58-1.39-.13-2.79-.27-4.2-.4-1.41-.11-2.81-.32-4.21-.35-1.4-.06-2.77-.12-4.1-.18-1.33-.06-2.62-.11-3.84-.17-1.22,0-2.38.01-3.45.02-1.14,0-2.17.02-3.08.03-.01.07-.02.14-.03.2.92.04,1.95.08,3.1.13,1.06.05,2.21.1,3.43.15Z"/>
                <path class="cls-9" d="m143.46,67.88c.61,0,1.23.01,1.86.02.63.03,1.28.07,1.94.1,1.32.07,2.68.14,4.06.21,1.38.09,2.77.26,4.17.38,1.39.14,2.79.28,4.16.42,1.36.2,2.7.39,3.99.58,1.29.19,2.54.37,3.73.54.47.07.91.15,1.35.24.06-.14.13-.28.2-.43-.46-.12-.92-.23-1.41-.33-1.17-.23-2.41-.48-3.7-.73-1.29-.26-2.62-.52-3.97-.79-1.37-.21-2.76-.42-4.15-.63-1.4-.2-2.79-.44-4.17-.6-1.39-.14-2.76-.29-4.08-.42-.66-.07-1.32-.14-1.96-.2-.64-.04-1.27-.08-1.88-.12-1.23-.08-2.39-.15-3.46-.21-.78-.02-1.5-.04-2.18-.05-.07.69-.14,1.36-.21,2.03.72-.02,1.48-.04,2.32-.06,1.06.01,2.2.02,3.41.04Z"/>
                <path class="cls-9" d="m142.46,76.95c1.04.13,2.14.23,3.26.39,2.25.33,4.66.64,7.04,1.03,2.38.39,4.76.75,6.98,1.16,1.86.32,3.6.63,5.15.92.17-.59.35-1.18.54-1.77-1.62-.21-3.44-.43-5.39-.65-2.25-.28-4.67-.51-7.09-.76-2.42-.25-4.86-.43-7.14-.63-1.14-.1-2.25-.14-3.3-.21-1.05-.06-2.04-.12-2.96-.17-.89-.06-1.71-.04-2.44-.06,0,.07,0,.14-.01.21.73.06,1.54.09,2.42.2.91.1,1.89.22,2.93.34Z"/>
                <path class="cls-9" d="m144.39,86.49c.99.09,2.02.09,3.07.14,1.04.03,2.1.09,3.16.1,1.06-.01,2.12-.02,3.16-.03,1.04-.03,2.06.02,3.06-.08.99-.07,1.95-.14,2.86-.2.91-.08,1.76-.09,2.55-.22.51-.08.98-.15,1.43-.22.01-.08.02-.17.03-.25-.46.04-.95.08-1.48.13-.78.08-1.64.03-2.54.05-.9,0-1.85.01-2.83.02-.98.04-2-.07-3.02-.11-1.03-.06-2.07-.11-3.12-.17-1.04-.08-2.08-.2-3.11-.3-1.02-.12-2.04-.18-3.01-.33-1.94-.28-3.77-.5-5.31-.78-.91-.15-1.71-.29-2.41-.42,0,.72-.01,1.4-.02,2.03.63.07,1.34.15,2.1.22,1.58.19,3.45.29,5.43.44Z"/>
              </g>
              <path class="cls-3" d="m138.87,90.24s-2.66-39.43,10.99-61.97c0,0,12.65-1.71,25.94,4.53,0,0-22.53,29.59-23.29,59.11,0,0-7.36.73-13.64-1.66Z"/>
              <path class="cls-11" d="m106.48,127.75c.05.32.08.64.15.96,0,0,3.64,12.8,19.75,22.74,0,0,4.57,1.6,12.61,2.26-14.51-6.48-25.95-15.9-32.5-25.96Z"/>
            </g>
            <path class="cls-19" d="m35.99,137.46c39.7,42.28,130.43,42.28,171.66-3.43,0,0-37.82,19.99-85.75,22.56-27.07,1.45-57.37-2.45-85.9-19.13Z"/>
            <path class="cls-18" d="m201.28,134.8c-4.06,2-38.41,18.37-80.97,20.27-24.78,1.11-52.34-2.08-78.34-17.28,0,0,.14-.04.41-.11l-6.23-.14c79.03,46.08,171.51-3.51,171.51-3.51l-6.37.77h0Z"/>
            <g class="cls-16">
              <path class="cls-20" d="m70.48,110.48c-5.76,2.98-17.97,10.95-13.63,23.36,0,0,2.03,5.1,7.57,9.75-7.41-9.04-8.92-24.22,6.06-33.12Z"/>
            </g>
            <g>
              <path class="cls-6" d="m210,169.48c0,7.58-14.52,19.29-34.5,19.29s-37.83-11.71-37.83-19.29,16.19-17.74,36.16-17.74,36.16,10.16,36.16,17.74Z"/>
              <path class="cls-2" d="m150.61,156.61c3.22,3.02,10.4,6.93,22.11,6.93,10.32,0,18.9-3.78,23.91-7.13-6.22-2.77-14.15-4.68-22.8-4.68s-16.94,1.99-23.23,4.87Z"/>
              <path class="cls-8" d="m191.67,154.52c6.16,3.87,9.75,8.65,9.75,11.31,0,3.65-10.19,15.33-28.69,15.33s-33.94-6.81-33.94-15.33c-.73,1.25-1.11,2.48-1.11,3.65,0,7.58,17.86,19.29,37.83,19.29s34.5-11.71,34.5-19.29c0-5.12-7.39-11.41-18.33-14.96Z"/>
              <path class="cls-1" d="m183.6,170.25c-.61,3.08-18.08,7.76-29.3,5.66-6.99-1.31-12.48-7.06-11.87-10.14.61-3.08,8.85-3.49,15.82-2.12,6.97,1.37,25.95,3.52,25.35,6.6Z"/>
              <path class="cls-5" d="m196.42,168.76c-2.38,1.47-4.77,1.92-5.32,1.02-.55-.9,1.93-5.76,4.32-7.23,2.38-1.47,7.86,1.99,1,6.2Z"/>
              <path class="cls-1" d="m209.3,170.25s-5.46,5.75-14.37,10.63c-6.43,3.53-14.72,6.91-26.89,5.93,0,0,14.7,3.15,28.96-4.12,4.92-2.57,9.38-6.5,12.3-12.45Z"/>
            </g>
            <g>
              <path class="cls-6" d="m161.96,177.23c-.08,5.72-12.69,16.92-27.98,17.25-22.13.48-27.47-12.31-27.39-18.03.08-5.72,12.06-13.42,27.35-13.21,15.29.21,28.1,8.27,28.02,13.98Z"/>
              <path class="cls-8" d="m161.96,177.23c.06-4.59-8.19-10.69-19.37-13.02,8.45,2.93,14.02,6.7,13.64,9.63-.83,6.39-12.82,13.28-29.78,11.07-11.27-1.47-17.12-5.6-19.53-10.07-.2.56-.31,1.1-.32,1.63-.08,5.72,5.26,18.51,27.39,18.03,15.29-.33,27.9-11.54,27.98-17.25Z"/>
              <path class="cls-2" d="m133.94,167.58c-4.31-.56-7.74-1.74-10.43-3.23-1.57.36-3.06.8-4.46,1.31,3.22,2.46,8.83,5.31,15.55,6.18,7.93,1.03,15.17-1.72,18.53-3.97-1.91-.99-4.08-1.87-6.43-2.6-3.3,1.86-7.58,2.99-12.77,2.31Z"/>
              <path class="cls-1" d="m140.14,178.39c-.32,2.47-9.7,4.35-17.52,3.33s-12.56-7.66-10.32-8.75c8.24-3.99,28.12,3.21,27.83,5.42Z"/>
              <path class="cls-5" d="m151.36,178.42c-2.05,1.16-6.95.67-7.42-.39-.47-1.05,4.29-3.18,6.45-4.14,3.26-1.45,8.17.43.97,4.52Z"/>
              <path class="cls-6" d="m115.93,189.64s9.66,5.56,24.35,2.92c14.7-2.64,19.77-13.6,19.77-13.6-1.73,2.11-20.5,18.9-44.13,10.68Z"/>
            </g>
            <g>
              <g>
                <path class="cls-23" d="m51.16,161.01s.07-.02.11-.04c0,0,.01,0,.01,0,.58-.18,1.17-.25,1.75-.38.75-.16,1.46-.41,2-1.1.77-.99,1.17-2.43,2.32-3.08.11-.06.18-.08.24-.08.26,0,.08.54.09.82.03.61.23,1.22.53,1.75.32.55.79,1,1.27,1.41.49.42.93.88,1.4,1.34.49.48,1.11.88,1.51,1.44.2-.76.37-1.51.66-2.24,0,0,0-.02,0-.03.03-.05.04-.1.07-.15.53-1.24,1.42-2.47.88-3.85-.35-.9-1-1.51-1.75-2.02-.12-.08-.24-.16-.37-.24.05,0,.1.01.15.02.2.03.39.06.59.09.28.05.57.11.85.17.74.16,1.46.37,2.17.63,0,0,.01,0,.02,0,.39.14.78.29,1.15.46.43.19,1.05.68,1.43.59h0c.16-.04.28-.17.32-.45.24-1.43-.92-3.35-1.79-4.38-1.28-1.51-3.36-1.58-5.02-.62-.13.07-.25.15-.35.24-.13.1-.25.2-.37.31.24-.78.38-1.61.49-2.31.24-1.59-.06-2.81-1.11-4.03-.52-.6-1.4-1.21-1.7-1.97-.01.04-.02.09-.03.14-.43,1.83-1.07,3.79-.98,5.68.02.52.1,1.04.25,1.55-.54-.58-1.14-1.1-1.8-1.48-1.56-.91-3.17-.81-4.84-.28-.83.26-2.2.58-2.85,1.24.02.04.05.08.09.11.33.37,1.02.58,1.43.9.96.76,1.75,1.62,2.91,2.09.49.2,1.01.36,1.53.46.46.09,1.03.03,1.46.17-.04.05-.09.09-.15.14-.36.24-1.06.32-1.4.46-.96.39-1.88.9-2.38,1.86-.51.99-.33,2.07-.42,3.13-.04.54-.24,1.02-.38,1.53Z"/>
                <path class="cls-24" d="m58.29,154.31c.08,0,.16-.02.23-.02.06-.01.11-.02.16-.03,0,0,.01,0,.02,0,.03,0,.06-.01.08-.02.17-.03.32-.08.46-.15.03-.02.07-.03.1-.05,0,0,.01,0,.01,0h0c.2-.11.38-.24.55-.4.23-.21.44-.48.67-.78.17-.23.33-.45.46-.69.16-.27.29-.55.39-.84-.13.1-.25.2-.37.31.24-.78.38-1.61.49-2.31.24-1.59-.06-2.81-1.11-4.03-.52-.6-1.4-1.21-1.7-1.97-.01.04-.02.09-.03.14.13.23.27.44.42.64.5.71.99,1.48,1.35,2.27.45.98.49,2.05.28,3.1-.08.42-.18.83-.28,1.24-.05.19-.06.47-.23.58-.13-.18-.15-.41-.2-.61-.09-.34-.24-.67-.25-1.03-.17.34-.26.77-.36,1.14-.1.39-.09.93-.32,1.25-.29-1.08-.37-2.23-.49-3.35-.21.19-.34.5-.41.78-.12.56-.19,1.2-.23,1.78-.02.23-.01.46,0,.69.02.42.07.84.12,1.26.03.18.05.35.07.52v.05s.05.17.05.17v.03s.09.34.09.34Z"/>
                <path class="cls-24" d="m58.52,154.39s.06.08.1.11h0s.02.02.02.02c.02.02.04.04.07.05.12.08.26.15.43.18.61.16,1.44.07,1.89.08.41,0,.81-.01,1.22-.03.19,0,.37-.01.56,0,.22,0,.44.01.66.04.06,0,.13.01.19.02.69.11,1.34.32,1.97.6,0,0,.01,0,.02,0,.39.14.78.29,1.15.46.43.19,1.05.68,1.43.59-.07-.07-.13-.14-.19-.2-.75-.77-1.55-1.4-2.53-1.84-.9-.41-1.93-.63-2.9-.79-.26-.04-.78,0-.97-.21.12-.36.83-.46,1.13-.64-.24-.06-.61.03-.87.07-.19.03-.5.18-.69.1.13-.31.65-.49.93-.64.54-.28,1.25-.33,1.73-.68-.32-.23-1.09-.05-1.46,0-.5.07-.97.23-1.42.44h0c-.11.06-.23.12-.34.18-.35.21-1.17.63-1.15,1.16,0,0,0,0,0,.01l-.23.19h-.01s-.22.2-.22.2l-.25.21-.13.11h-.02s-.12.12-.12.12l-.04.03Z"/>
                <path class="cls-24" d="m60.26,155.27c.52.41.69,1.32,1.11,1.83.16-.57-.25-1.74-.59-2.15,1.43,1.09,2.53,2.74,2.46,4.61,0,.41-.09.85-.19,1.28.03-.05.04-.1.07-.15.53-1.24,1.42-2.47.88-3.85-.35-.9-1-1.51-1.75-2.02.19,0,.37-.01.56,0-.06-.05-.12-.09-.18-.12-.35-.24-.76-.42-1.18-.51l-1.56-.53-.36-.12-.57-.19-.08-.03c-.05.12-.09.24-.11.37h0s0,0,0,.02c0,.04-.02.07-.03.11-.03.15-.04.3-.04.45,0,0,0,.01,0,.01,0,.06,0,.1,0,.15,0,.06,0,.12,0,.17.02.2.06.4.12.61.31,1.05,1.06,2.05,1.73,2.78.07-.31-.26-.82-.32-1.15-.08-.46-.05-1.08.02-1.55Z"/>
                <path class="cls-24" d="m51.29,160.97c.58-.18,1.17-.25,1.75-.38.75-.16,1.46-.41,2-1.1.77-.99,1.17-2.43,2.32-3.08.11-.06.18-.08.24-.08.4-.35.88-.73,1.24-1.14.12-.13.22-.28.31-.43.1-.19.17-.38.19-.58,0-.02,0-.04,0-.06h0s0-.06,0-.08h0c0-.1-.01-.2-.04-.31,0-.01,0-.04-.02-.05.03,0,.04-.02.05-.02-.02,0-.03,0-.06,0-.06,0-.16.03-.26.06,0,0-.02.01-.03.01-.04.01-.08.02-.13.04-.04.01-.08.02-.12.04-.17.06-.34.11-.51.17,0,0-.01,0-.02,0-.2.07-.39.14-.59.22-.87.35-1.67.77-2.43,1.32-.59.42-1.17.89-1.68,1.4-.12.12-.39.33-.35.5.79-.29,1.45-1.15,2.31-1.23-.34.51-1.07.81-1.52,1.22-.4.36-.91.82-1.09,1.34.5-.32.93-.77,1.42-1.12.46-.34,1.23-1.06,1.84-1.07-.32.55-.88,1.06-1.28,1.56-.54.68-1.11,1.29-1.82,1.8-.52.37-1.12.77-1.74,1.05Z"/>
                <path class="cls-24" d="m58.77,153.67s-.02,0-.02,0c0,0,.01,0,.02.01.03.02.06.05.1.08.07.06.14.11.21.17.09.08.18.16.27.25,0,0,0,0,.01,0v-.07s-.05-.38-.05-.38v-.06s0-.03,0-.03v-.04c-.18,0-.34.03-.51.06Z"/>
                <path class="cls-24" d="m48.55,150.28c.33.37,1.02.58,1.43.9.96.76,1.75,1.62,2.91,2.09.49.2,1.01.36,1.53.46.46.09,1.03.03,1.46.17-.04.05-.09.09-.15.14.35,0,.7-.03,1.05-.05.66-.04,1.31-.22,1.97-.32-.82-.65-1.79-1.15-2.83-1.25-1.08-.1-2.17.13-3.22-.26-1-.37-1.94-.97-2.91-1.41-.4-.19-.82-.34-1.24-.48Z"/>
                <path class="cls-24" d="m59.05,153.63c-.11-.69-.75-1.36-1.23-1.82-.66-.63-1.58-1.43-2.48-1.67.5.6,1.39,1.02,1.72,1.75-.72-.43-1.4-.75-2.24-.92-.45-.09-1.5-.38-1.95-.15,1.04.25,2.07.87,2.99,1.39.76.43,1.47.91,2.1,1.51.23.22.6.5.68.83l.42-.92Z"/>
              </g>
              <path class="cls-22" d="m59.39,153.29c-.12-1.19-.24-2.42-.64-3.56-.1-.29-.22-.59-.33-.88.01,0,.02,0,.04-.02.19-.12.24-.39.18-.59-.04-.12-.12-.22-.21-.3-.01-.14-.06-.28-.16-.38-.04-.04-.08-.07-.13-.1,0-.15,0-.29-.05-.42-.04-.12-.12-.23-.22-.29,0-.04,0-.07-.01-.11-.06-.19-.2-.35-.38-.43-.18-.15-.46-.21-.63,0-.08.1-.02.25.08.29,0,.05-.02.1-.02.15.02.15.13.26.28.26-.19.22.08.56.32.48,0,.01,0,.02,0,.04,0-.08,0,0,0,.01,0,.03-.01.05-.02.08,0,0,0,.03-.02.06-.1.23.06.45.29.46-.03.13.04.32.17.36,0,0,.03.01.05.02,0,.02-.02.03-.02.05-.06.23.1.41.3.41.11.31.21.63.3.95.3,1.13.32,2.31.51,3.46.03.2.35.2.33-.02Z"/>
            </g>
            <g>
              <g>
                <path class="cls-23" d="m150.75,193.91s.07-.02.11-.04c0,0,.01,0,.01,0,.58-.18,1.17-.25,1.75-.38.75-.16,1.46-.41,2-1.1.77-.99,1.17-2.43,2.32-3.08.11-.06.18-.08.24-.08.26,0,.08.54.09.82.03.61.23,1.22.53,1.75.32.55.79,1,1.27,1.41.49.42.93.88,1.4,1.34.49.48,1.11.88,1.51,1.44.2-.76.37-1.51.66-2.24,0,0,0-.02,0-.03.03-.05.04-.1.07-.15.53-1.24,1.42-2.47.88-3.85-.35-.9-1-1.51-1.75-2.02-.12-.08-.24-.16-.37-.24.05,0,.1.01.15.02.2.03.39.06.59.09.28.05.57.11.85.17.74.16,1.46.37,2.17.63,0,0,.01,0,.02,0,.39.14.78.29,1.15.46.43.19,1.05.68,1.43.59h0c.16-.04.28-.17.32-.45.24-1.43-.92-3.35-1.79-4.38-1.28-1.51-3.36-1.58-5.02-.62-.13.07-.25.15-.35.24-.13.1-.25.2-.37.31.24-.78.38-1.61.49-2.31.24-1.59-.06-2.81-1.11-4.03-.52-.6-1.4-1.21-1.7-1.97-.01.04-.02.09-.03.14-.43,1.83-1.07,3.79-.98,5.68.02.52.1,1.04.25,1.55-.54-.58-1.14-1.1-1.8-1.48-1.56-.91-3.17-.81-4.84-.28-.83.26-2.2.58-2.85,1.24.02.04.05.08.09.11.33.37,1.02.58,1.43.9.96.76,1.75,1.62,2.91,2.09.49.2,1.01.36,1.53.46.46.09,1.03.03,1.46.17-.04.05-.09.09-.15.14-.36.24-1.06.32-1.4.46-.96.39-1.88.9-2.38,1.86-.51.99-.33,2.07-.42,3.13-.04.54-.24,1.02-.38,1.53Z"/>
                <path class="cls-24" d="m157.88,187.22c.08,0,.16-.02.23-.02.06-.01.11-.02.16-.03,0,0,.01,0,.02,0,.03,0,.06-.01.08-.02.17-.03.32-.08.46-.15.03-.02.07-.03.1-.05,0,0,.01,0,.01,0h0c.2-.11.38-.24.55-.4.23-.21.44-.48.67-.78.17-.23.33-.45.46-.69.16-.27.29-.55.39-.84-.13.1-.25.2-.37.31.24-.78.38-1.61.49-2.31.24-1.59-.06-2.81-1.11-4.03-.52-.6-1.4-1.21-1.7-1.97-.01.04-.02.09-.03.14.13.23.27.44.42.64.5.71.99,1.48,1.35,2.27.45.98.49,2.05.28,3.1-.08.42-.18.83-.28,1.24-.05.19-.06.47-.23.58-.13-.18-.15-.41-.2-.61-.09-.34-.24-.67-.25-1.03-.17.34-.26.77-.36,1.14-.1.39-.09.93-.32,1.25-.29-1.08-.37-2.23-.49-3.35-.21.19-.34.5-.41.78-.12.56-.19,1.2-.23,1.78-.02.23-.01.46,0,.69.02.42.07.84.12,1.26.03.18.05.35.07.52v.05s.05.17.05.17v.03s.09.34.09.34Z"/>
                <path class="cls-24" d="m158.11,187.3s.06.08.1.11h0s.02.02.02.02c.02.02.04.04.07.05.12.08.26.15.43.18.61.16,1.44.07,1.89.08.41,0,.81-.01,1.22-.03.19,0,.37-.01.56,0,.22,0,.44.01.66.04.06,0,.13.01.19.02.69.11,1.34.32,1.97.6,0,0,.01,0,.02,0,.39.14.78.29,1.15.46.43.19,1.05.68,1.43.59-.07-.07-.13-.14-.19-.2-.75-.77-1.55-1.4-2.53-1.84-.9-.41-1.93-.63-2.9-.79-.26-.04-.78,0-.97-.21.12-.36.83-.46,1.13-.64-.24-.06-.61.03-.87.07-.19.03-.5.18-.69.1.13-.31.65-.49.93-.64.54-.28,1.25-.33,1.73-.68-.32-.23-1.09-.05-1.46,0-.5.07-.97.23-1.42.44h0c-.11.06-.23.12-.34.18-.35.21-1.17.63-1.15,1.16,0,0,0,0,0,.01l-.23.19h-.01s-.22.2-.22.2l-.25.21-.13.11h-.02s-.12.12-.12.12l-.04.03Z"/>
                <path class="cls-24" d="m159.85,188.17c.52.41.69,1.32,1.11,1.83.16-.57-.25-1.74-.59-2.15,1.43,1.09,2.53,2.74,2.46,4.61,0,.41-.09.85-.19,1.28.03-.05.04-.1.07-.15.53-1.24,1.42-2.47.88-3.85-.35-.9-1-1.51-1.75-2.02.19,0,.37-.01.56,0-.06-.05-.12-.09-.18-.12-.35-.24-.76-.42-1.18-.51l-1.56-.53-.36-.12-.57-.19-.08-.03c-.05.12-.09.24-.11.37h0s0,0,0,.02c0,.04-.02.07-.03.11-.03.15-.04.3-.04.45,0,0,0,.01,0,.01,0,.06,0,.1,0,.15,0,.06,0,.12,0,.17.02.2.06.4.12.61.31,1.05,1.06,2.05,1.73,2.78.07-.31-.26-.82-.32-1.15-.08-.46-.05-1.08.02-1.55Z"/>
                <path class="cls-24" d="m150.88,193.87c.58-.18,1.17-.25,1.75-.38.75-.16,1.46-.41,2-1.1.77-.99,1.17-2.43,2.32-3.08.11-.06.18-.08.24-.08.4-.35.88-.73,1.24-1.14.12-.13.22-.28.31-.43.1-.19.17-.38.19-.58,0-.02,0-.04,0-.06h0s0-.06,0-.08h0c0-.1-.01-.2-.04-.31,0-.01,0-.04-.02-.05.03,0,.04-.02.05-.02-.02,0-.03,0-.06,0-.06,0-.16.03-.26.06,0,0-.02.01-.03.01-.04.01-.08.02-.13.04-.04.01-.08.02-.12.04-.17.06-.34.11-.51.17,0,0-.01,0-.02,0-.2.07-.39.14-.59.22-.87.35-1.67.77-2.43,1.32-.59.42-1.17.89-1.68,1.4-.12.12-.39.33-.35.5.79-.29,1.45-1.15,2.31-1.23-.34.51-1.07.81-1.52,1.22-.4.36-.91.82-1.09,1.34.5-.32.93-.77,1.42-1.12.46-.34,1.23-1.06,1.84-1.07-.32.55-.88,1.06-1.28,1.56-.54.68-1.11,1.29-1.82,1.8-.52.37-1.12.77-1.74,1.05Z"/>
                <path class="cls-24" d="m158.36,186.57s-.02,0-.02,0c0,0,.01,0,.02.01.03.02.06.05.1.08.07.06.14.11.21.17.09.08.18.16.27.25,0,0,0,0,.01,0v-.07s-.05-.38-.05-.38v-.06s0-.03,0-.03v-.04c-.18,0-.34.03-.51.06Z"/>
                <path class="cls-24" d="m148.15,183.18c.33.37,1.02.58,1.43.9.96.76,1.75,1.62,2.91,2.09.49.2,1.01.36,1.53.46.46.09,1.03.03,1.46.17-.04.05-.09.09-.15.14.35,0,.7-.03,1.05-.05.66-.04,1.31-.22,1.97-.32-.82-.65-1.79-1.15-2.83-1.25-1.08-.1-2.17.13-3.22-.26-1-.37-1.94-.97-2.91-1.41-.4-.19-.82-.34-1.24-.48Z"/>
                <path class="cls-24" d="m158.64,186.54c-.11-.69-.75-1.36-1.23-1.82-.66-.63-1.58-1.43-2.48-1.67.5.6,1.39,1.02,1.72,1.75-.72-.43-1.4-.75-2.24-.92-.45-.09-1.5-.38-1.95-.15,1.04.25,2.07.87,2.99,1.39.76.43,1.47.91,2.1,1.51.23.22.6.5.68.83l.42-.92Z"/>
              </g>
              <path class="cls-22" d="m158.98,186.2c-.12-1.19-.24-2.42-.64-3.56-.1-.29-.22-.59-.33-.88.01,0,.02,0,.04-.02.19-.12.24-.39.18-.59-.04-.12-.12-.22-.21-.3-.01-.14-.06-.28-.16-.38-.04-.04-.08-.07-.13-.1,0-.15,0-.29-.05-.42-.04-.12-.12-.23-.22-.29,0-.04,0-.07-.01-.11-.06-.19-.2-.35-.38-.43-.18-.15-.46-.21-.63,0-.08.1-.02.25.08.29,0,.05-.02.1-.02.15.02.15.13.26.28.26-.19.22.08.56.32.48,0,.01,0,.02,0,.04,0-.08,0,0,0,.01,0,.03-.01.05-.02.08,0,0,0,.03-.02.06-.1.23.06.45.29.46-.03.13.04.32.17.36,0,0,.03.01.05.02,0,.02-.02.03-.02.05-.06.23.1.41.3.41.11.31.21.63.3.95.3,1.13.32,2.31.51,3.46.03.2.35.2.33-.02Z"/>
            </g>
            <g>
              <g>
                <path class="cls-23" d="m179.68,194.68s-.06-.02-.08-.03c0,0,0,0-.01,0-.44-.14-.89-.19-1.33-.29-.57-.12-1.1-.31-1.51-.84-.59-.75-.89-1.84-1.76-2.34-.08-.04-.14-.06-.18-.06-.2,0-.06.41-.07.63-.02.46-.17.93-.4,1.33-.24.42-.6.76-.96,1.07-.37.32-.71.67-1.06,1.02-.37.37-.84.67-1.14,1.1-.15-.58-.28-1.14-.5-1.7,0,0,0-.02,0-.02-.02-.04-.03-.07-.05-.11-.4-.94-1.08-1.88-.67-2.92.26-.68.76-1.15,1.33-1.53.09-.06.18-.12.28-.18-.04,0-.08,0-.12.01-.15.02-.3.04-.45.07-.22.04-.43.08-.64.13-.56.12-1.11.28-1.64.48,0,0-.01,0-.02,0-.3.11-.59.22-.88.35-.32.14-.8.51-1.09.45h0c-.12-.03-.21-.13-.24-.34-.18-1.09.69-2.54,1.36-3.32.97-1.15,2.55-1.2,3.81-.47.1.06.19.12.27.18.1.07.19.15.28.24-.18-.59-.29-1.22-.37-1.76-.19-1.21.04-2.13.84-3.06.39-.45,1.07-.92,1.29-1.5,0,.03.01.07.03.1.33,1.39.81,2.87.75,4.31-.02.39-.08.79-.19,1.18.41-.44.87-.84,1.37-1.13,1.18-.69,2.4-.62,3.67-.21.63.2,1.67.44,2.17.94-.02.03-.04.06-.07.08-.25.28-.78.44-1.08.69-.73.58-1.33,1.23-2.21,1.59-.37.15-.76.27-1.16.35-.35.07-.78.02-1.11.13.03.04.07.07.11.1.28.18.8.24,1.07.35.73.3,1.43.68,1.8,1.41.39.75.25,1.57.32,2.38.03.41.18.77.29,1.16Z"/>
                <path class="cls-24" d="m174.26,189.6c-.06,0-.12-.01-.17-.02-.04,0-.08-.01-.12-.02,0,0-.01,0-.01,0-.02,0-.04,0-.06-.02-.13-.03-.24-.06-.35-.11-.02-.01-.05-.02-.07-.04,0,0,0,0,0,0h0c-.15-.08-.29-.18-.42-.3-.17-.16-.34-.36-.51-.59-.13-.17-.25-.34-.35-.52-.12-.2-.22-.42-.29-.64.1.07.19.15.28.24-.18-.59-.29-1.22-.37-1.76-.19-1.21.04-2.13.84-3.06.39-.45,1.07-.92,1.29-1.5,0,.03.01.07.03.1-.1.17-.21.33-.32.49-.38.54-.75,1.12-1.02,1.73-.34.75-.37,1.56-.22,2.35.06.32.14.63.22.94.03.14.05.35.17.44.1-.13.11-.31.16-.46.07-.26.18-.51.19-.78.13.26.2.59.27.86.08.29.07.7.24.95.22-.82.28-1.7.37-2.54.16.14.26.38.31.59.09.42.14.91.18,1.35.01.17.01.35,0,.53-.02.32-.05.64-.09.96-.02.14-.04.27-.05.4v.04s-.04.13-.04.13v.02s-.07.26-.07.26Z"/>
                <path class="cls-24" d="m174.09,189.66s-.05.06-.08.09h0s-.01.01-.02.01c-.02.02-.03.03-.05.04-.09.06-.2.11-.33.14-.46.12-1.1.06-1.44.06-.31,0-.62-.01-.92-.02-.14,0-.28,0-.43,0-.17,0-.33.01-.5.03-.05,0-.1.01-.15.02-.52.08-1.02.24-1.5.46,0,0-.01,0-.02,0-.3.11-.59.22-.88.35-.32.14-.8.51-1.09.45.05-.05.1-.1.15-.15.57-.58,1.17-1.07,1.92-1.4.69-.31,1.47-.48,2.2-.6.2-.03.59,0,.74-.16-.09-.28-.63-.35-.86-.48.19-.04.47.02.66.06.14.02.38.14.52.08-.1-.23-.5-.37-.71-.48-.41-.21-.95-.25-1.32-.52.24-.18.83-.04,1.11,0,.38.05.73.17,1.07.34h0c.09.05.17.09.26.14.27.16.89.48.87.88,0,0,0,0,0,.01l.18.15h0s.17.16.17.16l.19.16.1.08h.01s.09.09.09.09l.03.02Z"/>
                <path class="cls-24" d="m172.77,190.32c-.39.31-.52,1-.84,1.39-.12-.43.19-1.32.45-1.63-1.09.83-1.92,2.08-1.87,3.5,0,.31.07.64.14.97-.02-.04-.03-.07-.05-.11-.4-.94-1.08-1.88-.67-2.92.26-.68.76-1.15,1.33-1.53-.14,0-.28,0-.43,0,.04-.04.09-.07.14-.09.27-.18.57-.32.89-.39l1.18-.4.27-.09.43-.14.06-.02c.04.09.07.18.09.28h0s0,0,0,.01c0,.03.01.06.02.09.02.12.03.23.03.34,0,0,0,0,0,0,0,.04,0,.08,0,.11,0,.05,0,.09,0,.13-.01.15-.05.31-.09.46-.23.8-.81,1.56-1.31,2.11-.06-.23.2-.63.24-.88.06-.35.04-.82-.01-1.17Z"/>
                <path class="cls-24" d="m179.58,194.65c-.44-.14-.89-.19-1.33-.29-.57-.12-1.1-.31-1.51-.84-.59-.75-.89-1.84-1.76-2.34-.08-.04-.14-.06-.18-.06-.31-.27-.67-.55-.94-.87-.09-.1-.17-.21-.24-.32-.08-.14-.13-.29-.15-.44,0-.02,0-.03,0-.04h0s0-.05,0-.06h0c0-.08,0-.15.03-.23,0-.01,0-.03.01-.04-.02,0-.03-.01-.04-.02.01,0,.02,0,.04,0,.05,0,.12.02.2.04,0,0,.02,0,.03,0,.03.01.06.02.1.03.03,0,.06.02.09.03.13.04.26.09.39.13,0,0,.01,0,.01,0,.15.05.3.11.45.17.66.27,1.27.59,1.84,1,.44.32.89.68,1.28,1.06.09.09.29.25.26.38-.6-.22-1.1-.87-1.76-.94.25.39.81.62,1.16.93.3.27.69.63.83,1.01-.38-.24-.71-.59-1.08-.85-.35-.26-.93-.81-1.4-.81.24.42.67.8.97,1.19.41.52.85.98,1.38,1.36.39.28.85.58,1.32.8Z"/>
                <path class="cls-24" d="m173.9,189.11s.01,0,.02,0c0,0-.01,0-.01,0-.03.02-.05.04-.07.06-.05.04-.11.09-.16.13-.07.06-.14.12-.2.19,0,0,0,0,0,0v-.05s.04-.29.04-.29v-.05s0-.02,0-.02v-.03c.13,0,.26.02.39.04Z"/>
                <path class="cls-24" d="m181.66,186.53c-.25.28-.78.44-1.08.69-.73.58-1.33,1.23-2.21,1.59-.37.15-.76.27-1.16.35-.35.07-.78.02-1.11.13.03.04.07.07.11.1-.26,0-.53-.02-.79-.04-.5-.03-1-.17-1.49-.24.62-.49,1.36-.88,2.15-.95.82-.08,1.65.09,2.45-.19.76-.28,1.47-.73,2.21-1.07.3-.14.62-.26.94-.36Z"/>
                <path class="cls-24" d="m173.69,189.08c.08-.52.57-1.04.93-1.38.5-.48,1.2-1.09,1.89-1.27-.38.46-1.06.77-1.3,1.33.55-.32,1.06-.57,1.7-.7.34-.07,1.14-.29,1.48-.11-.79.19-1.57.66-2.27,1.06-.57.33-1.11.69-1.59,1.15-.18.17-.46.38-.51.63l-.32-.7Z"/>
              </g>
              <path class="cls-22" d="m173.43,188.82c.09-.91.18-1.84.49-2.7.08-.22.16-.45.25-.67,0,0-.02,0-.03-.01-.14-.09-.18-.3-.14-.45.03-.09.09-.17.16-.23,0-.11.04-.21.12-.29.03-.03.06-.05.1-.07,0-.11,0-.22.03-.32.03-.09.09-.17.17-.22,0-.03,0-.05.01-.08.04-.14.15-.26.29-.32.14-.11.35-.16.48,0,.06.08.02.19-.06.22,0,.04.02.08.01.11-.01.12-.1.19-.21.2.15.16-.06.43-.25.36,0,0,0,.02,0,.03,0-.06,0,0,0,0,0,.02,0,.04.01.06,0,0,0,.02.01.04.08.18-.05.34-.22.35.02.1-.03.24-.13.28,0,0-.02,0-.04.01,0,.01.01.02.02.04.05.17-.08.31-.23.31-.08.24-.16.48-.23.72-.23.86-.24,1.75-.39,2.62-.03.16-.27.15-.25-.01Z"/>
            </g>
          </g>
        </g>
      </g>
    </g>
  </g>
</svg>