<?xml version="1.0" encoding="UTF-8"?>
<svg xmlns="http://www.w3.org/2000/svg" viewBox="0 0 220 220">
  <defs>
    <style>
      .cls-1, .cls-2, .cls-3, .cls-4, .cls-5 {
        fill: #a8846f;
      }

      .cls-2 {
        opacity: .6;
      }

      .cls-2, .cls-6, .cls-7, .cls-8 {
        mix-blend-mode: multiply;
      }

      .cls-9, .cls-10 {
        opacity: .7;
      }

      .cls-11, .cls-12 {
        mix-blend-mode: screen;
      }

      .cls-11, .cls-13, .cls-7 {
        opacity: .4;
      }

      .cls-14, .cls-15, .cls-10 {
        fill: #fff;
      }

      .cls-16, .cls-17 {
        fill: #fff2de;
      }

      .cls-12, .cls-6, .cls-4 {
        opacity: .2;
      }

      .cls-18 {
        fill: #684130;
      }

      .cls-15, .cls-5, .cls-17, .cls-8 {
        opacity: .3;
      }

      .cls-19 {
        isolation: isolate;
      }

      .cls-20 {
        fill: #c1a993;
      }

      .cls-21 {
        fill: #c0ded8;
      }

      .cls-22 {
        fill: #8cad66;
      }

      .cls-3 {
        opacity: .1;
      }

      .cls-23 {
        fill: #eeb676;
      }

      .cls-24 {
        fill: #80d2a1;
      }

      .cls-25 {
        fill: #d18497;
      }

      .cls-26 {
        fill: #fff3a9;
      }

      .cls-27 {
        fill: #845b41;
      }

      .cls-28 {
        fill: #47c582;
      }

      .cls-29 {
        fill: #fff4e1;
      }

      .cls-30 {
        fill: #a4c9bf;
      }

      .cls-7, .cls-31 {
        fill: #d1c1b0;
      }

      .cls-32 {
        fill: #996d4f;
      }

      .cls-33 {
        fill: #332722;
      }

      .cls-34 {
        fill: #e796ad;
      }

      .cls-35 {
        fill: #efe1ce;
      }

      .cls-36 {
        fill: #718c4b;
      }

      .cls-37 {
        fill: #d9e5d1;
      }

      .cls-38 {
        fill: #ca5959;
      }

      .cls-39 {
        fill: #ffebb2;
      }

      .cls-40 {
        fill: #f7d892;
      }

      .cls-41 {
        fill: #eaa050;
      }

      .cls-42 {
        fill: #377f65;
      }

      .cls-8 {
        fill: #d3ac7d;
      }
    </style>
  </defs>
  <g class="cls-19">
    <g id="Layer_2" data-name="Layer 2">
      <g id="_2" data-name="2">
        <g>
          <circle class="cls-37" cx="110" cy="110" r="110"/>
          <g>
            <g>
              <g>
                <path class="cls-18" d="m147.05,151.04c-.33,0-.65-.18-.82-.49-.24-.45-.07-1.01.38-1.25.23-.12,23.06-12.19,55.67-16.14.49-.07.97.3,1.03.81.06.51-.3.97-.81,1.03-32.27,3.91-54.79,15.82-55.02,15.94-.14.07-.29.11-.44.11Z"/>
                <path class="cls-18" d="m147.58,146.92c-.3,0-.59-.14-.77-.41-.28-.42-.17-1,.26-1.28.21-.14,21.3-13.99,50.25-17.47.5-.05.97.3,1.03.81.06.51-.3.97-.81,1.03-28.51,3.43-49.24,17.04-49.44,17.18-.16.1-.34.16-.51.16Z"/>
                <path class="cls-18" d="m200.23,173.39c-.38,0-.74-.24-.87-.62-12.39-36.24-24.01-50.64-24.13-50.78-.32-.39-.27-.98.13-1.3.39-.32.98-.27,1.3.13.48.59,11.95,14.79,24.45,51.35.16.48-.09,1.01-.58,1.17-.1.03-.2.05-.3.05Z"/>
                <path class="cls-18" d="m165.24,180.84c-.32,0-.63-.16-.8-.46-.26-.44-.11-1.01.34-1.26,26.75-15.51,40.41-39.46,40.54-39.7.25-.44.81-.6,1.26-.35.45.25.6.81.35,1.26-.14.24-14.05,24.64-41.23,40.4-.15.09-.31.13-.46.13Z"/>
                <path class="cls-18" d="m189.94,179.96c-22.55,0-39.74-12.79-39.92-12.92-.41-.31-.49-.89-.18-1.29.31-.41.89-.49,1.29-.18.18.13,17.79,13.24,40.62,12.52.49,0,.94.39.95.9.02.51-.39.94-.9.95-.63.02-1.25.03-1.87.03Z"/>
                <path class="cls-18" d="m197.67,175.9s-.04,0-.06,0c-33.71-2-49.94-14.75-50.62-15.29-.4-.32-.46-.9-.14-1.3.32-.4.9-.46,1.3-.14.16.13,16.5,12.92,49.57,14.88.51.03.9.47.87.98-.03.49-.44.87-.92.87Z"/>
                <path class="cls-18" d="m179.92,183.35c-.32,0-.63-.17-.8-.46-15.55-27.01-14.42-59.38-14.41-59.7.02-.51.43-.93.96-.89.51.02.91.45.89.96-.01.32-1.12,32.16,14.16,58.7.26.44.1,1.01-.34,1.26-.15.08-.3.12-.46.12Z"/>
                <path class="cls-18" d="m173.22,182.91c-.33,0-.65-.18-.82-.49-14.72-27.64-11.72-56.39-11.69-56.68.06-.51.51-.87,1.02-.82.51.06.87.51.82,1.02-.03.28-2.96,28.49,11.48,55.61.24.45.07,1.01-.38,1.25-.14.07-.29.11-.43.11Z"/>
                <path class="cls-18" d="m156.82,174.78c-.37,0-.71-.22-.86-.58-9.69-23.95-3.68-40.61-3.42-41.31.18-.48.71-.72,1.19-.54.48.18.72.71.54,1.19-.06.16-6,16.73,3.41,39.97.19.47-.04,1.01-.51,1.2-.11.05-.23.07-.35.07Z"/>
                <path class="cls-18" d="m185.74,182.33c-.27,0-.54-.12-.72-.35-.32-.4-.26-.98.14-1.3.16-.13,16.07-13.43,14.15-49.23-.03-.51.36-.94.87-.97.5-.04.94.36.97.87,1.98,36.83-14.15,50.22-14.84,50.77-.17.14-.37.2-.58.2Z"/>
                <path class="cls-18" d="m207.94,156.49s-.06,0-.09,0c-37.53-3.45-59.95-1.15-60.18-1.12-.51.05-.96-.31-1.02-.82-.05-.51.31-.96.82-1.02.22-.02,22.83-2.35,60.54,1.12.51.05.88.5.84,1-.04.48-.45.84-.92.84Z"/>
                <path class="cls-18" d="m204.5,167.23c-.16,0-.32-.04-.47-.13-28.46-16.69-35.02-44.28-35.08-44.56-.11-.5.2-.99.7-1.11.5-.11.99.2,1.11.7.06.27,6.47,27.1,34.22,43.38.44.26.59.82.33,1.26-.17.29-.48.46-.8.46Z"/>
                <path class="cls-18" d="m160.28,178.08c-.27,0-.54-.12-.72-.35-.32-.4-.25-.98.14-1.3,22.42-17.95,27.42-52.98,27.47-53.34.07-.51.53-.86,1.04-.79.51.07.86.53.79,1.04-.05.36-5.16,36.12-28.15,54.53-.17.14-.37.2-.58.2Z"/>
              </g>
              <g>
                <path class="cls-32" d="m184.94,136.52c-.16,0-.31-.04-.46-.12-12.69-7.27-23.55-8.75-23.66-8.77-.51-.07-.86-.53-.8-1.04.07-.51.53-.86,1.04-.8.46.06,11.34,1.54,24.34,9,.44.25.6.82.34,1.26-.17.3-.48.46-.8.46Z"/>
                <path class="cls-32" d="m191.15,158.33c-.18,0-.36-.05-.52-.16-.42-.29-.53-.86-.24-1.29,9.44-13.75,9.41-24.79,9.41-24.9,0-.51.4-.93.91-.94.46,0,.93.4.94.91,0,.47.06,11.7-9.74,25.98-.18.26-.47.4-.76.4Z"/>
                <path class="cls-32" d="m187.35,168.65s-.06,0-.09,0c-17.33-1.63-23.19-8.26-23.43-8.54-.33-.39-.29-.97.1-1.3.39-.33.97-.29,1.3.1.09.1,5.76,6.36,22.2,7.9.51.05.88.5.83,1.01-.05.48-.45.84-.92.84Z"/>
                <path class="cls-32" d="m152.18,145.41s-.09,0-.14,0c-.5-.07-.85-.54-.78-1.05.06-.42,1.57-10.32,8.31-18.23.33-.39.92-.43,1.3-.1.39.33.44.91.1,1.3-6.38,7.49-7.87,17.21-7.89,17.3-.07.46-.46.79-.91.79Z"/>
                <path class="cls-32" d="m155.73,166.68c-.41,0-.78-.27-.89-.69-1.18-4.49-.06-9.89-.01-10.12.11-.5.6-.83,1.1-.71.5.11.82.6.71,1.1-.01.05-1.08,5.2-.01,9.27.13.49-.17,1-.66,1.13-.08.02-.16.03-.24.03Z"/>
                <path class="cls-32" d="m159.12,167.23c-.42,0-.81-.29-.9-.73-1.15-5.22-.55-10.34-.53-10.56.06-.51.52-.87,1.03-.81.51.06.87.52.81,1.03,0,.05-.58,5.04.5,9.94.11.5-.21.99-.7,1.1-.07.01-.13.02-.2.02Z"/>
              </g>
              <g class="cls-11">
                <path class="cls-32" d="m185.38,135.63c-.05,0-.1-.01-.15-.04-12.78-7.33-24.03-9.01-24.14-9.02-.17-.02-.29-.18-.26-.35.02-.17.18-.29.35-.26.11.02,11.46,1.71,24.36,9.1.15.08.2.27.11.42-.06.1-.16.16-.27.16Z"/>
                <path class="cls-32" d="m190.93,157.42c-.06,0-.12-.02-.17-.05-.14-.1-.18-.29-.08-.43,9.56-13.93,9.41-25.06,9.41-25.17,0-.17.13-.31.3-.32.2,0,.31.13.32.3,0,.11.16,11.42-9.52,25.53-.06.09-.16.13-.25.13Z"/>
                <path class="cls-32" d="m187.66,167.74s-.02,0-.03,0c-17.08-1.6-23.01-7.97-23.26-8.24-.11-.13-.1-.32.02-.44.13-.11.32-.1.44.02.06.06,6.05,6.46,22.86,8.04.17.02.29.17.28.34-.02.16-.15.28-.31.28Z"/>
                <path class="cls-32" d="m151.82,144.97s-.03,0-.04,0c-.17-.02-.29-.18-.26-.35.01-.1,1.53-10.21,8.15-17.99.11-.13.31-.14.43-.03.13.11.15.3.03.43-6.5,7.64-7.99,17.57-8.01,17.67-.02.15-.15.26-.3.26Z"/>
                <path class="cls-32" d="m155.22,166.06c-.15,0-.28-.1-.3-.25-.87-4.68,0-9.75,0-9.8.03-.17.19-.29.36-.25.17.03.28.19.25.36,0,.05-.85,5.02,0,9.59.03.17-.08.33-.25.36-.02,0-.04,0-.06,0Z"/>
                <path class="cls-32" d="m158.78,166.62c-.14,0-.27-.1-.3-.24-1.13-5.11-.58-10.52-.58-10.57.02-.17.17-.29.34-.27.17.02.29.17.27.34,0,.05-.54,5.36.57,10.38.04.17-.07.33-.23.37-.02,0-.04,0-.07,0Z"/>
              </g>
              <g>
                <path class="cls-27" d="m177.58,183.43c-17.37,0-31.5-14.13-31.5-31.5s14.13-31.5,31.5-31.5,31.5,14.13,31.5,31.5-14.13,31.5-31.5,31.5Zm0-61.15c-16.35,0-29.65,13.3-29.65,29.65s13.3,29.65,29.65,29.65,29.65-13.3,29.65-29.65-13.3-29.65-29.65-29.65Z"/>
                <path class="cls-27" d="m160.09,179.51c-.26,0-.52-.11-.7-.32-.33-.39-.29-.97.09-1.3,26.19-22.67,38.08-49.39,38.19-49.65.2-.47.75-.68,1.22-.48.47.2.68.75.48,1.22-.12.27-12.18,27.37-38.68,50.31-.17.15-.39.23-.6.23Z"/>
                <path class="cls-27" d="m194.75,179.53c-.46,0-.86-.34-.92-.81-4.24-35.29-16.93-57.87-17.06-58.09-.25-.44-.1-1.01.34-1.26.44-.25,1.01-.1,1.26.34.13.23,13,23.1,17.29,58.79.06.51-.3.97-.81,1.03-.04,0-.07,0-.11,0Z"/>
                <path class="cls-27" d="m147,156.98c-.5,0-.91-.39-.92-.89-.02-.51.38-.94.89-.96,32.66-1.14,58.46-14.84,58.72-14.98.45-.24,1.01-.07,1.25.38.24.45.07,1.01-.38,1.25-.26.14-26.42,14.05-59.53,15.2h-.03Z"/>
                <path class="cls-27" d="m175.19,183.43c-.28,0-.55-.12-.73-.36-16.51-21.26-14.39-57.91-14.36-58.27.03-.51.45-.91.98-.86.51.03.9.47.86.98-.02.36-2.09,36.32,13.98,57.02.31.4.24.98-.16,1.3-.17.13-.37.19-.57.19Z"/>
                <path class="cls-27" d="m175.95,172.68c-15.6,0-24.1-3.4-24.61-3.62-.47-.19-.7-.74-.5-1.21.19-.47.73-.7,1.21-.5.18.07,18.58,7.41,50.93.41.5-.1.99.21,1.1.71.11.5-.21.99-.71,1.1-10.72,2.32-19.9,3.11-27.42,3.11Z"/>
                <path class="cls-27" d="m147,148.44c-.28,0-.56-.13-.74-.37-.31-.41-.22-.99.19-1.29.2-.15,20.85-15.23,58.18-10.25.51.07.86.53.79,1.04-.07.51-.53.86-1.04.79-36.58-4.89-56.63,9.75-56.83,9.9-.17.12-.36.18-.55.18Z"/>
                <path class="cls-27" d="m154.08,174c-.23,0-.46-.09-.64-.26-.37-.36-.37-.94-.02-1.31,21.57-22.18,27.27-51.85,27.33-52.15.09-.5.59-.83,1.08-.74.5.09.83.58.74,1.08-.06.3-5.85,30.51-27.82,53.1-.18.19-.42.28-.66.28Z"/>
                <path class="cls-27" d="m157.54,175.95c-.23,0-.46-.09-.64-.26-.37-.35-.38-.94-.02-1.31,24.71-25.61,32.13-50.43,32.2-50.67.14-.49.66-.77,1.15-.63.49.14.77.65.63,1.14-.07.25-7.6,25.49-32.64,51.44-.18.19-.42.28-.66.28Z"/>
                <path class="cls-27" d="m175.82,169.08c-9.11,0-18.94-.9-27.27-3.76-.48-.17-.74-.69-.57-1.17s.69-.74,1.17-.58c22.15,7.59,55.34,1.06,55.67.99.5-.1.99.22,1.09.72.1.5-.22.99-.72,1.09-.21.04-13.73,2.7-29.36,2.7Z"/>
                <path class="cls-27" d="m146.38,154.52c-.46,0-.86-.34-.92-.81-.06-.51.29-.97.8-1.03.39-.05,38.74-5,58.31-15.1.45-.24,1.01-.06,1.24.4.23.45.06,1.01-.4,1.24-19.86,10.25-58.53,15.24-58.92,15.29-.04,0-.08,0-.12,0Z"/>
                <path class="cls-27" d="m181.66,183.43c-.29,0-.57-.13-.75-.38-18.62-25.52-16.53-59.56-16.5-59.9.03-.51.48-.89.98-.86.51.03.89.48.86.98-.02.33-2.06,33.72,16.15,58.68.3.41.21.99-.2,1.29-.16.12-.36.18-.54.18Z"/>
                <path class="cls-27" d="m187.9,181.65c-.2,0-.4-.06-.57-.2-.4-.32-.47-.9-.16-1.3,15.92-20.24,5.33-53.84,5.22-54.17-.16-.49.11-1.01.6-1.16.48-.15,1.01.11,1.16.6.46,1.41,10.99,34.88-5.53,55.89-.18.23-.45.35-.73.35Z"/>
                <path class="cls-27" d="m148.37,161.94c-.11,0-.21-.02-.32-.06-.48-.17-.73-.71-.55-1.19.44-1.2,10.92-29.65,26.38-40.53.42-.29.99-.19,1.29.22.29.42.19.99-.22,1.29-14.99,10.55-25.6,39.36-25.71,39.65-.14.38-.49.61-.87.61Z"/>
                <path class="cls-27" d="m208.15,161.37s-.06,0-.09,0c-38.12-3.55-56.91-26.08-57.09-26.31-.32-.4-.26-.98.13-1.3.39-.32.98-.26,1.3.13.18.22,18.52,22.16,55.83,25.64.51.05.88.5.84,1.01-.04.48-.45.84-.92.84Z"/>
                <path class="cls-27" d="m209.08,152.87s-.04,0-.06,0c-41.08-2.66-55.09-20.67-55.67-21.43-.31-.41-.23-.99.18-1.29.41-.31.99-.23,1.29.18.14.18,14.17,18.1,54.31,20.7.51.03.9.47.86.98-.03.49-.44.86-.92.86Z"/>
                <g class="cls-12">
                  <path class="cls-27" d="m177.58,182.45c-17.03,0-30.88-13.86-30.88-30.88s13.86-30.88,30.88-30.88,30.88,13.86,30.88,30.88-13.86,30.88-30.88,30.88Zm0-61.15c-16.69,0-30.27,13.58-30.27,30.27s13.58,30.27,30.27,30.27,30.27-13.58,30.27-30.27-13.58-30.27-30.27-30.27Z"/>
                  <path class="cls-27" d="m159.63,178.9c-.09,0-.17-.04-.23-.11-.11-.13-.1-.32.03-.44,26.29-22.76,38.7-49.97,38.82-50.25.07-.16.25-.22.41-.16.16.07.22.25.16.41-.12.27-12.58,27.61-38.98,50.46-.06.05-.13.07-.2.07Z"/>
                  <path class="cls-27" d="m195.21,178.91c-.15,0-.29-.11-.31-.27-4.26-35.44-17.47-58.68-17.6-58.91-.08-.15-.03-.34.11-.42.15-.08.34-.03.42.11.13.23,13.4,23.57,17.68,59.14.02.17-.1.32-.27.34-.01,0-.03,0-.04,0Z"/>
                  <path class="cls-27" d="m147,156c-.17,0-.3-.13-.31-.3,0-.17.13-.31.3-.32,32.81-1.15,58.73-14.92,58.99-15.05.15-.08.34-.03.42.13.08.15.03.34-.13.42-.26.14-26.3,13.98-59.26,15.13h-.01Z"/>
                  <path class="cls-27" d="m175.19,182.45c-.09,0-.18-.04-.24-.12-16.36-21.08-14.26-57.49-14.24-57.86.01-.17.14-.32.33-.29.17,0,.3.16.29.33-.02.36-2.11,36.55,14.11,57.44.1.13.08.33-.05.43-.06.04-.12.07-.19.07Z"/>
                  <path class="cls-27" d="m176.17,171.65c-15.81,0-24.48-3.47-24.6-3.52-.16-.06-.23-.25-.17-.4.07-.16.25-.23.4-.17.18.08,18.72,7.49,51.29.44.16-.03.33.07.37.24.04.17-.07.33-.24.37-10.52,2.28-19.59,3.05-27.06,3.05Z"/>
                  <path class="cls-27" d="m147,147.45c-.09,0-.19-.04-.25-.12-.1-.14-.07-.33.06-.43.2-.15,20.65-15.09,57.73-10.13.17.02.29.18.26.35-.02.17-.17.28-.35.26-36.84-4.92-57.08,9.87-57.28,10.02-.06.04-.12.06-.18.06Z"/>
                  <path class="cls-27" d="m153.57,173.39c-.08,0-.15-.03-.21-.09-.12-.12-.12-.31,0-.44,21.71-22.33,27.94-52.54,28-52.84.03-.17.19-.27.36-.24.17.03.28.19.24.36-.06.3-6.33,30.69-28.17,53.15-.06.06-.14.09-.22.09Z"/>
                  <path class="cls-27" d="m157.54,174.97c-.08,0-.15-.03-.21-.09-.12-.12-.13-.31,0-.44,24.83-25.73,32.27-50.68,32.35-50.93.05-.16.23-.26.38-.21.16.05.26.22.21.38-.07.25-7.56,25.34-32.49,51.19-.06.06-.14.09-.22.09Z"/>
                  <path class="cls-27" d="m175.49,168.09c-9.13,0-18.96-.9-27.22-3.73-.16-.06-.25-.23-.19-.39.05-.16.23-.25.39-.19,22.3,7.64,56.13,1.08,56.47,1.01.17-.03.33.07.36.24.03.17-.08.33-.24.36-.22.04-13.88,2.69-29.57,2.69Z"/>
                  <path class="cls-27" d="m146.38,153.54c-.15,0-.29-.11-.31-.27-.02-.17.1-.32.27-.34.39-.05,38.84-5.02,58.51-15.16.15-.08.34-.02.41.13.08.15.02.34-.13.41-19.77,10.2-58.33,15.18-58.72,15.23-.01,0-.03,0-.04,0Z"/>
                  <path class="cls-27" d="m181.66,182.45c-.1,0-.19-.04-.25-.13-18.49-25.34-16.41-59.16-16.39-59.49.01-.17.16-.32.33-.29.17.01.3.16.29.33-.02.34-2.09,33.93,16.27,59.09.1.14.07.33-.07.43-.06.04-.12.06-.18.06Z"/>
                  <path class="cls-27" d="m187.9,180.66c-.07,0-.13-.02-.19-.07-.13-.1-.16-.3-.05-.43,16.12-20.5,5.43-54.41,5.32-54.75-.05-.16.04-.34.2-.39.16-.05.34.04.39.2.11.34,10.89,34.57-5.43,55.32-.06.08-.15.12-.24.12Z"/>
                  <path class="cls-27" d="m148.37,160.95s-.07,0-.11-.02c-.16-.06-.24-.24-.18-.4.11-.29,10.85-29.46,26.16-40.24.14-.1.33-.07.43.07.1.14.06.33-.07.43-15.15,10.66-25.83,39.65-25.94,39.95-.05.13-.16.2-.29.2Z"/>
                  <path class="cls-27" d="m208.51,160.38s-.02,0-.03,0c-37.86-3.53-57.12-25.88-57.31-26.1-.11-.13-.09-.32.04-.43.13-.11.33-.09.43.04.19.22,19.3,22.38,56.9,25.89.17.02.29.17.28.34-.01.16-.15.28-.31.28Z"/>
                  <path class="cls-27" d="m209.38,151.88s-.01,0-.02,0c-40.79-2.65-55.64-21.24-55.78-21.43-.1-.13-.08-.33.06-.43.13-.1.33-.08.43.05.14.19,14.84,18.57,55.33,21.19.17.01.3.16.29.33,0,.16-.15.29-.31.29Z"/>
                </g>
              </g>
              <g>
                <path class="cls-32" d="m189.96,182.33c-.32,0-.64-.17-.81-.47-15.99-28.62-20.84-60.05-20.89-60.36-.08-.51.27-.98.78-1.05.5-.08.98.27,1.05.78.05.31,4.85,31.42,20.67,59.73.25.45.09,1.01-.36,1.26-.14.08-.3.12-.45.12Z"/>
                <path class="cls-32" d="m197.42,177.45c-.29,0-.57-.13-.75-.38-17.72-24.3-25.04-55.63-25.11-55.94-.11-.5.2-.99.69-1.11.5-.11.99.2,1.11.69.07.31,7.31,31.28,24.8,55.27.3.41.21.99-.2,1.29-.16.12-.35.18-.54.18Z"/>
                <path class="cls-32" d="m169.18,182.91c-.38,0-.74-.24-.87-.62-.17-.48.09-1.01.57-1.18.29-.1,29.09-10.42,38.79-33.2.2-.47.74-.68,1.21-.49.47.2.69.74.49,1.21-10.02,23.55-39.58,34.12-39.88,34.22-.1.03-.2.05-.31.05Z"/>
                <path class="cls-32" d="m157.54,176.75c-.44,0-.83-.32-.91-.77-.08-.5.26-.98.76-1.06,33.45-5.6,49.35-31.96,49.51-32.23.26-.44.82-.59,1.26-.33.44.26.59.83.33,1.26-.16.27-16.5,27.37-50.79,33.11-.05,0-.1.01-.15.01Z"/>
                <path class="cls-32" d="m148.85,164c-.15,0-.3-.03-.43-.11-.45-.24-.62-.8-.38-1.25.28-.53,7.37-13.24,46.97-36.72.44-.26,1.01-.12,1.27.32.26.44.12,1.01-.32,1.27-39.15,23.21-46.21,35.87-46.28,36-.17.31-.49.49-.82.49Z"/>
                <path class="cls-32" d="m146.38,157.73c-.19,0-.38-.06-.54-.18-.41-.3-.5-.88-.21-1.29.16-.22,16.1-21.87,45.19-33.16.47-.18,1.01.05,1.2.53.18.48-.05,1.01-.53,1.2-28.55,11.08-44.21,32.31-44.36,32.52-.18.25-.46.38-.75.38Z"/>
              </g>
              <g class="cls-11">
                <path class="cls-32" d="m189.77,182.29c-.11,0-.21-.06-.27-.16-15.94-28.52-20.78-60.84-20.83-61.17-.02-.17.09-.32.26-.35.16-.03.32.09.35.26.05.32,4.88,32.53,20.76,60.95.08.15.03.34-.12.42-.05.03-.1.04-.15.04Z"/>
                <path class="cls-32" d="m197.42,177.19c-.1,0-.19-.04-.25-.13-17.64-24.2-25.24-56.22-25.31-56.54-.04-.17.06-.33.23-.37.17-.04.33.07.37.23.07.32,7.64,32.22,25.21,56.32.1.14.07.33-.07.43-.06.04-.12.06-.18.06Z"/>
                <path class="cls-32" d="m168.54,182.07c-.13,0-.25-.08-.29-.21-.06-.16.03-.34.19-.39.3-.1,29.63-10.72,39.43-33.77.07-.16.25-.23.4-.16.16.07.23.25.16.4-9.91,23.3-39.5,34.01-39.79,34.11-.03.01-.07.02-.1.02Z"/>
                <path class="cls-32" d="m157.06,175.91c-.15,0-.28-.11-.3-.26-.03-.17.09-.33.25-.35,33.72-5.65,50.25-32.55,50.42-32.82.09-.15.28-.19.42-.1.15.09.19.28.1.42-.16.27-16.83,27.42-50.84,33.11-.02,0-.03,0-.05,0Z"/>
                <path class="cls-32" d="m148.37,163.38c-.05,0-.1-.01-.15-.04-.15-.08-.2-.27-.12-.42.07-.13,7.77-13.54,47.21-36.93.14-.09.33-.04.42.11.09.15.04.34-.11.42-39.3,23.3-46.91,36.57-46.99,36.7-.06.1-.16.16-.27.16Z"/>
                <path class="cls-32" d="m145.92,157.12c-.06,0-.13-.02-.18-.06-.14-.1-.17-.29-.07-.43.16-.22,16.46-22.15,45.37-33.38.16-.06.34.02.4.18.06.16-.02.34-.18.4-28.75,11.16-44.94,32.95-45.1,33.17-.06.08-.15.13-.25.13Z"/>
              </g>
            </g>
            <g>
              <path class="cls-3" d="m127.55,165.67l1.91-104.28s-.32-17.07-21.02-16.79c-20.61.28-20.45.28-41.44.56-20.9.28-21.03,17.2-21.03,17.2l2.1,103.34s-.03.06-.03.08c.02,1.2,17.74,4.61,39.6,4.61s39.91-3.43,39.94-4.65c0-.03-.02-.05-.03-.08Z"/>
              <path class="cls-1" d="m126.94,165.54l1.72-77.22.42-19.33.1-4.83.05-2.42c.03-.78-.1-1.57-.23-2.36-.58-3.13-1.94-6.14-4.05-8.53-2.1-2.41-4.96-4.08-8.01-4.99-3.07-.93-6.3-1.16-9.51-1.07l-19.33.27-19.33.27c-3.21.02-6.44.18-9.52,1.09-3.06.87-5.97,2.42-8.19,4.71-2.22,2.28-3.73,5.22-4.43,8.32-.17.77-.31,1.56-.37,2.35-.07.75.01,1.6.01,2.39l.11,4.83.46,19.33,1.84,77.32c0,.07-.01.13-.03.19l-.05.12h0s0,0,0,0c.02-.03.05-.14.05-.2,0-.03-.03-.25-.01-.14v.02s.02.05,0-.01c-.08-.21-.1-.16-.09-.17.03.02.08.06.16.1.15.08.32.15.51.22.37.14.76.25,1.15.36.79.22,1.6.4,2.42.58,1.63.34,3.28.63,4.93.88,3.31.51,6.64.9,9.98,1.22,6.68.62,13.39.93,20.1.92,6.71,0,13.42-.32,20.1-.95,3.34-.32,6.67-.71,9.98-1.22,1.65-.26,3.3-.54,4.93-.89.81-.17,1.63-.36,2.42-.58.39-.11.79-.23,1.15-.36.18-.07.36-.14.51-.22,0,0,.02-.01.03-.02Zm1.22,0s.02.06.02.05c-.01-.13.02.19.01.2l-.02.1c-.01.06-.04.14-.06.18-.09.17-.18.25-.26.32-.14.11-.26.18-.38.24-.23.12-.44.2-.65.28-.42.16-.84.28-1.25.4-.83.23-1.66.42-2.49.6-1.66.35-3.33.64-5,.9-3.34.52-6.69.91-10.05,1.23-6.72.63-13.47.95-20.22.96-6.75,0-13.5-.3-20.22-.93-3.36-.32-6.71-.71-10.06-1.22-1.67-.26-3.34-.55-5-.9-.83-.18-1.66-.37-2.49-.59-.42-.12-.83-.24-1.25-.39-.21-.08-.42-.16-.65-.28-.11-.06-.24-.13-.37-.24-.07-.08-.16-.1-.29-.4-.03-.08-.02-.07-.03-.09v-.02c0,.09-.03-.13-.02-.18,0-.09.04-.23.07-.28l.04-.07h0s-.08.31-.08.31l-1.31-77.34-.33-19.33-.08-4.83c0-.82-.07-1.59,0-2.44.07-.82.21-1.62.4-2.42.74-3.18,2.3-6.18,4.6-8.5,2.28-2.35,5.26-3.94,8.38-4.82,3.13-.93,6.41-1.09,9.63-1.1l19.33-.26,19.33-.26c3.22-.09,6.51.14,9.62,1.09,3.11.92,6.03,2.64,8.19,5.1,2.18,2.44,3.58,5.51,4.2,8.7.14.8.28,1.61.25,2.44l-.04,2.42-.07,4.83-.29,19.33-1.12,77.21Z"/>
              <path class="cls-2" d="m112.07,44.86c0,.79-11.02,2.72-24.55,2.9-13.49.18-24.42-1.45-24.43-2.24l48.98-.66Z"/>
              <path class="cls-35" d="m112.28,24.41c0,.81-11.13,2.8-24.78,3.01-13.62.21-24.65-1.43-24.66-2.23,0-.8,11-2.89,24.65-3.11,13.69-.22,24.8,1.52,24.79,2.33Z"/>
              <path class="cls-31" d="m109.88,28.47l2.42-4.06h-.02c0,.81-11.13,2.8-24.78,3.01-13.62.21-24.65-1.43-24.66-2.23l2.71,3.96.14,12.2-2.47,3.09c-.09.06-.13.12-.13.17,0,.79,10.94,2.42,24.44,2.24,13.54-.18,24.56-2.11,24.56-2.91l-2.31-3.2.11-12.26Z"/>
              <path class="cls-3" d="m124.76,163.28l1.69-99.75s-.32-16.29-19.51-16.03c-19.12.25-18.97.25-38.46.51-19.4.26-19.54,16.41-19.54,16.41l1.88,98.91s-.03.05-.03.08c.02,1.16,16.51,4.41,36.86,4.41,20.44,0,37.13-3.3,37.15-4.46,0-.03-.02-.05-.03-.08Z"/>
              <path class="cls-34" d="m125.27,76.51c-.02,1.2-16.96,4.06-37.72,4.26-20.67.2-37.4-2.31-37.42-3.5-.02-1.19,16.67-4.19,37.41-4.41,20.84-.22,37.75,2.45,37.73,3.65Z"/>
              <polygon class="cls-25" points="49.96 77.27 51.22 76.98 51.93 77.67 52.36 78.18 53.26 77.84 54.42 77.94 54.88 77.55 55.86 77.71 55.88 78.48 56.86 78.68 58.12 78.46 59.53 78.65 59.88 78.06 61.38 78.43 61.82 79.29 62.44 78.86 63.23 78.85 64.34 79.58 65.12 78.95 66.18 78.94 67.68 79.55 69.49 79.22 71.18 79 71.98 79.78 73.2 79.77 73.47 79.14 75.32 79.08 75.92 79.74 77.46 80.35 78.6 79.95 79.46 79.59 81.04 79.73 82.07 80.5 82.46 80.1 83.77 79.86 84.64 80.47 85.46 79.88 86.89 79.4 89.37 80.04 90.32 80.42 91.63 79.74 92.42 79.38 93.25 79.69 93.8 80.15 95.31 79.31 96.61 79.22 96.42 78.79 97.57 78.82 98.43 79.56 99.58 79.19 101.53 79.29 102.63 79.83 103.79 79.23 105.49 79.13 106.8 79.4 107.64 78.68 107.24 78.33 108.16 77.96 109.98 78.31 110.57 78.93 111.89 78.56 113.64 78.66 115.12 77.89 116.43 77.69 117.14 78.04 119.1 77.19 120.93 77.29 122.49 77.08 122.98 76.41 124.54 76.23 125.45 76.44 125.33 83.25 50.09 83.96 49.96 77.27"/>
              <path class="cls-7" d="m109.88,28.47l2.42-4.06h-.02c0,.81-11.13,2.8-24.78,3.01-13.62.21-24.65-1.43-24.66-2.23l2.71,3.96.14,12.2-2.47,3.09c-.09.06-.13.12-.13.17,0,.79,10.94,2.42,24.44,2.24,13.54-.18,24.56-2.11,24.56-2.91l-2.31-3.2.11-12.26Z"/>
              <path class="cls-31" d="m66.68,29.41l.13,12.2s11.41,3.72,29.23,1.21l.03-12.22s-14.55,1.85-29.4-1.19Z"/>
              <path class="cls-31" d="m95.49,26.9c-13.64.21-24.69-1.43-24.7-2.23,0-.56,5.39-1.75,13.31-2.49-12.03.47-21.27,2.27-21.26,3.01,0,.8,11.04,2.44,24.66,2.23,4.26-.07,8.28-.31,11.79-.63-1.24.05-2.5.09-3.79.11Z"/>
              <g>
                <path class="cls-31" d="m98.95,30.45l-.05,12.59c.22-.03.43-.06.64-.09l.06-12.58c-.22.03-.43.05-.65.08Z"/>
                <path class="cls-31" d="m102.62,29.95l-.07,12.54c.23-.04.43-.08.64-.12l.08-12.52c-.22.04-.43.07-.65.1Z"/>
                <path class="cls-31" d="m106.3,29.3l-.09,12.42c.23-.06.45-.11.64-.16l.1-12.39c-.22.05-.43.09-.65.13Z"/>
              </g>
              <path class="cls-29" d="m112.07,24.21c-1.52.84-11.95,2.22-24.58,2.42-12.59.2-22.95-.85-24.45-1.64-.12.07-.2.14-.2.2,0,.8,11.04,2.44,24.66,2.23,13.66-.21,24.78-2.2,24.78-3.01,0-.06-.08-.13-.21-.2Z"/>
              <path class="cls-29" d="m111.88,43.74c-1.51.83-11.85,2.16-24.36,2.33-12.48.17-22.75-.88-24.24-1.66-.12.07-.2.14-.2.2,0,.79,10.94,2.42,24.44,2.24,13.54-.18,24.56-2.11,24.56-2.91,0-.06-.08-.13-.2-.2Z"/>
              <path class="cls-28" d="m125.45,76.44l-75.49.76,1.59,85.08s-.03.05-.03.08c.02,1.13,16.19,4.33,36.13,4.32,20.03,0,36.39-3.24,36.41-4.38,0-.02-.02-.05-.03-.08l1.42-85.78Z"/>
              <polygon class="cls-28" points="49.96 77.27 51.33 73.24 54.69 73.2 56.34 71.5 59.08 71.47 57.69 70.23 60.41 68.84 61.68 69.56 62.83 68.81 65.04 68.78 67.07 71.07 69.68 68.73 74.22 68.68 76.66 69.92 76.01 67.19 78.96 66.52 82.35 67.54 82.36 69.44 84.9 68.14 89.24 68.41 89.88 65.77 92.63 65.74 94.44 67.83 96.56 66.64 98.79 67.25 99.52 70.2 100.9 69.13 104.62 69.09 106.74 70.22 106.76 68.11 109.52 68.61 111.86 67.32 115.05 68.87 114.38 71.07 117.05 71.04 118.73 72.53 119.67 73.67 121.82 72.49 124.47 73.09 125.27 76.51 49.96 77.27"/>
              <path class="cls-24" d="m49.96,77.27l1.86-1.98,2.23-.38,1.11.73.97-.75-.8-.93,1.64-1,4.6,2.07.41-1.69,2.24-.46,1.31.58.78-1.27,1.86-.02,1.79,1.12.7-1.15.7-1.66,2.57.41v1.42s3.69.87,3.69.87l.28,1.45,2.57.64,1.23,1.28,1.02-2.52-1.99-1.59,2.49-1.29,3.33,1.72.9-.94,1.76.26.24,1.61,1.59-.53,1.39.73.55,1.33,2.07-1.81-1.62-1.15,3.14-.74,1.27,1.29,1.71-.69,1.15.48,2.1,1.57,2.12-1.32,2.51.17,1.15.89,1.76-.45,1.5.85.82,1.05,1.41-1.43,2.44-.58,1.54,1.29.28-.4,1.19.26v.63s1.55-.29,1.55-.29l1.54.89.02-1.02,1.4-.05,1.45,1.66s-66.46,3.64-75.49.83Z"/>
              <g>
                <polygon class="cls-24" points="110.23 93.76 107.38 95.02 107.99 98.21 111.04 96.85 110.23 93.76"/>
                <polygon class="cls-24" points="74.48 90.66 73.46 92.83 76.39 94.04 77.11 92.34 74.48 90.66"/>
                <polygon class="cls-24" points="66.08 113.66 64.38 118.3 68.21 120.28 70.25 117.76 66.08 113.66"/>
                <polygon class="cls-24" points="93.93 110.55 92.99 112.99 96.52 114.08 97.67 112.3 93.93 110.55"/>
                <polygon class="cls-24" points="113.01 109.34 112.55 113.37 115.79 112.19 116.24 109.9 113.01 109.34"/>
                <polygon class="cls-24" points="81.16 136.63 78.21 140.29 81.91 143.42 85.06 140.02 81.16 136.63"/>
                <polygon class="cls-24" points="101.69 136.56 100.64 139.97 104.65 139.96 105.49 137.83 101.69 136.56"/>
                <polygon class="cls-24" points="117.07 126.34 116.01 128.25 118.26 130.73 119.83 129.03 117.07 126.34"/>
                <polygon class="cls-24" points="59.71 150.8 57.61 152.75 58.71 155.27 61.98 154 59.71 150.8"/>
                <polygon class="cls-24" points="57.47 96.96 55.53 99.13 58.16 101.76 59.59 100.01 57.47 96.96"/>
                <polygon class="cls-24" points="100.97 155.2 100.05 156.95 102.28 157.62 102.95 156.41 100.97 155.2"/>
                <polygon class="cls-24" points="116.45 150.19 115.1 151.96 117.58 154 119.5 152.09 116.45 150.19"/>
                <polygon class="cls-24" points="77.5 157.66 74.37 158.34 73.98 160.65 76.81 160.65 77.5 157.66"/>
              </g>
              <g class="cls-6">
                <polygon class="cls-28" points="69.78 101.67 68.87 104.12 72.41 105.22 73.54 103.43 69.78 101.67"/>
                <polygon class="cls-28" points="99.07 87.39 96.86 89.59 99.06 90.45 100.91 88.91 99.07 87.39"/>
                <polygon class="cls-28" points="98.74 122.65 101.7 120.9 104.2 122.62 101.46 125.26 98.74 122.65"/>
                <polygon class="cls-28" points="118.32 98.9 120.31 95.9 122.81 97.37 120.54 100.22 118.32 98.9"/>
                <polygon class="cls-28" points="60.65 138.41 61.73 135.57 65.2 135.56 65.26 140.73 60.65 138.41"/>
                <polygon class="cls-28" points="90.84 160.64 91.91 157.64 94.04 159.13 94.03 161.55 90.84 160.64"/>
                <polygon class="cls-28" points="114.03 142.34 115.86 139.92 118.89 141.12 117.72 143.32 114.03 142.34"/>
                <polygon class="cls-28" points="54.54 83.14 56.52 82.5 58.82 86.21 55.35 87.79 54.54 83.14"/>
              </g>
            </g>
            <g>
              <path class="cls-1" d="m158.4,64.24s0,.01-.02.04c0,.03-.13.18-.17.19-.12.09-.28.17-.49.27-.42.19-1.04.42-1.85.66-1.6.48-3.93,1.02-6.75,1.34-2.81.34-6.11.54-9.63.38-1.75-.08-3.56-.25-5.38-.5-.91-.13-1.82-.29-2.73-.48-.91-.22-1.81-.35-2.71-.84-.04-.04-.06-.03-.1-.12-.01-.05-.04-.05-.02-.15,0-.02,0-.02.02-.04.09-.14.17-.15.22-.19.12-.06.23-.1.35-.14.23-.08.46-.14.68-.2.46-.11.92-.21,1.37-.29.92-.17,1.84-.31,2.75-.43,1.83-.24,3.64-.42,5.39-.54,3.51-.23,6.8-.3,9.63-.24,2.82.06,5.17.25,6.81.46.82.11,1.46.22,1.9.33.22.06.38.11.51.18.06.03.12.08.16.13.05.09.05.14.05.14v.06Zm-.36-.05s-.01.02.01.06c0,0,0,0-.04-.02-.07-.04-.22-.1-.43-.15-.41-.11-1.04-.23-1.85-.35-1.62-.23-3.95-.46-6.77-.56-2.81-.11-6.1-.11-9.6.19-1.75.14-3.55.33-5.37.6-.91.14-1.82.29-2.73.48-.45.09-.91.19-1.35.31-.22.06-.44.12-.66.2-.11.04-.21.08-.3.13-.05.02-.08.07-.07.02,0,0-.01.02-.02.03,0-.08,0-.05,0-.07-.02-.03.01,0,.01,0,.73.37,1.71.54,2.59.73.9.17,1.81.31,2.71.42,1.81.22,3.6.35,5.34.4,3.48.11,6.75-.11,9.53-.48,2.79-.39,5.09-.84,6.69-1.23.8-.2,1.42-.38,1.82-.54.2-.08.35-.15.42-.19.06-.05,0,.03.02.01.01-.03.02-.04.02-.04v.06Z"/>
              <path class="cls-3" d="m160.09,179.2v-1.12s-.04-2.26-.04-2.26c0-.01,0-.03-.01-.04-.02-.04-.08-.06-.13-.04h0s-.01,0-.02,0c31.53-63.08-6.2-73.97-6.2-73.97l1.37-28.86.18-.04c.65-.13,1.28-.34,1.92-.52l2.29-.73-.08-.27c-.18-.57-.31-1.16-.43-1.74-.12-.59-.21-1.18-.29-1.77-.15-1.19-.26-2.39-.23-3.61,0,0,0,0,0,0v-.05s0-.05-.05-.14c-.04-.05-.1-.1-.16-.13-.12-.07-.29-.12-.51-.18-.44-.11-1.08-.22-1.9-.33-1.64-.21-3.98-.4-6.81-.46-2.82-.06-6.11,0-9.63.24-1.75.12-3.56.3-5.39.54-.91.12-1.83.26-2.75.43-.46.09-.92.18-1.37.29-.23.06-.46.12-.68.2-.11.04-.23.08-.35.14-.05.04-.13.05-.22.19-.01.02-.01.03-.02.04-.03.1,0,.1.01.15,0,.02.01.02.02.03.06,1.18-.02,2.35-.13,3.51-.13,1.23-.32,2.45-.67,3.66l-.09.3.35.11c1.27.4,2.52.67,3.8.93.02,0,.04,0,.07.01l2.03,28.78s-36.35,11.81-5.06,73.31c-.02.02-.03.04-.03.06h0s0,2.24,0,2.24v1.12s0,.28,0,.28v.14s.01.07,0,.04h0s0,.03,0,.03v.03s.06.08.09.11c.19.19.37.27.57.37.77.36,1.57.61,2.38.85.81.23,1.63.43,2.45.6,1.65.35,3.32.59,5,.77,1.68.17,3.37.26,5.07.27,1.69,0,3.39-.09,5.08-.27,1.69-.17,3.37-.42,5.03-.77.83-.18,1.66-.37,2.47-.61.81-.24,1.63-.49,2.4-.85.19-.1.38-.18.57-.37.02-.03.05-.05.07-.09.02-.04.04-.1.04-.14v-.14s0-.28,0-.28Z"/>
              <path class="cls-4" d="m158.22,64.19c0,.47-6.64,2.45-14.79,2.69-8.12.24-14.7-1.34-14.71-1.8,0-.46,6.55-1.77,14.69-2.02,8.17-.25,14.82.66,14.82,1.13Z"/>
              <path class="cls-1" d="m158.4,64.24s0,.01-.02.04c0,.03-.13.18-.17.19-.12.09-.28.17-.49.27-.42.19-1.04.42-1.85.66-1.6.48-3.93,1.02-6.75,1.34-2.81.34-6.11.54-9.63.38-1.75-.08-3.56-.25-5.38-.5-.91-.13-1.82-.29-2.73-.48-.91-.22-1.81-.35-2.71-.84-.04-.04-.06-.03-.1-.12-.01-.05-.04-.05-.02-.15,0-.02,0-.02.02-.04.09-.14.17-.15.22-.19.12-.06.23-.1.35-.14.23-.08.46-.14.68-.2.46-.11.92-.21,1.37-.29.92-.17,1.84-.31,2.75-.43,1.83-.24,3.64-.42,5.39-.54,3.51-.23,6.8-.3,9.63-.24,2.82.06,5.17.25,6.81.46.82.11,1.46.22,1.9.33.22.06.38.11.51.18.06.03.12.08.16.13.05.09.05.14.05.14v.06Zm-.36-.05s-.01.02.01.06c0,0,0,0-.04-.02-.07-.04-.22-.1-.43-.15-.41-.11-1.04-.23-1.85-.35-1.62-.23-3.95-.46-6.77-.56-2.81-.11-6.1-.11-9.6.19-1.75.14-3.55.33-5.37.6-.91.14-1.82.29-2.73.48-.45.09-.91.19-1.35.31-.22.06-.44.12-.66.2-.11.04-.21.08-.3.13-.05.02-.08.07-.07.02,0,0-.01.02-.02.03,0-.08,0-.05,0-.07-.02-.03.01,0,.01,0,.73.37,1.71.54,2.59.73.9.17,1.81.31,2.71.42,1.81.22,3.6.35,5.34.4,3.48.11,6.75-.11,9.53-.48,2.79-.39,5.09-.84,6.69-1.23.8-.2,1.42-.38,1.82-.54.2-.08.35-.15.42-.19.06-.05,0,.03.02.01.01-.03.02-.04.02-.04v.06Z"/>
              <path class="cls-1" d="m158.87,71.69s-.45.19-1.28.41c-.83.23-2,.55-3.44.84-1.43.29-3.1.61-4.91.84-.9.14-1.84.19-2.79.3-.95.09-1.92.11-2.88.16-1.92.03-3.86-.04-5.65-.14-1.8-.1-3.46-.3-4.89-.48-1.42-.18-2.6-.41-3.41-.59-.82-.17-1.26-.35-1.26-.35,0,0,.45.15,1.28.27.82.13,2.01.25,3.43.39,2.85.25,6.67.48,10.5.4.96-.04,1.91-.05,2.86-.13.94-.09,1.87-.14,2.77-.26.9-.12,1.77-.19,2.59-.33.82-.12,1.6-.22,2.32-.36,1.43-.24,2.63-.45,3.46-.64.84-.17,1.3-.33,1.3-.33Z"/>
              <path class="cls-15" d="m129.02,175.99s22.83-1.47,26.34-5.46c3.55-4.02,12.96-20.21,16.82-36.8,0,0,.58,9.57-5.23,25.45-1.95,5.34-4.05,11.12-7.09,16.63,0,0-2.32,2.57-14.98,2.59-10.37.02-13.28-1.06-15.86-2.41Z"/>
              <path class="cls-1" d="m159.73,179.65l.1-3.67c-4.52,2.04-12.37,2.67-17.35,2.49-3.8-.13-9.07-.73-12.62-2.12-.31-.12-.47-.14-.77-.29,0,.1.1,3.55.16,3.62,1.55,1.49,11.2,2.57,15.19,2.56,7.24,0,14.41-1.71,15.28-2.59Zm-.35-3.67c.18-.07.35-.16.53-.24h0s.11,0,.13.04c0,.01.01.03.01.04h0l.02,2.26v1.12s.02.28.02.28v.14s-.02.09-.04.13c-.02.03-.04.06-.07.09-.18.19-.37.27-.57.37-.78.37-1.59.62-2.4.85-.81.23-1.64.43-2.47.61-1.66.36-3.34.6-5.03.77-1.68.17-3.39.26-5.08.27-1.7,0-3.39-.09-5.07-.27-1.68-.17-3.35-.41-5-.77-.82-.18-1.64-.37-2.45-.6-.81-.24-1.61-.48-2.38-.85-.19-.1-.37-.18-.57-.37-.03-.03-.06-.07-.08-.11v-.03s-.02-.02-.02-.02h0s0-.06,0-.05v-.14s0-.28,0-.28v-1.12s0-2.24,0-2.24h0c0-.05.04-.09.1-.09.02,0,.03,0,.05.01.3.15.6.27.92.39.31.12.63.22.95.33.63.22,1.29.37,1.94.56l.99.22c.33.07.66.15.99.21l2.01.34h-.02s0,0,0,0h0s.02,0,.02,0l2.83.3.71.07.72.03,1.43.05,1.43.05c.48.03.95,0,1.43-.02l2.86-.11c.48,0,.95-.09,1.43-.13l1.43-.16c.48-.06.95-.09,1.42-.18l1.41-.24c.47-.07.93-.2,1.4-.29.47-.1.93-.21,1.39-.34.46-.13.92-.24,1.37-.4.46-.15.9-.3,1.33-.48Z"/>
              <g>
                <path class="cls-8" d="m145,48.29c0,.16-.32.3-.72.31-.4.01-.72-.1-.72-.26,0-.16.32-.3.72-.31.4-.01.72.1.72.26Z"/>
                <path class="cls-8" d="m147.76,46.71c0,.12-.25.23-.55.24-.31.01-.55-.08-.56-.2,0-.12.25-.23.55-.24.31-.01.55.08.56.2Z"/>
                <path class="cls-8" d="m140.94,47.66c0,.12-.25.23-.55.24-.3.01-.55-.08-.55-.2,0-.12.25-.23.55-.24.31-.01.55.08.55.2Z"/>
                <path class="cls-8" d="m151.08,47.31c0,.16-.32.3-.72.31-.4.01-.72-.1-.72-.26,0-.16.32-.3.72-.31.4-.01.72.1.72.26Z"/>
                <path class="cls-8" d="m137.27,48.27c0,.16-.32.3-.71.31-.39.01-.72-.1-.72-.26,0-.16.32-.3.71-.31.39-.01.72.1.72.26Z"/>
              </g>
              <path class="cls-36" d="m123.39,113.97l41.2-.73s15.81,15.24-5.48,59.93c-.57,1.2-1.74,2.1-3.15,2.43-10.62,2.45-22.94,1.21-25.55-.84-2.05-1.61-20.87-42.19-7.03-60.79Z"/>
              <path class="cls-26" d="m123.38,113.94s19,2.45,41.2-.73c0,0-4.05,3.02-19.72,3.69-17.08-.06-21.49-2.96-21.49-2.96Z"/>
              <path class="cls-22" d="m123.38,113.94s21.11-3.82,41.2-.73c0,0-18.69,5.54-41.2.73Z"/>
              <path class="cls-15" d="m134.69,79.56l1.81,22.89s-13.77,8.87-16.24,24.99c-2.16,14.15,5.76,28.64,5.76,28.64,0,0,12.33-3.88,18.16-18.33,8.45-20.96-2.79-35.17-2.79-35.17l-.18-21.9-6.52-1.13Z"/>
              <path class="cls-14" d="m134.26,107.79s-18.49,11.82-9.68,36.36c0,0,26.29-13.02,9.68-36.36Z"/>
              <path class="cls-22" d="m157.24,173.67c-2.02,1.63-17.33,3.76-25.68,1.74h0c5.05,2.21,22.86,2.11,26.44-.65,1.89-1.45,5.7-10.16,8.62-20.78-4.04,10.28-8.03,18.58-9.39,19.68Z"/>
              <path class="cls-15" d="m129.02,175.99s22.83-1.47,26.34-5.46c3.55-4.02,12.96-20.21,16.82-36.8,0,0,.58,9.57-5.23,25.45-1.95,5.34-4.05,11.12-7.09,16.63,0,0-2.74,2.24-14.98,2.59-10.37.3-13.28-1.06-15.86-2.41Z"/>
              <path class="cls-1" d="m159.76,175.72c.75-1.56,1.52-3.12,2.23-4.7.73-1.59,1.43-3.19,2.11-4.8,1.35-3.22,2.61-6.48,3.71-9.8.55-1.66,1.06-3.33,1.53-5.01.46-1.68.9-3.37,1.26-5.08.75-3.41,1.26-6.87,1.48-10.34.22-3.48.11-6.97-.42-10.41-.52-3.43-1.51-6.8-3.05-9.92-1.52-3.12-3.62-5.95-6.17-8.31-1.28-1.17-2.66-2.24-4.13-3.17-1.47-.92-3.03-1.73-4.66-2.27h0s-.12-.04-.12-.04v-.12s1.18-29.03,1.18-29.03l.44.37h0c-1.92.42-3.83.74-5.77,1-.97.13-1.94.24-2.91.32-.49.05-.97.09-1.46.1l-1.47.07c-.97,0-1.94.04-2.92,0-.98-.02-1.95-.07-2.93-.12-1.95-.13-3.88-.3-5.82-.56l.41-.38h0s1.86,28.97,1.86,28.97v.14s-.13.04-.13.04h0c-1.58.59-3.09,1.45-4.5,2.4-1.41.96-2.73,2.06-3.95,3.25-2.43,2.4-4.4,5.25-5.83,8.35-1.44,3.1-2.34,6.43-2.81,9.81-.49,3.39-.54,6.83-.31,10.25.26,3.42.78,6.82,1.54,10.17.37,1.68.8,3.34,1.27,4.99.47,1.65.99,3.29,1.54,4.92,2.22,6.51,4.99,12.83,8.06,18.99l-.05-.05h0c1.17.55,2.44.93,3.71,1.26,1.27.32,2.56.56,3.86.76,1.3.2,2.6.32,3.91.41,1.31.09,2.62.12,3.93.13l3.94-.19,1.96-.19c.65-.08,1.31-.11,1.95-.23l1.94-.31c.65-.12,1.28-.28,1.92-.41.64-.14,1.26-.36,1.89-.53.6-.22,1.21-.44,1.76-.73Zm.17.21c-.6.33-1.22.54-1.85.77-.64.18-1.26.4-1.91.53-.65.14-1.29.3-1.94.42l-1.95.31c-.65.12-1.31.15-1.97.23l-1.97.19-3.95.19c-1.32-.01-2.64-.05-3.95-.14-1.31-.1-2.63-.22-3.93-.42-1.3-.2-2.6-.44-3.88-.76-1.28-.34-2.54-.71-3.76-1.28h0s-.03-.02-.03-.02l-.02-.04c-.78-1.54-1.56-3.07-2.31-4.63-.75-1.55-1.48-3.12-2.17-4.7-1.4-3.15-2.67-6.37-3.79-9.63-.56-1.63-1.09-3.28-1.57-4.93-.48-1.66-.93-3.33-1.31-5.01-.78-3.37-1.33-6.79-1.61-10.24-.26-3.45-.23-6.94.25-10.37.49-3.43,1.43-6.82,2.91-9.97,1.47-3.15,3.5-6.04,5.98-8.48,1.24-1.22,2.6-2.31,4.06-3.26,1.46-.94,2.98-1.78,4.64-2.37h0s-.13.19-.13.19l-2.21-28.94h0s-.03-.44-.03-.44l.44.06c1.91.25,3.84.43,5.77.55.97.06,1.93.11,2.89.12.96.04,1.94,0,2.9,0,.95-.06,1.92-.07,2.88-.17.96-.08,1.92-.19,2.88-.31,1.91-.26,3.82-.58,5.7-.98h0l.47-.1-.03.47-1.58,29.01-.11-.16h0c1.7.54,3.27,1.33,4.78,2.24,1.51.92,2.93,1.97,4.23,3.17,2.6,2.38,4.75,5.25,6.32,8.42,1.58,3.16,2.6,6.58,3.15,10.06.55,3.48.62,7.02.39,10.53-.24,3.51-.77,6.99-1.54,10.41-.37,1.72-.81,3.41-1.29,5.1-.47,1.69-1,3.36-1.56,5.02-1.12,3.32-2.38,6.59-3.78,9.81-.69,1.61-1.41,3.2-2.17,4.79-.74,1.59-1.53,3.15-2.3,4.72l-.02.04-.03.02Z"/>
              <g>
                <g class="cls-9">
                  <path class="cls-23" d="m157.86,27.54c-.04,2.09-.12,4.15-.25,6.22-.64,10.34-1.54,20.62-2.89,30.89-.98,7.48-1.46,15.04-1.74,22.57-.23,6.49-1.16,12.91-1.72,19.38-.24,2.82-.57,5.64-.86,8.46-.65.13-1.31.24-1.97.33-.12.02-.24.04-.36.05.36-4.2.78-8.41,1.23-12.61,0-.11.02-.2.03-.31,1.5-14.01,1.96-28.07,3.18-42.09.89-10.22,1.96-20.46,2.44-30.71.06-1.35-.41-6.79,1.92-6.62.89.06.93.54,1.12,1.2.24.82-.12,2.38-.14,3.23Z"/>
                  <path class="cls-23" d="m141.06,115.54c-.23-.02-.45-.05-.68-.08-.57-.06-1.12-.15-1.69-.27-.52-3.53-1-7.06-1.45-10.6-1.8-14.08-4.66-27.96-6.75-41.98-1.51-10.15-2.85-20.36-4.77-30.45-.25-1.32-1.98-6.5.33-6.88.87-.15,1.03.32,1.37.91.42.74.43,2.34.61,3.18.44,2.03.84,4.06,1.2,6.1,1.79,10.21,3.3,20.42,4.38,30.71.79,7.5,2.08,14.97,3.56,22.36.66,3.3,1.14,6.61,1.58,9.93.42,3.1.8,6.22,1.26,9.32.39,2.57.71,5.15,1.04,7.73Z"/>
                  <path class="cls-23" d="m145.95,115.65c-.77.05-1.54.06-2.3.05-.14-3.54-.24-7.09-.32-10.63-.29-14.19-1.65-28.3-2.23-42.46-.42-10.25-.67-20.55-1.5-30.78-.11-1.34-1.28-6.68,1.06-6.81.89-.05.99.42,1.26,1.04.34.78.18,2.38.27,3.22.23,2.07.4,4.12.55,6.2.69,10.34,1.1,20.65,1.08,31-.02,7.54.47,15.11,1.16,22.61.6,6.47.49,12.96.77,19.45.1,2.36.15,4.73.19,7.1Z"/>
                </g>
                <g class="cls-9">
                  <path class="cls-41" d="m153.62,27.54c-.02,2.09-.09,4.15-.18,6.22-.44,10.34-1.07,20.62-2,30.89-.67,7.48-1.01,15.04-1.2,22.57-.13,5.12-.56,10.21-.92,15.31-.1,1.36-.19,2.72-.27,4.07-.18,2.93-.4,5.86-.62,8.79-.12.02-.24.04-.36.05-.41.06-.82.11-1.23.14.26-4.25.54-8.5.86-12.75,1.06-14.11,1.37-28.27,2.22-42.4.62-10.22,1.36-20.46,1.69-30.71.05-1.35-.28-6.79,1.33-6.62.61.06.65.54.78,1.2.16.82-.09,2.38-.1,3.23Z"/>
                  <path class="cls-41" d="m142,115.63c-.32-.02-.63-.05-.94-.08-.23-.02-.45-.05-.68-.08-.37-3.62-.71-7.24-1.03-10.86-.18-2.04-.38-4.07-.59-6.11-1.22-11.99-2.84-23.88-4.08-35.87-1.04-10.15-1.97-20.36-3.3-30.45-.18-1.32-1.37-6.5.23-6.88.61-.15.71.32.95.91.29.74.3,2.34.43,3.18.31,2.03.58,4.06.83,6.1,1.24,10.21,2.28,20.42,3.03,30.71.55,7.5,1.44,14.97,2.47,22.36.88,6.37,1.29,12.83,1.96,19.25.27,2.59.49,5.21.73,7.82Z"/>
                </g>
              </g>
              <path class="cls-10" d="m130.2,67.03l-.23,4.34s7.71.1,13.92-.92l.45-2.31s-9.7.12-14.13-1.11Z"/>
              <path class="cls-5" d="m157.81,64.59l1.06,6.66-3.8,1.51-1.38,29.02s16.09,5.23,18.27,26.43c2.11,20.49-12.11,47.61-12.11,47.61l-.03,4.02s-6.63,3.19-17.37,2.62c0,0,9.21-.86,9.44-2.63.04-.3-16.67.62-22.88-3.83,0,0-2.74-5.53-3.55-7.66,42.65-7.45,40.64-55.28,18.85-66.19l-.69-24.64s-7.85-.81-11.76-3.78c4.29.6,8.79.79,14.59.27l-.45-7.14s3.51-.17,11.81-2.25Z"/>
              <path class="cls-1" d="m159.36,71.35c-.18-.57-.31-1.16-.43-1.74-.12-.59-.21-1.18-.29-1.77-.15-1.19-.26-2.39-.23-3.61-.04.05-.08.09-.1.1-.12.09-.28.17-.49.27-.07.03-.16.07-.24.1h.11c.29,1.05.49,2.12.64,3.2.08.59.15,1.19.19,1.79.03.48.05.96.05,1.45l-1.6.47c-.63.18-1.25.39-1.89.52l-1.91.44c-.63.16-1.28.25-1.92.37-.64.11-1.28.24-1.92.32l-1.93.23c-.64.09-1.29.12-1.93.17-.64.04-1.29.11-1.93.11l-1.93.05-1.93-.04c-.64,0-1.28-.07-1.92-.1-.64-.03-1.28-.11-1.92-.17-.64-.05-1.27-.15-1.91-.24-.64-.08-1.26-.21-1.89-.31-1.16-.23-2.33-.49-3.45-.83-.06-1.13.02-2.25.14-3.37.13-1.09.31-2.17.58-3.25-.23-.08-.46-.18-.69-.3.06,1.19-.02,2.36-.13,3.53-.13,1.23-.32,2.45-.67,3.66l-.09.3.35.11c1.27.4,2.52.67,3.8.93.64.1,1.28.24,1.92.32.64.09,1.29.19,1.94.24.65.06,1.29.14,1.94.17.65.03,1.3.1,1.95.1l1.96.04,1.96-.05c.65,0,1.31-.07,1.96-.11.65-.05,1.31-.08,1.96-.17l1.96-.24c.65-.08,1.3-.22,1.95-.32.65-.12,1.3-.21,1.94-.37l1.93-.45c.65-.13,1.28-.34,1.92-.52l2.29-.73-.08-.27Z"/>
              <path class="cls-1" d="m158.4,64.24s0,.01-.02.04c0,.03-.13.18-.17.19-.12.09-.28.17-.49.27-.42.19-1.04.42-1.85.66-1.6.48-3.93,1.02-6.75,1.34-2.81.34-6.11.54-9.63.38-1.75-.08-3.56-.25-5.38-.5-.91-.13-1.82-.29-2.73-.48-.91-.22-1.81-.35-2.71-.84-.04-.04-.06-.03-.1-.12-.01-.05-.04-.05-.02-.15,0-.02,0-.02.02-.04.09-.14.17-.15.22-.19.12-.06.23-.1.35-.14.23-.08.46-.14.68-.2.46-.11.92-.21,1.37-.29.92-.17,1.84-.31,2.75-.43,1.83-.24,3.64-.42,5.39-.54,3.51-.23,6.8-.3,9.63-.24,2.82.06,5.17.25,6.81.46.82.11,1.46.22,1.9.33.22.06.38.11.51.18.06.03.12.08.16.13.05.09.05.14.05.14v.06Zm-.36-.05s-.01.02.01.06c0,0,0,0-.04-.02-.07-.04-.22-.1-.43-.15-.41-.11-1.04-.23-1.85-.35-1.62-.23-3.95-.46-6.77-.56-2.81-.11-6.1-.11-9.6.19-1.75.14-3.55.33-5.37.6-.91.14-1.82.29-2.73.48-.45.09-.91.19-1.35.31-.22.06-.44.12-.66.2-.11.04-.21.08-.3.13-.05.02-.08.07-.07.02,0,0-.01.02-.02.03,0-.08,0-.05,0-.07-.02-.03.01,0,.01,0,.73.37,1.71.54,2.59.73.9.17,1.81.31,2.71.42,1.81.22,3.6.35,5.34.4,3.48.11,6.75-.11,9.53-.48,2.79-.39,5.09-.84,6.69-1.23.8-.2,1.42-.38,1.82-.54.2-.08.35-.15.42-.19.06-.05,0,.03.02.01.01-.03.02-.04.02-.04v.06Z"/>
            </g>
            <g>
              <path class="cls-31" d="m94.04,139.15H10s5.23,41.47,5.23,41.49c0,1.23,14.58,5.49,36.72,5.49s36.25-4.15,36.68-5.44l5.41-41.55Z"/>
              <path class="cls-17" d="m12.64,140.37l6.76,39.76s18.9,5.73,48.12,3.01l4.63-40.23s-33.5,2.82-59.52-2.54Z"/>
              <path class="cls-35" d="m94.04,139.15c0,2.09-18.81,8.12-42.02,8.12s-42.02-6.04-42.02-8.12,18.81-7.04,42.02-7.04,42.02,4.95,42.02,7.04Z"/>
              <path class="cls-16" d="m52.02,132.11c-23.21,0-42.02,4.95-42.02,7.04s18.81,8.12,42.02,8.12,42.02-6.04,42.02-8.12-18.81-7.04-42.02-7.04Zm0,12.51c-20.09,0-36.37-3.6-36.37-5.4s16.28-6.09,36.37-6.09,36.37,4.29,36.37,6.09-16.28,5.4-36.37,5.4Z"/>
              <path class="cls-35" d="m15.65,139.22s16.2-10.69,37.04-10.69,35.69,10.69,35.69,10.69H15.65Z"/>
              <g class="cls-13">
                <path class="cls-31" d="m88.39,139.22s.1-.52-1.46-1.14c-3.22-1.48-15.81-9.55-34.23-9.55-.2,0-.38.02-.58.02l-.1,4.03s30.5,7.66-15.4,11.33c7.15.65,20.61.99,31.85-.13,7.27-.73,19.96-3.01,19.91-4.56Z"/>
              </g>
              <path class="cls-31" d="m63.74,130.56c0,.52-5.25,2.02-11.72,2.02s-11.72-1.5-11.72-2.02,5.25-1.75,11.72-1.75,11.72,1.23,11.72,1.75Z"/>
              <g>
                <path class="cls-33" d="m56.87,115.25c-3.17,5.65-3.89,15.92-4.26,15.92s-1.21-9.87.82-16.9l3.44.99Z"/>
                <path class="cls-33" d="m56.98,115.2c-.2.63-1.18.94-2.19.69-1.01-.24-1.67-.95-1.47-1.57.2-.63,1.18-.94,2.19-.69,1.01.24,1.67.95,1.48,1.57Z"/>
              </g>
              <path class="cls-17" d="m52.02,147.27c-11.6,0-22.11-1.51-29.71-3.28-1.85-.33-3.29-.68-4.12-1.06l5.29,31.52s13.6,5.11,31.78,2.07l1.8-29.35c-1.66.06-3.34.1-5.05.1Z"/>
            </g>
            <g>
              <path class="cls-31" d="m130.85,162.99h-60.42l3.81,29.77s-.05.04-.05.06c0,.89,10.48,3.95,26.4,3.95s26.06-2.98,26.37-3.91h.08l3.81-29.87Z"/>
              <path class="cls-17" d="m72.33,163.87l4.86,28.58s13.59,4.12,34.6,2.16l3.33-28.92s-24.09,2.03-42.79-1.82Z"/>
              <path class="cls-35" d="m130.85,162.99c0,1.5-13.53,5.84-30.21,5.84s-30.21-4.34-30.21-5.84,13.53-5.06,30.21-5.06,30.21,3.56,30.21,5.06Z"/>
              <path class="cls-16" d="m100.64,157.93c-16.68,0-30.21,3.56-30.21,5.06s13.53,5.84,30.21,5.84,30.21-4.34,30.21-5.84-13.53-5.06-30.21-5.06Zm0,9c-14.44,0-26.15-2.59-26.15-3.88s11.71-4.38,26.15-4.38,26.15,3.08,26.15,4.38-11.71,3.88-26.15,3.88Z"/>
              <path class="cls-35" d="m74.5,163.04s11.65-7.68,26.63-7.68,25.66,7.68,25.66,7.68h-52.3Z"/>
              <g class="cls-13">
                <path class="cls-31" d="m126.79,163.04s.07-.38-1.05-.82c-2.31-1.06-11.37-6.86-24.61-6.86-.14,0-.28.01-.42.01l-.07,2.9s21.93,5.51-11.07,8.14c5.14.47,14.82.72,22.9-.1,5.23-.52,14.35-2.17,14.32-3.28Z"/>
              </g>
              <path class="cls-31" d="m109.07,156.82c0,.37-3.77,1.45-8.43,1.45s-8.43-1.08-8.43-1.45,3.77-1.26,8.43-1.26,8.43.89,8.43,1.26Z"/>
              <g>
                <path class="cls-33" d="m104.13,145.81c-2.28,4.06-2.79,11.44-3.07,11.44s-.87-7.1.59-12.15l2.48.71Z"/>
                <path class="cls-33" d="m104.21,145.77c-.14.45-.85.67-1.57.5-.73-.17-1.2-.68-1.06-1.13.14-.45.85-.67,1.57-.5.73.17,1.2.68,1.06,1.13Z"/>
              </g>
              <path class="cls-17" d="m100.64,168.83c-8.34,0-15.89-1.09-21.36-2.36-1.33-.24-2.37-.49-2.96-.76l3.8,22.66s9.78,3.67,22.85,1.49l1.3-21.1c-1.19.04-2.4.07-3.63.07Z"/>
              <path class="cls-20" d="m74.19,192.82s7.5,4.13,27.5,3.78c19.92-.35,25.35-3.74,25.35-3.74,0,0-2.63,4.56-25.51,4.57-23.11.01-27.34-4.61-27.34-4.61Z"/>
            </g>
            <g>
              <g>
                <path class="cls-39" d="m51.2,195.01c.05-.02.1-.03.15-.05,0,0,.02,0,.02,0,.81-.25,1.64-.35,2.45-.53,1.05-.22,2.04-.58,2.79-1.54,1.08-1.38,1.63-3.4,3.25-4.31.15-.08.26-.12.34-.11.36,0,.11.76.13,1.15.04.86.31,1.7.74,2.45.45.78,1.1,1.39,1.78,1.97.69.59,1.3,1.23,1.95,1.88.68.67,1.55,1.23,2.11,2.02.28-1.06.52-2.11.92-3.13,0-.01.01-.03.01-.04.04-.07.06-.14.09-.21.74-1.73,1.99-3.46,1.23-5.38-.49-1.26-1.4-2.11-2.45-2.83-.17-.12-.34-.23-.51-.33.07,0,.14.01.22.02.28.04.55.08.83.13.4.07.8.15,1.19.24,1.03.23,2.04.52,3.03.88,0,0,.02,0,.03.01.55.19,1.09.41,1.61.64.6.26,1.47.95,2.01.83h0c.22-.05.38-.24.45-.64.33-2.01-1.28-4.68-2.51-6.13-1.8-2.12-4.69-2.21-7.02-.87-.18.1-.35.21-.49.34-.19.13-.35.28-.52.44.34-1.09.53-2.25.69-3.24.34-2.22-.08-3.93-1.55-5.63-.72-.84-1.96-1.7-2.38-2.76-.02.06-.03.13-.05.19-.61,2.56-1.5,5.3-1.37,7.95.03.73.15,1.46.35,2.17-.76-.81-1.59-1.54-2.52-2.08-2.18-1.27-4.43-1.14-6.77-.39-1.17.37-3.07.82-3.99,1.73.03.06.08.11.12.16.46.52,1.43.81,2,1.26,1.34,1.06,2.45,2.26,4.07,2.93.69.29,1.41.5,2.14.64.65.12,1.44.04,2.05.23-.05.07-.12.13-.21.19-.51.34-1.48.45-1.96.64-1.34.55-2.63,1.26-3.32,2.6-.71,1.39-.47,2.89-.59,4.38-.06.75-.34,1.42-.53,2.14Z"/>
                <path class="cls-40" d="m61.17,185.64c.11-.01.22-.02.32-.03.08-.02.16-.03.23-.04,0,0,.02,0,.02,0,.05,0,.08-.02.11-.03.23-.05.44-.12.64-.21.04-.02.09-.04.13-.07,0,0,.02,0,.02,0h0c.28-.15.53-.33.77-.55.32-.3.62-.67.94-1.09.24-.32.46-.64.64-.96.22-.38.41-.77.54-1.18-.19.13-.35.28-.52.44.34-1.09.53-2.25.69-3.24.34-2.22-.08-3.93-1.55-5.63-.72-.84-1.96-1.7-2.38-2.76-.02.06-.03.13-.05.19.18.32.38.61.58.9.7.99,1.38,2.07,1.89,3.18.62,1.38.69,2.87.4,4.34-.11.58-.26,1.16-.4,1.74-.06.26-.08.65-.32.8-.18-.24-.21-.57-.29-.86-.13-.47-.34-.94-.35-1.44-.24.48-.37,1.08-.5,1.59-.14.54-.13,1.29-.45,1.75-.41-1.51-.51-3.13-.69-4.69-.3.26-.48.69-.57,1.09-.17.78-.27,1.69-.33,2.49-.02.32-.02.64-.01.97.03.59.1,1.18.17,1.76.04.25.07.49.1.73l.02.07.06.24v.04s.12.47.12.47Z"/>
                <path class="cls-40" d="m61.49,185.75c.04.06.09.11.14.16h0s.02.02.03.03c.03.03.06.06.09.07.17.12.37.2.6.26.85.22,2.02.1,2.65.11.57,0,1.14-.02,1.7-.04.26,0,.52-.01.79-.01.31,0,.62.02.93.06.09,0,.18.02.27.03.96.15,1.87.45,2.76.85,0,0,.02,0,.03.01.55.19,1.09.41,1.61.64.6.26,1.47.95,2.01.83-.1-.1-.19-.19-.27-.27-1.04-1.08-2.16-1.96-3.53-2.57-1.27-.57-2.7-.88-4.06-1.11-.36-.06-1.09,0-1.36-.29.17-.51,1.16-.64,1.59-.89-.34-.08-.86.04-1.22.1-.26.04-.7.26-.96.14.18-.43.91-.69,1.3-.89.75-.39,1.75-.46,2.43-.95-.45-.32-1.52-.07-2.04,0-.7.1-1.35.32-1.98.62h0c-.16.08-.32.17-.47.26-.5.29-1.64.89-1.61,1.62,0,0,0,.01,0,.02l-.32.27h-.02s-.31.29-.31.29l-.35.29-.18.15-.02.02-.17.15-.05.05Z"/>
                <path class="cls-40" d="m63.93,186.97c.72.58.96,1.84,1.56,2.56.22-.8-.35-2.43-.82-3.01,2,1.53,3.54,3.83,3.44,6.45-.01.58-.12,1.19-.27,1.79.04-.07.06-.14.09-.21.74-1.73,1.99-3.46,1.23-5.38-.49-1.26-1.4-2.11-2.45-2.83.26,0,.52-.01.79-.01-.08-.07-.16-.12-.26-.17-.5-.33-1.06-.58-1.65-.72l-2.18-.74-.5-.17-.8-.26-.11-.04c-.07.17-.12.34-.16.51h0s0,.01,0,.02c-.01.05-.03.1-.04.16-.04.21-.06.42-.06.63,0,0,0,.02,0,.02,0,.08,0,.14,0,.21,0,.08,0,.16.01.24.03.28.09.57.16.85.43,1.47,1.49,2.87,2.42,3.89.1-.43-.36-1.15-.44-1.61-.12-.64-.07-1.51.02-2.16Z"/>
                <path class="cls-40" d="m51.37,194.95c.81-.25,1.64-.35,2.45-.53,1.05-.22,2.04-.58,2.79-1.54,1.08-1.38,1.63-3.4,3.25-4.31.15-.08.26-.12.34-.11.57-.5,1.24-1.02,1.73-1.6.17-.19.31-.39.44-.59.14-.26.24-.53.27-.82,0-.03,0-.06,0-.08v-.02s0-.07,0-.1h0c0-.14-.02-.28-.06-.43,0-.02-.01-.05-.02-.08.04-.01.06-.02.07-.03-.02,0-.04,0-.08,0-.08.01-.23.04-.37.08-.01,0-.03.01-.05.02-.06.02-.12.03-.18.06-.06.02-.12.03-.17.05-.24.08-.48.16-.71.24,0,0-.02,0-.03.01-.27.1-.55.2-.82.31-1.21.49-2.33,1.08-3.4,1.85-.82.58-1.63,1.25-2.35,1.96-.17.17-.54.46-.49.7,1.1-.4,2.03-1.61,3.24-1.73-.47.71-1.49,1.14-2.13,1.71-.56.5-1.27,1.15-1.53,1.87.7-.44,1.31-1.08,1.99-1.57.65-.47,1.72-1.49,2.57-1.5-.44.77-1.23,1.48-1.79,2.19-.75.96-1.56,1.81-2.55,2.51-.72.52-1.56,1.07-2.43,1.48Z"/>
                <path class="cls-40" d="m61.84,184.73s-.02,0-.03,0c0,0,.02,0,.02.02.05.03.09.07.13.11.1.08.2.16.29.24.13.11.25.23.37.34,0,0,.01,0,.02.01v-.09s-.08-.54-.08-.54v-.09s-.01-.04-.01-.04v-.05c-.25.01-.48.04-.72.08Z"/>
                <path class="cls-40" d="m47.55,179.99c.46.52,1.43.81,2,1.26,1.34,1.06,2.45,2.26,4.07,2.93.69.29,1.41.5,2.14.64.65.12,1.44.04,2.05.23-.05.07-.12.13-.21.19.48-.01.98-.04,1.46-.07.93-.05,1.83-.31,2.75-.44-1.14-.91-2.5-1.62-3.95-1.75-1.51-.14-3.04.17-4.51-.36-1.4-.51-2.71-1.35-4.07-1.97-.56-.26-1.14-.48-1.73-.67Z"/>
                <path class="cls-40" d="m62.24,184.68c-.15-.96-1.05-1.91-1.71-2.55-.92-.88-2.21-2-3.48-2.34.7.84,1.95,1.43,2.4,2.45-1.01-.6-1.96-1.06-3.13-1.28-.63-.12-2.1-.53-2.73-.21,1.46.34,2.9,1.22,4.18,1.95,1.06.6,2.05,1.27,2.94,2.11.33.31.85.7.95,1.16l.58-1.29Z"/>
              </g>
              <path class="cls-38" d="m62.7,184.21c-.17-1.67-.33-3.39-.9-4.98-.15-.41-.3-.82-.47-1.23.02,0,.03-.01.05-.02.26-.17.34-.55.25-.83-.05-.17-.16-.31-.3-.42-.01-.2-.08-.39-.22-.53-.06-.06-.12-.1-.18-.13.01-.2,0-.41-.06-.59-.06-.17-.16-.32-.31-.41,0-.05,0-.1-.02-.15-.08-.26-.28-.49-.53-.6-.26-.21-.65-.29-.88.01-.11.14-.03.35.11.4,0,.07-.03.14-.02.21.02.21.18.36.39.37-.27.3.11.78.45.67,0,.02,0,.03,0,.05,0-.11,0,0,0,.02,0,.04-.02.07-.02.11,0-.01-.01.04-.03.08-.15.33.08.63.41.64-.04.18.05.44.24.51,0,0,.04.01.07.03,0,.02-.02.04-.03.07-.08.32.14.57.42.57.16.44.3.88.42,1.34.42,1.59.44,3.22.71,4.84.05.29.49.28.46-.02Z"/>
            </g>
            <g>
              <g>
                <path class="cls-21" d="m46.47,189.81c-.06,0-.12,0-.18-.02,0,0-.02,0-.02,0-.93-.06-1.86.04-2.76.06-1.19.03-2.34-.09-3.4-.94-1.51-1.2-2.63-3.23-4.6-3.79-.18-.05-.31-.06-.39-.04-.39.09.08.84.16,1.27.17.93.1,1.91-.16,2.83-.28.95-.83,1.78-1.4,2.58-.59.81-1.08,1.65-1.61,2.52-.56.9-1.35,1.72-1.75,2.71-.58-1.07-1.1-2.13-1.8-3.12-.01-.01-.02-.03-.02-.04-.06-.06-.1-.13-.15-.2-1.24-1.67-3.03-3.2-2.71-5.46.2-1.47.96-2.63,1.9-3.67.15-.17.3-.33.47-.49-.08.03-.15.05-.23.08-.29.11-.57.23-.85.35-.41.17-.82.36-1.22.56-1.05.51-2.06,1.09-3.03,1.72,0,0-.02,0-.03.02-.54.35-1.06.72-1.57,1.11-.57.43-1.33,1.4-1.94,1.41h0c-.25,0-.47-.15-.65-.56-.87-2.07.17-5.36,1.12-7.23,1.38-2.74,4.47-3.59,7.31-2.74.22.06.43.14.62.23.24.1.45.21.67.33-.65-1.09-1.15-2.28-1.57-3.3-.94-2.3-.93-4.24.21-6.45.56-1.09,1.67-2.33,1.84-3.58.03.06.06.13.1.19,1.31,2.6,2.97,5.3,3.53,8.18.15.79.22,1.6.18,2.42.61-1.07,1.31-2.07,2.17-2.88,2.01-1.92,4.46-2.37,7.17-2.17,1.35.09,3.51.08,4.74.83-.02.07-.05.13-.09.2-.36.68-1.33,1.24-1.82,1.87-1.17,1.49-2.05,3.06-3.62,4.19-.67.48-1.38.9-2.14,1.24-.66.3-1.53.42-2.14.78.07.06.17.11.27.15.63.23,1.71.1,2.28.18,1.59.24,3.15.68,4.24,1.93,1.12,1.31,1.25,2.98,1.76,4.55.26.79.73,1.44,1.12,2.16Z"/>
                <path class="cls-30" d="m33.34,182.32c-.12.02-.24.03-.35.04-.09,0-.17.01-.26.01,0,0-.02,0-.03,0-.05,0-.09,0-.13,0-.26,0-.51-.01-.74-.06-.05-.01-.11-.02-.16-.04,0,0-.02,0-.02,0h0c-.34-.09-.66-.22-.97-.39-.42-.24-.84-.56-1.29-.93-.34-.28-.65-.56-.94-.87-.34-.35-.63-.72-.89-1.13.24.1.45.21.67.33-.65-1.09-1.15-2.28-1.57-3.3-.94-2.3-.93-4.24.21-6.45.56-1.09,1.67-2.33,1.84-3.58.03.06.06.13.1.19-.11.39-.25.76-.39,1.11-.5,1.25-.95,2.58-1.21,3.9-.31,1.64,0,3.26.69,4.76.27.6.58,1.18.87,1.76.14.27.26.68.55.78.13-.31.08-.67.09-.99.02-.54.12-1.09,0-1.64.38.45.67,1.07.95,1.58.29.55.47,1.36.93,1.76.05-1.73-.26-3.49-.47-5.21.39.21.7.62.89,1.02.38.79.72,1.74.99,2.59.11.34.19.68.26,1.04.11.64.2,1.29.27,1.94.03.28.05.55.08.81v.08s0,.28,0,.28v.05s0,.54,0,.54Z"/>
                <path class="cls-30" d="m33.02,182.52c-.03.07-.07.14-.11.21h0s-.02.03-.03.04c-.02.04-.05.08-.08.1-.15.17-.35.31-.58.43-.86.46-2.14.63-2.81.81-.61.16-1.23.27-1.84.4-.28.06-.57.12-.85.19-.33.08-.66.18-.98.31-.09.03-.19.07-.28.1-.99.41-1.9.97-2.74,1.62,0,0-.02,0-.03.02-.54.35-1.06.72-1.57,1.11-.57.43-1.33,1.4-1.94,1.41.08-.13.15-.25.22-.36.84-1.42,1.82-2.67,3.13-3.67,1.21-.94,2.68-1.65,4.07-2.24.37-.16,1.17-.28,1.39-.66-.32-.5-1.41-.39-1.93-.55.35-.18.93-.18,1.34-.2.29-.02.82.1,1.07-.09-.3-.41-1.16-.5-1.63-.62-.91-.22-2-.04-2.85-.4.4-.46,1.62-.47,2.2-.52.78-.08,1.54-.01,2.29.16h0c.19.05.38.1.57.15.61.18,1.99.53,2.14,1.33,0,0,.01.01,0,.02l.42.21h.02s.41.22.41.22l.45.22.23.12h.03s.22.13.22.13l.07.04Z"/>
                <path class="cls-30" d="m30.73,184.46c-.63.81-.56,2.23-1.01,3.16-.44-.8-.25-2.7.11-3.45-1.76,2.16-2.81,5.03-2.03,7.81.16.62.44,1.25.75,1.86-.06-.06-.1-.13-.15-.2-1.24-1.67-3.03-3.2-2.71-5.46.2-1.47.96-2.63,1.9-3.67-.28.06-.57.12-.85.19.07-.09.14-.18.23-.25.45-.48.99-.9,1.59-1.2l2.15-1.36.49-.31.79-.49.11-.08c.12.16.22.33.3.51h0s0,.01,0,.02c.03.05.06.1.08.16.1.22.17.43.23.66,0,0,0,.02,0,.02.02.08.04.15.05.23.02.09.03.18.05.26.04.31.05.63.04.96-.08,1.69-.86,3.47-1.59,4.8-.22-.44.09-1.33.06-1.85-.04-.72-.32-1.64-.59-2.32Z"/>
                <path class="cls-30" d="m46.27,189.79c-.93-.06-1.86.04-2.76.06-1.19.03-2.34-.09-3.4-.94-1.51-1.2-2.63-3.23-4.6-3.79-.18-.05-.31-.06-.39-.04-.73-.39-1.59-.77-2.27-1.27-.23-.16-.44-.34-.62-.53-.22-.24-.39-.51-.5-.81-.01-.03-.02-.06-.03-.09v-.02s-.03-.08-.03-.11h0c-.03-.15-.05-.31-.05-.48,0-.02,0-.06,0-.09-.05,0-.07-.01-.08-.02.02-.02.05-.01.08-.02.09-.01.26-.01.42,0,.01,0,.04,0,.05,0,.07,0,.14,0,.2.02.06,0,.14,0,.2.01.27.02.56.05.83.08,0,0,.02,0,.03,0,.32.03.64.07.96.12,1.43.21,2.79.56,4.13,1.11,1.03.42,2.07.92,3.03,1.5.23.14.7.36.7.62-1.29-.15-2.6-1.21-3.92-1.02.69.64,1.9.84,2.73,1.28.72.39,1.67.91,2.13,1.61-.87-.29-1.68-.83-2.54-1.17-.82-.34-2.23-1.15-3.15-.94.67.72,1.7,1.27,2.48,1.89,1.06.83,2.14,1.54,3.39,2.04.91.37,1.96.75,2.99.96Z"/>
                <path class="cls-30" d="m32.38,181.52s.03,0,.03,0c0,0-.02,0-.02.03-.04.05-.08.1-.12.15-.09.11-.17.22-.25.34-.11.15-.21.31-.31.47,0,0-.01.01-.02.02v-.1s-.08-.59-.08-.59l-.02-.1v-.04s0-.06,0-.06c.26-.05.52-.08.78-.1Z"/>
                <path class="cls-30" d="m46.51,172.74c-.36.68-1.33,1.24-1.82,1.87-1.17,1.49-2.05,3.06-3.62,4.19-.67.48-1.38.9-2.14,1.24-.66.3-1.53.42-2.14.78.07.06.17.11.27.15-.52.11-1.06.21-1.59.3-1.01.18-2.05.14-3.07.23.99-1.27,2.27-2.38,3.8-2.9,1.59-.54,3.31-.6,4.75-1.55,1.37-.91,2.56-2.15,3.86-3.17.54-.42,1.1-.81,1.69-1.16Z"/>
                <path class="cls-30" d="m31.95,181.57c-.09-1.07.63-2.32,1.18-3.18.76-1.18,1.86-2.72,3.13-3.41-.54,1.08-1.72,2.04-1.95,3.25.93-.9,1.83-1.64,3.03-2.18.65-.29,2.12-1.11,2.88-.93-1.48.74-2.8,2.06-3.98,3.17-.98.92-1.87,1.9-2.61,3.03-.27.42-.73.97-.72,1.49l-.96-1.23Z"/>
              </g>
              <path class="cls-42" d="m31.83,181.09c-.13-1.8-.53-3.56-.48-5.38.01-.52.05-1.03.1-1.54.29-.08.47-.4.3-.72-.01-.02-.03-.04-.05-.07.03-.02.06-.04.07-.05.18-.12.21-.43.12-.61.35-.09.51-.48.27-.8-.03-.03-.06-.09-.05-.08-.02-.04-.04-.07-.05-.11,0-.02-.04-.14,0-.02,0-.02-.01-.04-.02-.05.41.04.68-.58.32-.83.22-.06.36-.26.33-.5-.01-.08-.05-.15-.08-.22.13-.1.16-.34.01-.46-.32-.26-.72-.08-.95.21-.24.18-.4.47-.42.78,0,.06.01.11.02.16-.14.13-.22.32-.23.52-.02.21.02.44.08.65-.06.05-.12.12-.16.19-.12.19-.14.41-.1.63-.12.15-.2.34-.21.53-.02.32.16.71.48.83.02,0,.04,0,.06.01-.07.48-.13.96-.18,1.44-.2,1.86.07,3.74.32,5.58.05.33.52.23.5-.09Z"/>
            </g>
            <g>
              <g>
                <path class="cls-39" d="m166.24,186.85s-.08-.02-.12-.04c0,0-.01,0-.02,0-.61-.19-1.25-.27-1.86-.4-.8-.17-1.55-.44-2.12-1.17-.82-1.05-1.24-2.58-2.47-3.27-.11-.06-.2-.09-.25-.09-.27,0-.08.58-.1.87-.03.65-.24,1.29-.56,1.86-.34.59-.84,1.06-1.35,1.5-.52.45-.99.93-1.48,1.43-.52.51-1.18.93-1.6,1.53-.22-.81-.39-1.6-.7-2.38,0-.01,0-.02,0-.03-.03-.05-.05-.1-.07-.16-.56-1.31-1.51-2.63-.94-4.09.37-.95,1.06-1.61,1.86-2.15.13-.09.26-.17.39-.25-.05,0-.11.01-.16.02-.21.03-.42.06-.63.1-.3.05-.61.11-.9.18-.78.17-1.55.4-2.3.67,0,0-.01,0-.02,0-.42.15-.82.31-1.22.49-.45.2-1.12.72-1.52.63h0c-.17-.04-.29-.18-.34-.48-.25-1.52.97-3.55,1.91-4.65,1.36-1.61,3.56-1.68,5.33-.66.13.08.26.16.38.26.14.1.27.21.39.33-.26-.83-.4-1.71-.52-2.46-.26-1.69.06-2.98,1.18-4.28.55-.64,1.49-1.29,1.81-2.1.01.05.02.1.04.15.46,1.95,1.14,4.02,1.04,6.03-.03.55-.11,1.11-.27,1.65.58-.61,1.21-1.17,1.91-1.58,1.65-.96,3.36-.86,5.14-.3.89.28,2.33.62,3.03,1.31-.03.04-.06.08-.09.12-.35.4-1.09.61-1.52.96-1.02.81-1.86,1.72-3.09,2.22-.52.22-1.07.38-1.63.49-.49.09-1.09.03-1.55.18.04.05.09.1.16.14.39.26,1.13.34,1.49.49,1.02.42,2,.96,2.52,1.97.54,1.05.35,2.19.45,3.33.05.57.26,1.08.4,1.62Z"/>
                <path class="cls-40" d="m158.67,179.74c-.08,0-.17-.02-.24-.03-.06-.01-.12-.02-.17-.03,0,0-.01,0-.02,0-.03,0-.06-.01-.09-.02-.18-.04-.34-.09-.48-.16-.03-.02-.07-.03-.1-.05,0,0-.01,0-.01,0h0c-.21-.12-.4-.25-.58-.42-.24-.23-.47-.51-.72-.83-.18-.24-.35-.48-.49-.73-.17-.29-.31-.58-.41-.9.14.1.27.21.39.33-.26-.83-.4-1.71-.52-2.46-.26-1.69.06-2.98,1.18-4.28.55-.64,1.49-1.29,1.81-2.1.01.05.02.1.04.15-.13.24-.29.47-.44.68-.53.75-1.05,1.57-1.43,2.41-.47,1.04-.52,2.18-.3,3.29.08.44.2.88.3,1.32.05.2.06.5.24.61.14-.19.16-.43.22-.65.1-.36.25-.71.27-1.1.18.37.28.82.38,1.21.11.41.1.98.34,1.33.31-1.15.39-2.37.52-3.56.23.2.37.53.43.83.13.59.2,1.28.25,1.89.02.24.01.49,0,.73-.03.44-.08.9-.13,1.34-.03.19-.05.37-.07.56v.05s-.06.18-.06.18v.03s-.09.36-.09.36Z"/>
                <path class="cls-40" d="m158.42,179.83s-.07.09-.11.12h0s-.02.02-.02.02c-.02.02-.04.04-.07.06-.13.09-.28.15-.46.19-.65.17-1.53.08-2.01.09-.44,0-.86-.01-1.29-.03-.2,0-.4-.01-.6,0-.24,0-.47.02-.71.05-.07,0-.14.02-.21.02-.73.11-1.42.34-2.09.64,0,0-.01,0-.02,0-.42.15-.82.31-1.22.49-.45.2-1.12.72-1.52.63.07-.08.14-.15.21-.21.79-.82,1.64-1.49,2.68-1.95.96-.43,2.05-.67,3.08-.84.27-.05.82,0,1.03-.22-.13-.39-.88-.49-1.2-.68.26-.06.65.03.93.08.2.03.53.2.73.11-.14-.33-.69-.52-.99-.67-.57-.29-1.33-.35-1.84-.72.34-.25,1.16-.06,1.55,0,.53.07,1.03.24,1.5.47h0c.12.06.24.13.36.19.38.22,1.24.67,1.22,1.23,0,0,0,.01,0,.01l.25.21h.01s.24.22.24.22l.26.22.13.11h.02s.13.12.13.12l.04.03Z"/>
                <path class="cls-40" d="m156.58,180.75c-.55.44-.73,1.4-1.18,1.95-.17-.61.27-1.85.62-2.29-1.52,1.16-2.69,2.91-2.61,4.89.01.44.09.9.2,1.36-.03-.05-.05-.1-.07-.16-.56-1.31-1.51-2.63-.94-4.09.37-.95,1.06-1.61,1.86-2.15-.2,0-.4-.01-.6,0,.06-.05.12-.09.2-.13.38-.25.8-.44,1.25-.55l1.65-.56.38-.13.61-.2.09-.03c.05.13.09.26.12.39h0s0,.01,0,.02c.01.04.02.08.03.12.03.16.05.32.05.48,0,0,0,.01,0,.01,0,.06,0,.11,0,.16,0,.06,0,.12-.01.18-.02.21-.07.43-.13.65-.33,1.12-1.13,2.18-1.83,2.95-.08-.33.28-.87.34-1.23.09-.49.05-1.15-.02-1.64Z"/>
                <path class="cls-40" d="m166.11,186.81c-.61-.19-1.25-.27-1.86-.4-.8-.17-1.55-.44-2.12-1.17-.82-1.05-1.24-2.58-2.47-3.27-.11-.06-.2-.09-.25-.09-.43-.38-.94-.77-1.32-1.21-.13-.14-.24-.3-.33-.45-.11-.2-.18-.4-.2-.62,0-.02,0-.04,0-.06h0s0-.07,0-.09h0c0-.11.01-.22.04-.33,0-.02,0-.04.02-.06-.03,0-.04-.02-.05-.02.02,0,.03,0,.06,0,.06,0,.17.03.28.06,0,0,.02.01.04.01.05.01.09.03.13.04.04.01.09.03.13.04.18.06.36.12.54.18,0,0,.02,0,.02,0,.21.07.42.15.62.24.92.37,1.77.82,2.58,1.4.62.44,1.24.95,1.78,1.49.13.13.41.35.37.53-.84-.3-1.54-1.22-2.46-1.31.36.54,1.13.87,1.62,1.29.42.38.97.87,1.16,1.42-.53-.34-.99-.82-1.51-1.19-.49-.36-1.31-1.13-1.95-1.14.33.59.93,1.12,1.36,1.66.57.73,1.18,1.37,1.93,1.91.55.39,1.19.82,1.84,1.12Z"/>
                <path class="cls-40" d="m158.16,179.05s.02,0,.02,0c0,0-.01,0-.02.01-.04.02-.07.05-.1.08-.08.06-.15.12-.22.18-.1.08-.19.17-.28.26,0,0-.01,0-.01,0v-.07s.06-.41.06-.41v-.07s.01-.03.01-.03v-.04c.19.01.36.03.54.06Z"/>
                <path class="cls-40" d="m169.01,175.46c-.35.4-1.09.61-1.52.96-1.02.81-1.86,1.72-3.09,2.22-.52.22-1.07.38-1.63.49-.49.09-1.09.03-1.55.18.04.05.09.1.16.14-.37,0-.74-.03-1.11-.05-.71-.04-1.39-.23-2.09-.34.87-.69,1.9-1.23,3-1.33,1.15-.11,2.31.13,3.42-.27,1.06-.39,2.06-1.03,3.09-1.5.43-.2.87-.36,1.31-.51Z"/>
                <path class="cls-40" d="m157.86,179.02c.11-.73.8-1.45,1.3-1.93.7-.67,1.68-1.52,2.64-1.78-.53.64-1.48,1.08-1.82,1.86.76-.45,1.49-.8,2.37-.97.48-.09,1.6-.4,2.07-.16-1.11.26-2.2.93-3.17,1.48-.8.46-1.56.97-2.23,1.6-.25.24-.64.53-.72.88l-.44-.98Z"/>
              </g>
              <path class="cls-38" d="m157.51,178.66c.13-1.27.25-2.57.68-3.78.11-.31.23-.62.35-.93-.01,0-.03,0-.04-.02-.2-.13-.26-.42-.19-.63.04-.13.12-.23.23-.32.01-.15.06-.29.17-.4.04-.04.09-.08.14-.1,0-.15,0-.31.05-.45.04-.13.12-.24.24-.31,0-.04,0-.07.01-.11.06-.2.21-.37.4-.45.2-.16.49-.22.67,0,.08.11.02.26-.08.31,0,.05.02.11.02.16-.02.16-.14.27-.3.28.2.23-.08.6-.35.51,0,.01,0,.03,0,.04,0-.09,0,0,0,.01,0,.03.01.06.02.08,0-.01,0,.03.02.06.11.25-.06.48-.31.49.03.14-.04.34-.18.39,0,0-.03.01-.06.02,0,.02.02.03.02.05.06.24-.11.43-.32.43-.12.33-.23.67-.32,1.01-.32,1.2-.34,2.45-.54,3.67-.04.22-.37.21-.35-.02Z"/>
            </g>
          </g>
        </g>
      </g>
    </g>
  </g>
</svg>