<?xml version="1.0" encoding="UTF-8"?>
<svg xmlns="http://www.w3.org/2000/svg" viewBox="0 0 220 220">
  <defs>
    <style>
      .cls-1, .cls-2, .cls-3, .cls-4, .cls-5 {
        fill: #a8846f;
      }

      .cls-6, .cls-7, .cls-8 {
        opacity: .7;
      }

      .cls-9, .cls-10, .cls-8 {
        fill: #fff;
      }

      .cls-11, .cls-12 {
        fill: #fff2de;
      }

      .cls-13, .cls-14 {
        fill: #c49f75;
      }

      .cls-7, .cls-15, .cls-14, .cls-16, .cls-17 {
        mix-blend-mode: multiply;
      }

      .cls-18 {
        fill: #f9eae1;
      }

      .cls-10, .cls-15, .cls-14, .cls-5, .cls-16, .cls-12, .cls-17 {
        opacity: .3;
      }

      .cls-19 {
        isolation: isolate;
      }

      .cls-20 {
        fill: #c0ded8;
      }

      .cls-21 {
        fill: #8cad66;
      }

      .cls-2, .cls-22 {
        opacity: .1;
      }

      .cls-23 {
        fill: #eeb676;
      }

      .cls-24 {
        fill: #fff3a9;
      }

      .cls-25 {
        opacity: .4;
      }

      .cls-26 {
        fill: #a4c9bf;
      }

      .cls-3 {
        opacity: .2;
      }

      .cls-27 {
        fill: #332722;
      }

      .cls-28 {
        fill: #7e8252;
      }

      .cls-29 {
        fill: #cbdffd;
      }

      .cls-4 {
        opacity: .6;
      }

      .cls-30 {
        fill: #fff5ee;
      }

      .cls-31 {
        fill: #efe1ce;
      }

      .cls-32 {
        fill: #718c4b;
      }

      .cls-33 {
        fill: #d1c1b0;
      }

      .cls-34, .cls-17 {
        fill: #d3ac7d;
      }

      .cls-16, .cls-35 {
        fill: #966948;
      }

      .cls-36 {
        fill: #a7c3e5;
      }

      .cls-37 {
        fill: #d9e5d1;
      }

      .cls-38 {
        fill: #ca5959;
      }

      .cls-39 {
        fill: #ffebb2;
      }

      .cls-40 {
        fill: #f7d892;
      }

      .cls-41 {
        fill: #b29c8a;
      }

      .cls-42 {
        fill: #eaa050;
      }

      .cls-43 {
        fill: #377f65;
      }
    </style>
  </defs>
  <g class="cls-19">
    <g id="Layer_2" data-name="Layer 2">
      <g id="_2" data-name="2">
        <g>
          <circle class="cls-37" cx="110" cy="110" r="110"/>
          <g>
            <g>
              <path class="cls-1" d="m111.53,53.2s0,.01-.02.04c0,.03-.14.19-.18.2-.13.1-.3.18-.53.29-.46.21-1.13.45-2,.71-1.73.52-4.25,1.1-7.3,1.45-3.04.37-6.61.58-10.4.41-1.89-.09-3.84-.27-5.81-.55-.98-.14-1.97-.31-2.95-.52-.99-.24-1.95-.38-2.93-.91-.04-.04-.06-.04-.11-.13-.01-.06-.05-.05-.02-.17,0-.02,0-.02.02-.05.1-.15.18-.16.24-.2.13-.06.25-.11.37-.15.25-.08.49-.15.74-.21.49-.12.99-.22,1.49-.32.99-.18,1.99-.33,2.97-.47,1.98-.26,3.93-.45,5.83-.59,3.8-.25,7.35-.32,10.4-.26,3.05.07,5.59.27,7.36.5.88.11,1.58.24,2.05.36.24.06.42.12.55.19.06.03.13.08.17.14.05.09.05.15.05.15v.06Zm-.39-.05s-.01.03.01.06c0,.01,0,0-.05-.03-.08-.04-.24-.11-.46-.16-.44-.12-1.12-.25-2-.38-1.75-.25-4.27-.49-7.31-.61-3.04-.12-6.59-.12-10.38.21-1.89.15-3.84.35-5.81.65-.98.15-1.97.31-2.95.51-.49.1-.98.21-1.46.34-.24.07-.48.13-.71.22-.11.04-.23.09-.33.14-.05.02-.08.07-.07.02,0,0-.01.03-.02.04,0-.08.01-.05,0-.08-.03-.03.01,0,.01,0,.79.4,1.85.59,2.8.79.97.19,1.96.33,2.93.46,1.95.24,3.89.38,5.77.43,3.76.12,7.3-.12,10.3-.52,3.01-.42,5.5-.9,7.23-1.33.86-.21,1.53-.41,1.97-.58.22-.08.38-.16.45-.21.06-.05-.01.03.03.01.01-.03.02-.04.02-.04v.06Z"/>
              <path class="cls-2" d="m113.36,177.42v-1.21s-.04-2.44-.04-2.44c0-.01,0-.03-.01-.04-.03-.05-.09-.07-.14-.04h0s-.01,0-.02.01c34.07-68.17-6.7-79.93-6.7-79.93l1.48-31.19.19-.04c.7-.14,1.38-.37,2.07-.56l2.47-.79-.09-.29c-.2-.62-.33-1.25-.46-1.88-.13-.63-.23-1.27-.31-1.91-.16-1.29-.28-2.58-.25-3.9,0,0,0,0,0,0v-.05s0-.06-.05-.15c-.04-.05-.11-.11-.17-.14-.13-.07-.31-.13-.55-.19-.47-.12-1.16-.24-2.05-.36-1.77-.23-4.31-.43-7.36-.5-3.05-.07-6.6,0-10.4.26-1.9.13-3.85.33-5.83.59-.99.13-1.98.28-2.97.47-.5.09-.99.2-1.49.32-.25.06-.49.13-.74.21-.12.04-.25.09-.37.15-.06.04-.14.05-.24.2-.01.02-.01.03-.02.05-.03.11,0,.11.02.17,0,.02.02.02.02.03.06,1.28-.02,2.54-.14,3.8-.14,1.33-.34,2.65-.73,3.95l-.1.32.38.12c1.37.43,2.73.73,4.11,1,.02,0,.05,0,.07.01l2.19,31.1s-39.28,12.77-5.47,79.21c-.02.02-.03.04-.03.06h0s0,2.42,0,2.42v1.21s0,.3,0,.3v.15s.01.08,0,.05h0s0,.03,0,.03v.04s.06.08.09.12c.21.21.4.29.61.4.83.39,1.7.66,2.57.91.87.25,1.76.46,2.65.65,1.78.38,3.59.64,5.4.83,1.82.19,3.64.28,5.48.29,1.83,0,3.67-.1,5.49-.29,1.82-.19,3.64-.45,5.43-.84.9-.19,1.79-.4,2.67-.66.88-.26,1.76-.53,2.59-.92.21-.11.41-.2.61-.4.02-.03.05-.06.07-.09.02-.05.04-.11.04-.15v-.15s0-.3,0-.3Z"/>
              <path class="cls-3" d="m111.34,53.14c0,.51-7.18,2.65-15.99,2.91-8.77.26-15.89-1.44-15.9-1.94,0-.5,7.07-1.91,15.87-2.18,8.83-.27,16.01.71,16.01,1.22Z"/>
              <path class="cls-1" d="m111.53,53.2s0,.01-.02.04c0,.03-.14.19-.18.2-.13.1-.3.18-.53.29-.46.21-1.13.45-2,.71-1.73.52-4.25,1.1-7.3,1.45-3.04.37-6.61.58-10.4.41-1.89-.09-3.84-.27-5.81-.55-.98-.14-1.97-.31-2.95-.52-.99-.24-1.95-.38-2.93-.91-.04-.04-.06-.04-.11-.13-.01-.06-.05-.05-.02-.17,0-.02,0-.02.02-.05.1-.15.18-.16.24-.2.13-.06.25-.11.37-.15.25-.08.49-.15.74-.21.49-.12.99-.22,1.49-.32.99-.18,1.99-.33,2.97-.47,1.98-.26,3.93-.45,5.83-.59,3.8-.25,7.35-.32,10.4-.26,3.05.07,5.59.27,7.36.5.88.11,1.58.24,2.05.36.24.06.42.12.55.19.06.03.13.08.17.14.05.09.05.15.05.15v.06Zm-.39-.05s-.01.03.01.06c0,.01,0,0-.05-.03-.08-.04-.24-.11-.46-.16-.44-.12-1.12-.25-2-.38-1.75-.25-4.27-.49-7.31-.61-3.04-.12-6.59-.12-10.38.21-1.89.15-3.84.35-5.81.65-.98.15-1.97.31-2.95.51-.49.1-.98.21-1.46.34-.24.07-.48.13-.71.22-.11.04-.23.09-.33.14-.05.02-.08.07-.07.02,0,0-.01.03-.02.04,0-.08.01-.05,0-.08-.03-.03.01,0,.01,0,.79.4,1.85.59,2.8.79.97.19,1.96.33,2.93.46,1.95.24,3.89.38,5.77.43,3.76.12,7.3-.12,10.3-.52,3.01-.42,5.5-.9,7.23-1.33.86-.21,1.53-.41,1.97-.58.22-.08.38-.16.45-.21.06-.05-.01.03.03.01.01-.03.02-.04.02-.04v.06Z"/>
              <path class="cls-1" d="m112.04,61.24s-.49.2-1.38.44c-.89.25-2.17.59-3.71.91-1.54.32-3.35.66-5.3.91-.97.15-1.99.21-3.01.32-1.03.09-2.07.11-3.12.17-2.08.03-4.17-.04-6.1-.16-1.94-.11-3.74-.32-5.28-.52-1.54-.2-2.81-.45-3.69-.64-.89-.19-1.36-.38-1.36-.38,0,0,.49.16,1.38.29.89.14,2.17.27,3.71.42,3.08.27,7.21.52,11.35.43,1.03-.05,2.07-.05,3.09-.14,1.02-.1,2.02-.15,2.99-.28.97-.13,1.91-.21,2.8-.35.89-.13,1.73-.24,2.5-.39,1.55-.26,2.85-.49,3.74-.69.9-.18,1.41-.35,1.41-.35Z"/>
              <path class="cls-10" d="m79.78,173.96s24.67-1.59,28.47-5.9c3.83-4.35,14-21.84,18.18-39.77,0,0,.62,10.34-5.65,27.51-2.11,5.77-4.38,12.02-7.66,17.97,0,0-2.51,2.78-16.18,2.8-11.21.02-14.35-1.14-17.14-2.61Z"/>
              <path class="cls-1" d="m112.96,177.91l.11-3.97c-4.88,2.21-13.37,2.88-18.74,2.69-4.11-.14-9.8-.79-13.64-2.29-.33-.13-.51-.16-.83-.31,0,.1.1,3.84.18,3.91,1.68,1.61,12.1,2.77,16.41,2.76,7.82,0,15.58-1.85,16.51-2.8Zm-.37-3.96c.2-.08.38-.17.57-.26h0c.05-.03.12,0,.14.04,0,.01.01.03.01.04h0l.03,2.44v1.22s.02.3.02.3v.15s-.02.1-.04.15c-.02.04-.05.06-.07.09-.2.2-.4.29-.61.4-.84.4-1.71.67-2.59.92-.88.25-1.77.46-2.67.66-1.79.38-3.61.65-5.43.84-1.82.19-3.66.28-5.49.29-1.84,0-3.66-.1-5.48-.29-1.82-.19-3.62-.45-5.4-.83-.89-.19-1.77-.4-2.65-.65-.87-.25-1.74-.52-2.57-.91-.21-.11-.4-.19-.61-.4-.03-.04-.06-.08-.08-.12v-.04s-.02-.02-.02-.02h0s0-.06,0-.06v-.15s0-.3,0-.3v-1.21s0-2.42,0-2.42h0c0-.06.04-.1.1-.1.02,0,.04,0,.05.01.33.16.65.29.99.42.33.13.68.23,1.02.35.68.24,1.4.4,2.09.6l1.07.24c.36.08.71.16,1.07.23l2.17.37h-.02s0,0,0,0h0s.02,0,.02,0l3.06.33.77.08.77.03,1.55.05,1.55.05c.52.03,1.02,0,1.54-.02l3.09-.11c.52,0,1.03-.1,1.54-.14l1.54-.17c.52-.06,1.03-.09,1.53-.2l1.53-.26c.51-.08,1.01-.21,1.51-.32.5-.11,1.01-.22,1.5-.37.49-.14.99-.26,1.48-.44.49-.16.97-.32,1.44-.52Z"/>
              <g>
                <path class="cls-17" d="m97.05,35.97c0,.17-.35.32-.77.33-.43.01-.78-.11-.78-.28,0-.17.35-.32.77-.33.43-.01.78.11.78.28Z"/>
                <path class="cls-17" d="m100.03,34.26c0,.13-.27.25-.6.26-.33.01-.6-.09-.6-.22,0-.13.27-.25.6-.26.33-.01.6.09.6.22Z"/>
                <path class="cls-17" d="m92.66,35.28c0,.13-.27.25-.59.26-.33.01-.6-.09-.6-.22,0-.13.26-.25.59-.26.33-.01.6.09.6.22Z"/>
                <path class="cls-17" d="m103.62,34.9c0,.17-.35.32-.78.34-.43.01-.78-.11-.78-.28,0-.17.35-.32.78-.34.43-.01.78.11.78.28Z"/>
                <path class="cls-17" d="m88.7,35.94c0,.17-.34.32-.77.33-.43.01-.77-.11-.78-.28,0-.17.34-.32.77-.33.43-.01.77.11.78.28Z"/>
              </g>
              <path class="cls-32" d="m73.69,106.93l44.52-.79s17.09,16.47-5.92,64.76c-.62,1.3-1.88,2.27-3.4,2.62-11.48,2.65-24.79,1.31-27.61-.91-2.22-1.74-22.55-45.59-7.59-65.69Z"/>
              <path class="cls-24" d="m73.69,106.9s20.53,2.65,44.52-.79c0,0-4.38,3.26-21.3,3.99-18.45-.06-23.22-3.2-23.22-3.2Z"/>
              <path class="cls-21" d="m73.69,106.9s22.81-4.13,44.52-.79c0,0-20.2,5.99-44.52.79Z"/>
              <path class="cls-10" d="m85.91,69.76l1.95,24.74s-14.88,9.59-17.55,27.01c-2.34,15.29,6.22,30.95,6.22,30.95,0,0,13.32-4.19,19.62-19.81,9.13-22.65-3.01-38.01-3.01-38.01l-.19-23.66-7.04-1.22Z"/>
              <path class="cls-9" d="m85.45,100.26s-19.98,12.77-10.46,39.29c0,0,28.41-14.07,10.46-39.29Z"/>
              <path class="cls-21" d="m110.27,171.45c-2.19,1.76-18.72,4.07-27.75,1.88h0c5.45,2.39,24.71,2.28,28.57-.7,2.04-1.57,6.16-10.98,9.32-22.45-4.36,11.1-8.67,20.08-10.14,21.27Z"/>
              <path class="cls-10" d="m79.78,173.96s24.67-1.59,28.47-5.9c3.83-4.35,14-21.84,18.18-39.77,0,0,.62,10.34-5.65,27.51-2.11,5.77-4.38,12.02-7.66,17.97,0,0-2.96,2.42-16.18,2.8-11.2.32-14.35-1.14-17.14-2.61Z"/>
              <path class="cls-1" d="m113,173.66c.82-1.69,1.64-3.37,2.41-5.08.79-1.71,1.55-3.44,2.28-5.19,1.46-3.48,2.82-7.01,4.01-10.59.59-1.79,1.15-3.59,1.65-5.41.5-1.82.97-3.64,1.36-5.49.81-3.68,1.36-7.42,1.6-11.17.23-3.76.12-7.53-.45-11.25-.56-3.71-1.63-7.35-3.29-10.71-1.65-3.37-3.92-6.43-6.67-8.98-1.38-1.27-2.87-2.42-4.46-3.42-1.59-.99-3.28-1.87-5.04-2.46h0s-.13-.04-.13-.04v-.13s1.27-31.37,1.27-31.37l.48.4h0c-2.07.45-4.14.8-6.23,1.08-1.05.14-2.09.26-3.14.34-.52.05-1.05.09-1.58.11l-1.59.08c-1.05,0-2.09.04-3.15,0-1.06-.02-2.11-.07-3.16-.13-2.1-.14-4.2-.33-6.29-.6l.44-.41h0s2.01,31.3,2.01,31.3v.15s-.14.05-.14.05h0c-1.71.64-3.34,1.56-4.86,2.59-1.52,1.04-2.95,2.22-4.26,3.51-2.62,2.59-4.76,5.67-6.3,9.02-1.55,3.35-2.53,6.95-3.03,10.61-.53,3.66-.59,7.38-.33,11.07.28,3.69.84,7.37,1.67,10.99.4,1.81.87,3.61,1.38,5.39.5,1.79,1.07,3.56,1.66,5.32,2.4,7.03,5.39,13.86,8.71,20.52l-.06-.06h0c1.27.59,2.64,1,4,1.36,1.37.35,2.77.61,4.17.82,1.4.21,2.81.34,4.23.45,1.42.1,2.83.13,4.25.15l4.25-.21,2.12-.21c.7-.08,1.41-.11,2.11-.25l2.1-.33c.7-.12,1.38-.3,2.08-.45.69-.15,1.36-.38,2.04-.57.65-.24,1.31-.47,1.9-.79Zm.18.22c-.65.36-1.32.59-1.99.83-.69.19-1.37.43-2.06.58-.7.15-1.39.32-2.09.45l-2.11.34c-.7.13-1.42.16-2.12.25l-2.13.21-4.27.21c-1.42-.01-2.85-.05-4.27-.15-1.42-.1-2.84-.24-4.25-.45-1.41-.21-2.81-.47-4.2-.83-1.38-.36-2.75-.77-4.06-1.38h0s-.04-.02-.04-.02l-.02-.04c-.84-1.66-1.69-3.32-2.49-5-.81-1.68-1.59-3.37-2.34-5.07-1.51-3.41-2.88-6.88-4.1-10.4-.61-1.76-1.18-3.54-1.7-5.33-.52-1.79-1-3.6-1.41-5.42-.85-3.64-1.44-7.34-1.74-11.06-.28-3.73-.25-7.49.28-11.21.53-3.71,1.54-7.37,3.14-10.77,1.59-3.41,3.78-6.53,6.46-9.16,1.34-1.31,2.81-2.5,4.38-3.53,1.58-1.02,3.22-1.92,5.02-2.56h0s-.14.2-.14.2l-2.39-31.27h0s-.03-.48-.03-.48l.48.06c2.06.27,4.15.46,6.23.6,1.04.06,2.08.11,3.12.13,1.03.05,2.09,0,3.14,0,1.02-.06,2.08-.07,3.11-.19,1.04-.08,2.07-.2,3.11-.34,2.07-.28,4.13-.62,6.16-1.06h0l.5-.11-.03.51-1.71,31.35-.12-.17h0c1.83.58,3.54,1.44,5.17,2.42,1.63.99,3.16,2.13,4.57,3.42,2.81,2.57,5.14,5.68,6.83,9.09,1.71,3.41,2.81,7.11,3.4,10.87.6,3.76.67,7.59.43,11.38-.26,3.79-.83,7.55-1.66,11.25-.4,1.85-.88,3.69-1.39,5.51-.51,1.82-1.08,3.63-1.68,5.43-1.21,3.59-2.58,7.13-4.08,10.6-.75,1.74-1.53,3.46-2.34,5.17-.8,1.72-1.65,3.41-2.49,5.1l-.02.04-.03.02Z"/>
              <g>
                <g class="cls-6">
                  <path class="cls-23" d="m110.94,13.53c-.04,2.25-.13,4.48-.27,6.72-.69,11.17-1.67,22.28-3.12,33.38-1.06,8.08-1.58,16.25-1.88,24.39-.25,7.01-1.26,13.95-1.86,20.94-.26,3.05-.61,6.1-.93,9.14-.71.14-1.41.26-2.13.36-.13.03-.26.04-.39.05.39-4.54.84-9.08,1.33-13.62,0-.11.03-.22.03-.33,1.62-15.14,2.11-30.33,3.44-45.49.96-11.04,2.11-22.11,2.64-33.19.07-1.46-.45-7.34,2.08-7.15.96.07,1,.59,1.21,1.29.26.89-.13,2.58-.15,3.49Z"/>
                  <path class="cls-23" d="m92.79,108.64c-.24-.03-.49-.05-.73-.09-.61-.07-1.21-.17-1.83-.29-.56-3.82-1.08-7.63-1.57-11.45-1.95-15.21-5.04-30.21-7.29-45.36-1.63-10.97-3.08-22-5.15-32.9-.27-1.42-2.14-7.02.36-7.43.94-.16,1.11.34,1.48.98.45.8.46,2.53.66,3.43.48,2.19.91,4.38,1.3,6.59,1.93,11.03,3.56,22.06,4.73,33.19.86,8.1,2.24,16.17,3.85,24.17.72,3.56,1.23,7.14,1.7,10.73.45,3.35.86,6.73,1.36,10.07.42,2.78.77,5.56,1.13,8.36Z"/>
                  <path class="cls-23" d="m98.08,108.75c-.83.05-1.66.07-2.49.05-.15-3.83-.26-7.66-.34-11.48-.31-15.34-1.78-30.58-2.41-45.89-.45-11.07-.72-22.2-1.62-33.26-.12-1.45-1.38-7.21,1.14-7.35.96-.05,1.07.45,1.36,1.13.37.85.19,2.57.3,3.48.24,2.24.44,4.45.59,6.7.74,11.17,1.19,22.31,1.17,33.5-.02,8.15.51,16.32,1.25,24.44.65,6.99.53,14,.83,21.01.1,2.55.16,5.11.21,7.67Z"/>
                </g>
                <g class="cls-6">
                  <path class="cls-42" d="m106.36,13.53c-.03,2.25-.1,4.48-.19,6.72-.47,11.17-1.15,22.28-2.16,33.38-.72,8.08-1.09,16.25-1.29,24.39-.14,5.54-.6,11.03-1,16.54-.1,1.47-.21,2.93-.3,4.4-.19,3.17-.44,6.33-.67,9.5-.13.03-.26.04-.39.05-.45.06-.88.11-1.33.15.28-4.59.59-9.19.93-13.77,1.14-15.25,1.48-30.55,2.4-45.82.67-11.04,1.47-22.11,1.83-33.19.05-1.46-.31-7.34,1.44-7.15.66.07.7.59.84,1.29.17.89-.1,2.58-.1,3.49Z"/>
                  <path class="cls-42" d="m93.81,108.72c-.34-.02-.68-.05-1.01-.09-.24-.03-.49-.05-.73-.09-.4-3.91-.77-7.83-1.12-11.74-.19-2.2-.41-4.4-.64-6.6-1.32-12.96-3.07-25.8-4.41-38.76-1.13-10.97-2.13-22-3.56-32.9-.19-1.42-1.48-7.02.24-7.43.66-.16.77.34,1.02.98.31.8.32,2.53.46,3.43.33,2.19.63,4.38.9,6.59,1.34,11.03,2.46,22.06,3.28,33.19.59,8.1,1.55,16.17,2.67,24.17.95,6.88,1.4,13.86,2.11,20.8.3,2.8.53,5.62.79,8.45Z"/>
                </g>
              </g>
              <path class="cls-8" d="m81.06,56.22l-.25,4.69s8.34.11,15.04-1l.48-2.49s-10.48.13-15.27-1.2Z"/>
              <path class="cls-5" d="m110.9,53.58l1.15,7.2-4.11,1.63-1.49,31.36s17.39,5.65,19.75,28.56c2.28,22.14-13.09,51.45-13.09,51.45l-.03,4.35s-7.16,3.44-18.77,2.83c0,0,9.95-.93,10.2-2.85.04-.33-18.01.67-24.72-4.14,0,0-2.96-5.98-3.83-8.28,46.09-8.05,43.91-59.73,20.37-71.53l-.75-26.63s-8.48-.88-12.71-4.09c4.64.65,9.49.85,15.77.29l-.49-7.72s3.8-.18,12.76-2.43Z"/>
              <path class="cls-1" d="m112.57,60.88c-.2-.62-.33-1.25-.46-1.88-.13-.63-.23-1.27-.31-1.91-.16-1.29-.28-2.58-.25-3.9-.04.05-.09.1-.11.11-.13.1-.3.19-.53.29-.08.03-.17.07-.26.11h.12c.31,1.14.53,2.29.69,3.45.08.64.16,1.28.2,1.93.03.52.05,1.04.05,1.57l-1.73.5c-.68.19-1.35.42-2.04.56l-2.06.48c-.68.18-1.38.27-2.07.4-.69.11-1.38.26-2.08.35l-2.09.25c-.69.1-1.39.13-2.09.18-.7.04-1.39.12-2.09.12l-2.09.05-2.09-.04c-.7,0-1.39-.07-2.08-.11-.69-.03-1.38-.11-2.07-.18-.69-.06-1.37-.16-2.06-.26-.69-.08-1.36-.23-2.04-.34-1.26-.25-2.52-.53-3.73-.9-.06-1.22.02-2.43.15-3.64.14-1.18.33-2.35.63-3.51-.25-.09-.5-.2-.75-.33.06,1.28-.02,2.55-.14,3.82-.14,1.33-.34,2.65-.73,3.95l-.1.32.38.12c1.37.43,2.73.73,4.11,1,.69.11,1.38.26,2.08.34.7.09,1.39.2,2.09.26.7.07,1.4.15,2.1.18.7.03,1.4.11,2.11.11l2.11.04,2.12-.05c.71,0,1.41-.08,2.12-.12.71-.06,1.41-.08,2.12-.19l2.11-.26c.7-.09,1.4-.24,2.11-.35.7-.13,1.41-.23,2.1-.4l2.09-.48c.7-.14,1.38-.37,2.07-.56l2.47-.79-.09-.29Z"/>
              <path class="cls-1" d="m111.53,53.2s0,.01-.02.04c0,.03-.14.19-.18.2-.13.1-.3.18-.53.29-.46.21-1.13.45-2,.71-1.73.52-4.25,1.1-7.3,1.45-3.04.37-6.61.58-10.4.41-1.89-.09-3.84-.27-5.81-.55-.98-.14-1.97-.31-2.95-.52-.99-.24-1.95-.38-2.93-.91-.04-.04-.06-.04-.11-.13-.01-.06-.05-.05-.02-.17,0-.02,0-.02.02-.05.1-.15.18-.16.24-.2.13-.06.25-.11.37-.15.25-.08.49-.15.74-.21.49-.12.99-.22,1.49-.32.99-.18,1.99-.33,2.97-.47,1.98-.26,3.93-.45,5.83-.59,3.8-.25,7.35-.32,10.4-.26,3.05.07,5.59.27,7.36.5.88.11,1.58.24,2.05.36.24.06.42.12.55.19.06.03.13.08.17.14.05.09.05.15.05.15v.06Zm-.39-.05s-.01.03.01.06c0,.01,0,0-.05-.03-.08-.04-.24-.11-.46-.16-.44-.12-1.12-.25-2-.38-1.75-.25-4.27-.49-7.31-.61-3.04-.12-6.59-.12-10.38.21-1.89.15-3.84.35-5.81.65-.98.15-1.97.31-2.95.51-.49.1-.98.21-1.46.34-.24.07-.48.13-.71.22-.11.04-.23.09-.33.14-.05.02-.08.07-.07.02,0,0-.01.03-.02.04,0-.08.01-.05,0-.08-.03-.03.01,0,.01,0,.79.4,1.85.59,2.8.79.97.19,1.96.33,2.93.46,1.95.24,3.89.38,5.77.43,3.76.12,7.3-.12,10.3-.52,3.01-.42,5.5-.9,7.23-1.33.86-.21,1.53-.41,1.97-.58.22-.08.38-.16.45-.21.06-.05-.01.03.03.01.01-.03.02-.04.02-.04v.06Z"/>
            </g>
            <g>
              <path class="cls-33" d="m173.25,95.54h-56.63s2.82,87.54,2.82,87.56c0,.83,10.53,3.7,25.45,3.7s25.13-2.79,25.42-3.66l2.94-87.6Z"/>
              <path class="cls-12" d="m118.4,96.36l3.85,86.39s13.44,3.86,33.13,2.03l3.12-86.71s-22.58,1.9-40.11-1.71Z"/>
              <path class="cls-31" d="m173.25,95.54c0,1.41-12.68,5.47-28.32,5.47s-28.32-4.07-28.32-5.47,12.68-4.74,28.32-4.74,28.32,3.34,28.32,4.74Z"/>
              <path class="cls-11" d="m144.93,90.8c-15.64,0-28.32,3.34-28.32,4.74s12.68,5.47,28.32,5.47,28.32-4.07,28.32-5.47-12.68-4.74-28.32-4.74Zm0,8.43c-13.54,0-24.51-2.42-24.51-3.64s10.97-4.1,24.51-4.1,24.51,2.89,24.51,4.1-10.97,3.64-24.51,3.64Z"/>
              <path class="cls-31" d="m120.43,95.59s10.92-7.2,24.96-7.2,24.05,7.2,24.05,7.2h-49.02Z"/>
              <g class="cls-25">
                <path class="cls-33" d="m169.44,95.59s.06-.35-.99-.77c-2.17-1-10.65-6.43-23.07-6.43-.13,0-.26.01-.39.01l-.06,2.72s20.55,5.16-10.37,7.63c4.82.44,13.89.67,21.46-.09,4.9-.49,13.45-2.03,13.42-3.07Z"/>
              </g>
              <path class="cls-33" d="m152.83,89.75c0,.35-3.54,1.36-7.9,1.36s-7.9-1.01-7.9-1.36,3.54-1.18,7.9-1.18,7.9.83,7.9,1.18Z"/>
              <g>
                <path class="cls-27" d="m148.2,79.43c-2.14,3.81-2.62,10.73-2.87,10.73s-.81-6.65.55-11.39l2.32.66Z"/>
                <path class="cls-27" d="m148.27,79.4c-.13.42-.79.63-1.47.47s-1.13-.64-.99-1.06.79-.63,1.48-.47c.68.16,1.13.64.99,1.06Z"/>
              </g>
              <path class="cls-12" d="m144.93,101.01c-9.93,0-18.66-1.64-23.71-3.2h0l3.85,80.64s13.38,5.13,26.93,1.86l1.77-79.73h0c-2.78.26-5.74.42-8.83.42Z"/>
              <g>
                <g class="cls-7">
                  <path class="cls-33" d="m134.23,134c-2.31-.38-4.36-.78-6.18-1.19-6.29-.12-10.08-.52-10.17-.54-.02,0-.04,0-.06,0l.04,1.17c.77.08,5.8.56,13.59.56.89,0,1.82,0,2.78-.02Z"/>
                  <path class="cls-33" d="m134.32,132.82c2.09.34,4.4.66,6.92.95,8.85-.45,19.54-1.58,30.89-4.1l.04-1.21s-.02,0-.03,0c-14.51,3.24-27.94,4.21-37.82,4.36Z"/>
                  <path class="cls-33" d="m134.23,134c6.81,1.12,15.8,2,27.18,2,3.3,0,6.81-.08,10.52-.24l.04-1.17s-.01,0-.02,0c-12.56.56-22.72.08-30.71-.81-2.52-.28-4.83-.6-6.92-.95-11.14-1.83-16.28-4.27-16.37-4.31-.08-.04-.17-.06-.25-.06l.04,1.25c.96.42,4.3,1.76,10.32,3.11,1.81.4,3.87.81,6.18,1.19Z"/>
                  <path class="cls-33" d="m171.79,139.97l.04-1.18s-.06,0-.09,0c-30.99,5.24-53.37-1.42-53.59-1.49-.06-.02-.11-.02-.17-.02l.04,1.2c1.66.47,12.97,3.48,29.87,3.48,7.08,0,15.16-.53,23.9-2Z"/>
                  <path class="cls-33" d="m129.45,145.6c-3.6-.19-7.33-.53-11.15-1.09-.03,0-.05,0-.08,0l.04,1.18c6.07.87,11.9,1.23,17.37,1.25-2.21-.44-4.28-.9-6.17-1.34Z"/>
                  <path class="cls-33" d="m135.77,145.77c1.85.37,3.81.73,5.83,1.07,16.33-.66,28.15-4.06,30.12-4.66l.04-1.22s-.07,0-.11.01c-.19.06-15.24,4.87-35.89,4.81Z"/>
                  <path class="cls-33" d="m135.63,146.94c7.95,1.59,17.66,2.99,27.27,2.99,2.89,0,5.77-.13,8.59-.42l.04-1.18c-9.94,1.03-20.69.04-29.92-1.49-2.03-.34-3.98-.7-5.83-1.07-10.21-2.05-17.46-4.41-17.6-4.46-.02,0-.03,0-.05,0l.04,1.24c1.2.38,5.38,1.66,11.3,3.05,1.89.45,3.96.9,6.17,1.34Z"/>
                </g>
                <g>
                  <path class="cls-35" d="m131.45,133.28c-8.39,0-13.59-.56-13.7-.57-.31-.03-.52-.31-.49-.61.03-.31.31-.53.61-.49.25.03,25.1,2.71,54.26-3.81.31-.07.6.12.66.42.07.3-.12.6-.42.66-16.05,3.59-30.81,4.41-40.93,4.41Z"/>
                  <path class="cls-35" d="m161.42,135.26c-30.47,0-43.82-6.36-43.97-6.43-.28-.13-.39-.47-.26-.74.14-.27.47-.39.74-.26.16.08,16.37,7.76,54.01,6.07.32-.03.57.22.58.53.01.31-.22.57-.53.58-3.73.17-7.26.24-10.58.24Z"/>
                  <path class="cls-35" d="m147.89,141.23c-18.19,0-29.91-3.49-30.07-3.54-.29-.09-.46-.4-.37-.69.09-.29.4-.46.7-.37.22.07,22.6,6.73,53.6,1.49.3-.04.59.15.64.46.05.3-.15.59-.46.64-8.8,1.49-16.92,2.02-24.04,2.02Z"/>
                  <path class="cls-35" d="m136.16,146.21c-5.65,0-11.72-.36-18.03-1.28-.3-.04-.51-.33-.47-.63.04-.3.33-.52.63-.47,29.07,4.22,53.13-3.47,53.37-3.55.29-.1.61.06.7.36.09.29-.06.61-.36.7-.19.06-15.21,4.87-35.85,4.87Z"/>
                  <path class="cls-35" d="m162.89,149.19c-22.09,0-44.83-7.41-45.09-7.5-.29-.1-.45-.41-.35-.7.1-.29.4-.45.7-.35.29.1,29.44,9.6,53.62,6.99.3-.03.58.19.61.49.03.31-.19.58-.49.61-2.95.32-5.97.46-9.01.46Z"/>
                </g>
              </g>
              <g>
                <path class="cls-35" d="m134.55,134.11c-.11,0-.23-.03-.33-.09-6.62-3.83-11.02-5.25-14.24-6.29-2.4-.78-4.13-1.34-5.67-2.5-2.34-1.77-2.18-3.53-1.88-4.43.8-2.38,4.06-3.85,6.63-3.85.96,0,1.81.19,2.55.55,6.05,3.04,11.43,12.06,13.19,15.02l.34.56c.16.26.12.6-.09.81-.13.13-.3.2-.48.2Zm-15.5-15.82c-2.33,0-4.84,1.37-5.36,2.93-.33.99.15,1.97,1.42,2.94,1.36,1.03,3,1.56,5.28,2.3,2.9.94,6.76,2.19,12.3,5.17-2.29-3.71-6.82-10.48-11.69-12.93-.54-.27-1.21-.41-1.95-.41Z"/>
                <path class="cls-35" d="m134.55,134.19c-.19,0-.38-.08-.51-.24-.2-.23-.21-.57-.03-.82,7.42-10.45,13.59-12.64,17.46-12.64,2.57,0,4.9,1.01,6.41,2.76,1.05,1.22,1.56,2.7,1.37,3.94-.38,2.48-3.25,2.68-7.22,2.95-4.4.3-10.43.72-17.18,3.97-.09.04-.19.07-.29.07Zm16.92-12.36c-2.72,0-8.11,1.36-14.88,10.06,6.03-2.43,11.34-2.8,15.34-3.07,3.8-.26,5.79-.46,6-1.83.13-.87-.26-1.94-1.06-2.87-1.25-1.46-3.22-2.3-5.39-2.3Z"/>
                <path class="cls-35" d="m145.23,160.77c-1.85,0-3.51-.57-4.95-1.7-7.44-5.84-6.44-24.79-6.4-25.59.02-.37.34-.65.7-.63.37.02.65.34.63.7-.01.19-1,19.06,5.89,24.46,1.91,1.5,4.2,1.8,7.01.94.36-.11.73.09.83.44.11.35-.09.73-.44.83-1.15.35-2.24.53-3.27.53Z"/>
                <path class="cls-35" d="m126.44,169.97c-.28,0-.54-.17-.63-.45-5.7-16.49,7.63-35.66,8.2-36.47.21-.3.63-.37.93-.16.3.21.37.63.16.93-.14.19-13.5,19.42-8.03,35.26.12.35-.06.73-.41.85-.07.02-.15.04-.22.04Z"/>
                <g class="cls-15">
                  <path class="cls-35" d="m148.51,159.92c-1.15.35-2.25.53-3.28.53-1.86,0-3.53-.57-4.97-1.71-5.75-4.51-6.47-16.82-6.48-22.59-.02,5.6.61,18.34,6.48,22.94,1.45,1.14,3.11,1.71,4.97,1.71,1.03,0,2.13-.18,3.28-.53.37-.11.57-.5.47-.87-.06.24-.22.44-.47.52Z"/>
                </g>
                <path class="cls-35" d="m134.43,135.3s-.05,0-.07,0c-.42.03-.78-.28-.81-.7-.15-2,.41-3.83.43-3.91.12-.4.54-.62.94-.5.4.12.62.54.5.94,0,.02-.49,1.65-.37,3.35.03.39-.25.73-.62.8Z"/>
                <path class="cls-16" d="m134.24,133.94c-.26,0-.5-.11-.71-.29,0,.31,0,.63.02.95.03.42.39.73.81.7.03,0,.05,0,.07,0,.38-.07.65-.41.62-.8-.02-.31-.02-.62,0-.92-.24.23-.51.37-.81.37Z"/>
                <g>
                  <path class="cls-16" d="m126.67,169.62c-.08.03-.15.04-.23.04-.29,0-.57-.18-.67-.48-1.04-2.99-1.44-6.08-1.41-9.12-.06,3.16.33,6.36,1.41,9.47.1.29.37.48.67.48.08,0,.15-.01.23-.04.35-.12.54-.5.44-.85-.06.22-.21.42-.44.5Z"/>
                  <g class="cls-15">
                    <path class="cls-35" d="m134.01,135.24c-2.54,4.14-8.46,15-8.2,25.92-.13-11.07,6-22.03,8.39-25.87-.07,0-.13-.02-.19-.05Z"/>
                  </g>
                </g>
                <g>
                  <path class="cls-16" d="m139.31,128.74c5.48-5.86,9.82-6.88,12.15-6.88,2.17,0,4.12.83,5.36,2.28.59.69.96,1.46,1.06,2.16,0-.79-.36-1.7-1.06-2.51-1.24-1.45-3.2-2.28-5.36-2.28-2.7,0-8.8,1.91-15.51,10.5.28-.11.55-.2.83-.31.87-1.1,1.71-2.09,2.53-2.96h0Z"/>
                  <path class="cls-16" d="m159.29,126.2c0,.22.02.44-.01.65-.39,2.51-3.27,2.71-7.26,2.99-4.36.3-10.31.72-16.98,3.89,0,.12,0,.23,0,.35,6.67-3.17,12.63-3.59,16.98-3.89,3.99-.27,6.87-.47,7.26-2.99.05-.32.05-.66.01-1Z"/>
                </g>
                <g>
                  <path class="cls-16" d="m120.98,118.38c-.53-.27-1.2-.41-1.93-.41-2.32,0-4.81,1.36-5.32,2.91-.09.26-.11.52-.09.77.01-.14.04-.28.09-.42.52-1.55,3.01-2.91,5.32-2.91.73,0,1.4.14,1.93.41,4.81,2.42,9.29,9.05,11.59,12.78.17.09.34.18.51.27-2.3-3.73-7.3-10.99-12.11-13.41Z"/>
                  <g class="cls-15">
                    <path class="cls-35" d="m133.54,133.33c-6.24-3.53-10.47-4.92-13.58-5.92-2.4-.78-4.14-1.34-5.68-2.51-1.59-1.2-2.02-2.39-2.06-3.32-.07.97.26,2.32,2.06,3.68,1.54,1.17,3.28,1.73,5.68,2.51,3.1,1,7.33,2.39,13.56,5.91,0-.12,0-.23.01-.35Z"/>
                  </g>
                </g>
              </g>
              <path class="cls-41" d="m119.44,183.1s25.37,7.08,50.87,0c0,0-5.2,3.99-24.31,3.93-24.04-.41-26.56-3.93-26.56-3.93Z"/>
            </g>
            <g>
              <path class="cls-32" d="m198.69,144.8h-49.61s1.83,46.64,1.85,46.66c.4.38,9.84,5.92,22.91,5.92,18.33-1.24,22.95-6.08,22.95-6.08l1.89-46.49Z"/>
              <path class="cls-32" d="m150.65,146.17l2.76,44.49s12.39,6.42,29.64,3.37l2.73-45.02s-19.78,3.16-35.13-2.84Z"/>
              <path class="cls-28" d="m198.69,144.8c0,1.45-11.1,5.66-24.8,5.66s-24.8-4.21-24.8-5.66,11.1-4.9,24.8-4.9,24.8,3.45,24.8,4.9Z"/>
              <path class="cls-32" d="m173.89,150.46c8.13,0,15.3-1.64,19.55-3.22-2.19-1.4-10.1-3.52-19.55-3.52s-17.36,2.12-19.55,3.52c4.24,1.58,11.41,3.22,19.55,3.22Z"/>
              <path class="cls-21" d="m173.89,139.9c-13.7,0-24.8,3.45-24.8,4.9s11.1,5.66,24.8,5.66,24.8-4.21,24.8-5.66-11.1-4.9-24.8-4.9Zm0,8.71c-11.86,0-21.47-2.51-21.47-3.76s9.61-4.24,21.47-4.24,21.47,2.99,21.47,4.24-9.61,3.76-21.47,3.76Z"/>
              <path class="cls-32" d="m180.81,146.08c0,.36-3.1,1.41-6.92,1.41s-6.92-1.05-6.92-1.41,3.1-1.22,6.92-1.22,6.92.86,6.92,1.22Z"/>
              <path class="cls-27" d="m177.35,133.45c-2.21,4.52-2.71,12.72-2.97,12.72s-.84-7.89.57-13.51l2.4.79Z"/>
              <path class="cls-27" d="m177.43,133.4c-.14.5-.82.75-1.52.56-.7-.19-1.16-.76-1.03-1.26.14-.5.82-.75,1.52-.56.7.19,1.16.76,1.03,1.26Z"/>
              <path class="cls-21" d="m154.36,147.58l2.65,40.26s7.86,3.92,17.08,2.88l3.36-40.35-23.09-2.78Z"/>
              <path class="cls-28" d="m150.94,191.46s21.35,11.66,45.86-.17c0,0-5.26,6.08-22.95,6.08s-22.91-5.92-22.91-5.92Z"/>
            </g>
            <g>
              <path class="cls-2" d="m65.8,121.76c-2.31-4.52-7.3-2.4-7.5-6.84-.14-3.23,5.05-4.49,5.05-4.49v-6.73h-.07c-.23-.49-6.81-1.59-14.9-1.59s-14.67,1.09-14.9,1.59h-.07v6.73s5.19,1.26,5.05,4.49c-.19,4.44-5.18,2.32-7.5,6.84-5.53,10.8-4.48,46.75-.74,51.06,6.04,6.97,30.29,6.96,36.32,0,3.74-4.31,4.79-40.26-.74-51.06Z"/>
              <g class="cls-22">
                <path class="cls-1" d="m64.19,123.53c-2.1-4.1-6.38-3.21-7.32-7.47-.64-2.86,1.15-4.67,1.15-4.67h0c-2.6.28-5.96.5-9.64.5s-7.04-.22-9.64-.5h0s1.79,1.81,1.15,4.67c-.95,4.26-5.22,3.36-7.32,7.47-5.02,9.8-4.06,42.43-.67,46.34,2.74,3.16,9.61,4.74,16.48,4.74,6.87,0,13.74-1.58,16.48-4.74,3.39-3.91,4.35-36.54-.67-46.34Z"/>
              </g>
              <g>
                <path class="cls-13" d="m40.22,103.69l1.04,5.97c4.39,1,8.18.77,14.31,0l.96-5.97h-16.31Z"/>
                <path class="cls-14" d="m40.22,103.69s4.2,1.42,10.45,1.97c0,.51,0,2.29-.11,3.24-1.69,1.39-9.31.75-9.31.75,4.39,1,8.18.77,14.31,0l.96-5.97h-16.31Z"/>
                <g>
                  <circle class="cls-14" cx="42.36" cy="105.91" r=".44"/>
                  <path class="cls-14" d="m50.07,108.03c0,.17-.14.31-.31.31s-.31-.14-.31-.31.14-.31.31-.31.31.14.31.31Z"/>
                  <path class="cls-14" d="m47.55,106.22c0,.17-.14.31-.31.31s-.31-.14-.31-.31.14-.31.31-.31.31.14.31.31Z"/>
                </g>
              </g>
              <path class="cls-1" d="m65.54,121.92c-.19-.31-.36-.68-.58-.94-.2-.28-.43-.55-.7-.79-.25-.25-.55-.46-.85-.65-.31-.19-.63-.36-.96-.52-.67-.31-1.38-.54-2.08-.87-.35-.16-.69-.34-1-.6-.16-.12-.31-.25-.43-.41-.14-.15-.25-.3-.34-.49-.21-.34-.3-.73-.37-1.11l-.07-.57c0-.22.01-.38.02-.58.05-.39.19-.79.38-1.13.2-.34.44-.64.72-.92.55-.55,1.2-.97,1.88-1.33.68-.35,1.38-.65,2.13-.88h0s-.23.29-.23.29c.14-1.12.16-2.24.15-3.37-.01-1.12-.04-2.24-.15-3.37h0s.3.3.3.3h-.07l.27-.43s.04.09.05.13c0,.05.02-.07-.01.13h0s0,.02,0,.02c0,0-.02.05-.07.12-.12.13-.16.13-.2.16-.09.05-.18.08-.26.11-.16.06-.32.1-.48.14-.32.08-.63.15-.94.21-.63.12-1.25.21-1.88.3-1.26.17-2.52.3-3.78.4-2.52.2-5.05.3-7.58.3-2.53,0-5.06-.1-7.58-.3-1.26-.1-2.52-.23-3.78-.4-.63-.09-1.26-.18-1.88-.3-.31-.06-.63-.13-.94-.21-.16-.04-.32-.08-.48-.14-.08-.03-.16-.06-.26-.11-.05-.03-.09-.04-.17-.11-.02-.02-.07-.05-.11-.17-.01-.07-.04-.05-.01-.19l.02-.02.29.37h-.07s.3-.3.3-.3c-.08,1.12-.11,2.24-.12,3.37-.01,1.12,0,2.24.12,3.37h0s-.23-.29-.23-.29c1.62.55,3.22,1.29,4.36,2.62.56.67.85,1.58.73,2.44-.05.82-.41,1.75-1.11,2.28-.69.56-1.51.83-2.28,1.14-.78.3-1.54.63-2.2,1.1-1.38.9-2.05,2.49-2.62,4.03-1.09,3.13-1.63,6.44-2.05,9.74-.4,3.31-.61,6.64-.72,9.97-.1,3.33-.09,6.67.02,10,.12,3.33.33,6.66.73,9.96.2,1.65.44,3.29.79,4.9.17.8.38,1.6.63,2.36.28.77.56,1.47,1.07,1.97,1.1,1.15,2.51,1.91,4.02,2.53,1.5.61,3.09,1.05,4.7,1.38,3.22.64,6.54.88,9.84.79,3.29-.07,6.6-.43,9.76-1.29,1.57-.43,3.11-1,4.51-1.79,1.36-.79,2.72-1.8,3.11-3.23,1.05-3.03,1.41-6.41,1.76-9.69.59-6.63.74-13.31.44-19.97-.17-3.33-.42-6.65-.91-9.95-.52-3.27-1.12-6.6-2.55-9.56v.02Zm.53-.29c.78,1.52,1.3,3.14,1.73,4.77.42,1.63.76,3.28,1.02,4.94.54,3.32.85,6.66,1.07,10.01.38,6.7.39,13.42-.2,20.12-.15,1.68-.34,3.35-.6,5.02-.27,1.67-.58,3.34-1.17,4.99-.13.39-.37.89-.6,1.27-.15.19-.18.3-.42.56l-.47.49c-.66.6-1.38,1.13-2.14,1.56-1.52.87-3.14,1.47-4.78,1.93-3.3.91-6.69,1.3-10.07,1.39-3.39.06-6.78-.22-10.11-.92-1.66-.36-3.31-.83-4.9-1.49-1.57-.66-3.15-1.54-4.37-2.83-.68-.69-1.02-1.6-1.3-2.4-.26-.83-.47-1.66-.64-2.49-.34-1.66-.57-3.33-.75-5.01-.71-6.69-.8-13.41-.51-20.11.16-3.35.42-6.7.87-10.02.47-3.32,1.05-6.64,2.22-9.83.31-.81.61-1.55,1.07-2.31.43-.75,1.04-1.4,1.76-1.87,1.41-1.02,3.21-1.2,4.5-2.16.64-.5.97-1.24,1.03-2.08.1-.8-.16-1.6-.68-2.22-1.08-1.21-2.71-1.87-4.27-2.22-.13-.03-.22-.14-.23-.27v-.02s0,0,0,0c.12-1.12.13-2.24.12-3.37,0-1.12-.04-2.24-.12-3.37-.01-.15.1-.29.26-.3h0s.04,0,.04,0h0s.07,0,.07,0h.12c.13,0,.23.1.23.23,0,.05-.02.1-.05.14l-.02.02c0-.12,0-.08,0-.13-.03-.08-.05-.08-.04-.08-.02-.01.01,0,.03.02.05.02.11.05.18.07.13.05.28.09.43.13.3.08.6.14.9.2.61.12,1.23.21,1.85.3,1.24.17,2.49.3,3.74.4,2.51.2,5.02.3,7.53.3,2.51,0,5.03-.1,7.53-.3,1.25-.1,2.5-.23,3.74-.4.62-.09,1.24-.18,1.85-.3.31-.06.61-.12.9-.2.15-.04.29-.08.43-.13.07-.02.13-.05.18-.07.02,0,.06-.05,0,.03-.02.04-.01.06,0,.03h0s0-.02,0-.02l-.02.12s0,.06.01.08l.27-.43h.07c.17,0,.3.14.3.3h0c-.1,1.12-.14,2.24-.15,3.37-.01,1.12,0,2.24.15,3.37.01.11-.05.22-.15.26l-.08.03h0c-1.4.33-2.84.89-3.91,1.87-.26.25-.49.53-.67.84-.18.32-.29.64-.35.99,0,.18-.03.39-.03.54l.06.54c.08.35.16.71.36,1,.08.16.18.3.31.42.11.14.25.25.39.35.28.22.61.38.94.53.67.29,1.39.51,2.1.8.35.15.7.31,1.04.51.33.2.66.41.95.68.3.25.57.54.82.86.27.31.42.63.63.95v.02Z"/>
              <path class="cls-1" d="m48.38,105.59c-6.13,0-15.23-.78-15.23-1.86s9.24-1.91,15.23-1.91,15.23.82,15.23,1.91-9.09,1.86-15.23,1.86Zm-14.32-1.86c1.53.47,7.27,1.26,14.32,1.26s12.78-.79,14.32-1.26c-1.54-.49-7.28-1.31-14.32-1.31s-12.78.82-14.32,1.31Z"/>
              <path class="cls-1" d="m63.59,110.43s0,0,0,.02c0,0,0,.03-.08.13-.09.1-.14.12-.18.14-.06.03-.1.05-.16.08-.23.1-.56.19-.97.28-.82.19-1.99.4-3.4.57-2.83.35-6.61.61-10.4.62-3.79-.01-7.57-.27-10.4-.62-1.41-.17-2.58-.38-3.4-.57-.41-.1-.73-.19-.97-.28-.12-.06-.21-.09-.31-.18-.02-.02-.04-.04-.06-.06-.03-.04-.05-.09-.06-.12-.02-.07-.02-.11-.02-.11,0-.17.14-.3.3-.3s.3.14.3.3c0,0,0-.02,0-.07,0-.02-.02-.05-.04-.07,0,0,0-.01,0-.01-.02-.01.05.03.13.06.18.07.48.15.88.23.79.17,1.95.33,3.35.5,2.8.32,6.56.55,10.32.53,3.76.01,7.52-.21,10.31-.54,1.4-.16,2.56-.33,3.35-.5.39-.08.7-.17.88-.23.04-.02.08-.03.1-.04.03-.01.04-.03,0,.03-.03.06,0,.06,0,.03,0-.01,0-.02,0-.02v-.03c.08-.15.26-.22.41-.16.15.06.22.24.16.39Z"/>
              <path class="cls-4" d="m58.04,103.72c0,.31-4.32.76-9.66.76s-9.66-.45-9.66-.76,4.32-1.04,9.66-1.04,9.66.73,9.66,1.04Z"/>
              <path class="cls-34" d="m59.19,92.31c0,.34-3.64.87-8.92.96-6.36.1-12.7-.48-12.79-.96-.09-.48,6.05-1.48,12.56-1.34,5.39.12,9.14,1.01,9.15,1.34Z"/>
              <path class="cls-13" d="m50.27,93.27c-6.36.1-12.7-.48-12.79-.96l2.75,11.43c0,.32,4.5.73,9.29.68,4.12-.04,7.08-.41,7.1-.65l2.56-11.46c0,.34-3.64.87-8.92.96Z"/>
              <g>
                <path class="cls-18" d="m31.37,128.81c-2.98,12.6-1.9,37.03.97,40.34,2.67,3.08,9.35,4.61,16.04,4.61,6.69,0,13.37-1.54,16.04-4.61,2.87-3.31,3.95-27.72.97-40.32H31.37Z"/>
                <path class="cls-9" d="m65.39,128.82h-.53c2.88,12.45,1.84,36.57-.94,39.84-2.59,3.04-9.06,4.56-15.54,4.56-6.48,0-12.96-1.52-15.54-4.56-2.78-3.27-3.82-27.4-.94-39.85h-.53c-2.98,12.6-1.9,37.03.97,40.34,2.67,3.08,9.35,4.61,16.04,4.61,6.69,0,13.37-1.54,16.04-4.61,2.87-3.31,3.95-27.72.97-40.32Z"/>
              </g>
              <path class="cls-30" d="m65.39,128.81c0,.55-7.62,1.78-17.01,1.78s-17.01-1.23-17.01-1.78,7.62-1.85,17.01-1.85,17.01,1.3,17.01,1.85Z"/>
              <path class="cls-9" d="m65.2,128.65c-1.18.56-8.25,1.37-16.82,1.37s-15.64-.82-16.82-1.37c-.11.06-.19.11-.19.16,0,.55,7.62,1.78,17.01,1.78s17.01-1.23,17.01-1.78c0-.05-.08-.1-.19-.16Z"/>
              <path class="cls-5" d="m65.8,121.76c-2.31-4.52-7.3-2.4-7.5-6.84-.14-3.23,5.05-4.49,5.05-4.49v-6.73h-.07s.02.02.02.03c0,.43-5.45,1.35-12.57,1.53v6.6s-10.31-.16-15.45-.75c8.16,2.48,14.21,2.09,14.04,2.33-.54.78-1.01,1.77-.91,2.78.22,2.21,5.48,2.84,6.32,6.84.84,4,7.17,48.64-7.56,52.74-7.8,2.25-18.43-2.03-19.05-10.26.53,3.63,1.24,6.29,2.1,7.28,6.04,6.97,30.29,6.96,36.32,0,3.74-4.31,4.79-40.26-.74-51.06Z"/>
              <path class="cls-8" d="m34.46,105.28v4.03s6.89,1.54,14.42,1.47v-3.77s-9.79-.07-14.42-1.73Z"/>
              <path class="cls-8" d="m44.02,146.4c-.26,13.21-3.35,23.86-6.89,23.79-3.54-.07-6.2-10.84-5.93-24.04.26-13.21,3.35-23.86,6.89-23.79,3.54.07,6.2,10.84,5.93,24.04Z"/>
              <path class="cls-14" d="m50.27,93.27c-6.36.1-12.7-.48-12.79-.96,0,0,.35,2.17,15.25,3.64-.2,1.24-.78,6.69-.86,7.17-2.9,1.45-11.64.61-11.64.61,0,.32,4.5.73,9.29.68,4.12-.04,7.08-.41,7.1-.65l2.56-11.46c0,.34-3.64.87-8.92.96Z"/>
              <g>
                <path class="cls-14" d="m48.85,97.35c0-.29.25-.52.56-.51.31,0,.55.25.55.55,0,.3-.26.53-.56.52-.3-.01-.55-.26-.54-.55Z"/>
                <path class="cls-14" d="m42.12,98.8c.01-.27.22-.47.47-.46.25.01.44.24.43.51-.01.27-.23.48-.48.46-.25-.02-.43-.25-.42-.51Z"/>
                <path class="cls-14" d="m48.21,102.63c0-.31.26-.53.56-.5.31.03.56.31.56.62,0,.31-.26.54-.57.5-.31-.04-.55-.32-.55-.62Z"/>
                <path class="cls-14" d="m45.67,99.87c0-.2.16-.34.35-.33.19.01.34.18.34.38,0,.2-.17.35-.36.33-.19-.01-.34-.19-.33-.38Z"/>
                <path class="cls-14" d="m42.87,101.8c0-.19.16-.33.33-.31.18.02.31.19.3.38,0,.19-.16.33-.34.31-.18-.02-.31-.19-.3-.38Z"/>
                <path class="cls-14" d="m43.75,96.38c0-.18.16-.33.33-.33.18,0,.31.15.31.34,0,.18-.16.33-.33.33-.18,0-.31-.15-.3-.34Z"/>
              </g>
              <path class="cls-17" d="m52.83,93.02c-5.83.07-11.58-.51-11.65-.96-.05-.29,2.29-.79,5.62-1.07-5.2.17-9.4.93-9.32,1.32.09.47,6.43,1.05,12.79.96,2.88-.04,5.24-.22,6.79-.42-1.19.09-2.62.16-4.23.18Z"/>
              <g>
                <path class="cls-17" d="m50.69,92.33c.01.11-.3.2-.7.2-.41,0-.75-.1-.76-.21s.31-.21.72-.2c.4,0,.73.1.75.21Z"/>
                <path class="cls-17" d="m48.13,91.43c0,.1-.25.18-.57.19-.33,0-.6-.08-.61-.18,0-.1.25-.19.58-.19.32,0,.59.08.59.18Z"/>
                <path class="cls-17" d="m53.69,91.63c0,.11-.26.19-.61.18-.35,0-.64-.09-.65-.2,0-.11.27-.19.62-.19.35,0,.63.1.64.2Z"/>
                <path class="cls-17" d="m56.83,92.38c.01.09-.24.16-.57.15-.33,0-.61-.08-.62-.17-.01-.09.25-.16.58-.15.33,0,.6.08.61.17Z"/>
                <path class="cls-17" d="m44.14,91.81c0,.07-.17.13-.38.13-.21,0-.39-.06-.39-.13,0-.07.17-.13.38-.13.21,0,.39.06.39.13Z"/>
              </g>
            </g>
            <g>
              <g>
                <path class="cls-39" d="m143.48,207.6c.07-.03.13-.04.19-.07.01,0,.02,0,.03,0,1.01-.31,2.05-.44,3.06-.66,1.31-.28,2.54-.72,3.49-1.93,1.35-1.72,2.04-4.24,4.06-5.38.19-.1.32-.15.42-.14.45,0,.13.95.16,1.44.05,1.07.39,2.13.93,3.06.56.97,1.38,1.74,2.22,2.46.86.74,1.63,1.53,2.44,2.35.85.84,1.94,1.54,2.63,2.52.36-1.33.65-2.63,1.15-3.91,0-.02.01-.04.01-.05.04-.08.08-.17.12-.26.92-2.16,2.49-4.32,1.54-6.72-.61-1.57-1.75-2.64-3.06-3.53-.21-.14-.42-.28-.64-.42.09,0,.18.02.27.03.35.05.69.1,1.03.16.5.08,1,.18,1.48.3,1.29.28,2.55.65,3.79,1.09.01,0,.02,0,.04.01.68.24,1.36.51,2.01.8.74.32,1.84,1.18,2.5,1.04h0c.27-.06.48-.3.56-.79.41-2.51-1.6-5.85-3.14-7.65-2.24-2.64-5.86-2.76-8.77-1.09-.22.13-.43.27-.62.42-.23.17-.44.35-.64.54.42-1.37.66-2.81.86-4.04.43-2.78-.1-4.9-1.94-7.04-.9-1.05-2.45-2.12-2.97-3.45-.02.08-.03.16-.06.24-.76,3.2-1.87,6.61-1.72,9.93.04.91.18,1.82.44,2.71-.95-1.01-1.99-1.93-3.15-2.59-2.72-1.59-5.53-1.42-8.46-.49-1.46.46-3.84,1.02-4.99,2.16.04.07.09.13.15.2.58.65,1.79,1.01,2.49,1.58,1.68,1.33,3.06,2.82,5.08,3.65.86.36,1.76.62,2.68.8.81.15,1.79.06,2.56.29-.06.09-.16.16-.26.24-.64.42-1.85.56-2.45.8-1.68.69-3.29,1.58-4.15,3.25-.89,1.73-.58,3.61-.74,5.47-.08.94-.42,1.77-.66,2.67Z"/>
                <path class="cls-40" d="m155.94,195.9c.14-.01.27-.03.4-.04.1-.02.19-.03.28-.06.01,0,.02,0,.03,0,.06,0,.1-.02.14-.04.29-.06.55-.14.8-.26.05-.03.12-.05.17-.09.01,0,.02,0,.02,0h0c.35-.19.67-.42.96-.69.4-.37.77-.83,1.18-1.36.3-.39.57-.79.8-1.2.28-.47.51-.96.68-1.48-.23.17-.44.35-.64.54.42-1.37.66-2.81.86-4.04.43-2.78-.1-4.9-1.94-7.04-.9-1.05-2.45-2.12-2.97-3.45-.02.08-.03.16-.06.24.22.4.47.77.73,1.12.88,1.24,1.72,2.59,2.36,3.97.78,1.72.86,3.59.5,5.41-.14.73-.32,1.45-.5,2.17-.08.33-.11.82-.4,1-.23-.31-.26-.71-.36-1.07-.16-.59-.42-1.17-.44-1.8-.3.6-.46,1.35-.62,1.99-.17.68-.16,1.62-.56,2.18-.51-1.89-.64-3.9-.86-5.85-.37.33-.6.87-.71,1.36-.21.98-.33,2.11-.41,3.11-.03.4-.02.8-.01,1.21.04.73.13,1.48.22,2.2.05.31.09.62.12.91l.02.09.07.3.02.05.14.59Z"/>
                <path class="cls-40" d="m156.34,196.04c.05.07.11.14.17.2h0s.03.03.04.03c.04.04.07.07.12.09.21.14.46.25.75.32,1.06.27,2.52.13,3.31.14.72.01,1.42-.02,2.13-.05.33,0,.65-.02.98-.01.39,0,.77.02,1.16.08.11,0,.23.03.34.04,1.2.19,2.34.56,3.45,1.06.01,0,.02,0,.04.01.68.24,1.36.51,2.01.8.74.32,1.84,1.18,2.5,1.04-.12-.12-.23-.24-.34-.34-1.3-1.34-2.7-2.45-4.41-3.21-1.58-.71-3.38-1.11-5.07-1.39-.45-.08-1.36,0-1.7-.36.22-.63,1.45-.81,1.98-1.11-.43-.1-1.07.05-1.53.13-.33.06-.88.32-1.2.18.22-.53,1.14-.86,1.63-1.11.94-.48,2.19-.57,3.03-1.19-.56-.4-1.9-.09-2.55,0-.87.12-1.69.39-2.47.77h0c-.2.11-.39.21-.59.32-.62.36-2.05,1.11-2.01,2.03,0,.01,0,.02,0,.02l-.4.34h-.02s-.39.36-.39.36l-.43.36-.22.19-.03.02-.21.18-.06.06Z"/>
                <path class="cls-40" d="m159.38,197.56c.9.72,1.2,2.3,1.94,3.2.28-1-.44-3.04-1.03-3.76,2.5,1.91,4.42,4.78,4.3,8.05-.02.72-.15,1.48-.33,2.24.04-.08.08-.17.12-.26.92-2.16,2.49-4.32,1.54-6.72-.61-1.57-1.75-2.64-3.06-3.53.33,0,.65-.02.98-.01-.1-.08-.21-.16-.32-.22-.62-.41-1.32-.73-2.06-.9l-2.72-.93-.62-.21-1-.33-.14-.05c-.09.21-.16.42-.2.64h0s0,.02,0,.03c-.02.06-.03.13-.05.2-.05.27-.08.52-.08.78,0,.01,0,.02,0,.02,0,.1,0,.18.01.26,0,.1,0,.2.02.3.03.35.11.71.21,1.06.54,1.84,1.86,3.59,3.02,4.86.13-.54-.45-1.44-.55-2.02-.15-.8-.09-1.89.03-2.7Z"/>
                <path class="cls-40" d="m143.7,207.53c1.01-.31,2.05-.44,3.06-.66,1.31-.28,2.54-.72,3.49-1.93,1.35-1.72,2.04-4.24,4.06-5.38.19-.1.32-.15.42-.14.71-.62,1.54-1.27,2.16-1.99.21-.23.39-.49.54-.74.18-.32.3-.66.33-1.02,0-.04.01-.07.01-.1v-.02s0-.09,0-.13h0c0-.18-.02-.36-.07-.54,0-.03-.01-.06-.03-.1.05-.02.07-.03.09-.04-.03-.01-.05,0-.1,0-.11.01-.28.06-.46.1-.01,0-.04.02-.06.02-.08.02-.15.04-.22.07-.07.02-.15.04-.21.07-.3.1-.6.2-.89.3,0,0-.03,0-.03.01-.34.12-.69.25-1.03.39-1.51.61-2.92,1.35-4.24,2.31-1.02.73-2.04,1.56-2.93,2.45-.21.21-.67.58-.61.87,1.37-.5,2.54-2.01,4.04-2.16-.59.89-1.86,1.42-2.66,2.13-.69.62-1.59,1.44-1.91,2.33.88-.55,1.63-1.35,2.48-1.96.81-.59,2.15-1.86,3.22-1.87-.55.97-1.53,1.84-2.23,2.73-.94,1.19-1.95,2.26-3.18,3.14-.91.65-1.95,1.34-3.03,1.84Z"/>
                <path class="cls-40" d="m156.78,194.77s-.03,0-.04,0c.01,0,.02,0,.03.02.06.04.11.09.17.13.12.1.25.2.36.3.16.14.32.28.46.43.01,0,.02,0,.02.02v-.12s-.09-.67-.09-.67v-.11s-.02-.04-.02-.04v-.07c-.31.02-.6.05-.89.1Z"/>
                <path class="cls-40" d="m138.93,188.85c.58.65,1.79,1.01,2.49,1.58,1.68,1.33,3.06,2.82,5.08,3.65.86.36,1.76.62,2.68.8.81.15,1.79.06,2.56.29-.06.09-.16.16-.26.24.6-.01,1.22-.05,1.83-.08,1.16-.07,2.29-.38,3.43-.55-1.43-1.14-3.12-2.02-4.94-2.18-1.89-.18-3.8.22-5.63-.45-1.75-.64-3.39-1.69-5.09-2.46-.7-.32-1.43-.6-2.16-.84Z"/>
                <path class="cls-40" d="m157.27,194.71c-.19-1.2-1.31-2.38-2.14-3.18-1.15-1.1-2.76-2.5-4.34-2.93.88,1.05,2.43,1.78,3,3.05-1.26-.75-2.45-1.32-3.91-1.6-.79-.15-2.63-.66-3.41-.26,1.82.43,3.62,1.53,5.22,2.44,1.32.75,2.56,1.59,3.67,2.64.41.39,1.06.87,1.18,1.45l.73-1.61Z"/>
              </g>
              <g>
                <path class="cls-39" d="m71.76,191.44c.07-.03.13-.04.19-.07.01,0,.02,0,.03,0,1.01-.31,2.05-.44,3.06-.66,1.31-.28,2.54-.72,3.49-1.93,1.35-1.72,2.04-4.24,4.06-5.38.19-.1.32-.15.42-.14.45,0,.13.95.16,1.44.05,1.07.39,2.13.93,3.06.56.97,1.38,1.74,2.22,2.46.86.74,1.63,1.53,2.44,2.35.85.84,1.94,1.54,2.63,2.52.36-1.33.65-2.63,1.15-3.91,0-.02.01-.04.01-.05.04-.08.08-.17.12-.26.92-2.16,2.49-4.32,1.54-6.72-.61-1.57-1.75-2.64-3.06-3.53-.21-.14-.42-.28-.64-.42.09,0,.18.02.27.03.35.05.69.1,1.03.16.5.08,1,.18,1.48.3,1.29.28,2.55.65,3.79,1.09.01,0,.02,0,.04.01.68.24,1.36.51,2.01.8.74.32,1.84,1.18,2.5,1.04h0c.27-.06.48-.3.56-.79.41-2.51-1.6-5.85-3.14-7.65-2.24-2.64-5.86-2.76-8.77-1.09-.22.13-.43.27-.62.42-.23.17-.44.35-.64.54.42-1.37.66-2.81.86-4.04.43-2.78-.1-4.9-1.94-7.04-.9-1.05-2.45-2.12-2.97-3.45-.02.08-.03.16-.06.24-.76,3.2-1.87,6.61-1.72,9.93.04.91.18,1.82.44,2.71-.95-1.01-1.99-1.93-3.15-2.59-2.72-1.59-5.53-1.42-8.46-.49-1.46.46-3.84,1.02-4.99,2.16.04.07.09.13.15.2.58.65,1.79,1.01,2.49,1.58,1.68,1.33,3.06,2.82,5.08,3.65.86.36,1.76.62,2.68.8.81.15,1.79.06,2.56.29-.06.09-.16.16-.26.24-.64.42-1.85.56-2.45.8-1.68.69-3.29,1.58-4.15,3.25-.89,1.73-.58,3.61-.74,5.47-.08.94-.42,1.77-.66,2.67Z"/>
                <path class="cls-40" d="m84.21,179.73c.14-.01.27-.03.4-.04.1-.02.19-.03.28-.06.01,0,.02,0,.03,0,.06,0,.1-.02.14-.04.29-.06.55-.14.8-.26.05-.03.12-.05.17-.09.01,0,.02,0,.02,0h0c.35-.19.67-.42.96-.69.4-.37.77-.83,1.18-1.36.3-.39.57-.79.8-1.2.28-.47.51-.96.68-1.48-.23.17-.44.35-.64.54.42-1.37.66-2.81.86-4.04.43-2.78-.1-4.9-1.94-7.04-.9-1.05-2.45-2.12-2.97-3.45-.02.08-.03.16-.06.24.22.4.47.77.73,1.12.88,1.24,1.72,2.59,2.36,3.97.78,1.72.86,3.59.5,5.41-.14.73-.32,1.45-.5,2.17-.08.33-.11.82-.4,1-.23-.31-.26-.71-.36-1.07-.16-.59-.42-1.17-.44-1.8-.3.6-.46,1.35-.62,1.99-.17.68-.16,1.62-.56,2.18-.51-1.89-.64-3.9-.86-5.85-.37.33-.6.87-.71,1.36-.21.98-.33,2.11-.41,3.11-.03.4-.02.8-.01,1.21.04.73.13,1.48.22,2.2.05.31.09.62.12.91l.02.09.07.3.02.05.14.59Z"/>
                <path class="cls-40" d="m84.62,179.87c.05.07.11.14.17.2h0s.03.03.04.03c.04.04.07.07.12.09.21.14.46.25.75.32,1.06.27,2.52.13,3.31.14.72.01,1.42-.02,2.13-.05.33,0,.65-.02.98-.01.39,0,.77.02,1.16.08.11,0,.23.03.34.04,1.2.19,2.34.56,3.45,1.06.01,0,.02,0,.04.01.68.24,1.36.51,2.01.8.74.32,1.84,1.18,2.5,1.04-.12-.12-.23-.24-.34-.34-1.3-1.34-2.7-2.45-4.41-3.21-1.58-.71-3.38-1.11-5.07-1.39-.45-.08-1.36,0-1.7-.36.22-.63,1.45-.81,1.98-1.11-.43-.1-1.07.05-1.53.13-.33.06-.88.32-1.2.18.22-.53,1.14-.86,1.63-1.11.94-.48,2.19-.57,3.03-1.19-.56-.4-1.9-.09-2.55,0-.87.12-1.69.39-2.47.77h0c-.2.11-.39.21-.59.32-.62.36-2.05,1.11-2.01,2.03,0,.01,0,.02,0,.02l-.4.34h-.02s-.39.36-.39.36l-.43.36-.22.19-.03.02-.21.18-.06.06Z"/>
                <path class="cls-40" d="m87.66,181.4c.9.72,1.2,2.3,1.94,3.2.28-1-.44-3.04-1.03-3.76,2.5,1.91,4.42,4.78,4.3,8.05-.02.72-.15,1.48-.33,2.24.04-.08.08-.17.12-.26.92-2.16,2.49-4.32,1.54-6.72-.61-1.57-1.75-2.64-3.06-3.53.33,0,.65-.02.98-.01-.1-.08-.21-.16-.32-.22-.62-.41-1.32-.73-2.06-.9l-2.72-.93-.62-.21-1-.33-.14-.05c-.09.21-.16.42-.2.64h0s0,.02,0,.03c-.02.06-.03.13-.05.2-.05.27-.08.52-.08.78,0,.01,0,.02,0,.02,0,.1,0,.18.01.26,0,.1,0,.2.02.3.03.35.11.71.21,1.06.54,1.84,1.86,3.59,3.02,4.86.13-.54-.45-1.44-.55-2.02-.15-.8-.09-1.89.03-2.7Z"/>
                <path class="cls-40" d="m71.98,191.36c1.01-.31,2.05-.44,3.06-.66,1.31-.28,2.54-.72,3.49-1.93,1.35-1.72,2.04-4.24,4.06-5.38.19-.1.32-.15.42-.14.71-.62,1.54-1.27,2.16-1.99.21-.23.39-.49.54-.74.18-.32.3-.66.33-1.02,0-.04.01-.07.01-.1v-.02s0-.09,0-.13h0c0-.18-.02-.36-.07-.54,0-.03-.01-.06-.03-.1.05-.02.07-.03.09-.04-.03-.01-.05,0-.1,0-.11.01-.28.06-.46.1-.01,0-.04.02-.06.02-.08.02-.15.04-.22.07-.07.02-.15.04-.21.07-.3.1-.6.2-.89.3,0,0-.03,0-.03.01-.34.12-.69.25-1.03.39-1.51.61-2.92,1.35-4.24,2.31-1.02.73-2.04,1.56-2.93,2.45-.21.21-.67.58-.61.87,1.37-.5,2.54-2.01,4.04-2.16-.59.89-1.86,1.42-2.66,2.13-.69.62-1.59,1.44-1.91,2.33.88-.55,1.63-1.35,2.48-1.96.81-.59,2.15-1.86,3.22-1.87-.55.97-1.53,1.84-2.23,2.73-.94,1.19-1.95,2.26-3.18,3.14-.91.65-1.95,1.34-3.03,1.84Z"/>
                <path class="cls-40" d="m85.06,178.6s-.03,0-.04,0c.01,0,.02,0,.03.02.06.04.11.09.17.13.12.1.25.2.36.3.16.14.32.28.46.43.01,0,.02,0,.02.02v-.12s-.09-.67-.09-.67v-.11s-.02-.04-.02-.04v-.07c-.31.02-.6.05-.89.1Z"/>
                <path class="cls-40" d="m67.2,172.68c.58.65,1.79,1.01,2.49,1.58,1.68,1.33,3.06,2.82,5.08,3.65.86.36,1.76.62,2.68.8.81.15,1.79.06,2.56.29-.06.09-.16.16-.26.24.6-.01,1.22-.05,1.83-.08,1.16-.07,2.29-.38,3.43-.55-1.43-1.14-3.12-2.02-4.94-2.18-1.89-.18-3.8.22-5.63-.45-1.75-.64-3.39-1.69-5.09-2.46-.7-.32-1.43-.6-2.16-.84Z"/>
                <path class="cls-40" d="m85.55,178.54c-.19-1.2-1.31-2.38-2.14-3.18-1.15-1.1-2.76-2.5-4.34-2.93.88,1.05,2.43,1.78,3,3.05-1.26-.75-2.45-1.32-3.91-1.6-.79-.15-2.63-.66-3.41-.26,1.82.43,3.62,1.53,5.22,2.44,1.32.75,2.56,1.59,3.67,2.64.41.39,1.06.87,1.18,1.45l.73-1.61Z"/>
              </g>
              <path class="cls-38" d="m157.16,195.57c-.21-2.09-.41-4.23-1.12-6.22-.18-.51-.38-1.02-.58-1.53.02-.01.04-.02.06-.03.32-.21.42-.68.31-1.03-.07-.21-.2-.39-.37-.52-.02-.25-.1-.48-.28-.66-.07-.07-.15-.12-.23-.17.02-.25,0-.51-.08-.74-.07-.21-.21-.4-.39-.51,0-.06,0-.12-.02-.19-.1-.33-.35-.61-.67-.74-.32-.26-.81-.36-1.1.01-.13.18-.04.44.13.51-.01.09-.04.17-.03.26.03.27.23.45.49.46-.33.38.13.98.57.83,0,.02,0,.04,0,.06,0-.14,0,0,0,.02,0,.05-.02.09-.03.14,0-.02-.01.05-.03.1-.18.41.1.79.51.8-.05.22.07.55.3.64,0,0,.05.02.09.03-.01.03-.03.06-.03.09-.1.4.18.71.52.71.19.55.37,1.1.52,1.67.53,1.98.55,4.03.89,6.04.06.36.61.35.58-.03Z"/>
              <path class="cls-38" d="m85.85,177.12c-.21-2.09-.41-4.23-1.12-6.22-.18-.51-.38-1.02-.58-1.53.02-.01.04-.02.06-.03.32-.21.42-.68.31-1.03-.07-.21-.2-.39-.37-.52-.02-.25-.1-.48-.28-.66-.07-.07-.15-.12-.23-.17.02-.25,0-.51-.08-.74-.07-.21-.21-.4-.39-.51,0-.06,0-.12-.02-.19-.1-.33-.35-.61-.67-.74-.32-.26-.81-.36-1.1.01-.13.18-.04.44.13.51-.01.09-.04.17-.03.26.03.27.23.45.49.46-.33.38.13.98.57.83,0,.02,0,.04,0,.06,0-.14,0,0,0,.02,0,.05-.02.09-.03.14,0-.02-.01.05-.03.1-.18.41.1.79.51.8-.05.22.07.55.3.64,0,0,.05.02.09.03-.01.03-.03.06-.03.09-.1.4.18.71.52.71.19.55.37,1.1.52,1.67.53,1.98.55,4.03.89,6.04.06.36.61.35.58-.03Z"/>
            </g>
            <g>
              <g>
                <path class="cls-29" d="m177.87,193.2c.07,0,.13.02.2.03,0,0,.02,0,.03,0,1.04.19,2.02.56,3.01.83,1.29.36,2.59.54,3.98-.1,1.99-.91,3.77-2.82,6.08-2.9.21,0,.35.02.44.07.4.21-.32.9-.52,1.35-.45.97-.64,2.07-.6,3.14.05,1.12.42,2.18.83,3.21.42,1.06.73,2.11,1.08,3.21.37,1.14,1.01,2.26,1.17,3.45.93-1.01,1.79-2.03,2.83-2.94.02-.01.03-.03.04-.04.08-.05.15-.11.22-.18,1.81-1.49,4.2-2.68,4.48-5.25.19-1.67-.33-3.15-1.08-4.55-.12-.22-.24-.45-.38-.67.08.05.15.1.23.15.29.2.56.41.84.62.4.3.8.63,1.18.95,1.01.84,1.96,1.76,2.85,2.72,0,0,.02.01.03.03.49.53.97,1.08,1.41,1.64.51.63,1.08,1.9,1.74,2.08h0c.27.07.56-.04.86-.44,1.52-2.03,1.29-5.93.76-8.23-.77-3.38-3.92-5.16-7.27-5.01-.26.01-.51.04-.74.09-.29.04-.55.1-.82.18,1.01-1.02,1.89-2.19,2.63-3.19,1.66-2.27,2.18-4.4,1.54-7.13-.32-1.34-1.19-3.01-1.04-4.43-.05.06-.1.13-.16.19-2.15,2.49-4.72,5-6.11,8.01-.38.83-.68,1.7-.86,2.61-.38-1.34-.88-2.63-1.59-3.75-1.68-2.66-4.25-3.82-7.27-4.35-1.5-.27-3.88-.87-5.42-.39,0,.09.02.16.04.24.21.84,1.12,1.72,1.48,2.55.87,1.95,1.41,3.92,2.82,5.59.6.71,1.27,1.36,2.01,1.95.65.51,1.56.88,2.13,1.44-.1.05-.21.07-.34.09-.76.08-1.9-.36-2.55-.42-1.81-.17-3.64-.12-5.18.96-1.59,1.12-2.19,2.93-3.18,4.51-.5.8-1.2,1.38-1.82,2.06Z"/>
                <path class="cls-36" d="m194.33,188.59c.13.05.25.1.37.14.1.03.19.06.28.08,0,0,.02.01.03.01.05.02.1.03.14.03.29.08.56.13.83.14.06,0,.13,0,.19,0,0,0,.02,0,.02,0h0c.39,0,.78-.06,1.17-.17.53-.14,1.07-.38,1.67-.66.45-.21.87-.44,1.27-.69.47-.29.89-.61,1.28-.99-.29.04-.55.1-.82.18,1.01-1.02,1.89-2.19,2.63-3.19,1.66-2.27,2.18-4.4,1.54-7.13-.32-1.34-1.19-3.01-1.04-4.43-.05.06-.1.13-.16.19.01.45.07.9.13,1.33.2,1.51.33,3.09.25,4.61-.1,1.88-.89,3.58-2.06,5.03-.46.58-.95,1.14-1.44,1.69-.22.25-.47.67-.82.71-.06-.38.1-.75.18-1.11.13-.6.17-1.23.44-1.8-.54.39-1.03.98-1.47,1.48-.47.52-.89,1.36-1.5,1.68.42-1.91,1.24-3.76,1.94-5.59-.48.12-.93.49-1.26.88-.64.77-1.27,1.71-1.8,2.57-.21.34-.39.7-.57,1.07-.3.67-.57,1.37-.83,2.05-.1.3-.21.59-.32.87l-.02.09-.08.3v.05s-.16.59-.16.59Z"/>
                <path class="cls-36" d="m194.62,188.9c.01.08.03.18.06.26h0s.01.04.02.05c.02.05.03.1.06.14.12.22.29.44.52.63.81.73,2.18,1.28,2.86,1.66.63.34,1.27.64,1.91.94.29.15.59.29.88.44.34.18.67.38.99.61.09.06.19.13.28.19.98.72,1.82,1.58,2.57,2.53,0,0,.02.01.03.03.49.53.97,1.08,1.41,1.64.51.63,1.08,1.9,1.74,2.08-.05-.16-.1-.32-.14-.46-.53-1.79-1.26-3.42-2.43-4.89-1.07-1.36-2.48-2.54-3.85-3.57-.36-.27-1.2-.63-1.34-1.11.48-.46,1.66-.04,2.27-.07-.33-.29-.97-.45-1.41-.59-.31-.1-.93-.12-1.14-.4.45-.37,1.41-.23,1.96-.23,1.06,0,2.21.5,3.24.34-.31-.62-1.64-.96-2.27-1.17-.83-.29-1.68-.43-2.55-.46h0c-.22,0-.45,0-.67,0-.72.03-2.33.04-2.72.87,0,0-.02.01-.01.02l-.52.12h-.03s-.51.13-.51.13l-.55.12-.28.07h-.03s-.27.07-.27.07l-.08.02Z"/>
                <path class="cls-36" d="m196.61,191.65c.47,1.06,0,2.6.24,3.74.71-.76,1.02-2.9.83-3.81,1.33,2.85,1.71,6.28.09,9.13-.35.63-.82,1.25-1.33,1.83.08-.05.15-.11.22-.18,1.81-1.49,4.2-2.68,4.48-5.25.19-1.67-.33-3.15-1.08-4.55.29.15.59.29.88.44-.05-.12-.11-.23-.19-.34-.36-.65-.84-1.25-1.41-1.75l-1.98-2.08-.45-.48-.73-.75-.1-.11c-.18.14-.33.3-.47.48h0s0,.01-.01.02c-.04.05-.09.1-.13.16-.17.21-.31.43-.43.66,0,0,0,.02,0,.02-.05.08-.08.16-.11.24-.05.09-.09.18-.12.27-.13.33-.23.68-.31,1.04-.37,1.88,0,4.04.43,5.7.36-.42.26-1.49.44-2.04.24-.78.8-1.72,1.28-2.38Z"/>
                <path class="cls-36" d="m178.1,193.24c1.04.19,2.02.56,3.01.83,1.29.36,2.59.54,3.98-.1,1.99-.91,3.77-2.82,6.08-2.9.21,0,.35.02.44.07.91-.22,1.96-.41,2.84-.77.29-.11.57-.25.83-.41.31-.21.57-.45.77-.75.02-.03.04-.06.06-.09v-.02s.06-.08.07-.11h0c.07-.16.14-.32.19-.51,0-.03.02-.06.02-.1.05,0,.08,0,.09,0-.02-.02-.05-.03-.08-.05-.1-.04-.28-.08-.45-.12-.02,0-.04,0-.06,0-.08-.01-.15-.03-.23-.04-.07-.02-.15-.03-.22-.04-.31-.05-.62-.1-.93-.14,0,0-.03,0-.03,0-.36-.05-.73-.1-1.09-.13-1.63-.16-3.21-.15-4.83.09-1.24.17-2.53.44-3.73.82-.29.09-.86.2-.94.49,1.45.19,3.18-.61,4.58-.04-.93.52-2.31.4-3.35.66-.9.23-2.08.54-2.77,1.19,1.03-.09,2.07-.45,3.11-.59.99-.15,2.76-.65,3.71-.17-.94.6-2.21.93-3.24,1.39-1.39.62-2.77,1.1-4.27,1.31-1.1.15-2.35.29-3.54.23Z"/>
                <path class="cls-36" d="m195.6,187.97s-.03-.01-.04-.01c0,0,.02.01.01.03.03.06.06.13.09.19.06.15.13.29.18.44.08.19.15.4.21.6,0,0,.01.02.01.02l.04-.11.24-.63.05-.1v-.04s.04-.06.04-.06c-.27-.12-.55-.23-.83-.32Z"/>
                <path class="cls-36" d="m182.5,174.47c.21.84,1.12,1.72,1.48,2.55.87,1.95,1.41,3.92,2.82,5.59.6.71,1.27,1.36,2.01,1.95.65.51,1.56.88,2.13,1.44-.1.05-.21.07-.34.09.54.27,1.1.52,1.66.77,1.06.48,2.21.72,3.3,1.1-.74-1.67-1.83-3.23-3.37-4.22-1.59-1.03-3.47-1.56-4.79-3-1.26-1.38-2.22-3.07-3.37-4.53-.47-.61-.99-1.19-1.53-1.74Z"/>
                <path class="cls-36" d="m196.06,188.14c.39-1.15-.06-2.72-.43-3.81-.51-1.51-1.29-3.49-2.5-4.6.29,1.33,1.33,2.7,1.25,4.1-.77-1.25-1.56-2.3-2.72-3.22-.63-.5-2.03-1.8-2.9-1.81,1.41,1.22,2.51,3.03,3.5,4.57.83,1.28,1.54,2.59,2.03,4.04.18.53.53,1.26.38,1.84l1.39-1.09Z"/>
              </g>
              <path class="cls-43" d="m196.85,187.89c.78-1.95,1.59-3.94,1.88-6.03.08-.54.14-1.08.19-1.63.02,0,.05,0,.07,0,.38-.04.69-.41.75-.77.04-.21,0-.43-.09-.64.1-.23.14-.47.06-.72-.03-.1-.07-.18-.13-.25.13-.22.23-.45.27-.69.04-.22,0-.45-.11-.63.02-.06.05-.11.06-.18.07-.34-.03-.7-.25-.97-.16-.38-.55-.69-.98-.49-.2.09-.23.37-.11.51-.05.07-.11.14-.15.22-.1.25,0,.5.22.63-.47.18-.34.93.12,1-.01.02-.02.04-.03.06.07-.12,0,0-.01.02-.03.04-.06.07-.09.11.01-.01-.04.04-.08.07-.35.28-.27.75.08.95-.15.17-.2.52-.03.7,0,0,.04.04.07.07-.02.02-.05.04-.07.06-.28.31-.17.71.13.88-.08.57-.18,1.15-.31,1.72-.45,2-1.37,3.83-2,5.77-.11.34.38.59.52.24Z"/>
            </g>
            <g>
              <g>
                <path class="cls-20" d="m41.97,178.61c-.07,0-.13,0-.2-.02-.01,0-.02,0-.03,0-1.05-.07-2.1.05-3.13.07-1.34.03-2.64-.11-3.84-1.06-1.71-1.36-2.98-3.65-5.2-4.28-.21-.06-.35-.07-.44-.04-.44.11.09.95.18,1.44.2,1.05.11,2.16-.18,3.2-.31,1.07-.93,2.01-1.58,2.91-.67.92-1.22,1.87-1.82,2.85-.63,1.02-1.53,1.95-1.97,3.07-.66-1.21-1.24-2.41-2.03-3.53-.01-.01-.02-.04-.03-.05-.06-.07-.11-.15-.17-.23-1.4-1.88-3.43-3.62-3.07-6.18.23-1.67,1.09-2.98,2.15-4.15.17-.19.34-.37.53-.56-.09.03-.17.06-.26.09-.33.12-.65.26-.97.4-.46.2-.93.41-1.37.63-1.18.57-2.33,1.23-3.43,1.95-.01,0-.02,0-.04.02-.61.39-1.2.82-1.77,1.25-.65.49-1.51,1.58-2.19,1.6h0c-.28,0-.54-.17-.73-.64-.99-2.34.19-6.06,1.26-8.17,1.56-3.1,5.06-4.05,8.27-3.1.25.07.49.16.7.26.27.11.51.23.75.38-.73-1.23-1.3-2.58-1.78-3.73-1.06-2.6-1.05-4.79.24-7.29.63-1.23,1.89-2.63,2.09-4.05.04.07.07.15.11.22,1.49,2.94,3.36,5.99,3.99,9.25.17.89.25,1.81.2,2.74.69-1.21,1.49-2.34,2.45-3.26,2.27-2.18,5.05-2.68,8.11-2.45,1.52.1,3.97.1,5.35.94-.02.08-.06.15-.1.23-.41.77-1.5,1.4-2.06,2.12-1.32,1.68-2.32,3.46-4.09,4.74-.75.55-1.56,1.02-2.42,1.4-.75.34-1.73.47-2.42.88.08.07.19.12.31.17.72.26,1.93.11,2.57.21,1.79.28,3.57.76,4.79,2.19,1.27,1.48,1.41,3.37,1.99,5.15.3.9.83,1.63,1.26,2.44Z"/>
                <path class="cls-26" d="m27.13,170.14c-.14.02-.27.04-.4.05-.1,0-.2.01-.29.01-.01,0-.02,0-.03,0-.06,0-.1,0-.15,0-.3,0-.57-.01-.84-.06-.06-.01-.13-.02-.18-.05-.01,0-.02,0-.02,0h0c-.38-.1-.74-.25-1.09-.45-.48-.27-.95-.63-1.46-1.05-.39-.31-.74-.64-1.06-.98-.38-.39-.72-.81-1-1.28.27.11.51.23.75.38-.73-1.23-1.3-2.58-1.78-3.73-1.06-2.6-1.05-4.79.24-7.29.63-1.23,1.89-2.63,2.09-4.05.04.07.07.15.11.22-.12.44-.28.86-.44,1.26-.56,1.41-1.07,2.92-1.36,4.41-.36,1.85,0,3.69.78,5.38.3.67.65,1.33.99,1.99.15.3.29.77.62.88.15-.35.08-.75.1-1.12.02-.61.13-1.24,0-1.86.43.51.76,1.2,1.07,1.79.33.62.53,1.53,1.05,1.99.06-1.95-.29-3.95-.53-5.89.44.23.79.7,1.01,1.16.43.9.82,1.97,1.12,2.93.12.38.21.77.3,1.17.13.72.22,1.46.3,2.19.03.31.06.62.1.92v.09s0,.31,0,.31v.05s0,.61,0,.61Z"/>
                <path class="cls-26" d="m26.77,170.37c-.03.08-.07.16-.12.23h0s-.02.04-.03.04c-.03.04-.05.09-.09.12-.17.19-.39.35-.65.49-.97.51-2.42.71-3.18.91-.69.18-1.39.31-2.08.45-.32.07-.64.13-.96.22-.38.09-.74.2-1.11.35-.1.03-.21.08-.32.12-1.12.46-2.15,1.09-3.1,1.83-.01,0-.02,0-.04.02-.61.39-1.2.82-1.77,1.25-.65.49-1.51,1.58-2.19,1.6.09-.15.17-.29.25-.41.95-1.61,2.05-3.02,3.54-4.16,1.37-1.06,3.02-1.86,4.61-2.53.42-.18,1.32-.32,1.57-.75-.36-.57-1.6-.44-2.19-.62.39-.2,1.05-.21,1.51-.23.33-.02.93.11,1.21-.11-.34-.47-1.31-.57-1.84-.7-1.03-.25-2.26-.04-3.22-.45.45-.52,1.83-.53,2.48-.59.88-.08,1.74-.01,2.59.18h0c.22.05.43.11.65.17.69.2,2.25.6,2.42,1.5,0,.01.01.01,0,.02l.47.24h.02s.46.25.46.25l.5.25.26.13h.03s.25.14.25.14l.08.04Z"/>
                <path class="cls-26" d="m24.17,172.56c-.71.91-.63,2.52-1.14,3.57-.5-.91-.28-3.06.12-3.9-1.98,2.44-3.18,5.68-2.3,8.83.18.7.49,1.41.84,2.1-.06-.07-.11-.15-.17-.23-1.4-1.88-3.43-3.62-3.07-6.18.23-1.67,1.09-2.98,2.15-4.15-.32.07-.64.13-.96.22.08-.11.16-.2.26-.29.51-.55,1.12-1.01,1.79-1.35l2.43-1.54.55-.35.89-.55.13-.09c.14.18.25.38.34.58h0s0,.01,0,.03c.03.06.06.12.09.18.11.25.2.49.26.75,0,.01,0,.02,0,.02.03.09.04.17.05.26.02.1.04.2.05.3.05.35.06.71.05,1.08-.1,1.91-.97,3.92-1.8,5.43-.25-.49.11-1.51.07-2.09-.05-.82-.36-1.86-.66-2.62Z"/>
                <path class="cls-26" d="m41.74,178.59c-1.05-.07-2.1.05-3.13.07-1.34.03-2.64-.11-3.84-1.06-1.71-1.36-2.98-3.65-5.2-4.28-.21-.06-.35-.07-.44-.04-.83-.44-1.8-.87-2.57-1.43-.26-.18-.5-.38-.7-.6-.25-.27-.45-.57-.56-.92-.01-.03-.03-.07-.03-.1v-.02s-.03-.09-.03-.12h0c-.03-.17-.06-.35-.06-.54,0-.03,0-.06,0-.1-.05,0-.08-.01-.09-.02.03-.02.05-.02.09-.03.11-.01.29-.01.47-.01.02,0,.04,0,.06,0,.08,0,.15,0,.23.02.07,0,.15,0,.22.02.31.02.63.05.94.09,0,0,.03,0,.03,0,.36.04.73.08,1.09.14,1.62.24,3.15.63,4.67,1.26,1.16.47,2.35,1.04,3.43,1.7.26.16.79.4.8.71-1.45-.17-2.94-1.36-4.43-1.15.78.73,2.14.95,3.09,1.45.82.44,1.88,1.03,2.4,1.82-.98-.33-1.9-.93-2.87-1.33-.93-.38-2.52-1.3-3.56-1.07.76.81,1.92,1.44,2.81,2.13,1.19.94,2.42,1.74,3.83,2.31,1.03.42,2.21.85,3.38,1.08Z"/>
                <path class="cls-26" d="m26.05,169.23s.03,0,.04,0c-.01,0-.02,0-.02.03-.05.05-.09.11-.13.17-.1.13-.19.25-.28.38-.12.17-.24.35-.35.53-.01,0-.01.01-.02.02l-.02-.12-.08-.67-.02-.11v-.05s0-.07,0-.07c.3-.05.59-.09.89-.11Z"/>
                <path class="cls-26" d="m42.02,159.31c-.41.77-1.5,1.4-2.06,2.12-1.32,1.68-2.32,3.46-4.09,4.74-.75.55-1.56,1.02-2.42,1.4-.75.34-1.73.47-2.42.88.08.07.19.12.31.17-.59.13-1.2.24-1.8.34-1.15.21-2.32.16-3.47.26,1.12-1.44,2.56-2.69,4.29-3.27,1.8-.61,3.74-.67,5.37-1.75,1.55-1.03,2.9-2.44,4.37-3.58.61-.48,1.25-.91,1.91-1.32Z"/>
                <path class="cls-26" d="m25.56,169.29c-.1-1.21.72-2.62,1.34-3.6.86-1.34,2.1-3.08,3.54-3.86-.61,1.22-1.95,2.3-2.2,3.67,1.05-1.02,2.07-1.85,3.42-2.47.73-.33,2.4-1.25,3.26-1.05-1.67.84-3.16,2.33-4.5,3.59-1.11,1.04-2.12,2.14-2.95,3.42-.31.47-.82,1.09-.81,1.69l-1.08-1.39Z"/>
              </g>
              <path class="cls-43" d="m25.42,168.75c-.15-2.03-.6-4.03-.55-6.08.01-.59.06-1.17.12-1.74.33-.09.53-.45.34-.82-.01-.03-.04-.05-.05-.07.03-.02.07-.05.08-.05.2-.14.24-.48.14-.69.39-.11.58-.54.31-.9-.03-.04-.06-.1-.06-.09-.02-.04-.04-.08-.06-.12-.01-.03-.05-.16,0-.02,0-.02-.01-.04-.02-.06.46.04.77-.65.36-.94.25-.07.4-.3.37-.56-.01-.09-.06-.17-.09-.25.15-.11.18-.38.01-.52-.37-.3-.82-.09-1.07.24-.27.21-.46.53-.47.88,0,.07.01.12.02.19-.16.15-.25.36-.26.58-.02.24.02.49.09.74-.07.06-.13.13-.18.22-.13.22-.16.47-.11.71-.13.17-.22.38-.24.6-.03.37.18.8.54.93.02,0,.05,0,.07.01-.08.54-.15,1.08-.21,1.63-.22,2.1.08,4.23.36,6.31.05.38.59.26.57-.11Z"/>
            </g>
          </g>
        </g>
      </g>
    </g>
  </g>
</svg>