<?xml version="1.0" encoding="UTF-8"?>
<svg xmlns="http://www.w3.org/2000/svg" viewBox="0 0 220 220">
  <defs>
    <style>
      .cls-1, .cls-2, .cls-3, .cls-4, .cls-5 {
        fill: #a8846f;
      }

      .cls-2, .cls-6, .cls-7, .cls-8 {
        opacity: .6;
      }

      .cls-2, .cls-9, .cls-10, .cls-11 {
        mix-blend-mode: multiply;
      }

      .cls-12, .cls-8 {
        fill: #fff;
      }

      .cls-13 {
        opacity: .7;
      }

      .cls-13, .cls-7 {
        mix-blend-mode: screen;
      }

      .cls-14, .cls-15 {
        fill: #fff2de;
      }

      .cls-16, .cls-11 {
        fill: #ddcdba;
      }

      .cls-17 {
        opacity: .5;
      }

      .cls-17, .cls-18 {
        fill: #efe1ce;
      }

      .cls-9, .cls-19, .cls-4 {
        opacity: .2;
      }

      .cls-19 {
        fill: #856b99;
      }

      .cls-20 {
        isolation: isolate;
      }

      .cls-21 {
        fill: #fff3e9;
      }

      .cls-22 {
        fill: #8cad66;
      }

      .cls-3 {
        opacity: .1;
      }

      .cls-23 {
        fill: #774e34;
      }

      .cls-24 {
        fill: #80d2a1;
      }

      .cls-25 {
        fill: #d18497;
      }

      .cls-26, .cls-10 {
        opacity: .4;
      }

      .cls-27 {
        fill: #47c582;
      }

      .cls-28 {
        fill: #fff4e1;
      }

      .cls-10, .cls-29 {
        fill: #d1c1b0;
      }

      .cls-30 {
        fill: #332722;
      }

      .cls-31 {
        fill: #7e8252;
      }

      .cls-32 {
        fill: #845b3e;
      }

      .cls-5, .cls-15 {
        opacity: .3;
      }

      .cls-33 {
        fill: #e796ad;
      }

      .cls-34 {
        fill: #718c4b;
      }

      .cls-35 {
        fill: #d9e5d1;
      }

      .cls-36 {
        fill: #b29c8a;
      }

      .cls-37 {
        fill: #f4e5d4;
      }
    </style>
  </defs>
  <g class="cls-20">
    <g id="Layer_2" data-name="Layer 2">
      <g id="_2" data-name="2">
        <g>
          <circle class="cls-35" cx="110" cy="110" r="110"/>
          <g>
            <g>
              <path class="cls-3" d="m104.95,153.14l1.89-102.7s-.32-16.81-20.7-16.53c-20.29.28-20.14.27-40.81.55-20.58.28-20.71,16.94-20.71,16.94l2.07,101.77s-.03.05-.03.08c.02,1.19,17.47,4.54,39,4.54s39.31-3.38,39.33-4.57c0-.03-.02-.05-.03-.08Z"/>
              <path class="cls-1" d="m104.35,153.02l1.69-76.05.41-19.04.1-4.76.05-2.38c.03-.76-.1-1.55-.23-2.32-.57-3.08-1.91-6.04-3.99-8.4-2.07-2.37-4.88-4.02-7.89-4.91-3.02-.92-6.2-1.14-9.36-1.05l-19.04.26-19.04.26c-3.17.02-6.35.17-9.37,1.08-3.02.85-5.88,2.38-8.06,4.64-2.19,2.25-3.67,5.14-4.36,8.19-.17.76-.3,1.54-.37,2.31-.07.74.01,1.57.01,2.35l.11,4.76.45,19.04,1.81,76.15c0,.07-.01.13-.03.19l-.05.12h0s0,0,0,0c.02-.03.05-.13.05-.2,0-.03-.03-.24-.01-.14v.02s.02.05,0-.01c-.08-.2-.1-.16-.09-.16.03.02.08.06.16.09.14.07.32.15.5.21.36.13.75.25,1.14.36.78.22,1.58.4,2.38.57,1.61.34,3.23.62,4.86.87,3.26.5,6.54.89,9.83,1.2,6.58.61,13.19.91,19.8.91,6.61,0,13.22-.32,19.8-.94,3.29-.31,6.57-.7,9.83-1.21,1.63-.25,3.25-.54,4.86-.87.8-.17,1.6-.35,2.38-.57.39-.11.78-.22,1.14-.36.18-.07.36-.14.5-.21,0,0,.02-.01.03-.02Zm1.2,0s.02.06.02.05c-.01-.12.02.18.01.2l-.02.1c-.01.06-.04.14-.06.17-.09.17-.18.24-.25.31-.14.11-.26.18-.37.24-.22.12-.43.2-.64.28-.42.15-.82.27-1.23.39-.82.23-1.63.41-2.45.59-1.64.35-3.28.63-4.92.89-3.29.51-6.59.9-9.9,1.21-6.62.62-13.26.94-19.91.94-6.65,0-13.29-.3-19.91-.92-3.31-.31-6.61-.7-9.9-1.21-1.65-.26-3.29-.54-4.92-.88-.82-.17-1.64-.36-2.45-.59-.41-.11-.82-.23-1.23-.39-.21-.08-.42-.16-.64-.28-.11-.06-.23-.13-.37-.24-.07-.08-.16-.1-.29-.4-.03-.08-.02-.07-.03-.09v-.02c0,.09-.03-.13-.02-.18,0-.09.04-.23.07-.28l.04-.07h0s-.08.3-.08.3l-1.29-76.16-.32-19.04-.08-4.76c0-.8-.07-1.56,0-2.41.07-.81.21-1.6.39-2.38.73-3.13,2.27-6.09,4.53-8.38,2.24-2.32,5.18-3.88,8.25-4.74,3.08-.92,6.31-1.07,9.48-1.09l19.04-.25,19.04-.25c3.17-.09,6.41.14,9.48,1.07,3.06.91,5.94,2.6,8.06,5.02,2.15,2.4,3.53,5.42,4.13,8.57.14.79.27,1.58.25,2.41l-.04,2.38-.07,4.76-.29,19.04-1.1,76.04Z"/>
              <path class="cls-2" d="m89.71,34.17c0,.78-10.86,2.68-24.18,2.86-13.29.18-24.05-1.43-24.06-2.2l48.24-.65Z"/>
              <path class="cls-18" d="m89.91,14.03c0,.79-10.96,2.75-24.41,2.96-13.41.21-24.27-1.4-24.28-2.19,0-.79,10.84-2.84,24.28-3.06,13.48-.22,24.42,1.5,24.41,2.29Z"/>
              <path class="cls-29" d="m87.55,18.03l2.38-4h-.02c0,.79-10.96,2.75-24.41,2.96-13.41.21-24.27-1.4-24.28-2.19l2.67,3.9.13,12.01-2.44,3.04c-.09.06-.13.11-.13.16,0,.78,10.78,2.38,24.07,2.2,13.33-.18,24.18-2.08,24.19-2.86l-2.27-3.15.11-12.08Z"/>
              <path class="cls-3" d="m102.2,150.8l1.67-98.23s-.31-16.04-19.22-15.79c-18.83.25-18.68.25-37.87.5-19.11.25-19.24,16.16-19.24,16.16l1.85,97.41s-.03.05-.03.08c.02,1.14,16.26,4.35,36.3,4.34,20.13,0,36.56-3.25,36.58-4.4,0-.02-.02-.05-.03-.08Z"/>
              <path class="cls-33" d="m102.71,65.34c-.02,1.18-16.7,4-37.15,4.2-20.35.2-36.83-2.28-36.85-3.45-.02-1.17,16.42-4.13,36.85-4.35,20.52-.22,37.18,2.42,37.16,3.6Z"/>
              <polygon class="cls-25" points="28.54 66.09 29.78 65.8 30.47 66.49 30.9 66.99 31.79 66.65 32.93 66.75 33.38 66.36 34.35 66.52 34.36 67.28 35.33 67.47 36.57 67.26 37.97 67.45 38.31 66.87 39.78 67.23 40.22 68.08 40.83 67.65 41.61 67.64 42.7 68.36 43.47 67.74 44.51 67.73 45.99 68.33 47.77 68.01 49.44 67.8 50.22 68.56 51.42 68.55 51.69 67.93 53.51 67.87 54.1 68.52 55.62 69.12 56.74 68.72 57.59 68.37 59.15 68.51 60.16 69.27 60.55 68.88 61.83 68.64 62.69 69.24 63.5 68.66 64.9 68.18 67.35 68.81 68.29 69.19 69.57 68.52 70.35 68.17 71.17 68.47 71.72 68.92 73.2 68.1 74.48 68.01 74.29 67.59 75.42 67.62 76.28 68.34 77.41 67.98 79.32 68.08 80.41 68.61 81.55 68.02 83.23 67.92 84.51 68.18 85.34 67.48 84.95 67.14 85.86 66.77 87.65 67.11 88.23 67.72 89.53 67.36 91.25 67.46 92.7 66.7 94 66.5 94.7 66.84 96.63 66.01 98.43 66.11 99.97 65.9 100.45 65.24 101.98 65.07 102.88 65.27 102.77 71.98 28.66 72.68 28.54 66.09"/>
              <path class="cls-10" d="m87.55,18.03l2.38-4h-.02c0,.79-10.96,2.75-24.41,2.96-13.41.21-24.27-1.4-24.28-2.19l2.67,3.9.13,12.01-2.44,3.04c-.09.06-.13.11-.13.16,0,.78,10.78,2.38,24.07,2.2,13.33-.18,24.18-2.08,24.19-2.86l-2.27-3.15.11-12.08Z"/>
              <path class="cls-29" d="m45,18.96l.13,12.01s11.23,3.66,28.79,1.19l.03-12.04s-14.33,1.83-28.95-1.17Z"/>
              <path class="cls-29" d="m73.38,16.48c-13.44.21-24.31-1.41-24.32-2.2,0-.55,5.31-1.72,13.11-2.45-11.85.46-20.95,2.24-20.94,2.96,0,.79,10.87,2.4,24.28,2.19,4.2-.06,8.15-.3,11.61-.62-1.22.05-2.46.09-3.74.11Z"/>
              <g>
                <path class="cls-29" d="m76.78,19.98l-.05,12.39c.22-.03.42-.06.63-.08l.05-12.39c-.21.03-.43.05-.64.08Z"/>
                <path class="cls-29" d="m80.4,19.49l-.07,12.35c.22-.04.42-.08.63-.12l.08-12.33c-.21.03-.42.07-.64.1Z"/>
                <path class="cls-29" d="m84.03,18.84l-.09,12.23c.23-.06.44-.11.63-.16l.1-12.2c-.21.04-.43.09-.64.13Z"/>
              </g>
              <path class="cls-28" d="m89.71,13.84c-1.5.83-11.77,2.19-24.21,2.38-12.4.19-22.6-.84-24.08-1.62-.12.07-.2.14-.2.2,0,.79,10.87,2.4,24.28,2.19,13.45-.21,24.4-2.17,24.41-2.96,0-.06-.08-.13-.2-.2Z"/>
              <path class="cls-28" d="m89.52,33.06c-1.48.81-11.67,2.13-23.99,2.29-12.29.17-22.4-.87-23.87-1.64-.12.07-.2.14-.2.2,0,.78,10.78,2.38,24.07,2.2,13.33-.18,24.18-2.08,24.19-2.86,0-.06-.08-.12-.2-.19Z"/>
              <path class="cls-27" d="m102.88,65.27l-74.34.75,1.56,83.79s-.03.05-.03.08c.02,1.12,15.94,4.26,35.58,4.25,19.73,0,35.84-3.19,35.86-4.32,0-.02-.02-.05-.03-.08l1.4-84.48Z"/>
              <polygon class="cls-27" points="28.54 66.09 29.89 62.12 33.2 62.08 34.82 60.41 37.52 60.38 36.15 59.16 38.83 57.78 40.08 58.49 41.21 57.76 43.39 57.73 45.39 59.99 47.96 57.68 52.43 57.63 54.83 58.85 54.19 56.16 57.1 55.5 60.44 56.51 60.45 58.37 62.94 57.1 67.22 57.37 67.85 54.76 70.57 54.73 72.34 56.79 74.43 55.62 76.63 56.22 77.35 59.12 78.71 58.07 82.37 58.03 84.46 59.15 84.47 57.07 87.19 57.56 89.5 56.29 92.64 57.81 91.99 59.98 94.61 59.95 96.26 61.42 97.19 62.54 99.3 61.39 101.92 61.97 102.71 65.34 28.54 66.09"/>
              <path class="cls-24" d="m28.54,66.09l1.83-1.95,2.2-.37,1.1.72.96-.74-.79-.92,1.61-.98,4.53,2.04.41-1.67,2.21-.45,1.29.57.76-1.25,1.83-.02,1.76,1.1.69-1.13.69-1.64,2.54.4v1.4s3.64.85,3.64.85l.28,1.43,2.53.63,1.21,1.26,1-2.48-1.95-1.57,2.45-1.27,3.28,1.69.89-.92,1.73.25.23,1.59,1.56-.52,1.37.72.54,1.31,2.03-1.78-1.6-1.13,3.09-.73,1.25,1.27,1.69-.68,1.13.47,2.07,1.55,2.08-1.3,2.47.17,1.13.88,1.73-.44,1.48.84.81,1.04,1.39-1.41,2.4-.57,1.51,1.27.28-.39,1.17.26v.62s1.53-.29,1.53-.29l1.52.88.02-1.01,1.38-.05,1.42,1.63s-65.45,3.58-74.34.82Z"/>
              <g>
                <polygon class="cls-24" points="87.9 82.33 85.09 83.57 85.68 86.71 88.69 85.37 87.9 82.33"/>
                <polygon class="cls-24" points="52.69 79.28 51.68 81.41 54.56 82.61 55.27 80.93 52.69 79.28"/>
                <polygon class="cls-24" points="44.41 101.93 42.74 106.49 46.51 108.45 48.52 105.97 44.41 101.93"/>
                <polygon class="cls-24" points="71.84 98.87 70.91 101.27 74.39 102.34 75.52 100.59 71.84 98.87"/>
                <polygon class="cls-24" points="90.63 97.67 90.17 101.64 93.37 100.48 93.81 98.22 90.63 97.67"/>
                <polygon class="cls-24" points="59.27 124.55 56.36 128.15 60 131.24 63.11 127.89 59.27 124.55"/>
                <polygon class="cls-24" points="79.48 124.48 78.45 127.84 82.4 127.83 83.22 125.73 79.48 124.48"/>
                <polygon class="cls-24" points="94.63 114.41 93.59 116.29 95.8 118.74 97.35 117.06 94.63 114.41"/>
                <polygon class="cls-24" points="38.14 138.51 36.07 140.42 37.16 142.9 40.37 141.66 38.14 138.51"/>
                <polygon class="cls-24" points="35.93 85.48 34.02 87.61 36.62 90.2 38.02 88.49 35.93 85.48"/>
                <polygon class="cls-24" points="78.78 142.83 77.86 144.56 80.07 145.22 80.73 144.03 78.78 142.83"/>
                <polygon class="cls-24" points="94.02 137.91 92.69 139.64 95.13 141.66 97.03 139.78 94.02 137.91"/>
                <polygon class="cls-24" points="55.66 145.26 52.57 145.93 52.19 148.21 54.98 148.21 55.66 145.26"/>
              </g>
              <g class="cls-9">
                <polygon class="cls-27" points="48.06 90.12 47.16 92.53 50.65 93.61 51.76 91.85 48.06 90.12"/>
                <polygon class="cls-27" points="76.91 76.06 74.72 78.22 76.89 79.07 78.71 77.55 76.91 76.06"/>
                <polygon class="cls-27" points="76.58 110.78 79.49 109.06 81.96 110.76 79.25 113.35 76.58 110.78"/>
                <polygon class="cls-27" points="95.86 87.39 97.82 84.43 100.29 85.88 98.04 88.69 95.86 87.39"/>
                <polygon class="cls-27" points="39.06 126.3 40.13 123.5 43.55 123.49 43.61 128.58 39.06 126.3"/>
                <polygon class="cls-27" points="68.8 148.19 69.85 145.24 71.95 146.71 71.94 149.09 68.8 148.19"/>
                <polygon class="cls-27" points="91.64 130.18 93.44 127.79 96.42 128.97 95.27 131.14 91.64 130.18"/>
                <polygon class="cls-27" points="33.05 71.87 34.99 71.24 37.26 74.89 33.84 76.45 33.05 71.87"/>
              </g>
            </g>
            <g>
              <polygon class="cls-27" points="17.04 205.34 20.09 203.06 23.81 205.34 21.7 208.28 17.04 208.28 17.04 205.34"/>
              <polygon class="cls-24" points="17.56 205.41 20.05 203.49 22.19 205.01 17.56 205.41"/>
              <polygon class="cls-24" points="17.56 205.97 17.56 207.66 20.67 207.66 22.47 205.67 17.56 205.97"/>
            </g>
            <g>
              <polygon class="cls-27" points="40.98 198.92 43.7 196.45 47.65 198.92 45.67 201.66 40.98 198.92"/>
              <polygon class="cls-24" points="41.65 198.77 43.76 196.9 46.02 198.3 41.65 198.77"/>
              <polygon class="cls-24" points="45.55 200.98 47.24 199.06 46.63 198.65 42.04 199.06 45.55 200.98"/>
            </g>
            <g>
              <polygon class="cls-27" points="23.04 190.47 26.34 187.66 25.47 185.52 29.04 185.52 32.12 189.69 28.56 193.11 23.04 190.47"/>
              <polygon class="cls-24" points="23.93 190.42 26.7 187.88 28.91 188.6 28.12 192.24 23.93 190.42"/>
              <polygon class="cls-24" points="26.24 185.98 26.78 187.41 30.3 188.36 28.56 185.98 26.24 185.98"/>
              <polygon class="cls-24" points="28.56 192.4 29.39 188.85 30.7 188.85 31.33 189.58 28.56 192.4"/>
            </g>
            <polygon class="cls-27" points="38.21 191.31 39.4 188.85 41.16 189.8 42.04 191.74 38.21 191.31"/>
            <polygon class="cls-27" points="30.96 200.98 33.54 200.53 34.73 203.06 30.96 203.9 30.96 200.98"/>
            <polygon class="cls-27" points="10 192.24 11.9 191.31 12.88 193.11 10.5 194.49 10 192.24"/>
            <g>
              <path class="cls-34" d="m88.64,140.74h-48.64s1.8,45.73,1.81,45.75c.4.38,9.65,5.8,22.47,5.8,17.97-1.22,22.5-5.97,22.5-5.97l1.86-45.59Z"/>
              <path class="cls-34" d="m41.53,142.08l2.7,43.63s12.15,6.29,29.06,3.3l2.68-44.14s-19.39,3.09-34.45-2.78Z"/>
              <path class="cls-31" d="m88.64,140.74c0,1.42-10.89,5.55-24.32,5.55s-24.32-4.12-24.32-5.55,10.89-4.81,24.32-4.81,24.32,3.38,24.32,4.81Z"/>
              <path class="cls-34" d="m64.32,146.29c7.97,0,15.01-1.61,19.17-3.16-2.15-1.37-9.9-3.45-19.17-3.45s-17.02,2.08-19.17,3.45c4.16,1.55,11.19,3.16,19.17,3.16Z"/>
              <path class="cls-22" d="m64.32,135.94c-13.43,0-24.32,3.38-24.32,4.81s10.89,5.55,24.32,5.55,24.32-4.12,24.32-5.55-10.89-4.81-24.32-4.81Zm0,8.55c-11.63,0-21.05-2.46-21.05-3.69s9.42-4.16,21.05-4.16,21.05,2.93,21.05,4.16-9.42,3.69-21.05,3.69Z"/>
              <path class="cls-34" d="m71.11,141.99c0,.35-3.04,1.38-6.79,1.38s-6.79-1.03-6.79-1.38,3.04-1.2,6.79-1.2,6.79.84,6.79,1.2Z"/>
              <path class="cls-30" d="m67.72,129.61c-2.16,4.43-2.65,12.47-2.91,12.47s-.83-7.74.56-13.25l2.35.77Z"/>
              <path class="cls-30" d="m67.79,129.57c-.13.49-.8.73-1.49.54-.69-.19-1.14-.74-1.01-1.23.13-.49.8-.73,1.49-.54.69.19,1.14.74,1.01,1.23Z"/>
              <path class="cls-22" d="m45.18,143.47l2.6,39.47s7.71,3.84,16.75,2.82l3.3-39.56-22.64-2.73Z"/>
              <path class="cls-31" d="m41.82,186.49s20.93,11.44,44.97-.16c0,0-5.16,5.97-22.5,5.97s-22.47-5.8-22.47-5.8Z"/>
            </g>
            <g>
              <path class="cls-29" d="m210,56.32h-65.31s3.25,100.97,3.25,100.98c0,.96,12.14,4.27,29.35,4.27s28.99-3.22,29.32-4.23l3.39-101.02Z"/>
              <path class="cls-15" d="m146.74,57.27l4.44,99.64s15.5,4.46,38.21,2.34l3.6-100s-26.04,2.19-46.26-1.97Z"/>
              <path class="cls-18" d="m210,56.32c0,1.62-14.62,6.31-32.66,6.31s-32.66-4.69-32.66-6.31,14.62-5.47,32.66-5.47,32.66,3.85,32.66,5.47Z"/>
              <path class="cls-14" d="m177.34,50.85c-18.04,0-32.66,3.85-32.66,5.47s14.62,6.31,32.66,6.31,32.66-4.69,32.66-6.31-14.62-5.47-32.66-5.47Zm0,9.72c-15.61,0-28.26-2.8-28.26-4.2s12.65-4.73,28.26-4.73,28.26,3.33,28.26,4.73-12.65,4.2-28.26,4.2Z"/>
              <path class="cls-18" d="m149.08,56.38s12.59-8.31,28.79-8.31,27.74,8.31,27.74,8.31h-56.53Z"/>
              <g class="cls-26">
                <path class="cls-29" d="m205.61,56.38s.07-.41-1.14-.89c-2.5-1.15-12.29-7.42-26.6-7.42-.15,0-.3.01-.45.01l-.07,3.14s23.7,5.95-11.97,8.8c5.55.51,16.02.77,24.75-.1,5.65-.57,15.51-2.34,15.48-3.54Z"/>
              </g>
              <path class="cls-29" d="m186.46,49.65c0,.4-4.08,1.57-9.11,1.57s-9.11-1.17-9.11-1.57,4.08-1.36,9.11-1.36,9.11.96,9.11,1.36Z"/>
              <g>
                <path class="cls-30" d="m181.11,37.75c-2.46,4.39-3.02,12.37-3.31,12.37s-.94-7.67.64-13.14l2.68.77Z"/>
                <path class="cls-30" d="m181.2,37.7c-.15.49-.91.73-1.7.54s-1.3-.73-1.15-1.22.91-.73,1.7-.54c.79.19,1.3.73,1.15,1.22Z"/>
              </g>
              <path class="cls-15" d="m177.34,62.63c-11.45,0-21.52-1.89-27.35-3.69h0l4.44,93s15.43,5.91,31.06,2.15l2.04-91.95h0c-3.2.31-6.62.49-10.18.49Z"/>
              <path class="cls-36" d="m147.94,157.3s29.26,8.17,58.67,0c0,0-6,4.6-28.04,4.53-27.72-.47-30.63-4.53-30.63-4.53Z"/>
            </g>
            <g>
              <path class="cls-17" d="m150.28,118.61h0s.08-.02.11-.04v-3.35c.9-.32,1.39-.6,1.39-.81,0-.12.02-2.76-.03-3.4.01-.03.03-.05.03-.08,0-.14.03-3.27-.05-3.31.03-.04.05-.09.05-.13,0-1.16-11.85-3.4-26.46-3.4s-26.46,2.39-26.46,3.4v6.91c0,.21.5.49,1.4.81v3.38c-7.58.34-8.18,6.27-8.23,7.25,0,0,1.87,34.34,1.87,35.59,0,1.1,14.07,4.72,31.42,4.72s31.42-3.62,31.42-4.72c0-.04,1.87-35.45,1.87-35.45.24-4.75-5.08-7.4-8.32-7.4Z"/>
              <path class="cls-16" d="m157.8,127.22c0,1.01-14.21,3.93-31.75,3.93s-31.75-2.92-31.75-3.93l1.81,29.64c0,1.01,13.28,4.35,29.93,4.35s29.93-3.35,29.93-4.35l1.81-29.64Z"/>
              <path class="cls-37" d="m156.42,127.22c0,1.01-13.93,3.93-31.11,3.93s-31.11-2.92-31.11-3.93,13.93-3.4,31.11-3.4,31.11,2.39,31.11,3.4Z"/>
              <path class="cls-4" d="m146.14,107.59c0,.67-9.32,2.17-20.82,2.17s-20.82-1.51-20.82-2.17,9.32-2.25,20.82-2.25,20.82,1.58,20.82,2.25Z"/>
              <path class="cls-12" d="m99.95,108.18s3.13,7.38,11.41,8.44c8.28,1.06,20.51-5.19,20.51-5.19,0,0-21.11.06-31.93-3.25Z"/>
              <path class="cls-1" d="m125.37,115.04c-14.03,0-26.63-2.78-26.63-4.09v-3.44h.33c.24.88,11.79,3.76,26.3,3.76s25.54-2.78,26.28-3.74l.05-.07h.15s.05.05.05.05c.07.07.12.12.1,3.32v.11c0,1.31-12.6,4.09-26.63,4.09Zm-26.3-7.13v3.03c.24.88,11.79,3.76,26.3,3.76s26.06-2.89,26.3-3.77v-.11c.01-1.75,0-2.54-.02-2.88-2.05,1.34-13.62,3.65-26.28,3.65s-24.22-2.28-26.3-3.69Z"/>
              <path class="cls-1" d="m151.86,111.19c-.2.19-.46.33-.74.46-.27.13-.53.21-.8.32-.54.18-1.07.35-1.62.5-1.09.31-2.18.55-3.29.78-2.2.47-4.42.84-6.65,1.15-1.11.16-2.23.28-3.35.41-1.12.1-2.24.24-3.37.3-2.25.16-4.5.22-6.76.25-4.5-.03-9.01-.29-13.48-.88-2.23-.3-4.46-.66-6.66-1.13-1.1-.25-2.2-.51-3.28-.83-.54-.16-1.08-.33-1.61-.53-.27-.1-.53-.21-.79-.34-.13-.06-.26-.14-.39-.22-.11-.11-.28-.14-.34-.45h.33s0,0,0,0v1.9s-.01.95-.01.95c.02.3-.08.71.15.74,1.03.61,2.32.9,3.52,1.23,2.45.61,4.94,1.05,7.45,1.41,5.01.69,10.07,1.02,15.13,1.03,5.06,0,10.12-.34,15.13-1.03,2.5-.35,5-.78,7.46-1.37,1.21-.32,2.47-.61,3.56-1.19.11-.07.26-.19.25-.24v-.48s0-.95,0-.95v-.95s-.02-.47-.02-.47v-.23s-.02-.11-.02-.11v-.05s0-.02,0-.02c0,0,0,.01,0,.02-.04-.05.04.12.2,0h0s-.02.02-.02.02Zm-.18-.17c.17-.12.26.06.22.02,0,.01.02.05.02.05v.04s.01.07.01.07v.12s.02.24.02.24v.48s.01.95.01.95v.95s0,.47,0,.47c-.05.3-.24.33-.37.44-1.16.62-2.4.89-3.63,1.22-2.47.6-4.97,1.03-7.48,1.37-5.02.68-10.09,1.01-15.16,1.01-5.07-.01-10.14-.35-15.16-1.04-2.51-.34-5.02-.76-7.48-1.35-1.23-.33-2.47-.58-3.63-1.25-.06-.04-.16-.12-.23-.23-.03-.05-.03-.08-.05-.12-.01-.13,0-.1,0-.16v-.47s0-.95,0-.95v-1.9s0,0,0,0l-.02-.82.35.82s.33.25.55.34c.25.11.51.2.77.29.53.17,1.06.32,1.6.45,1.08.27,2.18.48,3.28.68,2.2.41,4.41.72,6.64.96,4.45.49,8.91.76,13.39.75,2.23,0,4.47-.03,6.7-.16,2.23-.1,4.47-.25,6.69-.48,2.23-.23,4.45-.51,6.65-.91,1.1-.21,2.2-.43,3.28-.72,1.06-.3,2.21-.53,3.07-1.17l-.02.02Z"/>
              <path class="cls-1" d="m125.37,121.89c-11.91,0-21.72-1.92-25.11-3.12l-.11-.04v-3.81l.22.08c3.35,1.21,13.1,3.12,25,3.12s21.65-1.91,25.02-3.11l.22-.08v3.76l-.11.04c-3.35,1.22-13.12,3.16-25.13,3.16Zm-24.89-3.4c3.47,1.2,13.15,3.07,24.89,3.07s21.48-1.88,24.91-3.1v-3.06c-3.57,1.21-13.22,3.05-24.91,3.05s-21.33-1.85-24.89-3.06v3.11Z"/>
              <path class="cls-3" d="m146.19,107.59c0,.67-9.32,2.17-20.82,2.17s-20.82-1.51-20.82-2.17,9.32-2.25,20.82-2.25,20.82,1.58,20.82,2.25Z"/>
              <path class="cls-1" d="m151.93,107.51s0,.02-.02.09c-.03.09-.09.15-.18.22-.17.14-.45.29-.81.45-.74.31-1.85.65-3.29,1-2.88.68-7.03,1.48-12.08,2.02-2.52.28-5.26.46-8.17.54-2.91.09-5.98-.01-9.14-.21-3.16-.24-6.42-.6-9.7-1.16-1.64-.28-3.29-.6-4.93-.99-.82-.2-1.64-.41-2.45-.67-.4-.13-.81-.26-1.21-.42-.4-.19-.8-.27-1.16-.71-.13-.18.04-.41.13-.47.1-.08.2-.14.3-.19.2-.1.4-.18.6-.26.4-.15.81-.27,1.22-.38.82-.22,1.64-.4,2.47-.57,1.65-.33,3.31-.59,4.95-.81,3.29-.44,6.55-.73,9.71-.9,3.16-.17,6.22-.25,9.12-.18,2.9.06,5.64.2,8.16.39,5.05.39,9.23.97,12.13,1.57,1.45.3,2.57.6,3.32.89.37.15.65.28.83.43.19.13.2.33.2.33h0Zm-.19-.01s.02-.05-.13-.18c-.14-.12-.41-.25-.77-.39-.73-.28-1.85-.57-3.29-.86-2.89-.57-7.07-1.14-12.11-1.46-2.52-.16-5.25-.27-8.15-.29-2.89-.01-5.94,0-9.09.17-3.15.16-6.4.43-9.69.85-1.64.21-3.29.46-4.94.78-.82.16-1.64.34-2.45.55-.4.11-.8.23-1.19.37-.19.07-.39.15-.56.24-.18.09-.33.23-.29.22.18.21.64.39,1,.53.39.14.79.27,1.19.38.8.23,1.62.42,2.44.59,1.64.35,3.28.62,4.92.85,3.28.46,6.52.76,9.66.92,3.14.2,6.19.22,9.07.2,2.89-.03,5.61-.19,8.13-.36,5.03-.38,9.2-.97,12.07-1.62,1.43-.32,2.55-.64,3.27-.93.36-.14.63-.28.77-.4.15-.12.12-.17.13-.19h0Z"/>
              <path class="cls-11" d="m157.35,127.58l-1.72,28.43c0,1.01-13.13,4.35-29.58,4.35s-29.58-3.35-29.58-4.35l-1.72-28.43c-.29-.14-.44-.26-.44-.37l1.81,29.64c0,1.01,13.28,4.35,29.93,4.35s29.93-3.35,29.93-4.35l1.81-29.64c0,.1-.16.23-.44.37Z"/>
              <path class="cls-16" d="m102.24,127.22c0-.93,11.81-3.03,27.09-3.36-1.32-.03-2.65-.04-4.02-.04-17.18,0-31.11,2.39-31.11,3.4s13.93,3.93,31.11,3.93c1.36,0,2.7-.02,4.02-.05-15.28-.4-27.09-2.95-27.09-3.87Z"/>
              <path class="cls-21" d="m156.34,127.09c-1.08,1.08-14.55,3.37-31.03,3.37s-29.95-2.29-31.03-3.37c-.05.05-.08.09-.08.13,0,1.01,13.93,3.93,31.11,3.93s31.11-2.92,31.11-3.93c0-.04-.03-.09-.08-.13Z"/>
              <path class="cls-5" d="m135.34,105.73c-2.96-.24-6.36-.39-9.97-.39-11.5,0-20.82,1.58-20.82,2.25,0,.59,7.19,1.82,16.73,2.11,2.26-1.84,7.46-3.3,14.06-3.97Z"/>
              <g>
                <path class="cls-1" d="m128.06,149.94c0,.24-.19.43-.43.43s-.43-.19-.43-.43.19-.43.43-.43.43.19.43.43Z"/>
                <path class="cls-1" d="m117.43,141.86c0,.24-.19.43-.43.43s-.43-.19-.43-.43.19-.43.43-.43.43.19.43.43Z"/>
                <path class="cls-1" d="m141.37,138.01c0,.24-.19.43-.43.43s-.43-.19-.43-.43.19-.43.43-.43.43.19.43.43Z"/>
                <path class="cls-1" d="m149.77,146.52c0,.24-.19.43-.43.43s-.43-.19-.43-.43.19-.43.43-.43.43.19.43.43Z"/>
                <path class="cls-1" d="m142.23,155.45c0,.24-.19.43-.43.43s-.43-.19-.43-.43.19-.43.43-.43.43.19.43.43Z"/>
                <circle class="cls-1" cx="101.81" cy="153.38" r=".43"/>
                <path class="cls-1" d="m97.86,133.93c0,.24-.19.43-.43.43s-.43-.19-.43-.43.19-.43.43-.43.43.19.43.43Z"/>
                <path class="cls-1" d="m130.5,134.79c0,.24-.19.43-.43.43s-.43-.19-.43-.43.19-.43.43-.43.43.19.43.43Z"/>
                <circle class="cls-1" cx="152.71" cy="134.79" r=".43"/>
                <path class="cls-1" d="m120.8,156.3c0,.24-.19.43-.43.43s-.43-.19-.43-.43.19-.43.43-.43.43.19.43.43Z"/>
                <circle class="cls-1" cx="126.58" cy="142.49" r=".25"/>
                <circle class="cls-1" cx="101.81" cy="142.99" r=".25"/>
                <path class="cls-1" d="m116.19,133.93c0,.14-.11.25-.25.25s-.25-.11-.25-.25.11-.25.25-.25.25.11.25.25Z"/>
                <circle class="cls-1" cx="142.48" cy="148.24" r=".25"/>
                <circle class="cls-1" cx="153.14" cy="141.19" r=".25"/>
                <circle class="cls-1" cx="144.45" cy="132.93" r=".25"/>
                <circle class="cls-1" cx="152.28" cy="154.33" r=".25"/>
              </g>
              <path class="cls-8" d="m103.54,119.49c-.2.09-7.01,1.51-6.85,8.58.11,4.65.35,26.04.74,34.9,2.6.71,6.49,1.51,11.23,2.13-.23-8.22-.31-28.74.35-35.48.67-6.88,4.87-8.38,5.3-8.59-4.36-.39-8.08-.95-10.78-1.54Z"/>
              <g class="cls-6">
                <path class="cls-12" d="m119.19,121.54c-1.97-.11-4.01-.44-4.01-.44,0,0-3.67.62-4.53,8.78-.57,5.37-.49,28.87-.56,35.65.88.11,1.79.21,2.72.3.22-7.4.63-30.55,1.51-35.7,1.06-6.16,4.86-8.6,4.86-8.6Z"/>
              </g>
              <g>
                <ellipse class="cls-1" cx="149.02" cy="127.09" rx=".33" ry=".14"/>
                <path class="cls-1" d="m124.31,128.04c0,.12-.24.22-.53.22s-.53-.1-.53-.22.24-.22.53-.22.53.1.53.22Z"/>
                <path class="cls-1" d="m117.96,125.64c0,.12-.24.22-.53.22s-.53-.1-.53-.22.24-.22.53-.22.53.1.53.22Z"/>
                <path class="cls-1" d="m130.6,125.02c0,.12-.24.22-.53.22s-.53-.1-.53-.22.24-.22.53-.22.53.1.53.22Z"/>
                <path class="cls-1" d="m143.26,127.81c0,.12-.24.22-.53.22s-.53-.1-.53-.22.24-.22.53-.22.53.1.53.22Z"/>
                <path class="cls-1" d="m136.97,126.51c0,.08-.15.14-.33.14s-.33-.06-.33-.14.15-.14.33-.14.33.06.33.14Z"/>
                <path class="cls-1" d="m127.63,129.7c0,.08-.15.14-.33.14s-.33-.06-.33-.14.15-.14.33-.14.33.06.33.14Z"/>
                <path class="cls-1" d="m111.69,129.25c0,.08-.15.14-.33.14s-.33-.06-.33-.14.15-.14.33-.14.33.06.33.14Z"/>
                <path class="cls-1" d="m98.52,126.95c0,.08-.15.14-.33.14s-.33-.06-.33-.14.15-.14.33-.14.33.06.33.14Z"/>
                <path class="cls-1" d="m107.01,125.78c0,.08-.15.14-.33.14s-.33-.06-.33-.14.15-.14.33-.14.33.06.33.14Z"/>
                <path class="cls-1" d="m104.13,127.59c0,.12-.24.22-.53.22s-.53-.1-.53-.22.24-.22.53-.22.53.1.53.22Z"/>
              </g>
              <path class="cls-1" d="m150.4,119.16l-3,.7c-1.01.28-2.1.35-3.14.53l-3.15.5c-1.05.12-2.1.2-3.16.3l-3.15.3c-1.05.14-2.1.14-3.16.18l-6.33.19-6.32-.2c-1.05-.03-2.11-.05-3.16-.18l-3.16-.3c-1.05-.1-2.11-.17-3.16-.3l-3.13-.49-1.57-.23c-.53-.06-1.05-.16-1.57-.3l-3.13-.74.21.03h0c-.24,0-.49-.01-.73,0-.24,0-.5-.02-.73.02-.48.07-.98.11-1.44.26-.23.07-.48.11-.7.21l-.67.29c-.22.1-.42.25-.63.37-.22.12-.4.28-.59.43-.2.14-.37.32-.53.5-.17.17-.34.35-.47.56-.3.38-.55.81-.76,1.25-.42.88-.67,1.86-.73,2.82v-.03l1.02,18.43.51,9.21.26,4.61.13,2.3.03.58.02.29v.14s.01.04.01.04c0,.04-.02-.18,0-.07l.03.07c0-.09.11.07.28.13.15.08.32.15.49.23,2.81,1.06,5.87,1.62,8.86,2.17,3.02.52,6.06.9,9.11,1.19,6.1.57,12.25.68,18.36.43,6.12-.28,12.24-.93,18.24-2.15,1.5-.31,2.99-.65,4.45-1.09.72-.22,1.46-.46,2.08-.79.08-.04.13-.09.2-.13.04-.03.07-.11.04.01.02-.15.02-.37.04-.56l.07-1.15.52-9.21,1.03-18.42.26-4.6c.04-.78.11-1.52.07-2.29-.09-.72-.25-1.45-.62-2.1-1.38-2.6-4.55-4.22-7.4-3.95Zm-.07-1.1c1.66.24,3.14.81,4.5,1.6,1.35.77,2.6,1.84,3.35,3.25.39.69.58,1.49.68,2.29.04.77-.02,1.56-.06,2.31l-.23,4.61-.91,18.42-.45,9.21-.06,1.15-.03.59c-.07.31-.2.36-.29.47-.09.06-.19.14-.28.19-.74.4-1.47.63-2.21.87-1.49.46-2.99.82-4.5,1.14-6.05,1.27-12.19,1.98-18.35,2.31-3.08.16-6.17.22-9.25.12-3.08-.09-6.16-.28-9.23-.59-3.07-.31-6.13-.71-9.17-1.26-3.04-.57-6.06-1.15-9.01-2.27-.18-.08-.37-.16-.55-.26-.17-.11-.39-.16-.62-.56l-.02-.07c.01.08-.03-.15-.03-.14v-.04s0-.14,0-.14v-.29s-.04-.58-.04-.58l-.11-2.3-.23-4.6-.46-9.21-.91-18.42v-.02s0-.01,0-.01c.07-1.05.34-2.07.79-3.01.22-.47.49-.92.82-1.33.15-.22.33-.41.51-.59.17-.2.37-.37.57-.54.2-.17.39-.35.62-.48.22-.14.43-.3.66-.42.46-.24.93-.48,1.43-.65.48-.22,1-.31,1.5-.45.25-.08.51-.1.77-.16.26-.04.52-.1.78-.15h0s.09,0,.09,0l.12.04,2.97.91c.98.34,2.04.46,3.06.7l3.09.6c1.04.16,2.08.27,3.12.41l3.13.37c1.04.15,2.1.17,3.15.22l6.31.27,6.3-.27c1.05-.05,2.1-.06,3.15-.21l3.13-.38c1.04-.14,2.09-.25,3.12-.41l3.08-.61c1.02-.24,2.05-.36,3.05-.7l3.12-.96h.06Z"/>
              <path class="cls-5" d="m150.34,118.61s0,0,0,0c.03-.01.08-.02.11-.04v-3.35c.9-.32,1.39-.6,1.39-.81,0-.12.02-2.76-.03-3.4.01-.03.03-.05.03-.08,0-.14.03-3.43-.05-3.32-.69.9-8.41,2.84-18.78,3.55v6.85l-2.66.22v3.37s-15.52,1.06-30.08-3c8,4.24,31.76,4.71,31.99,4.98,1.4,1.63,3.06,4.03,3.09,6.26.04,2.87-1.13,23.05-1.73,33.21-25,3.06-39.69-1.95-39.71-1.61,14.09,6.26,36.43,4.62,39.54,4.46,13.44-.84,23.35-3.54,23.35-4.46,0-.04,1.87-35.45,1.87-35.45.24-4.75-5.08-7.4-8.32-7.4Z"/>
            </g>
            <path class="cls-32" d="m109.55,168.92c-.22,2.62,7.48,8.33,17.73,7.76,14.71-.82,26.41-21.94,52.46-10.14,0,0,3.56-4.33-1.93-5.36-2.31-.43-3.73-.94-12.22-.75-7.72.39-14.1,3.01-22.7,4.17-9.09,1.22-32.79-2.21-33.34,4.32Z"/>
            <path class="cls-23" d="m177.81,161.19c-2.31-.43-3.73-.94-12.22-.75-7.72.39-14.1,3.01-22.7,4.17-7.92,1.07-26.88-1.39-32.03,2.26-.21.28-.32.55-.32.82,0,2.08,6.14,4.63,14.01,4.71h-.01s.03,0,.04,0c12.11.12,21.78-10.89,42-10.89,7.68,0,12.55,1.89,14.26,2.69.18-1.2-.33-2.5-3.03-3.01Z"/>
            <g class="cls-7">
              <path class="cls-32" d="m122.41,172.84c6.11.15,11.97-1.45,17.54-4.74-5.37,2.32-10.14,4.34-15.37,4.29-.01,0-.03,0-.04,0h.01c-4.28-.05-12.38-1.1-13.92-4.29,0,0,0,0,0,0l-.35-.74c-.08.08-.14.17-.21.25,1.36,4.36,9.55,5.02,12.34,5.23Z"/>
            </g>
            <g class="cls-13">
              <path class="cls-23" d="m163.96,161.59c.86-.04,1.72-.09,2.62-.09,7.68,0,12.55,1.89,14.26,2.69.04-.29.04-.58-.01-.87-4.81-2.12-11.02-2.31-16.87-1.73Z"/>
            </g>
            <path class="cls-19" d="m146.03,164.88l1.46-1.74h1.42l1.66-1.34h1.29l-.3-.99,1.32-.35,1.01.55.65.7.55-1.24h1.04l.91.76s.36.54-.62,1.08c-.98.55-5.15,1.79-10.39,2.58Z"/>
            <g>
              <polygon class="cls-27" points="120.56 182.72 124.02 179.24 127.33 180.98 125.63 184.98 120.56 182.72"/>
              <polygon class="cls-24" points="121.25 182.64 124.02 179.64 126.65 180.83 121.25 182.64"/>
              <polygon class="cls-24" points="122.15 182.9 126.33 181.45 125.29 184.05 122.15 182.9"/>
            </g>
            <g>
              <polygon class="cls-27" points="136.36 191.5 135.4 187.87 140.13 188.56 140.13 192.29 136.36 191.5"/>
              <polygon class="cls-24" points="135.84 188.3 136.23 189.77 137.76 188.58 135.84 188.3"/>
              <polygon class="cls-24" points="136.56 191.14 136.37 190.08 138.01 188.68 139.75 189.03 138.73 191.53 136.56 191.14"/>
              <polygon class="cls-24" points="139.02 191.53 139.75 189.77 139.75 191.82 139.02 191.53"/>
            </g>
            <g>
              <polygon class="cls-27" points="140.81 179.9 141.72 177.82 144.65 177.82 145.21 179.9 143.01 181.48 140.81 179.9"/>
              <polygon class="cls-24" points="141.88 178.15 141.16 179.65 143.78 178.15 141.88 178.15"/>
              <polygon class="cls-24" points="141.41 179.93 144.45 178.15 142.93 181.05 141.41 179.93"/>
              <polygon class="cls-24" points="143.46 180.79 144.45 178.59 144.88 179.8 143.46 180.79"/>
            </g>
            <path class="cls-27" d="m138.99,167.26l-1.52-.15.45-.65-1.94-1.08-1.77.25.28-1.58-1.93-.52-1.1.74-2.16-1.12-2.03.89v1.32l-1.62-1.4-2.34.15v1.25h-1.32l-.74-1.77-2.02-.45v.82l-1.99.45v1.69l-1.37-.74-1.68.74-.36,1.38-1.22-.61-1.99,1.22s0,0,0,0c1.54,3.19,9.64,4.24,13.92,4.29h-.01s.03,0,.04,0c5.23.05,10.01-1.97,15.37-4.29l-.96-.84Z"/>
            <path class="cls-24" d="m138.43,168l-.89.3-.63-.52h-1.34l.3-.86-1.04-.71-1.19.18-.63-1.49-1.04-.11-.41.63-1.23.19-1.04-.89-1.15,1.04.37,1.02h-1.38l-.93-1.36-1.27-.6-1.23,1.15-1.86.19-.93-1.21h-.82l-.6.62-.9-.62-.85.06.26,1.43-.63.62-.86-.41-1.19-.26-.9.45.28,1.27-1.01.45-1.08-1.08-1.23.67-.29.59c2.24,2.7,9.52,3.61,13.5,3.65h-.01s.03,0,.04,0c4.88.05,9.37-1.72,14.31-3.83l-.46-.56Z"/>
            <path class="cls-27" d="m124.55,172.39h-.01s.03,0,.04,0c4.88.05,9.37-1.72,14.31-3.83h-1.68s-.79.69-.79.69l-.6-.32-1.02.37.12.57-1.22.07-.6.62-1.59-.45-.6.82-1.09-.05-.89.79-.79-.07-.84.4-.72-.65-.99-.17-.87.45-1.07-.1-.87.6-1.19-.45h-.7l-.27-.82-.94-.3-.45.42-.47-.89-1.44.12-.1,1.09-1.14-.89-.89-.35-.3.35h-.67l-.25-.65-.87-.32-1.02-.15-1.44-1.19s0,0,0,0c1.54,3.19,9.64,4.24,13.92,4.29Z"/>
            <g>
              <polygon class="cls-27" points="117.08 168.28 118.05 167.78 118.23 168.85 117.08 168.28"/>
              <polygon class="cls-27" points="123.14 167.41 124.33 166.88 124.75 167.78 123.14 167.41"/>
              <polygon class="cls-27" points="127.59 170.58 126.92 169.72 128.36 169.59 127.59 170.58"/>
              <polygon class="cls-27" points="131.11 167.33 131.69 167.33 131.54 167.98 131.11 167.33"/>
              <polygon class="cls-27" points="134.32 167.78 134.79 168.31 133.97 168.56 134.32 167.78"/>
              <polygon class="cls-27" points="122.25 170.09 121.5 170.68 122.25 171.08 122.25 170.09"/>
              <polygon class="cls-27" points="114.65 168.85 114.05 169.04 114.65 169.59 114.65 168.85"/>
            </g>
            <polygon class="cls-27" points="144.45 172.4 145.71 171.08 146.34 172.85 144.45 172.4"/>
            <polygon class="cls-27" points="124.75 194.77 126.33 192.65 127.33 195.26 124.75 194.77"/>
            <polygon class="cls-24" points="111.69 176.72 113.84 176.72 114.88 177.82 112.97 178.9 111.69 176.72"/>
          </g>
        </g>
      </g>
    </g>
  </g>
</svg>