<?xml version="1.0" encoding="UTF-8"?>
<svg xmlns="http://www.w3.org/2000/svg" viewBox="0 0 220 220">
  <defs>
    <style>
      .cls-1, .cls-2, .cls-3, .cls-4 {
        fill: #a8846f;
      }

      .cls-5, .cls-6 {
        fill: #fff;
      }

      .cls-7, .cls-8 {
        fill: #c49f75;
      }

      .cls-9 {
        fill: #f9eae1;
      }

      .cls-10 {
        isolation: isolate;
      }

      .cls-11 {
        fill: #a6bfba;
      }

      .cls-12 {
        fill: #c0ded8;
      }

      .cls-13 {
        fill: #8cad66;
      }

      .cls-2, .cls-14 {
        opacity: .1;
      }

      .cls-15, .cls-16, .cls-17 {
        fill: #774e34;
      }

      .cls-18 {
        fill: #dbb382;
      }

      .cls-16, .cls-19 {
        opacity: .4;
      }

      .cls-16, .cls-8, .cls-20 {
        mix-blend-mode: multiply;
      }

      .cls-6 {
        opacity: .7;
      }

      .cls-21 {
        fill: #a4c9bf;
      }

      .cls-22 {
        fill: #fff0b0;
      }

      .cls-23 {
        fill: #332722;
      }

      .cls-24 {
        fill: #345e4e;
      }

      .cls-3 {
        opacity: .6;
      }

      .cls-8, .cls-4, .cls-17, .cls-20 {
        opacity: .3;
      }

      .cls-25 {
        fill: #60843a;
        opacity: .5;
      }

      .cls-26 {
        fill: #fff5ee;
      }

      .cls-27 {
        fill: #efe1ce;
      }

      .cls-28 {
        fill: #718c4b;
      }

      .cls-29 {
        fill: #d1c1b0;
      }

      .cls-30, .cls-20 {
        fill: #d3ac7d;
      }

      .cls-17 {
        mix-blend-mode: screen;
      }

      .cls-31 {
        fill: #d9e5d1;
      }

      .cls-32 {
        fill: #ca5959;
      }

      .cls-33 {
        fill: #8aaaa1;
      }

      .cls-34 {
        fill: #ffebb2;
      }

      .cls-35 {
        fill: #f7d892;
      }

      .cls-36 {
        fill: #377f65;
      }
    </style>
  </defs>
  <g class="cls-10">
    <g id="Layer_2" data-name="Layer 2">
      <g id="_2" data-name="2">
        <g>
          <circle class="cls-31" cx="110" cy="110" r="110"/>
          <g>
            <g>
              <path class="cls-2" d="m166.32,64.29c-2.73-5.33-8.61-2.83-8.84-8.07-.17-3.8,5.95-5.29,5.95-5.29v-7.94h-.08c-.28-.58-8.03-1.87-17.57-1.87s-17.29,1.29-17.57,1.87h-.08v7.94s6.12,1.49,5.95,5.29c-.23,5.24-6.11,2.74-8.84,8.07-6.52,12.73-5.28,55.12-.87,60.2,7.12,8.22,35.71,8.2,42.82,0,4.4-5.08,5.65-47.47-.87-60.2Z"/>
              <g class="cls-14">
                <path class="cls-1" d="m164.42,66.37c-2.48-4.84-7.52-3.78-8.64-8.8-.75-3.37,1.36-5.51,1.36-5.51h0c-3.07.33-7.03.58-11.37.58s-8.3-.25-11.37-.58h0s2.11,2.13,1.36,5.51c-1.12,5.02-6.16,3.97-8.64,8.8-5.92,11.56-4.79,50.03-.79,54.64,3.23,3.73,11.33,5.59,19.43,5.59,8.1,0,16.2-1.86,19.43-5.59,4-4.61,5.12-43.09-.79-54.64Z"/>
              </g>
              <g>
                <path class="cls-7" d="m136.16,42.99l1.23,7.03c5.17,1.18,9.64.91,16.87,0l1.14-7.03h-19.23Z"/>
                <path class="cls-8" d="m136.16,42.99s4.95,1.68,12.33,2.32c0,.6,0,2.71-.12,3.82-1.99,1.64-10.98.89-10.98.89,5.17,1.18,9.64.91,16.87,0l1.14-7.03h-19.23Z"/>
                <g>
                  <circle class="cls-8" cx="138.68" cy="45.6" r=".52"/>
                  <path class="cls-8" d="m147.77,48.11c0,.2-.16.37-.37.37s-.37-.16-.37-.37.16-.37.37-.37.37.16.37.37Z"/>
                  <path class="cls-8" d="m144.8,45.97c0,.2-.16.37-.37.37s-.37-.16-.37-.37.16-.37.37-.37.37.16.37.37Z"/>
                </g>
              </g>
              <path class="cls-1" d="m166.01,64.48c-.23-.37-.42-.8-.68-1.11-.24-.33-.51-.65-.83-.93-.3-.3-.65-.54-1.01-.77-.36-.23-.74-.43-1.14-.61-.79-.36-1.63-.64-2.45-1.02-.41-.19-.82-.4-1.18-.7-.19-.14-.36-.29-.5-.48-.16-.17-.3-.36-.4-.57-.25-.4-.35-.86-.43-1.31l-.08-.68c0-.26.02-.45.02-.68.06-.46.22-.93.44-1.33.23-.4.52-.76.85-1.09.65-.65,1.41-1.15,2.21-1.57.8-.42,1.62-.77,2.51-1.04h0s-.27.34-.27.34c.17-1.32.19-2.65.18-3.97-.01-1.32-.05-2.65-.18-3.97h0s.36.35.36.35h-.08l.32-.51s.05.1.06.15c0,.06.03-.09-.02.15h0s0,.02,0,.02c0,0-.02.06-.08.14-.14.16-.19.15-.24.19-.11.06-.21.1-.3.13-.19.07-.38.12-.57.17-.37.09-.74.17-1.11.24-.74.14-1.48.25-2.22.35-1.48.2-2.97.35-4.45.47-2.97.24-5.96.35-8.94.35-2.98,0-5.97-.12-8.94-.35-1.49-.12-2.97-.27-4.45-.47-.74-.1-1.48-.21-2.22-.35-.37-.07-.74-.15-1.11-.24-.19-.05-.37-.1-.57-.17-.1-.03-.19-.07-.3-.13-.06-.03-.11-.05-.19-.13-.03-.03-.08-.06-.13-.2-.01-.08-.04-.06-.02-.22l.02-.03.35.43h-.08s.36-.36.36-.36c-.09,1.32-.13,2.65-.14,3.97-.01,1.32,0,2.65.14,3.97h0s-.27-.35-.27-.35c1.91.65,3.79,1.53,5.14,3.09.66.79,1,1.86.86,2.88-.05.97-.48,2.07-1.31,2.69-.81.65-1.78.98-2.69,1.34-.92.35-1.81.74-2.59,1.3-1.63,1.06-2.42,2.94-3.09,4.75-1.29,3.69-1.92,7.6-2.41,11.49-.47,3.9-.72,7.83-.85,11.76-.12,3.93-.1,7.87.03,11.8.14,3.93.39,7.86.86,11.75.23,1.95.52,3.88.93,5.78.2.95.45,1.88.74,2.79.33.9.66,1.73,1.26,2.32,1.3,1.35,2.96,2.26,4.74,2.99,1.77.72,3.64,1.24,5.54,1.62,3.8.76,7.71,1.03,11.6.93,3.88-.08,7.78-.51,11.51-1.52,1.86-.51,3.67-1.18,5.31-2.11,1.6-.93,3.21-2.12,3.67-3.81,1.24-3.57,1.66-7.55,2.08-11.43.7-7.81.88-15.7.52-23.55-.19-3.92-.5-7.85-1.08-11.73-.61-3.86-1.33-7.78-3-11.27v.02Zm.62-.35c.92,1.8,1.53,3.71,2.04,5.63.49,1.93.9,3.87,1.21,5.83.64,3.91,1.01,7.86,1.26,11.81.45,7.9.46,15.83-.23,23.73-.18,1.98-.41,3.95-.71,5.92-.32,1.97-.68,3.93-1.39,5.89-.15.46-.44,1.05-.7,1.5-.17.22-.21.36-.49.66l-.56.57c-.78.71-1.62,1.34-2.52,1.84-1.79,1.02-3.7,1.73-5.64,2.28-3.89,1.07-7.88,1.53-11.88,1.64-3.99.07-8-.26-11.92-1.09-1.96-.42-3.9-.98-5.77-1.76-1.85-.78-3.72-1.82-5.15-3.34-.8-.81-1.21-1.88-1.53-2.83-.31-.97-.55-1.95-.75-2.93-.4-1.96-.67-3.93-.89-5.9-.83-7.89-.94-15.81-.6-23.71.19-3.95.5-7.89,1.02-11.82.55-3.92,1.24-7.83,2.61-11.59.36-.95.72-1.83,1.26-2.72.5-.88,1.23-1.65,2.07-2.21,1.66-1.2,3.78-1.42,5.3-2.55.76-.59,1.15-1.47,1.21-2.45.12-.94-.19-1.89-.81-2.61-1.27-1.43-3.19-2.2-5.03-2.62-.16-.04-.26-.17-.27-.32v-.02s0,0,0,0c.14-1.32.15-2.65.14-3.97,0-1.32-.05-2.65-.14-3.97-.01-.18.12-.34.31-.35h0s.05,0,.05,0h0s.08,0,.08,0h.14c.15,0,.27.12.27.27,0,.06-.02.12-.06.17l-.02.03c0-.14,0-.1,0-.16-.04-.09-.06-.09-.05-.09-.02-.01.01,0,.04.02.05.03.13.06.21.09.16.06.33.1.5.15.35.09.71.17,1.07.23.72.14,1.45.25,2.18.35,1.46.2,2.94.35,4.42.47,2.95.24,5.92.35,8.88.35,2.96,0,5.93-.11,8.88-.35,1.48-.12,2.95-.27,4.42-.47.73-.1,1.46-.21,2.18-.35.36-.07.72-.14,1.07-.23.17-.04.35-.09.5-.15.08-.03.15-.06.21-.09.03,0,.07-.06,0,.03-.02.05-.01.07,0,.03v-.02s.01,0,.01,0l-.02.14s0,.07.01.1l.32-.51h.08c.2,0,.36.16.36.36h0c-.12,1.32-.16,2.65-.18,3.97-.01,1.32,0,2.65.18,3.97.02.13-.06.26-.17.3l-.1.04h0c-1.65.38-3.35,1.05-4.62,2.2-.31.3-.58.63-.79.99-.21.38-.34.75-.41,1.16,0,.21-.04.46-.03.64l.07.64c.09.41.19.83.43,1.18.09.19.22.35.37.5.13.16.29.3.46.42.33.26.71.45,1.11.62.79.34,1.64.61,2.47.95.42.17.83.37,1.22.6.39.24.78.49,1.12.8.36.29.67.64.97,1.02.31.36.49.75.74,1.12v.02Z"/>
              <path class="cls-1" d="m145.78,45.22c-7.23,0-17.95-.92-17.95-2.19s10.89-2.26,17.95-2.26,17.95.97,17.95,2.26-10.72,2.19-17.95,2.19Zm-16.88-2.2c1.81.55,8.57,1.48,16.88,1.48s15.07-.93,16.88-1.48c-1.81-.57-8.59-1.54-16.88-1.54s-15.07.97-16.88,1.54Z"/>
              <path class="cls-1" d="m163.71,50.93s0,0,0,.02c0,0,0,.04-.1.15-.1.12-.17.14-.22.17-.07.04-.12.06-.19.09-.28.11-.66.22-1.14.34-.97.22-2.35.47-4.01.67-3.33.41-7.79.72-12.26.73-4.47-.01-8.93-.32-12.26-.73-1.67-.2-3.05-.45-4.01-.67-.49-.11-.86-.22-1.14-.34-.14-.07-.24-.1-.37-.21-.03-.03-.05-.04-.07-.07-.03-.05-.06-.1-.07-.15-.03-.09-.02-.13-.02-.13,0-.2.16-.36.36-.36s.36.16.36.36c0,0,0-.02,0-.08,0-.03-.02-.06-.05-.09,0,0,0-.01,0-.01-.03-.02.06.03.15.07.21.08.57.18,1.03.28.93.2,2.3.39,3.95.58,3.3.38,7.73.65,12.17.63,4.43.02,8.87-.25,12.16-.63,1.65-.19,3.02-.39,3.95-.58.47-.1.83-.2,1.03-.28.05-.02.1-.04.12-.05.04-.02.05-.04,0,.03-.03.08-.01.07,0,.04,0-.02.01-.02.01-.02l.02-.04c.08-.18.29-.26.47-.19.18.08.26.28.19.46Z"/>
              <path class="cls-3" d="m157.17,43.02c0,.36-5.1.89-11.39.89s-11.39-.53-11.39-.89,5.1-1.23,11.39-1.23,11.39.87,11.39,1.23Z"/>
              <path class="cls-30" d="m158.52,29.57c.01.4-4.29,1.03-10.52,1.13-7.5.12-14.97-.57-15.08-1.13-.11-.56,7.14-1.75,14.81-1.59,6.35.14,10.77,1.19,10.78,1.59Z"/>
              <path class="cls-7" d="m148.01,30.7c-7.5.12-14.97-.57-15.08-1.13l3.24,13.48c0,.37,5.31.86,10.95.81,4.85-.05,8.35-.49,8.38-.77l3.02-13.51c.01.4-4.29,1.03-10.52,1.13Z"/>
              <g>
                <path class="cls-9" d="m125.72,72.61c-3.51,14.85-2.24,43.66,1.14,47.56,3.15,3.63,11.03,5.44,18.91,5.44,7.88,0,15.77-1.81,18.91-5.44,3.38-3.9,4.65-32.69,1.15-47.55h-40.12Z"/>
                <path class="cls-5" d="m165.84,72.62h-.62c3.4,14.68,2.16,43.12-1.11,46.97-3.05,3.59-10.69,5.38-18.33,5.37-7.64,0-15.28-1.79-18.33-5.37-3.28-3.86-4.51-32.31-1.11-46.99h-.62c-3.51,14.85-2.24,43.66,1.14,47.56,3.15,3.63,11.03,5.44,18.91,5.44,7.88,0,15.77-1.81,18.91-5.44,3.38-3.9,4.65-32.69,1.15-47.55Z"/>
              </g>
              <path class="cls-26" d="m165.84,72.6c0,.64-8.98,2.1-20.06,2.1s-20.06-1.46-20.06-2.1,8.98-2.18,20.06-2.18,20.06,1.53,20.06,2.18Z"/>
              <path class="cls-5" d="m165.61,72.41c-1.39.66-9.73,1.62-19.83,1.62s-18.44-.96-19.83-1.62c-.13.07-.23.13-.23.19,0,.64,8.98,2.1,20.06,2.1s20.06-1.46,20.06-2.1c0-.06-.09-.12-.23-.19Z"/>
              <path class="cls-4" d="m166.32,64.29c-2.73-5.33-8.61-2.83-8.84-8.07-.17-3.8,5.95-5.29,5.95-5.29v-7.94h-.08s.03.02.03.03c0,.51-6.43,1.59-14.82,1.8v7.79s-12.16-.19-18.22-.88c9.62,2.92,16.76,2.46,16.56,2.75-.64.92-1.19,2.09-1.08,3.28.26,2.6,6.46,3.35,7.46,8.06.99,4.71,8.46,57.35-8.91,62.19-9.2,2.65-21.73-2.4-22.46-12.1.62,4.28,1.46,7.42,2.47,8.59,7.12,8.22,35.71,8.2,42.82,0,4.4-5.08,5.65-47.47-.87-60.2Z"/>
              <path class="cls-6" d="m129.37,44.86v4.75s8.13,1.82,17.01,1.74v-4.45s-11.55-.08-17.01-2.04Z"/>
              <path class="cls-6" d="m140.63,93.34c-.31,15.57-3.95,28.13-8.12,28.05-4.17-.08-7.31-12.78-6.99-28.35.31-15.57,3.95-28.13,8.12-28.05,4.17.08,7.31,12.78,6.99,28.35Z"/>
              <path class="cls-8" d="m148.01,30.7c-7.5.12-14.97-.57-15.08-1.13,0,0,.42,2.56,17.99,4.3-.24,1.46-.92,7.89-1.01,8.45-3.42,1.71-13.73.72-13.73.72,0,.37,5.31.86,10.95.81,4.85-.05,8.35-.49,8.38-.77l3.02-13.51c.01.4-4.29,1.03-10.52,1.13Z"/>
              <g>
                <path class="cls-8" d="m146.34,35.5c0-.34.3-.61.66-.61.36,0,.65.3.65.64,0,.35-.3.62-.67.61-.36-.01-.64-.3-.64-.65Z"/>
                <path class="cls-8" d="m138.39,37.21c.02-.31.26-.55.55-.54.29.01.52.28.5.6-.02.32-.27.56-.56.54-.29-.02-.51-.29-.5-.6Z"/>
                <path class="cls-8" d="m145.58,41.73c0-.36.3-.62.66-.58.36.04.66.37.65.73,0,.37-.31.63-.68.59-.36-.04-.65-.37-.64-.73Z"/>
                <path class="cls-8" d="m142.59,38.48c0-.23.19-.4.42-.39.23.01.4.22.4.45,0,.23-.2.41-.42.39-.22-.02-.4-.22-.39-.45Z"/>
                <path class="cls-8" d="m139.28,40.75c.01-.22.19-.39.39-.37.21.02.37.22.36.45-.01.23-.19.39-.4.37-.21-.02-.37-.23-.36-.45Z"/>
                <path class="cls-8" d="m140.32,34.37c0-.21.18-.39.39-.38.21,0,.37.18.36.4,0,.22-.19.39-.39.39-.21,0-.37-.18-.36-.4Z"/>
              </g>
              <path class="cls-20" d="m151.03,30.4c-6.88.08-13.65-.6-13.74-1.13-.06-.34,2.7-.93,6.63-1.26-6.13.2-11.09,1.1-11,1.56.11.56,7.58,1.24,15.08,1.13,3.4-.05,6.18-.26,8.01-.5-1.41.11-3.09.18-4.99.21Z"/>
              <g>
                <path class="cls-20" d="m148.5,29.59c.01.13-.35.24-.82.24-.48,0-.88-.11-.9-.25s.36-.24.84-.24c.47,0,.87.12.88.25Z"/>
                <path class="cls-20" d="m145.49,28.53c0,.12-.29.22-.67.22-.38,0-.71-.1-.71-.22,0-.12.3-.22.69-.22.38,0,.69.1.7.22Z"/>
                <path class="cls-20" d="m152.04,28.77c0,.12-.31.22-.72.22-.41,0-.76-.11-.77-.24-.01-.13.32-.23.73-.22.41,0,.74.11.75.24Z"/>
                <path class="cls-20" d="m155.74,29.65c.01.1-.28.18-.67.18-.39,0-.72-.09-.73-.2-.02-.1.29-.19.68-.18.39,0,.71.09.72.2Z"/>
                <path class="cls-20" d="m140.78,28.98c0,.08-.2.15-.45.15-.25,0-.46-.07-.47-.15,0-.08.2-.15.45-.15.25,0,.46.07.46.15Z"/>
              </g>
            </g>
            <path class="cls-25" d="m149.43,152.76s-9.31-3.59-11.88-7.25c-3.22-4.58-5.65-26.74-5.65-26.74,0,0,.23,20.64,4.31,27.33,3.15,5.2,13.23,6.66,13.23,6.66Z"/>
            <g>
              <path class="cls-15" d="m10,99.23s8.91,43.59,43.35,67.77c13.92,8.17,61.71,6.86,71.91,0,30.59-22.23,42.66-67.77,42.66-67.77H10Z"/>
              <path class="cls-7" d="m167.92,99.23c0,4.4-35.35,17.13-78.96,17.13S10,103.63,10,99.23s35.35-14.84,78.96-14.84,78.96,10.44,78.96,14.84Z"/>
              <path class="cls-17" d="m10.31,100.58c1.81,7.47,12.15,44.74,43.04,66.43,39.93,9.93,84.87-21.11,82.25-36.2-2.99-17.18-72.42,4.21-125.29-30.23Z"/>
              <path class="cls-16" d="m146.63,144.51c.61-.87,1.19-1.74,1.77-2.62-14.47,4.14-35.72,7.91-59.44,7.91s-45.68-3.89-60.15-8.11c.61.89,1.23,1.77,1.87,2.66,14.44,4.01,35.2,7.58,58.28,7.58s43.26-3.47,57.67-7.41Z"/>
              <g class="cls-19">
                <path class="cls-16" d="m88.34,132.85c9.06-1.81,18.77-2.37,28.17-2.91,14.31-.82,28.99-1.69,42.37-6.88.2-.42.4-.85.59-1.26-13.5,5.45-28.45,6.32-43,7.16-9.43.54-19.17,1.11-28.28,2.92-18.22,3.64-55.33-6.9-73.76-18.17.18.47.36.95.55,1.44,16.25,9.57,45.46,18.43,64.81,18.43,3.14,0,6.03-.24,8.56-.74Z"/>
                <path class="cls-16" d="m132.21,120.43c0,.35.12.84.68,1.21.6.39,1.71.56,3.2.56,5.96,0,17.82-2.76,25.36-4.89.16-.37.31-.74.46-1.1-9.12,2.62-25.78,6.42-28.57,4.58-.25-.16-.25-.3-.25-.36,0-2.31,15.63-8.32,24.96-11.91,3.07-1.18,5.8-2.23,7.95-3.11.14-.42.28-.83.41-1.22-2.27.95-5.31,2.12-8.64,3.4-14.96,5.75-25.55,10.04-25.55,12.84Z"/>
                <path class="cls-16" d="m81.6,122.46c2.71,0,5.44-.25,8.2-.79,5.75-1.14,11.29-3.59,16.65-5.95.03-.01.06-.03.09-.04-.95.07-1.9.14-2.86.2-4.55,1.98-9.23,3.87-14.03,4.82-14.07,2.79-27.58-2.46-40.67-7.83-1.61-.28-3.19-.58-4.72-.88.96.39,1.92.78,2.89,1.18,11.13,4.58,22.57,9.29,34.45,9.29Z"/>
                <path class="cls-16" d="m76.59,146.48c7.8,0,15.34-2.48,22.64-4.87,7.29-2.39,14.84-4.87,22.62-4.87,7.38,0,14.45,2.54,21.28,4.99,1.43.51,2.89,1.03,4.36,1.54.19-.28.37-.56.55-.83-1.56-.53-3.12-1.09-4.64-1.64-6.9-2.48-14.04-5.04-21.55-5.04-7.91,0-15.51,2.5-22.86,4.91-7.24,2.38-14.73,4.83-22.4,4.83-11.04,0-21.14-5.28-30.9-10.39-8.43-4.41-17.11-8.94-26.5-10.17.17.35.34.7.51,1.06,9.02,1.33,17.44,5.72,25.62,10,9.85,5.16,20.04,10.49,31.27,10.49Z"/>
                <path class="cls-16" d="m139.98,132.1c-.59,3.27,5.74,6.66,9.38,8.33.17-.27.33-.54.5-.81-4.53-2.02-9.43-5.12-9.03-7.33.31-1.71,8.67-2.19,13.67-2.48.36-.02.7-.04,1.05-.06.18-.34.35-.68.52-1.01-.53.03-1.07.06-1.62.09-8.48.49-14.07.98-14.48,3.27Z"/>
                <path class="cls-16" d="m99.94,149.21c-2.81,1.77-3.92,3.42-3.37,5.03,1.75,5.21,22.43,6.8,35.55,7.13.31-.28.62-.56.92-.84-12.79-.34-33.87-2.18-35.62-6.55-.54-1.35,1.31-2.87,2.95-3.91,9.29-5.86,29.31-7.98,44.34-2.87.2-.28.41-.55.61-.83-15.29-5.32-35.86-3.16-45.37,2.84Z"/>
                <path class="cls-16" d="m141.77,150.76c-3.9-.78-10.06-1.61-15.73-1.61-6.49,0-10.53,1.07-12.01,3.17-.54.77-.47,1.35-.32,1.71.32.75,1.35,1.6,6.47,1.6h0c5.46,0,13.49-.99,19.18-1.73.32-.37.63-.74.95-1.11-5.69.75-14.36,1.87-20.13,1.87h0c-4.85,0-5.57-.8-5.68-1.05-.08-.19.08-.47.22-.67,1.29-1.83,5.2-2.79,11.32-2.79,5.04,0,10.47.66,14.32,1.36,0,.05-.01.1-.01.15,0,.23.15.44.4.61.41-.49.83-.99,1.23-1.49,0,0,0,0,0,0-.07,0-.14,0-.2,0Z"/>
                <path class="cls-16" d="m51.53,153.7c.51-6.91-17.47-17.67-28.38-21.13.23.41.47.82.7,1.23,11.09,3.72,27.24,13.93,26.81,19.81-.13,1.7-1.79,3.65-7.99,4.55.29.28.58.56.88.84,5.1-.88,7.79-2.65,7.98-5.31Z"/>
                <path class="cls-16" d="m41.4,150.2l-.05-.13c-3.07-5.22-6.99-6.03-11.19-6.43.25.36.52.71.78,1.07,3.73.42,6.99,1.38,9.64,5.84.12.51.03.92-.28,1.31-.52.66-1.53,1.06-2.5,1.28.24.27.48.54.73.81.95-.28,1.87-.74,2.43-1.44.52-.65.67-1.45.45-2.31Z"/>
                <path class="cls-16" d="m87.75,158.44c9.02,4.92,18.71,9.52,29.51,11.53.81-.19,1.6-.39,2.33-.6-11.58-1.74-21.9-6.59-31.46-11.81-12.28-6.7-22.03-2.44-32.35,2.07-2.54,1.11-5.14,2.23-7.84,3.23.29.24.58.47.88.71,2.5-.96,4.92-2,7.28-3.03,10.58-4.62,19.72-8.61,31.65-2.1Z"/>
                <path class="cls-16" d="m101.94,172.16c.8-.06,1.59-.13,2.36-.2-16.99-5.97-34.46-11.77-51.44-5.31.17.12.32.24.49.36.18.11.39.2.58.3,15.78-5.64,32.09-.71,48.01,4.85Z"/>
                <path class="cls-16" d="m32.63,114.26c.32-.77.33-1.6.03-2.46-.35-1.01-1.16-2.05-2.27-3.09-.75-.21-1.48-.42-2.19-.63,1.85,1.4,3.2,2.78,3.64,4.07.21.61.21,1.17,0,1.7-1.17,2.84-7.46,1.56-18.74-3.82.14.42.3.86.45,1.29,5.8,2.75,11.49,4.96,15.18,4.96,1.92,0,3.31-.6,3.9-2.03Z"/>
              </g>
              <g>
                <path class="cls-18" d="m56.06,87.34s-4.57,1.06-12.58,2.91c-4,.92-8.87,1.99-14.42,3.43-2.76.75-5.72,1.55-8.69,2.85-.74.34-1.47.72-2.16,1.2-.65.49-1.39,1.1-1.5,2.02-.11.47.29.75.61,1.03.34.26.72.49,1.1.69.77.41,1.58.76,2.4,1.09,6.63,2.52,14.08,4.27,21.95,5.94,7.89,1.63,16.26,3.03,24.96,4.09,8.7,1.04,17.73,1.77,26.92,1.72,9.18-.07,18.49-1.13,27.69-2.81,9.21-1.67,18.34-3.91,27.14-6.85,2.2-.74,4.37-1.53,6.5-2.41,1.06-.45,2.12-.91,3.14-1.43.51-.26,1.02-.53,1.5-.84.24-.16.48-.32.69-.5.21-.15.42-.45.43-.52-.03-.51-.51-.92-.94-1.27-.45-.35-.94-.64-1.44-.91-1-.54-2.03-.99-3.08-1.41-2.09-.83-4.21-1.51-6.32-2.13-8.47-2.45-16.83-4-24.78-5.19-7.95-1.16-15.52-1.88-22.51-2.25-3.5-.18-6.85-.28-10.04-.31-3.19.02-6.22.15-9.06.22-2.84.08-5.51.15-7.97.22-2.46.01-4.71.32-6.75.44-8.15.64-12.81,1-12.81,1Zm0,0s4.66-.38,12.81-1.05c2.04-.13,4.29-.44,6.75-.46,2.46-.08,5.12-.16,7.97-.26,2.85-.08,5.87-.23,9.06-.26,3.19,0,6.55.09,10.05.26,7,.34,14.57,1.03,22.54,2.16,7.96,1.16,16.34,2.68,24.84,5.1,2.12.62,4.25,1.29,6.36,2.12,1.05.41,2.1.87,3.12,1.41.51.28,1.01.57,1.49.94.44.37,1.02.78,1.12,1.58-.07.58-.36.7-.58.94-.23.21-.48.37-.73.54-.5.32-1.01.6-1.53.87-1.04.53-2.1,1-3.17,1.46-2.14.9-4.32,1.7-6.52,2.45-8.81,2.98-17.96,5.27-27.18,6.97-9.23,1.65-18.57,2.67-27.78,2.7-9.21.01-18.25-.75-26.96-1.83-8.71-1.09-17.08-2.53-24.97-4.19-7.88-1.71-15.32-3.49-21.96-6.04-.83-.33-1.64-.69-2.41-1.1-.39-.21-.77-.44-1.12-.71-.18-.14-.35-.29-.49-.48-.15-.19-.25-.48-.18-.72.13-1.02.91-1.64,1.57-2.13.7-.49,1.44-.87,2.18-1.2,2.99-1.29,5.95-2.08,8.71-2.82,5.55-1.43,10.42-2.47,14.43-3.37,8.01-1.82,12.59-2.85,12.59-2.85Z"/>
                <path class="cls-18" d="m76.87,89.32s.96-.05,2.75-.15c1.79-.08,4.42-.18,7.77-.2,6.7-.04,16.28.22,27.7,1.66,5.7.74,11.87,1.73,18.3,3.33,3.2.86,6.52,1.68,9.68,3.38.39.23.77.48,1.11.85.15.19.34.42.3.8-.04.26-.24.55-.4.69-.7.67-1.52,1.07-2.32,1.49-1.63.8-3.31,1.45-5.02,2.07-6.86,2.43-14.09,4.33-21.49,5.96-3.7.8-7.45,1.53-11.24,2.09-3.78.56-7.61,1.01-11.46,1.01-7.67-.05-15.32-.7-22.82-1.62-7.5-.94-14.84-2.17-21.9-3.6-7.06-1.48-13.88-3.01-20.17-5.25-.78-.3-1.56-.6-2.29-1.03-.18-.11-.36-.23-.53-.39-.08-.08-.18-.17-.21-.35-.01-.26.06-.25.1-.39.32-.46.68-.6,1.03-.84,1.45-.79,2.96-1.32,4.45-1.82,2.98-.97,5.9-1.72,8.71-2.39,11.26-2.59,20.79-3.77,27.45-4.47,3.34-.34,5.96-.53,7.75-.66,1.79-.11,2.75-.17,2.75-.17Zm0,0s-.96.06-2.75.19c-1.79.14-4.42.34-7.75.7-6.66.73-16.19,1.96-27.42,4.61-2.8.68-5.72,1.44-8.68,2.43-1.47.5-2.98,1.04-4.4,1.82-.33.2-.73.45-.92.71-.28.33.23.56.53.78.71.41,1.48.7,2.26,1,6.27,2.19,13.1,3.69,20.15,5.13,7.06,1.4,14.4,2.59,21.89,3.49,7.49.89,15.13,1.49,22.77,1.51,3.81.02,7.62-.41,11.39-.94,3.78-.55,7.52-1.25,11.22-2.03,7.39-1.6,14.63-3.46,21.47-5.84,1.71-.61,3.39-1.25,5-2.03.79-.4,1.61-.81,2.24-1.41.85-.67-.28-1.36-.93-1.78-3.08-1.68-6.42-2.53-9.59-3.4-6.41-1.63-12.57-2.66-18.27-3.42-11.4-1.5-20.99-1.81-27.68-1.8-3.35,0-5.98.09-7.77.16-1.79.09-2.75.13-2.75.13Z"/>
                <path class="cls-18" d="m38.43,99.97s-.04.26.29.5c.3.25.8.51,1.47.78,1.34.54,3.38,1.12,5.98,1.75,5.21,1.25,12.72,2.66,21.76,4.09,4.52.71,9.43,1.44,14.62,2.1,2.6.28,5.27.75,8,.64,2.74-.06,5.54-.28,8.37-.62,5.67-.68,11.48-1.81,17.31-3.32,2.92-.76,5.83-1.61,8.72-2.62,1.44-.5,2.88-1.04,4.29-1.66,1.38-.64,2.86-1.27,3.93-2.29.09-.13.23-.28.22-.37l.02-.04s.01.07,0,0c0-.05-.02-.11-.03-.15-.04-.02-.02-.05-.09-.11-.2-.24-.54-.43-.87-.58-.68-.31-1.41-.53-2.14-.72-1.47-.38-2.97-.65-4.46-.89-3-.47-6-.8-8.98-1.09-5.97-.56-11.86-.93-17.56-1.23-5.7-.29-11.22-.5-16.45-.61-5.23-.18-10.17.26-14.72.63-9.1.82-16.66,1.88-21.9,2.92-2.62.53-4.66,1.06-6.01,1.59-.67.27-1.17.53-1.46.79-.31.25-.32.5-.32.5Zm0,0s.01-.24.32-.5c.29-.26.79-.53,1.46-.8,1.35-.54,3.39-1.09,6.01-1.63,5.24-1.08,12.8-2.19,21.9-3.07,4.55-.4,9.49-.87,14.74-.73,5.23.08,10.75.25,16.46.5,5.71.26,11.6.59,17.58,1.11,2.99.27,6,.58,9.02,1.03,1.51.23,3.01.49,4.51.87.75.19,1.5.41,2.23.74.36.18.73.36,1.07.73.5.49.18,1.24-.13,1.54-1.27,1.19-2.71,1.75-4.13,2.41-1.43.61-2.88,1.15-4.33,1.64-2.91.99-5.84,1.83-8.77,2.57-5.86,1.48-11.69,2.57-17.38,3.22-2.84.32-5.65.53-8.4.57-1.37.06-2.75-.07-4.08-.22-1.34-.16-2.65-.32-3.96-.48-5.2-.69-10.1-1.45-14.62-2.19-9.04-1.49-16.54-2.95-21.75-4.23-2.6-.64-4.63-1.24-5.97-1.79-.67-.27-1.17-.54-1.46-.79-.33-.24-.29-.52-.29-.51Z"/>
                <path class="cls-18" d="m125.69,109.15c4.86-1.14,9.68-2.45,14.47-3.87,2.39-.73,4.77-1.51,7.1-2.43,1.16-.46,2.32-.96,3.42-1.56.55-.29,1.09-.63,1.58-1.01.48-.37.97-.87,1-1.37v-.03c.02-.26-.35-.63-.69-.87-.36-.26-.75-.48-1.15-.69-.8-.4-1.64-.75-2.49-1.06-1.69-.62-3.41-1.19-5.14-1.7-3.46-1.03-6.95-1.91-10.46-2.72-3.51-.81-7.03-1.54-10.56-2.2-3.53-.66-7.07-1.32-10.64-1.73,7.15.62,14.24,1.97,21.28,3.49,3.52.77,7.03,1.61,10.51,2.6,1.74.51,3.48,1.02,5.18,1.69.85.33,1.7.68,2.53,1.11.41.22.82.45,1.21.74.35.31.87.59.9,1.39v-.03c-.1.94-.72,1.39-1.22,1.8-.53.4-1.09.74-1.66,1.03-1.14.6-2.3,1.09-3.48,1.54-2.36.9-4.75,1.66-7.15,2.36-4.8,1.41-9.67,2.53-14.56,3.51Z"/>
                <path class="cls-18" d="m45.57,104.19s-.72-.14-1.97-.39c-1.25-.27-3.04-.65-5.16-1.27-1.06-.32-2.2-.69-3.38-1.2-.59-.27-1.19-.55-1.76-1-.26-.24-.6-.51-.65-1.07.06-.62.46-.83.73-1.06,1.24-.8,2.61-1.22,3.99-1.68,1.39-.43,2.81-.81,4.23-1.16,5.71-1.34,11.48-2.26,15.82-2.81,4.34-.55,7.25-.76,7.25-.76,0,0-2.89.41-7.21,1.12-4.31.72-10.07,1.7-15.75,3.05-1.42.33-2.84.69-4.21,1.11-1.36.43-2.74.86-3.88,1.58-.26.17-.54.44-.53.6,0,.22.22.5.45.7.49.42,1.08.72,1.64.99,1.14.53,2.27.93,3.31,1.27,4.18,1.37,7.05,1.98,7.05,1.98Z"/>
              </g>
              <path class="cls-15" d="m127.88,98.02c0,2.27-17.42,9.42-38.92,9.42s-38.92-7.16-38.92-9.42,17.42-7.65,38.92-7.65,38.92,5.39,38.92,7.65Z"/>
              <path class="cls-27" d="m122.7,98.12c0,1.88-15.11,7.32-33.74,7.32s-33.74-5.44-33.74-7.32,15.11-6.34,33.74-6.34,33.74,4.46,33.74,6.34Z"/>
              <path class="cls-29" d="m103.32,99.85c0,.8-6.43,3.12-14.36,3.12s-14.36-2.32-14.36-3.12,6.43-2.7,14.36-2.7,14.36,1.9,14.36,2.7Z"/>
              <g>
                <path class="cls-23" d="m93.65,83.06c-.2.7-1.18,1.05-2.19.78s-1.67-1.06-1.48-1.77c.2-.7,1.18-1.05,2.19-.78s1.67,1.06,1.48,1.77Z"/>
                <path class="cls-23" d="m89.41,100.57c.43-2.13,1.31-11.82,4.13-17.45l-3.45-1.11c-1.8,7-1.35,16.47-.97,18.56.1,0,.19,0,.29,0Z"/>
              </g>
            </g>
            <g>
              <g>
                <path class="cls-34" d="m30.44,179.34c.06-.02.12-.04.18-.06.01,0,.02,0,.02,0,.92-.28,1.87-.4,2.78-.6,1.19-.25,2.31-.65,3.17-1.75,1.22-1.57,1.86-3.86,3.69-4.89.17-.09.29-.13.38-.13.41,0,.12.86.15,1.31.05.97.36,1.94.84,2.79.51.88,1.25,1.58,2.02,2.24.78.67,1.48,1.39,2.22,2.14.77.77,1.77,1.4,2.4,2.29.32-1.21.59-2.39,1.05-3.56,0-.02.01-.04.01-.05.04-.08.07-.15.11-.24.84-1.96,2.26-3.93,1.4-6.12-.55-1.43-1.59-2.4-2.79-3.21-.19-.13-.38-.26-.58-.38.08,0,.16.02.25.02.31.04.63.09.94.15.45.08.91.17,1.35.27,1.17.26,2.32.59,3.44,1,.01,0,.02,0,.04.01.62.22,1.23.47,1.83.73.68.3,1.67,1.08,2.28.94h0c.25-.06.44-.27.51-.72.37-2.28-1.45-5.32-2.85-6.96-2.04-2.41-5.33-2.51-7.97-.99-.2.12-.4.24-.56.38-.21.15-.4.32-.59.49.38-1.24.6-2.56.78-3.68.39-2.53-.09-4.46-1.76-6.4-.82-.95-2.23-1.93-2.7-3.14-.02.07-.03.14-.05.22-.69,2.91-1.7,6.02-1.56,9.03.04.83.17,1.66.4,2.46-.87-.92-1.81-1.75-2.86-2.36-2.47-1.44-5.03-1.29-7.69-.45-1.33.42-3.49.93-4.54,1.97.04.07.09.12.14.18.53.59,1.62.92,2.27,1.44,1.53,1.21,2.78,2.57,4.62,3.32.78.32,1.6.57,2.44.73.74.14,1.63.05,2.33.27-.06.08-.14.15-.24.22-.58.39-1.69.51-2.23.73-1.53.63-2.99,1.43-3.78,2.95-.81,1.58-.53,3.28-.67,4.98-.07.86-.39,1.61-.6,2.43Z"/>
                <path class="cls-35" d="m41.77,168.69c.12-.01.25-.03.36-.04.09-.02.18-.03.26-.05.01,0,.02,0,.03,0,.05,0,.09-.02.13-.03.26-.06.5-.13.73-.23.05-.03.11-.05.15-.08.01,0,.02,0,.02,0h0c.32-.17.61-.38.87-.63.37-.34.7-.76,1.07-1.24.28-.36.52-.72.73-1.09.25-.43.46-.87.62-1.34-.21.15-.4.32-.59.49.38-1.24.6-2.56.78-3.68.39-2.53-.09-4.46-1.76-6.4-.82-.95-2.23-1.93-2.7-3.14-.02.07-.03.14-.05.22.2.36.43.7.66,1.02.8,1.13,1.57,2.35,2.14,3.61.71,1.56.78,3.26.45,4.92-.13.66-.29,1.32-.45,1.97-.07.3-.1.74-.36.91-.21-.28-.24-.65-.32-.97-.15-.54-.38-1.07-.4-1.64-.27.55-.41,1.23-.57,1.81-.16.62-.15,1.47-.51,1.99-.47-1.72-.58-3.55-.78-5.32-.34.3-.55.79-.64,1.24-.19.89-.3,1.91-.37,2.83-.03.36-.02.73-.01,1.1.04.67.11,1.34.2,2,.04.28.08.56.11.83l.02.08.06.28v.05s.14.54.14.54Z"/>
                <path class="cls-35" d="m42.14,168.82c.04.06.1.13.16.18h0s.02.03.04.03c.03.03.07.07.11.08.19.13.42.23.68.29.97.25,2.29.12,3.01.13.65,0,1.29-.02,1.93-.04.3,0,.6-.02.89-.01.35,0,.7.02,1.06.07.1,0,.21.02.31.04,1.09.17,2.13.51,3.13.96.01,0,.02,0,.04.01.62.22,1.23.47,1.83.73.68.3,1.67,1.08,2.28.94-.11-.11-.21-.22-.31-.31-1.19-1.22-2.46-2.23-4.01-2.92-1.44-.64-3.07-1.01-4.61-1.26-.41-.07-1.23,0-1.55-.33.2-.58,1.32-.73,1.8-1.01-.39-.09-.98.04-1.39.12-.3.05-.8.29-1.09.16.2-.49,1.04-.78,1.48-1.01.85-.44,1.99-.52,2.76-1.08-.51-.37-1.73-.08-2.32,0-.79.11-1.54.36-2.25.7h0c-.18.1-.36.19-.54.29-.56.33-1.86,1.01-1.82,1.84,0,.01,0,.02,0,.02l-.37.31h-.02s-.36.32-.36.32l-.39.33-.2.17-.03.02-.19.17-.06.05Z"/>
                <path class="cls-35" d="m44.9,170.21c.82.66,1.1,2.09,1.77,2.91.25-.91-.4-2.76-.93-3.42,2.27,1.74,4.02,4.35,3.91,7.32-.02.66-.14,1.35-.3,2.04.04-.08.07-.15.11-.24.84-1.96,2.26-3.93,1.4-6.12-.55-1.43-1.59-2.4-2.79-3.21.3,0,.6-.02.89-.01-.09-.08-.19-.14-.29-.2-.56-.38-1.2-.66-1.87-.82l-2.47-.84-.57-.19-.91-.3-.13-.05c-.08.19-.14.39-.18.58h0s0,.02,0,.03c-.02.06-.03.12-.04.18-.05.24-.07.48-.07.71,0,.01,0,.02,0,.02,0,.09,0,.16,0,.24,0,.09,0,.18.02.27.03.32.1.64.19.97.49,1.67,1.69,3.26,2.75,4.42.12-.49-.41-1.31-.5-1.83-.13-.73-.08-1.72.03-2.46Z"/>
                <path class="cls-35" d="m30.64,179.27c.92-.28,1.87-.4,2.78-.6,1.19-.25,2.31-.65,3.17-1.75,1.22-1.57,1.86-3.86,3.69-4.89.17-.09.29-.13.38-.13.64-.56,1.41-1.16,1.97-1.81.19-.21.36-.44.49-.68.16-.29.27-.6.3-.93,0-.03.01-.06,0-.09v-.02s0-.08,0-.12h0c0-.16-.02-.32-.06-.49,0-.02-.01-.06-.02-.09.05-.01.07-.03.08-.04-.03,0-.05,0-.09,0-.1.01-.26.05-.42.09-.01,0-.04.02-.05.02-.07.02-.13.04-.2.07-.06.02-.13.04-.19.06-.27.09-.55.18-.81.27,0,0-.02,0-.03.01-.31.11-.62.23-.93.35-1.38.56-2.65,1.23-3.86,2.1-.93.66-1.85,1.42-2.67,2.23-.19.19-.61.52-.55.79,1.25-.46,2.31-1.83,3.68-1.96-.53.81-1.69,1.3-2.42,1.94-.63.56-1.45,1.31-1.74,2.12.8-.5,1.48-1.23,2.26-1.78.74-.54,1.95-1.69,2.92-1.7-.5.88-1.39,1.68-2.03,2.48-.86,1.09-1.77,2.05-2.9,2.86-.82.59-1.78,1.22-2.76,1.68Z"/>
                <path class="cls-35" d="m42.53,167.66s-.03,0-.03,0c.01,0,.02,0,.02.02.05.04.1.08.15.12.11.09.22.18.33.28.15.12.29.26.42.39.01,0,.02,0,.02.01v-.11s-.09-.61-.09-.61v-.1s-.02-.04-.02-.04v-.06c-.28.02-.54.04-.81.09Z"/>
                <path class="cls-35" d="m26.3,162.28c.53.59,1.62.92,2.27,1.44,1.53,1.21,2.78,2.57,4.62,3.32.78.32,1.6.57,2.44.73.74.14,1.63.05,2.33.27-.06.08-.14.15-.24.22.55-.01,1.11-.04,1.66-.08,1.06-.06,2.08-.35,3.12-.5-1.3-1.04-2.84-1.84-4.49-1.98-1.72-.16-3.45.2-5.12-.41-1.59-.58-3.08-1.54-4.63-2.24-.64-.29-1.3-.54-1.97-.76Z"/>
                <path class="cls-35" d="m42.98,167.61c-.17-1.09-1.19-2.17-1.95-2.9-1.04-1-2.51-2.27-3.95-2.66.8.95,2.21,1.62,2.73,2.78-1.14-.68-2.23-1.2-3.55-1.46-.72-.14-2.39-.6-3.1-.24,1.65.39,3.29,1.39,4.75,2.22,1.2.69,2.33,1.45,3.34,2.4.37.35.96.79,1.08,1.32l.66-1.46Z"/>
              </g>
              <path class="cls-32" d="m43.51,167.07c-.19-1.9-.38-3.85-1.02-5.66-.17-.47-.34-.93-.53-1.39.02,0,.04-.01.06-.03.29-.19.38-.62.28-.94-.06-.19-.18-.35-.34-.48-.02-.22-.09-.44-.25-.6-.06-.06-.13-.11-.21-.15.01-.23,0-.46-.07-.67-.06-.19-.19-.36-.36-.46,0-.06,0-.11-.02-.17-.09-.3-.32-.55-.61-.68-.29-.24-.74-.33-1,.01-.12.16-.03.4.12.46-.01.08-.03.16-.02.24.02.24.21.41.45.42-.3.34.12.89.52.76,0,.02,0,.04,0,.06,0-.13,0,0,0,.02,0,.04-.02.08-.03.12,0-.02-.01.05-.03.09-.17.37.1.72.46.73-.05.2.06.5.27.58,0,0,.05.02.08.03-.01.03-.02.05-.03.08-.09.36.16.65.47.65.18.5.34,1,.47,1.52.48,1.8.5,3.66.81,5.49.05.32.56.32.52-.03Z"/>
            </g>
            <g>
              <path class="cls-2" d="m203.55,95.35c-3.56-6.93-11.21-3.66-11.52-10.47-.22-4.95,7.73-6.9,7.73-6.9l-.02-10.33h-.11c-.36-.75-10.45-2.41-22.86-2.39-12.42.02-22.5,1.72-22.85,2.47h-.11s.02,10.33.02,10.33c0,0,7.96,1.92,7.76,6.87-.28,6.82-7.94,3.58-11.48,10.51-8.45,16.58-6.74,71.72-1,78.32,9.29,10.68,46.48,10.59,55.71-.1,5.72-6.62,7.24-61.77-1.27-78.32Z"/>
              <g class="cls-14">
                <path class="cls-1" d="m201.09,98.06c-3.23-6.29-9.79-4.9-11.26-11.43-.98-4.39,1.76-7.17,1.76-7.17h0c-3.99.44-9.14.78-14.79.78s-10.8-.31-14.79-.73h0s2.75,2.77,1.78,7.16c-1.44,6.54-8.01,5.17-11.22,11.47-7.67,15.05-6.12,65.1-.91,71.09,4.21,4.84,14.76,7.25,25.29,7.23,10.54-.02,21.07-2.46,25.27-7.32,5.19-6.01,6.57-56.06-1.15-71.09Z"/>
              </g>
              <g>
                <path class="cls-7" d="m164.27,67.71l1.61,9.15c6.73,1.52,12.54,1.17,21.95-.04l1.46-9.15-25.02.04Z"/>
                <path class="cls-8" d="m164.27,67.71s6.44,2.17,16.04,2.99c0,.78,0,3.52-.15,4.97-2.59,2.13-14.28,1.18-14.28,1.18,6.73,1.52,12.54,1.17,21.95-.04l1.46-9.15-25.02.04Z"/>
                <g>
                  <path class="cls-8" d="m168.23,71.1c0,.38-.3.68-.68.68s-.68-.3-.68-.68.3-.68.68-.68.68.3.68.68Z"/>
                  <circle class="cls-8" cx="178.91" cy="74.34" r=".48"/>
                  <circle class="cls-8" cx="175.03" cy="71.56" r=".48"/>
                </g>
              </g>
              <path class="cls-1" d="m203.3,95.5c-.31-.48-.55-1.03-.9-1.45l-.51-.65c-.19-.2-.4-.39-.6-.58-.19-.2-.42-.37-.65-.53-.23-.16-.44-.35-.69-.48-.48-.3-.98-.55-1.5-.79-.52-.23-1.05-.44-1.59-.65-.53-.21-1.08-.41-1.61-.66-.27-.12-.53-.24-.78-.4-.26-.14-.51-.29-.74-.49-.24-.18-.46-.37-.65-.61l-.29-.34c-.08-.13-.15-.26-.22-.39-.15-.26-.29-.52-.35-.81-.07-.29-.2-.56-.21-.86l-.11-.87c-.01-.32.02-.58.03-.88.03-.29.13-.59.2-.88.09-.29.24-.54.36-.82.15-.26.33-.49.49-.74.19-.23.39-.44.59-.66.43-.41.88-.77,1.37-1.11.49-.32.99-.61,1.51-.88,1.04-.52,2.11-.97,3.25-1.3h0s-.22.28-.22.28c.13-1.72.15-3.44.13-5.16-.01-1.72-.05-3.44-.15-5.16l.29.29h0s-.11,0-.11,0l.26-.41s.04.09.06.14c0,.05.02-.07-.01.13h0s0,.03,0,.03c0,.02-.03.07-.09.14-.13.14-.19.15-.25.19-.13.07-.25.12-.37.16-.24.09-.48.15-.72.22-.48.12-.96.22-1.43.32-.96.18-1.92.33-2.88.46-1.92.26-3.85.46-5.78.62-3.86.32-7.74.47-11.62.48-3.88,0-7.75-.14-11.62-.44-1.93-.15-3.86-.35-5.79-.6-.96-.13-1.92-.27-2.88-.45-.48-.09-.96-.19-1.44-.31-.24-.06-.48-.13-.72-.21-.12-.04-.24-.09-.37-.16-.07-.04-.13-.06-.21-.15-.03-.03-.08-.06-.13-.19-.01-.07-.04-.06-.02-.19l.03-.04.28.35h-.1s0,0,0,0l.29-.29c-.07,1.72-.1,3.44-.1,5.16,0,1.72,0,3.44.12,5.16h0s-.22-.28-.22-.28c1.27.37,2.45.88,3.6,1.49,1.14.62,2.22,1.39,3.06,2.39.85,1.01,1.28,2.37,1.11,3.68-.07,1.26-.62,2.64-1.67,3.45-1.03.84-2.29,1.26-3.47,1.73-1.19.46-2.37.96-3.39,1.69-2.15,1.4-3.19,3.87-4.06,6.24-1.69,4.81-2.52,9.9-3.16,14.97-.61,5.08-.94,10.2-1.12,15.32-.16,5.12-.14,10.24.02,15.36.18,5.12.51,10.23,1.12,15.31.3,2.54.68,5.07,1.22,7.55.27,1.24.59,2.47.97,3.66.43,1.18.88,2.32,1.72,3.14,1.73,1.8,3.94,3.01,6.28,3.96,2.33.95,4.79,1.63,7.27,2.13,4.98,1,10.09,1.36,15.17,1.22,5.08-.12,10.18-.7,15.06-2.03,2.43-.68,4.82-1.56,6.99-2.79,2.11-1.24,4.26-2.82,4.91-5.15.85-2.33,1.34-4.86,1.75-7.36.4-2.52.7-5.05.94-7.6.89-10.19,1.06-20.45.56-30.68-.28-5.11-.7-10.22-1.47-15.27-.37-2.53-.87-5.04-1.48-7.52-.62-2.47-1.38-4.92-2.51-7.19v.02Zm.5-.28c1.19,2.32,1.98,4.8,2.63,7.29.64,2.5,1.16,5.02,1.56,7.57.83,5.08,1.3,10.21,1.62,15.34.31,5.13.42,10.27.38,15.41-.04,5.14-.26,10.28-.71,15.41-.23,2.56-.52,5.12-.92,7.68-.41,2.55-.88,5.1-1.78,7.59-.2.6-.54,1.3-.87,1.87l-.27.4-.14.2c-.12.15-.13.15-.2.23l-.7.72c-.99.9-2.06,1.7-3.21,2.34-2.29,1.31-4.75,2.23-7.25,2.93-5.01,1.39-10.19,1.99-15.36,2.13-5.17.11-10.36-.3-15.44-1.35-2.54-.53-5.05-1.24-7.46-2.24-2.39-.99-4.77-2.31-6.6-4.25-1-1-1.51-2.33-1.93-3.55-.4-1.25-.72-2.51-.98-3.78-.53-2.54-.89-5.09-1.18-7.65-.58-5.12-.87-10.25-1.02-15.39-.13-5.14-.1-10.28.11-15.41.22-5.13.6-10.26,1.26-15.36.69-5.09,1.57-10.19,3.32-15.05.46-1.23.93-2.39,1.61-3.53.64-1.14,1.57-2.12,2.65-2.85,1.07-.75,2.28-1.25,3.48-1.7,1.19-.46,2.42-.87,3.4-1.65,1-.78,1.52-1.97,1.6-3.25.15-1.24-.26-2.51-1.07-3.47-1.68-1.89-4.17-2.92-6.58-3.51-.13-.03-.22-.15-.22-.27h0s0,0,0,0c.11-1.72.12-3.44.1-5.16,0-1.72-.04-3.44-.12-5.16,0-.15.11-.28.26-.29h0s.02,0,.02,0h0s.1,0,.1,0h.11c.12,0,.22.1.22.22,0,.05-.02.1-.05.13l-.03.04c0-.11,0-.07,0-.11-.03-.06-.04-.06-.02-.05,0,0,.05.03.09.05.08.04.19.09.3.12.21.08.44.14.67.2.46.12.93.22,1.4.3.94.18,1.9.32,2.85.45,1.91.26,3.83.45,5.76.6,3.85.3,7.71.44,11.57.44,3.86-.01,7.72-.16,11.57-.48,1.92-.16,3.84-.36,5.75-.62.95-.13,1.91-.28,2.85-.46.47-.09.94-.19,1.4-.31.23-.06.46-.12.67-.2.11-.04.21-.08.3-.12.04-.02.09-.07.05-.01,0,.03,0,.04.02,0v-.02s.01-.01.01-.01c-.03.19-.01.06-.02.11,0,.02,0,.05,0,.07l.26-.41h.11s0,0,0,0h.03c.15,0,.26.13.26.28h0c-.09,1.72-.13,3.45-.13,5.17,0,1.72.01,3.44.15,5.16,0,.12-.06.23-.17.26l-.05.02h0c-1.08.27-2.18.64-3.2,1.12-.51.25-1,.53-1.48.83-.47.31-.92.66-1.33,1.04-.19.21-.39.4-.57.62-.16.23-.33.45-.48.69-.11.25-.26.49-.35.75-.06.27-.16.52-.2.8-.01.28-.05.59-.04.84l.1.84c.01.29.14.54.21.81.06.28.2.52.34.76.07.12.13.24.21.36l.28.31c.17.22.38.4.61.56.21.18.46.32.7.45.24.15.5.26.76.37.51.24,1.06.42,1.6.62.54.2,1.08.4,1.62.62.54.23,1.06.48,1.57.78.26.13.49.32.74.48.24.17.49.33.7.55.22.2.44.39.65.6l.57.69c.4.46.63.97.95,1.45v.02Z"/>
              <path class="cls-1" d="m176.79,70.41c-11.05.02-23.18-1.36-23.18-2.64s12.34-2.78,23.17-2.8c10.83-.02,23.18,1.43,23.18,2.72s-12.13,2.7-23.17,2.72Zm-22.47-2.64c1.49.69,10.81,2.09,22.47,2.07s20.98-1.45,22.46-2.14c-1.49-.72-10.83-2.17-22.47-2.15-11.65.02-20.98,1.51-22.46,2.23Z"/>
              <path class="cls-1" d="m199.96,77.92s0,.01-.01.03c0,.01-.01.05-.1.15-.1.11-.16.13-.23.17-.07.04-.15.07-.23.11-.34.14-.83.28-1.46.42-1.25.28-3.04.58-5.21.85-4.32.54-10.12.95-15.92.97-5.81,0-11.6-.39-15.93-.91-2.16-.26-3.96-.55-5.21-.83-.63-.14-1.12-.28-1.46-.41-.18-.08-.3-.13-.43-.24-.03-.03-.05-.05-.07-.07-.03-.05-.05-.09-.06-.13-.02-.08-.03-.11-.03-.11,0-.16.13-.29.29-.29s.29.13.29.29c0,0,0-.02,0-.05,0-.02-.01-.04-.03-.05h.01s.12.08.25.13c.29.11.76.25,1.37.38,1.22.26,3.01.54,5.16.78,4.3.49,10.08.83,15.85.8,5.78,0,11.55-.35,15.85-.86,2.15-.25,3.93-.53,5.15-.8.61-.13,1.08-.27,1.37-.38.07-.03.14-.05.17-.08.05-.02.08-.05.04,0,0,.01,0,.03,0,.04,0-.02.01-.03.02-.04,0-.02.01-.03.01-.03v-.03c.07-.15.24-.21.39-.15.15.06.21.23.15.37Z"/>
              <path class="cls-3" d="m191.6,67.69c0,.47-6.63,1.17-14.81,1.18-8.18.01-14.82-.66-14.82-1.13s6.63-1.61,14.81-1.63c8.18-.01,14.82,1.1,14.82,1.58Z"/>
              <path class="cls-30" d="m192.21,49.24c.09.49-6.69,2.42-15.21,3.92-8.52,1.5-15.55,2.01-15.63,1.51-.09-.49,6.61-2.88,15.13-4.38,8.52-1.5,15.63-1.54,15.71-1.05Z"/>
              <path class="cls-7" d="m177.01,53.16c-8.52,1.5-15.55,2.01-15.63,1.51l2.9,13.03c0,.4,5.6.97,12.51.96,6.91-.01,12.51-.6,12.51-1l2.92-18.42c.09.49-6.69,2.42-15.21,3.92Z"/>
              <path class="cls-28" d="m150.75,106.26c-4.53,19.33-2.81,56.8,1.6,61.87,4.1,4.72,14.36,7.05,24.62,7.03,10.26-.02,20.51-2.39,24.59-7.12,4.39-5.08,5.98-42.54,1.39-61.86l-52.2.07Z"/>
              <path class="cls-13" d="m202.94,106.17c0,.84-11.68,2.75-26.09,2.78-14.41.02-26.1-1.85-26.1-2.69s11.68-2.85,26.09-2.88c14.41-.02,26.1,1.95,26.1,2.79Z"/>
              <path class="cls-22" d="m202.65,105.92c-1.81.86-12.65,2.13-25.8,2.15-13.15.02-23.99-1.21-25.8-2.06-.17.09-.29.17-.29.25,0,.84,11.69,2.71,26.1,2.69s26.09-1.94,26.09-2.78c0-.07-.12-.16-.3-.25Z"/>
              <path class="cls-4" d="m203.55,95.35c-3.56-6.93-11.21-3.66-11.52-10.47-.22-4.95,7.73-6.9,7.73-6.9l-.02-10.33h-.11s.03.03.03.04c0,.66-8.36,2.09-19.28,2.37l.02,10.13s-15.82-.22-23.71-1.11c12.52,3.78,21.8,3.16,21.54,3.54-.83,1.2-1.55,2.73-1.39,4.26.35,3.39,8.42,4.34,9.72,10.47,1.3,6.13,11.13,74.59-11.45,80.92-11.96,3.47-28.27-3.07-29.25-15.69.82,5.57,1.92,9.65,3.24,11.17,9.29,10.68,46.48,10.59,55.71-.1,5.72-6.62,7.24-61.77-1.27-78.32Z"/>
              <path class="cls-6" d="m155.43,70.16v6.17s10.59,2.35,22.14,2.22v-5.78s-15.03-.08-22.14-2.61Z"/>
              <path class="cls-6" d="m170.2,133.2c-.37,20.26-5.08,36.61-10.51,36.51-5.43-.1-9.53-16.61-9.16-36.87.37-20.26,5.08-36.61,10.51-36.51,5.43.1,9.53,16.61,9.16,36.87Z"/>
              <path class="cls-8" d="m177.01,53.16c-8.52,1.5-15.55,2.01-15.63,1.51,0,0,.33,2.31,19.72,1.55-.19,1.77-.55,9.76-.63,10.49-4.51,2.16-16.2.99-16.2.99,0,.4,5.6.97,12.51.96,6.91-.01,12.51-.6,12.51-1l2.92-18.42c.09.49-6.69,2.42-15.21,3.92Z"/>
              <g>
                <path class="cls-8" d="m167.85,65.38c0,.38-.3.68-.68.68s-.68-.3-.68-.68.3-.68.68-.68.68.3.68.68Z"/>
                <path class="cls-8" d="m177.14,63.01c0,.38-.3.68-.68.68s-.68-.3-.68-.68.3-.68.68-.68.68.3.68.68Z"/>
                <path class="cls-8" d="m168.52,58.67c0,.38-.3.68-.68.68s-.68-.3-.68-.68.3-.68.68-.68.68.3.68.68Z"/>
                <path class="cls-8" d="m171.92,61.87c0,.26-.21.47-.47.47s-.47-.21-.47-.47.21-.47.47-.47.47.21.47.47Z"/>
                <path class="cls-8" d="m175.77,58.97c0,.26-.21.47-.47.47s-.47-.21-.47-.47.21-.47.47-.47.47.21.47.47Z"/>
                <path class="cls-8" d="m174.85,66.51c0,.26-.21.47-.47.47s-.47-.21-.47-.47.21-.47.47-.47.47.21.47.47Z"/>
              </g>
              <path class="cls-20" d="m180.93,52.19c-8.52,1.5-15.55,2.01-15.63,1.51-.06-.31,2.62-1.39,6.76-2.52-6.29,1.42-10.75,3.09-10.68,3.49.09.49,7.12-.01,15.63-1.51,4.46-.79,8.43-1.69,11.2-2.44-2.16.49-4.63,1-7.28,1.47Z"/>
              <g>
                <path class="cls-20" d="m174.34,51.99c.02.14-.4.33-.94.42-.55.1-1.01.06-1.03-.08s.4-.33.94-.42,1.01-.06,1.03.08Z"/>
                <path class="cls-20" d="m184.36,50.86c.02.14-.4.33-.94.42-.55.1-1.01.06-1.03-.08-.02-.14.4-.33.94-.42s1.01-.06,1.03.08Z"/>
                <path class="cls-20" d="m181.15,50.26c.02.14-.4.33-.94.42-.55.1-1.01.06-1.03-.08s.4-.33.94-.42c.55-.1,1.01-.06,1.03.08Z"/>
                <path class="cls-20" d="m169.25,52.64c.02.1-.29.24-.68.31-.4.07-.73.04-.75-.06-.02-.1.29-.24.68-.31.4-.07.73-.04.75.06Z"/>
                <path class="cls-20" d="m188.92,49.66c.02.1-.29.24-.68.31-.4.07-.73.04-.75-.06-.02-.1.29-.24.68-.31.4-.07.73-.04.75.06Z"/>
              </g>
            </g>
            <g>
              <g>
                <path class="cls-11" d="m202.77,191.59c-.06-.03-.11-.05-.17-.09-.01,0-.02,0-.02-.01-.87-.43-1.8-.7-2.68-1.05-1.15-.45-2.2-1.03-2.88-2.26-.97-1.76-1.23-4.15-2.9-5.48-.16-.12-.27-.18-.36-.19-.41-.06-.26.84-.36,1.28-.2.96-.67,1.88-1.29,2.65-.65.8-1.51,1.38-2.38,1.91-.89.55-1.7,1.15-2.56,1.78-.9.64-1.99,1.11-2.76,1.9-.13-1.26-.2-2.48-.47-3.72,0-.02,0-.04,0-.05-.03-.08-.05-.17-.07-.25-.52-2.1-1.62-4.29-.41-6.33.78-1.34,1.98-2.14,3.3-2.76.21-.1.42-.2.64-.29-.08,0-.17-.01-.25-.02-.32,0-.64,0-.96,0-.46,0-.93.02-1.39.05-1.21.07-2.41.22-3.6.44-.01,0-.02,0-.04,0-.66.12-1.31.27-1.95.44-.72.19-1.84.81-2.43.58h0c-.24-.1-.39-.34-.4-.8,0-2.34,2.31-5.08,3.97-6.49,2.42-2.07,5.73-1.65,8.12.3.18.15.36.31.5.47.19.19.35.38.51.59-.18-1.3-.19-2.65-.19-3.8.02-2.59.81-4.44,2.79-6.11.97-.82,2.54-1.57,3.21-2.7,0,.07,0,.15.02.23.22,3.02.73,6.28.1,9.27-.17.82-.43,1.63-.8,2.4,1.01-.78,2.09-1.46,3.24-1.89,2.7-1.04,5.23-.48,7.75.79,1.26.63,3.34,1.49,4.21,2.7-.05.06-.1.11-.16.16-.62.51-1.77.66-2.5,1.07-1.72.96-3.19,2.12-5.15,2.57-.83.2-1.69.31-2.55.33-.76.02-1.64-.21-2.36-.11.04.09.12.17.2.25.52.48,1.6.78,2.11,1.09,1.42.87,2.76,1.91,3.29,3.56.56,1.7,0,3.36-.13,5.08-.07.87.12,1.67.21,2.52Z"/>
                <path class="cls-33" d="m193.17,179.13c-.12-.03-.24-.06-.35-.1-.09-.03-.17-.06-.25-.09-.01,0-.02,0-.03,0-.05-.02-.09-.03-.12-.05-.25-.1-.48-.21-.69-.35-.04-.03-.1-.07-.14-.1-.01,0-.02,0-.02,0h0c-.29-.22-.54-.48-.77-.77-.31-.4-.58-.87-.87-1.41-.22-.4-.4-.8-.55-1.21-.18-.47-.32-.94-.4-1.44.19.19.35.38.51.59-.18-1.3-.19-2.65-.19-3.8.02-2.59.81-4.44,2.79-6.11.97-.82,2.54-1.57,3.21-2.7,0,.07,0,.15.02.23-.26.33-.54.63-.82.91-.98,1-1.94,2.1-2.72,3.26-.96,1.45-1.31,3.13-1.25,4.84.02.68.08,1.36.13,2.04.02.31-.02.76.21.97.25-.24.34-.61.48-.92.23-.51.55-1,.67-1.57.19.59.22,1.29.28,1.9.06.64-.09,1.49.19,2.06.74-1.64,1.15-3.45,1.64-5.19.29.35.42.88.44,1.34.05.92,0,1.96-.08,2.88-.03.36-.1.73-.17,1.1-.15.66-.33,1.32-.52,1.97-.09.28-.17.55-.24.81l-.03.08-.11.27-.02.04-.21.51Z"/>
                <path class="cls-33" d="m192.78,179.2c-.05.06-.12.11-.19.16h0s-.03.02-.04.02c-.04.03-.08.06-.12.07-.21.1-.46.16-.73.18-1,.09-2.31-.25-3.02-.35-.65-.1-1.29-.23-1.92-.35-.3-.05-.59-.11-.89-.16-.35-.05-.7-.09-1.07-.1-.1-.01-.21,0-.31-.01-1.12,0-2.21.17-3.28.45-.01,0-.02,0-.04,0-.66.12-1.31.27-1.95.44-.72.19-1.84.81-2.43.58.13-.09.25-.18.36-.26,1.38-1.03,2.81-1.83,4.48-2.27,1.54-.41,3.23-.51,4.81-.52.42,0,1.23.2,1.6-.08-.1-.61-1.2-.94-1.64-1.3.4-.03.97.2,1.37.34.29.1.75.42,1.06.34-.12-.52-.91-.95-1.32-1.25-.78-.58-1.9-.84-2.58-1.53.57-.28,1.74.2,2.32.38.77.24,1.48.61,2.13,1.07h0c.17.13.33.25.49.38.51.42,1.7,1.31,1.52,2.14,0,.01,0,.02,0,.02l.32.37.02.02.31.37.34.39.17.2.02.02.17.2.05.06Z"/>
                <path class="cls-33" d="m189.8,180.14c-.93.52-1.43,1.91-2.23,2.62-.1-.95.84-2.69,1.49-3.27-2.55,1.37-4.71,3.7-5.09,6.68-.09.66-.08,1.37-.03,2.08-.03-.08-.05-.17-.07-.25-.52-2.1-1.62-4.29-.41-6.33.78-1.34,1.98-2.14,3.3-2.76-.3-.05-.59-.11-.89-.16.1-.06.21-.11.33-.15.62-.28,1.31-.47,2-.51l2.6-.44.6-.1.95-.15.14-.03c.05.2.08.41.09.61h0s0,.02,0,.03c0,.06.01.12.01.19,0,.25,0,.49-.05.72,0,.01,0,.02,0,.02-.01.09-.03.16-.05.24-.02.09-.04.18-.06.27-.08.32-.2.63-.34.94-.76,1.59-2.22,2.98-3.45,3.97-.04-.51.62-1.24.8-1.75.25-.71.36-1.7.37-2.46Z"/>
                <path class="cls-33" d="m202.58,191.49c-.87-.43-1.8-.7-2.68-1.05-1.15-.45-2.2-1.03-2.88-2.26-.97-1.76-1.23-4.15-2.9-5.48-.16-.12-.27-.18-.36-.19-.55-.67-1.22-1.38-1.67-2.13-.16-.24-.28-.5-.39-.75-.11-.32-.17-.65-.15-.98,0-.03,0-.07,0-.09v-.02s.01-.08.02-.12h0c.03-.16.07-.32.14-.48.01-.02.02-.06.04-.08-.04-.02-.06-.04-.07-.05.03,0,.05,0,.09.01.09.03.25.09.4.16.01.01.03.02.05.03.07.03.13.06.19.1.06.03.13.06.18.09.25.13.52.27.76.4,0,0,.02.01.03.02.29.16.59.33.88.5,1.29.78,2.45,1.66,3.52,2.72.82.81,1.62,1.71,2.31,2.66.16.23.53.62.42.88-1.17-.66-2.01-2.2-3.35-2.55.4.89,1.48,1.57,2.11,2.33.54.67,1.23,1.54,1.39,2.4-.72-.63-1.28-1.47-1.97-2.14-.65-.65-1.68-2-2.65-2.17.36.96,1.12,1.9,1.63,2.81.68,1.22,1.44,2.33,2.43,3.32.73.72,1.58,1.51,2.49,2.12Z"/>
                <path class="cls-33" d="m192.57,177.98s.03,0,.03.01c-.01,0-.02,0-.03.02-.06.03-.12.06-.17.09-.13.07-.25.14-.37.22-.17.1-.33.21-.48.32-.01,0-.02,0-.02.01l.03-.11.17-.6.02-.1.02-.04.02-.06c.27.06.53.13.79.22Z"/>
                <path class="cls-33" d="m209.65,175.23c-.62.51-1.77.66-2.5,1.07-1.72.96-3.19,2.12-5.15,2.57-.83.2-1.69.31-2.55.33-.76.02-1.64-.21-2.36-.11.04.09.12.17.2.25-.55-.1-1.1-.22-1.65-.34-1.05-.23-2.03-.69-3.04-1.01,1.46-.83,3.13-1.38,4.8-1.26,1.74.12,3.42.76,5.18.42,1.68-.32,3.33-1.04,4.98-1.49.68-.19,1.38-.33,2.09-.44Z"/>
                <path class="cls-33" d="m192.13,177.86c.34-1.06,1.54-1.97,2.41-2.58,1.2-.83,2.87-1.87,4.37-2.02-.95.82-2.47,1.26-3.17,2.33,1.25-.49,2.42-.84,3.78-.88.74-.02,2.48-.21,3.14.26-1.71.12-3.51.86-5.1,1.45-1.31.49-2.56,1.07-3.72,1.86-.43.29-1.09.64-1.29,1.15l-.42-1.57Z"/>
              </g>
              <path class="cls-24" d="m192.21,177.34c.6-1.78.92-3.63,1.69-5.36.22-.49.46-.97.72-1.44.31.04.61-.2.58-.57,0-.03-.01-.05-.02-.08.04,0,.08-.01.09-.02.22-.04.38-.32.36-.53.37.05.69-.26.58-.65-.01-.04-.02-.11-.02-.09,0-.04,0-.08,0-.13,0-.03.02-.15,0-.02,0-.02,0-.04,0-.06.37.2.89-.28.64-.67.24.03.45-.11.51-.35.02-.08.01-.16.01-.24.16-.04.29-.26.2-.44-.2-.38-.66-.37-.99-.17-.31.08-.58.29-.71.58-.03.05-.03.11-.05.17-.19.07-.34.22-.43.4-.1.2-.16.42-.18.66-.08.03-.16.07-.23.12-.19.14-.3.34-.35.56-.17.1-.32.24-.41.42-.15.3-.13.75.13.99.02.02.04.02.05.04-.26.43-.51.87-.75,1.31-.93,1.7-1.43,3.62-1.93,5.49-.09.34.41.43.52.11Z"/>
            </g>
            <g>
              <g>
                <path class="cls-12" d="m155.01,178.87c-.08-.01-.16,0-.24-.02-.01,0-.02,0-.03,0-1.25-.08-2.49.06-3.72.09-1.6.04-3.14-.13-4.56-1.26-2.03-1.62-3.54-4.34-6.18-5.09-.25-.07-.41-.08-.52-.05-.52.13.11,1.13.21,1.71.24,1.25.14,2.57-.22,3.8-.37,1.27-1.11,2.39-1.88,3.46-.79,1.1-1.45,2.22-2.17,3.39-.75,1.21-1.82,2.31-2.35,3.65-.78-1.44-1.48-2.86-2.42-4.2-.02-.02-.03-.04-.03-.06-.07-.08-.14-.17-.21-.27-1.66-2.24-4.07-4.3-3.65-7.34.27-1.98,1.29-3.54,2.56-4.93.2-.22.41-.44.63-.66-.1.04-.2.07-.3.11-.39.15-.77.31-1.15.47-.55.23-1.1.49-1.63.75-1.41.68-2.77,1.46-4.07,2.32-.01,0-.03.01-.04.03-.72.47-1.43.97-2.1,1.49-.77.58-1.79,1.88-2.61,1.9h0c-.33,0-.64-.21-.87-.76-1.17-2.78.22-7.2,1.5-9.71,1.86-3.68,6.01-4.82,9.83-3.69.29.09.58.19.83.31.32.13.61.28.9.45-.87-1.46-1.55-3.06-2.11-4.44-1.26-3.09-1.25-5.7.28-8.67.75-1.46,2.25-3.13,2.48-4.81.04.08.08.17.13.26,1.77,3.49,4,7.13,4.74,11,.2,1.06.29,2.15.24,3.25.82-1.43,1.77-2.78,2.92-3.87,2.7-2.59,6-3.18,9.64-2.92,1.81.12,4.72.11,6.36,1.12-.03.1-.07.18-.12.27-.49.91-1.78,1.66-2.44,2.52-1.57,2-2.75,4.11-4.86,5.63-.89.65-1.86,1.21-2.87,1.67-.89.4-2.06.56-2.87,1.05.1.08.22.15.36.2.85.31,2.3.13,3.06.25,2.13.33,4.24.91,5.7,2.6,1.51,1.75,1.68,4.01,2.37,6.12.35,1.07.98,1.93,1.5,2.91Z"/>
                <path class="cls-21" d="m137.36,168.81c-.16.02-.32.04-.47.06-.12,0-.23.01-.34.01-.01,0-.03.01-.04,0-.07,0-.12,0-.17,0-.35,0-.68-.01-.99-.08-.07-.02-.15-.03-.22-.06-.01,0-.02,0-.02,0h0c-.45-.12-.88-.3-1.3-.53-.57-.32-1.12-.75-1.74-1.25-.46-.37-.88-.76-1.26-1.16-.45-.47-.85-.96-1.19-1.52.32.13.61.28.9.45-.87-1.46-1.55-3.06-2.11-4.44-1.26-3.09-1.25-5.7.28-8.67.75-1.46,2.25-3.13,2.48-4.81.04.08.08.17.13.26-.14.52-.34,1.02-.53,1.5-.67,1.68-1.27,3.47-1.62,5.25-.42,2.2,0,4.39.93,6.4.36.8.77,1.59,1.18,2.37.18.36.35.91.74,1.05.18-.42.1-.9.12-1.34.02-.73.16-1.47.01-2.21.51.61.9,1.43,1.27,2.13.39.73.63,1.82,1.25,2.37.07-2.32-.35-4.69-.63-7,.52.28.94.84,1.2,1.38.52,1.07.97,2.34,1.34,3.48.14.45.25.92.35,1.39.15.86.27,1.74.36,2.61.03.37.07.74.11,1.09v.11s0,.37,0,.37v.06s0,.72,0,.72Z"/>
                <path class="cls-21" d="m136.94,169.08c-.04.09-.09.19-.15.28h0s-.02.04-.04.05c-.03.05-.06.1-.11.14-.2.22-.46.42-.78.58-1.15.61-2.88.85-3.78,1.08-.83.21-1.65.37-2.47.54-.38.08-.76.16-1.14.26-.45.11-.88.24-1.32.41-.12.04-.26.09-.38.14-1.33.55-2.55,1.3-3.69,2.18-.01,0-.03.01-.04.03-.72.47-1.43.97-2.1,1.49-.77.58-1.79,1.88-2.61,1.9.1-.18.2-.34.3-.49,1.13-1.91,2.44-3.59,4.21-4.94,1.63-1.26,3.6-2.21,5.48-3.01.5-.21,1.57-.38,1.86-.89-.42-.67-1.9-.53-2.6-.74.47-.24,1.25-.24,1.8-.27.39-.03,1.1.13,1.43-.13-.41-.56-1.56-.67-2.19-.83-1.22-.3-2.69-.05-3.83-.54.53-.62,2.17-.63,2.95-.7,1.04-.1,2.06-.01,3.07.21h0c.26.06.51.14.77.21.82.24,2.67.71,2.88,1.79,0,.01.01.02.01.03l.56.28h.03s.55.3.55.3l.6.3.31.16.04.02.3.15.09.05Z"/>
                <path class="cls-21" d="m133.85,171.68c-.84,1.09-.75,2.99-1.36,4.24-.6-1.08-.34-3.63.14-4.63-2.36,2.9-3.78,6.76-2.73,10.5.22.83.59,1.67,1,2.5-.07-.08-.14-.17-.21-.27-1.66-2.24-4.07-4.3-3.65-7.34.27-1.98,1.29-3.54,2.56-4.93-.38.08-.76.16-1.14.26.09-.13.19-.24.31-.34.6-.65,1.33-1.21,2.13-1.61l2.88-1.83.66-.42,1.06-.66.15-.1c.16.22.3.45.41.69h0s0,.02.01.03c.04.07.07.14.11.22.13.29.23.58.31.89,0,.01,0,.02,0,.02.03.11.05.2.06.31.03.12.05.24.06.35.06.42.07.85.06,1.29-.11,2.27-1.16,4.66-2.14,6.45-.3-.59.12-1.79.08-2.48-.05-.97-.42-2.21-.79-3.12Z"/>
                <path class="cls-21" d="m154.74,178.85c-1.25-.08-2.49.06-3.72.09-1.6.04-3.14-.13-4.56-1.26-2.03-1.62-3.54-4.34-6.18-5.09-.25-.07-.41-.08-.52-.05-.99-.52-2.14-1.04-3.06-1.7-.31-.21-.59-.46-.84-.71-.29-.33-.53-.68-.67-1.09-.02-.04-.03-.08-.04-.11v-.02c-.02-.05-.04-.1-.04-.15h0c-.04-.2-.07-.41-.07-.64,0-.03,0-.08,0-.12-.06,0-.09-.02-.11-.02.03-.02.06-.02.11-.03.13-.01.34-.01.56-.01.02,0,.05,0,.07,0,.1,0,.18,0,.27.02.09,0,.18,0,.26.02.37.03.75.06,1.11.1,0,0,.03,0,.04,0,.43.04.86.1,1.29.16,1.92.29,3.75.75,5.55,1.49,1.38.56,2.79,1.24,4.07,2.02.3.19.94.48.95.84-1.73-.2-3.49-1.62-5.27-1.37.92.86,2.55,1.13,3.67,1.72.97.52,2.24,1.22,2.86,2.17-1.17-.4-2.26-1.11-3.41-1.58-1.1-.46-3-1.55-4.23-1.27.91.96,2.28,1.71,3.34,2.54,1.42,1.12,2.88,2.07,4.55,2.74,1.23.5,2.63,1.01,4.02,1.29Z"/>
                <path class="cls-21" d="m136.08,167.73s.04,0,.05,0c-.01,0-.03.01-.02.03-.06.06-.11.13-.16.2-.11.15-.23.3-.34.45-.15.2-.29.42-.42.63-.01,0-.02.01-.02.02l-.02-.14-.09-.8-.02-.13v-.05s-.01-.08-.01-.08c.35-.06.7-.11,1.05-.13Z"/>
                <path class="cls-21" d="m155.07,155.93c-.49.91-1.78,1.66-2.44,2.52-1.57,2-2.75,4.11-4.86,5.63-.89.65-1.86,1.21-2.87,1.67-.89.4-2.06.56-2.87,1.05.1.08.22.15.36.2-.7.15-1.42.29-2.14.41-1.36.24-2.76.19-4.12.31,1.34-1.71,3.05-3.2,5.1-3.89,2.13-.73,4.45-.8,6.38-2.08,1.85-1.22,3.45-2.9,5.19-4.26.72-.57,1.48-1.09,2.27-1.57Z"/>
                <path class="cls-21" d="m135.5,167.8c-.12-1.44.85-3.12,1.59-4.27,1.02-1.59,2.5-3.66,4.21-4.59-.72,1.45-2.31,2.74-2.62,4.36,1.25-1.21,2.46-2.2,4.07-2.93.87-.39,2.85-1.49,3.87-1.25-1.98,1-3.76,2.77-5.36,4.27-1.32,1.24-2.52,2.55-3.51,4.07-.37.56-.98,1.3-.97,2.01l-1.29-1.66Z"/>
              </g>
              <path class="cls-36" d="m135.33,167.15c-.17-2.42-.71-4.79-.65-7.23.02-.7.07-1.39.14-2.07.39-.1.64-.54.41-.97-.02-.03-.04-.06-.06-.09.04-.03.09-.06.1-.06.24-.16.29-.57.16-.82.46-.13.69-.65.37-1.07-.04-.05-.08-.12-.07-.1-.03-.05-.05-.1-.07-.15-.01-.03-.06-.19-.01-.02,0-.02-.01-.05-.02-.07.55.05.92-.77.43-1.12.3-.09.48-.35.44-.67-.01-.11-.07-.2-.1-.3.18-.13.22-.45.01-.62-.44-.36-.97-.11-1.27.29-.32.25-.54.63-.56,1.04,0,.08.02.15.02.22-.19.18-.29.43-.31.69-.02.28.02.59.11.87-.08.07-.16.16-.22.26-.16.26-.18.56-.14.84-.16.21-.26.45-.28.71-.03.44.22.96.65,1.11.03.01.06.01.08.02-.1.64-.18,1.29-.25,1.93-.26,2.5.1,5.03.43,7.5.06.45.71.3.67-.13Z"/>
            </g>
          </g>
        </g>
      </g>
    </g>
  </g>
</svg>