<?xml version="1.0" encoding="UTF-8"?>
<svg xmlns="http://www.w3.org/2000/svg" viewBox="0 0 220 220">
  <defs>
    <style>
      .cls-1, .cls-2, .cls-3, .cls-4, .cls-5 {
        fill: #a8846f;
      }

      .cls-6, .cls-7, .cls-8 {
        fill: #fff;
      }

      .cls-9, .cls-10 {
        fill: #fff2de;
      }

      .cls-11, .cls-12 {
        fill: #c49f75;
      }

      .cls-13, .cls-8 {
        opacity: .7;
      }

      .cls-13, .cls-14, .cls-12, .cls-15, .cls-16 {
        mix-blend-mode: multiply;
      }

      .cls-17 {
        fill: #a63232;
      }

      .cls-7, .cls-14, .cls-12, .cls-5, .cls-15, .cls-10, .cls-16 {
        opacity: .3;
      }

      .cls-18 {
        isolation: isolate;
      }

      .cls-19 {
        fill: #c0ded8;
      }

      .cls-20 {
        fill: #8cad66;
      }

      .cls-2 {
        opacity: .1;
      }

      .cls-21 {
        fill: #fff3a9;
      }

      .cls-22, .cls-23 {
        opacity: .4;
      }

      .cls-23, .cls-24 {
        fill: #d1c1b0;
      }

      .cls-25 {
        fill: #a4c9bf;
      }

      .cls-3 {
        opacity: .2;
      }

      .cls-26 {
        fill: #332722;
      }

      .cls-27 {
        fill: #e2c47c;
      }

      .cls-4 {
        opacity: .6;
      }

      .cls-28 {
        fill: #efe1ce;
      }

      .cls-29 {
        fill: #718c4b;
      }

      .cls-30, .cls-16 {
        fill: #d3ac7d;
      }

      .cls-15, .cls-31 {
        fill: #966948;
      }

      .cls-32 {
        fill: #d9e5d1;
      }

      .cls-33 {
        fill: #ca5959;
      }

      .cls-34 {
        fill: #ffebb2;
      }

      .cls-35 {
        fill: #f7d892;
      }

      .cls-36 {
        fill: #b29c8a;
      }

      .cls-37 {
        fill: #d7b25f;
      }

      .cls-38 {
        fill: #377f65;
      }
    </style>
  </defs>
  <g class="cls-18">
    <g id="Layer_2" data-name="Layer 2">
      <g id="_2" data-name="2">
        <g>
          <circle class="cls-32" cx="110" cy="110" r="110"/>
          <g>
            <g>
              <path class="cls-2" d="m81.44,192.48l-.02-1.59-.03-3.19s0-.04-.02-.06c-.03-.06-.12-.09-.19-.05h0s-.02.01-.02.01c44.64-89.32-8.77-104.74-8.77-104.74l1.94-40.87.25-.06c.92-.19,1.81-.49,2.72-.74l3.24-1.04-.12-.38c-.26-.81-.44-1.64-.61-2.47-.17-.83-.3-1.67-.41-2.51-.21-1.69-.37-3.38-.33-5.11,0,0,0,0-.01.01v-.07s0-.07-.07-.19c-.05-.07-.14-.14-.22-.18-.18-.09-.41-.17-.72-.25-.62-.16-1.52-.32-2.68-.47-2.32-.3-5.64-.56-9.64-.65-3.99-.09-8.65,0-13.63.34-2.48.17-5.04.43-7.63.77-1.29.17-2.6.37-3.9.61-.65.12-1.3.26-1.95.42-.32.08-.65.17-.97.28-.16.06-.32.12-.49.2-.07.05-.18.07-.31.26-.02.03-.02.04-.03.06-.04.15,0,.14.02.22.01.02.02.03.03.04.08,1.67-.02,3.33-.19,4.97-.19,1.74-.45,3.48-.95,5.18l-.13.42.5.16c1.79.57,3.57.96,5.38,1.31.03,0,.06.01.1.02l2.87,40.75s-51.48,16.73-7.16,103.8c-.02.02-.04.05-.04.08h0s0,3.17,0,3.17v1.58s0,.39,0,.39v.2s.02.1.01.06h0s0,.04,0,.04l.02.05c.03.05.07.11.11.16.27.27.53.38.8.52,1.09.52,2.22.86,3.37,1.2,1.14.33,2.3.6,3.47.85,2.33.5,4.7.84,7.08,1.09,2.38.25,4.78.37,7.18.38,2.39-.01,4.81-.13,7.19-.38,2.39-.25,4.77-.59,7.12-1.09,1.17-.25,2.34-.53,3.5-.86,1.15-.34,2.3-.69,3.4-1.21.27-.15.54-.26.8-.52.03-.04.06-.08.09-.12.03-.06.05-.15.05-.19v-.2s0-.4,0-.4Z"/>
              <g>
                <path class="cls-11" d="m45.19,30.18l1.9,10.61c7.59,1.4,16.98.37,21.59-1.89l1.88-9.55-25.37.83Z"/>
                <path class="cls-12" d="m45.19,30.18s2.92,2.28,16.31,2.56l-.7,6.35c-2.71,2.2-13.71,1.7-13.71,1.7,7.59,1.4,16.98.37,21.59-1.89l1.88-9.55-25.37.83Z"/>
                <g>
                  <path class="cls-12" d="m50.6,37.58c0,.43-.34.78-.77.79-.43.01-.79-.32-.79-.75,0-.43.34-.78.77-.79.43-.01.79.32.79.75Z"/>
                  <path class="cls-12" d="m58.2,34.77c0,.43-.35.78-.78.8-.43.01-.79-.32-.79-.75,0-.43.35-.78.78-.8.43-.01.79.32.79.75Z"/>
                  <path class="cls-12" d="m48.82,33.37c0,.32-.26.59-.59.6-.33,0-.6-.24-.6-.57s.26-.59.59-.6c.33,0,.6.25.6.57Z"/>
                  <path class="cls-12" d="m57.25,38.53c0,.32-.26.59-.59.6-.33,0-.6-.24-.6-.57,0-.32.26-.59.59-.6.33,0,.6.24.6.57Z"/>
                </g>
              </g>
              <path class="cls-3" d="m78.79,29.63c0,.66-9.41,3.47-20.95,3.81-11.49.34-20.82-1.89-20.83-2.55-.01-.66,9.27-2.51,20.8-2.86,11.58-.35,20.99.94,20.98,1.6Z"/>
              <path class="cls-1" d="m79.05,29.7s0,.02-.02.06c0,.04-.18.25-.23.27-.17.13-.39.24-.69.38-.6.27-1.48.59-2.62.94-2.27.68-5.57,1.44-9.56,1.9-3.98.48-8.66.76-13.63.53-2.48-.12-5.04-.35-7.61-.71-1.29-.19-2.58-.4-3.87-.68-1.29-.32-2.56-.5-3.84-1.19-.05-.06-.08-.05-.14-.17-.02-.08-.06-.07-.02-.22,0-.02.01-.03.03-.06.13-.19.23-.21.31-.26.17-.08.33-.14.49-.2.32-.11.65-.19.97-.28.65-.16,1.3-.29,1.95-.42,1.3-.24,2.6-.44,3.9-.61,2.59-.34,5.15-.59,7.63-.77,4.98-.33,9.64-.43,13.63-.34,4,.09,7.32.35,9.64.65,1.16.15,2.06.31,2.68.47.31.08.55.16.72.25.08.04.17.11.22.18.07.12.07.19.07.19v.08Zm-.51-.07s-.02.03.02.08c0,.01,0,0-.06-.03-.1-.06-.32-.14-.61-.22-.58-.16-1.47-.33-2.62-.5-2.29-.33-5.6-.65-9.58-.8-3.98-.15-8.63-.15-13.6.27-2.48.2-5.03.46-7.61.85-1.29.19-2.58.41-3.87.67-.64.13-1.28.28-1.92.44-.31.09-.63.17-.93.28-.15.05-.3.11-.43.18-.07.03-.11.09-.09.02,0,0-.01.03-.02.05,0-.11.01-.07,0-.11-.04-.04.02,0,.02,0,1.04.53,2.42.77,3.67,1.03,1.28.25,2.56.44,3.84.6,2.56.32,5.1.5,7.57.57,4.93.16,9.56-.16,13.5-.68,3.94-.55,7.21-1.19,9.47-1.74,1.13-.28,2.01-.54,2.58-.76.28-.11.5-.21.59-.27.08-.07-.01.04.03.02.02-.04.03-.06.03-.06v.08Z"/>
              <path class="cls-1" d="m79.71,40.25s-.64.27-1.81.58c-1.17.33-2.84.78-4.87,1.19-2.02.42-4.39.86-6.95,1.19-1.27.19-2.6.27-3.94.42-1.34.12-2.72.15-4.08.23-2.72.04-5.46-.06-8-.2-2.54-.15-4.9-.42-6.92-.68-2.02-.26-3.68-.59-4.83-.83-1.16-.24-1.79-.5-1.79-.5,0,0,.64.21,1.81.38,1.17.19,2.85.35,4.86.55,4.04.35,9.45.68,14.87.57,1.35-.06,2.71-.07,4.04-.18,1.33-.13,2.65-.19,3.92-.37,1.27-.17,2.5-.27,3.67-.46,1.16-.17,2.27-.32,3.28-.51,2.03-.35,3.73-.64,4.9-.91,1.18-.24,1.84-.46,1.84-.46Z"/>
              <path class="cls-7" d="m37.43,187.94s32.32-2.08,37.3-7.73c5.02-5.69,18.35-28.62,23.82-52.11,0,0,.82,13.55-7.41,36.04-2.77,7.56-5.73,15.75-10.04,23.55,0,0-3.29,3.64-21.21,3.67-14.69.02-18.81-1.5-22.46-3.42Z"/>
              <path class="cls-30" d="m75.19,4.28c0,.54-6.8,4.36-16.05,4.67-9.22.31-18.14-1.26-18.15-1.8,0-.53,9.91-2.91,19.15-3.23,9.28-.32,15.05-.18,15.04.36Z"/>
              <path class="cls-1" d="m80.92,193.11l.14-5.2c-6.4,2.89-17.52,3.77-24.56,3.53-5.38-.19-12.84-1.04-17.87-3-.44-.17-.66-.21-1.09-.41,0,.14.14,5.03.23,5.13,2.2,2.11,15.86,3.63,21.5,3.62,10.25,0,20.41-2.43,21.64-3.67Zm-.49-5.19c.26-.1.5-.23.75-.34h0c.07-.03.15-.01.19.05.01.02.02.04.02.06h0l.03,3.19.02,1.59v.4s0,.2,0,.2c0,.05-.03.13-.05.19-.03.05-.06.08-.09.12-.26.26-.53.38-.8.52-1.1.52-2.25.87-3.4,1.21-1.15.33-2.32.61-3.5.86-2.35.5-4.73.85-7.12,1.09-2.39.25-4.8.37-7.19.38-2.41-.01-4.8-.13-7.18-.38-2.38-.25-4.75-.59-7.08-1.09-1.17-.25-2.32-.52-3.47-.85-1.14-.33-2.28-.68-3.37-1.2-.27-.15-.53-.25-.8-.52-.04-.05-.08-.1-.11-.16l-.02-.05v-.02s-.01-.01-.01-.01c0,.04-.01-.07,0-.06v-.2s0-.39,0-.39v-1.58s0-3.17,0-3.17h0c0-.07.06-.13.13-.13.02,0,.05,0,.07.02.43.21.85.38,1.3.56.44.17.89.31,1.34.46.89.31,1.83.52,2.74.79l1.4.31c.47.1.93.22,1.4.3l2.84.48h-.03s0,0,0,0h0s.02,0,.02,0l4.01.43,1,.11,1.01.04,2.03.07,2.03.07c.68.04,1.34,0,2.02-.02l4.05-.15c.68,0,1.35-.13,2.02-.19l2.02-.22c.68-.08,1.35-.12,2.01-.26l2-.34c.67-.1,1.32-.28,1.98-.42.66-.14,1.32-.29,1.96-.48.65-.18,1.3-.34,1.94-.57.65-.22,1.27-.42,1.89-.68Z"/>
              <path class="cls-4" d="m72.47,29.29c0,.46-6.57,2.22-14.64,2.46-8.05.24-14.58-1.12-14.59-1.58,0-.46,6.5-1.76,14.56-2,8.09-.25,14.66.65,14.66,1.12Z"/>
              <path class="cls-11" d="m59.14,8.95c-9.22.31-18.14-1.26-18.15-1.8l4.14,22.96c0,.4,5.68,1.14,12.69.93,7.02-.21,12.73-1.29,12.73-1.7l4.63-25.06c0,.54-6.8,4.36-16.05,4.67Z"/>
              <path class="cls-12" d="m59.14,8.95c-9.22.31-18.14-1.26-18.15-1.8,0,0,7.54,3.5,23.08,4.56l-1.88,16.95s-10.26,2.52-16.99,1.51c.54.41,5.99,1.06,12.64.86,7.02-.21,12.73-1.29,12.73-1.7l4.63-25.06c0,.54-6.8,4.36-16.05,4.67Z"/>
              <path class="cls-16" d="m44.69,7.03c0-.52,9.28-2.75,18.26-3.19-.9.02-1.83.05-2.8.09-9.25.32-19.16,2.7-19.15,3.23,0,.53,8.93,2.11,18.15,1.8.53-.02,1.04-.05,1.55-.09-8.41.03-16-1.34-16.01-1.84Z"/>
              <g>
                <path class="cls-12" d="m49.25,20.67c0,.54-.43.99-.97,1.01-.54.02-.98-.4-.99-.94,0-.54.43-.99.97-1.01.54-.02.99.41.99.94Z"/>
                <path class="cls-12" d="m59.71,16.27c0,.54-.44.99-.98,1.01-.54.02-.99-.41-.99-.95,0-.54.44-1,.98-1.01.54-.02.99.41.99.95Z"/>
                <path class="cls-12" d="m46.77,13.71c0,.4-.31.73-.71.74-.4.01-.72-.3-.73-.69,0-.4.31-.73.71-.74s.72.3.73.69Z"/>
                <path class="cls-12" d="m56.23,21.43c0,.39-.32.72-.71.73-.4.01-.72-.3-.72-.69,0-.39.31-.72.71-.73s.72.3.72.69Z"/>
                <path class="cls-12" d="m48.35,28.07c0,.39-.31.71-.7.73-.39.01-.71-.29-.72-.68,0-.39.31-.71.7-.73.39-.01.72.29.72.68Z"/>
                <path class="cls-12" d="m60.74,26.28c0,.54-.43.98-.98,1-.54.02-.98-.4-.99-.94,0-.54.43-.98.98-1,.54-.02.98.4.99.94Z"/>
              </g>
              <g>
                <path class="cls-16" d="m60.07,7.12c0,.22-.45.42-1.01.44-.56.02-1.02-.15-1.02-.37,0-.22.45-.42,1.01-.44.56-.02,1.02.15,1.02.37Z"/>
                <path class="cls-16" d="m63.97,4.88c0,.17-.35.32-.78.34-.43.02-.79-.11-.79-.28,0-.17.35-.32.78-.34.43-.02.79.11.79.29Z"/>
                <path class="cls-16" d="m54.32,6.22c0,.17-.35.32-.78.34-.43.01-.78-.11-.78-.28,0-.17.35-.32.78-.34.43-.01.78.11.78.28Z"/>
                <path class="cls-16" d="m68.67,5.72c0,.22-.46.42-1.02.44-.56.02-1.02-.15-1.02-.37,0-.22.46-.42,1.02-.44.56-.02,1.02.15,1.02.37Z"/>
                <path class="cls-16" d="m49.12,7.1c0,.22-.45.42-1.01.44-.56.02-1.01-.15-1.02-.37,0-.22.45-.42,1.01-.44.56-.02,1.01.15,1.02.37Z"/>
              </g>
              <path class="cls-8" d="m39.11,33.66l-.33,6.15s10.92.15,19.71-1.31l.63-3.27s-13.73.18-20.01-1.57Z"/>
              <path class="cls-1" d="m79.05,29.7s0,.02-.02.06c0,.04-.18.25-.23.27-.17.13-.39.24-.69.38-.6.27-1.48.59-2.62.94-2.27.68-5.57,1.44-9.56,1.9-3.98.48-8.66.76-13.63.53-2.48-.12-5.04-.35-7.61-.71-1.29-.19-2.58-.4-3.87-.68-1.29-.32-2.56-.5-3.84-1.19-.05-.06-.08-.05-.14-.17-.02-.08-.06-.07-.02-.22,0-.02.01-.03.03-.06.13-.19.23-.21.31-.26.17-.08.33-.14.49-.2.32-.11.65-.19.97-.28.65-.16,1.3-.29,1.95-.42,1.3-.24,2.6-.44,3.9-.61,2.59-.34,5.15-.59,7.63-.77,4.98-.33,9.64-.43,13.63-.34,4,.09,7.32.35,9.64.65,1.16.15,2.06.31,2.68.47.31.08.55.16.72.25.08.04.17.11.22.18.07.12.07.19.07.19v.08Zm-.51-.07s-.02.03.02.08c0,.01,0,0-.06-.03-.1-.06-.32-.14-.61-.22-.58-.16-1.47-.33-2.62-.5-2.29-.33-5.6-.65-9.58-.8-3.98-.15-8.63-.15-13.6.27-2.48.2-5.03.46-7.61.85-1.29.19-2.58.41-3.87.67-.64.13-1.28.28-1.92.44-.31.09-.63.17-.93.28-.15.05-.3.11-.43.18-.07.03-.11.09-.09.02,0,0-.01.03-.02.05,0-.11.01-.07,0-.11-.04-.04.02,0,.02,0,1.04.53,2.42.77,3.67,1.03,1.28.25,2.56.44,3.84.6,2.56.32,5.1.5,7.57.57,4.93.16,9.56-.16,13.5-.68,3.94-.55,7.21-1.19,9.47-1.74,1.13-.28,2.01-.54,2.58-.76.28-.11.5-.21.59-.27.08-.07-.01.04.03.02.02-.04.03-.06.03-.06v.08Z"/>
              <path class="cls-1" d="m80.4,39.77c-.26-.81-.44-1.64-.61-2.47-.17-.83-.3-1.67-.41-2.51-.21-1.69-.37-3.38-.33-5.11-.05.07-.12.13-.15.14-.17.13-.4.24-.7.38-.1.05-.22.09-.34.14h.16c.41,1.49.69,3,.91,4.52.11.84.21,1.68.26,2.53.04.68.07,1.36.07,2.05l-2.27.66c-.89.25-1.77.55-2.68.73l-2.7.62c-.9.23-1.81.36-2.71.52-.91.15-1.81.34-2.72.45l-2.73.33c-.91.13-1.82.17-2.74.24-.91.06-1.82.16-2.74.16l-2.74.07-2.73-.05c-.91,0-1.82-.1-2.72-.14-.91-.04-1.81-.15-2.71-.24-.9-.08-1.8-.22-2.7-.34-.9-.11-1.79-.29-2.68-.44-1.65-.32-3.3-.7-4.88-1.18-.08-1.6.02-3.19.2-4.77.18-1.54.44-3.08.82-4.61-.33-.12-.65-.26-.98-.43.08,1.68-.02,3.35-.19,5-.19,1.74-.45,3.48-.95,5.18l-.13.42.5.16c1.79.57,3.57.96,5.38,1.31.91.15,1.81.34,2.72.45.91.12,1.82.26,2.74.34.92.09,1.83.2,2.75.24.92.05,1.84.14,2.76.14l2.77.05,2.78-.07c.93,0,1.85-.1,2.78-.16.93-.07,1.85-.11,2.77-.24l2.77-.34c.92-.12,1.84-.31,2.76-.46.92-.17,1.84-.3,2.75-.53l2.74-.63c.92-.19,1.81-.49,2.72-.74l3.24-1.04-.12-.38Z"/>
              <path class="cls-29" d="m29.46,100.11l58.34-1.03s22.39,21.58-7.75,84.86c-.81,1.7-2.46,2.98-4.46,3.44-15.04,3.47-32.48,1.72-36.18-1.19-2.9-2.28-29.55-59.74-9.95-86.08Z"/>
              <path class="cls-21" d="m29.46,100.07s26.9,3.47,58.34-1.03c0,0-5.74,4.28-27.92,5.23-24.18-.08-30.42-4.2-30.42-4.2Z"/>
              <path class="cls-20" d="m29.46,100.07s29.89-5.41,58.34-1.03c0,0-26.46,7.84-58.34,1.03Z"/>
              <path class="cls-5" d="m78.21,30.2l1.5,9.43-5.39,2.13-1.95,41.09s22.79,7.4,25.87,37.42c2.98,29.01-17.15,67.42-17.15,67.42l-.04,5.69s-9.39,4.51-24.59,3.7c0,0,13.04-1.22,13.36-3.73.06-.43-23.6.88-32.4-5.42,0,0-3.88-7.83-5.02-10.84,60.39-10.55,57.54-78.27,26.69-93.73l-.98-34.89s-11.11-1.15-16.65-5.36c6.08.85,12.44,1.12,20.66.38l-.64-10.11s4.98-.23,16.72-3.18Z"/>
              <path class="cls-7" d="m45.47,51.4l2.56,32.42s-19.5,12.56-22.99,35.39c-3.06,20.03,8.15,40.55,8.15,40.55,0,0,17.46-5.49,25.71-25.95,11.97-29.68-3.95-49.8-3.95-49.8l-.25-31.01-9.23-1.59Z"/>
              <path class="cls-6" d="m44.86,91.37s-26.18,16.74-13.71,51.49c0,0,37.22-18.44,13.71-51.49Z"/>
              <path class="cls-20" d="m77.4,184.65c-2.87,2.31-24.54,5.33-36.36,2.47h0c7.15,3.13,32.37,2.99,37.44-.92,2.67-2.06,8.07-14.39,12.21-29.42-5.72,14.55-11.37,26.31-13.29,27.87Z"/>
              <path class="cls-7" d="m37.43,187.94s32.32-2.08,37.3-7.73c5.02-5.69,18.35-28.62,23.82-52.11,0,0,.82,13.55-7.41,36.04-2.77,7.56-5.73,15.75-10.04,23.55,0,0-3.88,3.17-21.21,3.67-14.68.42-18.81-1.5-22.46-3.42Z"/>
              <path class="cls-1" d="m80.96,187.56c1.07-2.21,2.15-4.42,3.16-6.65,1.04-2.25,2.03-4.51,2.98-6.8,1.91-4.57,3.7-9.18,5.25-13.87.77-2.35,1.51-4.71,2.17-7.09.66-2.38,1.28-4.78,1.78-7.19,1.06-4.82,1.78-9.72,2.1-14.64.3-4.92.16-9.87-.59-14.74-.74-4.86-2.14-9.63-4.31-14.04-2.16-4.41-5.13-8.43-8.74-11.76-1.81-1.66-3.76-3.17-5.84-4.48-2.08-1.3-4.29-2.45-6.6-3.22h0s-.17-.05-.17-.05v-.17s1.67-41.1,1.67-41.1l.62.52h0c-2.71.59-5.43,1.04-8.17,1.41-1.37.18-2.74.34-4.12.45-.69.07-1.38.12-2.07.15l-2.08.1c-1.38,0-2.74.05-4.13,0-1.39-.02-2.77-.09-4.14-.18-2.76-.18-5.5-.43-8.24-.79l.58-.54h0s2.64,41.01,2.64,41.01v.2s-.18.06-.18.06h0c-2.24.84-4.38,2.05-6.37,3.39-2,1.36-3.86,2.91-5.59,4.6-3.44,3.4-6.24,7.43-8.25,11.82-2.03,4.39-3.32,9.1-3.98,13.9-.7,4.79-.77,9.67-.43,14.51.36,4.84,1.1,9.66,2.18,14.4.52,2.37,1.13,4.73,1.8,7.07.66,2.34,1.4,4.66,2.18,6.97,3.15,9.22,7.06,18.16,11.41,26.89l-.07-.07h0c1.66.77,3.46,1.31,5.25,1.78,1.8.46,3.63.8,5.46,1.07,1.84.28,3.69.45,5.54.59,1.85.13,3.71.18,5.57.19l5.57-.27,2.77-.27c.92-.11,1.85-.15,2.77-.32l2.75-.44c.91-.16,1.81-.39,2.72-.59.91-.19,1.78-.5,2.68-.75.85-.31,1.72-.62,2.49-1.04Zm.23.29c-.85.47-1.73.77-2.61,1.09-.9.25-1.79.56-2.7.76-.91.19-1.82.43-2.74.59l-2.77.44c-.92.17-1.86.21-2.78.32l-2.79.27-5.59.27c-1.87-.02-3.73-.07-5.59-.19-1.86-.14-3.72-.31-5.57-.59-1.85-.28-3.68-.62-5.5-1.08-1.81-.47-3.6-1.01-5.32-1.81h0s-.05-.02-.05-.02l-.03-.05c-1.1-2.18-2.22-4.35-3.26-6.55-1.06-2.2-2.09-4.41-3.07-6.65-1.98-4.46-3.77-9.01-5.37-13.63-.79-2.31-1.55-4.64-2.22-6.99-.69-2.35-1.31-4.71-1.85-7.1-1.11-4.76-1.88-9.61-2.28-14.5-.36-4.89-.32-9.82.36-14.69.69-4.86,2.02-9.66,4.11-14.11,2.08-4.46,4.95-8.56,8.47-12,1.76-1.72,3.68-3.27,5.74-4.62,2.07-1.34,4.23-2.52,6.57-3.35h0s-.18.27-.18.27l-3.14-40.98h0s-.04-.63-.04-.63l.63.08c2.7.36,5.44.61,8.16.78,1.37.08,2.73.15,4.09.17,1.36.06,2.74,0,4.11,0,1.34-.08,2.72-.1,4.07-.25,1.36-.11,2.72-.26,4.07-.44,2.71-.36,5.42-.82,8.07-1.39h0l.66-.14-.04.66-2.24,41.07-.16-.22h0c2.4.76,4.63,1.89,6.78,3.17,2.13,1.3,4.14,2.79,5.98,4.48,3.68,3.37,6.73,7.44,8.95,11.92,2.24,4.47,3.68,9.31,4.45,14.24.78,4.93.88,9.94.56,14.91-.34,4.97-1.09,9.89-2.18,14.74-.52,2.43-1.15,4.83-1.82,7.22-.67,2.39-1.42,4.76-2.21,7.11-1.59,4.7-3.37,9.34-5.35,13.89-.98,2.28-2,4.54-3.07,6.78-1.05,2.25-2.16,4.46-3.26,6.68l-.03.05-.04.02Z"/>
            </g>
            <g>
              <path class="cls-24" d="m185.05,64.85h-71.5s3.56,110.53,3.56,110.55c0,1.05,13.29,4.67,32.13,4.67s31.73-3.53,32.1-4.63l3.71-110.59Z"/>
              <path class="cls-10" d="m115.79,65.89l4.86,109.07s16.97,4.88,41.83,2.56l3.94-109.47s-28.5,2.4-50.64-2.16Z"/>
              <path class="cls-28" d="m185.05,64.85c0,1.77-16.01,6.91-35.75,6.91s-35.75-5.14-35.75-6.91,16.01-5.99,35.75-5.99,35.75,4.21,35.75,5.99Z"/>
              <path class="cls-9" d="m149.3,58.86c-19.74,0-35.75,4.21-35.75,5.99s16.01,6.91,35.75,6.91,35.75-5.14,35.75-6.91-16.01-5.99-35.75-5.99Zm0,10.64c-17.09,0-30.94-3.06-30.94-4.6s13.85-5.18,30.94-5.18,30.94,3.65,30.94,5.18-13.85,4.6-30.94,4.6Z"/>
              <path class="cls-28" d="m118.36,64.91s13.78-9.09,31.52-9.09,30.37,9.09,30.37,9.09h-61.88Z"/>
              <g class="cls-22">
                <path class="cls-24" d="m180.24,64.91s.08-.45-1.24-.97c-2.74-1.26-13.45-8.12-29.12-8.12-.17,0-.33.01-.49.02l-.08,3.43s25.95,6.52-13.1,9.64c6.08.56,17.53.85,27.1-.11,6.18-.62,16.98-2.56,16.94-3.88Z"/>
              </g>
              <path class="cls-24" d="m159.27,57.55c0,.44-4.47,1.72-9.97,1.72s-9.97-1.28-9.97-1.72,4.47-1.49,9.97-1.49,9.97,1.05,9.97,1.49Z"/>
              <g>
                <path class="cls-26" d="m153.42,44.52c-2.7,4.81-3.31,13.54-3.63,13.54s-1.03-8.4.7-14.38l2.93.84Z"/>
                <path class="cls-26" d="m153.52,44.47c-.17.53-1,.8-1.86.59s-1.42-.8-1.25-1.34,1-.8,1.86-.59c.86.21,1.42.8,1.25,1.34Z"/>
              </g>
              <path class="cls-10" d="m149.3,71.76c-12.53,0-23.55-2.07-29.94-4.04h0l4.86,101.81s16.9,6.47,34,2.35l2.23-100.66h0c-3.51.33-7.25.54-11.15.54Z"/>
              <g>
                <g class="cls-13">
                  <path class="cls-24" d="m135.79,113.4c-2.91-.48-5.51-.99-7.8-1.5-7.94-.15-12.72-.66-12.85-.68-.03,0-.05,0-.08,0l.05,1.48c.97.1,7.33.71,17.16.71,1.12,0,2.3-.01,3.51-.03Z"/>
                  <path class="cls-24" d="m135.9,111.92c2.64.43,5.56.84,8.74,1.19,11.18-.56,24.67-2,39-5.17l.05-1.52s-.03,0-.04,0c-18.32,4.09-35.28,5.31-47.74,5.5Z"/>
                  <path class="cls-24" d="m135.79,113.4c8.6,1.41,19.95,2.53,34.32,2.53,4.17,0,8.59-.09,13.28-.3l.05-1.48s-.02,0-.03,0c-15.86.71-28.68.1-38.77-1.03-3.18-.36-6.1-.76-8.74-1.19-14.07-2.31-20.56-5.39-20.67-5.44-.1-.05-.21-.07-.32-.07l.05,1.58c1.22.53,5.43,2.23,13.03,3.92,2.29.51,4.89,1.02,7.8,1.5Z"/>
                  <path class="cls-24" d="m183.21,120.94l.05-1.49s-.08-.01-.12,0c-39.13,6.62-67.38-1.79-67.66-1.87-.07-.02-.14-.02-.21-.02l.05,1.52c2.09.59,16.37,4.4,37.71,4.4,8.94,0,19.13-.67,30.18-2.53Z"/>
                  <path class="cls-24" d="m129.76,128.05c-4.55-.24-9.26-.67-14.08-1.37-.04,0-.07,0-.1,0l.05,1.48c7.66,1.1,15.03,1.55,21.93,1.58-2.79-.56-5.4-1.13-7.79-1.7Z"/>
                  <path class="cls-24" d="m137.73,128.27c2.34.47,4.81.92,7.36,1.35,20.62-.83,35.54-5.13,38.03-5.89l.05-1.54s-.09,0-.14.02c-.24.08-19.25,6.15-45.31,6.07Z"/>
                  <path class="cls-24" d="m137.55,129.75c10.03,2.01,22.3,3.77,34.42,3.77,3.65,0,7.29-.17,10.84-.53l.05-1.5c-12.55,1.3-26.12.05-37.77-1.88-2.56-.42-5.02-.88-7.36-1.35-12.9-2.59-22.04-5.57-22.23-5.63-.02,0-.04,0-.06,0l.05,1.56c1.52.48,6.79,2.1,14.27,3.85,2.39.56,5,1.14,7.79,1.7Z"/>
                </g>
                <g>
                  <path class="cls-31" d="m132.28,112.5c-10.59,0-17.15-.71-17.3-.72-.39-.04-.66-.39-.62-.78.04-.39.39-.67.78-.62.31.04,31.69,3.42,68.51-4.81.39-.09.75.15.84.53.08.38-.15.75-.53.84-20.27,4.53-38.9,5.56-51.68,5.56Z"/>
                  <path class="cls-31" d="m170.11,115c-38.47,0-55.33-8.02-55.51-8.12-.35-.17-.49-.59-.32-.94.17-.35.59-.49.94-.32.2.1,20.67,9.8,68.19,7.67.4-.04.72.28.73.67.02.39-.28.72-.67.73-4.71.21-9.17.31-13.36.31Z"/>
                  <path class="cls-31" d="m153.03,122.54c-22.97,0-37.76-4.41-37.97-4.47-.37-.11-.58-.51-.47-.88.11-.37.5-.58.88-.47.28.08,28.53,8.5,67.67,1.88.38-.05.74.19.81.58.06.38-.19.74-.58.81-11.11,1.88-21.36,2.56-30.35,2.56Z"/>
                  <path class="cls-31" d="m138.22,128.83c-7.13,0-14.8-.45-22.76-1.61-.38-.06-.65-.41-.59-.8.06-.38.42-.66.8-.59,36.7,5.33,67.08-4.38,67.38-4.48.37-.12.76.08.89.45.12.37-.08.77-.45.89-.24.08-19.2,6.14-45.26,6.14Z"/>
                  <path class="cls-31" d="m171.97,132.59c-27.89,0-56.6-9.36-56.92-9.47-.37-.12-.57-.52-.45-.89.12-.37.51-.57.89-.45.37.12,37.17,12.12,67.7,8.83.38-.04.73.24.77.62.04.39-.24.73-.62.77-3.72.4-7.54.58-11.37.58Z"/>
                </g>
              </g>
              <g>
                <path class="cls-31" d="m136.19,113.54c-.14,0-.29-.04-.42-.11-8.35-4.83-13.92-6.63-17.98-7.95-3.03-.98-5.22-1.69-7.16-3.16-2.95-2.23-2.76-4.46-2.38-5.59,1.01-3,5.13-4.85,8.37-4.85,1.21,0,2.29.24,3.21.7,7.63,3.84,14.43,15.23,16.66,18.97l.43.71c.2.33.15.75-.12,1.03-.16.17-.38.25-.6.25Zm-19.58-19.97c-2.94,0-6.11,1.73-6.77,3.7-.42,1.25.19,2.49,1.8,3.71,1.72,1.3,3.79,1.97,6.66,2.9,3.67,1.19,8.54,2.76,15.52,6.53-2.89-4.68-8.6-13.23-14.76-16.32-.68-.34-1.53-.52-2.46-.52Z"/>
                <path class="cls-31" d="m136.19,113.64c-.24,0-.48-.1-.64-.3-.25-.29-.27-.72-.04-1.03,9.37-13.19,17.16-15.96,22.05-15.96,3.24,0,6.19,1.27,8.09,3.49,1.32,1.54,1.97,3.4,1.73,4.97-.48,3.13-4.11,3.38-9.12,3.73-5.56.38-13.16.91-21.69,5.02-.12.06-.24.08-.37.08Zm21.36-15.61c-3.43,0-10.24,1.72-18.78,12.7,7.61-3.07,14.31-3.53,19.36-3.88,4.79-.33,7.3-.58,7.57-2.31.17-1.09-.33-2.45-1.34-3.62-1.58-1.84-4.06-2.9-6.81-2.9Z"/>
                <path class="cls-31" d="m149.67,147.2c-2.34,0-4.43-.72-6.25-2.14-9.39-7.37-8.14-31.29-8.08-32.31.03-.46.43-.82.89-.79.46.03.82.42.79.89-.01.24-1.26,24.06,7.44,30.89,2.41,1.89,5.3,2.28,8.85,1.19.45-.14.92.12,1.05.56.14.45-.11.92-.56,1.05-1.45.44-2.83.67-4.13.67Z"/>
                <path class="cls-31" d="m125.95,158.82c-.35,0-.68-.22-.8-.57-7.2-20.82,9.63-45.02,10.35-46.04.27-.38.8-.47,1.17-.2.38.27.47.79.2,1.17-.17.24-17.05,24.52-10.13,44.52.15.44-.08.92-.52,1.07-.09.03-.18.05-.28.05Z"/>
                <g class="cls-14">
                  <path class="cls-31" d="m153.82,146.14c-1.45.45-2.84.67-4.14.67-2.35,0-4.45-.72-6.28-2.15-7.26-5.69-8.17-21.24-8.18-28.52-.02,7.07.77,23.15,8.18,28.96,1.83,1.43,3.93,2.15,6.28,2.15,1.31,0,2.69-.22,4.14-.67.46-.14.73-.63.59-1.1-.07.3-.28.55-.59.65Z"/>
                </g>
                <path class="cls-31" d="m136.04,115.05s-.06,0-.09.01c-.53.04-.98-.36-1.02-.88-.18-2.52.51-4.83.54-4.93.15-.5.69-.79,1.19-.63.5.15.79.69.64,1.19,0,.02-.62,2.08-.47,4.23.04.49-.31.93-.79,1.01Z"/>
                <path class="cls-15" d="m135.8,113.34c-.32,0-.62-.14-.9-.36-.01.39,0,.79.02,1.2.04.53.49.92,1.02.88.03,0,.06,0,.09-.01.48-.08.82-.52.79-1.01-.03-.4-.03-.79-.01-1.16-.3.29-.65.46-1.02.46Z"/>
                <g>
                  <path class="cls-15" d="m126.25,158.38c-.1.03-.19.05-.29.05-.37,0-.71-.23-.84-.6-1.31-3.78-1.82-7.67-1.78-11.52-.08,3.99.42,8.04,1.78,11.96.13.37.47.6.84.6.1,0,.19-.02.29-.05.45-.15.68-.63.56-1.08-.07.28-.26.53-.56.63Z"/>
                  <g class="cls-14">
                    <path class="cls-31" d="m135.5,114.98c-3.2,5.22-10.68,18.94-10.36,32.72-.16-13.98,7.58-27.81,10.59-32.66-.08-.01-.16-.03-.24-.06Z"/>
                  </g>
                </g>
                <g>
                  <path class="cls-15" d="m142.2,106.77c6.92-7.4,12.39-8.69,15.34-8.69,2.73,0,5.2,1.05,6.77,2.88.75.87,1.21,1.84,1.33,2.73,0-1-.45-2.15-1.33-3.17-1.57-1.83-4.04-2.88-6.77-2.88-3.4,0-11.11,2.42-19.58,13.26.35-.14.7-.25,1.04-.39,1.09-1.39,2.16-2.63,3.19-3.74h0Z"/>
                  <path class="cls-15" d="m167.42,103.56c0,.28.03.55-.01.82-.49,3.17-4.13,3.42-9.16,3.77-5.5.38-13.02.91-21.44,4.91,0,.15,0,.29,0,.45,8.42-4,15.94-4.53,21.44-4.91,5.04-.35,8.67-.6,9.16-3.77.06-.41.06-.83.01-1.26Z"/>
                </g>
                <g>
                  <path class="cls-15" d="m119.05,93.69c-.67-.34-1.51-.51-2.43-.51-2.93,0-6.07,1.72-6.72,3.67-.11.33-.14.65-.11.98.02-.18.05-.35.11-.53.66-1.96,3.8-3.67,6.72-3.67.92,0,1.76.18,2.43.51,6.07,3.05,11.73,11.43,14.64,16.14.22.12.43.22.65.34-2.91-4.71-9.21-13.87-15.29-16.93Z"/>
                  <g class="cls-14">
                    <path class="cls-31" d="m134.92,112.56c-7.88-4.46-13.22-6.21-17.14-7.48-3.03-.98-5.22-1.69-7.18-3.16-2-1.51-2.56-3.02-2.59-4.2-.09,1.22.33,2.93,2.59,4.64,1.95,1.47,4.14,2.18,7.18,3.16,3.92,1.27,9.26,3.02,17.12,7.47,0-.15,0-.29.02-.44Z"/>
                  </g>
                </g>
              </g>
              <path class="cls-36" d="m117.11,175.4s32.03,8.94,64.23,0c0,0-6.56,5.03-30.69,4.96-30.35-.51-33.54-4.96-33.54-4.96Z"/>
            </g>
            <g>
              <path class="cls-29" d="m169.1,177.03c0-5.65-6-17.05-17.79-24.05h-57.85c-7.37,5.25-17.79,15.13-17.79,24.05,0,6.09,5.93,18.76,23.45,26.52,11.55,5.44,38.92,3.42,46.53,0,16.89-7.6,23.45-19.63,23.45-26.52Z"/>
              <path class="cls-29" d="m169.1,177.03c0-5.65-6-17.06-17.79-24.05h-57.85c-.09.06-.18.13-.26.19.07.13.11.26.19.39,0,0,14.03,11.19,51.43,10.13,0,0,23.62,21.6,1.67,33.19-13.42,7.09-28.51,8.85-38.22,9.16,13.13,2.01,31.38.2,37.38-2.49,16.89-7.6,23.45-19.63,23.45-26.52Z"/>
              <path class="cls-28" d="m151.38,153.19c0,1.44-12.98,5.61-29,5.61s-29-4.17-29-5.61,12.98-4.86,29-4.86,29,3.42,29,4.86Z"/>
              <path class="cls-29" d="m163.33,163.69c.53,1.6.82,3.24.82,4.91,0,15.52-23.47,28.1-52.42,28.1-23.2,0-33.03-8.08-36.02-19.27.24,6.22,6.27,18.52,23.43,26.11,11.55,5.44,38.92,3.42,46.53,0,16.89-7.6,23.45-19.63,23.45-26.52,0-3.21-1.94-8.27-5.77-13.34Z"/>
              <path class="cls-24" d="m122.39,158.79c4.5,0,8.75-.34,12.55-.84-2.28-.67-7.13-1.44-12.76-1.44s-10.29.74-12.63,1.4c3.87.53,8.22.88,12.84.88Z"/>
              <path class="cls-29" d="m134.54,181.6c-.45,5.8-15.06,11.24-28.45,10.19s-24.34-10.71-23.88-16.51c.45-5.8,12.77-1.05,26.17,0,13.39,1.05,26.62.52,26.17,6.32Z"/>
              <path class="cls-23" d="m122.39,158.79c8.51,0,16.15-1.18,21.45-2.5-1.5-1.19-10.52-3.32-21.45-3.32s-19.95,2.12-21.45,3.32c5.3,1.32,12.94,2.5,21.45,2.5Z"/>
              <path class="cls-9" d="m122.39,148.33c-16.01,0-29,3.42-29,4.86s12.98,5.61,29,5.61,29-4.17,29-5.61-12.98-4.86-29-4.86Zm0,9.37c-14.6,0-26.44-3.17-26.44-4.48s11.84-4.43,26.44-4.43,26.44,3.12,26.44,4.43-11.84,4.48-26.44,4.48Z"/>
              <g>
                <path class="cls-26" d="m128.16,138.87c-.24.76-1.42,1.13-2.64.84-1.22-.29-2.02-1.14-1.78-1.9.24-.76,1.42-1.13,2.64-.84,1.22.29,2.02,1.14,1.78,1.9Z"/>
                <path class="cls-26" d="m123.06,157.69c.52-2.29,1.58-12.7,4.97-18.75l-4.16-1.19c-2.17,7.52-1.63,17.7-1.16,19.95.12,0,.23,0,.35,0Z"/>
              </g>
            </g>
            <g>
              <g>
                <g>
                  <path class="cls-27" d="m79.99,216.25c-.05-.08-.1-.14-.14-.22-.01,0-.02-.02-.02-.03-.76-1.11-1.71-2.06-2.55-3.07-1.1-1.32-1.98-2.73-1.98-4.68,0-2.79,1.3-5.87.18-8.6-.11-.25-.21-.4-.31-.47-.45-.35-.88.84-1.3,1.32-.9,1.03-2.07,1.83-3.35,2.34-1.32.53-2.75.66-4.17.72-1.45.06-2.84.25-4.3.43-1.52.17-3.16,0-4.63.45.69-1.61,1.43-3.15,1.93-4.83,0-.02.02-.05.03-.06.02-.12.06-.23.09-.35.78-2.89.92-6.3,3.76-7.96,1.85-1.09,3.84-1.27,5.86-1.12.32.02.65.05.97.09l-.29-.19c-.38-.23-.77-.44-1.16-.65-.56-.31-1.15-.6-1.72-.87-1.51-.73-3.07-1.36-4.66-1.89-.01,0-.03-.01-.05-.02-.88-.3-1.77-.56-2.66-.78-1-.26-2.77-.26-3.33-.93h0c-.23-.28-.25-.68.06-1.25,1.56-2.84,6.22-4.61,9.18-5.2,4.34-.88,8.06,1.86,9.65,5.83.12.3.22.61.29.91.1.35.17.7.22,1.05.65-1.7,1.55-3.34,2.33-4.73,1.76-3.12,3.97-4.84,7.49-5.53,1.73-.34,4.13-.19,5.7-1.11-.04.09-.09.19-.13.29-1.77,3.81-3.34,8.11-6.11,11.31-.76.88-1.62,1.68-2.58,2.37,1.75-.26,3.52-.36,5.2-.12,3.98.55,6.67,2.94,8.87,6.18,1.1,1.61,3.05,4.05,3.3,6.1-.1.04-.2.06-.3.08-1.09.2-2.59-.4-3.75-.38-2.73,0-5.3.42-7.98-.34-1.14-.32-2.26-.76-3.32-1.31-.93-.48-1.84-1.36-2.8-1.72,0,.14.03.29.07.44.3.93,1.42,2.02,1.83,2.74,1.14,2.01,2.05,4.17,1.6,6.53-.47,2.44-2.26,4.08-3.58,6.07-.67,1.01-.97,2.11-1.45,3.2Z"/>
                  <path class="cls-37" d="m76.73,194.68c-.13-.12-.25-.24-.36-.36-.09-.1-.17-.19-.24-.28-.01,0-.03-.01-.03-.03-.05-.05-.09-.1-.11-.15-.24-.29-.44-.58-.6-.89-.03-.07-.08-.15-.1-.22-.01,0-.02-.02-.02-.02h0c-.2-.47-.34-.95-.42-1.46-.11-.69-.12-1.44-.11-2.29,0-.63.05-1.25.14-1.84.09-.69.25-1.36.48-2.02.1.35.17.7.22,1.05.65-1.7,1.55-3.34,2.33-4.73,1.76-3.12,3.97-4.84,7.49-5.53,1.73-.34,4.13-.19,5.7-1.11-.04.09-.09.19-.13.29-.53.22-1.08.39-1.61.55-1.86.55-3.77,1.24-5.5,2.13-2.14,1.11-3.7,2.92-4.77,5.04-.43.84-.82,1.71-1.21,2.57-.18.39-.54.9-.39,1.32.47-.13.82-.51,1.2-.79.63-.47,1.34-.84,1.87-1.46-.17.84-.61,1.71-.94,2.49-.36.82-1.11,1.75-1.16,2.63,2-1.49,3.72-3.41,5.48-5.19.11.62-.08,1.34-.36,1.92-.56,1.14-1.33,2.37-2.04,3.44-.28.42-.61.82-.94,1.22-.62.7-1.29,1.38-1.96,2.04-.29.28-.57.55-.84.82l-.09.07-.31.25-.06.04-.6.48Z"/>
                  <path class="cls-37" d="m76.21,194.51c-.1.03-.22.05-.33.06h-.01s-.04,0-.06,0c-.07,0-.13.02-.19,0-.32-.02-.66-.11-1-.27-1.28-.56-2.63-1.86-3.43-2.46-.73-.56-1.41-1.15-2.1-1.72-.33-.27-.64-.54-.98-.79-.39-.3-.79-.58-1.23-.84-.11-.08-.25-.15-.37-.23-1.35-.76-2.79-1.28-4.29-1.66-.01,0-.03-.01-.05-.02-.88-.3-1.77-.56-2.66-.78-1-.26-2.77-.26-3.33-.93.22-.03.42-.06.61-.08,2.37-.32,4.65-.33,6.96.26,2.14.54,4.26,1.56,6.18,2.61.51.28,1.36,1.07,1.99.98.28-.81-.82-1.95-1.11-2.68.51.24,1.04.89,1.43,1.33.28.31.62,1.01,1.06,1.12.2-.71-.47-1.76-.76-2.4-.56-1.22-1.74-2.3-2.1-3.59.88.04,1.98,1.41,2.55,2.02.78.81,1.39,1.73,1.87,2.73h0c.12.27.23.53.34.79.34.85,1.18,2.73.41,3.62,0,.01,0,.02-.01.03l.14.66v.03s.13.65.13.65l.15.7.07.36v.04s.08.35.08.35l.02.11Z"/>
                  <path class="cls-37" d="m71.96,193.64c-1.48.01-3.02,1.36-4.48,1.68.51-1.22,2.83-2.7,4-2.96-4.01-.06-8.21,1.31-10.67,4.68-.55.74-1.02,1.61-1.43,2.51.02-.12.06-.23.09-.35.78-2.89.92-6.3,3.76-7.96,1.85-1.09,3.84-1.27,5.86-1.12-.33-.27-.64-.54-.98-.79.17,0,.33,0,.5.04.95.07,1.9.31,2.77.72l3.46,1.21.79.28,1.26.46.19.06c-.08.28-.18.55-.31.8h0s0,.02-.01.04c-.03.08-.07.16-.11.24-.16.31-.34.58-.54.85,0,.01-.02.02-.02.02-.07.1-.14.18-.22.26-.08.1-.17.2-.25.29-.31.33-.66.62-1.05.9-1.99,1.42-4.7,2.13-6.86,2.49.3-.64,1.59-1.09,2.14-1.59.78-.69,1.58-1.83,2.1-2.74Z"/>
                  <path class="cls-37" d="m79.83,216.01c-.76-1.11-1.71-2.06-2.55-3.07-1.1-1.32-1.98-2.73-1.98-4.68,0-2.79,1.3-5.87.18-8.6-.11-.25-.21-.4-.31-.47-.22-1.18-.55-2.49-.6-3.71-.03-.4,0-.8.04-1.17.08-.46.22-.9.47-1.29.02-.04.04-.08.07-.11l.02-.02c.03-.05.06-.1.1-.13h0c.14-.18.3-.35.49-.49.03-.02.06-.05.1-.08-.04-.06-.05-.09-.05-.11.04.01.06.04.1.07.1.1.24.28.38.46,0,.02.03.05.04.07.06.08.11.16.16.25.06.07.11.16.16.24.22.33.44.67.65,1.01,0,.01.02.03.02.04.25.39.49.79.72,1.2,1.04,1.81,1.86,3.66,2.43,5.67.45,1.54.81,3.17,1.01,4.77.04.38.22,1.11-.08,1.35-.98-1.59-.96-4.02-2.35-5.35-.11,1.35.74,2.9.99,4.24.21,1.17.46,2.7.07,3.85-.44-1.25-.57-2.64-.94-3.92-.35-1.23-.69-3.56-1.75-4.41-.21,1.4.08,3.06.08,4.5,0,1.94.17,3.8.72,5.66.4,1.36.9,2.89,1.59,4.24Z"/>
                  <path class="cls-37" d="m76.78,192.88s.03.03.03.04c-.01,0-.03-.01-.04,0-.09,0-.18,0-.27,0-.2,0-.41,0-.6.02-.27.01-.54.03-.8.07-.01,0-.02,0-.03,0l.1-.11.61-.61.09-.11.05-.04.06-.06c.29.25.56.51.81.8Z"/>
                  <path class="cls-37" d="m99.36,201.03c-1.09.2-2.59-.4-3.75-.38-2.73,0-5.3.42-7.98-.34-1.14-.32-2.26-.76-3.32-1.31-.93-.48-1.84-1.36-2.8-1.72,0,.14.03.29.07.44-.6-.49-1.19-1.01-1.77-1.53-1.11-.98-2-2.19-3.01-3.26,2.33-.02,4.72.44,6.67,1.71,2.03,1.31,3.64,3.22,6,3.99,2.26.74,4.73.98,7.04,1.54.96.23,1.9.53,2.83.87Z"/>
                  <path class="cls-37" d="m76.33,192.44c1.13-1.06,3.2-1.36,4.66-1.5,2.02-.2,4.74-.33,6.66.49-1.7.36-3.85-.13-5.42.7,1.85.24,3.49.61,5.18,1.48.91.47,3.15,1.41,3.63,2.43-2.16-1-4.84-1.32-7.16-1.67-1.92-.29-3.82-.42-5.76-.25-.72.07-1.75.04-2.33.52l.54-2.19Z"/>
                </g>
                <path class="cls-17" d="m76.77,191.87c1.92-1.75,3.56-3.79,5.66-5.36.6-.45,1.21-.87,1.84-1.26.35.26.88.18,1.09-.31.02-.04.02-.08.03-.11.05.02.1.03.12.04.3.1.68-.14.8-.41.42.31,1,.15,1.14-.4.02-.06.05-.15.04-.13.02-.05.05-.11.08-.16.02-.03.12-.17.01-.02.02-.02.03-.04.05-.07.32.49,1.26.26,1.23-.39.27.19.62.17.85-.08.08-.08.12-.19.18-.29.23.06.53-.12.53-.4,0-.6-.56-.89-1.09-.88-.42-.11-.9-.03-1.26.22-.07.05-.11.11-.17.17-.27-.04-.56.04-.79.2-.26.17-.48.41-.66.68-.12-.02-.24-.03-.36-.01-.32.04-.59.21-.8.45-.28,0-.56.08-.78.23-.39.26-.66.82-.5,1.28.01.03.03.05.04.08-.61.35-1.2.71-1.79,1.08-2.28,1.44-4.17,3.43-6.03,5.36-.34.35.21.8.55.48Z"/>
              </g>
              <g>
                <g>
                  <path class="cls-34" d="m40.48,170.89c0,.09.01.17.01.26,0,.01,0,.02,0,.03.1,1.34.44,2.64.65,3.94.28,1.69.34,3.36-.65,5.04-1.41,2.41-4.08,4.41-4.48,7.34-.03.27-.02.45.03.57.21.53,1.19-.29,1.78-.48,1.29-.44,2.71-.53,4.07-.34,1.41.21,2.71.82,3.96,1.48,1.28.68,2.58,1.21,3.93,1.79,1.4.62,2.73,1.58,4.23,1.95-1.41,1.04-2.82,2-4.1,3.2-.02.02-.04.03-.06.04-.08.09-.17.17-.25.26-2.13,2.1-3.96,4.98-7.26,4.98-2.15.01-3.96-.84-5.63-1.98-.27-.18-.53-.37-.8-.57.05.1.11.2.16.31.22.39.44.77.67,1.15.33.55.69,1.1,1.05,1.62.94,1.39,1.97,2.72,3.07,3.98,0,.01.02.03.03.04.61.7,1.24,1.37,1.9,2.01.73.73,2.26,1.62,2.41,2.49h0c.06.36-.12.72-.67,1.05-2.78,1.66-7.69.84-10.55-.14-4.19-1.42-6.03-5.67-5.4-9.9.05-.32.12-.64.21-.93.09-.36.2-.69.34-1.02-1.42,1.14-3.03,2.11-4.4,2.91-3.1,1.81-5.87,2.18-9.26,1-1.66-.58-3.67-1.92-5.49-1.91.08-.06.17-.11.26-.18,3.45-2.4,6.98-5.32,10.98-6.69,1.1-.37,2.25-.64,3.42-.74-1.65-.66-3.22-1.46-4.55-2.52-3.16-2.48-4.28-5.9-4.55-9.81-.14-1.94-.59-5.04.23-6.93.11.02.2.05.3.09,1.04.38,2.04,1.65,3.04,2.22,2.36,1.37,4.79,2.31,6.72,4.32.83.85,1.56,1.8,2.21,2.8.56.89.91,2.1,1.55,2.9.07-.12.12-.26.16-.42.2-.95-.2-2.46-.2-3.29.03-2.32.33-4.64,1.91-6.45,1.64-1.87,4.01-2.38,6.15-3.44,1.08-.53,1.91-1.33,2.86-2.03Z"/>
                  <path class="cls-35" d="m32.43,191.17c.05.17.1.34.13.49.02.13.05.25.07.36,0,.01.02.03.01.04.02.07.02.13.02.18.06.37.09.73.07,1.07,0,.08,0,.17-.03.24,0,.01,0,.02,0,.02h0c-.06.51-.18.99-.36,1.47-.25.65-.63,1.31-1.07,2.04-.33.54-.67,1.05-1.05,1.51-.43.55-.9,1.05-1.43,1.5.09-.36.2-.69.34-1.02-1.42,1.14-3.03,2.11-4.4,2.91-3.1,1.81-5.87,2.18-9.26,1-1.66-.58-3.67-1.92-5.49-1.91.08-.06.17-.11.26-.18.57.08,1.13.2,1.67.34,1.88.46,3.88.83,5.82.94,2.4.12,4.66-.66,6.66-1.95.8-.51,1.57-1.06,2.34-1.61.35-.25.92-.51,1.01-.94-.47-.13-.97.03-1.44.08-.78.08-1.59.05-2.35.32.57-.64,1.39-1.17,2.07-1.67.72-.52,1.84-.95,2.33-1.69-2.48.28-4.93,1.07-7.35,1.72.21-.59.75-1.12,1.28-1.48,1.06-.71,2.34-1.38,3.5-1.94.46-.22.94-.4,1.43-.58.89-.29,1.81-.54,2.72-.78.39-.09.77-.19,1.14-.29l.12-.02.39-.06h.07s.76-.12.76-.12Z"/>
                  <path class="cls-35" d="m32.79,191.58c.11.03.22.07.32.11h.01s.04.02.05.04c.06.03.12.05.17.1.27.18.52.43.73.74.82,1.13,1.34,2.93,1.72,3.86.35.85.64,1.7.94,2.55.15.39.28.79.45,1.17.19.46.39.9.64,1.34.06.13.14.26.21.39.78,1.33,1.76,2.52,2.87,3.6,0,.01.02.03.03.04.61.7,1.24,1.37,1.9,2.01.73.73,2.26,1.62,2.41,2.49-.2-.08-.39-.17-.57-.24-2.21-.92-4.18-2.06-5.88-3.73-1.58-1.54-2.89-3.49-4.02-5.37-.3-.5-.64-1.61-1.23-1.85-.65.55-.28,2.1-.39,2.87-.32-.46-.45-1.3-.56-1.87-.09-.41-.03-1.19-.35-1.51-.53.52-.48,1.76-.55,2.45-.13,1.34.35,2.87,0,4.16-.74-.47-1-2.21-1.19-3.03-.26-1.09-.33-2.19-.24-3.3h0c.03-.29.06-.58.1-.86.14-.9.35-2.95,1.47-3.33.01,0,.02-.02.03-.02l.21-.64v-.03s.23-.63.23-.63l.23-.68.12-.35v-.04s.13-.34.13-.34l.04-.1Z"/>
                  <path class="cls-35" d="m36.02,194.47c1.28.73,3.3.35,4.71.8-1.06.8-3.81.91-4.95.54,3.44,2.07,7.75,3,11.57,1.33.85-.36,1.69-.87,2.5-1.44-.08.09-.17.17-.25.26-2.13,2.1-3.96,4.98-7.26,4.98-2.15.01-3.96-.84-5.63-1.98.15.39.28.79.45,1.17-.15-.08-.28-.17-.41-.28-.78-.54-1.48-1.23-2.03-2.02l-2.38-2.79-.54-.64-.86-1.03-.13-.14c.21-.2.43-.38.67-.54h0s.01-.02.03-.03c.07-.05.14-.1.22-.15.29-.18.59-.33.9-.46.01,0,.02,0,.02,0,.11-.05.21-.08.32-.11.12-.05.24-.08.37-.12.43-.13.89-.2,1.36-.25,2.43-.22,5.13.53,7.18,1.31-.58.4-1.92.14-2.65.29-1.02.2-2.28.78-3.19,1.3Z"/>
                  <path class="cls-35" d="m40.5,171.19c.1,1.34.44,2.64.65,3.94.28,1.69.34,3.36-.65,5.04-1.41,2.41-4.08,4.41-4.48,7.34-.03.27-.02.45.03.57-.4,1.13-.78,2.43-1.35,3.5-.18.36-.4.69-.63.99-.3.36-.65.67-1.06.88-.04.02-.08.05-.12.06h-.02c-.05.04-.1.06-.15.07h0c-.21.08-.43.15-.67.18-.03,0-.08.01-.13.01,0,.07,0,.1,0,.12-.03-.03-.03-.06-.05-.11-.03-.13-.07-.36-.1-.59,0-.02,0-.06,0-.08,0-.1-.02-.19-.02-.29-.01-.09-.02-.19-.02-.28-.02-.4-.05-.8-.06-1.2,0-.01,0-.03,0-.04-.02-.46-.02-.93-.02-1.4.02-2.08.24-4.09.75-6.12.39-1.56.9-3.15,1.53-4.63.15-.35.37-1.07.75-1.13.05,1.87-1.2,3.96-.66,5.81.78-1.11.82-2.88,1.28-4.16.41-1.11.96-2.56,1.88-3.36-.25,1.3-.84,2.57-1.16,3.86-.32,1.24-1.2,3.42-.71,4.69.89-1.11,1.47-2.68,2.2-3.93.98-1.68,1.77-3.37,2.23-5.25.34-1.38.68-2.95.77-4.47Z"/>
                  <path class="cls-35" d="m31.48,192.69s-.01-.04-.01-.05c0,.01.02.03.04.02.08.05.16.09.23.14.18.1.35.2.53.29.24.13.49.24.73.35,0,.01.02.02.03.02l-.14.04-.84.22-.13.04h-.06s-.08.03-.08.03c-.12-.37-.22-.73-.3-1.1Z"/>
                  <path class="cls-35" d="m16.09,174.28c1.04.38,2.04,1.65,3.04,2.22,2.36,1.37,4.79,2.31,6.72,4.32.83.85,1.56,1.8,2.21,2.8.56.89.91,2.1,1.55,2.9.07-.12.12-.26.16-.42.27.73.52,1.47.76,2.21.46,1.41.62,2.9.95,4.34-2.02-1.16-3.86-2.76-4.9-4.84-1.09-2.16-1.52-4.61-3.17-6.47-1.58-1.78-3.6-3.23-5.31-4.88-.71-.68-1.38-1.42-2-2.17Z"/>
                  <path class="cls-35" d="m31.64,193.3c-1.51.34-3.44-.44-4.78-1.05-1.85-.84-4.26-2.11-5.51-3.78,1.65.55,3.26,2.05,5.03,2.13-1.48-1.14-2.71-2.29-3.73-3.89-.55-.86-2.01-2.81-1.91-3.93,1.36,1.96,3.51,3.58,5.34,5.05,1.51,1.22,3.09,2.29,4.85,3.12.65.31,1.53.85,2.28.73l-1.57,1.62Z"/>
                </g>
                <path class="cls-33" d="m30.98,193.57c-2.55.55-4.99,1.48-7.59,1.78-.74.09-1.49.14-2.22.16-.17-.4-.67-.59-1.09-.28-.03.02-.06.05-.08.08-.03-.04-.07-.08-.08-.09-.21-.23-.65-.22-.89-.05-.2-.48-.79-.64-1.19-.23-.04.04-.12.1-.1.09-.05.03-.1.07-.15.1-.03.02-.19.09-.02.02-.02.01-.05.02-.07.03-.03-.59-.96-.86-1.25-.28-.14-.31-.45-.46-.78-.37-.11.03-.2.1-.3.16-.16-.17-.52-.17-.66.08-.31.52.03,1.05.5,1.31.31.31.76.48,1.2.44.08,0,.15-.04.23-.06.22.17.5.25.79.23.31-.02.62-.11.91-.25.09.08.19.14.31.19.3.13.62.11.92.02.24.14.52.21.79.19.47-.03.98-.37,1.08-.85,0-.03,0-.06,0-.09.7,0,1.4,0,2.09-.03,2.69-.09,5.33-.86,7.91-1.59.47-.13.22-.8-.24-.7Z"/>
              </g>
            </g>
            <g>
              <g>
                <path class="cls-19" d="m193.6,196.67c-.06-.07-.12-.12-.18-.19-.01,0-.02-.01-.02-.02-.96-.94-2.07-1.7-3.08-2.53-1.33-1.08-2.46-2.3-2.83-4.22-.52-2.74.16-6.01-1.46-8.47-.15-.23-.28-.36-.39-.41-.51-.26-.71,1-1.02,1.54-.68,1.18-1.69,2.19-2.84,2.94-1.2.78-2.58,1.17-3.96,1.5-1.41.34-2.74.79-4.14,1.24-1.46.46-3.1.61-4.46,1.32.37-1.72.8-3.36.98-5.11,0-.02,0-.05.01-.07,0-.12.01-.24.02-.36.22-2.99-.3-6.36,2.18-8.53,1.61-1.42,3.53-1.97,5.54-2.22.32-.04.64-.08.97-.1-.11-.04-.21-.08-.32-.13-.42-.15-.84-.29-1.26-.42-.61-.2-1.24-.37-1.86-.53-1.62-.43-3.28-.75-4.94-.97-.01,0-.03,0-.05,0-.92-.12-1.84-.21-2.76-.26-1.03-.07-2.77.27-3.45-.28h0c-.27-.23-.38-.62-.18-1.23,1-3.08,5.23-5.7,8.03-6.85,4.09-1.69,8.27.29,10.58,3.89.18.27.34.56.46.84.17.33.3.65.41.99.32-1.8.89-3.58,1.39-5.09,1.14-3.4,2.98-5.51,6.31-6.85,1.64-.66,4.02-.97,5.39-2.18-.02.1-.06.2-.07.31-1.01,4.08-1.74,8.6-3.85,12.27-.58,1.01-1.27,1.96-2.09,2.82,1.67-.59,3.39-1.02,5.09-1.11,4.01-.21,7.11,1.62,9.88,4.38,1.39,1.37,3.76,3.4,4.4,5.37-.09.06-.18.09-.28.13-1.04.4-2.62.1-3.75.33-2.68.53-5.12,1.42-7.9,1.18-1.18-.1-2.36-.32-3.51-.66-1.01-.3-2.07-.98-3.07-1.16.02.14.08.28.16.42.48.85,1.77,1.72,2.31,2.34,1.5,1.76,2.81,3.71,2.81,6.11,0,2.49-1.45,4.44-2.36,6.64-.46,1.12-.56,2.26-.81,3.42Z"/>
                <path class="cls-25" d="m186.29,176.11c-.15-.1-.29-.19-.43-.28-.1-.08-.2-.15-.29-.23-.01,0-.03,0-.03-.02-.06-.04-.1-.08-.14-.12-.29-.24-.54-.49-.76-.76-.04-.06-.1-.13-.14-.2-.01,0-.02-.01-.02-.01h0c-.29-.42-.51-.87-.69-1.35-.24-.66-.39-1.4-.54-2.23-.11-.62-.18-1.23-.21-1.83-.04-.7-.02-1.38.09-2.07.17.33.3.65.41.99.32-1.8.89-3.58,1.39-5.09,1.14-3.4,2.98-5.51,6.31-6.85,1.64-.66,4.02-.97,5.39-2.18-.02.1-.06.2-.07.31-.48.32-.99.59-1.48.85-1.72.9-3.47,1.93-4.99,3.13-1.89,1.5-3.07,3.57-3.73,5.85-.27.9-.48,1.83-.7,2.75-.1.42-.36.99-.13,1.37.44-.21.71-.66,1.03-1.01.53-.58,1.16-1.08,1.55-1.79,0,.86-.27,1.8-.45,2.62-.2.87-.76,1.93-.64,2.8,1.68-1.84,3.01-4.06,4.4-6.14.23.59.18,1.34,0,1.96-.33,1.23-.85,2.58-1.35,3.77-.2.47-.44.92-.69,1.38-.48.81-1,1.6-1.53,2.37-.23.33-.46.65-.67.97l-.08.09-.26.3-.05.05-.5.59Z"/>
                <path class="cls-25" d="m185.76,176.04c-.1.05-.21.09-.31.12h0s-.04.02-.06.01c-.06.02-.13.04-.19.04-.32.04-.67.02-1.04-.08-1.37-.31-2.94-1.33-3.83-1.77-.82-.41-1.6-.86-2.39-1.3-.37-.2-.73-.4-1.11-.59-.44-.22-.89-.42-1.36-.59-.13-.06-.27-.1-.41-.16-1.47-.49-2.98-.73-4.53-.81-.01,0-.03,0-.05,0-.92-.12-1.84-.21-2.76-.26-1.03-.07-2.77.27-3.45-.28.21-.07.41-.14.58-.19,2.26-.76,4.5-1.21,6.88-1.07,2.21.12,4.48.72,6.56,1.39.55.18,1.54.79,2.14.58.13-.84-1.17-1.76-1.6-2.42.54.13,1.19.68,1.66,1.04.34.25.81.88,1.26.9.06-.74-.79-1.64-1.2-2.21-.78-1.1-2.15-1.93-2.74-3.12.87-.13,2.21,1.01,2.89,1.5.92.65,1.69,1.43,2.35,2.32h0c.17.24.33.48.48.71.49.77,1.68,2.45,1.09,3.47,0,.01,0,.02,0,.03l.26.62v.03s.26.62.26.62l.28.66.14.34.02.04.13.33.04.1Z"/>
                <path class="cls-25" d="m181.42,175.99c-1.45.29-2.71,1.91-4.08,2.5.27-1.3,2.27-3.19,3.36-3.67-3.95.71-7.81,2.85-9.58,6.63-.4.83-.7,1.77-.93,2.73,0-.12.01-.24.02-.36.22-2.99-.3-6.36,2.18-8.53,1.61-1.42,3.53-1.97,5.54-2.22-.37-.2-.73-.4-1.11-.59.16-.04.32-.06.49-.06.94-.11,1.92-.05,2.86.18l3.63.53.83.12,1.33.21.19.02c-.02.29-.07.57-.15.85h0s0,.02,0,.04c-.02.08-.04.17-.06.25-.1.33-.22.64-.37.93,0,.01-.01.02-.01.02-.05.11-.1.2-.17.29-.06.12-.13.22-.19.33-.24.38-.53.74-.85,1.09-1.69,1.77-4.21,2.98-6.26,3.75.17-.69,1.36-1.37,1.8-1.96.63-.83,1.2-2.09,1.54-3.09Z"/>
                <path class="cls-25" d="m193.39,196.46c-.96-.94-2.07-1.7-3.08-2.53-1.33-1.08-2.46-2.3-2.83-4.22-.52-2.74.16-6.01-1.46-8.47-.15-.23-.28-.36-.39-.41-.44-1.11-1.01-2.34-1.29-3.53-.1-.39-.16-.78-.18-1.16-.01-.47.05-.93.22-1.35.01-.04.03-.09.05-.12v-.02c.03-.06.06-.11.09-.15h0c.11-.2.23-.4.39-.58.02-.02.05-.06.09-.09-.05-.05-.06-.08-.07-.1.04,0,.06.03.11.05.11.08.29.23.46.38,0,.02.03.04.05.06.07.07.14.13.21.21.07.06.14.13.2.2.28.28.56.58.83.86,0,0,.02.02.03.03.32.34.63.69.94,1.04,1.36,1.58,2.52,3.24,3.47,5.1.73,1.43,1.4,2.96,1.9,4.49.12.37.43,1.05.18,1.35-1.27-1.37-1.71-3.77-3.33-4.81.15,1.35,1.28,2.7,1.78,3.97.42,1.11.97,2.56.8,3.77-.67-1.14-1.06-2.49-1.67-3.67-.58-1.14-1.35-3.36-2.56-4,.06,1.42.66,2.99.94,4.4.37,1.91.89,3.7,1.78,5.42.65,1.26,1.43,2.66,2.37,3.86Z"/>
                <path class="cls-25" d="m186,174.34s.03.02.04.03c-.01,0-.03,0-.04.01-.09.01-.18.03-.27.05-.2.04-.4.08-.59.13-.26.06-.53.14-.78.22-.01,0-.02,0-.03,0l.08-.13.49-.71.07-.12.04-.04.05-.07c.33.19.64.4.95.63Z"/>
                <path class="cls-25" d="m209.72,178.05c-1.04.4-2.62.1-3.75.33-2.68.53-5.12,1.42-7.9,1.18-1.18-.1-2.36-.32-3.51-.66-1.01-.3-2.07-.98-3.07-1.16.02.14.08.28.16.42-.68-.37-1.36-.76-2.02-1.16-1.28-.76-2.38-1.78-3.57-2.63,2.29-.46,4.72-.47,6.88.41,2.24.9,4.18,2.47,6.65,2.78,2.36.3,4.83.06,7.21.18.98.04,1.97.16,2.94.31Z"/>
                <path class="cls-25" d="m185.48,173.98c.91-1.25,2.88-1.94,4.29-2.36,1.94-.58,4.59-1.23,6.64-.78-1.6.68-3.8.6-5.19,1.71,1.87-.11,3.55-.07,5.37.47.98.29,3.36.79,4.03,1.69-2.31-.58-5-.38-7.34-.28-1.94.08-3.83.31-5.71.85-.69.2-1.71.37-2.19.96l.11-2.25Z"/>
              </g>
              <path class="cls-38" d="m185.8,173.34c1.55-2.09,2.78-4.39,4.54-6.34.5-.56,1.03-1.08,1.57-1.59.39.19.89,0,1.01-.51,0-.04,0-.08.01-.12.05,0,.11.01.12.02.31.04.64-.27.71-.55.47.22,1.01-.04,1.05-.61,0-.06.02-.15.02-.13.01-.06.03-.11.04-.17.01-.03.08-.19,0-.03.01-.02.02-.05.03-.07.41.42,1.29.01,1.13-.61.3.14.64.05.82-.24.06-.1.09-.21.12-.31.23.02.5-.22.45-.5-.11-.59-.71-.77-1.23-.66-.44-.03-.89.14-1.19.45-.06.06-.09.13-.14.2-.28.02-.54.15-.74.35-.22.21-.39.49-.52.79-.12,0-.24.02-.36.06-.31.1-.54.32-.7.59-.27.06-.53.18-.73.38-.33.33-.49.93-.25,1.36.02.03.04.05.06.07-.53.46-1.05.92-1.55,1.4-1.96,1.84-3.45,4.16-4.9,6.41-.26.41.36.74.64.37Z"/>
            </g>
          </g>
        </g>
      </g>
    </g>
  </g>
</svg>