<svg width="388" height="80" viewBox="0 0 388 80" fill="none" xmlns="http://www.w3.org/2000/svg">
<path d="M123.938 19.66C120.488 19.66 117.833 20.875 115.973 23.305C114.143 25.705 113.228 28.825 113.228 32.665C113.228 36.475 114.308 39.7 116.468 42.34C118.628 44.98 121.433 46.3 124.883 46.3C129.473 46.3 132.698 44.005 134.558 39.415L137.618 40.09C137.618 40.36 137.228 41.59 136.448 43.78C135.668 45.94 135.188 47.005 135.008 46.975C131.888 48.685 128.213 49.54 123.983 49.54C118.763 49.54 114.488 48.085 111.158 45.175C107.858 42.265 106.208 38.425 106.208 33.655C106.208 28.255 107.918 24.055 111.338 21.055C114.788 18.025 119.198 16.51 124.568 16.51C126.938 16.51 129.503 16.84 132.263 17.5C133.673 17.77 134.948 17.995 136.088 18.175C136.418 18.865 136.583 20.05 136.583 21.73C136.583 23.41 136.493 25.12 136.313 26.86L133.073 26.5C132.863 24.73 132.443 23.38 131.813 22.45C130.523 20.59 127.898 19.66 123.938 19.66ZM158.614 38.38H146.374C146.374 40.12 146.704 41.755 147.364 43.285C147.754 44.185 148.384 44.92 149.254 45.49C150.154 46.06 151.174 46.345 152.314 46.345C153.454 46.345 154.504 46.12 155.464 45.67C156.454 45.19 157.114 44.785 157.444 44.455C157.804 44.095 158.059 44.005 158.209 44.185L158.929 45.175C157.909 46.435 156.634 47.485 155.104 48.325C153.604 49.135 152.134 49.54 150.694 49.54C147.454 49.54 144.949 48.625 143.179 46.795C141.409 44.935 140.524 42.445 140.524 39.325C140.524 36.175 141.514 33.64 143.494 31.72C145.474 29.8 147.739 28.84 150.289 28.84C152.839 28.84 154.924 29.575 156.544 31.045C158.194 32.515 159.019 34.735 159.019 37.705C159.019 38.155 158.884 38.38 158.614 38.38ZM153.844 35.68C153.844 32.95 152.719 31.585 150.469 31.585C149.359 31.585 148.459 32.005 147.769 32.845C147.079 33.685 146.674 34.63 146.554 35.68H153.844ZM169.711 29.65C169.741 29.86 169.756 30.04 169.756 30.19C169.756 30.34 169.771 30.565 169.801 30.865C169.831 31.165 169.846 31.39 169.846 31.54C172.126 30.34 173.791 29.59 174.841 29.29C175.891 28.99 176.791 28.84 177.541 28.84C179.281 28.84 180.691 29.47 181.771 30.73C182.851 31.99 183.391 33.82 183.391 36.22V45.58C183.391 45.85 183.406 46.075 183.436 46.255C183.496 46.405 183.676 46.57 183.976 46.75C184.276 46.9 184.711 46.975 185.281 46.975L185.776 49.135C182.626 49.045 180.646 49 179.836 49C179.026 49 177.616 49.045 175.606 49.135L175.156 46.975C176.176 46.945 176.866 46.825 177.226 46.615C177.586 46.375 177.781 46.03 177.811 45.58V37.57C177.811 35.98 177.541 34.81 177.001 34.06C176.491 33.28 175.606 32.89 174.346 32.89C173.116 32.89 171.691 33.235 170.071 33.925V45.58C170.071 45.85 170.086 46.075 170.116 46.255C170.176 46.405 170.356 46.57 170.656 46.75C170.956 46.9 171.391 46.975 171.961 46.975L172.456 49.135C169.306 49.045 167.326 49 166.516 49C165.706 49 164.296 49.045 162.286 49.135L161.836 46.975C162.856 46.945 163.546 46.825 163.906 46.615C164.266 46.375 164.461 46.03 164.491 45.58V34.78C164.491 34.06 164.326 33.565 163.996 33.295C163.666 32.995 163.246 32.845 162.736 32.845C162.256 32.845 161.896 32.86 161.656 32.89L161.026 31.045C162.886 30.595 165.406 29.74 168.586 28.48C168.976 28.48 169.216 28.57 169.306 28.75C169.426 28.9 169.516 29.035 169.576 29.155C169.636 29.275 169.681 29.44 169.711 29.65ZM195.452 42.475C195.452 43.675 195.677 44.62 196.127 45.31C196.607 46 197.222 46.345 197.972 46.345C198.722 46.345 199.607 45.955 200.627 45.175C200.867 44.995 201.047 44.98 201.167 45.13L202.067 46.345C201.287 47.095 200.672 47.65 200.222 48.01C198.932 49 197.402 49.495 195.632 49.495C193.862 49.495 192.437 48.91 191.357 47.74C190.307 46.54 189.782 45.205 189.782 43.735V32.485H187.532L187.307 30.82C188.957 30.28 190.202 29.56 191.042 28.66C191.912 27.73 192.722 26.515 193.472 25.015H194.552C194.852 25.015 195.047 25.075 195.137 25.195C195.227 25.315 195.272 25.525 195.272 25.825L195.452 29.65H201.167C201.227 29.92 201.257 30.295 201.257 30.775C201.257 31.255 201.062 31.825 200.672 32.485H195.497L195.452 42.475ZM217.113 28.84C218.943 28.84 220.188 29.29 220.848 30.19C220.848 30.58 220.653 31.12 220.263 31.81C219.903 32.5 219.528 33.1 219.138 33.61C218.748 34.12 218.508 34.375 218.418 34.375L214.638 32.98H214.458C213.888 33.04 213.408 33.4 213.018 34.06C212.658 34.69 212.478 35.5 212.478 36.49V45.58C212.478 46.06 212.703 46.42 213.153 46.66C213.603 46.87 214.563 46.975 216.033 46.975L216.528 49.135C213.378 49.045 211.038 49 209.508 49C208.008 49 206.253 49.045 204.243 49.135L203.793 46.975C205.023 46.945 205.848 46.825 206.268 46.615C206.688 46.375 206.898 46.03 206.898 45.58V34.78C206.898 34.06 206.733 33.565 206.403 33.295C206.073 32.995 205.653 32.845 205.143 32.845C204.663 32.845 204.303 32.86 204.063 32.89L203.433 31.045C205.293 30.595 207.813 29.74 210.993 28.48C211.473 28.48 211.728 28.66 211.758 29.02C211.818 29.38 211.863 29.905 211.893 30.595C211.953 31.285 211.998 31.75 212.028 31.99C212.448 31.36 213.168 30.685 214.188 29.965C215.208 29.215 216.183 28.84 217.113 28.84ZM232.335 40.765C230.445 41.155 229.155 41.62 228.465 42.16C227.775 42.67 227.43 43.285 227.43 44.005C227.43 44.695 227.67 45.25 228.15 45.67C228.66 46.09 229.32 46.3 230.13 46.3C230.94 46.3 231.705 45.97 232.425 45.31L232.335 40.765ZM240.75 45.895L241.11 47.74C240.6 47.95 239.535 48.31 237.915 48.82C236.325 49.3 235.335 49.54 234.945 49.54C234.555 49.54 234.27 49.495 234.09 49.405C233.91 49.315 233.745 49.15 233.595 48.91C233.445 48.67 233.34 48.49 233.28 48.37C233.22 48.22 233.13 47.965 233.01 47.605C232.89 47.215 232.815 46.975 232.785 46.885C231.165 48.655 229.32 49.54 227.25 49.54C225.9 49.54 224.76 49.12 223.83 48.28C222.9 47.41 222.435 46.345 222.435 45.085C222.435 43.375 223.11 42.115 224.46 41.305C225.84 40.465 228.42 39.64 232.2 38.83V37.21C232.2 35.47 232.005 34.18 231.615 33.34C231.225 32.47 230.535 32.035 229.545 32.035C228.585 32.035 227.835 32.185 227.295 32.485V35.365C227.295 35.545 226.815 35.725 225.855 35.905C224.895 36.085 224.19 36.175 223.74 36.175C223.29 36.175 223.065 35.635 223.065 34.555C223.065 34.045 223.155 33.505 223.335 32.935C223.515 32.365 223.71 31.96 223.92 31.72C224.46 31.12 225.615 30.49 227.385 29.83C229.185 29.17 230.55 28.84 231.48 28.84C233.43 28.84 234.945 29.44 236.025 30.64C237.135 31.84 237.69 33.61 237.69 35.95V45.085C237.69 45.655 237.93 45.94 238.41 45.94L239.625 45.895H240.75ZM251.687 15.835V45.58C251.687 46.06 251.852 46.42 252.182 46.66C252.542 46.87 253.262 46.975 254.342 46.975L254.837 49.135C251.687 49.045 249.497 49 248.267 49C247.037 49 245.417 49.045 243.407 49.135L242.957 46.975C244.187 46.945 245.012 46.825 245.432 46.615C245.882 46.375 246.107 46.03 246.107 45.58V21.145C246.107 20.035 245.927 19.33 245.567 19.03C245.207 18.73 244.787 18.58 244.307 18.58C243.857 18.58 243.482 18.595 243.182 18.625L242.597 16.915C245.777 16.105 248.357 15.31 250.337 14.53C250.907 14.53 251.267 14.65 251.417 14.89C251.597 15.1 251.687 15.415 251.687 15.835ZM276.501 20.965V31.045H291.396V20.965C291.396 20.425 291.186 20.02 290.766 19.75C290.376 19.48 289.581 19.345 288.381 19.345L287.796 16.915C291.396 17.005 293.856 17.05 295.176 17.05C296.496 17.05 298.311 17.005 300.621 16.915L301.161 19.345C299.721 19.375 298.761 19.525 298.281 19.795C297.831 20.065 297.606 20.455 297.606 20.965V45.085C297.606 45.625 297.801 46.03 298.191 46.3C298.611 46.57 299.421 46.705 300.621 46.705L301.206 49.135C297.606 49.045 295.146 49 293.826 49C292.506 49 290.691 49.045 288.381 49.135L287.841 46.705C289.281 46.675 290.226 46.525 290.676 46.255C291.156 45.985 291.396 45.595 291.396 45.085V34.51H276.501V45.085C276.501 45.625 276.696 46.03 277.086 46.3C277.506 46.57 278.316 46.705 279.516 46.705L280.101 49.135C276.501 49.045 274.041 49 272.721 49C271.401 49 269.586 49.045 267.276 49.135L266.736 46.705C268.176 46.675 269.121 46.525 269.571 46.255C270.051 45.985 270.291 45.595 270.291 45.085V20.965C270.291 20.425 270.081 20.02 269.661 19.75C269.271 19.48 268.476 19.345 267.276 19.345L266.691 16.915C270.291 17.005 272.751 17.05 274.071 17.05C275.421 17.05 277.236 17.005 279.516 16.915L280.056 19.345C278.616 19.375 277.656 19.525 277.176 19.795C276.726 20.065 276.501 20.455 276.501 20.965ZM310.202 38.785C310.202 40.825 310.667 42.67 311.597 44.32C312.557 45.94 313.907 46.75 315.647 46.75C317.387 46.75 318.632 46.075 319.382 44.725C320.162 43.345 320.552 41.62 320.552 39.55C320.552 37.48 320.087 35.635 319.157 34.015C318.257 32.365 316.907 31.54 315.107 31.54C313.337 31.54 312.077 32.245 311.327 33.655C310.577 35.035 310.202 36.745 310.202 38.785ZM315.287 49.54C312.077 49.54 309.452 48.67 307.412 46.93C305.372 45.16 304.352 42.73 304.352 39.64C304.352 36.55 305.402 33.985 307.502 31.945C309.602 29.875 312.242 28.84 315.422 28.84C318.632 28.84 321.257 29.77 323.297 31.63C325.367 33.46 326.402 35.935 326.402 39.055C326.402 42.175 325.352 44.71 323.252 46.66C321.152 48.58 318.497 49.54 315.287 49.54ZM345.148 28.84C346.138 28.84 347.098 29.125 348.028 29.695C348.988 30.265 349.573 30.835 349.783 31.405C350.053 31.285 350.488 31.075 351.088 30.775C351.718 30.445 352.213 30.205 352.573 30.055C352.933 29.875 353.383 29.68 353.923 29.47C354.883 29.05 355.888 28.84 356.938 28.84C358.828 28.84 360.313 29.455 361.393 30.685C362.503 31.885 363.058 33.655 363.058 35.995V45.58C363.058 45.85 363.073 46.075 363.103 46.255C363.163 46.405 363.343 46.57 363.643 46.75C363.943 46.9 364.378 46.975 364.948 46.975L365.443 49.135C362.293 49.045 360.313 49 359.503 49C358.693 49 357.283 49.045 355.273 49.135L354.823 46.975C355.843 46.945 356.533 46.825 356.893 46.615C357.253 46.375 357.448 46.03 357.478 45.58V37.48C357.478 35.83 357.193 34.66 356.623 33.97C356.053 33.25 355.168 32.89 353.968 32.89C352.768 32.89 351.568 33.16 350.368 33.7C350.458 34.24 350.503 35.005 350.503 35.995L350.413 45.58C350.413 45.85 350.428 46.075 350.458 46.255C350.518 46.405 350.698 46.57 350.998 46.75C351.298 46.9 351.733 46.975 352.303 46.975L352.798 49.135C349.648 49.045 347.668 49 346.858 49C346.048 49 344.638 49.045 342.628 49.135L342.178 46.975C343.198 46.945 343.888 46.825 344.248 46.615C344.608 46.375 344.803 46.03 344.833 45.58V37.48C344.833 35.29 344.368 33.91 343.438 33.34C342.958 33.04 342.283 32.89 341.413 32.89C340.543 32.89 339.298 33.235 337.678 33.925V45.58C337.678 45.85 337.693 46.075 337.723 46.255C337.783 46.405 337.963 46.57 338.263 46.75C338.563 46.9 338.998 46.975 339.568 46.975L340.063 49.135C336.913 49.045 334.933 49 334.123 49C333.313 49 331.903 49.045 329.893 49.135L329.443 46.975C330.463 46.945 331.153 46.825 331.513 46.615C331.873 46.375 332.068 46.03 332.098 45.58V34.78C332.098 34.06 331.933 33.565 331.603 33.295C331.273 32.995 330.853 32.845 330.343 32.845C329.863 32.845 329.503 32.86 329.263 32.89L328.633 31.045C330.493 30.595 333.013 29.74 336.193 28.48C336.583 28.48 336.823 28.57 336.913 28.75C337.033 28.9 337.123 29.035 337.183 29.155C337.243 29.275 337.288 29.44 337.318 29.65C337.348 29.86 337.363 30.04 337.363 30.19C337.363 30.34 337.378 30.565 337.408 30.865C337.438 31.165 337.453 31.39 337.453 31.54C337.513 31.51 337.753 31.39 338.173 31.18C338.623 30.94 338.998 30.745 339.298 30.595C339.628 30.445 340.063 30.25 340.603 30.01C341.143 29.77 341.623 29.575 342.043 29.425C343.123 29.035 344.158 28.84 345.148 28.84ZM385.855 38.38H373.615C373.615 40.12 373.945 41.755 374.605 43.285C374.995 44.185 375.625 44.92 376.495 45.49C377.395 46.06 378.415 46.345 379.555 46.345C380.695 46.345 381.745 46.12 382.705 45.67C383.695 45.19 384.355 44.785 384.685 44.455C385.045 44.095 385.3 44.005 385.45 44.185L386.17 45.175C385.15 46.435 383.875 47.485 382.345 48.325C380.845 49.135 379.375 49.54 377.935 49.54C374.695 49.54 372.19 48.625 370.42 46.795C368.65 44.935 367.765 42.445 367.765 39.325C367.765 36.175 368.755 33.64 370.735 31.72C372.715 29.8 374.98 28.84 377.53 28.84C380.08 28.84 382.165 29.575 383.785 31.045C385.435 32.515 386.26 34.735 386.26 37.705C386.26 38.155 386.125 38.38 385.855 38.38ZM381.085 35.68C381.085 32.95 379.96 31.585 377.71 31.585C376.6 31.585 375.7 32.005 375.01 32.845C374.32 33.685 373.915 34.63 373.795 35.68H381.085Z" fill="#D7922C"/>
<path d="M200.322 76V65.16L195.642 73.5H194.542L189.842 65.16V76H188.042V61.8H189.942L195.082 71.02L200.242 61.8H202.122V76H200.322ZM213.842 61.8H215.362L221.162 76H219.242L217.562 71.84H211.602L209.942 76H208.022L213.842 61.8ZM217.162 70.44L214.602 63.88L211.962 70.44H217.162ZM235.202 64.78C235.042 64.5933 234.829 64.4133 234.562 64.24C234.295 64.0667 233.995 63.9133 233.662 63.78C233.329 63.6333 232.962 63.52 232.562 63.44C232.175 63.3467 231.769 63.3 231.342 63.3C230.249 63.3 229.442 63.5067 228.922 63.92C228.402 64.3333 228.142 64.9 228.142 65.62C228.142 66.1267 228.275 66.5267 228.542 66.82C228.809 67.1133 229.215 67.3533 229.762 67.54C230.322 67.7267 231.029 67.92 231.882 68.12C232.869 68.3333 233.722 68.5933 234.442 68.9C235.162 69.2067 235.715 69.62 236.102 70.14C236.489 70.6467 236.682 71.3267 236.682 72.18C236.682 72.86 236.549 73.4533 236.282 73.96C236.029 74.4533 235.669 74.8667 235.202 75.2C234.735 75.52 234.189 75.76 233.562 75.92C232.935 76.0667 232.255 76.14 231.522 76.14C230.802 76.14 230.095 76.0667 229.402 75.92C228.722 75.76 228.075 75.5333 227.462 75.24C226.849 74.9467 226.275 74.58 225.742 74.14L226.602 72.62C226.815 72.8467 227.089 73.0733 227.422 73.3C227.769 73.5133 228.155 73.7133 228.582 73.9C229.022 74.0867 229.495 74.24 230.002 74.36C230.509 74.4667 231.029 74.52 231.562 74.52C232.575 74.52 233.362 74.34 233.922 73.98C234.482 73.6067 234.762 73.0667 234.762 72.36C234.762 71.8267 234.602 71.4 234.282 71.08C233.975 70.76 233.515 70.4933 232.902 70.28C232.289 70.0667 231.542 69.8533 230.662 69.64C229.702 69.4 228.895 69.14 228.242 68.86C227.589 68.5667 227.095 68.1867 226.762 67.72C226.442 67.2533 226.282 66.6467 226.282 65.9C226.282 64.9933 226.502 64.2267 226.942 63.6C227.382 62.9733 227.989 62.5 228.762 62.18C229.535 61.86 230.409 61.7 231.382 61.7C232.022 61.7 232.615 61.7667 233.162 61.9C233.722 62.0333 234.242 62.22 234.722 62.46C235.202 62.7 235.642 62.9867 236.042 63.32L235.202 64.78ZM251.39 64.78C251.23 64.5933 251.016 64.4133 250.75 64.24C250.483 64.0667 250.183 63.9133 249.85 63.78C249.516 63.6333 249.15 63.52 248.75 63.44C248.363 63.3467 247.956 63.3 247.53 63.3C246.436 63.3 245.63 63.5067 245.11 63.92C244.59 64.3333 244.33 64.9 244.33 65.62C244.33 66.1267 244.463 66.5267 244.73 66.82C244.996 67.1133 245.403 67.3533 245.95 67.54C246.51 67.7267 247.216 67.92 248.07 68.12C249.056 68.3333 249.91 68.5933 250.63 68.9C251.35 69.2067 251.903 69.62 252.29 70.14C252.676 70.6467 252.87 71.3267 252.87 72.18C252.87 72.86 252.736 73.4533 252.47 73.96C252.216 74.4533 251.856 74.8667 251.39 75.2C250.923 75.52 250.376 75.76 249.75 75.92C249.123 76.0667 248.443 76.14 247.71 76.14C246.99 76.14 246.283 76.0667 245.59 75.92C244.91 75.76 244.263 75.5333 243.65 75.24C243.036 74.9467 242.463 74.58 241.93 74.14L242.79 72.62C243.003 72.8467 243.276 73.0733 243.61 73.3C243.956 73.5133 244.343 73.7133 244.77 73.9C245.21 74.0867 245.683 74.24 246.19 74.36C246.696 74.4667 247.216 74.52 247.75 74.52C248.763 74.52 249.55 74.34 250.11 73.98C250.67 73.6067 250.95 73.0667 250.95 72.36C250.95 71.8267 250.79 71.4 250.47 71.08C250.163 70.76 249.703 70.4933 249.09 70.28C248.476 70.0667 247.73 69.8533 246.85 69.64C245.89 69.4 245.083 69.14 244.43 68.86C243.776 68.5667 243.283 68.1867 242.95 67.72C242.63 67.2533 242.47 66.6467 242.47 65.9C242.47 64.9933 242.69 64.2267 243.13 63.6C243.57 62.9733 244.176 62.5 244.95 62.18C245.723 61.86 246.596 61.7 247.57 61.7C248.21 61.7 248.803 61.7667 249.35 61.9C249.91 62.0333 250.43 62.22 250.91 62.46C251.39 62.7 251.83 62.9867 252.23 63.32L251.39 64.78ZM263.284 61.8H264.804L270.604 76H268.684L267.004 71.84H261.044L259.384 76H257.464L263.284 61.8ZM266.604 70.44L264.044 63.88L261.404 70.44H266.604ZM281.671 76.1C280.738 76.1 279.865 75.9 279.051 75.5C278.251 75.0867 277.551 74.54 276.951 73.86C276.351 73.1667 275.885 72.3933 275.551 71.54C275.218 70.6733 275.051 69.78 275.051 68.86C275.051 67.9 275.218 66.9933 275.551 66.14C275.885 65.2733 276.345 64.5067 276.931 63.84C277.531 63.1733 278.231 62.6533 279.031 62.28C279.845 61.8933 280.725 61.7 281.671 61.7C283.045 61.7 284.178 61.9867 285.071 62.56C285.965 63.1333 286.638 63.88 287.091 64.8L285.711 65.76C285.298 64.9333 284.731 64.32 284.011 63.92C283.291 63.52 282.498 63.32 281.631 63.32C280.911 63.32 280.258 63.4733 279.671 63.78C279.085 64.0867 278.578 64.5067 278.151 65.04C277.738 65.56 277.418 66.1533 277.191 66.82C276.978 67.4867 276.871 68.18 276.871 68.9C276.871 69.66 276.991 70.38 277.231 71.06C277.485 71.7267 277.838 72.32 278.291 72.84C278.745 73.3467 279.271 73.7467 279.871 74.04C280.471 74.3333 281.118 74.48 281.811 74.48C282.625 74.48 283.398 74.2733 284.131 73.86C284.865 73.4467 285.558 72.8133 286.211 71.96V73.82C284.931 75.34 283.418 76.1 281.671 76.1ZM285.991 70.28H282.931V68.92H287.511V76H285.991V70.28ZM303.889 74.4V76H294.249V61.8H303.709V63.4H296.049V68H302.709V69.5H296.049V74.4H303.889Z" fill="#6B6B6B"/>
<path d="M44.6444 44.5654C43.1561 44.5545 41.7317 43.9551 40.6793 42.8967C39.6268 41.8383 39.0308 40.4059 39.02 38.9092C39.0832 37.467 39.6923 36.1037 40.7226 35.0985C41.7529 34.0933 43.1264 33.5223 44.5618 33.5024C46.054 33.5132 47.4827 34.1112 48.5418 35.1685C49.6008 36.2258 50.206 37.6581 50.2275 39.1587C50.1541 40.6046 49.5362 41.9681 48.4992 42.9723C47.4622 43.9766 46.0839 44.5462 44.6444 44.5654Z" fill="#356010"/>
<path d="M44.8098 1.02058C45.5542 1.97715 46.34 2.93371 47.043 3.97346C49.1685 6.6527 50.2272 10.0312 50.0131 13.4518C49.7991 16.8725 48.3278 20.0908 45.8851 22.481C45.8851 22.481 45.8851 22.481 45.6369 22.481C45.9153 18.197 45.5669 13.8951 44.603 9.71288C43.6491 13.9248 43.3146 18.2547 43.6104 22.5642C41.6126 20.6569 40.2236 18.1955 39.6198 15.4926C39.016 12.7896 39.2246 9.96724 40.2193 7.38384C41.163 5.25686 42.4329 3.29206 43.9827 1.56123C43.9827 1.56123 44.4375 1.22851 44.3962 0.937378L44.8098 1.02058Z" fill="#356010"/>
<path d="M22.3534 39.2001C24.9744 38.979 27.6057 39.4824 29.9629 40.6558C34.9427 42.9528 39.5559 45.9802 43.6519 49.6392C44.3963 50.3047 44.7685 50.3047 45.4716 49.6392C49.0113 45.6411 53.3712 42.4626 58.2506 40.3231C60.9232 39.129 63.8863 38.7529 66.77 39.2417C65.4053 40.1983 64.1233 41.0301 62.9239 41.9867C57.593 46.2341 53.3408 51.6934 50.517 57.9157C47.4189 64.6509 45.4754 71.8645 44.7686 79.2513C44.7885 79.4171 44.7885 79.5847 44.7686 79.7504C44.7686 79.7504 44.7686 79.7504 44.7686 80C44.0655 76.6312 43.2384 73.3871 42.2872 70.1431C40.2806 62.9864 37.2729 56.1528 33.3542 49.8472C30.6579 45.4066 26.8691 41.7397 22.3534 39.2001Z" fill="#356010"/>
<path d="M18.9621 36.8713C15.3984 34.4202 11.4781 32.5402 7.34101 31.2983C10.5153 34.2396 14.0951 36.705 17.9696 38.6181C17.5487 38.9164 17.0339 39.0495 16.5221 38.9924C12.9086 39.64 9.18631 38.8496 6.14164 36.7882C3.15195 34.457 1.01419 31.1956 0.0622559 27.5136C0.0622559 27.1809 0.0622861 26.8897 0.35178 26.8066C4.22034 25.673 8.36735 25.9983 12.0143 27.7215C13.7226 28.6719 15.2246 29.9562 16.432 31.499C17.6394 33.0418 18.5278 34.8118 19.0449 36.705C19.0449 36.705 19.0035 36.7466 18.9621 36.8713Z" fill="#356010"/>
<path d="M71.071 38.7011C75.0045 36.7686 78.6399 34.2752 81.865 31.2981C77.6553 32.5379 73.6645 34.4324 70.0371 36.9127C70.6661 34.1529 72.1285 31.6562 74.2239 29.765C76.3192 27.8738 78.9448 26.6806 81.7409 26.3489C83.9531 26.1608 86.1807 26.2868 88.3579 26.7232C88.9783 26.7232 89.185 27.0559 88.9782 27.7213C88.0097 30.8919 86.2433 33.7571 83.8501 36.0393C81.7676 37.8668 79.1264 38.9234 76.3646 39.0338C74.5935 39.1884 72.8093 39.0763 71.071 38.7011Z" fill="#356010"/>
<path d="M30.1696 26.4321C29.0161 24.0544 27.5102 21.8667 25.7032 19.944C26.4388 22.4575 27.5547 24.8422 29.0117 27.0143C26.9349 26.5368 25.1067 25.3047 23.8778 23.5546C22.649 21.8046 22.1061 19.6598 22.3534 17.5318C22.3534 16.8664 22.3534 16.2009 22.6429 15.5355C22.9324 14.87 22.891 14.87 23.3459 15.0364C24.5618 15.2909 25.7123 15.7952 26.7253 16.5178C27.7382 17.2404 28.5917 18.1657 29.2324 19.2356C29.8731 20.3055 30.287 21.497 30.4483 22.7354C30.6096 23.9738 30.5147 25.2323 30.1696 26.4321Z" fill="#356010"/>
<path d="M60.1531 27.1391C61.5368 25.0169 62.6747 22.7423 63.5443 20.3599C63.5755 20.1532 63.5755 19.9429 63.5443 19.7361C61.7311 21.7641 60.2006 24.0308 58.9951 26.4737C58.6121 25.0421 58.5775 23.5389 58.8942 22.0911C59.211 20.6433 59.8697 19.2934 60.8148 18.1557C62.1966 16.75 63.9009 15.7074 65.7776 15.1196C66.2325 15.1196 66.4806 15.1196 66.5634 15.6187C66.9206 16.7982 67.0371 18.0382 66.9059 19.2642C66.7747 20.4901 66.3984 21.6767 65.7997 22.7528C65.2009 23.8288 64.3921 24.772 63.4218 25.5258C62.4514 26.2796 61.3396 26.8283 60.1531 27.1391Z" fill="#356010"/>
</svg>
