<?xml version="1.0" encoding="UTF-8"?>
<svg xmlns="http://www.w3.org/2000/svg" viewBox="0 0 220 220">
  <defs>
    <style>
      .cls-1, .cls-2, .cls-3, .cls-4 {
        fill: #a8846f;
      }

      .cls-5 {
        fill: #ebdfc9;
      }

      .cls-6 {
        fill: #dfeff4;
      }

      .cls-7, .cls-8 {
        fill: #fff;
      }

      .cls-9, .cls-10 {
        fill: #fff2de;
      }

      .cls-11, .cls-12 {
        fill: #c49f75;
      }

      .cls-13 {
        fill: #795633;
      }

      .cls-14 {
        fill: #f9eae1;
      }

      .cls-15 {
        isolation: isolate;
      }

      .cls-16 {
        fill: #c1a993;
      }

      .cls-17 {
        fill: #c0ded8;
      }

      .cls-18 {
        fill: #f9efde;
      }

      .cls-19 {
        fill: #8cad66;
      }

      .cls-2, .cls-20 {
        opacity: .1;
      }

      .cls-21 {
        fill: #ffc65a;
      }

      .cls-8 {
        opacity: .7;
      }

      .cls-22 {
        fill: #dccdb5;
      }

      .cls-23 {
        opacity: .4;
      }

      .cls-24 {
        fill: #a4c9bf;
      }

      .cls-25 {
        fill: #faf4ec;
      }

      .cls-26 {
        fill: #fff0b0;
      }

      .cls-27 {
        fill: #5c5041;
      }

      .cls-28 {
        fill: #332722;
      }

      .cls-29 {
        fill: #cbdffd;
      }

      .cls-3 {
        opacity: .6;
      }

      .cls-12, .cls-4, .cls-10, .cls-30 {
        opacity: .3;
      }

      .cls-12, .cls-30 {
        mix-blend-mode: multiply;
      }

      .cls-31 {
        fill: #fff5ee;
      }

      .cls-32 {
        fill: #efe1ce;
      }

      .cls-33 {
        fill: #718c4b;
      }

      .cls-34 {
        fill: #d1c1b0;
      }

      .cls-35, .cls-30 {
        fill: #d3ac7d;
      }

      .cls-36 {
        fill: #a7c3e5;
      }

      .cls-37 {
        fill: #d9e5d1;
      }

      .cls-38 {
        fill: #ca5959;
      }

      .cls-39 {
        fill: #ffebb2;
      }

      .cls-40 {
        fill: #51361f;
      }

      .cls-41 {
        fill: #f7d892;
      }

      .cls-42 {
        fill: #377f65;
      }
    </style>
  </defs>
  <g class="cls-15">
    <g id="Layer_2" data-name="Layer 2">
      <g id="_2" data-name="2">
        <g>
          <circle class="cls-37" cx="110" cy="110" r="110"/>
          <g>
            <g>
              <path class="cls-18" d="m191.63,176.13c-2.19,3.32-5.54,4.01-9.11,5.11-7.56,2.3-15.24,4.17-23,5.65-19.2,3.65-38.51,4.13-57.85,3.33-10.65-.4-21.32-1.2-31.98-2.03-6.43-.51-12.6-1.64-19.02-2.4-6.42-.75-13.12-2.69-17.04-8.19-.08-.12-.17-.23-.25-.37-.65-.97-1.19-1.96-1.66-2.96-3.03-6.54-2.67-14.08-2.73-21.17-.06-10.32-.1-20.61,2.41-30.69,5.02-20.23,23.55-25.85,38.76-36.61,12.07-8.53,10.36-17.53,11.68-30.42,1.06-10.33,16.62-9.83,24.44-10.07,4.84-.15,10.21-.47,15.27.24,2.17.29,4.28.78,6.25,1.54.43.17.83.34,1.2.55,4.42,2.21,5.16,6.05,6.34,11.12,1.83,7.91,3.11,14.9,8.69,21.25,6.4,7.29,16.7,9.17,24.7,14.1,20.3,12.48,25.15,39.02,25.35,61.13.05,5.84,1.04,15.66-2.44,20.89Z"/>
              <path class="cls-5" d="m191.63,176.13c-2.19,3.32-5.54,4.01-9.11,5.11-7.56,2.3-15.24,4.17-23,5.65-19.2,3.65-38.51,4.13-57.85,3.33-10.65-.4-21.32-1.2-31.98-2.03-6.43-.51-12.6-1.64-19.02-2.4-6.42-.75-13.12-2.69-17.04-8.19-.08-.12-.17-.23-.25-.37-.65-.97-1.19-1.96-1.66-2.96,6.04.66,12.04,1.47,17.82,1.85,22.24,1.46,44.68,2.3,66.52-2.9,15.12-3.6,31.9-10.16,40.05-24.41,5.39-9.41,8.46-22.61,3.6-32.85-7.74-16.26-30.81-17.41-36.39-35.32-3.37-10.78,1.63-24.33-1.77-35.09,2.17.29,4.28.78,6.25,1.54.43.17.83.34,1.2.55,4.42,2.21,5.16,6.05,6.34,11.12,1.83,7.91,3.11,14.9,8.69,21.25,6.4,7.29,16.7,9.17,24.7,14.1,20.3,12.48,25.15,39.02,25.35,61.13.05,5.84,1.04,15.66-2.44,20.89Z"/>
              <path class="cls-40" d="m141.17,161.65c1.25-8.42-1.2-17.7-5.17-25.07-10.39-19.3-31.6-32.41-52.39-25.73-14.96,15.93-30.2,41.23-9.61,52.75.35.2.7.37,1.05.56,21.77-5.09,44.15-5.65,66.12-2.5Z"/>
              <path class="cls-13" d="m75.05,164.16c18.66,10.24,40.07,10.47,61.98,8.02,2.69-2.97,3.64-7.61,4.01-9.68.05-.28.08-.56.12-.84-21.96-3.15-44.35-2.58-66.12,2.5Z"/>
              <path class="cls-22" d="m74,163.6c-20.59-11.51-5.35-36.82,9.61-52.75-3.21,1.03-6.4,2.52-9.55,4.54-12.38,7.96-18.48,22.55-19.44,36.89-.69,10.37.69,21.04,11.94,24.09,5.57,1.51,11.28,1.16,16.98,1.54,6.69.44,13.27.78,19.96.3,8.93-.63,18.3-.84,26.93-3.37,2.92.2,5.04-.96,6.59-2.67-22.32,2.5-44.12,2.24-63.03-8.58Z"/>
              <path class="cls-25" d="m89.27,52.97c.32,18.8-13.3,34.69-28.01,44.57-4.45,2.99-9.51,5.65-13.29,9.51-4.67,4.77-7.55,11.36-8.68,17.86-1.21,6.94-.77,14.24-.5,21.24.09,2.52-.06,5.33.46,7.77.32-10.01,4.01-20.41,8.86-29.05,3.61-6.44,8.36-12.44,13.7-17.54,4.8-4.58,10.37-7.88,15.74-11.72,7.9-5.66,15.05-12.97,17.77-22.53,1.27-4.47,1.37-9.12,1.12-13.74-.14-2.59,0-6.29-2.35-8.01"/>
              <path class="cls-25" d="m49.03,133.99c-2.21,3.09-2.66,7.45-3.33,11.04-.66,3.54-3.76,13.94.31,16.2,2.68-1.69,2.56-9.62,2.93-12.12.76-5.05,2.95-11.44.09-15.12Z"/>
              <path class="cls-22" d="m124.41,52.32c.65-.88.8-1.96.06-3.31-1.22-1.23-3.73-1.32-5.27-1.53-5.28-.71-10.65-.39-15.92.11-1.9.18-19.09,2.54-16.04,6.19.38.45.93.82,1.59,1.12,11.67-2.63,23.71-3.39,35.59-2.58Z"/>
              <path class="cls-27" d="m88.82,54.9c2.86,1.3,7.84,1.36,10.03,1.58,5.39.53,11.07.41,16.41-.58,1.48-.27,7.32-1.11,9.14-3.58-11.88-.81-23.92-.05-35.59,2.58Z"/>
              <g>
                <path class="cls-6" d="m103.25,28.62c2.63-5.79,6.59-12.75,2.41-18.82-1.11-1.61-3.39-.17-2.56,1.56,3.14,6.57-2.07,12.88-3.88,19.02-1.08,3.65-2.45,10.74,2.2,12.55,1.23.48,2.15-1.13.98-1.84-1.78-1.08-1.37-4.18-1.12-5.87.35-2.3,1.01-4.48,1.97-6.6Z"/>
                <path class="cls-6" d="m111.27,22.07c-1.62.75-2.67,2.16-3.53,3.69-.89,1.57-1.56,3.31-1.88,5.08-.32,1.76-.36,3.56-.03,5.32.34,1.77,1.17,3.24,2.36,4.57.83.93,2.32-.33,1.68-1.36-1.49-2.41-1.63-5.48-.96-8.17.35-1.39.86-2.72,1.56-3.98.71-1.27,1.61-2.42,2.32-3.7.57-1.03-.63-1.86-1.53-1.45Z"/>
                <path class="cls-6" d="m118.33,24.38c-.34-.24-.94-.27-1.22.11-.54.73-1.18,1.38-1.7,2.12-.61.86-1.19,1.75-1.7,2.68-.86,1.55-1.9,3.67-1.15,5.46.38.91,1.78.56,1.51-.44-.15-.55,0-1.28.25-1.86.37-.87.88-1.67,1.42-2.44.48-.68,1.18-1.54,1.7-2.32.45-.67.85-1.38,1.17-2.12.18-.43.12-.91-.29-1.19Z"/>
              </g>
              <g>
                <g>
                  <path class="cls-21" d="m109.46,139.08c-.23-.01-.47-.09-.73-.23-1.08-.59-1.9-1.72-2.09-2.94-.1-.63.08-1.15.17-1.76.06-.36.17-.69.32-1.03.08-.19.17-.37.26-.55.05-.09.24-.33.23-.43.04.88.38,1.3,1.1,1.69-.73-.44-.05-2.46.2-2.97.44-.88,1.63-2.4,1.2-3.45,1.13,1.44,2.17,3.4,2.34,5.24.09.96-.06,1.88-.3,2.81-.32,1.22-1.17,3.71-2.71,3.61Z"/>
                  <path class="cls-21" d="m107.82,131.35c-.2-.51-.21-1.12,0-1.58.27-.6,1.14-1.46.88-2.16.3.67.71,1.54.2,2.22-.22.29-.39.59-.53.93-.08.2-.38.96-.19,1.16-.15-.16-.27-.35-.36-.57Z"/>
                  <path class="cls-21" d="m109.52,128.03c-.05-.02-.12-.06-.2-.13-.33-.28-.34-.66-.2-1.05.17-.48.64-.7.87-1.15,0,.15.04.33.05.49,0,.48-.33.86-.33,1.35,0,.27,0,.54-.19.48Z"/>
                </g>
                <g>
                  <path class="cls-34" d="m128.82,145.18h-39.74l2.5,19.58s-.03.03-.03.04c0,.58,6.89,2.6,17.36,2.6s17.14-1.96,17.34-2.57h.05l2.51-19.65Z"/>
                  <path class="cls-10" d="m90.33,145.75l3.2,18.8s8.94,2.71,22.75,1.42l2.19-19.02s-15.84,1.33-28.14-1.2Z"/>
                  <path class="cls-32" d="m128.82,145.18c0,.99-8.9,3.84-19.87,3.84s-19.87-2.86-19.87-3.84,8.9-3.33,19.87-3.33,19.87,2.34,19.87,3.33Z"/>
                  <path class="cls-9" d="m108.95,141.85c-10.97,0-19.87,2.34-19.87,3.33s8.9,3.84,19.87,3.84,19.87-2.86,19.87-3.84-8.9-3.33-19.87-3.33Zm0,5.92c-9.5,0-17.2-1.7-17.2-2.55s7.7-2.88,17.2-2.88,17.2,2.03,17.2,2.88-7.7,2.55-17.2,2.55Z"/>
                  <path class="cls-32" d="m91.75,145.21s7.66-5.05,17.52-5.05,16.88,5.05,16.88,5.05h-34.4Z"/>
                  <g class="cls-23">
                    <path class="cls-34" d="m126.15,145.21s.05-.25-.69-.54c-1.52-.7-7.48-4.51-16.19-4.51-.09,0-.18,0-.27,0l-.05,1.91s14.42,3.62-7.28,5.36c3.38.31,9.74.47,15.06-.06,3.44-.34,9.44-1.42,9.42-2.16Z"/>
                  </g>
                  <path class="cls-34" d="m114.49,141.12c0,.25-2.48.96-5.54.96s-5.54-.71-5.54-.96,2.48-.83,5.54-.83,5.54.58,5.54.83Z"/>
                  <g>
                    <path class="cls-28" d="m111.24,133.88c-1.5,2.67-1.84,7.53-2.02,7.53s-.57-4.67.39-7.99l1.63.47Z"/>
                    <path class="cls-28" d="m111.29,133.85c-.09.3-.56.44-1.04.33-.48-.11-.79-.45-.7-.74.09-.3.56-.44,1.04-.33.48.11.79.45.7.74Z"/>
                  </g>
                  <path class="cls-10" d="m108.95,149.02c-5.49,0-10.45-.71-14.05-1.55-.87-.15-1.56-.32-1.95-.5l2.5,14.9s6.43,2.42,15.03.98l.85-13.88c-.78.03-1.58.05-2.39.05Z"/>
                  <path class="cls-16" d="m91.55,164.8s4.93,2.72,18.09,2.48c13.1-.23,16.68-2.46,16.68-2.46,0,0-1.73,3-16.78,3.01-15.2,0-17.98-3.03-17.98-3.03Z"/>
                </g>
              </g>
            </g>
            <g>
              <path class="cls-2" d="m40.29,154.95c-1.8-3.52-5.68-1.87-5.83-5.32-.11-2.51,3.93-3.49,3.93-3.49v-5.24h-.05c-.18-.38-5.3-1.23-11.59-1.23s-11.41.85-11.59,1.23h-.05v5.24s4.04.98,3.93,3.49c-.15,3.46-4.03,1.81-5.83,5.32-4.3,8.4-3.48,36.37-.58,39.73,4.7,5.42,23.57,5.41,28.26,0,2.91-3.35,3.73-31.32-.58-39.73Z"/>
              <g class="cls-20">
                <path class="cls-1" d="m39.04,156.32c-1.63-3.19-4.96-2.49-5.7-5.81-.49-2.23.9-3.63.9-3.63h0c-2.02.22-4.64.39-7.5.39s-5.48-.17-7.5-.39h0s1.39,1.41.9,3.63c-.74,3.31-4.07,2.62-5.7,5.81-3.9,7.63-3.16,33.01-.52,36.06,2.13,2.46,7.48,3.69,12.82,3.69,5.35,0,10.69-1.23,12.82-3.69,2.64-3.04,3.38-28.43-.52-36.06Z"/>
              </g>
              <g>
                <path class="cls-11" d="m20.4,140.89l.81,4.64c3.41.78,6.36.6,11.13,0l.75-4.64h-12.69Z"/>
                <path class="cls-12" d="m20.4,140.89s3.26,1.11,8.13,1.53c0,.39,0,1.79-.08,2.52-1.31,1.08-7.24.59-7.24.59,3.41.78,6.36.6,11.13,0l.75-4.64h-12.69Z"/>
                <g>
                  <path class="cls-12" d="m22.4,142.61c0,.19-.15.35-.35.35s-.35-.15-.35-.35.15-.35.35-.35.35.15.35.35Z"/>
                  <circle class="cls-12" cx="27.81" cy="144.27" r=".24"/>
                  <circle class="cls-12" cx="25.85" cy="142.86" r=".24"/>
                </g>
              </g>
              <path class="cls-1" d="m40.17,155.02c-.15-.24-.28-.52-.46-.73l-.26-.33c-.1-.1-.2-.2-.3-.3-.1-.1-.21-.19-.33-.27-.12-.08-.22-.18-.35-.24-.24-.15-.5-.28-.76-.4-.26-.12-.53-.23-.81-.33-.27-.11-.55-.21-.81-.34-.13-.06-.27-.12-.4-.2-.13-.07-.26-.15-.37-.25-.12-.09-.24-.19-.33-.31l-.15-.17c-.04-.06-.07-.13-.11-.2-.08-.13-.15-.26-.18-.41-.04-.14-.1-.28-.11-.43l-.06-.44c0-.16.01-.3.02-.44.02-.15.07-.3.1-.45.05-.14.12-.28.18-.41.07-.13.17-.25.25-.37.1-.12.2-.22.3-.33.22-.21.45-.39.69-.56.25-.16.5-.31.77-.45.53-.27,1.07-.49,1.65-.66h0l-.11.14c.07-.87.08-1.75.07-2.62,0-.87-.02-1.75-.07-2.62l.15.15h-.05l.13-.21s.02.05.03.07c0,.03.01-.03,0,.06h0s0,.02,0,.02c0,0-.02.04-.04.07-.07.07-.09.07-.13.1-.07.03-.13.06-.19.08-.12.04-.24.08-.37.11-.24.06-.48.11-.73.16-.49.09-.97.17-1.46.23-.98.13-1.95.23-2.93.31-1.96.16-3.93.23-5.89.23-1.97,0-3.93-.08-5.89-.23-.98-.08-1.96-.18-2.93-.31-.49-.07-.97-.14-1.46-.23-.24-.05-.49-.1-.73-.16-.12-.03-.24-.06-.37-.11-.06-.02-.12-.05-.19-.08-.03-.02-.06-.03-.11-.07-.02-.01-.04-.03-.06-.1,0-.04-.02-.03,0-.1v-.02s.16.18.16.18h-.05l.15-.15c-.04.87-.05,1.75-.06,2.62,0,.87,0,1.75.06,2.62h0s-.11-.14-.11-.14c.64.19,1.24.45,1.83.76.58.31,1.12.71,1.55,1.22.43.51.65,1.2.56,1.87-.04.64-.31,1.34-.85,1.75-.52.42-1.16.64-1.76.87-.61.23-1.2.49-1.72.86-1.09.71-1.62,1.96-2.07,3.16-.86,2.44-1.29,5.02-1.62,7.59-.32,2.58-.49,5.17-.58,7.77-.09,2.6-.08,5.2,0,7.79.09,2.6.25,5.19.55,7.76.15,1.29.34,2.57.61,3.83.13.63.3,1.25.49,1.86.22.6.44,1.18.87,1.59.87.91,2,1.53,3.18,2.02,1.18.48,2.43.83,3.69,1.09,2.52.51,5.12.7,7.69.63,2.58-.06,5.16-.34,7.64-1.02,1.24-.34,2.45-.79,3.55-1.41,1.07-.62,2.17-1.43,2.5-2.61.43-1.18.68-2.46.89-3.73.2-1.28.36-2.56.48-3.85.46-5.17.55-10.37.31-15.56-.14-2.59-.35-5.18-.73-7.75-.19-1.28-.44-2.56-.74-3.81-.31-1.25-.7-2.5-1.27-3.65h0Zm.25-.14c.6,1.18,1,2.43,1.33,3.7.32,1.27.59,2.55.78,3.84.41,2.58.65,5.18.81,7.78.15,2.6.2,5.21.18,7.82-.02,2.61-.14,5.22-.37,7.82-.12,1.3-.27,2.6-.47,3.89-.21,1.29-.45,2.59-.91,3.85-.1.3-.27.66-.44.95l-.14.2-.07.1c-.06.08-.07.07-.1.12l-.36.37c-.5.46-1.05.86-1.63,1.18-1.16.66-2.41,1.12-3.68,1.48-2.54.7-5.17,1-7.79,1.07-2.62.05-5.25-.16-7.83-.7-1.29-.27-2.56-.63-3.78-1.15-1.21-.51-2.42-1.18-3.35-2.16-.51-.51-.76-1.18-.98-1.8-.2-.63-.36-1.27-.49-1.92-.27-1.29-.45-2.58-.59-3.88-.29-2.6-.43-5.2-.5-7.81-.06-2.61-.04-5.21.07-7.82.12-2.6.31-5.2.65-7.79.36-2.58.8-5.17,1.7-7.63.23-.62.47-1.21.82-1.79.33-.58.8-1.07,1.35-1.44.55-.38,1.16-.63,1.77-.86.61-.23,1.23-.44,1.73-.83.51-.39.77-1,.81-1.65.08-.63-.13-1.27-.54-1.76-.85-.96-2.11-1.48-3.33-1.79-.07-.02-.11-.07-.11-.14h0c.06-.88.06-1.75.06-2.62,0-.87-.02-1.75-.06-2.62,0-.08.06-.14.13-.14h.01s0,0,0,0h.11c.06,0,.11.05.11.11,0,.03,0,.05-.02.07v.02c-.01-.05,0-.03-.01-.06-.01-.03-.02-.03-.01-.02,0,0,.02.02.04.03.04.02.1.04.15.06.11.04.22.07.34.1.23.06.47.11.71.16.48.09.96.16,1.45.23.97.13,1.94.23,2.92.31,1.95.16,3.91.23,5.87.23,1.96,0,3.92-.08,5.87-.23.98-.08,1.95-.18,2.92-.31.48-.07.97-.14,1.45-.23.24-.05.48-.1.71-.16.12-.03.23-.06.34-.1.05-.02.11-.04.15-.06.02,0,.05-.03.03,0,0,.02,0,.02,0,0h0s0-.02,0-.02c-.02.09,0,.03-.01.05,0,.01,0,.02,0,.03l.13-.21h.05s.02,0,.02,0c.08,0,.13.07.13.14h0c-.05.87-.07,1.75-.07,2.62,0,.87,0,1.75.07,2.62,0,.06-.03.12-.09.13h-.02s0,0,0,0c-.55.13-1.1.32-1.62.57-.26.13-.51.27-.75.42-.24.16-.47.33-.68.53-.1.1-.2.2-.29.31-.08.12-.17.23-.24.35-.06.13-.13.25-.18.38-.03.13-.08.26-.1.4,0,.14-.03.3-.02.43l.05.43c0,.15.07.27.11.41.03.14.1.26.17.38.04.06.07.12.11.18l.14.16c.09.11.19.2.31.28.11.09.23.16.36.23.12.07.25.13.38.19.26.12.54.21.81.32.27.1.55.21.82.32.27.12.54.24.8.4.13.07.25.16.37.25.12.08.25.17.35.28.11.1.22.2.33.31l.29.35c.2.23.32.49.48.74h0Z"/>
              <path class="cls-1" d="m26.74,142.27c-5.6,0-11.76-.71-11.76-1.36s6.26-1.4,11.76-1.4,11.76.75,11.76,1.4-6.15,1.36-11.76,1.36Zm-11.4-1.36c.75.35,5.48,1.07,11.4,1.07s10.64-.72,11.4-1.07c-.75-.36-5.49-1.11-11.4-1.11s-10.64.74-11.4,1.11Z"/>
              <path class="cls-1" d="m38.49,146.1s0,0,0,.02c0,0,0,.03-.05.08-.05.05-.08.07-.11.09-.04.02-.07.04-.12.06-.17.07-.42.14-.74.21-.63.14-1.54.29-2.64.43-2.19.27-5.13.47-8.08.48-2.94,0-5.88-.21-8.08-.48-1.1-.13-2.01-.28-2.64-.43-.32-.07-.57-.14-.74-.21-.09-.04-.15-.06-.22-.12-.01-.01-.03-.02-.04-.04-.02-.02-.03-.05-.03-.07-.01-.04-.01-.06-.01-.06,0-.08.07-.15.15-.15s.15.07.15.15c0,0,0,0,0-.03,0,0,0-.02-.02-.03h0s.06.04.13.07c.15.06.39.13.69.19.62.14,1.52.28,2.61.4,2.18.25,5.11.43,8.04.42,2.93,0,5.86-.17,8.04-.42,1.09-.13,1.99-.27,2.61-.4.31-.07.55-.13.69-.19.03-.01.07-.03.09-.04.03-.01.04-.03.02,0,0,0,0,.02,0,.02,0,0,0-.01,0-.02,0-.01,0-.02,0-.02v-.02c.04-.07.12-.11.2-.08.07.03.11.12.08.19Z"/>
              <path class="cls-3" d="m34.26,140.91c0,.24-3.36.59-7.51.59s-7.51-.35-7.51-.59,3.36-.81,7.51-.81,7.51.57,7.51.81Z"/>
              <path class="cls-35" d="m34.58,131.55c.04.25-3.4,1.22-7.72,1.98-4.32.75-7.89,1-7.93.75-.04-.25,3.36-1.46,7.68-2.21,4.32-.75,7.93-.77,7.97-.52Z"/>
              <path class="cls-11" d="m26.87,133.53c-4.32.75-7.89,1-7.93.75l1.46,6.61c0,.2,2.84.5,6.35.5s6.35-.29,6.35-.5l1.5-9.34c.04.25-3.4,1.22-7.72,1.98Z"/>
              <path class="cls-33" d="m13.51,160.44c-2.32,9.8-1.48,28.81.76,31.38,2.08,2.4,7.28,3.59,12.48,3.59,5.2,0,10.4-1.19,12.48-3.59,2.23-2.57,3.07-21.57.76-31.37H13.51Z"/>
              <path class="cls-19" d="m39.98,160.43c0,.43-5.93,1.39-13.24,1.39s-13.24-.96-13.24-1.39,5.93-1.44,13.24-1.44,13.24,1.01,13.24,1.44Z"/>
              <path class="cls-26" d="m39.83,160.31c-.92.43-6.42,1.07-13.09,1.07s-12.17-.64-13.09-1.07c-.09.05-.15.09-.15.13,0,.43,5.93,1.39,13.24,1.39s13.24-.96,13.24-1.39c0-.04-.06-.08-.15-.13Z"/>
              <path class="cls-4" d="m40.29,154.95c-1.8-3.52-5.68-1.87-5.83-5.32-.11-2.51,3.93-3.49,3.93-3.49v-5.24h-.05s.02.02.02.02c0,.34-4.24,1.05-9.78,1.19v5.14s-8.02-.13-12.02-.58c6.35,1.93,11.06,1.62,10.92,1.82-.42.61-.79,1.38-.71,2.16.17,1.72,4.26,2.21,4.92,5.32.65,3.11,5.58,37.84-5.88,41.03-6.07,1.75-14.34-1.58-14.82-7.98.41,2.82.97,4.9,1.63,5.67,4.7,5.42,23.57,5.41,28.26,0,2.91-3.35,3.73-31.32-.58-39.73Z"/>
              <path class="cls-8" d="m15.91,142.13v3.13s5.36,1.2,11.22,1.15v-2.93s-7.62-.06-11.22-1.34Z"/>
              <path class="cls-8" d="m23.35,174.12c-.21,10.28-2.61,18.56-5.36,18.51-2.75-.06-4.82-8.43-4.61-18.71.21-10.28,2.61-18.56,5.36-18.51,2.75.06,4.82,8.43,4.61,18.71Z"/>
              <path class="cls-12" d="m26.87,133.53c-4.32.75-7.89,1-7.93.75,0,0,.17,1.17,10,.8-.1.9-.29,4.95-.33,5.32-2.29,1.09-8.22.49-8.22.49,0,.2,2.84.5,6.35.5s6.35-.29,6.35-.5l1.5-9.34c.04.25-3.4,1.22-7.72,1.98Z"/>
              <g>
                <path class="cls-12" d="m22.21,139.71c0,.19-.15.35-.35.35s-.35-.15-.35-.35.15-.35.35-.35.35.15.35.35Z"/>
                <path class="cls-12" d="m26.92,138.52c0,.19-.15.35-.35.35s-.35-.15-.35-.35.15-.35.35-.35.35.15.35.35Z"/>
                <path class="cls-12" d="m22.56,136.31c0,.19-.15.35-.35.35s-.35-.15-.35-.35.15-.35.35-.35.35.15.35.35Z"/>
                <path class="cls-12" d="m24.28,137.94c0,.13-.11.24-.24.24s-.24-.11-.24-.24.11-.24.24-.24.24.11.24.24Z"/>
                <path class="cls-12" d="m26.23,136.47c0,.13-.11.24-.24.24s-.24-.11-.24-.24.11-.24.24-.24.24.11.24.24Z"/>
                <path class="cls-12" d="m25.76,140.3c0,.13-.11.24-.24.24s-.24-.11-.24-.24.11-.24.24-.24.24.11.24.24Z"/>
              </g>
              <path class="cls-30" d="m28.86,133.04c-4.32.75-7.89,1-7.93.75-.03-.16,1.33-.7,3.43-1.27-3.19.71-5.46,1.56-5.42,1.76.04.25,3.61,0,7.93-.75,2.26-.39,4.28-.85,5.68-1.23-1.09.25-2.35.5-3.69.74Z"/>
              <g>
                <path class="cls-30" d="m25.52,132.93c.01.07-.2.17-.48.21-.28.05-.51.03-.52-.04s.2-.17.48-.21.51-.03.52.04Z"/>
                <path class="cls-30" d="m30.6,132.37c.01.07-.2.17-.48.21-.28.05-.51.03-.52-.04-.01-.07.2-.17.48-.21s.51-.03.52.04Z"/>
                <path class="cls-30" d="m28.97,132.06c.01.07-.2.17-.48.21-.28.05-.51.03-.52-.04s.2-.17.48-.21c.28-.05.51-.03.52.04Z"/>
                <path class="cls-30" d="m22.93,133.25c0,.05-.15.12-.35.15-.2.03-.37.02-.38-.03,0-.05.15-.12.35-.15.2-.03.37-.02.38.03Z"/>
                <path class="cls-30" d="m32.91,131.76c0,.05-.15.12-.35.15-.2.03-.37.02-.38-.03,0-.05.15-.12.35-.15.2-.03.37-.02.38.03Z"/>
              </g>
            </g>
            <g>
              <path class="cls-2" d="m56.99,169.48c-1.29-2.51-4.06-1.33-4.17-3.81-.08-1.79,2.81-2.5,2.81-2.5v-3.75h-.04c-.13-.27-3.79-.88-8.29-.88s-8.16.61-8.29.88h-.04v3.75s2.89.7,2.81,2.5c-.11,2.47-2.88,1.29-4.17,3.81-3.08,6.01-2.49,26.01-.41,28.4,3.36,3.88,16.85,3.87,20.2,0,2.08-2.4,2.66-22.4-.41-28.4Z"/>
              <g class="cls-20">
                <path class="cls-1" d="m56.09,170.46c-1.17-2.28-3.55-1.78-4.08-4.15-.35-1.59.64-2.6.64-2.6h0c-1.45.16-3.32.28-5.36.28s-3.92-.12-5.36-.28h0s1,1.01.64,2.6c-.53,2.37-2.91,1.87-4.08,4.15-2.79,5.45-2.26,23.6-.37,25.78,1.52,1.76,5.35,2.64,9.17,2.64,3.82,0,7.64-.88,9.17-2.64,1.89-2.18,2.42-20.33-.37-25.78Z"/>
              </g>
              <g>
                <path class="cls-11" d="m42.76,159.43l.58,3.32c2.44.56,4.55.43,7.96,0l.54-3.32h-9.07Z"/>
                <path class="cls-12" d="m42.76,159.43s2.33.79,5.82,1.1c0,.28,0,1.28-.06,1.8-.94.77-5.18.42-5.18.42,2.44.56,4.55.43,7.96,0l.54-3.32h-9.07Z"/>
                <g>
                  <circle class="cls-12" cx="43.95" cy="160.66" r=".25"/>
                  <path class="cls-12" d="m48.24,161.84c0,.1-.08.17-.17.17s-.17-.08-.17-.17.08-.17.17-.17.17.08.17.17Z"/>
                  <path class="cls-12" d="m46.83,160.83c0,.1-.08.17-.17.17s-.17-.08-.17-.17.08-.17.17-.17.17.08.17.17Z"/>
                </g>
              </g>
              <path class="cls-1" d="m56.84,169.57c-.11-.17-.2-.38-.32-.52-.11-.16-.24-.3-.39-.44-.14-.14-.31-.25-.48-.36-.17-.11-.35-.2-.54-.29-.37-.17-.77-.3-1.16-.48-.19-.09-.39-.19-.56-.33-.09-.07-.17-.14-.24-.23-.08-.08-.14-.17-.19-.27-.12-.19-.16-.41-.2-.62l-.04-.32c0-.12,0-.21.01-.32.03-.22.11-.44.21-.63.11-.19.25-.36.4-.51.31-.31.67-.54,1.04-.74.38-.2.77-.36,1.18-.49h0s-.13.16-.13.16c.08-.62.09-1.25.08-1.87,0-.62-.02-1.25-.08-1.87h0s.17.17.17.17h-.04l.15-.24s.02.05.03.07c0,.03.01-.04,0,.07h0s0,.01,0,.01c0,0-.01.03-.04.07-.07.07-.09.07-.11.09-.05.03-.1.05-.14.06-.09.03-.18.06-.27.08-.18.04-.35.08-.52.11-.35.07-.7.12-1.05.17-.7.09-1.4.17-2.1.22-1.4.11-2.81.17-4.22.17-1.41,0-2.81-.05-4.22-.17-.7-.06-1.4-.13-2.1-.22-.35-.05-.7-.1-1.05-.17-.17-.03-.35-.07-.52-.11-.09-.02-.18-.05-.27-.08-.05-.02-.09-.03-.14-.06-.03-.02-.05-.02-.09-.06-.01-.01-.04-.03-.06-.09,0-.04-.02-.03,0-.1h.01s.16.19.16.19h-.04s.17-.17.17-.17c-.04.62-.06,1.25-.07,1.87,0,.62,0,1.25.07,1.87h0s-.13-.16-.13-.16c.9.31,1.79.72,2.42,1.46.31.37.47.88.4,1.36-.03.46-.23.97-.62,1.27-.38.31-.84.46-1.27.63-.43.17-.85.35-1.22.61-.77.5-1.14,1.39-1.46,2.24-.61,1.74-.91,3.58-1.14,5.42-.22,1.84-.34,3.69-.4,5.55-.06,1.85-.05,3.71.01,5.57.07,1.85.18,3.71.41,5.54.11.92.25,1.83.44,2.73.1.45.21.89.35,1.32.15.43.31.82.6,1.09.61.64,1.4,1.07,2.24,1.41.84.34,1.72.58,2.61.77,1.79.36,3.64.49,5.47.44,1.83-.04,3.67-.24,5.43-.72.88-.24,1.73-.56,2.51-.99.76-.44,1.51-1,1.73-1.8.59-1.68.79-3.56.98-5.39.33-3.69.41-7.41.25-11.11-.09-1.85-.24-3.7-.51-5.53-.29-1.82-.63-3.67-1.42-5.32h0Zm.29-.16c.43.85.72,1.75.96,2.66.23.91.43,1.83.57,2.75.3,1.85.47,3.71.59,5.57.21,3.73.22,7.47-.11,11.2-.08.93-.19,1.86-.34,2.79-.15.93-.32,1.86-.65,2.78-.07.22-.21.49-.33.71-.08.11-.1.17-.23.31l-.26.27c-.37.34-.77.63-1.19.87-.84.48-1.75.82-2.66,1.07-1.83.51-3.72.72-5.6.77-1.88.03-3.77-.12-5.63-.51-.92-.2-1.84-.46-2.72-.83-.87-.37-1.75-.86-2.43-1.58-.38-.38-.57-.89-.72-1.33-.14-.46-.26-.92-.35-1.38-.19-.93-.32-1.85-.42-2.79-.39-3.72-.44-7.46-.28-11.19.09-1.86.23-3.72.48-5.58.26-1.85.59-3.7,1.23-5.47.17-.45.34-.86.59-1.28.24-.42.58-.78.98-1.04.78-.57,1.78-.67,2.5-1.2.36-.28.54-.69.57-1.16.05-.44-.09-.89-.38-1.23-.6-.68-1.51-1.04-2.37-1.24-.07-.02-.12-.08-.13-.15h0c.06-.63.07-1.26.07-1.88,0-.62-.02-1.25-.07-1.87,0-.09.06-.16.14-.17h0s.02,0,.02,0h0s.04,0,.04,0h.06c.07,0,.13.06.13.13,0,.03-.01.06-.03.08h-.01c0-.05,0-.03,0-.06-.02-.04-.03-.04-.02-.04,0,0,0,0,.02,0,.03.01.06.03.1.04.07.03.16.05.24.07.16.04.33.08.5.11.34.06.68.12,1.03.16.69.09,1.39.16,2.08.22,1.39.11,2.79.17,4.19.17,1.4,0,2.8-.05,4.19-.17.7-.06,1.39-.13,2.08-.22.35-.05.69-.1,1.03-.16.17-.03.34-.07.5-.11.08-.02.16-.04.24-.07.04-.01.07-.03.1-.04.01,0,.03-.03,0,.02,0,.02,0,.04,0,.01h0s0-.01,0-.01v.06s-.01.03,0,.05l.15-.24h.04c.09,0,.17.08.17.17h0c-.06.62-.08,1.25-.08,1.87,0,.62,0,1.25.08,1.87,0,.06-.03.12-.08.14l-.05.02h0c-.78.18-1.58.5-2.18,1.04-.14.14-.27.3-.37.47-.1.18-.16.35-.2.55,0,.1-.02.22-.02.3l.03.3c.04.19.09.39.2.56.04.09.1.17.17.24.06.08.14.14.22.2.15.12.34.21.52.29.37.16.77.29,1.17.45.2.08.39.17.58.28.18.11.37.23.53.38.17.14.32.3.46.48.15.17.23.35.35.53h0Z"/>
              <path class="cls-1" d="m47.3,160.48c-3.41,0-8.47-.43-8.47-1.03s5.14-1.07,8.47-1.07,8.47.46,8.47,1.07-5.06,1.03-8.47,1.03Zm-7.96-1.04c.85.26,4.04.7,7.96.7s7.11-.44,7.96-.7c-.85-.27-4.05-.73-7.96-.73s-7.11.46-7.96.73Z"/>
              <path class="cls-1" d="m55.76,163.18s0,0,0,.01c0,0,0,.02-.05.07-.05.06-.08.07-.1.08-.03.02-.06.03-.09.04-.13.05-.31.11-.54.16-.46.1-1.11.22-1.89.32-1.57.19-3.68.34-5.79.34-2.11,0-4.21-.15-5.78-.34-.79-.1-1.44-.21-1.89-.32-.23-.05-.41-.1-.54-.16-.07-.03-.12-.05-.17-.1-.01-.01-.02-.02-.03-.03-.02-.02-.03-.05-.03-.07-.01-.04-.01-.06-.01-.06,0-.09.08-.17.17-.17s.17.08.17.17c0,0,0-.01,0-.04,0-.01-.01-.03-.02-.04,0,0,0,0,0,0-.01,0,.03.02.07.03.1.04.27.08.49.13.44.09,1.09.19,1.86.28,1.56.18,3.65.31,5.74.3,2.09,0,4.18-.12,5.74-.3.78-.09,1.42-.18,1.86-.28.22-.05.39-.09.49-.13.02,0,.05-.02.06-.02.02,0,.02-.02,0,.01-.02.04,0,.03,0,.02,0,0,0-.01,0-.01v-.02c.04-.08.14-.12.23-.09.08.04.12.13.09.22Z"/>
              <path class="cls-3" d="m52.67,159.44c0,.17-2.41.42-5.37.42s-5.37-.25-5.37-.42,2.41-.58,5.37-.58,5.37.41,5.37.58Z"/>
              <path class="cls-35" d="m53.31,153.1c0,.19-2.03.49-4.96.53-3.54.05-7.06-.27-7.11-.53-.05-.27,3.37-.83,6.99-.75,3,.06,5.08.56,5.09.75Z"/>
              <path class="cls-11" d="m48.35,153.63c-3.54.05-7.06-.27-7.11-.53l1.53,6.36c0,.18,2.5.41,5.17.38,2.29-.02,3.94-.23,3.95-.36l1.43-6.37c0,.19-2.03.49-4.96.53Z"/>
              <g>
                <path class="cls-14" d="m37.83,173.4c-1.66,7.01-1.06,20.6.54,22.44,1.48,1.71,5.2,2.57,8.92,2.57,3.72,0,7.44-.85,8.92-2.57,1.6-1.84,2.2-15.42.54-22.43h-18.93Z"/>
                <path class="cls-7" d="m56.76,173.41h-.29c1.6,6.92,1.02,20.34-.52,22.16-1.44,1.69-5.04,2.54-8.65,2.54-3.6,0-7.21-.84-8.65-2.54-1.55-1.82-2.13-15.25-.52-22.17h-.29c-1.66,7.01-1.06,20.6.54,22.44,1.48,1.71,5.2,2.57,8.92,2.57,3.72,0,7.44-.85,8.92-2.57,1.6-1.84,2.2-15.42.54-22.43Z"/>
              </g>
              <path class="cls-31" d="m56.76,173.4c0,.3-4.24.99-9.46.99s-9.46-.69-9.46-.99,4.24-1.03,9.46-1.03,9.46.72,9.46,1.03Z"/>
              <path class="cls-7" d="m56.66,173.31c-.66.31-4.59.76-9.36.76s-8.7-.45-9.36-.76c-.06.03-.11.06-.11.09,0,.3,4.24.99,9.46.99s9.46-.69,9.46-.99c0-.03-.04-.06-.11-.09Z"/>
              <path class="cls-4" d="m56.99,169.48c-1.29-2.51-4.06-1.33-4.17-3.81-.08-1.79,2.81-2.5,2.81-2.5v-3.75h-.04s.01.01.01.02c0,.24-3.03.75-6.99.85v3.67s-5.74-.09-8.6-.42c4.54,1.38,7.91,1.16,7.81,1.3-.3.44-.56.99-.51,1.55.12,1.23,3.05,1.58,3.52,3.8.47,2.22,3.99,27.06-4.2,29.34-4.34,1.25-10.25-1.13-10.6-5.71.29,2.02.69,3.5,1.17,4.05,3.36,3.88,16.85,3.87,20.2,0,2.08-2.4,2.66-22.4-.41-28.4Z"/>
              <path class="cls-8" d="m39.55,160.31v2.24s3.84.86,8.02.82v-2.1s-5.45-.04-8.02-.96Z"/>
              <path class="cls-8" d="m44.87,183.19c-.15,7.35-1.86,13.27-3.83,13.23-1.97-.04-3.45-6.03-3.3-13.38.15-7.35,1.86-13.27,3.83-13.23,1.97.04,3.45,6.03,3.3,13.38Z"/>
              <path class="cls-12" d="m48.35,153.63c-3.54.05-7.06-.27-7.11-.53,0,0,.2,1.21,8.49,2.03-.11.69-.43,3.72-.48,3.99-1.61.81-6.48.34-6.48.34,0,.18,2.5.41,5.17.38,2.29-.02,3.94-.23,3.95-.36l1.43-6.37c0,.19-2.03.49-4.96.53Z"/>
              <g>
                <path class="cls-12" d="m47.56,155.9c0-.16.14-.29.31-.29.17,0,.31.14.31.3,0,.17-.14.29-.31.29-.17,0-.3-.14-.3-.31Z"/>
                <path class="cls-12" d="m43.81,156.7c0-.15.12-.26.26-.26.14,0,.24.13.24.28,0,.15-.13.27-.26.26-.14,0-.24-.14-.23-.28Z"/>
                <path class="cls-12" d="m47.21,158.84c0-.17.14-.29.31-.28.17.02.31.17.31.35,0,.17-.15.3-.32.28-.17-.02-.31-.18-.3-.35Z"/>
                <path class="cls-12" d="m45.79,157.3c0-.11.09-.19.2-.18.11,0,.19.1.19.21,0,.11-.09.19-.2.18-.11,0-.19-.1-.19-.21Z"/>
                <path class="cls-12" d="m44.23,158.37c0-.11.09-.18.19-.17.1,0,.17.1.17.21,0,.11-.09.19-.19.17-.1-.01-.17-.11-.17-.21Z"/>
                <path class="cls-12" d="m44.72,155.36c0-.1.09-.18.18-.18.1,0,.17.08.17.19,0,.1-.09.18-.19.18-.1,0-.17-.09-.17-.19Z"/>
              </g>
              <path class="cls-30" d="m49.78,153.49c-3.24.04-6.44-.28-6.48-.53-.03-.16,1.28-.44,3.13-.6-2.89.09-5.23.52-5.19.74.05.26,3.57.59,7.11.53,1.6-.02,2.92-.12,3.78-.24-.66.05-1.46.09-2.35.1Z"/>
              <g>
                <path class="cls-30" d="m48.58,153.11c0,.06-.17.11-.39.11-.23,0-.42-.05-.42-.12s.17-.12.4-.11c.22,0,.41.06.42.12Z"/>
                <path class="cls-30" d="m47.16,152.61c0,.06-.14.1-.32.1-.18,0-.33-.05-.34-.1,0-.06.14-.1.32-.1.18,0,.33.05.33.1Z"/>
                <path class="cls-30" d="m50.25,152.72c0,.06-.15.1-.34.1-.19,0-.36-.05-.36-.11,0-.06.15-.11.35-.1.19,0,.35.05.36.11Z"/>
                <path class="cls-30" d="m52,153.14s-.13.09-.31.09c-.18,0-.34-.04-.35-.09,0-.05.14-.09.32-.09.18,0,.33.04.34.09Z"/>
                <path class="cls-30" d="m44.94,152.82s-.09.07-.21.07c-.12,0-.22-.03-.22-.07,0-.04.09-.07.21-.07.12,0,.22.03.22.07Z"/>
              </g>
            </g>
            <g>
              <g>
                <path class="cls-39" d="m48.9,207.43c.06-.02.12-.04.18-.06.01,0,.02,0,.02,0,.95-.3,1.94-.42,2.89-.62,1.24-.27,2.41-.68,3.3-1.82,1.28-1.63,1.93-4.02,3.84-5.1.18-.1.31-.14.4-.14.43,0,.13.9.15,1.36.05,1.01.37,2.02.88,2.9.53.92,1.3,1.65,2.1,2.33.82.7,1.54,1.45,2.31,2.22.81.8,1.84,1.45,2.5,2.39.34-1.26.61-2.49,1.09-3.7,0-.02.01-.04.01-.05.04-.08.07-.16.11-.25.87-2.05,2.35-4.09,1.46-6.37-.58-1.49-1.66-2.5-2.9-3.34-.2-.14-.4-.27-.61-.4.09,0,.17.02.26.03.33.04.65.1.98.15.47.08.95.17,1.41.28,1.22.27,2.42.62,3.59,1.04.01,0,.02,0,.04.01.65.23,1.29.49,1.91.76.7.31,1.74,1.12,2.37.98h0c.26-.06.46-.28.53-.75.39-2.37-1.51-5.54-2.97-7.25-2.12-2.51-5.55-2.62-8.3-1.03-.21.12-.41.25-.59.4-.22.16-.42.33-.61.52.4-1.29.63-2.66.81-3.83.4-2.63-.1-4.65-1.83-6.67-.86-.99-2.32-2.01-2.82-3.27-.02.07-.03.15-.06.23-.72,3.03-1.77,6.27-1.63,9.4.04.86.17,1.72.42,2.57-.9-.96-1.89-1.83-2.98-2.46-2.57-1.5-5.24-1.35-8.01-.47-1.38.43-3.64.97-4.72,2.05.04.07.09.12.14.19.55.62,1.69.96,2.36,1.5,1.59,1.26,2.9,2.67,4.81,3.46.81.34,1.67.59,2.54.76.77.15,1.7.05,2.42.28-.06.08-.15.15-.24.22-.6.4-1.75.53-2.32.76-1.59.65-3.11,1.49-3.93,3.07-.84,1.64-.55,3.42-.7,5.18-.07.89-.4,1.68-.62,2.53Z"/>
                <path class="cls-41" d="m60.7,196.35c.13-.01.26-.03.38-.04.1-.02.18-.03.27-.05.01,0,.02,0,.03,0,.05,0,.1-.02.13-.04.27-.06.52-.14.76-.24.05-.03.11-.05.16-.08.01,0,.02,0,.02,0h0c.33-.18.63-.4.91-.65.38-.35.73-.79,1.11-1.29.29-.37.54-.75.76-1.14.26-.45.48-.91.64-1.4-.22.16-.42.33-.61.52.4-1.29.63-2.66.81-3.83.4-2.63-.1-4.65-1.83-6.67-.86-.99-2.32-2.01-2.82-3.27-.02.07-.03.15-.06.23.21.37.45.73.69,1.06.83,1.18,1.63,2.45,2.23,3.76.74,1.63.82,3.4.47,5.13-.13.69-.3,1.37-.47,2.05-.07.31-.1.77-.38.95-.22-.29-.24-.68-.34-1.01-.15-.56-.4-1.11-.42-1.71-.29.57-.43,1.28-.59,1.88-.16.64-.15,1.53-.53,2.07-.49-1.79-.61-3.7-.82-5.54-.35.31-.57.82-.67,1.29-.2.92-.32,1.99-.39,2.94-.03.38-.02.76-.01,1.15.04.69.12,1.4.21,2.09.04.3.08.58.11.87l.02.08.07.29v.05s.15.56.15.56Z"/>
                <path class="cls-41" d="m61.08,196.48c.05.07.1.13.16.19h0s.03.03.04.03c.03.03.07.07.11.09.2.14.44.24.71.3,1.01.26,2.39.12,3.13.14.68,0,1.35-.02,2.01-.04.31,0,.62-.02.93-.01.37,0,.73.02,1.1.07.1,0,.22.02.32.04,1.14.18,2.22.53,3.26,1,.01,0,.02,0,.04.01.65.23,1.29.49,1.91.76.7.31,1.74,1.12,2.37.98-.11-.12-.22-.23-.32-.32-1.23-1.27-2.56-2.32-4.18-3.04-1.5-.67-3.2-1.05-4.8-1.31-.43-.07-1.29,0-1.61-.34.2-.6,1.37-.76,1.88-1.05-.4-.1-1.02.04-1.44.12-.31.05-.83.31-1.14.17.21-.51,1.08-.81,1.54-1.05.89-.46,2.07-.54,2.87-1.13-.53-.38-1.8-.09-2.42,0-.83.12-1.6.37-2.34.73h0c-.19.1-.37.2-.56.3-.59.34-1.94,1.05-1.9,1.92,0,.01,0,.02,0,.02l-.38.32h-.02s-.37.34-.37.34l-.41.34-.21.18-.03.02-.2.17-.06.05Z"/>
                <path class="cls-41" d="m63.96,197.92c.85.68,1.14,2.18,1.84,3.03.26-.95-.41-2.88-.97-3.56,2.37,1.81,4.18,4.53,4.07,7.63-.02.68-.14,1.41-.31,2.12.04-.08.07-.16.11-.25.87-2.05,2.35-4.09,1.46-6.37-.58-1.49-1.66-2.5-2.9-3.34.31,0,.62-.02.93-.01-.1-.08-.19-.15-.31-.21-.59-.39-1.25-.69-1.95-.85l-2.57-.88-.59-.2-.95-.31-.14-.05c-.09.2-.15.4-.19.61h0s0,.02,0,.03c-.02.06-.03.12-.04.19-.05.25-.07.5-.07.74,0,.01,0,.02,0,.02,0,.09,0,.17.01.25,0,.1,0,.19.02.29.03.33.1.67.2,1.01.51,1.74,1.76,3.4,2.86,4.6.12-.51-.43-1.36-.52-1.91-.14-.76-.08-1.79.03-2.56Z"/>
                <path class="cls-41" d="m49.1,207.36c.95-.3,1.94-.42,2.89-.62,1.24-.27,2.41-.68,3.3-1.82,1.28-1.63,1.93-4.02,3.84-5.1.18-.1.31-.14.4-.14.67-.59,1.46-1.2,2.05-1.89.2-.22.37-.46.52-.7.17-.31.28-.63.32-.97,0-.03.01-.07.01-.1v-.02s0-.09,0-.12h0c0-.17-.02-.34-.07-.51,0-.02-.01-.06-.03-.09.05-.01.07-.03.08-.04-.03-.01-.05,0-.09,0-.1.01-.27.05-.44.09-.01,0-.04.02-.06.02-.07.02-.14.04-.21.07-.07.02-.14.04-.2.06-.28.09-.57.19-.84.29,0,0-.02,0-.03.01-.32.11-.65.24-.97.37-1.43.58-2.76,1.28-4.02,2.19-.97.69-1.93,1.48-2.78,2.32-.2.2-.64.54-.58.83,1.3-.47,2.4-1.9,3.83-2.04-.56.84-1.76,1.35-2.52,2.02-.66.59-1.51,1.36-1.81,2.21.83-.52,1.55-1.28,2.35-1.86.77-.56,2.03-1.76,3.05-1.77-.52.92-1.45,1.75-2.12,2.59-.89,1.13-1.84,2.14-3.02,2.97-.86.61-1.85,1.27-2.87,1.75Z"/>
                <path class="cls-41" d="m61.49,195.28s-.03,0-.04,0c.01,0,.02,0,.03.02.06.04.11.08.16.12.12.09.23.19.34.29.15.13.3.27.44.41.01,0,.02,0,.02.01v-.11s-.09-.64-.09-.64v-.1s-.02-.04-.02-.04v-.06c-.29.02-.57.04-.85.1Z"/>
                <path class="cls-41" d="m44.58,189.67c.55.62,1.69.96,2.36,1.5,1.59,1.26,2.9,2.67,4.81,3.46.81.34,1.67.59,2.54.76.77.15,1.7.05,2.42.28-.06.08-.15.15-.24.22.57-.01,1.15-.04,1.73-.08,1.1-.06,2.17-.36,3.25-.52-1.35-1.08-2.96-1.91-4.68-2.07-1.79-.17-3.6.21-5.33-.42-1.66-.61-3.21-1.6-4.82-2.33-.66-.31-1.35-.57-2.05-.79Z"/>
                <path class="cls-41" d="m61.96,195.22c-.18-1.14-1.24-2.26-2.03-3.02-1.09-1.04-2.62-2.37-4.11-2.77.83.99,2.3,1.69,2.84,2.89-1.19-.71-2.32-1.25-3.7-1.52-.75-.14-2.49-.62-3.23-.25,1.72.41,3.43,1.45,4.94,2.31,1.25.71,2.43,1.51,3.48,2.5.39.37,1,.82,1.12,1.38l.69-1.52Z"/>
              </g>
              <path class="cls-38" d="m62.51,194.66c-.2-1.98-.39-4.01-1.06-5.89-.17-.49-.36-.97-.55-1.45.02-.01.04-.02.06-.03.31-.2.4-.65.3-.98-.06-.2-.19-.36-.35-.5-.02-.23-.09-.46-.26-.63-.07-.07-.14-.12-.22-.16.02-.24,0-.48-.08-.7-.07-.2-.19-.38-.37-.48,0-.06,0-.12-.02-.18-.09-.31-.33-.57-.63-.7-.31-.25-.77-.34-1.04.01-.13.17-.03.41.13.48-.01.08-.03.16-.03.25.03.25.22.42.46.44-.32.36.12.93.54.79,0,.02,0,.04,0,.06,0-.13,0,0,0,.02,0,.04-.02.09-.03.13,0-.02-.01.05-.03.09-.17.39.1.75.48.76-.05.21.06.52.28.6,0,0,.05.02.09.03-.01.03-.03.05-.03.08-.1.38.17.67.49.68.18.52.35,1.04.49,1.58.5,1.88.52,3.82.84,5.72.06.34.58.33.55-.03Z"/>
            </g>
            <g>
              <g>
                <path class="cls-29" d="m179.57,183.61c.07,0,.13.02.19.03,0,0,.02,0,.03,0,.98.18,1.92.53,2.86.78,1.23.34,2.45.51,3.77-.09,1.89-.86,3.57-2.67,5.76-2.74.2,0,.34.02.42.06.38.2-.3.85-.49,1.28-.42.92-.6,1.96-.56,2.98.04,1.06.4,2.06.78,3.04.4,1,.69,2,1.02,3.04.35,1.08.96,2.14,1.11,3.27.88-.96,1.69-1.93,2.68-2.78.01-.01.03-.03.04-.04.07-.05.14-.11.21-.17,1.72-1.41,3.98-2.54,4.24-4.97.18-1.58-.31-2.99-1.03-4.31-.11-.21-.23-.42-.36-.63.07.05.14.09.21.14.27.19.53.39.8.59.38.29.76.59,1.12.9.96.8,1.86,1.66,2.7,2.58,0,0,.02.01.03.03.47.5.92,1.02,1.34,1.56.48.6,1.02,1.8,1.65,1.97h0c.25.07.53-.04.82-.42,1.44-1.92,1.22-5.61.72-7.8-.73-3.2-3.72-4.89-6.89-4.75-.24,0-.48.04-.7.08-.27.04-.52.1-.78.17.95-.96,1.79-2.07,2.49-3.02,1.57-2.15,2.06-4.16,1.45-6.76-.3-1.27-1.13-2.85-.99-4.2-.05.06-.1.12-.15.18-2.04,2.36-4.47,4.74-5.79,7.59-.36.78-.64,1.61-.81,2.47-.36-1.27-.83-2.49-1.51-3.56-1.59-2.52-4.02-3.62-6.89-4.12-1.42-.25-3.67-.82-5.14-.37,0,.08.02.15.04.23.2.8,1.06,1.63,1.4,2.42.83,1.85,1.33,3.71,2.67,5.29.57.68,1.2,1.29,1.9,1.84.61.48,1.48.83,2.02,1.36-.09.05-.2.07-.32.09-.72.08-1.8-.34-2.41-.4-1.71-.16-3.45-.12-4.91.91-1.51,1.06-2.07,2.78-3.01,4.27-.48.76-1.13,1.3-1.72,1.96Z"/>
                <path class="cls-36" d="m195.16,179.23c.12.05.24.1.35.14.09.03.18.06.26.08,0,0,.02.01.03.01.05.02.09.03.13.03.27.08.53.12.78.13.06,0,.12,0,.18,0,0,0,.02,0,.02,0h0c.37,0,.74-.06,1.11-.16.5-.14,1.01-.36,1.58-.63.43-.2.83-.42,1.2-.66.44-.27.84-.58,1.22-.94-.27.04-.52.1-.78.17.95-.96,1.79-2.07,2.49-3.02,1.57-2.15,2.06-4.16,1.45-6.76-.3-1.27-1.13-2.85-.99-4.2-.05.06-.1.12-.15.18.01.43.06.85.12,1.26.19,1.43.31,2.93.24,4.37-.1,1.78-.85,3.39-1.95,4.77-.43.55-.9,1.08-1.37,1.61-.21.24-.45.64-.78.67-.06-.36.09-.71.17-1.06.12-.57.16-1.17.42-1.71-.52.37-.97.93-1.4,1.4-.44.49-.84,1.29-1.43,1.59.4-1.81,1.17-3.56,1.84-5.29-.46.11-.88.47-1.19.83-.6.73-1.2,1.62-1.7,2.43-.2.32-.37.66-.54,1.01-.28.63-.54,1.29-.78,1.95-.1.28-.2.56-.3.82l-.02.08-.07.29v.05s-.15.56-.15.56Z"/>
                <path class="cls-36" d="m195.43,179.53c.01.08.03.17.06.24h0s.01.04.02.05c.01.05.03.09.06.13.11.21.28.42.49.6.77.7,2.06,1.21,2.71,1.57.6.32,1.21.6,1.81.89.28.14.56.27.83.42.32.17.63.36.94.57.09.05.18.12.27.18.92.68,1.72,1.5,2.43,2.4,0,0,.02.01.03.03.47.5.92,1.02,1.34,1.56.48.6,1.02,1.8,1.65,1.97-.05-.16-.09-.3-.13-.44-.51-1.7-1.19-3.24-2.3-4.63-1.02-1.29-2.35-2.41-3.65-3.39-.35-.26-1.14-.6-1.27-1.05.46-.44,1.57-.04,2.15-.07-.31-.27-.92-.43-1.34-.56-.3-.1-.88-.11-1.08-.38.42-.35,1.33-.22,1.85-.22,1,0,2.09.48,3.07.32-.29-.58-1.56-.91-2.15-1.11-.79-.28-1.59-.41-2.42-.43h0c-.21,0-.42,0-.63,0-.68.03-2.2.03-2.57.82,0,0-.01.01-.01.02l-.49.11h-.02s-.48.12-.48.12l-.52.11-.27.06h-.03s-.26.07-.26.07l-.08.02Z"/>
                <path class="cls-36" d="m197.32,182.14c.44,1,0,2.46.23,3.54.67-.72.96-2.74.78-3.61,1.26,2.7,1.62,5.95.09,8.65-.33.6-.78,1.18-1.26,1.74.07-.05.14-.11.21-.17,1.72-1.41,3.98-2.54,4.24-4.97.18-1.58-.31-2.99-1.03-4.31.28.14.56.27.83.42-.05-.11-.1-.22-.18-.32-.34-.62-.79-1.19-1.34-1.66l-1.88-1.97-.43-.45-.69-.71-.1-.11c-.17.14-.32.29-.45.45h0s0,.01-.01.02c-.04.05-.08.09-.13.15-.16.2-.29.41-.41.63,0,0,0,.02,0,.02-.05.08-.08.15-.11.23-.04.09-.08.17-.12.26-.13.31-.22.64-.29.98-.35,1.78,0,3.83.41,5.4.34-.4.25-1.41.42-1.93.23-.74.75-1.62,1.21-2.26Z"/>
                <path class="cls-36" d="m179.79,183.64c.98.18,1.92.53,2.86.78,1.23.34,2.45.51,3.77-.09,1.89-.86,3.57-2.67,5.76-2.74.2,0,.34.02.42.06.86-.21,1.85-.39,2.69-.73.28-.1.54-.24.78-.39.29-.19.54-.43.73-.71.02-.03.04-.05.05-.08v-.02s.05-.07.06-.11h0c.07-.15.14-.3.18-.48,0-.03.02-.06.02-.09.05,0,.07,0,.09,0-.02-.02-.04-.03-.08-.05-.09-.04-.26-.08-.43-.12-.02,0-.04,0-.06,0-.08-.01-.14-.03-.22-.03-.07-.01-.14-.03-.21-.04-.29-.05-.59-.1-.88-.14,0,0-.03,0-.03,0-.34-.05-.69-.09-1.03-.12-1.54-.15-3.04-.14-4.58.08-1.18.17-2.39.42-3.54.77-.27.09-.82.19-.89.47,1.37.18,3.01-.58,4.34-.04-.88.49-2.19.38-3.17.62-.85.22-1.97.51-2.63,1.12.98-.08,1.96-.42,2.94-.56.94-.14,2.62-.62,3.52-.16-.89.57-2.09.88-3.07,1.32-1.31.59-2.62,1.04-4.05,1.24-1.04.15-2.23.27-3.36.22Z"/>
                <path class="cls-36" d="m196.36,178.65s-.03-.01-.03-.01c0,0,.02.01.01.03.03.06.06.12.08.18.06.14.12.28.17.41.07.18.14.38.2.56,0,0,.01.01.01.02l.04-.1.22-.6.04-.1v-.04s.03-.06.03-.06c-.26-.12-.52-.22-.79-.3Z"/>
                <path class="cls-36" d="m183.95,165.86c.2.8,1.06,1.63,1.4,2.42.83,1.85,1.33,3.71,2.67,5.29.57.68,1.2,1.29,1.9,1.84.61.48,1.48.83,2.02,1.36-.09.05-.2.07-.32.09.51.25,1.04.49,1.57.73,1.01.45,2.09.68,3.13,1.04-.7-1.58-1.74-3.06-3.19-3.99-1.51-.97-3.29-1.48-4.53-2.84-1.19-1.3-2.11-2.9-3.19-4.29-.45-.58-.94-1.13-1.45-1.65Z"/>
                <path class="cls-36" d="m196.8,178.82c.37-1.09-.06-2.58-.41-3.61-.48-1.43-1.22-3.31-2.37-4.36.28,1.26,1.26,2.56,1.18,3.88-.73-1.18-1.48-2.18-2.58-3.05-.59-.47-1.92-1.7-2.75-1.71,1.34,1.16,2.37,2.87,3.32,4.33.78,1.21,1.45,2.46,1.93,3.82.18.51.51,1.19.36,1.74l1.32-1.03Z"/>
              </g>
              <path class="cls-42" d="m197.55,178.57c.74-1.85,1.51-3.74,1.78-5.72.07-.51.13-1.03.18-1.54.02,0,.04,0,.07,0,.36-.04.65-.39.71-.73.04-.2,0-.41-.08-.6.09-.21.13-.45.06-.68-.03-.09-.07-.17-.12-.24.12-.21.22-.43.26-.65.03-.21,0-.42-.11-.6.02-.06.05-.1.06-.17.06-.32-.03-.66-.23-.92-.16-.36-.52-.66-.93-.47-.19.09-.22.35-.11.48-.05.07-.11.13-.14.21-.09.24,0,.48.21.6-.45.17-.32.88.11.95,0,.02-.02.04-.03.05.07-.12,0,0-.01.02-.03.04-.06.07-.09.1.01-.01-.04.04-.07.07-.33.26-.26.71.08.9-.14.16-.19.49-.03.66,0,0,.04.04.06.07-.02.02-.05.03-.07.06-.26.29-.16.67.13.83-.08.54-.17,1.09-.29,1.63-.42,1.9-1.3,3.63-1.9,5.46-.11.33.36.56.5.23Z"/>
            </g>
            <g>
              <g>
                <path class="cls-17" d="m187.5,191.41c-.07,0-.13,0-.19-.02-.01,0-.02,0-.03,0-1-.07-1.99.05-2.96.07-1.27.03-2.5-.1-3.64-1-1.62-1.29-2.82-3.46-4.93-4.06-.2-.05-.33-.06-.42-.04-.41.1.09.9.17,1.36.19,1,.11,2.05-.17,3.03-.3,1.02-.88,1.91-1.5,2.76-.63.87-1.16,1.77-1.73,2.7-.6.96-1.45,1.84-1.87,2.91-.62-1.14-1.18-2.28-1.93-3.35-.01-.01-.02-.03-.03-.04-.06-.07-.11-.14-.16-.21-1.33-1.79-3.25-3.43-2.91-5.85.21-1.58,1.03-2.82,2.04-3.93.16-.18.33-.35.5-.53-.08.03-.16.06-.24.08-.31.12-.61.25-.92.38-.44.19-.88.39-1.3.6-1.12.54-2.21,1.16-3.25,1.85-.01,0-.02,0-.03.02-.58.37-1.14.77-1.68,1.19-.61.46-1.43,1.5-2.08,1.51h0c-.26,0-.51-.16-.69-.6-.93-2.22.18-5.74,1.2-7.74,1.48-2.93,4.79-3.84,7.83-2.94.23.07.46.15.66.25.25.1.48.22.71.36-.69-1.16-1.23-2.44-1.68-3.54-1.01-2.46-.99-4.54.23-6.91.6-1.16,1.79-2.49,1.98-3.83.03.07.07.14.11.21,1.41,2.78,3.19,5.68,3.78,8.76.16.85.23,1.72.19,2.59.65-1.14,1.41-2.22,2.32-3.09,2.15-2.06,4.78-2.53,7.68-2.32,1.44.1,3.76.09,5.07.89-.02.08-.06.14-.09.21-.39.73-1.42,1.33-1.95,2.01-1.25,1.59-2.19,3.28-3.87,4.49-.71.52-1.48.96-2.29,1.33-.71.32-1.64.45-2.29.84.08.07.18.12.29.16.68.25,1.83.11,2.44.2,1.7.26,3.38.72,4.54,2.07,1.2,1.4,1.34,3.2,1.89,4.88.28.85.78,1.54,1.2,2.32Z"/>
                <path class="cls-24" d="m173.44,183.38c-.13.02-.26.03-.38.05-.1,0-.19.01-.27.01-.01,0-.02,0-.03,0-.05,0-.1,0-.14,0-.28,0-.54-.01-.79-.06-.06-.01-.12-.02-.17-.04-.01,0-.02,0-.02,0h0c-.36-.1-.7-.24-1.04-.42-.45-.25-.9-.6-1.39-.99-.37-.3-.7-.6-1-.93-.36-.37-.68-.77-.95-1.21.25.1.48.22.71.36-.69-1.16-1.23-2.44-1.68-3.54-1.01-2.46-.99-4.54.23-6.91.6-1.16,1.79-2.49,1.98-3.83.03.07.07.14.11.21-.12.41-.27.81-.42,1.19-.53,1.34-1.01,2.76-1.29,4.18-.34,1.75,0,3.5.74,5.1.29.64.62,1.26.94,1.89.15.28.28.73.59.84.14-.33.08-.71.09-1.06.02-.58.13-1.17,0-1.76.41.49.72,1.14,1.01,1.69.31.59.51,1.45,1,1.89.05-1.85-.28-3.74-.5-5.58.41.22.75.67.95,1.1.41.85.77,1.87,1.06,2.77.12.36.2.73.28,1.11.12.68.21,1.39.29,2.08.03.3.06.59.09.87v.09s0,.3,0,.3v.05s0,.57,0,.57Z"/>
                <path class="cls-24" d="m173.1,183.6c-.03.07-.07.15-.12.22h0s-.02.03-.03.04c-.03.04-.05.08-.09.11-.16.18-.37.34-.62.46-.92.49-2.3.68-3.01.86-.66.17-1.32.29-1.97.43-.3.07-.61.13-.91.21-.36.09-.7.19-1.05.33-.1.03-.2.07-.31.11-1.06.44-2.03,1.03-2.94,1.73-.01,0-.02,0-.03.02-.58.37-1.14.77-1.68,1.19-.61.46-1.43,1.5-2.08,1.51.08-.14.16-.27.24-.39.9-1.53,1.95-2.86,3.35-3.94,1.3-1,2.87-1.76,4.36-2.4.4-.17,1.25-.3,1.48-.71-.34-.54-1.51-.42-2.07-.59.37-.19,1-.19,1.43-.22.31-.02.88.1,1.14-.1-.32-.44-1.24-.54-1.74-.66-.97-.24-2.14-.04-3.05-.43.43-.5,1.73-.51,2.35-.56.83-.08,1.64-.01,2.45.17h0c.21.05.41.11.61.16.65.19,2.13.57,2.3,1.42,0,.01.01.01,0,.02l.45.22h.02s.44.24.44.24l.48.24.24.12h.03s.24.13.24.13l.07.04Z"/>
                <path class="cls-24" d="m170.64,185.68c-.67.87-.6,2.39-1.08,3.38-.48-.86-.27-2.89.11-3.69-1.88,2.31-3.01,5.38-2.18,8.37.18.66.47,1.33.8,1.99-.06-.07-.11-.14-.16-.21-1.33-1.79-3.25-3.43-2.91-5.85.21-1.58,1.03-2.82,2.04-3.93-.3.07-.61.13-.91.21.08-.1.15-.19.25-.27.48-.52,1.06-.96,1.7-1.28l2.3-1.46.53-.33.85-.53.12-.08c.13.17.24.36.32.55h0s0,.01,0,.02c.03.06.06.11.09.17.11.23.18.47.24.71,0,.01,0,.02,0,.02.03.09.04.16.05.25.02.1.04.19.05.28.05.33.06.67.05,1.02-.09,1.81-.92,3.71-1.71,5.14-.24-.47.1-1.43.06-1.98-.04-.77-.34-1.76-.63-2.48Z"/>
                <path class="cls-24" d="m187.28,191.39c-1-.07-1.99.05-2.96.07-1.27.03-2.5-.1-3.64-1-1.62-1.29-2.82-3.46-4.93-4.06-.2-.05-.33-.06-.42-.04-.79-.41-1.7-.83-2.43-1.36-.24-.17-.47-.36-.67-.56-.23-.26-.42-.54-.53-.87-.01-.03-.03-.06-.03-.09v-.02s-.03-.08-.03-.12h0c-.03-.16-.06-.33-.05-.51,0-.03,0-.06,0-.09-.05,0-.07-.01-.09-.02.02-.02.05-.01.09-.03.1-.01.27-.01.45-.01.01,0,.04,0,.06,0,.08,0,.14,0,.22.02.07,0,.14,0,.21.02.29.02.6.05.89.08,0,0,.03,0,.03,0,.34.03.69.08,1.03.13,1.53.23,2.98.6,4.42,1.19,1.1.45,2.22.99,3.25,1.61.24.15.75.38.75.67-1.38-.16-2.78-1.29-4.2-1.09.74.69,2.03.9,2.92,1.37.78.42,1.78.97,2.28,1.73-.93-.32-1.8-.89-2.72-1.26-.88-.36-2.39-1.24-3.37-1.01.72.77,1.82,1.36,2.66,2.02,1.13.89,2.29,1.65,3.63,2.19.98.4,2.1.8,3.2,1.03Z"/>
                <path class="cls-24" d="m172.41,182.53s.03,0,.04,0c-.01,0-.02,0-.02.03-.05.05-.09.1-.12.16-.09.12-.18.24-.27.36-.12.16-.23.33-.33.5-.01,0-.01.01-.02.02l-.02-.11-.07-.64-.02-.1v-.04s0-.06,0-.06c.28-.05.56-.09.84-.1Z"/>
                <path class="cls-24" d="m187.55,173.13c-.39.73-1.42,1.33-1.95,2.01-1.25,1.59-2.19,3.28-3.87,4.49-.71.52-1.48.96-2.29,1.33-.71.32-1.64.45-2.29.84.08.07.18.12.29.16-.56.12-1.13.23-1.7.33-1.09.19-2.2.15-3.29.25,1.06-1.37,2.43-2.55,4.07-3.1,1.7-.58,3.55-.64,5.09-1.66,1.47-.98,2.75-2.31,4.14-3.39.57-.45,1.18-.87,1.81-1.25Z"/>
                <path class="cls-24" d="m171.95,182.58c-.09-1.14.68-2.49,1.27-3.41.81-1.27,1.99-2.91,3.35-3.66-.57,1.16-1.84,2.18-2.09,3.48.99-.97,1.96-1.76,3.24-2.34.69-.31,2.27-1.19,3.08-1-1.58.8-3,2.21-4.27,3.4-1.05.99-2.01,2.03-2.8,3.24-.29.45-.78,1.04-.77,1.6l-1.03-1.32Z"/>
              </g>
              <path class="cls-42" d="m171.82,182.06c-.14-1.93-.57-3.82-.52-5.76.01-.56.05-1.11.11-1.65.31-.08.51-.43.32-.77-.01-.03-.03-.05-.05-.07.03-.02.07-.04.08-.05.19-.13.23-.46.13-.65.37-.1.55-.52.29-.85-.03-.04-.06-.1-.05-.08-.02-.04-.04-.08-.06-.12-.01-.02-.04-.15,0-.02,0-.02-.01-.04-.02-.06.43.04.73-.62.34-.89.24-.07.38-.28.35-.53-.01-.08-.05-.16-.08-.24.14-.1.17-.36.01-.5-.35-.28-.77-.08-1.01.23-.26.2-.43.51-.45.83,0,.06.01.12.02.18-.15.14-.23.35-.25.55-.02.23.02.47.09.7-.07.06-.12.12-.17.21-.13.21-.15.44-.11.67-.12.16-.21.36-.23.56-.02.35.17.76.52.88.02,0,.04,0,.07.01-.08.51-.14,1.03-.2,1.54-.21,1.99.08,4.01.35,5.98.05.36.56.24.54-.1Z"/>
            </g>
          </g>
        </g>
      </g>
    </g>
  </g>
</svg>