<?xml version="1.0" encoding="UTF-8"?>
<svg xmlns="http://www.w3.org/2000/svg" viewBox="0 0 220 220">
  <defs>
    <style>
      .cls-1, .cls-2, .cls-3, .cls-4 {
        mix-blend-mode: screen;
      }

      .cls-1, .cls-5 {
        opacity: .4;
      }

      .cls-6, .cls-7 {
        fill: #fff2de;
      }

      .cls-8 {
        opacity: .7;
      }

      .cls-8, .cls-9, .cls-10 {
        mix-blend-mode: multiply;
      }

      .cls-2, .cls-4 {
        opacity: .2;
      }

      .cls-11 {
        fill: #684130;
      }

      .cls-12 {
        fill: #797c51;
      }

      .cls-13 {
        isolation: isolate;
      }

      .cls-14 {
        fill: #c0ded8;
      }

      .cls-15 {
        fill: #8cad66;
      }

      .cls-16 {
        fill: #774e34;
      }

      .cls-17 {
        fill: #633e2a;
      }

      .cls-18 {
        fill: #845b41;
      }

      .cls-3, .cls-9, .cls-10, .cls-7 {
        opacity: .3;
      }

      .cls-3, .cls-4 {
        fill: #c47442;
      }

      .cls-19 {
        fill: #a4c9bf;
      }

      .cls-20 {
        fill: #996d4f;
      }

      .cls-21 {
        fill: #332722;
      }

      .cls-22 {
        fill: #7e8252;
      }

      .cls-23 {
        fill: #cbdffd;
      }

      .cls-24 {
        fill: #efe1ce;
      }

      .cls-25 {
        fill: #718c4b;
      }

      .cls-26 {
        fill: #d1c1b0;
      }

      .cls-10, .cls-27 {
        fill: #966948;
      }

      .cls-28 {
        fill: #a7c3e5;
      }

      .cls-29 {
        fill: #d9e5d1;
      }

      .cls-30 {
        fill: #b29c8a;
      }

      .cls-31 {
        fill: #377f65;
      }
    </style>
  </defs>
  <g class="cls-13">
    <g id="Layer_2" data-name="Layer 2">
      <g id="_2" data-name="2">
        <g>
          <circle class="cls-29" cx="110" cy="110" r="110"/>
          <g>
            <g>
              <g>
                <path class="cls-11" d="m24.79,89.03c-.55,0-1.07-.29-1.35-.81-.4-.75-.12-1.67.63-2.07.38-.2,38.19-20.19,92.19-26.73.82-.11,1.6.5,1.7,1.34.1.84-.5,1.6-1.34,1.7-53.44,6.47-90.74,26.19-91.11,26.39-.23.12-.48.18-.72.18Z"/>
                <path class="cls-11" d="m25.66,82.21c-.49,0-.98-.24-1.28-.68-.47-.7-.28-1.65.43-2.12.35-.23,35.27-23.17,83.21-28.94.82-.08,1.6.5,1.7,1.34.1.84-.5,1.6-1.34,1.7-47.22,5.68-81.54,28.22-81.88,28.44-.26.17-.56.26-.85.26Z"/>
                <path class="cls-11" d="m112.86,126.04c-.64,0-1.23-.4-1.45-1.03-20.53-60.02-39.76-83.86-39.95-84.09-.54-.65-.44-1.62.21-2.15.65-.53,1.62-.44,2.15.21.8.97,19.78,24.5,40.49,85.04.27.8-.15,1.67-.95,1.95-.17.06-.33.08-.5.08Z"/>
                <path class="cls-11" d="m54.9,138.38c-.53,0-1.04-.27-1.33-.76-.42-.73-.17-1.67.56-2.09,44.3-25.68,66.92-65.35,67.14-65.75.41-.74,1.35-.99,2.08-.59.74.41,1,1.35.59,2.08-.23.4-23.26,40.8-68.28,66.9-.24.14-.51.21-.77.21Z"/>
                <path class="cls-11" d="m95.82,136.93c-37.34,0-65.81-21.17-66.1-21.39-.67-.51-.81-1.47-.3-2.14.51-.68,1.47-.81,2.14-.3.29.22,29.47,21.93,67.26,20.73.82,0,1.55.64,1.58,1.48.03.85-.64,1.55-1.48,1.58-1.04.03-2.07.05-3.1.05Z"/>
                <path class="cls-11" d="m108.61,130.2s-.06,0-.09,0c-55.83-3.32-82.71-24.42-83.82-25.32-.66-.53-.76-1.49-.24-2.15.53-.66,1.49-.77,2.15-.24.27.21,27.32,21.39,82.09,24.65.84.05,1.49.78,1.44,1.62-.05.81-.72,1.44-1.53,1.44Z"/>
                <path class="cls-11" d="m79.22,142.53c-.53,0-1.04-.28-1.33-.77-25.76-44.74-23.88-98.33-23.86-98.87.03-.85.71-1.54,1.59-1.47.84.03,1.5.75,1.47,1.59-.02.53-1.85,53.26,23.45,97.22.42.73.17,1.67-.56,2.09-.24.14-.5.2-.76.2Z"/>
                <path class="cls-11" d="m68.12,141.81c-.55,0-1.08-.29-1.35-.81-24.38-45.78-19.41-93.39-19.36-93.87.09-.84.85-1.44,1.69-1.35.84.09,1.44.85,1.35,1.69-.05.47-4.9,47.17,19.02,92.09.4.75.11,1.67-.63,2.07-.23.12-.48.18-.72.18Z"/>
                <path class="cls-11" d="m40.96,128.34c-.61,0-1.18-.36-1.42-.96-16.05-39.66-6.1-67.26-5.67-68.41.3-.79,1.18-1.19,1.97-.9.79.29,1.19,1.17.9,1.97-.1.27-9.94,27.71,5.64,66.2.32.78-.06,1.68-.84,1.99-.19.08-.38.11-.57.11Z"/>
                <path class="cls-11" d="m88.86,140.84c-.45,0-.89-.2-1.19-.57-.53-.66-.42-1.62.23-2.15.27-.22,26.62-22.24,23.43-81.53-.05-.84.6-1.56,1.45-1.61.83-.06,1.56.6,1.61,1.45,3.27,61-23.43,83.16-24.57,84.08-.28.23-.62.34-.96.34Z"/>
                <path class="cls-11" d="m125.61,98.06s-.09,0-.14,0c-62.16-5.71-99.29-1.9-99.65-1.86-.85.09-1.6-.52-1.68-1.36-.09-.84.52-1.59,1.36-1.68.37-.04,37.8-3.88,100.26,1.86.84.08,1.46.82,1.39,1.66-.07.8-.74,1.39-1.52,1.39Z"/>
                <path class="cls-11" d="m119.93,115.85c-.26,0-.53-.07-.77-.21-47.14-27.65-58-73.34-58.1-73.79-.19-.82.33-1.64,1.15-1.83.83-.18,1.64.33,1.83,1.15.1.45,10.71,44.88,56.67,71.83.73.43.97,1.37.54,2.09-.29.48-.8.76-1.32.76Z"/>
                <path class="cls-11" d="m46.69,133.8c-.45,0-.89-.2-1.2-.57-.53-.66-.42-1.62.24-2.15,37.13-29.73,45.41-87.74,45.49-88.33.11-.84.88-1.43,1.72-1.31.84.11,1.42.88,1.31,1.72-.08.59-8.54,59.82-46.61,90.3-.28.23-.62.33-.96.33Z"/>
              </g>
              <g>
                <path class="cls-20" d="m87.54,64.99c-.26,0-.52-.07-.76-.2-21.01-12.05-39-14.5-39.18-14.52-.84-.11-1.43-.88-1.32-1.72.11-.84.87-1.43,1.71-1.32.76.1,18.78,2.56,40.31,14.9.73.42.99,1.36.57,2.09-.28.49-.8.77-1.33.77Z"/>
                <path class="cls-20" d="m97.82,101.1c-.3,0-.6-.09-.86-.27-.7-.48-.87-1.43-.39-2.13,15.63-22.77,15.59-41.06,15.59-41.24,0-.84.67-1.54,1.51-1.55.77,0,1.54.66,1.55,1.51.01.78.1,19.38-16.12,43.02-.3.43-.78.66-1.26.66Z"/>
                <path class="cls-20" d="m91.53,118.2s-.1,0-.15,0c-28.69-2.69-38.4-13.68-38.8-14.14-.55-.64-.47-1.61.17-2.16.64-.55,1.61-.48,2.16.16.14.16,9.53,10.53,36.76,13.09.84.08,1.46.82,1.38,1.67-.08.79-.74,1.39-1.52,1.39Z"/>
                <path class="cls-20" d="m33.29,79.7c-.07,0-.15,0-.22-.02-.84-.12-1.41-.9-1.29-1.74.1-.69,2.6-17.09,13.76-30.19.55-.64,1.52-.72,2.16-.17.64.55.72,1.51.17,2.16-10.57,12.41-13.03,28.49-13.06,28.65-.11.76-.77,1.31-1.51,1.31Z"/>
                <path class="cls-20" d="m39.15,114.92c-.68,0-1.3-.45-1.48-1.14-1.95-7.44-.1-16.38-.02-16.76.18-.83.99-1.37,1.81-1.18.83.18,1.36.99,1.18,1.81-.02.09-1.78,8.62-.02,15.35.21.82-.27,1.65-1.09,1.87-.13.03-.26.05-.39.05Z"/>
                <path class="cls-20" d="m44.77,115.85c-.7,0-1.34-.49-1.49-1.2-1.91-8.64-.92-17.13-.88-17.49.1-.84.86-1.44,1.7-1.34.84.1,1.44.86,1.34,1.7,0,.08-.96,8.35.83,16.47.18.83-.34,1.64-1.16,1.82-.11.02-.22.04-.33.04Z"/>
              </g>
              <g class="cls-1">
                <path class="cls-20" d="m88.26,63.5c-.09,0-.17-.02-.25-.07-21.17-12.14-39.79-14.91-39.97-14.94-.28-.04-.47-.3-.43-.58.04-.28.3-.48.58-.43.19.03,18.99,2.82,40.34,15.06.24.14.33.45.19.7-.09.17-.27.26-.44.26Z"/>
                <path class="cls-20" d="m97.45,99.6c-.1,0-.2-.03-.29-.09-.23-.16-.29-.48-.13-.71,15.84-23.08,15.59-41.5,15.59-41.68,0-.28.22-.51.5-.52.33-.01.51.22.52.5,0,.19.27,18.91-15.77,42.28-.1.14-.26.22-.42.22Z"/>
                <path class="cls-20" d="m92.04,116.69s-.03,0-.05,0c-28.28-2.65-38.11-13.19-38.52-13.64-.19-.21-.17-.53.04-.72.21-.19.53-.17.72.04.1.11,10.02,10.7,37.86,13.31.28.03.49.28.46.56-.03.27-.25.46-.51.46Z"/>
                <path class="cls-20" d="m32.68,78.98s-.05,0-.07,0c-.28-.04-.47-.3-.43-.58.02-.17,2.53-16.9,13.5-29.79.18-.21.51-.24.72-.06.21.18.24.5.06.72-10.77,12.65-13.24,29.1-13.26,29.27-.04.26-.26.44-.5.44Z"/>
                <path class="cls-20" d="m38.32,113.9c-.24,0-.46-.17-.5-.42-1.44-7.75-.02-16.15,0-16.24.05-.28.32-.47.59-.41.28.05.46.31.42.59-.01.08-1.41,8.31,0,15.87.05.28-.13.54-.41.6-.03,0-.06,0-.09,0Z"/>
                <path class="cls-20" d="m44.2,114.83c-.23,0-.44-.16-.5-.4-1.87-8.47-.96-17.42-.95-17.51.03-.28.28-.49.56-.45.28.03.48.28.45.56,0,.09-.89,8.88.94,17.19.06.27-.11.55-.39.61-.04,0-.07.01-.11.01Z"/>
              </g>
              <g>
                <path class="cls-18" d="m75.33,142.68c-28.76,0-52.17-23.4-52.17-52.17s23.4-52.17,52.17-52.17,52.17,23.4,52.17,52.17-23.4,52.17-52.17,52.17Zm0-101.27c-27.08,0-49.11,22.03-49.11,49.11s22.03,49.11,49.11,49.11,49.11-22.03,49.11-49.11-22.03-49.11-49.11-49.11Z"/>
                <path class="cls-18" d="m46.38,136.18c-.43,0-.86-.18-1.16-.53-.55-.64-.48-1.61.16-2.16,43.37-37.55,63.06-81.79,63.25-82.23.34-.78,1.24-1.13,2.01-.79.78.34,1.13,1.24.79,2.01-.2.45-20.17,45.32-64.05,83.32-.29.25-.65.37-1,.37Z"/>
                <path class="cls-18" d="m103.78,136.21c-.76,0-1.42-.57-1.52-1.35-7.02-58.45-28.04-95.83-28.25-96.2-.42-.74-.16-1.67.57-2.09.74-.41,1.67-.16,2.09.57.21.38,21.54,38.25,28.63,97.36.1.84-.5,1.6-1.34,1.7-.06,0-.12,0-.19,0Z"/>
                <path class="cls-18" d="m24.7,98.87c-.82,0-1.5-.65-1.53-1.48-.03-.84.63-1.55,1.48-1.58,54.08-1.89,96.81-24.58,97.24-24.81.75-.4,1.67-.12,2.07.62.4.74.12,1.67-.62,2.07-.43.23-43.76,23.26-98.58,25.18h-.05Z"/>
                <path class="cls-18" d="m71.38,142.68c-.46,0-.91-.2-1.21-.59-27.33-35.21-23.83-95.9-23.79-96.5.05-.84.75-1.5,1.62-1.43.84.05,1.48.78,1.43,1.62-.04.6-3.47,60.15,23.15,94.43.52.67.4,1.63-.27,2.15-.28.22-.61.32-.94.32Z"/>
                <path class="cls-18" d="m72.64,124.86c-25.84,0-39.9-5.64-40.76-5.99-.78-.32-1.15-1.22-.83-2,.32-.78,1.21-1.15,2-.83.3.12,30.77,12.27,84.34.67.83-.17,1.64.35,1.82,1.17.18.83-.35,1.64-1.17,1.82-17.76,3.84-32.95,5.16-45.4,5.16Z"/>
                <path class="cls-18" d="m24.7,84.72c-.47,0-.93-.21-1.23-.61-.51-.68-.37-1.64.31-2.14.34-.25,34.54-25.23,96.35-16.98.84.11,1.42.88,1.31,1.72-.11.84-.88,1.43-1.72,1.31-60.58-8.09-93.78,16.15-94.11,16.39-.28.21-.6.31-.92.31Z"/>
                <path class="cls-18" d="m36.43,127.06c-.38,0-.77-.14-1.07-.43-.61-.59-.62-1.56-.03-2.16,35.71-36.73,45.16-85.86,45.25-86.36.15-.83.97-1.38,1.78-1.23.83.15,1.38.95,1.23,1.78-.09.5-9.69,50.52-46.07,87.93-.3.31-.7.46-1.1.46Z"/>
                <path class="cls-18" d="m42.15,130.29c-.38,0-.77-.14-1.06-.43-.61-.59-.63-1.56-.04-2.16,40.91-42.41,53.2-83.51,53.32-83.92.24-.81,1.09-1.28,1.9-1.04.81.24,1.28,1.08,1.04,1.9-.12.42-12.59,42.21-54.06,85.19-.3.31-.7.47-1.1.47Z"/>
                <path class="cls-18" d="m72.43,118.9c-15.09,0-31.37-1.5-45.16-6.23-.8-.27-1.23-1.15-.95-1.95s1.14-1.22,1.94-.95c36.68,12.58,91.64,1.75,92.19,1.64.82-.16,1.64.37,1.8,1.2.17.83-.37,1.63-1.2,1.8-.35.07-22.74,4.48-48.62,4.48Z"/>
                <path class="cls-18" d="m23.68,94.79c-.76,0-1.42-.56-1.52-1.34-.11-.84.49-1.61,1.33-1.71.64-.08,64.15-8.28,96.56-25.01.75-.39,1.68-.09,2.06.66.39.75.09,1.67-.66,2.06-32.89,16.97-96.93,25.24-97.58,25.33-.06,0-.13.01-.19.01Z"/>
                <path class="cls-18" d="m82.1,142.68c-.47,0-.94-.22-1.24-.63-30.84-42.26-27.37-98.63-27.33-99.2.06-.84.8-1.48,1.63-1.42.84.06,1.48.79,1.42,1.63-.04.55-3.42,55.84,26.75,97.18.5.68.35,1.64-.33,2.14-.27.2-.59.29-.9.29Z"/>
                <path class="cls-18" d="m92.43,139.71c-.33,0-.66-.11-.94-.33-.66-.52-.78-1.48-.26-2.15,26.36-33.52,8.83-89.16,8.65-89.71-.26-.81.18-1.67.99-1.93.8-.25,1.67.18,1.93.99.76,2.34,18.21,57.76-9.15,92.55-.3.38-.75.58-1.21.58Z"/>
                <path class="cls-18" d="m26.97,107.08c-.17,0-.35-.03-.52-.09-.79-.29-1.2-1.17-.91-1.96.73-1.99,18.08-49.1,43.69-67.12.69-.49,1.65-.32,2.13.37.49.69.32,1.65-.37,2.13-24.82,17.47-42.4,65.18-42.58,65.66-.23.62-.81,1.01-1.44,1.01Z"/>
                <path class="cls-18" d="m125.97,106.14s-.1,0-.14,0c-63.13-5.89-94.24-43.19-94.55-43.57-.53-.66-.44-1.62.22-2.15.65-.53,1.62-.44,2.15.22.3.37,30.67,36.69,92.46,42.45.84.08,1.46.83,1.38,1.67-.07.79-.74,1.39-1.52,1.39Z"/>
                <path class="cls-18" d="m127.5,92.06s-.07,0-.1,0c-68.03-4.41-91.24-34.22-92.19-35.49-.51-.67-.37-1.63.3-2.14.67-.51,1.63-.38,2.14.3.23.3,23.46,29.97,89.95,34.28.84.05,1.48.78,1.43,1.63-.05.81-.73,1.43-1.52,1.43Z"/>
                <g class="cls-2">
                  <path class="cls-18" d="m75.33,141.04c-28.2,0-51.15-22.94-51.15-51.15s22.94-51.15,51.15-51.15,51.15,22.94,51.15,51.15-22.94,51.15-51.15,51.15Zm0-101.27c-27.64,0-50.13,22.49-50.13,50.13s22.49,50.13,50.13,50.13,50.13-22.49,50.13-50.13-22.49-50.13-50.13-50.13Z"/>
                  <path class="cls-18" d="m45.62,135.16c-.14,0-.29-.06-.39-.18-.18-.21-.16-.54.05-.72,43.53-37.69,64.08-82.76,64.28-83.21.12-.26.42-.37.68-.26.26.12.37.42.26.68-.2.45-20.84,45.72-64.55,83.56-.1.08-.22.12-.33.12Z"/>
                  <path class="cls-18" d="m104.54,135.19c-.26,0-.48-.19-.51-.45-7.05-58.7-28.92-97.17-29.14-97.55-.14-.25-.06-.56.19-.7.24-.14.56-.06.7.19.22.38,22.2,39.04,29.27,97.94.03.28-.17.53-.44.57-.02,0-.04,0-.06,0Z"/>
                  <path class="cls-18" d="m24.7,97.24c-.27,0-.5-.22-.51-.49-.01-.28.21-.52.49-.53,54.34-1.9,97.26-24.7,97.69-24.93.24-.14.56-.04.69.21.13.25.04.56-.21.69-.43.23-43.55,23.15-98.13,25.05h-.02Z"/>
                  <path class="cls-18" d="m71.38,141.04c-.15,0-.3-.07-.4-.2-27.1-34.91-23.61-95.21-23.58-95.81.02-.28.23-.52.54-.48.28.02.5.26.48.54-.04.6-3.5,60.52,23.36,95.12.17.22.13.54-.09.72-.09.07-.2.11-.31.11Z"/>
                  <path class="cls-18" d="m73.02,123.15c-26.19,0-40.53-5.75-40.74-5.84-.26-.11-.38-.41-.28-.67.11-.26.41-.38.67-.28.3.13,31,12.41,84.95.73.27-.06.55.12.61.39.06.27-.12.55-.39.61-17.42,3.77-32.44,5.06-44.81,5.06Z"/>
                  <path class="cls-18" d="m24.7,83.09c-.15,0-.31-.07-.41-.21-.17-.23-.12-.54.1-.71.33-.25,34.2-24.99,95.61-16.78.28.04.47.29.44.57-.04.28-.28.46-.57.44-61-8.15-94.53,16.34-94.86,16.59-.09.07-.2.1-.31.1Z"/>
                  <path class="cls-18" d="m35.58,126.04c-.13,0-.26-.05-.36-.14-.2-.2-.21-.52,0-.72,35.96-36.98,46.28-87,46.38-87.5.05-.28.31-.45.6-.4.28.06.46.32.4.6-.1.5-10.48,50.82-46.65,88.01-.1.1-.23.16-.37.16Z"/>
                  <path class="cls-18" d="m42.15,128.66c-.13,0-.26-.05-.35-.14-.2-.2-.21-.52-.01-.72,41.11-42.61,53.44-83.93,53.56-84.34.08-.27.37-.43.63-.35.27.08.43.36.35.63-.12.41-12.51,41.96-53.81,84.77-.1.1-.23.16-.37.16Z"/>
                  <path class="cls-18" d="m71.88,117.27c-15.12,0-31.39-1.49-45.07-6.18-.27-.09-.41-.38-.32-.65.09-.27.38-.42.65-.32,36.94,12.66,92.95,1.79,93.51,1.68.29-.05.54.12.6.4.06.28-.13.55-.4.6-.36.07-22.98,4.46-48.97,4.46Z"/>
                  <path class="cls-18" d="m23.68,93.16c-.25,0-.47-.19-.51-.45-.04-.28.16-.53.44-.57.64-.08,64.33-8.31,96.9-25.11.24-.13.56-.03.69.22.13.25.03.56-.22.69-32.73,16.89-96.6,25.14-97.24,25.22-.02,0-.04,0-.06,0Z"/>
                  <path class="cls-18" d="m82.09,141.04c-.16,0-.31-.07-.41-.21-30.62-41.96-27.17-97.96-27.14-98.52.02-.28.27-.53.54-.47.28.02.49.26.47.54-.04.56-3.46,56.2,26.94,97.85.17.23.12.55-.11.71-.09.07-.2.1-.3.1Z"/>
                  <path class="cls-18" d="m92.43,138.08c-.11,0-.22-.04-.31-.11-.22-.17-.26-.49-.09-.72,26.69-33.94,9-90.1,8.81-90.66-.09-.27.06-.56.33-.64.27-.08.56.06.64.33.18.57,18.04,57.24-8.98,91.6-.1.13-.25.2-.4.2Z"/>
                  <path class="cls-18" d="m26.97,105.45c-.06,0-.12,0-.17-.03-.27-.1-.4-.39-.3-.66.18-.48,17.97-48.79,43.32-66.63.23-.17.55-.11.71.12.16.23.11.55-.12.71-25.08,17.66-42.77,65.67-42.95,66.15-.08.21-.27.33-.48.33Z"/>
                  <path class="cls-18" d="m126.57,104.5s-.03,0-.05,0c-62.7-5.85-94.59-42.86-94.9-43.23-.18-.22-.15-.54.06-.72.22-.18.54-.15.72.06.31.37,31.96,37.06,94.22,42.87.28.03.49.28.46.56-.02.26-.25.46-.51.46Z"/>
                  <path class="cls-18" d="m128.01,90.43s-.02,0-.03,0c-67.56-4.38-92.13-35.18-92.37-35.49-.17-.22-.13-.54.09-.72.22-.17.54-.14.72.09.24.31,24.58,30.75,91.63,35.1.28.02.49.26.47.54-.02.27-.24.48-.51.48Z"/>
                </g>
              </g>
              <g>
                <path class="cls-20" d="m95.84,140.84c-.54,0-1.06-.28-1.34-.78-26.48-47.4-34.51-99.44-34.59-99.96-.13-.84.45-1.62,1.29-1.74.82-.13,1.62.45,1.74,1.29.08.51,8.03,52.03,34.23,98.92.41.74.15,1.67-.59,2.08-.24.13-.49.2-.75.2Z"/>
                <path class="cls-20" d="m108.2,132.77c-.47,0-.94-.22-1.24-.63-29.34-40.24-41.46-92.12-41.58-92.64-.19-.82.33-1.65,1.15-1.84.83-.19,1.65.33,1.83,1.15.12.51,12.11,51.8,41.07,91.52.5.68.35,1.64-.34,2.14-.27.2-.59.29-.9.29Z"/>
                <path class="cls-20" d="m61.43,141.81c-.63,0-1.22-.39-1.44-1.02-.28-.8.14-1.67.94-1.95.48-.17,48.18-17.25,64.23-54.99.33-.78,1.23-1.13,2.01-.81.78.33,1.14,1.23.81,2.01-16.59,38.99-65.54,56.5-66.04,56.68-.17.06-.34.09-.51.09Z"/>
                <path class="cls-20" d="m42.15,131.6c-.73,0-1.38-.53-1.51-1.28-.14-.84.42-1.62,1.26-1.76,55.4-9.28,81.73-52.93,81.99-53.37.43-.73,1.37-.98,2.09-.54.73.43.97,1.37.54,2.09-.27.45-27.33,45.33-84.12,54.84-.09.02-.17.02-.25.02Z"/>
                <path class="cls-20" d="m27.76,110.49c-.24,0-.49-.06-.72-.18-.75-.4-1.03-1.33-.63-2.07.47-.88,12.21-21.93,77.78-60.81.73-.43,1.67-.19,2.1.54.43.73.19,1.67-.54,2.1C40.92,88.51,29.22,109.47,29.11,109.68c-.28.52-.8.81-1.35.81Z"/>
                <path class="cls-20" d="m23.68,100.12c-.31,0-.63-.1-.9-.29-.68-.5-.84-1.45-.34-2.14.26-.36,26.67-36.22,74.83-54.91.78-.3,1.67.08,1.98.87.3.79-.09,1.67-.87,1.98C51.09,63.99,25.17,99.13,24.92,99.48c-.3.41-.77.63-1.24.63Z"/>
              </g>
              <g class="cls-1">
                <path class="cls-20" d="m95.53,140.79c-.18,0-.35-.09-.44-.26-26.39-47.24-34.42-100.76-34.5-101.29-.04-.28.15-.54.43-.58.27-.05.54.15.58.43.08.53,8.08,53.88,34.38,100.94.14.25.05.56-.2.69-.08.05-.17.07-.25.07Z"/>
                <path class="cls-20" d="m108.2,132.34c-.16,0-.31-.07-.41-.21-29.22-40.07-41.8-93.1-41.92-93.63-.06-.27.11-.55.38-.61.28-.07.55.11.61.38.12.53,12.66,53.36,41.75,93.26.17.23.12.55-.11.71-.09.07-.2.1-.3.1Z"/>
                <path class="cls-20" d="m60.37,140.42c-.21,0-.41-.13-.48-.34-.09-.27.05-.56.31-.65.49-.17,49.07-17.76,65.3-55.93.11-.26.42-.37.67-.27.26.11.38.41.27.67-16.42,38.58-65.41,56.31-65.9,56.49-.06.02-.11.03-.17.03Z"/>
                <path class="cls-20" d="m41.36,130.22c-.24,0-.46-.18-.5-.43-.05-.28.14-.54.42-.59,55.84-9.35,83.22-53.9,83.49-54.35.15-.24.46-.32.7-.17.24.14.32.46.17.7-.27.45-27.87,45.4-84.19,54.83-.03,0-.06,0-.09,0Z"/>
                <path class="cls-20" d="m26.97,109.47c-.08,0-.17-.02-.25-.06-.25-.14-.34-.45-.2-.69.12-.22,12.87-22.43,78.18-61.16.24-.14.55-.07.7.18.14.24.06.56-.18.7C40.15,87.02,27.54,108.99,27.42,109.2c-.09.17-.27.26-.45.26Z"/>
                <path class="cls-20" d="m22.91,99.09c-.1,0-.21-.03-.3-.1-.23-.17-.28-.49-.11-.71.27-.36,27.26-36.69,75.14-55.28.27-.1.56.03.66.29.1.26-.03.56-.29.66C50.4,62.44,23.59,98.52,23.32,98.89c-.1.14-.26.21-.41.21Z"/>
              </g>
            </g>
            <g>
              <path class="cls-26" d="m171.82,52.22h-61.62s3.07,95.26,3.07,95.28c0,.91,11.46,4.02,27.69,4.02s27.35-3.04,27.66-3.99l3.2-95.32Z"/>
              <path class="cls-7" d="m112.13,53.12l4.19,94.01s14.62,4.2,36.05,2.21l3.4-94.35s-24.57,2.07-43.64-1.86Z"/>
              <path class="cls-24" d="m171.82,52.22c0,1.53-13.79,5.96-30.81,5.96s-30.81-4.43-30.81-5.96,13.79-5.16,30.81-5.16,30.81,3.63,30.81,5.16Z"/>
              <path class="cls-6" d="m141.01,47.06c-17.02,0-30.81,3.63-30.81,5.16s13.79,5.96,30.81,5.96,30.81-4.43,30.81-5.96-13.79-5.16-30.81-5.16Zm0,9.17c-14.73,0-26.67-2.64-26.67-3.96s11.94-4.47,26.67-4.47,26.67,3.14,26.67,4.47-11.94,3.96-26.67,3.96Z"/>
              <path class="cls-24" d="m114.34,52.28s11.88-7.84,27.16-7.84,26.17,7.84,26.17,7.84h-53.34Z"/>
              <g class="cls-5">
                <path class="cls-26" d="m167.68,52.28s.07-.38-1.07-.84c-2.36-1.08-11.59-7-25.1-7-.14,0-.28.01-.42.01l-.07,2.96s22.36,5.62-11.29,8.31c5.24.48,15.11.73,23.36-.1,5.33-.53,14.63-2.21,14.6-3.34Z"/>
              </g>
              <path class="cls-26" d="m149.61,45.93c0,.38-3.85,1.48-8.6,1.48s-8.6-1.1-8.6-1.48,3.85-1.29,8.6-1.29,8.6.9,8.6,1.29Z"/>
              <g>
                <path class="cls-21" d="m144.57,34.7c-2.32,4.14-2.85,11.67-3.13,11.67s-.89-7.24.6-12.4l2.52.72Z"/>
                <path class="cls-21" d="m144.65,34.66c-.14.46-.86.69-1.6.51s-1.23-.69-1.08-1.15.86-.69,1.61-.51c.74.18,1.23.69,1.08,1.15Z"/>
              </g>
              <path class="cls-7" d="m141.01,58.18c-10.8,0-20.3-1.78-25.8-3.48h0l4.19,87.75s14.56,5.58,29.3,2.03l1.92-86.76h0c-3.02.29-6.25.46-9.61.46Z"/>
              <g>
                <g class="cls-8">
                  <path class="cls-26" d="m129.37,94.07c-2.51-.41-4.75-.85-6.72-1.29-6.84-.13-10.97-.57-11.07-.58-.02,0-.04,0-.07,0l.04,1.28c.84.09,6.31.61,14.79.61.97,0,1.99,0,3.03-.03Z"/>
                  <path class="cls-26" d="m129.46,92.79c2.27.37,4.79.72,7.53,1.03,9.63-.49,21.26-1.72,33.61-4.46l.04-1.31s-.02,0-.04,0c-15.79,3.53-30.4,4.58-41.15,4.74Z"/>
                  <path class="cls-26" d="m129.37,94.07c7.41,1.21,17.2,2.18,29.58,2.18,3.59,0,7.41-.08,11.44-.26l.04-1.28s-.02,0-.03,0c-13.67.61-24.72.09-33.41-.89-2.74-.31-5.26-.65-7.53-1.03-12.12-1.99-17.72-4.64-17.81-4.69-.09-.04-.18-.06-.28-.06l.04,1.36c1.05.46,4.68,1.92,11.23,3.38,1.97.44,4.21.88,6.72,1.29Z"/>
                  <path class="cls-26" d="m170.24,100.57l.04-1.28s-.07,0-.1,0c-33.72,5.7-58.07-1.54-58.31-1.62-.06-.02-.12-.02-.18-.02l.04,1.31c1.8.51,14.11,3.79,32.5,3.79,7.71,0,16.49-.58,26.01-2.18Z"/>
                  <path class="cls-26" d="m124.17,106.7c-3.92-.2-7.98-.58-12.14-1.18-.03,0-.06,0-.09,0l.04,1.28c6.6.95,12.95,1.34,18.9,1.36-2.4-.48-4.66-.98-6.72-1.46Z"/>
                  <path class="cls-26" d="m131.04,106.88c2.02.4,4.14.8,6.35,1.16,17.77-.72,30.63-4.42,32.78-5.07l.04-1.33s-.08,0-.12.01c-.21.07-16.59,5.3-39.05,5.23Z"/>
                  <path class="cls-26" d="m130.89,108.16c8.65,1.73,19.22,3.25,29.67,3.25,3.15,0,6.28-.14,9.35-.46l.04-1.29c-10.81,1.12-22.51.05-32.56-1.62-2.2-.37-4.33-.76-6.35-1.16-11.11-2.23-19-4.8-19.16-4.85-.02,0-.04,0-.05,0l.04,1.35c1.31.41,5.86,1.81,12.29,3.32,2.06.48,4.31.98,6.72,1.46Z"/>
                </g>
                <g>
                  <path class="cls-27" d="m126.34,93.29c-9.13,0-14.78-.61-14.91-.62-.33-.04-.57-.34-.53-.67.04-.33.34-.57.67-.53.27.03,27.31,2.94,59.05-4.15.33-.07.65.13.72.46.07.33-.13.65-.46.72-17.47,3.9-33.53,4.79-44.54,4.79Z"/>
                  <path class="cls-27" d="m158.95,95.45c-33.15,0-47.69-6.92-47.84-6.99-.3-.15-.42-.51-.28-.81.15-.3.51-.42.81-.28.17.08,17.81,8.45,58.78,6.61.35-.03.62.24.63.58.02.33-.24.62-.58.63-4.06.18-7.9.26-11.52.26Z"/>
                  <path class="cls-27" d="m144.23,101.95c-19.79,0-32.55-3.8-32.72-3.86-.32-.1-.5-.44-.4-.76.1-.32.43-.5.76-.4.24.07,24.59,7.32,58.33,1.62.33-.05.64.17.7.5.06.33-.17.64-.5.7-9.57,1.62-18.41,2.2-26.16,2.2Z"/>
                  <path class="cls-27" d="m131.47,107.36c-6.15,0-12.75-.39-19.62-1.39-.33-.05-.56-.36-.51-.69.05-.33.36-.57.69-.51,31.63,4.6,57.81-3.77,58.07-3.86.32-.11.66.07.76.39.1.32-.07.66-.39.76-.21.07-16.55,5.3-39.01,5.3Z"/>
                  <path class="cls-27" d="m160.55,110.61c-24.04,0-48.78-8.07-49.06-8.16-.32-.1-.49-.45-.38-.76.1-.32.44-.49.76-.38.32.1,32.04,10.44,58.35,7.61.33-.04.63.2.67.54.04.33-.2.63-.54.67-3.21.35-6.5.5-9.8.5Z"/>
                </g>
              </g>
              <g>
                <path class="cls-27" d="m129.72,94.19c-.12,0-.25-.03-.36-.1-7.2-4.16-12-5.71-15.5-6.85-2.61-.84-4.5-1.45-6.17-2.72-2.54-1.92-2.38-3.84-2.05-4.82.87-2.58,4.42-4.18,7.21-4.18,1.04,0,1.97.2,2.77.6,6.58,3.31,12.43,13.12,14.36,16.35l.37.61c.17.28.13.65-.1.89-.14.14-.33.22-.52.22Zm-16.87-17.21c-2.54,0-5.26,1.49-5.83,3.19-.36,1.07.16,2.15,1.55,3.19,1.48,1.12,3.27,1.7,5.74,2.5,3.16,1.02,7.36,2.38,13.38,5.63-2.49-4.04-7.42-11.4-12.72-14.07-.58-.29-1.32-.45-2.12-.45Z"/>
                <path class="cls-27" d="m129.71,94.28c-.21,0-.41-.09-.55-.26-.21-.25-.23-.62-.04-.89,8.07-11.37,14.79-13.76,19-13.76,2.79,0,5.33,1.1,6.97,3.01,1.14,1.33,1.7,2.93,1.49,4.29-.42,2.7-3.54,2.92-7.86,3.21-4.79.33-11.35.78-18.7,4.32-.1.05-.21.07-.32.07Zm18.41-13.45c-2.96,0-8.83,1.48-16.19,10.95,6.56-2.64,12.34-3.04,16.69-3.34,4.13-.28,6.3-.5,6.52-1.99.15-.94-.29-2.11-1.16-3.12-1.36-1.59-3.5-2.5-5.87-2.5Z"/>
                <path class="cls-27" d="m141.34,123.2c-2.02,0-3.82-.62-5.39-1.85-8.09-6.35-7.01-26.97-6.96-27.85.02-.4.37-.7.77-.68.4.02.71.37.68.77-.01.21-1.09,20.74,6.41,26.62,2.08,1.63,4.57,1.96,7.62,1.03.39-.12.79.1.91.48.12.38-.1.79-.48.91-1.25.38-2.44.57-3.56.57Z"/>
                <path class="cls-27" d="m120.89,133.22c-.3,0-.58-.19-.69-.49-6.21-17.95,8.3-38.8,8.92-39.68.23-.33.69-.4,1.01-.17.33.23.41.68.17,1.01-.15.21-14.69,21.13-8.73,38.37.13.38-.07.79-.45.92-.08.03-.16.04-.24.04Z"/>
                <g class="cls-9">
                  <path class="cls-27" d="m144.91,122.28c-1.25.38-2.45.58-3.57.58-2.03,0-3.84-.62-5.41-1.86-6.25-4.91-7.04-18.3-7.05-24.58-.02,6.1.66,19.95,7.05,24.96,1.58,1.24,3.39,1.86,5.41,1.86,1.12,0,2.32-.19,3.57-.58.4-.12.63-.54.51-.94-.06.26-.24.48-.51.56Z"/>
                </g>
                <path class="cls-27" d="m129.58,95.49s-.05,0-.08,0c-.45.03-.85-.31-.88-.76-.16-2.17.44-4.17.47-4.25.13-.43.59-.68,1.03-.55.43.13.68.59.55,1.03,0,.02-.54,1.79-.4,3.65.03.43-.27.8-.68.87Z"/>
                <path class="cls-10" d="m129.38,94.01c-.28,0-.54-.12-.77-.31,0,.34,0,.68.02,1.04.03.45.43.79.88.76.03,0,.05,0,.08,0,.41-.07.71-.44.68-.87-.02-.34-.02-.68,0-1-.26.25-.56.4-.88.4Z"/>
                <g>
                  <path class="cls-10" d="m121.14,132.83c-.08.03-.17.04-.25.04-.32,0-.62-.2-.73-.52-1.13-3.26-1.56-6.61-1.53-9.93-.07,3.44.36,6.93,1.53,10.31.11.32.41.52.73.52.08,0,.17-.01.25-.04.39-.13.59-.54.48-.93-.06.24-.23.46-.48.55Z"/>
                  <g class="cls-9">
                    <path class="cls-27" d="m129.12,95.43c-2.76,4.5-9.2,16.32-8.92,28.2-.14-12.05,6.53-23.97,9.13-28.15-.07-.01-.14-.02-.21-.05Z"/>
                  </g>
                </g>
                <g>
                  <path class="cls-10" d="m134.9,88.35c5.97-6.38,10.68-7.49,13.22-7.49,2.36,0,4.48.91,5.84,2.49.64.75,1.05,1.59,1.15,2.35,0-.86-.39-1.85-1.15-2.73-1.35-1.58-3.48-2.49-5.84-2.49-2.93,0-9.57,2.08-16.88,11.43.3-.12.6-.22.9-.33.94-1.2,1.86-2.27,2.75-3.22h0Z"/>
                  <path class="cls-10" d="m156.64,85.59c0,.24.02.48-.01.7-.42,2.73-3.56,2.95-7.9,3.25-4.74.33-11.22.78-18.48,4.23,0,.13,0,.25,0,.38,7.26-3.45,13.74-3.9,18.48-4.23,4.34-.3,7.48-.51,7.9-3.25.05-.35.05-.72.01-1.09Z"/>
                </g>
                <g>
                  <path class="cls-10" d="m114.94,77.08c-.58-.29-1.3-.44-2.1-.44-2.52,0-5.23,1.48-5.79,3.16-.09.28-.12.56-.09.84.01-.15.04-.31.09-.46.56-1.69,3.27-3.16,5.79-3.16.79,0,1.52.15,2.1.44,5.23,2.63,10.11,9.85,12.62,13.91.19.1.37.19.56.29-2.51-4.06-7.94-11.96-13.18-14.59Z"/>
                  <g class="cls-9">
                    <path class="cls-27" d="m128.62,93.34c-6.79-3.84-11.39-5.35-14.77-6.44-2.61-.84-4.5-1.46-6.18-2.73-1.73-1.3-2.2-2.6-2.24-3.62-.08,1.06.29,2.53,2.24,4,1.68,1.27,3.57,1.88,6.18,2.73,3.38,1.09,7.98,2.6,14.76,6.44,0-.13,0-.25.01-.38Z"/>
                  </g>
                </g>
              </g>
              <path class="cls-30" d="m113.27,147.5s27.61,7.71,55.36,0c0,0-5.66,4.34-26.45,4.27-26.16-.44-28.9-4.27-28.9-4.27Z"/>
            </g>
            <g>
              <path class="cls-25" d="m210,108.52h-53.98s1.99,50.75,2.01,50.77c.44.42,10.71,6.44,24.93,6.44,19.94-1.35,24.97-6.62,24.97-6.62l2.06-50.59Z"/>
              <path class="cls-25" d="m157.71,110.01l3,48.42s13.48,6.98,32.25,3.66l2.98-48.99s-21.52,3.43-38.23-3.09Z"/>
              <path class="cls-22" d="m210,108.52c0,1.58-12.08,6.16-26.99,6.16s-26.99-4.58-26.99-6.16,12.08-5.33,26.99-5.33,26.99,3.75,26.99,5.33Z"/>
              <path class="cls-25" d="m183.01,114.68c8.85,0,16.65-1.78,21.27-3.51-2.38-1.53-10.99-3.83-21.27-3.83s-18.89,2.31-21.27,3.83c4.62,1.72,12.42,3.51,21.27,3.51Z"/>
              <path class="cls-15" d="m183.01,103.19c-14.91,0-26.99,3.75-26.99,5.33s12.08,6.16,26.99,6.16,26.99-4.58,26.99-6.16-12.08-5.33-26.99-5.33Zm0,9.48c-12.9,0-23.36-2.73-23.36-4.09s10.46-4.62,23.36-4.62,23.36,3.25,23.36,4.62-10.46,4.09-23.36,4.09Z"/>
              <path class="cls-25" d="m190.54,109.91c0,.39-3.37,1.53-7.53,1.53s-7.53-1.14-7.53-1.53,3.37-1.33,7.53-1.33,7.53.93,7.53,1.33Z"/>
              <path class="cls-21" d="m186.78,96.16c-2.4,4.92-2.95,13.84-3.23,13.84s-.92-8.58.62-14.7l2.61.86Z"/>
              <path class="cls-21" d="m186.86,96.12c-.15.54-.89.81-1.66.6-.77-.21-1.27-.82-1.12-1.37.15-.54.89-.81,1.66-.6.77.21,1.27.82,1.12,1.37Z"/>
              <path class="cls-15" d="m161.76,111.54l2.88,43.81s8.56,4.27,18.59,3.13l3.66-43.91-25.13-3.03Z"/>
              <path class="cls-22" d="m158.03,159.29s23.23,12.69,49.91-.18c0,0-5.72,6.62-24.97,6.62s-24.93-6.44-24.93-6.44Z"/>
            </g>
            <g>
              <g>
                <path class="cls-16" d="m163.04,155.85c-.55,1.94-1.4,1.98-3.42,2.76-9.03,3.5-18.06,6.67-27.49,8.97-13.38,3.27-26.51,7.75-39.76,11.53-6.74,1.92-13.49,3.76-20.34,5.23-3.79.81-8.16,2.39-12.06,2.19-.16,0-.32-.02-.48-.04-2.17-.22-4.43-1.12-6.52-1.63-4.19-1.01-8.4-2.34-12.47-3.76-8.57-3-16.61-6.66-24.76-10.65-1.01-.5-3.38-1.25-4.1-2.21-.95-1.26-.9-3.91-1.3-5.47-.56-2.14-.39-3.48.31-4.38.98-1.29,3.04-1.71,5.58-2.38,5.61-1.49,11.27-2.84,16.86-4.41,8.49-2.37,17.07-6.51,25.94-7.17l6.81-2.01c9.76-1.86,20.39-4.93,30.33-5.07,3.26-.05,6.42.75,9.6,1.34,5.93,1.11,11.92,1.92,17.87,2.97,5.85,1.03,32.16,2.23,38.31,9.48.46.53.81,1.11,1.02,1.71.34.91.38,1.92.07,3Z"/>
                <path class="cls-4" d="m163.04,155.85c-.55,1.94-1.4,1.98-3.42,2.76-9.03,3.5-18.06,6.67-27.49,8.97-13.38,3.27-26.51,7.75-39.76,11.53-6.74,1.92-13.49,3.76-20.34,5.23-3.79.81-8.16,2.39-12.06,2.19-.16,0-.32-.02-.48-.04-2.17-.22-4.43-1.12-6.52-1.63-4.19-1.01-8.4-2.34-12.47-3.76-8.57-3-16.61-6.66-24.76-10.65-1.01-.5-3.38-1.25-4.1-2.21-.95-1.26-.9-3.91-1.3-5.47-.56-2.14-.39-3.48.31-4.38,7.31,5.76,16.51,10.25,25.22,13.15,4.83,1.61,9.49,3.84,14.2,5.8,3.18,1.32,6.83,3.22,10.34,2.78,8.63-1.08,17.27-4.54,25.72-6.5,11.4-2.65,22.65-5.61,33.65-9.68,9.42-3.48,18.86-6.7,28.57-9.29,4.12-1.09,8.32-1.83,12.38-3.12.4-.12.81-.26,1.22-.39.46.53.81,1.11,1.02,1.71.34.91.38,1.92.07,3Z"/>
                <path class="cls-17" d="m163.04,155.85c-.55,1.94-1.4,1.98-3.42,2.76-9.03,3.5-18.06,6.67-27.49,8.97-13.38,3.27-26.51,7.75-39.76,11.53-6.74,1.92-13.49,3.76-20.34,5.23-3.79.81-8.16,2.39-12.06,2.19-.16,0-.32-.02-.48-.04-.12-2.09-.18-4.3.58-5.98.96.6,1.42,1.87,2.43,2.45,2.44,1.4,6.82-.5,9.35-1.06,12.73-2.82,25.02-7.45,37.54-10.97,12.91-3.64,25.93-7.02,38.79-10.83,5.07-1.5,9.68-3.84,14.08-6.76.24-.15.47-.33.71-.5.34.91.38,1.92.07,3Z"/>
                <path class="cls-3" d="m12.68,159.04c.76,1.16,2.34,1.44,3.51,2.07,2.82,1.51,5.46,3.39,8.21,5.03,5.44,3.26,11.72,5.55,17.64,7.77,4.28,1.6,8.66,3.44,13.2,3.93,6.39.69,11.82-1.39,17.88-3.11-3.12.87-7.67.4-11.01.67-7.07.57-12.12-.9-18.53-3.88-6.73-3.12-13.78-5.43-20.52-8.51-1.12-.51-4.06-1.23-3.92-2.87.09-1.05,2.28-1.89,2.97-2.57-1.4-2-6.02,1.4-9.42,1.47Z"/>
                <path class="cls-3" d="m147.81,154.46c-3.72.3-7.53,1.51-11.11,2.54-6.98,2.02-14.01,4.15-20.9,6.45-5.51,1.84-11.11,3.45-16.69,5.07-2.01.58-7.16,1.29-8.26,3.26,2.17.78,5.58-.58,7.78-1.08,6.73-1.54,13.38-3.51,19.99-5.46,6.36-1.87,12.73-3.7,18.93-6.05,4.62-1.75,9.11-4.26,10.25-4.73Z"/>
              </g>
              <g>
                <g>
                  <path class="cls-25" d="m114.37,140.96s1.83,1.15,1.56,1.51c-.26.36-2.28-.21-2.28-.21,0,0,.36,1.1-.14,1.48-.49.38-2.26-.42-2.26-.42,0,0,.52.99-.09,1.01-.61.02-2.88-.26-2.88-.26,0,0-.66,1.32-1.2,1.35-.54.03-2.38-.22-2.38-.22,0,0,.07,1.46-.15,1.6-.22.13-1.81-1.04-1.81-1.04,0,0-.36,1.53-.74,1.49s-1.81-.76-1.81-.76c0,0-.81.91-1.2,1.02-.39.12-1.8-.16-1.8-.16,0,0,.26,1.66-.17,1.8-.42.14-2.11-1.15-2.11-1.15,0,0-.03.81-.5.93s-1.5-.35-1.5-.35c0,0-.46,1.64-1.3,1.56-.84-.08-1.84-.66-1.84-.66,0,0-.52,1.29-.9,1.26-.38-.03-1.46-.58-1.46-.58,0,0,.91,1.53.37,1.63-.55.1-2.03-1.15-2.03-1.15,0,0-.38.73-.78.91-.4.18-1.82-.17-1.82-.17,0,0,.26,1.47-.15,1.58-.4.12-1.48-1.12-1.48-1.12,0,0-.99,1.22-2.63.75,0,0,1.08,1.54.61,1.65s-2.54-1.1-2.54-1.1c0,0-.1,1.47-.48,1.44-.38-.03-1.9-.76-1.9-.76,0,0-.21,1.11-2.66.76,0,0,.81,1.56-.15,1.63-.21.01-1.63-.42-2.38-.87-.44.07-.03,1.06-.54,1.16-.31.06-1.52-.79-1.85-.72-.52.11-.4.54-.96.66-.38.08-1.43-.15-1.82-.07-.58.13-.27.99-.87,1.13-.47.11-1.85-.5-2.32-.39-.47.11-.22.73-.67.84-.36.09-1.32-.12-1.67-.04-.57.14-.37.92-.89,1.05-.56.14-1.7-.51-2.19-.38-.6.15-.61,1.15-1.07,1.28-1.07.28-2.38-.33-2.38-.33,0,0-.65.93-1.19,1.04-.55.1-2.31-.21-2.31-.21,0,0,.06,1.38-.79,1.38s-2.29-.5-2.29-.5c0,0-.51,1.01-.91,1.13-.39.12-1.24-.51-1.24-.51,0,0,.01,1.4-.52,1.42-.54.03-1.75-.77-1.75-.77,0,0,0,1.99-.53,1.71-.53-.28-1.41-1.15-1.41-1.15,0,0-.28,1-.75,1.07-.47.07-1.02-.59-1.02-.59l76.93-22.57Z"/>
                  <path class="cls-15" d="m23.63,119.54s-2.84-.22-3.09.27-.13,1.47-.13,1.47c0,0-1.64.11-1.99.48-.34.38.36,1.77.36,1.77,0,0-1.4.26-1.65.89-.25.63-.17,1.88-.17,1.88,0,0-.94-1.07-1.18-.9-.25.17.37,2.26.37,2.26,0,0-1.36-.05-1.35.33.01.38.79,1.11.79,1.11,0,0-1.04.94-1.19,1.27-.15.33.13,1.97.13,1.97,0,0-.89.53-.85.92.04.39.66,1.25.52,1.24-.14-.01-1.27.61-1.39,1.06s1.19,1.03,1.19,1.03c0,0-.84.54-.83.81.01.27.81.88.81.88,0,0-1.24.07-1.31.34s1.07.79,1.07.79c0,0-.79.81-.75,1.2.04.39,1.16.11,1.16.11,0,0-.45.92-.22,1.28s.61.97.61.97c0,0-1.01.79-.99,1.06.01.27,1.37.35,1.37.35,0,0-.8.96-.63,1.21.17.25,1.07.1,1.07.1,0,0-.33,1-.15,1.21.17.21.85.47.85.47,0,0-.65,1.11-.46,1.55s1.33.12,1.33.12c0,0-.81.88-.41,1.19.39.3,1.2.11,1.2.11,0,0-.03,1.26.26,1.52s.88.08.88.08c0,0,.24,1.55.4,1.88.16.32,1.22.04,1.22.04,0,0-.97.98-.81,1.27.17.28,1.64-.4,1.64-.4,0,0-.41,1.16-.14,1.5s.99-.69.99-.69c0,0,.46,1.2.9,1.4.44.19,1.06.26,1.06.26,0,0-.19,1.51.19,1.6.37.09,1.28-.52,1.28-.52,0,0,.04.81.22.94.18.13.71-.22.71-.22,0,0,.06,1.02.46,1.21.4.19,1.04-.36,1.04-.36,0,0,.17.89.46,1.07.29.18,1.23-.11,1.23-.11,0,0-.95.75-.92.91.02.16,1.48-.25,1.48-.25,0,0-.1,1.1.19,1.24.29.14,1.19-.92,1.19-.92,0,0,.09,1.19.46,1.3s1.19-.54,1.19-.54c0,0,.33,1.14.64,1.05s1.01-.36,1.01-.36c0,0,.42.91,1.53.59,0,0-15.79-8.73-18.56-15.69-4.96-14.4,5.69-28.6,5.69-28.6Z"/>
                  <path class="cls-25" d="m109.94,138.49s1.74.03,1.94-.41c.19-.44-.98-1.96-.98-1.96,0,0,1.38-.58,1.4-.8.02-.23-.67-1.37-.67-1.37,0,0,1.23.37,1.68.11s-.77-1.4-.77-1.4c0,0,1.48-.83,1.5-.99.01-.15-1.53-1.11-1.53-1.11,0,0,1.23-.93.46-2.54,0,0,1.85-.7,1.52-1.27-.33-.57-1.28-1.04-1.28-1.04,0,0,1.06-1.41.21-2.4,0,0,1.18-2.24-.48-3.24,0,0,.79-.92.29-1.35-.5-.43-.79-.67-.79-.67,0,0,.32-1.24,0-1.8-.32-.57-1.27-1.14-1.27-1.14,0,0,1.55-1.13,1.21-1.47-.34-.34-2.16,0-2.16,0,0,0,.53-.92.18-1.26-.35-.34-1.21-.09-1.21-.09,0,0,0-1.16-1.15-1.27,0,0,.23-1.85-.59-2.08-.82-.23-2.12-.35-2.12-.35,0,0,1.01-1.8.19-2.03-.82-.23-2.26.53-2.26.53,0,0-.06-1.08-.49-1.41-.43-.33-2.19-.2-2.19-.2,0,0,.06-1.39-.85-1.55-.9-.16-2.52-.07-2.52-.07,0,0-.66-.99-1.26-1.04-.59-.05-3.69.43-3.69.43,0,0,14.53,5.64,17.27,10.53,2.74,4.89,5.02,7.91.41,24.71Z"/>
                  <path class="cls-25" d="m113.26,140.13l-3.32-1.63s6.61-14.09,1.23-23.39c-3.25-5.61-9.2-9.1-13.21-10.93-2.42-1.1-5.13-1.36-7.71-.73l-66.61,16.08c-9.18,3.95-20.16,30.47,12.87,44.29l76.52-21.02c2.19-.88,1.93-1.75.25-2.68Z"/>
                  <polygon class="cls-25" points="109.94 138.49 33.26 159.39 36.75 161.09 113.26 140.13 109.94 138.49"/>
                  <path class="cls-15" d="m36.5,163.83c-33.3-12.35-22.43-40.4-12.87-44.29,10.53,1.76,17.78,12.41,18.69,18.43,2,13.25-8.5,21.38-8.5,21.38,2.67,1.6,6.2,3.49,2.68,4.49Z"/>
                  <path class="cls-15" d="m26.11,118.93s65.1-15.67,65.59-15.73c21.39,5.9,16.1,23.71,16.1,23.71l-59.23,14.94c-1.75-16.05-15.8-22.58-22.46-22.92Z"/>
                  <path class="cls-25" d="m22.92,122.97c.9-1.38,11.77,3.6,15.34,13.02,3.71,9.81-2.91,18.38-4.94,18.83-1.27.28-9.09-4.39-11.4-12.09-.59-1.98-.82-4.16-.49-6.5.14-1,1.15-7.43,2.8-7.9,1.65-.47,8.16,4.51,9.4,9.72,1.15,4.84-.8,9.96-1.91,10.21-1.46.33-7.44-5.77-5.58-8.36,4.37-6.1.63.76,1.59,2.36.87,1.45,2.76,3.7,3.54,3.67.43-.02,2.24-3.8,1.37-7.59-.71-3.07-3.49-6.06-7.82-7.8-1.83,4.66-2.79,8.79-1.86,11.97,2.1,7.21,9.84,10.47,10.28,10.37.99-.23,6.78-8.04,4.02-16.41-2.35-7.13-12.58-12.2-13.44-11.44-.63.56-5.39,8.57-4.6,16.62.91,7.86,8.52,13.77,14.87,17.48-.84.71-5.3-2.9-6.11-3.5-2.62-1.95-5.11-4.2-7.02-6.87-5.99-8.41-1.99-19.74,1.97-25.78Z"/>
                </g>
                <path class="cls-12" d="m59.04,158.83s-.06,0-.09,0c-.2-.03-.33-.22-.3-.42,2.36-15.07.61-26.62-5.21-34.32-5.63-7.44-13.18-8.44-13.25-8.44-.2-.02-.34-.21-.32-.41.02-.2.2-.34.41-.32.32.04,7.91,1.03,13.73,8.71,5.95,7.86,7.75,19.6,5.36,34.88-.03.17-.16.29-.33.31Z"/>
                <path class="cls-12" d="m95.22,149.07s-.08,0-.12,0c-.2-.05-.32-.24-.27-.44,8.53-35.58-15.49-42.15-15.74-42.21-.2-.05-.31-.25-.26-.44.05-.19.25-.31.44-.26.25.06,24.96,6.82,16.26,43.09-.04.16-.17.26-.32.28Z"/>
              </g>
              <g>
                <g>
                  <path class="cls-25" d="m145.38,149.19s1.9,1.19,1.62,1.56c-.27.37-2.37-.22-2.37-.22,0,0,.37,1.14-.14,1.54-.51.39-2.35-.44-2.35-.44,0,0,.54,1.03-.1,1.05-.63.02-2.99-.27-2.99-.27,0,0-.68,1.37-1.24,1.4-.56.03-2.47-.23-2.47-.23,0,0,.08,1.52-.15,1.66-.23.14-1.88-1.08-1.88-1.08,0,0-.37,1.59-.77,1.55s-1.88-.79-1.88-.79c0,0-.84.94-1.25,1.06-.41.12-1.86-.17-1.86-.17,0,0,.27,1.72-.17,1.87-.44.15-2.19-1.19-2.19-1.19,0,0-.04.84-.52.96s-1.55-.37-1.55-.37c0,0-.48,1.7-1.34,1.62-.87-.08-1.91-.69-1.91-.69,0,0-.54,1.34-.93,1.3-.39-.04-1.52-.6-1.52-.6,0,0,.95,1.58.38,1.69-.57.11-2.11-1.2-2.11-1.2,0,0-.4.76-.81.95-.41.19-1.88-.17-1.88-.17,0,0,.27,1.52-.15,1.64-.42.12-1.54-1.16-1.54-1.16,0,0-1.02,1.27-2.73.78,0,0,1.13,1.6.64,1.71s-2.64-1.14-2.64-1.14c0,0-.1,1.53-.49,1.49-.39-.04-1.97-.78-1.97-.78,0,0-.22,1.15-2.77.79,0,0,.84,1.62-.16,1.69-.22.01-1.69-.44-2.47-.9-.46.07-.03,1.1-.56,1.2-.32.06-1.58-.82-1.92-.75-.54.11-.42.56-1,.69-.39.08-1.48-.16-1.89-.07-.6.14-.28,1.03-.9,1.17-.49.12-1.92-.52-2.41-.4-.48.12-.22.76-.7.87-.37.09-1.37-.13-1.74-.04-.59.15-.38.96-.93,1.09-.59.15-1.76-.53-2.27-.4-.62.16-.63,1.2-1.11,1.32-1.11.29-2.47-.34-2.47-.34,0,0-.67.97-1.24,1.07-.57.11-2.4-.22-2.4-.22,0,0,.06,1.44-.82,1.44s-2.38-.52-2.38-.52c0,0-.53,1.05-.94,1.17-.41.12-1.29-.53-1.29-.53,0,0,.01,1.45-.54,1.48-.56.03-1.82-.8-1.82-.8,0,0,0,2.07-.55,1.78-.55-.29-1.47-1.2-1.47-1.2,0,0-.29,1.04-.78,1.11-.48.07-1.06-.61-1.06-.61l79.86-23.43Z"/>
                  <path class="cls-15" d="m51.18,126.94s-2.95-.23-3.21.28-.14,1.52-.14,1.52c0,0-1.71.11-2.06.5-.35.39.37,1.84.37,1.84,0,0-1.45.27-1.71.92-.26.65-.18,1.96-.18,1.96,0,0-.97-1.11-1.23-.93-.25.18.38,2.35.38,2.35,0,0-1.41-.05-1.4.35.01.4.82,1.15.82,1.15,0,0-1.08.97-1.23,1.32-.15.34.13,2.04.13,2.04,0,0-.93.55-.88.95.04.4.69,1.3.54,1.28-.14-.01-1.32.63-1.44,1.1s1.24,1.07,1.24,1.07c0,0-.87.56-.86.84.01.28.84.92.84.92,0,0-1.29.08-1.35.35s1.11.82,1.11.82c0,0-.82.84-.78,1.24.04.4,1.2.11,1.2.11,0,0-.47.95-.22,1.33s.64,1.01.64,1.01c0,0-1.04.82-1.03,1.1.01.28,1.42.37,1.42.37,0,0-.83,1-.65,1.25.18.25,1.11.1,1.11.1,0,0-.34,1.04-.16,1.26.18.22.89.49.89.49,0,0-.68,1.16-.48,1.61s1.38.13,1.38.13c0,0-.84.92-.43,1.23.41.32,1.25.11,1.25.11,0,0-.03,1.31.27,1.58s.91.08.91.08c0,0,.25,1.61.41,1.95.17.33,1.27.04,1.27.04,0,0-1.01,1.02-.84,1.31.17.29,1.71-.42,1.71-.42,0,0-.43,1.21-.14,1.55s1.03-.71,1.03-.71c0,0,.47,1.25.93,1.45.46.2,1.1.27,1.1.27,0,0-.19,1.57.2,1.66.39.1,1.32-.54,1.32-.54,0,0,.04.84.23.98.19.14.74-.23.74-.23,0,0,.06,1.06.48,1.26.42.2,1.08-.37,1.08-.37,0,0,.18.93.48,1.11.3.19,1.28-.12,1.28-.12,0,0-.98.78-.96.94.02.16,1.54-.26,1.54-.26,0,0-.11,1.14.2,1.29.3.15,1.24-.95,1.24-.95,0,0,.09,1.23.48,1.35s1.23-.56,1.23-.56c0,0,.34,1.18.67,1.09s1.05-.37,1.05-.37c0,0,.43.95,1.59.62,0,0-16.39-9.06-19.27-16.29-5.15-14.95,5.91-29.69,5.91-29.69Z"/>
                  <path class="cls-25" d="m140.78,146.63s1.81.03,2.01-.43c.2-.46-1.02-2.04-1.02-2.04,0,0,1.43-.6,1.46-.83.02-.24-.7-1.42-.7-1.42,0,0,1.27.39,1.75.11s-.79-1.45-.79-1.45c0,0,1.54-.87,1.55-1.02.01-.16-1.59-1.15-1.59-1.15,0,0,1.28-.96.48-2.63,0,0,1.92-.73,1.58-1.32-.34-.59-1.32-1.08-1.32-1.08,0,0,1.1-1.46.22-2.5,0,0,1.23-2.32-.5-3.37,0,0,.82-.95.31-1.4-.52-.45-.82-.7-.82-.7,0,0,.33-1.28,0-1.87-.33-.59-1.32-1.18-1.32-1.18,0,0,1.61-1.18,1.25-1.53-.36-.35-2.24,0-2.24,0,0,0,.55-.95.18-1.3-.37-.35-1.26-.09-1.26-.09,0,0,0-1.2-1.19-1.32,0,0,.24-1.92-.62-2.16-.85-.24-2.2-.36-2.2-.36,0,0,1.05-1.87.2-2.1-.85-.24-2.35.55-2.35.55,0,0-.06-1.12-.51-1.46-.45-.35-2.27-.21-2.27-.21,0,0,.06-1.44-.88-1.61-.94-.17-2.62-.07-2.62-.07,0,0-.69-1.03-1.31-1.08-.62-.05-3.83.44-3.83.44,0,0,15.09,5.85,17.93,10.94,2.84,5.08,5.21,8.21.43,25.65Z"/>
                  <path class="cls-25" d="m144.23,148.32l-3.45-1.7s6.86-14.63,1.28-24.28c-3.37-5.83-9.55-9.45-13.72-11.34-2.51-1.15-5.32-1.41-8.01-.75l-69.15,16.69c-9.53,4.1-20.93,31.63,13.36,45.98l79.44-21.82c2.27-.91,2-1.82.26-2.79Z"/>
                  <polygon class="cls-25" points="140.78 146.63 61.18 168.32 64.8 170.09 144.23 148.32 140.78 146.63"/>
                  <path class="cls-15" d="m64.54,172.93c-34.57-12.82-23.28-41.95-13.36-45.98,10.93,1.83,18.46,12.88,19.4,19.13,2.08,13.75-8.83,22.19-8.83,22.19,2.78,1.66,6.43,3.63,2.78,4.66Z"/>
                  <path class="cls-15" d="m53.76,126.32s67.59-16.27,68.1-16.33c22.21,6.12,16.71,24.61,16.71,24.61l-61.49,15.51c-1.81-16.66-16.41-23.45-23.32-23.8Z"/>
                  <path class="cls-25" d="m50.45,130.51c.94-1.43,12.22,3.74,15.92,13.52,3.86,10.18-3.02,19.08-5.13,19.55-1.31.29-9.44-4.56-11.84-12.55-.62-2.05-.86-4.32-.5-6.75.15-1.04,1.2-7.71,2.91-8.2,1.72-.49,8.47,4.68,9.76,10.09,1.19,5.02-.83,10.35-1.99,10.6-1.52.34-7.72-5.99-5.79-8.68,4.54-6.33.66.79,1.65,2.45.9,1.51,2.86,3.85,3.67,3.81.45-.02,2.33-3.95,1.42-7.88-.74-3.19-3.63-6.29-8.12-8.1-1.9,4.84-2.9,9.12-1.93,12.43,2.18,7.49,10.22,10.87,10.67,10.76,1.03-.24,7.04-8.35,4.17-17.04-2.44-7.4-13.06-12.66-13.95-11.87-.65.58-5.6,8.89-4.78,17.26.95,8.16,8.84,14.3,15.43,18.15-.87.74-5.5-3.01-6.34-3.64-2.72-2.03-5.31-4.36-7.28-7.14-6.22-8.73-2.06-20.49,2.05-26.77Z"/>
                </g>
                <path class="cls-12" d="m87.94,167.74s-.06,0-.09,0c-.21-.03-.35-.23-.32-.43,2.45-15.65.63-27.64-5.41-35.63-5.84-7.73-13.68-8.76-13.76-8.77-.21-.03-.35-.21-.33-.42.03-.21.21-.36.42-.33.33.04,8.22,1.07,14.26,9.05,6.18,8.16,8.05,20.34,5.56,36.22-.03.18-.17.3-.34.32Z"/>
                <path class="cls-12" d="m125.5,157.61s-.08,0-.12,0c-.2-.05-.33-.25-.28-.46,8.86-36.94-16.08-43.76-16.34-43.82-.2-.05-.32-.26-.27-.46.05-.2.26-.32.46-.27.26.07,25.91,7.08,16.88,44.73-.04.16-.18.27-.33.29Z"/>
              </g>
            </g>
            <g>
              <g>
                <path class="cls-23" d="m116.62,173.34s.09.02.14.02c0,0,.01,0,.02,0,.73.13,1.42.39,2.11.58.91.25,1.81.38,2.79-.07,1.39-.63,2.64-1.97,4.26-2.03.15,0,.25.01.31.05.28.15-.22.63-.37.95-.31.68-.44,1.45-.42,2.2.03.78.29,1.53.58,2.25.3.74.51,1.48.75,2.25.26.8.71,1.58.82,2.42.65-.71,1.25-1.42,1.98-2.05.01,0,.02-.02.03-.03.05-.04.1-.08.16-.12,1.27-1.04,2.94-1.88,3.13-3.67.13-1.17-.23-2.21-.76-3.18-.08-.16-.17-.31-.26-.47.05.03.11.07.16.1.2.14.39.29.59.43.28.21.56.44.83.66.71.59,1.37,1.23,2,1.9,0,0,.01.01.02.02.35.37.68.76.99,1.15.36.44.76,1.33,1.22,1.46h0c.19.05.39-.03.61-.31,1.07-1.42.9-4.15.53-5.76-.54-2.37-2.75-3.61-5.09-3.51-.18,0-.36.03-.52.06-.2.03-.39.07-.58.13.7-.71,1.32-1.53,1.84-2.23,1.16-1.59,1.52-3.08,1.07-4.99-.22-.94-.84-2.11-.73-3.1-.04.04-.07.09-.11.13-1.51,1.74-3.3,3.5-4.28,5.61-.27.58-.48,1.19-.6,1.82-.26-.94-.61-1.84-1.11-2.63-1.17-1.86-2.97-2.67-5.09-3.04-1.05-.19-2.71-.61-3.79-.27,0,.06.02.11.03.17.15.59.78,1.2,1.04,1.79.61,1.37.99,2.74,1.97,3.91.42.5.89.96,1.4,1.36.45.36,1.09.61,1.49,1.01-.07.03-.15.05-.24.06-.53.06-1.33-.25-1.78-.3-1.26-.12-2.55-.09-3.63.67-1.11.79-1.53,2.05-2.23,3.16-.35.56-.84.96-1.27,1.45Z"/>
                <path class="cls-28" d="m128.14,170.11c.09.04.18.07.26.1.07.02.13.04.19.06,0,0,.01.01.02,0,.04.01.07.02.1.02.2.06.39.09.58.1.04,0,.09,0,.13,0,0,0,.01,0,.01,0h0c.28,0,.55-.04.82-.12.37-.1.75-.27,1.17-.46.32-.15.61-.31.89-.48.33-.2.62-.43.9-.7-.2.03-.39.07-.58.13.7-.71,1.32-1.53,1.84-2.23,1.16-1.59,1.52-3.08,1.07-4.99-.22-.94-.84-2.11-.73-3.1-.04.04-.07.09-.11.13,0,.32.05.63.09.93.14,1.05.23,2.16.18,3.23-.07,1.32-.63,2.51-1.44,3.52-.32.41-.67.8-1.01,1.19-.16.18-.33.47-.57.49-.04-.26.07-.53.12-.78.09-.42.12-.86.31-1.26-.38.28-.72.69-1.03,1.03-.33.36-.62.95-1.05,1.17.29-1.34.87-2.63,1.36-3.91-.34.08-.65.34-.88.62-.45.54-.89,1.2-1.26,1.8-.15.24-.27.49-.4.75-.21.47-.4.96-.58,1.44-.07.21-.15.41-.22.61l-.02.06-.05.21v.04s-.11.41-.11.41Z"/>
                <path class="cls-28" d="m128.34,170.33c0,.06.02.12.04.18h0s0,.03.02.03c.01.03.02.07.04.1.08.16.21.31.36.44.57.51,1.52.9,2.01,1.16.44.24.89.44,1.33.66.21.1.41.2.61.31.24.13.47.26.7.42.07.04.13.09.2.13.68.5,1.27,1.11,1.8,1.77,0,0,.01.01.02.02.35.37.68.76.99,1.15.36.44.76,1.33,1.22,1.46-.03-.12-.07-.22-.1-.32-.37-1.26-.88-2.4-1.7-3.42-.75-.95-1.74-1.78-2.7-2.5-.26-.19-.84-.44-.94-.77.34-.32,1.16-.03,1.59-.05-.23-.2-.68-.32-.99-.41-.22-.07-.65-.08-.8-.28.31-.26.99-.16,1.37-.16.74,0,1.54.35,2.27.24-.22-.43-1.15-.67-1.59-.82-.58-.21-1.18-.3-1.79-.32h0c-.16,0-.31,0-.47,0-.5.02-1.63.02-1.9.61,0,0-.01,0-.01.01l-.36.08h-.02s-.35.09-.35.09l-.38.08-.2.05h-.02s-.19.05-.19.05h-.06Z"/>
                <path class="cls-28" d="m129.73,172.26c.33.74,0,1.82.17,2.62.5-.53.71-2.03.58-2.67.93,1.99,1.19,4.4.06,6.39-.24.44-.57.87-.93,1.28.05-.04.1-.08.16-.12,1.27-1.04,2.94-1.88,3.13-3.67.13-1.17-.23-2.21-.76-3.18.21.1.41.2.61.31-.04-.08-.08-.16-.13-.24-.25-.46-.59-.88-.99-1.22l-1.39-1.46-.32-.33-.51-.53-.07-.08c-.12.1-.23.21-.33.33h0s0,0-.01.01c-.03.03-.06.07-.09.11-.12.15-.22.3-.3.46,0,0,0,.01,0,.01-.03.06-.06.11-.08.17-.03.06-.06.13-.09.19-.09.23-.16.47-.22.73-.26,1.31,0,2.83.3,3.99.25-.29.18-1.04.31-1.43.17-.55.56-1.2.89-1.67Z"/>
                <path class="cls-28" d="m116.78,173.37c.73.13,1.42.39,2.11.58.91.25,1.81.38,2.79-.07,1.39-.63,2.64-1.97,4.26-2.03.15,0,.25.01.31.05.64-.16,1.37-.29,1.99-.54.21-.08.4-.18.58-.29.21-.14.4-.31.54-.53.02-.02.03-.04.04-.06h0s.03-.07.04-.09h0c.05-.11.1-.23.13-.36,0-.02.01-.04.01-.07.04,0,.05,0,.07,0-.01-.02-.03-.02-.06-.03-.07-.03-.19-.06-.32-.09-.01,0-.03,0-.04,0-.06-.01-.11-.02-.16-.03-.05-.01-.11-.02-.15-.03-.22-.04-.44-.07-.65-.1,0,0-.02,0-.02,0-.25-.04-.51-.07-.76-.09-1.14-.11-2.25-.1-3.38.06-.87.12-1.77.31-2.61.57-.2.06-.6.14-.66.34,1.01.13,2.23-.43,3.21-.03-.65.36-1.62.28-2.34.46-.63.16-1.45.38-1.94.83.72-.06,1.45-.31,2.17-.41.69-.1,1.93-.46,2.6-.12-.65.42-1.55.65-2.27.97-.97.44-1.94.77-2.99.92-.77.11-1.65.2-2.48.16Z"/>
                <path class="cls-28" d="m129.02,169.68s-.02,0-.03,0c0,0,.01.01,0,.02.02.04.04.09.06.14.04.1.09.2.13.31.06.14.11.28.15.42,0,0,0,.01,0,.02l.03-.08.17-.44.03-.07v-.03s.03-.04.03-.04c-.19-.09-.38-.16-.58-.22Z"/>
                <path class="cls-28" d="m119.86,160.23c.15.59.78,1.2,1.04,1.79.61,1.37.99,2.74,1.97,3.91.42.5.89.96,1.4,1.36.45.36,1.09.61,1.49,1.01-.07.03-.15.05-.24.06.38.19.77.37,1.16.54.74.33,1.55.5,2.31.77-.52-1.17-1.28-2.26-2.36-2.95-1.12-.72-2.43-1.09-3.35-2.1-.88-.96-1.56-2.15-2.36-3.17-.33-.43-.69-.83-1.07-1.22Z"/>
                <path class="cls-28" d="m129.35,169.8c.27-.8-.04-1.9-.3-2.67-.35-1.06-.9-2.45-1.75-3.22.2.93.93,1.89.87,2.87-.54-.87-1.09-1.61-1.91-2.26-.44-.35-1.42-1.26-2.03-1.27.99.85,1.75,2.12,2.45,3.2.58.9,1.07,1.82,1.42,2.82.13.37.37.88.27,1.28l.97-.76Z"/>
              </g>
              <path class="cls-31" d="m129.9,169.62c.54-1.36,1.11-2.76,1.32-4.22.05-.38.1-.76.13-1.14.02,0,.03,0,.05,0,.27-.03.48-.29.53-.54.03-.15,0-.3-.06-.44.07-.16.1-.33.04-.5-.02-.07-.05-.13-.09-.18.09-.15.16-.32.19-.48.02-.15,0-.31-.08-.44.02-.04.04-.08.05-.12.05-.24-.02-.49-.17-.68-.12-.27-.39-.49-.68-.35-.14.07-.16.26-.08.36-.04.05-.08.1-.1.15-.07.17,0,.35.15.44-.33.13-.24.65.08.7,0,.01-.02.03-.02.04.05-.09,0,0,0,.01-.02.03-.04.05-.06.07,0,0-.03.03-.05.05-.25.2-.19.52.06.66-.11.12-.14.36-.02.49,0,0,.03.03.05.05-.02.01-.03.03-.05.04-.19.21-.12.5.09.61-.06.4-.13.8-.22,1.2-.31,1.4-.96,2.68-1.4,4.04-.08.24.27.41.37.17Z"/>
            </g>
            <g>
              <g>
                <path class="cls-14" d="m122.48,179.1s-.09,0-.14-.01c0,0-.01,0-.02,0-.74-.05-1.47.03-2.19.05-.94.02-1.85-.07-2.69-.74-1.2-.95-2.08-2.55-3.64-3-.14-.04-.24-.05-.31-.03-.31.07.06.67.13,1.01.14.74.08,1.51-.13,2.24-.22.75-.65,1.41-1.11,2.04-.47.64-.86,1.31-1.28,2-.44.71-1.07,1.36-1.38,2.15-.46-.85-.87-1.69-1.42-2.47,0,0-.02-.03-.02-.03-.04-.05-.08-.1-.12-.16-.98-1.32-2.4-2.53-2.15-4.32.16-1.17.76-2.08,1.51-2.9.12-.13.24-.26.37-.39-.06.02-.12.04-.18.06-.23.09-.45.18-.68.28-.32.14-.65.29-.96.44-.83.4-1.63.86-2.4,1.36,0,0-.02,0-.03.02-.43.28-.84.57-1.24.88-.45.34-1.06,1.11-1.53,1.12h0c-.19,0-.37-.12-.51-.45-.69-1.64.13-4.24.88-5.72,1.09-2.17,3.54-2.84,5.79-2.17.17.05.34.11.49.19.19.08.36.16.53.26-.51-.86-.91-1.8-1.24-2.61-.74-1.82-.73-3.35.17-5.11.44-.86,1.32-1.84,1.46-2.83.03.05.05.1.08.15,1.04,2.06,2.35,4.2,2.79,6.48.12.63.17,1.27.14,1.92.48-.84,1.04-1.64,1.72-2.28,1.59-1.52,3.53-1.87,5.68-1.72,1.07.07,2.78.07,3.75.66-.02.06-.04.1-.07.16-.29.54-1.05.98-1.44,1.48-.92,1.18-1.62,2.42-2.86,3.32-.53.38-1.1.71-1.69.98-.53.24-1.21.33-1.69.62.06.05.13.09.21.12.5.18,1.35.08,1.8.14,1.26.19,2.5.53,3.36,1.53.89,1.03.99,2.36,1.4,3.6.21.63.58,1.14.89,1.71Z"/>
                <path class="cls-19" d="m112.09,173.18c-.09.01-.19.03-.28.04-.07,0-.14,0-.2,0,0,0-.02,0-.02,0-.04,0-.07,0-.1,0-.21,0-.4,0-.58-.04-.04-.01-.09-.02-.13-.03,0,0-.01,0-.01,0h0c-.27-.07-.52-.17-.77-.31-.33-.19-.66-.44-1.02-.73-.27-.22-.52-.45-.74-.68-.27-.27-.5-.57-.7-.89.19.08.36.16.53.26-.51-.86-.91-1.8-1.24-2.61-.74-1.82-.73-3.35.17-5.11.44-.86,1.32-1.84,1.46-2.83.03.05.05.1.08.15-.09.31-.2.6-.31.88-.39.99-.75,2.04-.95,3.09-.25,1.3,0,2.58.55,3.77.21.47.46.93.69,1.4.11.21.21.54.44.62.11-.25.06-.53.07-.79.01-.43.09-.87,0-1.3.3.36.53.84.75,1.25.23.43.37,1.07.74,1.39.04-1.37-.2-2.76-.37-4.12.31.16.55.49.7.81.3.63.57,1.38.79,2.05.09.27.15.54.21.82.09.5.16,1.02.21,1.53.02.22.04.43.07.64v.06s0,.22,0,.22v.04s0,.42,0,.42Z"/>
                <path class="cls-19" d="m111.84,173.34c-.02.06-.05.11-.09.16h0s-.01.03-.02.03c-.02.03-.04.06-.07.08-.12.13-.27.25-.46.34-.68.36-1.7.5-2.23.64-.49.12-.97.22-1.45.32-.23.05-.45.09-.67.15-.26.07-.52.14-.78.24-.07.02-.15.05-.23.08-.78.32-1.5.76-2.17,1.28,0,0-.02,0-.03.02-.43.28-.84.57-1.24.88-.45.34-1.06,1.11-1.53,1.12.06-.1.12-.2.17-.29.67-1.13,1.44-2.11,2.48-2.91.96-.74,2.12-1.3,3.22-1.77.29-.12.92-.22,1.1-.52-.25-.4-1.12-.31-1.53-.43.27-.14.74-.14,1.06-.16.23-.02.65.08.84-.08-.24-.33-.92-.4-1.29-.49-.72-.17-1.58-.03-2.26-.32.31-.37,1.28-.37,1.74-.41.61-.06,1.22,0,1.81.12h0c.15.04.3.08.45.12.48.14,1.57.42,1.7,1.05,0,0,0,.01,0,.02l.33.17h.02s.32.18.32.18l.35.17.18.09h.02s.18.1.18.1l.05.03Z"/>
                <path class="cls-19" d="m110.02,174.87c-.5.64-.44,1.76-.8,2.5-.35-.64-.2-2.14.08-2.73-1.39,1.71-2.22,3.98-1.61,6.18.13.49.34.99.59,1.47-.04-.05-.08-.1-.12-.16-.98-1.32-2.4-2.53-2.15-4.32.16-1.17.76-2.08,1.51-2.9-.23.05-.45.09-.67.15.06-.07.11-.14.18-.2.35-.38.78-.71,1.26-.95l1.7-1.08.39-.25.62-.39.09-.06c.1.13.18.26.24.4h0s0,0,0,.02c.02.04.04.08.06.13.08.17.14.34.18.52,0,0,0,.01,0,.01.02.07.03.12.04.18.02.07.03.14.04.21.04.25.04.5.03.76-.07,1.34-.68,2.74-1.26,3.8-.17-.35.07-1.05.05-1.46-.03-.57-.25-1.3-.46-1.83Z"/>
                <path class="cls-19" d="m122.32,179.09c-.74-.05-1.47.03-2.19.05-.94.02-1.85-.07-2.69-.74-1.2-.95-2.08-2.55-3.64-3-.14-.04-.24-.05-.31-.03-.58-.31-1.26-.61-1.8-1-.18-.12-.35-.27-.49-.42-.17-.19-.31-.4-.39-.64,0-.02-.02-.05-.02-.07h0s-.02-.07-.02-.1h0c-.02-.12-.04-.24-.04-.38,0-.02,0-.05,0-.07-.04,0-.05,0-.07-.01.02-.01.04-.01.07-.02.07,0,.2,0,.33,0,.01,0,.03,0,.04,0,.06,0,.11,0,.16.01.05,0,.11,0,.16.01.22.02.44.04.66.06,0,0,.02,0,.02,0,.25.03.51.06.76.1,1.13.17,2.21.44,3.27.88.82.33,1.64.73,2.4,1.19.18.11.55.28.56.49-1.02-.12-2.06-.95-3.1-.81.54.51,1.5.66,2.16,1.01.57.31,1.32.72,1.68,1.28-.69-.23-1.33-.65-2.01-.93-.65-.27-1.77-.91-2.49-.75.53.57,1.34,1,1.97,1.49.84.66,1.69,1.22,2.68,1.62.72.29,1.55.59,2.37.76Z"/>
                <path class="cls-19" d="m111.33,172.54s.02,0,.03,0c0,0-.02,0-.01.02-.03.04-.06.08-.09.12-.07.09-.14.18-.2.27-.09.12-.17.25-.25.37,0,0-.01,0-.01.01v-.08s-.07-.47-.07-.47v-.08s-.01-.03-.01-.03v-.05c.2-.04.4-.06.61-.08Z"/>
                <path class="cls-19" d="m122.51,165.6c-.29.54-1.05.98-1.44,1.48-.92,1.18-1.62,2.42-2.86,3.32-.53.38-1.1.71-1.69.98-.53.24-1.21.33-1.69.62.06.05.13.09.21.12-.41.09-.84.17-1.26.24-.8.14-1.62.11-2.43.18.79-1.01,1.79-1.88,3-2.29,1.26-.43,2.62-.47,3.76-1.22,1.09-.72,2.03-1.7,3.06-2.51.42-.33.87-.64,1.33-.92Z"/>
                <path class="cls-19" d="m110.99,172.58c-.07-.85.5-1.84.94-2.52.6-.94,1.47-2.15,2.48-2.7-.42.86-1.36,1.61-1.54,2.57.73-.71,1.45-1.3,2.4-1.73.51-.23,1.68-.88,2.28-.74-1.17.59-2.21,1.63-3.15,2.51-.78.73-1.48,1.5-2.07,2.4-.22.33-.58.77-.57,1.18l-.76-.98Z"/>
              </g>
              <path class="cls-31" d="m110.89,172.2c-.1-1.42-.42-2.82-.38-4.26.01-.41.04-.82.08-1.22.23-.06.37-.32.24-.57-.01-.02-.03-.03-.04-.05.02-.02.05-.03.06-.04.14-.1.17-.34.1-.48.27-.07.41-.38.22-.63-.02-.03-.04-.07-.04-.06-.01-.03-.03-.06-.04-.09,0-.02-.03-.11,0-.01,0-.01,0-.03-.01-.04.32.03.54-.46.25-.66.18-.05.28-.21.26-.39,0-.06-.04-.12-.06-.17.1-.08.13-.27,0-.37-.26-.21-.57-.06-.75.17-.19.15-.32.37-.33.62,0,.05,0,.09.01.13-.11.11-.17.26-.18.41-.01.17.01.34.07.51-.05.04-.09.09-.13.15-.09.15-.11.33-.08.5-.09.12-.16.27-.17.42-.02.26.13.56.38.65.02,0,.03,0,.05,0-.06.38-.11.76-.15,1.14-.16,1.47.06,2.96.26,4.42.04.26.42.18.4-.07Z"/>
            </g>
          </g>
        </g>
      </g>
    </g>
  </g>
</svg>