<?xml version="1.0" encoding="UTF-8"?>
<svg xmlns="http://www.w3.org/2000/svg" viewBox="0 0 220 224.58">
  <defs>
    <style>
      .cls-1, .cls-2, .cls-3, .cls-4 {
        fill: #a8846f;
      }

      .cls-5 {
        fill: #dfeff4;
      }

      .cls-6, .cls-7 {
        fill: #fff;
      }

      .cls-8 {
        fill: #e8dcc6;
      }

      .cls-9, .cls-10 {
        fill: #ddcdba;
      }

      .cls-11, .cls-7 {
        opacity: .6;
      }

      .cls-12 {
        fill: #efe1ce;
        opacity: .5;
      }

      .cls-13 {
        isolation: isolate;
      }

      .cls-14 {
        fill: #fff3e9;
      }

      .cls-15 {
        fill: #c0ded8;
      }

      .cls-16 {
        fill: #f9efde;
      }

      .cls-17 {
        fill: #8cad66;
      }

      .cls-2 {
        opacity: .1;
      }

      .cls-18 {
        fill: #bfa27f;
      }

      .cls-19 {
        fill: #774e34;
      }

      .cls-20 {
        fill: #fdf7ef;
      }

      .cls-21 {
        fill: #8e6a4c;
      }

      .cls-22 {
        fill: #a4c9bf;
      }

      .cls-3 {
        opacity: .2;
      }

      .cls-10 {
        mix-blend-mode: multiply;
      }

      .cls-23 {
        fill: #332722;
      }

      .cls-24 {
        fill: #7e8252;
      }

      .cls-25 {
        fill: #cbdffd;
      }

      .cls-26 {
        fill: #845b3e;
      }

      .cls-4 {
        opacity: .3;
      }

      .cls-27 {
        fill: #718c4b;
      }

      .cls-28 {
        fill: #a7c3e5;
      }

      .cls-29 {
        fill: #d9e5d1;
      }

      .cls-30 {
        fill: #f4e5d4;
      }

      .cls-31 {
        fill: #377f65;
      }
    </style>
  </defs>
  <g class="cls-13">
    <g id="Layer_2" data-name="Layer 2">
      <g id="_2" data-name="2">
        <g>
          <circle class="cls-29" cx="110" cy="112.29" r="110"/>
          <g>
            <g>
              <path class="cls-16" d="m119.59,91.78c-16.56,7.91-36.84,4.28-53.72-.55l-.38-.28-4.39-3.39c6.71-2.56,10.28-7.21,12.77-14.12,3.33-9.25,2.02-18.33,3.22-27.71.4-3.18,3.6-3.45,6.9-3.37,1.48.04,2.98.15,4.26.09,3.08-.13,6.18-.16,9.25-.13,2.68.01,5.86-.65,8.49.18,5.35,1.66,4.23,9.98,4.38,14.09.23,6.65,5.33,14.12,9.2,19.25,4.84,6.43,10.02,11.18.03,15.95Z"/>
              <g>
                <path class="cls-16" d="m175.9,123.41c-3.17.74-6.34,1.45-9.54,2.11-13.75,2.88-27.67,5.04-41.62,6.33-27.28,2.55-54.74,1.83-81.62-2.99-6.26-1.12-12.49-2.47-18.68-4.05-3.23-.81-6.44-1.7-9.65-2.65,3.88-8.62,9.5-15.84,16.52-22.06,2.59-2.3,5.36-4.47,8.31-6.53,4.2-2.95,8.58-5.54,13.11-7.73,8.8-4.27,18.13-7.05,27.83-8.08,4.32-.47,8.7-.59,13.15-.35,26.65,1.48,64.36,13.27,78.84,37.7,1.55,2.59,2.63,5.39,3.35,8.31Z"/>
                <path class="cls-26" d="m175.54,149.97c-1.9,10.06-6.95,18.62-14.16,25.18-3.37,3.06-7.19,5.67-11.4,7.8-5.54,2.8-11.34,4.88-17.31,6.36-18.66,4.65-38.92,3.56-57.78,1.31-18.15-2.17-42.1-5.52-55.03-20.19-9.75-11.06-12.14-27.45-7.77-41.3.48-1.58,1.06-3.07,1.67-4.55,3.15,1.35,6.33,2.61,9.56,3.79,5.93,2.16,11.98,4.03,18.12,5.62,26.09,6.76,53.96,8.45,81.36,5.44,15.1-1.64,30.04-4.71,44.47-9.13,3.14-.96,6.26-1.98,9.35-3.07,1.13,7.56.26,15.61-1.09,22.77Z"/>
                <path class="cls-19" d="m176.63,127.21c-43.01,15.18-91.59,18.05-135.18,6.76-9.5-2.45-18.76-5.58-27.68-9.4.34-.81.66-1.63,1.02-2.41,9.35,2.79,18.81,5.01,28.33,6.71,43.79,7.87,89.19,4.78,132.78-5.46.31,1.24.54,2.51.73,3.8Z"/>
                <path class="cls-8" d="m80.55,77.74c-.98.92-1.93,1.83-2.86,2.71-8.07,7.58-15.52,15.6-21.74,24.79-4.47,6.63-9.58,14.93-12.84,23.63-6.26-1.12-12.49-2.47-18.68-4.05-3.23-.81-6.44-1.7-9.65-2.65,3.88-8.62,9.5-15.84,16.52-22.06,2.59-2.3,5.36-4.47,8.31-6.53,4.2-2.95,8.58-5.54,13.11-7.73,8.8-4.27,18.13-7.05,27.83-8.08Z"/>
                <path class="cls-19" d="m161.38,175.15c-3.37,3.06-7.19,5.67-11.4,7.8-5.54,2.8-11.34,4.88-17.31,6.36-18.66,4.65-38.92,3.56-57.78,1.31-18.15-2.17-42.1-5.52-55.03-20.19-9.75-11.06-12.14-27.45-7.77-41.3.48-1.58,1.06-3.07,1.67-4.55,3.15,1.35,6.33,2.61,9.56,3.79,5.93,2.16,11.98,4.03,18.12,5.62-2.83,10.09-2.6,20.37,4.38,28.91,8.08,9.89,21.03,13.54,33.18,15.32,18.06,2.63,36.76,2.52,54.93,1.02,9.38-.77,18.5-2.03,27.44-4.07Z"/>
                <path class="cls-20" d="m103.48,97.59c-3.18-1.6-19.95-6.05-19.03-10.04.69-2.94,7.31-5.08,9.46-5.67,4.03-1.13,7.96-.97,11.99-.12,11.81,2.49,23.72,7.34,34.53,12.66,4.8,2.36,8.98,5.46,12.7,9.27,6.6,8.1,9.51,11.87,11.36,16.15.79,1.83,1.4,3.73,1.89,5.68-13.75,2.88-27.67,5.04-41.62,6.33.47-2.37,1.16-4.71,1.62-7.13,2.79-14.74-11.94-21.62-22.87-27.14Z"/>
                <path class="cls-21" d="m167.95,139.94c.08,11.09-2.07,21.85-11.17,29.19-6.78,5.48-16.7,7.18-25.19,6.56-6.29-.46-16.7-1.7-19.96-8.12-2.16-4.26.71-8.04,2.79-11.71,3.06-5.39,5.99-10.53,8.32-16.27.03-.05.05-.12.07-.18,15.1-1.64,30.04-4.71,44.47-9.13.48,3.22.65,6.48.67,9.66Z"/>
                <path class="cls-20" d="m113.7,116.93c-3.34-5.9-24.03-19.63-26.75-7.64-1.48,6.51,7.04,15.1,12.34,17.02,7.25,2.62,13.24-2.12,14.41-9.38Z"/>
                <path class="cls-6" d="m151.91,115.43c-3.83-6.5-7.72-13.2-13.81-17.92-4.41-3.42-10.11-6.28-15.83-4.94-2.69.63-7.17,2.39-5.99,5.97,1.21,3.66,10.07,5.77,13.23,7.45,4.29,2.28,9.28,5.02,11.57,9.5,1.19,2.32,1.08,7.68,3.93,9.03,3.42,1.62,7.06-7.86,6.9-9.08Z"/>
                <path class="cls-1" d="m146.2,143.41c-5.9,3.04-17.31,18.57-10.14,24.06,5.97,4.57,11.59-4.03,13.69-8.6,2.52-5.51,1.86-9.47-3.55-15.45Z"/>
              </g>
              <path class="cls-8" d="m84.99,57.2c-.36,4.95-1,10.05-2.53,14.79-1.37,4.24-4.15,7.76-7.29,10.85-.86.84-8.59,8.94-9.68,8.11l-4.39-3.39c6.71-2.56,10.28-7.21,12.77-14.12,3.33-9.25,2.02-18.33,3.22-27.71.4-3.18,3.6-3.45,6.9-3.37.26,4.96,1.36,9.83,1,14.84Z"/>
              <path class="cls-20" d="m106.59,46.28c-2.13-.82-6.11-.7-8.01.41-1.69,1-3.6,2.89-1.85,4.47,1.78,1.61,4.47,1.9,6.29,3.64,3.88,3.71,2.03,10.37,3.23,15.16.86,3.45,4.48,10.88,9.04,10.6,1.2-3.05-2.25-8.61-3.25-11.29-2.35-6.33-4.27-12.64-5.62-19.26"/>
              <g>
                <path class="cls-5" d="m92.19,10.5c.4-3.54-.21-7.6-2.59-10.37-.3-.35-.89.08-.74.48.64,1.77,1.41,3.44,1.69,5.32.24,1.63.19,3.28-.04,4.91-.49,3.42-1.73,6.67-2.75,9.96-1.33,4.27-2.32,9.19-.98,13.6.67,2.19,2.09,4.02,4.4,4.54.46.1.75-.64.28-.81-4.14-1.49-3.93-7.47-3.5-11.01.68-5.71,3.59-10.89,4.23-16.61Z"/>
                <path class="cls-5" d="m95.66,21.64c.67-1.57,1.61-2.89,2.51-4.33.21-.33-.21-.84-.57-.67-1.32.59-2.2,1.93-2.88,3.15-.82,1.48-1.35,3.15-1.73,4.79-.76,3.28-.92,7.12.51,10.24.72,1.58,1.87,2.84,3.44,3.61.63.3,1.07-.61.48-.96-3.24-1.95-3.64-6.6-3.25-9.97.23-2,.7-4,1.5-5.85Z"/>
                <path class="cls-5" d="m102.77,17.71c-4.49,3.62-6.11,10.56-3.48,15.72.3.59,1.12.03.85-.54-2.36-4.99.01-10.43,3.41-14.25.44-.49-.23-1.37-.78-.92Z"/>
              </g>
              <ellipse class="cls-18" cx="93.24" cy="47.24" rx="11.83" ry="2.25"/>
            </g>
            <g>
              <path class="cls-27" d="m210,148.27h-52.62s1.94,49.47,1.96,49.49c.43.41,10.44,6.28,24.3,6.28,19.44-1.32,24.34-6.45,24.34-6.45l2.01-49.31Z"/>
              <path class="cls-27" d="m159.04,149.72l2.92,47.19s13.14,6.81,31.44,3.57l2.9-47.75s-20.97,3.35-37.26-3.01Z"/>
              <path class="cls-24" d="m210,148.27c0,1.54-11.78,6-26.31,6s-26.31-4.46-26.31-6,11.78-5.2,26.31-5.2,26.31,3.66,26.31,5.2Z"/>
              <path class="cls-27" d="m183.69,154.27c8.63,0,16.23-1.74,20.73-3.42-2.32-1.49-10.71-3.73-20.73-3.73s-18.41,2.25-20.73,3.73c4.5,1.68,12.11,3.42,20.73,3.42Z"/>
              <path class="cls-17" d="m183.69,143.07c-14.53,0-26.31,3.66-26.31,5.2s11.78,6,26.31,6,26.31-4.46,26.31-6-11.78-5.2-26.31-5.2Zm0,9.24c-12.58,0-22.77-2.66-22.77-3.99s10.19-4.5,22.77-4.5,22.77,3.17,22.77,4.5-10.19,3.99-22.77,3.99Z"/>
              <path class="cls-27" d="m191.03,149.62c0,.38-3.29,1.49-7.34,1.49s-7.34-1.11-7.34-1.49,3.29-1.3,7.34-1.3,7.34.91,7.34,1.3Z"/>
              <path class="cls-23" d="m187.36,136.23c-2.34,4.79-2.87,13.49-3.15,13.49s-.89-8.37.61-14.33l2.54.84Z"/>
              <path class="cls-23" d="m187.45,136.18c-.15.53-.87.79-1.62.59-.75-.21-1.24-.8-1.09-1.33.15-.53.87-.79,1.62-.59.75.21,1.24.8,1.09,1.33Z"/>
              <path class="cls-17" d="m162.98,151.22l2.81,42.7s8.34,4.16,18.12,3.05l3.57-42.8-24.49-2.95Z"/>
              <path class="cls-24" d="m159.35,197.76s22.64,12.37,48.64-.18c0,0-5.58,6.45-24.34,6.45s-24.3-6.28-24.3-6.28Z"/>
            </g>
            <g>
              <path class="cls-12" d="m152.27,172.63h0s.08-.03.12-.04v-3.62c.97-.35,1.5-.65,1.5-.88,0-.13.02-2.99-.03-3.67.01-.03.03-.06.03-.08,0-.15.03-3.54-.05-3.58.03-.05.05-.09.05-.14,0-1.26-12.82-3.68-28.62-3.68s-28.62,2.59-28.62,3.68v7.48c0,.22.54.53,1.52.88v3.66c-8.2.37-8.85,6.79-8.9,7.85,0,0,2.02,37.14,2.02,38.5,0,1.19,15.22,5.1,33.99,5.1s33.99-3.91,33.99-5.1c0-.04,2.02-38.35,2.02-38.35.26-5.14-5.5-8-9-8Z"/>
              <path class="cls-9" d="m160.4,181.94c0,1.09-15.37,4.25-34.34,4.25s-34.34-3.16-34.34-4.25l1.96,32.06c0,1.09,14.37,4.71,32.38,4.71s32.38-3.62,32.38-4.71l1.96-32.06Z"/>
              <path class="cls-30" d="m158.91,181.94c0,1.09-15.06,4.25-33.65,4.25s-33.65-3.16-33.65-4.25,15.06-3.68,33.65-3.68,33.65,2.59,33.65,3.68Z"/>
              <path class="cls-3" d="m147.79,160.71c0,.72-10.08,2.35-22.52,2.35s-22.52-1.63-22.52-2.35,10.08-2.43,22.52-2.43,22.52,1.71,22.52,2.43Z"/>
              <path class="cls-6" d="m97.82,161.34s3.39,7.98,12.35,9.13c8.96,1.15,22.19-5.61,22.19-5.61,0,0-22.83.06-34.54-3.52Z"/>
              <path class="cls-1" d="m125.32,168.76c-15.18,0-28.8-3.01-28.8-4.43v-3.72h.36c.26.95,12.76,4.07,28.45,4.07s27.63-3.01,28.42-4.05l.05-.07h.17s.05.05.05.05c.07.07.13.13.1,3.6v.12c0,1.42-13.63,4.43-28.8,4.43Zm-28.45-7.71v3.28c.26.95,12.76,4.07,28.45,4.07s28.19-3.12,28.45-4.08v-.12c.01-1.89,0-2.74-.02-3.12-2.22,1.45-14.73,3.95-28.43,3.95s-26.2-2.47-28.45-3.99Z"/>
              <path class="cls-1" d="m153.98,164.6c-.22.21-.5.36-.8.5-.29.14-.57.23-.86.35-.58.19-1.16.38-1.75.54-1.17.33-2.36.59-3.55.85-2.38.5-4.78.91-7.2,1.25-1.21.17-2.42.31-3.63.45-1.21.11-2.42.26-3.64.32-2.43.18-4.87.24-7.31.27-4.87-.03-9.75-.31-14.58-.95-2.42-.33-4.82-.72-7.21-1.23-1.19-.27-2.38-.55-3.55-.9-.59-.17-1.17-.36-1.75-.58-.29-.11-.57-.22-.86-.37-.14-.07-.28-.15-.42-.24-.12-.12-.31-.15-.37-.49h.36s0,0,0,0v2.05s-.01,1.03-.01,1.03c.02.33-.09.77.17.8,1.12.66,2.51.98,3.81,1.34,2.65.66,5.35,1.14,8.06,1.53,5.42.75,10.9,1.1,16.37,1.11,5.47,0,10.95-.37,16.37-1.11,2.71-.38,5.41-.84,8.06-1.49,1.31-.35,2.68-.66,3.85-1.29.12-.08.28-.21.27-.25v-.51s0-1.03,0-1.03v-1.03s-.02-.51-.02-.51v-.25s-.02-.12-.02-.12v-.06s0-.02,0-.02c0,0,0,.02,0,.02-.04-.06.04.13.22,0h0s-.03.02-.03.02Zm-.2-.18c.18-.12.28.07.24.02,0,.02.02.05.02.05v.04s.02.07.02.07v.13s.02.26.02.26v.52s.02,1.03.02,1.03v1.03s0,.51,0,.51c-.05.32-.26.36-.4.48-1.25.67-2.6.97-3.92,1.32-2.67.65-5.38,1.11-8.09,1.48-5.44.74-10.92,1.09-16.4,1.09-5.48-.01-10.97-.38-16.4-1.13-2.72-.37-5.42-.82-8.1-1.46-1.33-.36-2.67-.63-3.93-1.35-.07-.04-.17-.13-.25-.25-.03-.05-.03-.08-.05-.13-.01-.14,0-.11,0-.17v-.51s0-1.03,0-1.03v-2.05s0,0,0,0l-.02-.88.38.88c.02.05.35.28.6.37.27.12.55.22.83.31.57.19,1.15.35,1.74.49,1.17.29,2.36.52,3.55.73,2.38.44,4.77.77,7.18,1.04,4.81.53,9.64.82,14.48.81,2.41,0,4.84-.03,7.25-.17,2.42-.11,4.83-.27,7.24-.52,2.41-.25,4.81-.55,7.2-.99,1.19-.23,2.38-.47,3.54-.78,1.15-.33,2.39-.57,3.32-1.26l-.02.02Z"/>
              <path class="cls-1" d="m125.32,176.18c-12.88,0-23.5-2.07-27.17-3.38l-.12-.04v-4.12l.24.09c3.62,1.31,14.17,3.38,27.05,3.38s23.42-2.06,27.06-3.36l.24-.08v4.07l-.12.04c-3.62,1.32-14.2,3.42-27.18,3.42Zm-26.93-3.67c3.75,1.3,14.23,3.32,26.93,3.32s23.24-2.04,26.94-3.35v-3.31c-3.87,1.31-14.3,3.3-26.94,3.3s-23.07-2-26.93-3.31v3.36Z"/>
              <path class="cls-2" d="m147.85,160.71c0,.72-10.08,2.35-22.52,2.35s-22.52-1.63-22.52-2.35,10.08-2.43,22.52-2.43,22.52,1.71,22.52,2.43Z"/>
              <path class="cls-1" d="m154.05,160.63s0,.02-.02.1c-.04.1-.1.16-.19.24-.19.16-.48.32-.88.49-.8.34-2,.71-3.56,1.09-3.11.74-7.61,1.6-13.06,2.18-2.73.31-5.7.5-8.84.58-3.15.09-6.46-.02-9.89-.23-3.42-.25-6.95-.65-10.5-1.25-1.78-.3-3.56-.65-5.33-1.08-.89-.21-1.77-.45-2.65-.72-.44-.14-.87-.28-1.3-.46-.43-.2-.86-.29-1.26-.77-.14-.19.04-.45.14-.51.11-.09.21-.15.32-.21.21-.11.43-.2.65-.28.44-.16.88-.29,1.32-.41.89-.24,1.78-.44,2.67-.62,1.79-.36,3.58-.64,5.36-.88,3.56-.48,7.09-.79,10.51-.98,3.42-.18,6.73-.27,9.87-.2,3.14.06,6.1.22,8.83.43,5.46.43,9.99,1.05,13.12,1.7,1.57.32,2.78.65,3.59.96.4.16.71.31.89.46.2.14.22.36.21.35v.02Zm-.21-.02s.02-.06-.14-.19c-.15-.13-.44-.27-.84-.42-.79-.3-2-.62-3.56-.93-3.12-.62-7.64-1.23-13.1-1.58-2.73-.17-5.68-.29-8.81-.31-3.13-.01-6.43,0-9.84.18-3.41.17-6.93.46-10.48.92-1.78.23-3.56.5-5.34.84-.89.17-1.78.36-2.65.6-.44.12-.87.24-1.29.4-.21.08-.42.16-.61.26-.2.1-.36.25-.31.24.19.23.69.43,1.09.57.42.16.85.29,1.29.41.87.25,1.75.45,2.64.64,1.77.38,3.55.67,5.32.92,3.54.5,7.05.82,10.45,1,3.4.21,6.7.24,9.81.22,3.12-.04,6.07-.2,8.79-.39,5.44-.41,9.96-1.04,13.06-1.75,1.55-.35,2.76-.69,3.54-1.01.39-.16.68-.31.83-.43.16-.13.13-.18.14-.21v.02Z"/>
              <path class="cls-10" d="m159.92,182.33l-1.86,30.75c0,1.09-14.2,4.71-32,4.71s-32-3.62-32-4.71l-1.86-30.75c-.31-.15-.48-.28-.48-.4l1.96,32.06c0,1.09,14.37,4.71,32.38,4.71s32.38-3.62,32.38-4.71l1.96-32.06c0,.11-.17.25-.48.4Z"/>
              <path class="cls-9" d="m100.3,181.94c0-1,12.77-3.28,29.3-3.63-1.42-.03-2.87-.05-4.34-.05-18.58,0-33.65,2.59-33.65,3.68s15.06,4.25,33.65,4.25c1.47,0,2.92-.02,4.34-.06-16.53-.43-29.3-3.19-29.3-4.19Z"/>
              <path class="cls-14" d="m158.83,181.8c-1.16,1.17-15.74,3.65-33.56,3.65s-32.4-2.48-33.56-3.65c-.05.05-.08.1-.08.14,0,1.09,15.06,4.25,33.65,4.25s33.65-3.16,33.65-4.25c0-.04-.03-.09-.08-.14Z"/>
              <path class="cls-4" d="m136.11,158.7c-3.2-.25-6.88-.42-10.78-.42-12.44,0-22.52,1.71-22.52,2.43,0,.63,7.78,1.97,18.09,2.28,2.44-1.99,8.06-3.57,15.21-4.29Z"/>
              <g>
                <path class="cls-1" d="m128.23,206.52c0,.25-.21.46-.46.46s-.46-.21-.46-.46.21-.46.46-.46.46.21.46.46Z"/>
                <path class="cls-1" d="m116.74,197.78c0,.25-.21.46-.46.46s-.46-.21-.46-.46.21-.46.46-.46.46.21.46.46Z"/>
                <path class="cls-1" d="m142.63,193.62c0,.25-.21.46-.46.46s-.46-.21-.46-.46.21-.46.46-.46.46.21.46.46Z"/>
                <path class="cls-1" d="m151.72,202.82c0,.25-.21.46-.46.46s-.46-.21-.46-.46.21-.46.46-.46.46.21.46.46Z"/>
                <path class="cls-1" d="m143.56,212.48c0,.25-.21.46-.46.46s-.46-.21-.46-.46.21-.46.46-.46.46.21.46.46Z"/>
                <circle class="cls-1" cx="99.84" cy="210.24" r=".46"/>
                <path class="cls-1" d="m95.57,189.2c0,.25-.21.46-.46.46s-.46-.21-.46-.46.21-.46.46-.46.46.21.46.46Z"/>
                <path class="cls-1" d="m130.87,190.13c0,.25-.21.46-.46.46s-.46-.21-.46-.46.21-.46.46-.46.46.21.46.46Z"/>
                <circle class="cls-1" cx="154.9" cy="190.13" r=".46"/>
                <path class="cls-1" d="m120.38,213.4c0,.25-.21.46-.46.46s-.46-.21-.46-.46.21-.46.46-.46.46.21.46.46Z"/>
                <circle class="cls-1" cx="126.63" cy="198.46" r=".27"/>
                <circle class="cls-1" cx="99.84" cy="199" r=".27"/>
                <path class="cls-1" d="m115.39,189.2c0,.15-.12.27-.27.27s-.27-.12-.27-.27.12-.27.27-.27.27.12.27.27Z"/>
                <circle class="cls-1" cx="143.83" cy="204.68" r=".27"/>
                <circle class="cls-1" cx="155.36" cy="197.05" r=".27"/>
                <circle class="cls-1" cx="145.96" cy="188.12" r=".27"/>
                <circle class="cls-1" cx="154.44" cy="211.27" r=".27"/>
              </g>
              <path class="cls-7" d="m101.71,173.58c-.22.1-7.58,1.64-7.4,9.28.12,5.03.38,28.17.81,37.75,2.81.77,7.02,1.63,12.15,2.3-.25-8.89-.33-31.09.38-38.38.73-7.44,5.27-9.06,5.73-9.29-4.72-.42-8.74-1.03-11.67-1.66Z"/>
              <g class="cls-11">
                <path class="cls-6" d="m118.63,175.8c-2.13-.11-4.34-.47-4.34-.47,0,0-3.96.67-4.9,9.5-.61,5.81-.53,31.23-.61,38.56.95.12,1.94.22,2.94.33.24-8,.68-33.05,1.64-38.61,1.15-6.66,5.26-9.3,5.26-9.3Z"/>
              </g>
              <g>
                <ellipse class="cls-1" cx="150.91" cy="181.8" rx=".35" ry=".15"/>
                <path class="cls-1" d="m124.17,182.83c0,.13-.26.24-.58.24s-.58-.11-.58-.24.26-.24.58-.24.58.11.58.24Z"/>
                <path class="cls-1" d="m117.31,180.24c0,.13-.26.24-.58.24s-.58-.11-.58-.24.26-.24.58-.24.58.11.58.24Z"/>
                <path class="cls-1" d="m130.98,179.56c0,.13-.26.24-.58.24s-.58-.11-.58-.24.26-.24.58-.24.58.11.58.24Z"/>
                <path class="cls-1" d="m144.67,182.59c0,.13-.26.24-.58.24s-.58-.11-.58-.24.26-.24.58-.24.58.11.58.24Z"/>
                <path class="cls-1" d="m137.87,181.17c0,.08-.16.15-.35.15s-.35-.07-.35-.15.16-.15.35-.15.35.07.35.15Z"/>
                <path class="cls-1" d="m127.76,184.62c0,.08-.16.15-.35.15s-.35-.07-.35-.15.16-.15.35-.15.35.07.35.15Z"/>
                <path class="cls-1" d="m110.52,184.14c0,.08-.16.15-.35.15s-.35-.07-.35-.15.16-.15.35-.15.35.07.35.15Z"/>
                <path class="cls-1" d="m96.28,181.65c0,.08-.16.15-.35.15s-.35-.07-.35-.15.16-.15.35-.15.35.07.35.15Z"/>
                <path class="cls-1" d="m105.46,180.38c0,.08-.16.15-.35.15s-.35-.07-.35-.15.16-.15.35-.15.35.07.35.15Z"/>
                <path class="cls-1" d="m102.35,182.35c0,.13-.26.24-.58.24s-.58-.11-.58-.24.26-.24.58-.24.58.11.58.24Z"/>
              </g>
              <path class="cls-1" d="m152.4,173.22l-3.24.76c-1.1.3-2.27.38-3.4.58l-3.4.54c-1.14.13-2.28.21-3.41.32l-3.41.32c-1.13.15-2.28.15-3.42.19l-6.85.21-6.83-.21c-1.14-.03-2.28-.05-3.41-.2l-3.41-.32c-1.14-.11-2.28-.19-3.42-.32l-3.39-.54-1.7-.25c-.57-.07-1.13-.17-1.69-.32l-3.39-.8.23.03h0c-.26,0-.53-.01-.79,0-.26,0-.54-.02-.79.02-.52.08-1.06.12-1.56.28-.25.08-.52.12-.76.23l-.73.32c-.24.11-.45.27-.68.4-.23.13-.43.31-.64.47-.21.16-.4.34-.58.54-.18.19-.36.38-.51.6-.32.42-.6.87-.82,1.35-.45.95-.72,2.01-.79,3.05v-.03l1.1,19.93.55,9.97.28,4.98.14,2.49.03.62.02.31v.16s.01.04.01.04c0,.04-.03-.2,0-.08l.03.07c0-.1.12.08.3.15.16.09.35.17.53.25,3.04,1.14,6.34,1.76,9.59,2.34,3.27.56,6.56.98,9.86,1.28,6.6.61,13.25.74,19.86.46,6.62-.3,13.24-1.01,19.73-2.32,1.62-.34,3.23-.71,4.81-1.18.78-.24,1.58-.5,2.25-.86.09-.04.14-.09.22-.14.05-.03.07-.11.04.01.02-.17.03-.4.04-.6l.07-1.25.56-9.96,1.11-19.92.28-4.98c.04-.84.12-1.65.08-2.48-.1-.77-.27-1.57-.67-2.27-1.5-2.81-4.93-4.56-8.01-4.27Zm-.07-1.19c1.8.26,3.39.88,4.87,1.73,1.46.84,2.82,1.99,3.62,3.52.43.75.63,1.61.73,2.48.05.83-.02,1.68-.06,2.5l-.25,4.98-.99,19.93-.49,9.96-.06,1.25-.04.64c-.07.34-.21.39-.32.5-.1.07-.21.15-.31.2-.8.43-1.59.68-2.4.94-1.61.5-3.23.88-4.87,1.24-6.54,1.37-13.18,2.14-19.85,2.49-3.33.17-6.67.23-10.01.13-3.34-.1-6.67-.31-9.99-.63-3.32-.33-6.63-.77-9.92-1.36-3.28-.62-6.56-1.24-9.75-2.46-.2-.09-.4-.17-.6-.29-.18-.12-.42-.17-.67-.6l-.03-.07c.01.09-.03-.17-.03-.15v-.04s0-.16,0-.16l-.02-.31-.03-.62-.12-2.49-.25-4.98-.49-9.96-.99-19.92v-.02s0-.01,0-.01c.07-1.14.37-2.24.86-3.26.24-.51.53-1,.88-1.44.16-.23.35-.44.55-.64.19-.21.4-.4.62-.58.22-.18.43-.38.67-.52.24-.15.47-.32.72-.45.5-.26,1.01-.52,1.54-.7.52-.23,1.08-.33,1.63-.49.27-.09.55-.11.83-.17.28-.05.56-.1.84-.16h0s.1,0,.1,0l.13.04,3.21.99c1.06.37,2.21.5,3.31.76l3.34.65c1.12.18,2.25.29,3.38.44l3.39.41c1.13.16,2.27.19,3.41.24l6.83.29,6.82-.29c1.14-.05,2.28-.07,3.4-.23l3.39-.41c1.13-.15,2.26-.27,3.38-.44l3.33-.66c1.1-.26,2.22-.39,3.3-.76l3.37-1.04h.06Z"/>
              <path class="cls-4" d="m152.33,172.63s0,0,0,0c.04-.01.08-.03.12-.04v-3.62c.97-.35,1.5-.65,1.5-.88,0-.13.02-2.99-.03-3.67.01-.03.03-.06.03-.08,0-.15.03-3.71-.06-3.59-.74.97-9.1,3.08-20.32,3.84v7.41l-2.88.24v3.65s-16.79,1.15-32.54-3.25c8.65,4.59,34.35,5.09,34.61,5.39,1.51,1.77,3.31,4.36,3.34,6.77.04,3.1-1.22,24.94-1.87,35.92-27.04,3.31-42.94-2.11-42.96-1.74,15.25,6.77,39.41,5,42.77,4.83,14.54-.91,25.26-3.83,25.26-4.83,0-.04,2.02-38.35,2.02-38.35.26-5.14-5.5-8-9-8Z"/>
            </g>
            <g>
              <g>
                <path class="cls-15" d="m55.42,193.55c-.07,0-.14,0-.21-.02-.01,0-.02,0-.03,0-1.07-.07-2.13.05-3.17.07-1.36.03-2.68-.11-3.9-1.07-1.74-1.38-3.02-3.71-5.28-4.35-.21-.06-.35-.07-.45-.04-.44.11.09.97.18,1.46.2,1.07.12,2.2-.19,3.24-.32,1.09-.95,2.04-1.61,2.96-.68.94-1.24,1.9-1.85,2.9-.64,1.03-1.55,1.98-2,3.11-.67-1.23-1.26-2.44-2.06-3.59-.01-.01-.02-.04-.03-.05-.06-.07-.12-.15-.18-.23-1.42-1.91-3.48-3.68-3.12-6.27.23-1.69,1.1-3.02,2.19-4.21.17-.19.35-.38.54-.56-.09.03-.17.06-.26.09-.33.13-.66.26-.98.4-.47.2-.94.42-1.4.64-1.2.58-2.36,1.25-3.48,1.98-.01,0-.02,0-.04.02-.62.4-1.22.83-1.8,1.27-.66.5-1.53,1.6-2.23,1.62h0c-.28,0-.54-.18-.74-.65-1-2.38.19-6.15,1.28-8.3,1.59-3.14,5.13-4.12,8.4-3.15.25.07.49.16.71.27.27.11.52.24.77.38-.74-1.25-1.32-2.62-1.81-3.79-1.08-2.64-1.06-4.87.24-7.41.64-1.25,1.92-2.67,2.12-4.11.04.07.07.15.11.22,1.51,2.98,3.42,6.09,4.05,9.39.17.91.25,1.84.21,2.78.7-1.22,1.51-2.37,2.49-3.31,2.31-2.21,5.13-2.72,8.23-2.49,1.55.11,4.03.1,5.44.95-.02.08-.06.15-.1.23-.42.78-1.52,1.42-2.09,2.15-1.34,1.71-2.35,3.51-4.15,4.81-.76.56-1.59,1.03-2.45,1.43-.76.34-1.76.48-2.45.9.08.07.19.12.31.17.73.27,1.96.11,2.61.21,1.82.28,3.62.78,4.87,2.22,1.29,1.5,1.43,3.43,2.02,5.23.3.91.84,1.65,1.28,2.48Z"/>
                <path class="cls-22" d="m40.35,184.95c-.14.02-.28.04-.4.05-.1,0-.2.01-.29.01-.01,0-.02,0-.03,0-.06,0-.1,0-.15,0-.3,0-.58-.01-.85-.06-.06-.01-.13-.02-.19-.05-.01,0-.02,0-.02,0h0c-.39-.1-.75-.25-1.11-.45-.49-.27-.96-.64-1.48-1.07-.39-.32-.75-.65-1.08-.99-.39-.4-.73-.82-1.02-1.3.27.11.52.24.77.38-.74-1.25-1.32-2.62-1.81-3.79-1.08-2.64-1.06-4.87.24-7.41.64-1.25,1.92-2.67,2.12-4.11.04.07.07.15.11.22-.12.44-.29.87-.45,1.28-.57,1.43-1.09,2.96-1.38,4.48-.36,1.88,0,3.75.79,5.46.31.68.66,1.36,1,2.02.16.3.3.78.63.9.15-.36.09-.76.1-1.14.02-.62.14-1.26,0-1.88.44.52.77,1.22,1.09,1.82.33.63.54,1.56,1.07,2.02.06-1.98-.3-4.01-.54-5.98.44.24.8.71,1.02,1.18.44.91.83,2,1.14,2.97.12.38.21.78.3,1.19.13.73.23,1.49.31,2.23.03.32.06.63.1.93v.09s0,.32,0,.32v.05s0,.61,0,.61Z"/>
                <path class="cls-22" d="m39.98,185.18c-.03.08-.08.16-.12.24h0s-.02.04-.03.04c-.03.04-.05.09-.09.12-.17.19-.4.36-.66.49-.98.52-2.46.73-3.23.93-.71.18-1.41.31-2.11.46-.33.07-.65.14-.97.22-.38.1-.75.21-1.13.35-.11.03-.22.08-.33.12-1.14.47-2.18,1.11-3.15,1.86-.01,0-.02,0-.04.02-.62.4-1.22.83-1.8,1.27-.66.5-1.53,1.6-2.23,1.62.09-.15.17-.29.25-.42.97-1.64,2.09-3.06,3.59-4.22,1.39-1.07,3.07-1.89,4.68-2.57.43-.18,1.34-.32,1.59-.76-.36-.57-1.62-.45-2.22-.63.4-.2,1.07-.21,1.54-.23.33-.02.94.11,1.23-.11-.35-.48-1.33-.58-1.87-.71-1.04-.25-2.3-.05-3.27-.46.46-.53,1.86-.54,2.52-.6.89-.09,1.76-.01,2.63.18h0c.22.06.44.12.66.18.7.21,2.28.61,2.46,1.53,0,.01.01.01,0,.02l.48.24h.02s.47.25.47.25l.51.25.26.13h.03s.25.14.25.14l.08.04Z"/>
                <path class="cls-22" d="m37.34,187.41c-.72.93-.64,2.56-1.16,3.62-.51-.92-.29-3.1.12-3.96-2.02,2.48-3.23,5.77-2.34,8.97.19.71.5,1.43.86,2.13-.06-.07-.12-.15-.18-.23-1.42-1.91-3.48-3.68-3.12-6.27.23-1.69,1.1-3.02,2.19-4.21-.33.07-.65.14-.97.22.08-.11.17-.2.27-.29.51-.56,1.13-1.03,1.82-1.37l2.46-1.56.56-.36.91-.56.13-.09c.14.19.25.38.35.59h0s0,.01,0,.03c.03.06.06.12.09.19.11.25.2.5.26.76,0,.01,0,.02,0,.02.03.09.04.17.05.26.02.1.04.2.05.3.05.36.06.72.05,1.1-.1,1.94-.99,3.98-1.83,5.51-.25-.5.11-1.53.07-2.12-.05-.83-.36-1.89-.67-2.66Z"/>
                <path class="cls-22" d="m55.19,193.53c-1.07-.07-2.13.05-3.17.07-1.36.03-2.68-.11-3.9-1.07-1.74-1.38-3.02-3.71-5.28-4.35-.21-.06-.35-.07-.45-.04-.84-.44-1.83-.89-2.61-1.46-.26-.18-.5-.39-.71-.6-.25-.28-.45-.58-.57-.93-.01-.03-.03-.07-.03-.1v-.02s-.03-.09-.03-.12h0c-.03-.17-.06-.35-.06-.55,0-.03,0-.07,0-.1-.05,0-.08-.01-.09-.02.03-.02.05-.02.09-.03.11-.01.29-.01.48-.01.02,0,.04,0,.06,0,.08,0,.16,0,.23.02.07,0,.16,0,.23.02.32.03.64.05.95.09,0,0,.03,0,.04,0,.37.04.74.08,1.11.14,1.64.24,3.2.64,4.74,1.27,1.18.48,2.38,1.06,3.48,1.72.26.16.8.41.81.72-1.48-.17-2.98-1.38-4.5-1.17.79.74,2.18.96,3.13,1.47.83.45,1.91,1.04,2.44,1.85-1-.34-1.93-.95-2.92-1.35-.94-.39-2.56-1.32-3.62-1.08.77.82,1.95,1.46,2.85,2.17,1.21.96,2.46,1.77,3.89,2.34,1.05.42,2.25.86,3.43,1.1Z"/>
                <path class="cls-22" d="m39.25,184.03s.03,0,.04,0c-.01,0-.02,0-.02.03-.05.05-.09.11-.13.17-.1.13-.2.26-.29.39-.13.17-.25.36-.36.53-.01,0-.01.01-.02.02l-.02-.12-.08-.68-.02-.11v-.05s0-.07,0-.07c.3-.05.6-.09.9-.11Z"/>
                <path class="cls-22" d="m55.47,173.96c-.42.78-1.52,1.42-2.09,2.15-1.34,1.71-2.35,3.51-4.15,4.81-.76.56-1.59,1.03-2.45,1.43-.76.34-1.76.48-2.45.9.08.07.19.12.31.17-.6.13-1.21.24-1.82.35-1.16.21-2.35.16-3.52.27,1.14-1.46,2.6-2.73,4.36-3.32,1.82-.62,3.8-.68,5.45-1.78,1.58-1.05,2.94-2.47,4.44-3.64.62-.49,1.27-.93,1.94-1.34Z"/>
                <path class="cls-22" d="m38.75,184.09c-.1-1.23.73-2.66,1.36-3.65.87-1.36,2.13-3.12,3.59-3.92-.62,1.24-1.98,2.34-2.24,3.73,1.07-1.04,2.1-1.88,3.48-2.51.74-.34,2.44-1.27,3.31-1.07-1.69.85-3.21,2.37-4.57,3.64-1.13,1.06-2.15,2.18-3,3.47-.31.48-.84,1.11-.83,1.71l-1.1-1.42Z"/>
              </g>
              <path class="cls-31" d="m38.61,183.54c-.15-2.07-.61-4.09-.56-6.17.01-.6.06-1.19.12-1.77.34-.09.54-.46.35-.83-.01-.03-.04-.05-.05-.08.03-.02.07-.05.08-.05.21-.14.25-.49.14-.7.4-.11.59-.55.31-.91-.03-.04-.06-.11-.06-.09-.02-.04-.04-.08-.06-.13-.01-.03-.05-.16,0-.02,0-.02-.01-.04-.02-.06.47.04.78-.66.36-.96.26-.07.41-.3.37-.57-.01-.09-.06-.17-.09-.25.15-.11.19-.39.01-.53-.37-.3-.83-.09-1.09.25-.28.21-.46.54-.48.89,0,.07.01.13.02.19-.16.15-.25.37-.27.59-.02.24.02.5.1.75-.07.06-.13.13-.19.22-.14.22-.16.47-.12.72-.13.18-.23.39-.24.6-.03.37.18.82.55.95.02,0,.05,0,.07.01-.08.55-.15,1.1-.21,1.65-.23,2.13.08,4.3.37,6.41.05.38.6.26.58-.11Z"/>
            </g>
            <g>
              <g>
                <path class="cls-25" d="m52.67,197.99c.07,0,.13.02.2.03,0,0,.02,0,.03,0,1.05.19,2.06.56,3.06.84,1.31.36,2.63.55,4.04-.1,2.02-.92,3.83-2.86,6.18-2.94.22,0,.36.02.44.07.4.21-.32.92-.53,1.37-.45.99-.65,2.1-.6,3.19.05,1.13.42,2.21.84,3.26.43,1.07.74,2.14,1.09,3.26.37,1.16,1.03,2.29,1.19,3.51.94-1.03,1.82-2.07,2.87-2.98.02-.01.03-.03.04-.04.08-.05.15-.12.23-.18,1.84-1.51,4.27-2.72,4.54-5.33.19-1.7-.34-3.2-1.1-4.62-.12-.23-.25-.45-.38-.68.08.05.15.1.23.15.29.2.57.42.85.63.41.31.81.63,1.2.96,1.03.86,1.99,1.78,2.9,2.76,0,0,.02.01.03.03.5.54.98,1.1,1.44,1.67.52.64,1.1,1.93,1.77,2.11h0c.27.07.57-.04.88-.45,1.55-2.06,1.31-6.02.77-8.36-.78-3.43-3.98-5.24-7.38-5.09-.26.01-.52.04-.75.09-.29.04-.56.1-.84.19,1.02-1.03,1.92-2.22,2.67-3.24,1.69-2.3,2.21-4.46,1.56-7.25-.32-1.37-1.21-3.06-1.06-4.5-.05.06-.1.13-.17.19-2.19,2.53-4.79,5.08-6.21,8.13-.39.84-.69,1.72-.87,2.65-.38-1.36-.89-2.67-1.62-3.81-1.7-2.7-4.31-3.88-7.38-4.41-1.53-.27-3.94-.88-5.51-.39,0,.09.02.16.04.25.22.86,1.13,1.75,1.5,2.59.89,1.98,1.43,3.98,2.86,5.68.61.72,1.29,1.39,2.04,1.98.66.52,1.59.89,2.16,1.46-.1.05-.22.07-.34.09-.77.08-1.93-.36-2.59-.43-1.83-.17-3.7-.12-5.26.97-1.62,1.14-2.22,2.98-3.23,4.58-.51.81-1.21,1.4-1.85,2.1Z"/>
                <path class="cls-28" d="m69.38,193.3c.13.05.26.1.38.15.1.03.19.06.28.08,0,0,.02.01.03.01.05.02.1.03.14.03.29.08.57.13.84.14.06,0,.13,0,.19,0,0,0,.02,0,.02,0h0c.4,0,.79-.06,1.19-.17.54-.15,1.09-.39,1.7-.67.46-.21.89-.45,1.29-.7.47-.29.9-.62,1.3-1.01-.29.04-.56.1-.84.19,1.02-1.03,1.92-2.22,2.67-3.24,1.69-2.3,2.21-4.46,1.56-7.25-.32-1.37-1.21-3.06-1.06-4.5-.05.06-.1.13-.17.19.01.46.07.91.13,1.35.21,1.53.34,3.14.26,4.68-.11,1.91-.91,3.64-2.09,5.11-.47.59-.97,1.15-1.46,1.72-.22.26-.48.69-.83.72-.06-.38.1-.76.18-1.13.13-.61.17-1.25.45-1.83-.55.4-1.04,1-1.5,1.5-.47.53-.9,1.38-1.53,1.7.42-1.94,1.26-3.82,1.97-5.67-.49.12-.95.5-1.28.89-.65.78-1.29,1.74-1.83,2.61-.21.34-.4.71-.58,1.08-.31.68-.58,1.39-.84,2.09-.11.3-.21.6-.32.88l-.02.09-.08.31v.05s-.16.6-.16.6Z"/>
                <path class="cls-28" d="m69.68,193.62c.01.09.03.18.06.26h0s.01.04.02.05c.02.05.03.1.06.14.12.23.3.45.53.64.83.75,2.21,1.3,2.91,1.68.64.35,1.29.65,1.94.96.3.15.6.29.89.45.35.19.68.38,1.01.62.09.06.19.13.29.19.99.73,1.84,1.6,2.61,2.57,0,0,.02.01.03.03.5.54.98,1.1,1.44,1.67.52.64,1.1,1.93,1.77,2.11-.05-.17-.1-.33-.14-.47-.54-1.82-1.28-3.48-2.46-4.96-1.09-1.38-2.52-2.58-3.91-3.63-.37-.28-1.22-.64-1.36-1.12.49-.47,1.68-.04,2.31-.07-.34-.29-.99-.46-1.43-.6-.32-.1-.94-.12-1.16-.4.45-.38,1.43-.24,1.99-.24,1.07,0,2.24.51,3.29.35-.31-.63-1.67-.98-2.3-1.19-.84-.3-1.71-.44-2.59-.46h0c-.23,0-.45,0-.68,0-.73.03-2.36.04-2.76.88,0,0-.02.01-.01.02l-.52.12h-.03s-.51.13-.51.13l-.56.12-.29.07h-.03s-.28.07-.28.07l-.08.02Z"/>
                <path class="cls-28" d="m71.7,196.41c.47,1.07,0,2.64.25,3.8.72-.77,1.03-2.94.84-3.87,1.36,2.89,1.73,6.38.09,9.27-.35.64-.83,1.27-1.35,1.86.08-.05.15-.12.23-.18,1.84-1.51,4.27-2.72,4.54-5.33.19-1.7-.34-3.2-1.1-4.62.3.15.6.29.89.45-.05-.12-.11-.24-.19-.35-.36-.66-.85-1.27-1.43-1.77l-2.01-2.11-.46-.48-.74-.77-.1-.12c-.18.15-.34.31-.48.49h0s0,.01-.01.02c-.05.05-.09.1-.13.16-.17.22-.31.44-.44.67,0,0,0,.02,0,.02-.05.09-.08.16-.11.24-.05.09-.09.19-.13.28-.14.33-.23.69-.31,1.05-.38,1.91,0,4.1.44,5.79.37-.43.27-1.51.45-2.07.25-.79.81-1.74,1.3-2.42Z"/>
                <path class="cls-28" d="m52.9,198.03c1.05.19,2.06.56,3.06.84,1.31.36,2.63.55,4.04-.1,2.02-.92,3.83-2.86,6.18-2.94.22,0,.36.02.44.07.93-.23,1.99-.42,2.89-.78.3-.11.58-.26.84-.41.31-.21.58-.46.78-.76.02-.03.04-.06.06-.09v-.02s.06-.08.07-.11h0c.07-.16.15-.33.19-.52,0-.03.02-.06.02-.1.05,0,.08,0,.1,0-.02-.02-.05-.03-.09-.05-.1-.04-.28-.08-.46-.13-.02,0-.04,0-.06,0-.08-.01-.15-.03-.23-.04-.07-.02-.15-.03-.22-.04-.31-.05-.63-.1-.94-.15,0,0-.03,0-.04,0-.36-.05-.74-.1-1.11-.13-1.65-.16-3.26-.15-4.91.09-1.26.18-2.57.45-3.79.83-.29.09-.88.2-.96.5,1.47.19,3.23-.62,4.65-.04-.94.52-2.35.41-3.4.67-.92.23-2.11.55-2.82,1.21,1.05-.09,2.1-.45,3.15-.6,1.01-.15,2.81-.66,3.77-.17-.95.61-2.24.94-3.29,1.41-1.41.63-2.81,1.12-4.34,1.33-1.12.16-2.39.29-3.6.24Z"/>
                <path class="cls-28" d="m70.67,192.67s-.03-.01-.04-.01c0,0,.02.01.01.03.04.06.06.13.09.2.06.15.13.3.18.44.08.2.15.41.22.61,0,0,.01.02.01.02l.05-.11.24-.64.05-.1v-.05s.04-.06.04-.06c-.28-.13-.56-.24-.85-.33Z"/>
                <path class="cls-28" d="m57.37,178.97c.22.86,1.13,1.75,1.5,2.59.89,1.98,1.43,3.98,2.86,5.68.61.72,1.29,1.39,2.04,1.98.66.52,1.59.89,2.16,1.46-.1.05-.22.07-.34.09.55.27,1.12.53,1.69.78,1.08.48,2.24.73,3.35,1.11-.75-1.7-1.86-3.28-3.42-4.28-1.62-1.04-3.52-1.59-4.86-3.04-1.28-1.4-2.26-3.11-3.42-4.6-.48-.62-1.01-1.21-1.55-1.77Z"/>
                <path class="cls-28" d="m71.14,192.85c.4-1.17-.06-2.76-.43-3.87-.51-1.53-1.31-3.55-2.54-4.67.3,1.35,1.35,2.75,1.27,4.16-.78-1.26-1.58-2.34-2.77-3.27-.64-.51-2.06-1.82-2.95-1.84,1.44,1.24,2.54,3.08,3.56,4.64.84,1.3,1.56,2.63,2.07,4.1.19.54.54,1.28.39,1.86l1.41-1.11Z"/>
              </g>
              <path class="cls-31" d="m71.94,192.59c.79-1.98,1.61-4,1.91-6.13.08-.55.14-1.1.2-1.65.02,0,.05,0,.07,0,.39-.04.7-.42.77-.79.04-.22,0-.44-.09-.64.1-.23.14-.48.06-.73-.03-.1-.07-.18-.13-.26.13-.22.23-.46.27-.7.04-.22,0-.45-.12-.64.02-.06.05-.11.07-.18.07-.34-.03-.71-.25-.98-.17-.39-.56-.71-.99-.5-.2.1-.24.38-.12.52-.05.07-.11.14-.15.22-.1.25,0,.51.22.64-.48.18-.34.94.12,1.02-.01.02-.02.04-.03.06.07-.13,0,0-.01.02-.03.04-.06.07-.09.11.01-.01-.04.04-.08.07-.36.28-.28.76.08.96-.15.18-.2.53-.03.71,0,0,.04.04.07.07-.02.02-.05.04-.07.06-.28.31-.17.72.13.89-.08.58-.18,1.16-.31,1.75-.45,2.03-1.39,3.89-2.04,5.86-.11.35.39.6.53.24Z"/>
            </g>
          </g>
        </g>
      </g>
    </g>
  </g>
</svg>