<?xml version="1.0" encoding="UTF-8"?>
<svg xmlns="http://www.w3.org/2000/svg" viewBox="0 0 220 220">
  <defs>
    <style>
      .cls-1, .cls-2, .cls-3 {
        opacity: .6;
      }

      .cls-1, .cls-4, .cls-3, .cls-5, .cls-6 {
        mix-blend-mode: screen;
      }

      .cls-1, .cls-7, .cls-5 {
        fill: #332722;
      }

      .cls-8 {
        fill: #a8846f;
      }

      .cls-2, .cls-9 {
        fill: #231a17;
      }

      .cls-10, .cls-11 {
        fill: #fff2de;
      }

      .cls-4, .cls-12 {
        fill: #845b41;
      }

      .cls-4, .cls-13, .cls-11 {
        opacity: .3;
      }

      .cls-14 {
        opacity: .5;
      }

      .cls-15 {
        fill: #e9dac8;
      }

      .cls-16 {
        fill: #ddcdba;
      }

      .cls-17 {
        isolation: isolate;
      }

      .cls-18 {
        fill: #c0ded8;
      }

      .cls-19 {
        fill: #8cad66;
      }

      .cls-20 {
        fill: #35241f;
      }

      .cls-21 {
        fill: #f4e5d7;
      }

      .cls-22, .cls-5, .cls-6 {
        opacity: .4;
      }

      .cls-23 {
        fill: #a4c9bf;
      }

      .cls-24 {
        fill: #7e8252;
      }

      .cls-25 {
        fill: #cbdffd;
      }

      .cls-3, .cls-6, .cls-26 {
        fill: #45312a;
      }

      .cls-27 {
        fill: #efe1ce;
      }

      .cls-28 {
        fill: #718c4b;
      }

      .cls-29 {
        fill: #d1c1b0;
      }

      .cls-30 {
        fill: #a7c3e5;
      }

      .cls-31 {
        fill: #d9e5d1;
      }

      .cls-32 {
        fill: #b29c8a;
      }

      .cls-33 {
        fill: #377f65;
      }
    </style>
  </defs>
  <g class="cls-17">
    <g id="Layer_2" data-name="Layer 2">
      <g id="_2" data-name="2">
        <g>
          <circle class="cls-31" cx="110" cy="110" r="110"/>
          <g>
            <g>
              <path class="cls-29" d="m192.71,79.16h-42.15s2.1,65.17,2.1,65.18c0,.62,7.84,2.75,18.94,2.75s18.71-2.08,18.92-2.73l2.19-65.2Z"/>
              <path class="cls-11" d="m151.88,79.78l2.87,64.31s10,2.88,24.66,1.51l2.32-64.54s-16.8,1.41-29.85-1.27Z"/>
              <path class="cls-27" d="m192.71,79.16c0,1.05-9.44,4.08-21.08,4.08s-21.08-3.03-21.08-4.08,9.44-3.53,21.08-3.53,21.08,2.48,21.08,3.53Z"/>
              <path class="cls-10" d="m171.63,75.63c-11.64,0-21.08,2.48-21.08,3.53s9.44,4.08,21.08,4.08,21.08-3.03,21.08-4.08-9.44-3.53-21.08-3.53Zm0,6.28c-10.08,0-18.24-1.8-18.24-2.71s8.17-3.06,18.24-3.06,18.24,2.15,18.24,3.06-8.17,2.71-18.24,2.71Z"/>
              <path class="cls-27" d="m153.39,79.2s8.13-5.36,18.58-5.36,17.9,5.36,17.9,5.36h-36.49Z"/>
              <g class="cls-22">
                <path class="cls-29" d="m189.88,79.2s.05-.26-.73-.57c-1.61-.74-7.93-4.79-17.17-4.79-.1,0-.19,0-.29,0l-.05,2.02s15.3,3.84-7.72,5.68c3.58.33,10.34.5,15.98-.07,3.65-.37,10.01-1.51,9.99-2.29Z"/>
              </g>
              <path class="cls-29" d="m177.52,74.86c0,.26-2.63,1.02-5.88,1.02s-5.88-.75-5.88-1.02,2.63-.88,5.88-.88,5.88.62,5.88.88Z"/>
              <g>
                <path class="cls-7" d="m174.07,67.18c-1.59,2.84-1.95,7.98-2.14,7.98s-.61-4.95.41-8.48l1.73.49Z"/>
                <path class="cls-7" d="m174.12,67.15c-.1.31-.59.47-1.1.35s-.84-.47-.74-.79.59-.47,1.1-.35c.51.12.84.47.74.79Z"/>
              </g>
              <path class="cls-11" d="m171.63,83.24c-7.39,0-13.89-1.22-17.65-2.38h0l2.87,60.02s9.96,3.82,20.04,1.39l1.31-59.35h0c-2.07.2-4.28.32-6.57.32Z"/>
              <path class="cls-32" d="m152.66,144.34s18.89,5.27,37.87,0c0,0-3.87,2.97-18.1,2.92-17.89-.3-19.77-2.92-19.77-2.92Z"/>
            </g>
            <g>
              <path class="cls-28" d="m210,118.95h-34.11s1.26,32.07,1.27,32.09c.28.26,6.77,4.07,15.76,4.07,12.6-.85,15.78-4.18,15.78-4.18l1.3-31.97Z"/>
              <path class="cls-28" d="m176.96,119.89l1.9,30.6s8.52,4.41,20.38,2.31l1.88-30.96s-13.6,2.17-24.16-1.95Z"/>
              <path class="cls-24" d="m210,118.95c0,1-7.64,3.89-17.06,3.89s-17.06-2.89-17.06-3.89,7.64-3.37,17.06-3.37,17.06,2.37,17.06,3.37Z"/>
              <path class="cls-28" d="m192.94,122.84c5.59,0,10.52-1.13,13.44-2.22-1.51-.96-6.94-2.42-13.44-2.42s-11.94,1.46-13.44,2.42c2.92,1.09,7.85,2.22,13.44,2.22Z"/>
              <path class="cls-19" d="m192.94,115.58c-9.42,0-17.06,2.37-17.06,3.37s7.64,3.89,17.06,3.89,17.06-2.89,17.06-3.89-7.64-3.37-17.06-3.37Zm0,5.99c-8.15,0-14.76-1.72-14.76-2.59s6.61-2.92,14.76-2.92,14.76,2.05,14.76,2.92-6.61,2.59-14.76,2.59Z"/>
              <path class="cls-28" d="m197.7,119.82c0,.25-2.13.97-4.76.97s-4.76-.72-4.76-.97,2.13-.84,4.76-.84,4.76.59,4.76.84Z"/>
              <path class="cls-7" d="m195.32,111.14c-1.52,3.11-1.86,8.75-2.04,8.75s-.58-5.42.39-9.29l1.65.54Z"/>
              <path class="cls-7" d="m195.38,111.11c-.09.34-.56.51-1.05.38-.48-.13-.8-.52-.71-.86.09-.34.56-.51,1.05-.38.48.13.8.52.71.86Z"/>
              <path class="cls-19" d="m179.52,120.86l1.82,27.68s5.41,2.7,11.75,1.98l2.31-27.75-15.88-1.91Z"/>
              <path class="cls-24" d="m177.16,151.03s14.68,8.02,31.54-.11c0,0-3.62,4.18-15.78,4.18s-15.76-4.07-15.76-4.07Z"/>
            </g>
            <g>
              <path class="cls-16" d="m110.44,115.36c-5.34-9.32-15.83-11.96-24.2-7.99-.64.25-40.76,16.51-42.04,17.29-8.71,5.36-10.82,17.73-4.73,27.63,5.79,9.41,16.9,13.2,25.46,8.97.64-.27,39.61-19.53,40.63-20.15,8.55-5.26,10.04-16.73,4.88-25.74Z"/>
              <path class="cls-15" d="m88.7,106.41c-.83.26-1.66.58-2.46.96-.41.16-22.62,9.2-34.8,14.2,4.85-1.43,16.52-.16,22.89,13.18l36.93-15.93s-4.75-15.54-22.57-12.41Z"/>
              <path class="cls-21" d="m88.7,106.41c-.83.26-1.66.58-2.46.96-.41.16-22.62,9.2-34.8,14.2,3.44-1.01,10.33-.66,16.31,4.4,11.07-4.7,25.76-10.94,37.43-15.89-3.49-2.88-8.76-5.03-16.48-3.67Z"/>
              <g class="cls-13">
                <path class="cls-8" d="m75.77,153.4c.13-1.6,1.71-2.35,3.14-2.58.42-.07.82-.09.91.48.1.62-1.12,2.14-3.03,2.46-.23.04-.57.1-.78.04-.1-.07-.21-.22-.24-.39Z"/>
                <path class="cls-8" d="m80.8,149.14c-.09-.03-.12-.11-.14-.19-.07-.4.66-1.16,1.19-1.24.56-.09.69.19.73.45.09.56-.47.87-1.02.96-.25.04-.51.04-.76.02Z"/>
                <path class="cls-8" d="m85.78,149.26c-.08-.06-.12-.14-.14-.23-.1-.62,1.04-2.17,2.17-2.36.65-.11,1.14.29,1.21.7.15.88-1.63,1.88-2.72,2.06-.05,0-.1.02-.15.02-.08.01-.26-.04-.37-.19Z"/>
                <path class="cls-8" d="m83.94,145.14c-.1-.59-.03-1.14.82-1.28.3-.05.63-.03.68.27.08.47-.64,1.07-.99,1.13-.18.03-.36-.02-.5-.12Z"/>
                <path class="cls-8" d="m77.59,145.82c-.13-.77.73-1.51,1.46-1.63.49-.08,1.1.1,1.18.59.12.7-.65,1.19-1.33,1.3-.46.08-.94,0-1.31-.26Z"/>
                <path class="cls-8" d="m86.28,141.28c-.22-.37,1.25-1.23,2-1.36,1.89-.31-1.38,2.41-2,1.36Z"/>
                <path class="cls-8" d="m90.44,144.37c-.16-.95.72-1.58,1.58-1.73.64-.11,1.24-.08,1.34.56.07.41-.82,1.51-1.94,1.7-.07.01-.13.02-.2.02-.35-.03-.64-.24-.78-.56Z"/>
                <path class="cls-8" d="m96.2,143.5c-.24-.69,1.14-1.67,2.09-1.83.47-.08.51-.04.73.25.02.03.03.06.04.09.21,1.25-2.58,2.28-2.86,1.49Z"/>
                <path class="cls-8" d="m95.33,137.04c-.02-.11-.07-.22-.09-.33-.07-.43.44-1.15,1.64-1.35.7-.12,1.08-.21,1.19.45.05.3-.6,1.09-1.67,1.27-.36.06-.73.05-1.08-.05Z"/>
                <path class="cls-8" d="m101.57,139.27c.35-.64,1.02-1.14,1.75-1.27.9-.15,1.08.18,1.14.56.2,1.21-1.17,2.14-2.2,2.31-.58.1-1.31-.47-1.37-.79-.06-.35.29-.76.54-.8.04,0,.08,0,.13,0Z"/>
                <path class="cls-8" d="m97.69,139.02c.22-.5.67-.89,1.19-.98.19-.03.39-.01.45.37.05.32-.34.95-.92,1.05-.1.02-.2.02-.31,0-.18-.06-.37-.19-.42-.44Z"/>
                <path class="cls-8" d="m104.65,134.14c.29-.47.79-.81,1.33-.9.54-.09,1.24.07,1.33.63.11.65-.54,1.19-1.21,1.3-.81.14-1.45-.36-1.53-.85-.01-.06,0-.13.08-.18Z"/>
                <path class="cls-8" d="m106.57,136.9c.85-1.19,1.99-1.01,2.13-.18.09.53-.66,1.06-1.13,1.14-.43.07-.98-.18-1.05-.6-.02-.11,0-.23.05-.36Z"/>
                <path class="cls-8" d="m109.21,132.19c.37-.83,1.37-1,2.12-1.12.31-.05.38.16.43.42.15.93-.52,1.76-1.36,1.9-.8.13-1.03-.19-1.13-.81-.02-.13-.04-.26-.06-.38Z"/>
                <path class="cls-8" d="m91.33,137.62c-.06,0-.23-.07-.26-.2-.04-.26.27-.72.76-.8.14-.02.28-.03.4-.05.61-.1.92.75-.91,1.05Z"/>
                <path class="cls-8" d="m107.42,130.17c.12-.02.34.18.39.46.03.2.02.45-.66.56-.67.11-1.11-.79.27-1.02Z"/>
                <path class="cls-8" d="m99.51,132.52c.09-.84,1.04-1.3,1.78-1.42.67-.11,1.02.17,1.11.7.12.71-1.11,1.27-1.82,1.38-.53.09-.97.1-1.06-.42-.01-.08-.02-.16,0-.24Z"/>
                <path class="cls-8" d="m77.67,137.03c-.43.07-.81.5-.77.7.07.39.88.31,1.28.24.96-.16,1.4-.81,1.34-1.15-.05-.28-.6-.3-.88-.25-.34.06-.68.21-.96.45Z"/>
                <path class="cls-8" d="m86.96,133.74c-.42.07-.7.61-.65.91.08.46.6.43,1.07.35.95-.16,1.49-.86,1.44-1.12-.06-.38-.62-.39-1-.33-.28.05-.57.14-.86.19Z"/>
                <path class="cls-8" d="m95.35,128.47c1.48-.25,1.62,2.08-1.49,2.6-2.95.49-.79-2.22,1.49-2.6Z"/>
                <path class="cls-8" d="m104.77,125.73c.9-.15.47.82-.28.95-1.41.23-.42-.83.28-.95Z"/>
                <path class="cls-8" d="m112.22,122.74c.14.83-.69,1.38-1.51,1.52-.26.04-.52.05-.76.02-2.29-.71,2.03-3.04,2.28-1.54Z"/>
                <path class="cls-8" d="m105.54,121.29c-.18-.42.94-1.17,1.41-1.25.33-.05.56.18.62.51.11.65-1.69,1.51-2.02.75Z"/>
                <path class="cls-8" d="m97.42,123.02c-.31.26-1.04.66-.97,1.07.06.35.63.27.99.21.39-.06,1.51-.52,1.45-.86-.05-.29-.07-.61-.99-.46-.36.06-.72.19-1.01.47l.53-.43Z"/>
                <path class="cls-8" d="m87.52,127.32c-.33.28-.87.6-.78,1.12.07.45.62.43,1.06.35,1.93-.32,3.6-2.42.99-1.99-.45.07-.88.28-1.27.51Z"/>
                <path class="cls-8" d="m81.34,134.09c.28-.05,1.5-.58,1.46-.85-.24-1.46-3.85,1.25-1.46.85Z"/>
                <path class="cls-8" d="m74.76,130.81c-.43.15-1.54.65-1.47,1.09,0,.03.02.06.04.09.22.41,1.1.41,1.56.34.8-.13,2.33-.99,2.24-1.53-.07-.39-.93-.37-1.32-.3-.36.06-.71.18-1.05.31Z"/>
                <path class="cls-8" d="m79.14,126.32c-.54-.42,1.39-2.18,2.67-2.39.72-.12,1.22-.18,1.36.67.17,1.04-3.32,2.27-4.03,1.72Z"/>
                <path class="cls-8" d="m88.04,123.25c-.25-.47,1.13-1.21,1.79-1.32.57-.09.67.11.7.3.18,1.06-2.25,1.49-2.49,1.03Z"/>
                <path class="cls-8" d="m97.6,118.46c-.45-.96,1.53-1.8,2.62-1.98.57-.09,1.67-.06,1.76.51.12.74-.68,1.89-2.36,2.17-.75.13-1.51-.03-2.02-.7Z"/>
                <path class="cls-8" d="m104.43,112.42c.52-.09,1.26,0,1.35.51.07.45-.91.97-1.43,1.05-1.64.27-1.9-1.23.08-1.56Z"/>
                <path class="cls-8" d="m93.96,115.59c1.84-.31,1.02,1.75-.72,2.04-2.88.48-.61-1.82.72-2.04Z"/>
                <path class="cls-8" d="m97.6,111.79c-.08-.49,1.3-1.01,1.79-1.09.55-.09,1.03.02,1.12.53,0,.02,0,.05,0,.07.02.59-.92,1.21-1.78,1.36-.58.1-1.02-.06-1.13-.72,0-.05,0-.1,0-.15Z"/>
                <path class="cls-8" d="m99.06,107.69c-1.35.22-1.84,1.23-1.07,1.1.32-.05.65-.08.96-.13.59-.1,1.37-.35,1.27-.95-.04-.22-.5-.19-.72-.15-.15.03-.3.07-.44.13Z"/>
                <path class="cls-8" d="m84.08,119.51c-.08-.11-.16-.22-.18-.33-.05-.31.86-1.37,2.42-1.63.45-.08,1.05-.18,1.13.28.09.56-.74,1.71-1.97,1.91-.47.08-.96.02-1.4-.23Z"/>
                <path class="cls-8" d="m76.35,123.96c-.48.29-1.42.49-1.32,1.11.06.35.45.27.8.21.91-.15,1.33-.75,1.29-1-.05-.29-.45-.4-.64-.37-.04,0-.09.02-.13.05Z"/>
                <path class="cls-8" d="m72.05,121.76c-2.07.34-2.94,1.47-2.87,1.9.08.48.68.48,1.16.4.88-.15,3.29-1.66,3.2-2.2-.05-.32-.74-.33-1.06-.28-.16.03-.31.08-.44.17Z"/>
                <path class="cls-8" d="m80.36,117.05c.06.37-.39,1.03-1.5,1.22-.15.03-.31.04-.45.05-1.86-.29,1.79-2.24,1.95-1.27Z"/>
                <path class="cls-8" d="m89.94,112.4c2.12-.35.81,1.61-.64,1.85-.28.05-.58.05-.87,0-1.76-.28.5-1.68,1.51-1.85Z"/>
                <path class="cls-8" d="m92.67,108.4c-.89.15-2.87,2.14-.06,1.67,1.37-.23,2.63-2.1.06-1.67Z"/>
                <path class="cls-8" d="m81.73,112.54c.62-.87,1.65-1.39,2.65-1.55.36-.06.78-.1.89.56.07.4-.61,1.31-2.02,1.55-.79.13-1.41.22-1.51-.37,0-.06-.01-.12,0-.18Z"/>
                <path class="cls-8" d="m86.72,109.39c.35.3,1.92-.77,2.24-1.21.01-.02.02-.04.01-.05-.04-.23-.75-.23-.99-.19-.51.08-1.63,1.15-1.27,1.46Z"/>
                <path class="cls-8" d="m110.09,115.87c-.52-.04-.89.53-.79,1.09.04.23.32.28.56.24.62-.1.85-.45.82-.66,0,0-.06-.63-.58-.67Z"/>
                <path class="cls-8" d="m68.86,119.04c-.67.11-.29-1.26,1.41-1.54.44-.07,1.05,0,1.12.44.11.65-1.17.98-1.82,1.09-.23.04-.46.05-.71,0Z"/>
                <path class="cls-8" d="m77.52,113.71c.31-.05,1.29-.08,1.34.23.08.46-.71,1.46-1.87,1.65-.24.04-.49.04-.74,0-1.6-.25-.13-1.65,1.27-1.88Z"/>
                <path class="cls-8" d="m63.65,119.57c-.13-.03-.27-.02-.41,0-.59.1-1.22.57-1.15,1,.05.29.27.32.56.27.64-.11,1.92-.5,1.81-1.13-.03-.15-.18-.28-.41-.25-.14.02-.27.09-.4.11Z"/>
                <path class="cls-8" d="m73.58,113.47c-3.24.73-5.32,2.79-3.01,2.41,2.47-.41,3.33-1.66,3.24-2.21-.02-.1-.08-.18-.24-.2Z"/>
                <path class="cls-8" d="m80.8,111.37c.38-.06.74-.22.69-.54-.17-1.01-3.35.98-.69.54Z"/>
                <path class="cls-8" d="m59.76,119.36c-.4-.01-.79,0-1.17.05-.37.06-1.51.53-1.46.81,0,.03.02.05.05.08.37.17.74.19,1.09.13.89-.15,3.02-1.33,1.49-1.07Z"/>
                <path class="cls-8" d="m111.86,127.04c-.94.16-1.35.71-1.32.91.04.25.48.28.74.24.69-.12,1.02-.6.97-.95-.03-.16-.28-.24-.34-.23-.02,0-.03.01-.05.03Z"/>
                <path class="cls-8" d="m83.51,138.08c-.84.14-1.24.63-1.19.96.05.3.68.29.98.24.58-.1,1.3-.44,1.2-1.02-.04-.27-.22-.35-.48-.31-.17.03-.35.1-.51.13Z"/>
                <path class="cls-8" d="m100.31,126.56c-.46.34-1.31.56-1.22,1.14.09.53.38.59.89.5.98-.16,1.59-.93,1.55-1.23-.02-.12-.1-.23-.18-.33-.29-.21-.71-.14-1.04-.08Z"/>
                <path class="cls-8" d="m105.77,117.99c.5-.08,1.34-.65,1.24-1.27,0-.06-.03-.11-.06-.16-1.1-.78-2.96,1.72-1.18,1.43Z"/>
                <path class="cls-8" d="m74.62,140.73c.11-.09.22-.13.34-.15.59-.1,1.05,0,1.15.62.09.55-.45,1.09-.89,1.43-.02.01-.04.02-.07.03-.37.06-.57-.4-.63-.76-.06-.37,0-.79.1-1.17Z"/>
                <path class="cls-8" d="m71.37,155.19c.12-.07.25-.12.38-.14.34-.06.73.05.79.41.2,1.22-1.83,1.27-1.83,1.27,0-.03-.02-.06-.02-.09-.09-.52.25-1.1.68-1.44Z"/>
                <path class="cls-8" d="m68.42,128.89c.11-.41.45-.63.81-.69.42-.07.66.12.71.47.05.32-.37.49-.66.54-.34.06-.63-.15-.86-.32Z"/>
                <path class="cls-8" d="m63.95,123.11c.37-.27.69-.58,1.13-.65.3-.05.58.07.64.4.07.43-.77.94-1.21,1.01-.25.04-.71.04-.75-.21-.02-.11,0-.24,0-.35.04-.12.15-.14.19-.2Z"/>
              </g>
              <g>
                <path class="cls-12" d="m25.92,167.76c-.84.14-1.76.07-2.79-.25l.61-1.93c3.71,1.16,5.45-2.5,8.19-9.08,1.5-3.59,3.2-7.66,5.71-10.97l1.61,1.22c-2.35,3.1-4,7.05-5.45,10.52-2.11,5.05-4.12,9.87-7.87,10.49Z"/>
                <ellipse class="cls-15" cx="55.24" cy="142.59" rx="18.51" ry="21.06" transform="translate(-66.54 50.1) rotate(-31.61)"/>
                <path class="cls-8" d="m51.21,137.52c-1.95-.42-3.38-3.41-3.34-5.18.07-3.24,6.08-5.41,8.89-5,4.94.72,7.83,6.02,7.8,7.78-.04,1.92-2.93,3.5-4.65,3.24-2.73-.42-.66-4.1-3.52-4.78-3.32-.79-1.73,4.68-5.17,3.94Z"/>
                <path class="cls-8" d="m61.36,141.34c1.06-1.6,4.02-.7,5.42.45,2.58,2.1,1.82,8.26.28,10.55-2.71,4.02-8.32,3.94-9.72,2.8-1.53-1.24-1.78-4.72-.8-6.09,1.76-2.43,3.78,1.83,5.57-.33,2.07-2.51-2.81-4.26-.75-7.37Z"/>
                <path class="cls-8" d="m52.57,148.87c.94,1.92.25,3.93-1.22,4.6-2.71,1.24-7.27-2.09-8.62-4.84-2.38-4.84-.85-10.23.63-10.9,1.6-.73,4.65-.27,5.48,1.42,1.7,3.47-2.75,3.05-1.59,5.97,1.35,3.38,3.27-.43,5.33,3.75Z"/>
                <path class="cls-15" d="m54.33,132.75s.11,1.55-.42,2.54l4.27.8s-.35-1.66-.13-2.78l-.93.32-.16-1.18-.81.94-.49-1.22-.54,1.17s-.22-.36-.8-.59Z"/>
                <path class="cls-15" d="m61.79,145.39s1.06,1.41,2.03,1.66c0,0-.44.45-.95.4l.42.37-.47.29.33.54-.83.18.56.91-1.17-.43s.05.56-.03,1.16c0,0-1.26-1.24-1.93-1.52l2.04-3.57Z"/>
                <g class="cls-14">
                  <path class="cls-8" d="m40.15,131.58c-.1-.96.32-1.81.99-2.22.55-.34,1.09-.25,1.48.38.19.31-.12,1.55-.9,2.03-.82.5-1.52.17-1.57-.19Z"/>
                  <path class="cls-8" d="m44.04,129.78c-.05-.39.11-.68.38-.85.32-.2.52-.16.81.04.02.02.04.04.05.06.17.28-.26.67-.51.83-.48.29-.7.16-.73-.08Z"/>
                  <path class="cls-8" d="m45.25,125.94c.1-.48.43-.89.85-1.14,1-.62,3.2-.18,1.17,1.07-.63.39-1.91.85-2.02.08Z"/>
                  <path class="cls-8" d="m51.21,126.25c-.07-.02-.12-.07-.15-.12-.12-.2.06-.51.19-.59.03-.02.05-.03.09-.03.23-.04.43-.16.63.16,0,.01,0,.02,0,.04.04.25-.09.42-.3.55-.09.06-.19.08-.31.04l-.14-.05Z"/>
                  <path class="cls-8" d="m54.08,122.91c.72-.44,2.29-.39,2.76.38.21.33,0,.62-.3.8-1.57.97-3.39-.61-2.46-1.18Z"/>
                  <path class="cls-8" d="m58.61,126.56c-.09-.15-.04-.33.09-.41.29-.18.95.09,1.16.44.11.18.09.35-.1.47-.25.15-1.04-.33-1.15-.49Z"/>
                  <path class="cls-8" d="m63.67,127.52c-.58.36-2.5-.55-2.47-1.06.03-.51,3.29-.06,2.47,1.06Z"/>
                  <path class="cls-8" d="m64.72,131.75s0,0,0,0c-.11-.08-.22-.17-.29-.29-.11-.17-.15-.45,0-.54.24-.15.71.31.86.56.45.74-.34.67-.57.29Z"/>
                  <path class="cls-8" d="m65.94,129.2c-.71-1.15.99-1.16,2,.47.87,1.42-.45,2.03-2-.47Z"/>
                  <path class="cls-8" d="m68.31,133.15c.59-.02,1.7,1.37,1.01,1.8-.8.49-2.05-1.5-1.01-1.8Z"/>
                  <path class="cls-8" d="m65.85,136.93c-.33-.53-.2-1.06-.03-1.16.02-.01.04-.02.06-.02.96.09,1.64,1.45.93,1.88-.39.24-.66-.21-.96-.7Z"/>
                  <path class="cls-8" d="m70.94,136.69s.03-.02.04-.02c.36-.18.76.17,1.05.64.64,1.05.51,1.98.03,2.28-.06.04-.13.07-.21.08-.76.03-1.7-2.5-.92-2.98Z"/>
                  <path class="cls-8" d="m72.2,143.38c-.34-.55-.36-1.41.14-1.73.3-.18.62.07.81.39.24.38.2,1.29-.24,1.56-.07.05-.16.08-.26.09-.17.03-.32-.1-.45-.31Z"/>
                  <path class="cls-8" d="m68.61,142.26c-.65-1.06-.44-1.9-.05-2.14.6-.37,1.39.31,1.81.99.53.87.21,2.25-.21,2.51-.51.31-.92-.33-1.55-1.35Z"/>
                  <path class="cls-8" d="m71.68,147.01c.67,1.09-.21,1.98-.58,1.38-.37-.6.05-2.24.58-1.38Z"/>
                  <path class="cls-8" d="m71.97,151.25c.53.86-.25,2.15-.92,2.56-2.3,1.41-.24-4.45.92-2.56Z"/>
                  <path class="cls-8" d="m65.79,155.91c-.15-.25.16-1.31.92-1.78.35-.21.75-.27,1.17-.06.76.23-1.44,2.89-2.09,1.84Z"/>
                  <path class="cls-8" d="m63,159.71c-.38-.62.78-1.47,1.33-1.8,1.06-.65,2.23-.42,2.4-.15.06.1.06.27.04.41-.62,1.61-3.25,2.38-3.76,1.55Z"/>
                  <path class="cls-8" d="m61.71,158.17c-.42-.2-.61.25-.93-.28-.21-.34.08-.71.39-.9.97-.59,1.68.59.9,1.07-.11.07-.23.1-.36.11Z"/>
                  <path class="cls-8" d="m59.52,161.36c-.26.16-.72.01-.84-.18-.21-.34-.06-.74.25-.93.36-.22.87-.21,1.27.02.03.02.05.05.06.08.07.12.04.24,0,.33-.18.33-.47.51-.75.68Z"/>
                  <path class="cls-8" d="m57.74,158.25s-.06.05-.09.07c-.26.16-.97-.11-1.1-.32-.02-.04-.03-.08-.02-.12.06-.27.23-.47.45-.6.34-.21.82-.27,1.25-.22.02.01.04.03.05.06.16.26-.23.95-.46,1.09-.03.02-.06.03-.09.05Z"/>
                  <path class="cls-8" d="m55.7,161.28s-.08.05-.12.08c-1.29.79-3.28.23-3.64-.36-.06-.1-.12-.21-.18-.32-.13-.21.15-.56.32-.67.94-.58,3.59.04,3.97.67.01.02.02.05.03.07-.03.2-.12.39-.28.49-.03.02-.07.04-.11.05Z"/>
                  <path class="cls-8" d="m53.1,157.8c-.07-.12-.13-.19.19-.39.54-.33,1.24-.1,1.43.22.4.65-1.13.96-1.62.17Z"/>
                  <path class="cls-8" d="m48.05,156.92c-.21-.35-.28-.6.05-.81.03-.02.07-.04.11-.05,1.1-.21,2.45.47,2.75.97.91,1.49-2.01,1.36-2.92-.12Z"/>
                  <path class="cls-8" d="m47.25,159.03c-2.72.2-1.51-3.37.14-.69.27.44.35.56-.14.69Z"/>
                  <path class="cls-8" d="m42.9,152.58c.36-.22,1.88.27,2.45,1.21.28.45.27.66.1.96-.78.48-3.27-1.73-2.56-2.17Z"/>
                  <path class="cls-8" d="m40.29,152.78c-.18-.29-.42-.77-.17-.93.22-.14.96.15,1.4.85,1.08,1.75-.54,1.19-1.23.07Z"/>
                  <path class="cls-8" d="m41.46,150.78c-.35-.43-.87-1.05-1.24-1.66-.44-.71-.67-1.4-.18-1.7.54-.33,1.12.29,1.5.9.8,1.31.56,2.07.02,2.4-.03.02-.07.04-.11.06Z"/>
                  <path class="cls-8" d="m38.48,147c-.32-.15-.58-.41-.76-.7-.29-.47-.46-1.26-.05-1.51.37-.23,1.04.01,1.4.59.33.54.31,1.24-.15,1.52-.12.08-.27.11-.45.1Z"/>
                  <path class="cls-8" d="m40.62,141.57c.12.19.16.91,0,1.31-1.13,2.07-1.58-3.88,0-1.31Z"/>
                  <path class="cls-8" d="m37.51,140.88c-.07-.09-.14-.18-.2-.27-.63-1.02-.35-2.74-.01-2.94.03-.02.06-.03.09-.03.49-.03.94.29,1.21.73.54.87.15,2.16-.37,2.48-.19.12-.43.15-.72.04Z"/>
                  <path class="cls-8" d="m40.19,137.54c-.05-.47.04-1.02.4-1.24.33-.2.79-.12,1.05.29.29.47.2,1.23-.35,1.56-.22.14-.59.26-.83.04-.13-.21-.26-.43-.27-.65Z"/>
                  <path class="cls-8" d="m38.21,135.06c-.21-.53-.24-1.36.21-1.64.33-.2.63-.09.84.25.33.54.05,1.1-.37,1.36-.12.08-.26.13-.4.15-.05.03-.16-.05-.27-.13Z"/>
                  <path class="cls-8" d="m42.63,135.08c-.2-.62.17-1.09.63-1.38.58-.36.79-.3,1.12,0,.03.02.06.06.08.09.46.75-.24,2.31-1.67,1.55-.03-.05-.1-.16-.16-.27Z"/>
                  <path class="cls-8" d="m46.47,133.82c-.24.07-.6-.21-.75-.45-.8-1.29,1.6-.81,1.05.19-.09.06-.2.2-.3.26Z"/>
                  <path class="cls-8" d="m48.3,137.12c-.29.18-.67.11-.92-.3-.12-.2-.21-.43-.04-.54.68-.42,1.51.73.96.84Z"/>
                  <path class="cls-8" d="m53.86,139.83s-.06-.07-.08-.11c-.26-.42.53-3.18,1.64-3.86.48-.29.52-.22.66.02.49.79.11,3.04-1.16,3.83-.16.1-.34.18-.53.24-.14.09-.37-.07-.53-.12Z"/>
                  <path class="cls-8" d="m57.08,138.2c.18-.11.48.23.61.43.26.42.21,1.02-.38,1.38-.76.47-.61-1.58-.22-1.81Z"/>
                  <path class="cls-8" d="m60.49,145.02c-.53-.86-2.05-2.24-2.74-1.61-.22.28-.2.65.04,1.04,1.23,2,3.94,2.59,2.7.57Z"/>
                  <path class="cls-8" d="m58.26,146.32c-.53-.86-3.13-1.55-2.15.04.54.88,3.01,1.35,2.15-.04Z"/>
                  <path class="cls-8" d="m52.14,145.46s-.05-.05-.07-.08c-.28-.45.46-1.27.87-1.52,2.01-1.24.68,2.71-.81,1.6Z"/>
                  <path class="cls-8" d="m52.69,143.2c-.2.17-.42.33-.65.47-.57.35-2.79,1.19-3.18.55-.25-.4.57-1.27.95-1.5.8-.49,1.89-.52,2.85-.09.03.02.06.06.08.09.05.09.08.2.07.26-.01.08-.11.14-.12.22Z"/>
                  <path class="cls-8" d="m50.78,140.61c-.12-.19,0-.47.15-.56.36-.22,1.19-.14,1.56.47.03.05.06.11.08.17.1.71-1.41.54-1.79-.08Z"/>
                  <path class="cls-8" d="m55.26,141.66c-.19.12-.26.5-.04.85.38.62,1.14.97,1.76.59.46-.28.53-.76.27-1.17-.22-.35-.64-.48-.73-.42-.9.55-.5-.31-1.25.15Z"/>
                  <path class="cls-8" d="m60,139.37c.39-.24,1.18-.27,1.43.14.17.27.08.84-.49,1.19-1.77,1.09-1.78-.8-.93-1.32Z"/>
                  <path class="cls-8" d="m63.69,138.1c.65-.4,1.17-.19,1.36.12.18.29-.04.61-.29.76-.68.42-2.15-.21-1.07-.87Z"/>
                  <path class="cls-8" d="m55.04,149.87c.97.3,1.11-.95.72-1.57-.02-.03-.04-.06-.06-.09-.37-.6-1.34.75-.66,1.66Z"/>
                  <path class="cls-8" d="m54.08,151.79c-.32.49-.59,1.18-.29,1.68.15.24.52.53.77.37.38-.23.61-1.19.18-1.88-.16-.26-.33-.41-.6-.24-.03.02-.05.04-.07.06Z"/>
                  <path class="cls-8" d="m52.53,154c-.06.04-.16.07-.24.11-.23.14-.74,1.03-.52,1.4.15.24.49.39.8.19.38-.23.92-1.08.59-1.62-.15-.24-.31-.31-.53-.18-.04.03-.08.06-.11.09Z"/>
                  <path class="cls-8" d="m56.2,155.97c.16-.1.22-.91.02-1.25-.89-1.45-1.19,1.96-.02,1.25Z"/>
                </g>
                <path class="cls-21" d="m71.46,132.51c-6.09-9.9-18.09-13.59-26.8-8.23-.85.52-1.64,1.12-2.36,1.77.6-.5,1.23-.96,1.91-1.38,8.71-5.36,20.71-1.67,26.8,8.23,5.5,8.94,4.31,19.88-2.37,25.87,7.07-5.89,8.44-17.12,2.82-26.26Z"/>
                <path class="cls-4" d="m31.92,156.49c-2.75,6.58-4.48,10.25-8.19,9.08l-.27.87c.82.19,1.57.23,2.26.12,3.75-.62,5.77-5.44,7.87-10.49,1.35-3.23,2.87-6.85,4.97-9.84l-.93-.71c-2.51,3.31-4.21,7.38-5.71,10.97Z"/>
                <path class="cls-12" d="m29.15,168.31c-1.87.31-4.04.04-6.59-1.03l.78-1.87c8.19,3.43,11.52-2.67,15.33-11.66,2.46-5.8,4.78-11.27,9.64-9.56l-.67,1.91c-2.92-1.02-4.6,2.54-7.1,8.44-2.47,5.84-5.41,12.77-11.39,13.76Z"/>
                <path class="cls-4" d="m38.68,153.76c-3.81,8.99-7.13,15.09-15.33,11.66l-.38.9c2.29.86,4.26,1.08,5.98.79,5.98-.99,8.91-7.92,11.39-13.76,2.5-5.9,4.18-9.47,7.1-8.44l.31-.88c-4.48-1.11-6.72,4.16-9.08,9.73Z"/>
                <path class="cls-15" d="m47.5,147.36s1.24-.85,2.68-.64l-2.38-3.87s-.7.7-1.62,1.2c0,0,.47.08.58.05.11-.03-.99.98-.99.98,0,0,.91-.15,1.06-.28s-.43.89-.43.89l.95.12-.18.6.61.1s-.12.22-.28.87Z"/>
                <g>
                  <path class="cls-12" d="m12.37,159.81c-.21.21-.4.41-.57.62l1.14.81-1.53-.34c-.12.15-.23.3-.33.45l.85.36-1-.13c-.14.23-.27.46-.37.7l2.52.86-2.8-.14c-.06.19-.11.39-.15.6l1.43.4-1.5.04c-.04.34-.07.69-.07,1.07l3.9.19-3.87.64c.02.28.04.56.07.86l9.27-.87.32-2.05-7.31-4.05Z"/>
                  <path class="cls-4" d="m12.37,159.81c-.21.21-.22.21-.4.41l2.08,1.3-2.64-.63c-.12.15-.13.15-.23.3l1.6.67-1.84-.29c-.14.23-.16.23-.27.46l3.27,1.15-3.65-.19c-.06.19-.07.19-.11.39l2.29.61-2.4.02c-.04.34-.07.31-.07.69l5.15.51-5.13.7c.02.28,0,.26.04.56l9.39-1.14.23-1.48-7.31-4.05Z"/>
                  <polygon class="cls-12" points="18.75 165.25 15.91 165.09 17.9 164.76 15.24 164.08 18.17 164.28 16.36 163.35 18.39 163.92 17.68 163.27 19.17 163.91 18.75 165.25"/>
                </g>
                <g>
                  <path class="cls-12" d="m21.14,168.07c-1.28.21-2.26-1.17-2.46-2.42-.27-1.6.62-2.79,1.74-2.98.78-.13,1.39.43,1.49,1.01.11.67-.36.12.57-.04.7-.12,1.09.42,1.2,1.11.18,1.08-.37,2.4-1.44,2.88-.23.1-.42-.25-.42-.25,0,0,.24.53-.67.68Z"/>
                  <path class="cls-4" d="m18.97,165.29c-.14-1.23.53-2.15,1.11-2.24.4-.07.63.15.69.54.32,1.92-1.44,4.91-1.8,1.7Z"/>
                  <path class="cls-4" d="m22.22,166.26c-.3-.4,0-2.21.48-2.29.03,0,.05,0,.08,0,.2.03.28.28.31.48.14.83-.57,2.22-.87,1.82Z"/>
                </g>
              </g>
            </g>
            <g>
              <path class="cls-7" d="m171.63,134.21c0,10.13-19.42,25.79-46.12,25.79s-50.58-15.65-50.58-25.79,21.65-23.72,48.35-23.72,48.35,13.59,48.35,23.72Z"/>
              <path class="cls-2" d="m92.23,117c4.3,4.04,13.91,9.27,29.57,9.27,13.8,0,25.26-5.05,31.97-9.53-8.32-3.71-18.92-6.26-30.48-6.26s-22.65,2.67-31.05,6.52Z"/>
              <path class="cls-9" d="m147.13,114.21c8.24,5.18,13.03,11.57,13.03,15.12,0,4.88-13.62,20.5-38.36,20.5s-45.37-9.1-45.37-20.5c-.97,1.67-1.49,3.31-1.49,4.88,0,10.13,23.88,25.79,50.58,25.79s46.12-15.65,46.12-25.79c0-6.84-9.88-15.25-24.51-20Z"/>
              <path class="cls-1" d="m136.34,135.24c-.81,4.12-24.17,10.37-39.18,7.56-9.34-1.75-16.68-9.43-15.87-13.55.81-4.12,11.83-4.67,21.16-2.83,9.32,1.84,34.7,4.7,33.89,8.82Z"/>
              <path class="cls-5" d="m153.48,133.26c-3.19,1.96-6.37,2.57-7.12,1.37-.74-1.21,2.58-7.7,5.77-9.66,3.19-1.96,10.5,2.66,1.34,8.29Z"/>
              <path class="cls-1" d="m170.7,135.24s-7.3,7.68-19.22,14.22c-8.6,4.72-19.69,9.23-35.95,7.93,0,0,19.65,4.22,38.72-5.5,6.58-3.43,12.54-8.69,16.45-16.65Z"/>
              <path class="cls-7" d="m160.12,89.39c.88,7.59-13.9,24.63-34.11,27.71-29.26,4.46-38.55-11.58-39.43-19.17-.88-7.59,13.67-19.88,33.97-22.24,20.31-2.36,38.68,6.1,39.56,13.7Z"/>
              <path class="cls-9" d="m160.12,89.39c-.71-6.1-12.71-12.76-27.93-13.92,11.71,2.43,19.74,6.46,19.74,10.41,0,8.61-14.7,19.82-37.57,19.82-15.2,0-23.66-4.46-27.63-9.98-.17.77-.23,1.51-.15,2.22.88,7.59,10.17,23.63,39.43,19.17,20.21-3.08,34.99-20.11,34.11-27.71Z"/>
              <path class="cls-2" d="m121.3,81.44c-5.81,0-10.56-.97-14.38-2.48-2.02.75-3.91,1.59-5.68,2.5,4.69,2.71,12.63,5.51,21.68,5.51,10.69,0,19.81-4.9,23.88-8.46-2.71-.98-5.73-1.78-8.97-2.34-4.05,3.03-9.54,5.27-16.52,5.27Z"/>
              <path class="cls-1" d="m131.38,94.7c0,3.33-12.11,7.44-22.65,7.44s-17.97-7.99-15.19-9.82c10.23-6.71,37.83-.6,37.83,2.38Z"/>
              <path class="cls-5" d="m146.26,92.8c-2.51,1.9-9.1,2.09-9.9.77-.8-1.31,5.14-4.96,7.83-6.6,4.08-2.49,10.91-.84,2.07,5.83Z"/>
              <path class="cls-7" d="m101.23,113.8s13.76,5.7,32.79-.33,23.86-21.45,23.86-21.45c-1.93,3.09-23.91,28.59-56.66,21.78Z"/>
              <path class="cls-26" d="m146.57,62.13c.24,5.53-7.91,19.31-25.27,19.31-20.02,0-27.5-11.47-27.74-16.99-.24-5.53,6.66-14.64,21.3-15.28,14.64-.64,31.47,7.44,31.71,12.96Z"/>
              <path class="cls-20" d="m135.92,53.25c3.76,2.54,6.04,5.17,6.04,6.9,0,6.67-12.8,12.23-28.6,12.23-12.4,0-18.68-5.56-18.68-12.23,0-.1.02-.21.02-.31-.83,1.63-1.22,3.23-1.16,4.6.24,5.53,7.73,16.99,27.74,16.99,17.36,0,25.51-13.79,25.27-19.31-.12-2.79-4.48-6.23-10.65-8.87Z"/>
              <path class="cls-3" d="m120.06,66.36c-.31,2.96-10.25,2.63-14.94.73-11.8-4.78-3.86-16.2,7.06-11.35,4.63,2.05,7.98,9.7,7.89,10.62Z"/>
              <path class="cls-6" d="m138.72,61.44c.4,1.12-1.3,2.75-3.79,3.62s-7.57.72-7.97-.41,4.05-2.79,6.54-3.67,4.82-.67,5.22.45Z"/>
              <path class="cls-26" d="m108.65,78.48s8.49,2.42,16.36,1.43,16.8-6.88,20.33-14.94c1.61-3.66-12.12,17.02-36.7,13.51Z"/>
            </g>
            <g>
              <g>
                <path class="cls-25" d="m153.34,152.25s.09.02.13.02c0,0,.01,0,.02,0,.68.12,1.33.37,1.98.55.85.24,1.7.35,2.62-.06,1.31-.6,2.48-1.86,4.01-1.91.14,0,.23.01.29.04.26.14-.21.59-.34.89-.29.64-.42,1.36-.39,2.07.03.74.27,1.43.55,2.11.28.69.48,1.39.71,2.11.24.75.67,1.49.77,2.27.61-.67,1.18-1.34,1.86-1.93.01,0,.02-.02.02-.03.05-.04.1-.08.15-.12,1.19-.98,2.77-1.77,2.95-3.46.12-1.1-.22-2.07-.71-2.99-.08-.15-.16-.29-.25-.44.05.03.1.07.15.1.19.13.37.27.55.41.27.2.53.41.78.62.67.56,1.29,1.16,1.88,1.79,0,0,.01,0,.02.02.33.35.64.71.93,1.08.34.42.71,1.25,1.15,1.37h0c.18.05.37-.02.57-.29,1-1.34.85-3.9.5-5.42-.5-2.23-2.58-3.4-4.79-3.3-.17,0-.34.02-.49.06-.19.03-.36.07-.54.12.66-.67,1.24-1.44,1.73-2.1,1.09-1.49,1.43-2.89,1.01-4.7-.21-.89-.79-1.98-.69-2.92-.03.04-.07.08-.11.12-1.42,1.64-3.1,3.29-4.02,5.27-.25.54-.45,1.12-.57,1.72-.25-.88-.58-1.73-1.05-2.47-1.1-1.75-2.8-2.51-4.79-2.86-.99-.18-2.55-.57-3.57-.25,0,.06.01.11.03.16.14.56.73,1.13.98,1.68.58,1.29.93,2.58,1.85,3.68.39.47.84.9,1.32,1.28.43.34,1.03.58,1.4.95-.06.03-.14.05-.22.06-.5.05-1.25-.24-1.68-.28-1.19-.11-2.4-.08-3.41.63-1.05.74-1.44,1.93-2.09,2.97-.33.53-.79.91-1.2,1.36Z"/>
                <path class="cls-30" d="m164.17,149.21c.08.03.17.07.24.1.06.02.12.04.18.05,0,0,.01,0,.02,0,.04.01.06.02.09.02.19.05.37.08.54.09.04,0,.09,0,.12,0,0,0,.01,0,.01,0h0c.26,0,.51-.04.77-.11.35-.09.7-.25,1.1-.44.3-.14.57-.29.83-.46.31-.19.59-.4.85-.65-.19.03-.36.07-.54.12.66-.67,1.24-1.44,1.73-2.1,1.09-1.49,1.43-2.89,1.01-4.7-.21-.89-.79-1.98-.69-2.92-.03.04-.07.08-.11.12,0,.3.04.59.08.87.13.99.22,2.04.17,3.04-.07,1.24-.59,2.36-1.36,3.31-.3.38-.63.75-.95,1.12-.15.17-.31.44-.54.47-.04-.25.07-.49.12-.73.09-.4.11-.81.29-1.19-.36.26-.68.65-.97.97-.31.34-.59.9-.99,1.1.27-1.26.82-2.47,1.28-3.68-.32.08-.61.32-.83.58-.42.5-.83,1.13-1.18,1.69-.14.22-.26.46-.38.7-.2.44-.38.9-.54,1.35-.07.2-.14.39-.21.57v.06s-.07.2-.07.2v.03s-.1.39-.1.39Z"/>
                <path class="cls-30" d="m164.36,149.41c0,.06.02.12.04.17h0s0,.03.01.03c.01.03.02.06.04.09.08.15.19.29.34.42.54.48,1.43.84,1.89,1.09.42.22.84.42,1.26.62.19.1.39.19.58.29.23.12.44.25.65.4.06.04.12.08.19.13.64.47,1.2,1.04,1.69,1.66,0,0,.01,0,.02.02.33.35.64.71.93,1.08.34.42.71,1.25,1.15,1.37-.03-.11-.06-.21-.09-.3-.35-1.18-.83-2.25-1.6-3.22-.71-.89-1.63-1.67-2.54-2.35-.24-.18-.79-.41-.88-.73.32-.3,1.09-.03,1.49-.05-.22-.19-.64-.3-.93-.39-.21-.07-.61-.08-.75-.26.29-.24.93-.15,1.29-.15.69,0,1.45.33,2.13.23-.2-.41-1.08-.63-1.49-.77-.55-.19-1.11-.28-1.68-.3h0c-.15,0-.29,0-.44,0-.47.02-1.53.02-1.79.57,0,0-.01,0,0,.01l-.34.08h-.02s-.33.08-.33.08l-.36.08-.19.04h-.02s-.18.05-.18.05h-.05Z"/>
                <path class="cls-30" d="m165.67,151.23c.31.7,0,1.71.16,2.46.47-.5.67-1.91.54-2.51.88,1.87,1.12,4.14.06,6.01-.23.42-.54.82-.87,1.21.05-.04.1-.08.15-.12,1.19-.98,2.77-1.77,2.95-3.46.12-1.1-.22-2.07-.71-2.99.19.1.39.19.58.29-.03-.08-.07-.15-.12-.23-.24-.43-.55-.83-.93-1.15l-1.3-1.37-.3-.31-.48-.5-.07-.08c-.12.1-.22.2-.31.31h0s0,0,0,.01c-.03.03-.06.06-.09.1-.11.14-.2.28-.28.43,0,0,0,.01,0,.01-.03.06-.05.1-.07.16-.03.06-.06.12-.08.18-.09.22-.15.44-.2.68-.24,1.24,0,2.66.28,3.75.24-.28.17-.98.29-1.34.16-.51.52-1.13.84-1.57Z"/>
                <path class="cls-30" d="m153.49,152.27c.68.12,1.33.37,1.98.55.85.24,1.7.35,2.62-.06,1.31-.6,2.48-1.86,4.01-1.91.14,0,.23.01.29.04.6-.15,1.29-.27,1.87-.51.19-.07.38-.17.54-.27.2-.14.38-.3.51-.49.01-.02.03-.04.04-.06h0s.03-.06.04-.09h0c.05-.1.09-.21.12-.33,0-.02.01-.04.01-.06.03,0,.05,0,.06,0-.01-.02-.03-.02-.06-.03-.07-.02-.18-.05-.3-.08-.01,0-.03,0-.04,0-.05,0-.1-.02-.15-.02-.05-.01-.1-.02-.14-.02-.2-.03-.41-.07-.61-.09,0,0-.02,0-.02,0-.24-.03-.48-.06-.72-.09-1.07-.1-2.11-.1-3.18.06-.82.12-1.66.29-2.46.54-.19.06-.57.13-.62.32.95.13,2.09-.4,3.02-.03-.61.34-1.52.26-2.2.43-.59.15-1.37.36-1.83.78.68-.06,1.36-.29,2.05-.39.65-.1,1.82-.43,2.45-.11-.62.4-1.46.61-2.13.92-.91.41-1.82.72-2.81.86-.73.1-1.55.19-2.33.15Z"/>
                <path class="cls-30" d="m165.01,148.8s-.02,0-.02,0c0,0,.01,0,0,.02.02.04.04.08.06.13.04.1.08.19.12.29.05.13.1.26.14.39,0,0,0,.01,0,.02l.03-.07.16-.42.03-.07v-.03s.02-.04.02-.04c-.18-.08-.36-.15-.55-.21Z"/>
                <path class="cls-30" d="m156.38,139.92c.14.56.73,1.13.98,1.68.58,1.29.93,2.58,1.85,3.68.39.47.84.9,1.32,1.28.43.34,1.03.58,1.4.95-.06.03-.14.05-.22.06.36.18.73.34,1.09.51.7.31,1.45.47,2.17.72-.49-1.1-1.21-2.13-2.22-2.78-1.05-.68-2.28-1.03-3.15-1.97-.83-.91-1.46-2.02-2.22-2.98-.31-.4-.65-.78-1.01-1.15Z"/>
                <path class="cls-30" d="m165.31,148.92c.26-.76-.04-1.79-.28-2.51-.33-.99-.85-2.3-1.64-3.03.19.88.88,1.78.82,2.7-.51-.82-1.03-1.51-1.79-2.12-.41-.33-1.33-1.18-1.91-1.19.93.8,1.65,1.99,2.3,3.01.54.84,1.01,1.71,1.34,2.66.12.35.35.83.25,1.21l.91-.72Z"/>
              </g>
              <path class="cls-33" d="m165.83,148.75c.51-1.28,1.05-2.6,1.24-3.97.05-.35.09-.71.13-1.07.02,0,.03,0,.05,0,.25-.02.45-.27.5-.51.02-.14,0-.29-.06-.42.06-.15.09-.31.04-.47-.02-.06-.05-.12-.08-.17.09-.14.15-.3.18-.45.02-.14,0-.29-.08-.42.01-.04.03-.07.04-.12.04-.22-.02-.46-.16-.64-.11-.25-.36-.46-.64-.32-.13.06-.15.24-.08.34-.03.05-.07.09-.1.15-.07.16,0,.33.15.42-.31.12-.22.61.08.66,0,.01-.01.02-.02.04.05-.08,0,0,0,.01-.02.02-.04.05-.06.07,0,0-.02.03-.05.05-.23.18-.18.49.05.62-.1.11-.13.34-.02.46,0,0,.02.03.04.05-.02.01-.03.02-.05.04-.18.2-.11.47.09.58-.05.38-.12.76-.2,1.13-.29,1.32-.9,2.52-1.32,3.8-.07.23.25.39.35.16Z"/>
            </g>
            <g>
              <g>
                <path class="cls-18" d="m153.59,165.52s-.09,0-.13-.01c0,0-.01,0-.02,0-.69-.05-1.38.03-2.06.05-.88.02-1.74-.07-2.53-.7-1.13-.9-1.96-2.4-3.42-2.82-.14-.04-.23-.04-.29-.03-.29.07.06.63.12.95.13.69.08,1.42-.12,2.1-.21.71-.61,1.33-1.04,1.92-.44.61-.81,1.23-1.2,1.88-.42.67-1.01,1.28-1.3,2.02-.43-.8-.82-1.59-1.34-2.33,0,0-.01-.02-.02-.03-.04-.05-.08-.1-.11-.15-.92-1.24-2.26-2.38-2.02-4.07.15-1.1.71-1.96,1.42-2.73.11-.12.23-.25.35-.37-.06.02-.11.04-.17.06-.21.08-.43.17-.64.26-.31.13-.61.27-.9.42-.78.38-1.53.81-2.26,1.28,0,0-.01,0-.02.01-.4.26-.79.54-1.17.82-.43.32-.99,1.04-1.44,1.05h0c-.18,0-.35-.11-.48-.42-.65-1.54.12-3.99.83-5.38,1.03-2.04,3.33-2.67,5.44-2.04.16.05.32.11.46.17.18.07.34.15.5.25-.48-.81-.86-1.7-1.17-2.46-.7-1.71-.69-3.15.16-4.8.42-.81,1.24-1.73,1.37-2.66.02.05.05.1.07.14.98,1.93,2.21,3.95,2.63,6.09.11.59.16,1.19.13,1.8.45-.79.98-1.54,1.62-2.14,1.5-1.43,3.32-1.76,5.34-1.62,1,.07,2.62.06,3.52.62-.02.05-.04.1-.07.15-.27.51-.99.92-1.35,1.39-.87,1.11-1.52,2.28-2.69,3.12-.5.36-1.03.67-1.59.92-.49.22-1.14.31-1.59.58.05.05.12.08.2.11.47.17,1.27.07,1.69.14,1.18.18,2.35.5,3.16,1.44.84.97.93,2.22,1.31,3.39.19.59.54,1.07.83,1.61Z"/>
                <path class="cls-23" d="m143.82,159.94c-.09.01-.18.02-.26.03-.07,0-.13,0-.19,0,0,0-.01,0-.02,0-.04,0-.07,0-.1,0-.2,0-.38,0-.55-.04-.04,0-.08-.02-.12-.03,0,0-.01,0-.01,0h0c-.25-.07-.49-.16-.72-.29-.31-.18-.62-.41-.96-.69-.25-.21-.49-.42-.7-.64-.25-.26-.47-.53-.66-.84.18.07.34.15.5.25-.48-.81-.86-1.7-1.17-2.46-.7-1.71-.69-3.15.16-4.8.42-.81,1.24-1.73,1.37-2.66.02.05.05.1.07.14-.08.29-.19.56-.29.83-.37.93-.7,1.92-.9,2.9-.23,1.22,0,2.43.51,3.54.2.44.43.88.65,1.31.1.2.19.51.41.58.1-.23.06-.5.06-.74.01-.4.09-.81,0-1.22.29.34.5.79.71,1.18.22.41.35,1.01.69,1.31.04-1.29-.19-2.6-.35-3.88.29.15.52.46.66.76.29.59.54,1.3.74,1.93.08.25.14.51.19.77.09.47.15.96.2,1.44.02.21.04.41.06.6v.06s0,.21,0,.21v.04s0,.4,0,.4Z"/>
                <path class="cls-23" d="m143.58,160.09c-.02.05-.05.11-.08.15h0s-.01.02-.02.03c-.02.03-.04.06-.06.08-.11.12-.26.23-.43.32-.64.34-1.6.47-2.09.6-.46.12-.91.2-1.37.3-.21.05-.42.09-.63.14-.25.06-.49.13-.73.23-.07.02-.14.05-.21.08-.74.3-1.41.72-2.04,1.21,0,0-.01,0-.02.01-.4.26-.79.54-1.17.82-.43.32-.99,1.04-1.44,1.05.06-.1.11-.19.16-.27.63-1.06,1.35-1.99,2.33-2.74.9-.7,1.99-1.23,3.03-1.67.28-.12.87-.21,1.03-.49-.24-.37-1.05-.29-1.44-.41.26-.13.69-.14,1-.15.22-.01.61.07.79-.07-.23-.31-.86-.37-1.21-.46-.68-.16-1.49-.03-2.12-.3.3-.34,1.2-.35,1.63-.39.58-.06,1.14,0,1.7.12h0c.14.04.28.07.43.11.45.13,1.48.39,1.6.99,0,0,0,0,0,.01l.31.16h.02s.3.17.3.17l.33.16.17.09h.02s.16.09.16.09l.05.03Z"/>
                <path class="cls-23" d="m141.87,161.54c-.47.6-.42,1.66-.75,2.35-.33-.6-.19-2.01.08-2.57-1.31,1.61-2.09,3.74-1.51,5.82.12.46.32.93.56,1.38-.04-.05-.08-.1-.11-.15-.92-1.24-2.26-2.38-2.02-4.07.15-1.1.71-1.96,1.42-2.73-.21.05-.42.09-.63.14.05-.07.11-.13.17-.19.33-.36.73-.67,1.18-.89l1.6-1.01.37-.23.59-.37.08-.06c.09.12.17.25.23.38h0s0,0,0,.02c.02.04.04.08.06.12.07.16.13.32.17.49,0,0,0,.01,0,.01.02.06.03.11.03.17.02.07.03.13.04.2.03.23.04.47.03.71-.06,1.26-.64,2.58-1.19,3.57-.16-.33.07-.99.04-1.38-.03-.54-.24-1.22-.44-1.73Z"/>
                <path class="cls-23" d="m153.44,165.5c-.69-.05-1.38.03-2.06.05-.88.02-1.74-.07-2.53-.7-1.13-.9-1.96-2.4-3.42-2.82-.14-.04-.23-.04-.29-.03-.55-.29-1.18-.58-1.69-.94-.17-.12-.33-.25-.46-.39-.16-.18-.29-.38-.37-.6,0-.02-.02-.04-.02-.06h0s-.02-.07-.02-.09h0c-.02-.11-.04-.23-.04-.36,0-.02,0-.04,0-.07-.04,0-.05,0-.06-.01.02-.01.03-.01.06-.02.07,0,.19,0,.31,0,.01,0,.03,0,.04,0,.05,0,.1,0,.15.01.05,0,.1,0,.15.01.2.02.41.03.62.06,0,0,.02,0,.02,0,.24.02.48.05.72.09,1.06.16,2.07.42,3.07.83.77.31,1.54.68,2.26,1.12.17.1.52.26.52.46-.96-.11-1.93-.9-2.92-.76.51.48,1.41.63,2.03.95.54.29,1.24.68,1.58,1.2-.65-.22-1.25-.62-1.89-.87-.61-.25-1.66-.86-2.35-.7.5.53,1.26.95,1.85,1.41.79.62,1.59,1.14,2.52,1.52.68.27,1.46.56,2.23.71Z"/>
                <path class="cls-23" d="m143.11,159.35s.02,0,.02,0c0,0-.01,0-.01.02-.03.04-.06.07-.09.11-.06.08-.13.17-.19.25-.08.11-.16.23-.23.35,0,0,0,0-.01.01v-.08s-.06-.44-.06-.44v-.07s-.01-.03-.01-.03v-.04c.19-.04.38-.06.58-.07Z"/>
                <path class="cls-23" d="m153.62,152.81c-.27.51-.99.92-1.35,1.39-.87,1.11-1.52,2.28-2.69,3.12-.5.36-1.03.67-1.59.92-.49.22-1.14.31-1.59.58.05.05.12.08.2.11-.39.08-.79.16-1.18.23-.75.14-1.53.11-2.28.17.74-.95,1.69-1.77,2.83-2.16,1.18-.4,2.46-.44,3.53-1.15,1.02-.68,1.91-1.6,2.88-2.36.4-.32.82-.6,1.26-.87Z"/>
                <path class="cls-23" d="m142.78,159.38c-.07-.8.47-1.73.88-2.37.56-.88,1.38-2.03,2.33-2.54-.4.81-1.28,1.52-1.45,2.42.69-.67,1.36-1.22,2.25-1.62.48-.22,1.58-.82,2.14-.69-1.1.55-2.08,1.53-2.97,2.36-.73.69-1.39,1.41-1.94,2.25-.2.31-.54.72-.53,1.11l-.71-.92Z"/>
              </g>
              <path class="cls-33" d="m142.69,159.02c-.1-1.34-.39-2.65-.36-4,0-.39.04-.77.08-1.15.22-.06.35-.3.22-.54,0-.02-.02-.03-.04-.05.02-.01.05-.03.05-.03.13-.09.16-.32.09-.45.26-.07.38-.36.2-.59-.02-.03-.04-.07-.04-.06-.01-.03-.03-.05-.04-.08,0-.02-.03-.1,0-.01,0-.01,0-.03-.01-.04.3.03.51-.43.24-.62.17-.05.27-.2.24-.37,0-.06-.04-.11-.06-.16.1-.07.12-.25,0-.34-.24-.2-.54-.06-.7.16-.18.14-.3.35-.31.58,0,.04,0,.08.01.12-.1.1-.16.24-.17.38-.01.16.01.32.06.48-.05.04-.09.09-.12.14-.09.14-.1.31-.08.47-.09.11-.15.25-.16.39-.02.24.12.53.36.61.02,0,.03,0,.05,0-.05.36-.1.71-.14,1.07-.15,1.38.05,2.79.24,4.15.03.25.39.17.37-.07Z"/>
            </g>
          </g>
        </g>
      </g>
    </g>
  </g>
</svg>