<?xml version="1.0" encoding="UTF-8"?>
<svg xmlns="http://www.w3.org/2000/svg" viewBox="0 0 220 220">
  <defs>
    <style>
      .cls-1 {
        fill: #ffc686;
      }

      .cls-2, .cls-3, .cls-4, .cls-5, .cls-6, .cls-7 {
        mix-blend-mode: screen;
      }

      .cls-2, .cls-8, .cls-9 {
        opacity: .4;
      }

      .cls-10, .cls-5, .cls-11 {
        fill: #e0914e;
      }

      .cls-12, .cls-13 {
        fill: #fff2de;
      }

      .cls-14 {
        fill: #c49f75;
      }

      .cls-3, .cls-15, .cls-6 {
        opacity: .2;
      }

      .cls-16 {
        fill: #684130;
      }

      .cls-17 {
        opacity: .5;
      }

      .cls-18, .cls-11 {
        opacity: .6;
      }

      .cls-15, .cls-8 {
        mix-blend-mode: multiply;
      }

      .cls-15, .cls-19 {
        fill: #633e2a;
      }

      .cls-20 {
        isolation: isolate;
      }

      .cls-21 {
        fill: #c1a993;
      }

      .cls-22 {
        fill: #c0ded8;
      }

      .cls-23, .cls-7 {
        fill: #774e34;
      }

      .cls-24 {
        fill: #796b87;
      }

      .cls-24, .cls-4, .cls-5, .cls-7, .cls-13 {
        opacity: .3;
      }

      .cls-8, .cls-25 {
        fill: #af8b68;
      }

      .cls-26 {
        fill: #845b41;
      }

      .cls-4, .cls-6 {
        fill: #c47442;
      }

      .cls-27 {
        fill: #a4c9bf;
      }

      .cls-28 {
        fill: #996d4f;
      }

      .cls-29 {
        fill: #332722;
      }

      .cls-30 {
        fill: #cbdffd;
      }

      .cls-31 {
        fill: #efe1ce;
      }

      .cls-32 {
        fill: #d1c1b0;
      }

      .cls-33 {
        fill: #a7c3e5;
      }

      .cls-34 {
        fill: #d9e5d1;
      }

      .cls-35 {
        fill: #377f65;
      }
    </style>
  </defs>
  <g class="cls-20">
    <g id="Layer_2" data-name="Layer 2">
      <g id="_2" data-name="2">
        <g>
          <circle class="cls-34" cx="110" cy="110" r="110"/>
          <g>
            <g>
              <path class="cls-1" d="m59.8,116.27c-1.66-.06-6.44-1.51-9.48-7.2-2.46-4.61-2.27-10.62-.52-13.26-3.68-3.22-3.46-8.76,1.22-10.34-4.45-7.19,1.34-20.01,7.65-24.56,1.95-1.41,3.45-1.71,4.54-3.4,1.1-1.69.85-4.58,2.37-6.46,2.45-3.04,7.94-5.02,11.62-4.99-4.91-10.58,31.95-22.8,35.67-10.3,3.39-5.79,14.76-2.86,19.63-1.1,8.29,3,15.55,7.99,20.48,15.29,1.01,1.5,1.9,2.78,2.37,4.53.39,1.46-.39,3.27.65,4.55,1.59,1.96,6.29,2.61,8.82,4.93,5.03,4.59,7.93,10.39,6.84,17.44-.17,1.08-.97,2.47-1.5,3.36,5.15-.46,6.21,6.46,6.03,10.29-.24,4.97-3.21,8.24-6.77,11.45,2.7,6.14-3.17,11.48-9.1,10.98-.85,15.66-17.01,22.78-30.96,25.53-1.52.3-18.14,7.99-31.47,5.12-9.67-2.09-10.8-6.69-14.6-8.81-4.12-2.3-8.8-.59-12.32-3.52-3.19-2.65-3.82-9.06-7.01-10.8-2.52-1.38-3.82-1.67-4.91-5-.65-1.98.74-3.72.74-3.72Z"/>
              <path class="cls-5" d="m66.3,68.89c-1.4-4.17,4.05-11.15,9.23-10.35-.24-4.46,3.02-8.95,6.53-11.38,5.5-3.81,10.64-3.75,16.72-2.79,1.99-4.58,13.09-7.65,15.69-3.55,5.81.11,9.38-4.17,15.66-1.31,4.09,1.86,9.05,7.83,8.53,12.75,11.38,3.15,15.49,9.03,18.54,14.5,1.98,3.55,4.36,5.84,4.39,9.85.02,1.76.03,3.45-.52,5.1-.43,1.3-2.41,3-2.49,4.24-.16,2.69,2.67,5.36,1.74,8.94-.75,2.89-3.28,5.89-5.96,7.35-4.51,2.45-4.64.92-6.46,5.84-1.44,3.89-3.91,8.08-6.71,11.03-6.65,7.01-15.97,7.83-24.19,4.32-.17,2.71-13.1,11.04-20.79-.9,0,0-3.17.57-8.61.02-10.62,1.42-31.42-12.05-24.29-24.58-3.79-.81-5.37-3.64-2.77-7.65,0,0-7.94-16.58,5.76-21.42Z"/>
              <path class="cls-5" d="m78.61,72.29c.32-6.37-.57-12.99,5.91-16.62,3.79-2.13,12.67-3.58,16.58-.81,9.12-9.07,38.52-2.16,29.92,13.5,6.97-1.09,8.64,10.95,6.66,15.47-3.12,7.09-8.85,9.31-15.99,10.29-2.38,6.91-6.57,10.94-13.68,12.26-6.73,1.25-14.05-1.27-15.37-8.87-4.98.28-9.02,2.14-13.96-1.02-2.39-1.53-8.65-8.65-2.99-10.1,0,0-5.13-13.52,2.91-14.09Z"/>
              <g class="cls-9">
                <path class="cls-10" d="m107.57,64.89c.41-1.58,1.76-2.21,3.26-2.21,1.85,0,4.9,1.16,4.9,2.97,0,1.56-1.97,2.58-3.73,2.58-2.19,0-4.49-1.36-4.49-2.92,0-.14.02-.28.06-.43Z"/>
                <path class="cls-10" d="m116.29,61.67c-.04-.14-.06-.28-.06-.41,0-1,.85-1.4,1.85-1.4,1.57,0,2.9,1.37,2.9,2.11,0,1.09-1.05,1.18-2.14,1.18s-2.18-.32-2.54-1.48Z"/>
                <path class="cls-10" d="m112.5,58.45c-.4.06-.87.09-1.38.09-2,0-4.44-.49-4.44-1.72,0-1.06,2.15-3.16,5.35-3.16s5.13,2.14,5.13,3.44c0,1.45-3.23,1.15-4.67,1.36Z"/>
                <path class="cls-10" d="m125.19,60.79c0-.48.2-.85.76-.85,4.45,0-.76,5.44-.76.85Z"/>
                <path class="cls-10" d="m125.01,82.9c-.97-.88-1.28-2.2-1.28-3.57,0-3.59,1.87-5.36,3.27-5.36,1.22,0,2.74,1.32,2.74,3.98,0,3.27-1.94,5.34-3.69,5.34-.38,0-.74-.12-1.04-.39Z"/>
                <path class="cls-10" d="m119.09,73.79c0,1.15.88,1.99,1.9,1.99,1.35,0,2.7-1.46,2.7-2.77,0-1.52-4.6-2.27-4.6.78Z"/>
                <path class="cls-10" d="m116.48,90.11c-.71-.35-1.4-.5-2.08-.5-2.06,0-5.29,1.6-5.29,4.78,0,1.73.75,2.69,2.71,2.69,2.78,0,6.37-2.41,6.55-5.64,0-.01,0-.03,0-.04,0-.72-1.06-.87-1.9-1.28Z"/>
                <path class="cls-10" d="m118.19,89.35c-1.22,0-2.28-.96-2.28-2.05,0-1.2,1.48-2.72,3.67-2.72,1.94,0,3.12,1.26,3.12,2.47,0,1.72-2.84,2.3-4.51,2.3Z"/>
                <path class="cls-10" d="m99.99,88.97c-.49-.3-.99-.42-1.47-.42-1.36,0-3.34,1.11-3.34,2.69,0,1.43,2.58,1.99,3.97,1.99,2.21,0,3.22-1.01,3.22-2.47,0-.22-.03-.44-.1-.65-.32-.97-1.45-.63-2.27-1.14Z"/>
                <path class="cls-10" d="m110.61,79.3c-.59-.09-1.19-.14-1.78-.14-3.87,0-5.75,2.3-5.75,4.69s2.06,3.32,3.95,3.32c3.33,0,6.6-3.26,6.6-5.12,0-1.32-1.13-2.45-3.02-2.75Z"/>
                <path class="cls-10" d="m111.18,78.54c-.95-.3-2.13-1.59-2.13-2.54,0-1.08,1.92-1.29,3-1.29,2.11,0,4.36.83,4.36,2.57,0,1.16-.67,1.9-2.12,1.9-1.02,0-2.22-.35-3.11-.63Z"/>
                <path class="cls-10" d="m86.91,80.06c-1.09-.14-2.2-.34-3.29-.34-3.04,0-4.37,1.68-4.37,3.42,0,2.1,3.85,2.67,5.51,2.67,3.75,0,6.15-2.57,6.15-4.08,0-.54-.26-1.05-.77-1.28-.93-.41-2.08-.24-3.22-.38Z"/>
                <path class="cls-10" d="m87.24,77.62c-1.09,0-2.32-.54-2.32-1.55,0-.84.65-1.57,1.85-1.57,2.58,0,4.48,3.13.47,3.13Z"/>
                <path class="cls-10" d="m95.06,63.76c-2.26.12-4.03,2.09-4.03,4.17,0,1.27.64,1.83,1.66,1.83,1.52,0,4.88-2.19,4.88-4.35,0-1.28-.85-1.66-2.19-1.66-.11,0-.21,0-.32,0Z"/>
                <path class="cls-10" d="m97.34,59.21c-.68-.22-1.41-.36-2.13-.36-2.24,0-3.5,1.43-3.5,2.42s2.61,1.39,3.6,1.39c2.46,0,3.92-1.39,3.92-2.01s-1.02-1.14-1.89-1.43Z"/>
                <path class="cls-10" d="m84.83,59.4c-.97.49-1.57,1.67-1.57,2.71,0,.68.16,1,.88,1,1.49,0,3.11-1.4,3.11-2.94,0-.68-.21-1.22-.88-1.22-.61,0-1.42.4-1.91.65l.38-.19Z"/>
              </g>
              <g class="cls-17">
                <path class="cls-10" d="m126.72,106.22c-.34-3.01,3.59-5.15,5.11-5.15s2.48,1.41,2.48,2.67c0,2.43-3.37,4.83-6.08,4.94-.02,0-.04,0-.06,0-1.09,0-1.34-1.35-1.46-2.47Z"/>
                <path class="cls-10" d="m129.56,97.31c.38-1.66,2.33-2.33,3.97-2.33.97,0,1.69.18,1.69,1.22,0,1.33-2.37,2.63-3.79,2.63-.95,0-1.89-.39-1.89-1.34,0-.06,0-.12.02-.19Z"/>
                <path class="cls-10" d="m149.09,91.62c-1.07.7-1.55,2.04-1.55,3.44,0,1.69.5,2.95,2.2,2.95,1.34,0,3.63-2.12,3.63-4.17,0-1.66-1.25-2.61-2.83-2.61-.54,0-1.06.13-1.45.38Z"/>
                <path class="cls-10" d="m143.02,83.66c-.77.68-1.24,1.8-1.24,2.86s.5,2.14,1.56,2.14c1.37,0,2.62-1.71,2.62-3.03,0-1.45-1.08-2.23-2.21-2.23-.26,0-.51.07-.73.27Z"/>
                <path class="cls-10" d="m151.93,73.8c-.25.41-.36.86-.36,1.33,0,2.15,2.33,4.5,3.62,4.5,1.14,0,2.01-1.47,2.01-2.8,0-1.8-2.83-3.6-4.19-3.6-.44,0-.82.17-1.07.58Z"/>
                <path class="cls-10" d="m140.75,66.79c0,.09-.01.18-.01.27,0,1.46,1.26,3.03,2.69,3.03,1.07,0,1.63-.76,1.63-1.82,0-1.49-.95-2.88-2.57-2.88-.84,0-1.63.42-1.74,1.4Z"/>
                <path class="cls-10" d="m142.83,58.26c-.04.16-.05.33-.05.51,0,1.92,2.17,4.33,4.33,4.33,1.39,0,2.25-.93,2.25-2.07,0-1.37-3.89-3.9-5.26-3.9-.61,0-1.07.32-1.26,1.14Z"/>
                <path class="cls-10" d="m134.3,56.36c.1,1.26,1.13,3.08,2.31,3.08.8,0,1.1-.74,1.1-1.53,0-1.27-.66-2.51-2.03-2.51-.68,0-1.38.28-1.38.89,0,.02,0,.04,0,.07Z"/>
                <path class="cls-10" d="m128.43,45.18c.45,1.59,2.42,3.75,4.27,3.75,1.34,0,2.41-1.26,2.41-2.29,0-1.35-1.88-3.21-4.46-3.21-1.16,0-2.28.38-2.28,1.34,0,.13.02.26.06.41Z"/>
                <path class="cls-10" d="m117.62,47.45c.06,1.52,2.13,2.51,4.07,2.51,1.04,0,2.87-.44,2.87-1.47,0-1.87-3.5-2.18-5.34-2.18-.91,0-1.6.23-1.6,1.07,0,.02,0,.04,0,.06Z"/>
                <path class="cls-10" d="m102.46,45.18c-.02-.13-.03-.25-.03-.38,0-2.1,3.02-3.29,5.68-3.29,2.16,0,3.73.59,3.73,2.78,0,2.54-2.67,2.93-5.79,2.93-1.78,0-3.33-.47-3.59-2.04Z"/>
                <path class="cls-10" d="m92.41,49.73c.39-1.34,2.1-2.13,3.61-2.13,1.25,0,2.35.54,2.45,1.75,0,.05,0,.1,0,.14,0,1.3-1.58,1.69-3.08,1.69-1.02,0-3.03-.17-3.03-1.19,0-.08.01-.16.04-.25Z"/>
                <path class="cls-10" d="m81.98,50.3c.39-1.68,2.99-3.14,4.27-3.14,1.14,0,1.84.75,1.84,1.9,0,2.02-2.59,3.36-4.51,3.36-1.16,0-1.66-.64-1.66-1.61,0-.17.02-.34.06-.51Z"/>
                <path class="cls-10" d="m74.43,60.64c.72,0,1.69.98,1.69,2.42,0,1.51-1.1,3-2.67,3-1.45,0-1.37-5.42.98-5.42Z"/>
                <path class="cls-10" d="m64.99,76c0,1.5.89,2.67,2.43,2.67,2.36,0,4.42-3.25,4.42-4.76,0-3.13-6.85-2.83-6.85,2.09Z"/>
                <path class="cls-10" d="m69.85,83.28c-.49-.35-.88-.5-1.2-.5-1.1,0-1.89,3.14-1.89,4.21s.56,2.54,1.65,2.54c1.55,0,2.79-2.39,2.79-3.86,0-.83-.35-1.67-1.36-2.39Z"/>
                <path class="cls-10" d="m61.72,84.96c.72,0,1.48-.69,1.48-1.98,0-.73-.29-2.02-1.04-2.02-2.15,0-2.62,4-.43,4Z"/>
                <path class="cls-10" d="m67.39,101.86c-.49.19-.67.58-.67,1.05,0,2.23,3,4.95,4.86,4.95,1.1,0,1.72-1.15,1.72-2.12,0-2.06-2.6-4.07-4.81-4.07-.39,0-.76.06-1.11.2Z"/>
                <path class="cls-10" d="m75.54,101.29c0,.06,0,.12,0,.18,0,1.69,2.42,2.58,4.52,2.58,1.15,0,2.01-.11,2.01-1.27,0-1.93-3.5-2.46-5.02-2.46-.82,0-1.43.24-1.5.97Z"/>
                <path class="cls-10" d="m82.36,116.45c-1.17-.9-3.22-1.52-3.22-3.22,0-.52,1.09-.96,1.87-.96.08,0,.15,0,.22.01,1.98.25,5.35,1.32,5.35,3.14,0,1.18-1.02,1.65-2.2,1.65-.7,0-1.44-.19-2.01-.63Z"/>
                <path class="cls-10" d="m93,106.87c1.27,0,2.79.77,2.63,2-.09.65-.8.86-1.61.86-3.18,0-3.95-2.87-1.02-2.87Z"/>
                <path class="cls-10" d="m110.23,119.3c-.39-.09-.8-.13-1.22-.13-1.53,0-4.42.66-4.42,2.8,0,1.59,1.84,2.04,3.37,2.04,2.71,0,4.82-2.01,4.82-2.9,0-.1-.02-.2-.09-.29-.53-.79-1.34-1.26-2.46-1.52Z"/>
                <path class="cls-10" d="m113.83,118.54c-.52-.31-1.13-.81-1.13-1.29,0-.59,2.02-2.29,4.62-2.29,1.41,0,3.42.54,3.42,1.95,0,1.06-1.38,2.51-3.67,2.51-1.13,0-2.3-.33-3.25-.89Z"/>
                <path class="cls-10" d="m107.53,111.47c0,.89,1.22,1.32,2.11,1.32,1.6,0,2.69-1.08,2.69-1.82,0-.79-4.81-1.31-4.81.49Z"/>
                <path class="cls-10" d="m131.46,118.35c.11-1.32,1.26-1.66,2.4-1.66s2.07.1,2.07,1.18c0,1.2-2.04,2.47-3.11,2.47-.83,0-1.63-.88-1.63-1.26,0-.24.24-.43.26-.72Z"/>
                <path class="cls-10" d="m142.45,105.08c-.84.31-1.62,1.49-1.62,2.43,0,.71.47,1.11.91,1.11.92,0,1.94-1.63,1.94-2.81,0-.57-.13-.8-.8-.8-.16,0-.31.02-.43.07Z"/>
              </g>
              <path class="cls-11" d="m170.17,84.74c.52-.89,1.33-2.27,1.5-3.36,1.09-7.05-1.82-12.84-6.84-17.44-2.54-2.32-7.23-2.98-8.82-4.93-1.04-1.27-.26-3.09-.65-4.55-.46-1.75-1.36-3.03-2.37-4.53-4.93-7.3-12.2-12.29-20.48-15.29-4.87-1.76-16.23-4.7-19.63,1.1-3.72-12.49-40.58-.28-35.67,10.3-3.68-.03-9.17,1.95-11.62,4.99-1.52,1.89-1.27,4.77-2.37,6.46-1.09,1.69-2.59,2-4.54,3.4-6.31,4.55-12.1,17.36-7.65,24.56-4.68,1.58-4.9,7.12-1.22,10.34-1.75,2.64-1.94,8.65.52,13.26,3.04,5.69,7.81,7.14,9.48,7.2,0,0-1.39,1.74-.74,3.72,1.09,3.33,2.39,3.63,4.91,5,3.19,1.75,3.82,8.15,7.01,10.8,3.52,2.93,8.2,1.22,12.32,3.52,3.8,2.12,4.93,6.72,14.6,8.81,13.33,2.88,29.95-4.82,31.47-5.12,13.94-2.76,30.11-9.88,30.96-25.53,5.92.5,11.8-4.84,9.1-10.98,3.56-3.21,6.52-6.48,6.77-11.45.19-3.83-.87-10.75-6.03-10.29Zm-5.73,19.39c.91.91,1.69.1,1.69,3.32,0,6.99-9.05,7.37-9.05,7.39,0,3.34-1.75,8.88-5.22,8.88-2.3,0-1.16-1.23-1.16,1.75,0,4.33-3.65,6.64-7.92,6.64-5.83,0-3.85,8.83-14.71,8.83-2.04,0-4.08-.54-5.89-1.73-.67,3.02-5.33,3.79-6.85,3.79-3.25,0-3.39-2.83-3.39-.47s-4.69,4.68-8.87,4.68c-5.47,0-9.84-3.49-9.84-4.67,0-2.32,1.51-1.15-1.88-1.15-4.24,0-8.28-3.1-8.61-7.3-1.29,1.12-3.04,1.73-4.73,1.73-2.93,0-4.99-2.01-4.99-3.2,0-.88.63-1.34-.21-1.34-3.17,0-4.89-2.72-4.89-5.92,0-1.8.64-2.56,1.05-2.84-.37.09-1.08.2-2.32.2-2.41,0-4.67-1.34-4.67-3.75,0-1.39.65-2.73,1.43-3.82-.11,0-.22,0-.33,0-4.63,0-9.15-3.91-9.15-8.54,0-1.52.76-2.84,1.9-3.98-2.75-.34-4.05-1.38-4.05-4.23,0-1.71.72-3.37,2.15-4.68,3.3-1.65-2.09.11-2.09-3.62,0-2.68,3.49-3.59,5.5-5.1-1.82-1.16-2.92-2.89-2.92-4.95,0-2.73-.2-6.03,5-8.37-1.55-.06-1.47-3.81-1.29-5.61.54-5.16,7.8-7.9,8.63-7.9-1.09-9.24,11.43-12.08,12.49-10.56-.04-.35-.16-1.6-.16-1.8,0-1.79.08-4.23,2.83-6.31,4.23-2.75,8.11-1.34,8.11-1.34,2.18-5.2,9.91-5.87,11.47-5.87,4.06,0,7.54,1.49,7.54,5.12,0,0,1.79-.28,4.58-.28,0,0,4.51.56,4.06,1.47,0,0,1.9-2.78,5.34-2.78s5.86,2.23,5.86,3.59c0,.62,2.32-.41,4.37-.41,5.47,0,8.4,4.44,8.4,5.98,3.39-1.54,5.95,3.76,4.44,5.25.4-.04.89-.07,1.53-.07,3.5,0,5.74,1.7,5.74,5.94,0,0,2.83,1.97,2.27,4.92,5.76,2.79,10.9,5.74,13.35,12.21.97,2.57.93,7.08-1.33,11.73,0,0,2.4.23,2.4,3.84,0,1.19-.91,1.81-.91,1.81,0,.02,0,.05.03.07,1.88,1.56,3.55,1.33,3.55,4.47,0,4.47-3.83,8.82-8.29,8.99Z"/>
              <g class="cls-18">
                <path class="cls-10" d="m92.91,140.15c-2.52,0-6.58-1.24-6.58-3.36,0-1.06.84-2.11,2.33-2.11,2.79,0,6.42,3.21,6.42,4.59,0,.78-1.31.88-2.17.88h0Z"/>
                <path class="cls-10" d="m91.4,134.21c-1.2-.13-2.92-1-2.92-2.03,0-.57.58-1.29,1.47-1.29,1.38,0,2.98,1.54,2.98,2.28,0,.6-.7,1.05-1.37,1.05-.05,0-.11,0-.16,0Z"/>
                <path class="cls-10" d="m99.92,144.14c-.85-.63-2.72-1.38-2.72-2.36,0-.7,1.18-1.89,2.92-1.89,1.52,0,5.17.95,5.17,3.06,0,1.28-1.56,2.05-2.83,2.05-.88,0-1.79-.3-2.54-.86Z"/>
                <path class="cls-10" d="m108.08,141.92c-.51-.32-.99-.81-.99-1.29,0-.78,1.51-1.32,2.3-1.32,1.16,0,2.03.9,2.03,1.8,0,.79-.53,1.34-1.56,1.34-.59,0-1.26-.19-1.78-.53Z"/>
                <path class="cls-10" d="m114.52,140.15c-.06-.14-.09-.27-.09-.41,0-1.19,2.66-2.24,3.7-2.24s1.74.87,1.74,1.6c0,1.27-2.08,2.2-3.33,2.2-.82,0-1.68-.4-2.02-1.15Z"/>
                <path class="cls-10" d="m117.94,134.72c-.02-.08-.03-.15-.03-.22,0-.84,1.22-1.21,2.18-1.21.56,0,1.1.11,1.1.67,0,.8-1.19,1.52-2.12,1.52-.54,0-1-.22-1.13-.76Z"/>
                <path class="cls-10" d="m103.4,136.11c-.78-.21-1.62-.89-1.62-1.63s1.31-2.09,3.26-2.09c2.05,0,3.75,1.4,3.75,2.82,0,.95-1.76,1.32-2.73,1.32-.88,0-1.81-.18-2.66-.41Z"/>
                <path class="cls-10" d="m111.24,132.19c-.21-.15-.29-.34-.29-.54,0-.75,1.29-1.32,1.87-1.32s1.27.54,1.27,1.14c0,.71-.78,1.12-1.54,1.12-.46,0-.94-.13-1.31-.4Z"/>
                <path class="cls-10" d="m128.43,135.1c-1.18.1-2.82,1.03-2.82,1.93,0,.64,1.33,1.94,3.58,1.94,1.86,0,3.71-.92,3.91-2.61,0-.03,0-.06,0-.09,0-.95-1.99-1.22-3.6-1.22-.39,0-.76.02-1.08.04Z"/>
                <path class="cls-10" d="m135,130.67c-.11-.02-.24-.04-.38-.04-1.06,0-2.64.7-2.64,1.54,0,.46.52,1.03,1.39,1.03,1.18,0,2.2-.93,2.2-1.8,0-.32-.14-.65-.57-.74Z"/>
                <path class="cls-10" d="m126.28,127.89c-.24-.06-.53-.1-.82-.1-.93,0-1.92.32-1.92.93,0,.53.74,1.27,1.99,1.27s2.04-.78,2.04-1.27c0-.44-.62-.65-1.3-.83Z"/>
                <path class="cls-10" d="m142.83,122.58c-1.78,0-3.35,1.59-3.35,2.66,0,.38.19.76.6.76.03,0,.06,0,.09,0,1.65-.21,3.96-.95,3.96-2.46,0-.82-.51-.95-1.28-.95h-.02Z"/>
                <path class="cls-10" d="m147.76,126c-1.51.29-3.79,1.82-3.79,3.11,0,.53.42,1.08,1.09,1.08,1.32,0,3.64-2.03,3.64-3.1,0-.54-.28-1.1-.8-1.1-.05,0-.1,0-.15.01Z"/>
                <path class="cls-10" d="m148.52,121.95c-.68.11-1.56.83-1.56,1.34,0,.06.01.12.04.17.11.23.37.33.66.33.61,0,1.39-.45,1.39-1.12,0-.47-.39-.71-.8-.71-.13,0-.26.03-.37.1l.63-.13Z"/>
                <path class="cls-10" d="m150.04,112.6c-1.73,0-3.2,2.02-3.2,3.29,0,.71.52,1.07,1.09,1.07,1.3,0,2.87-1.98,2.87-3.7,0-.4-.04-.66-.77-.66h0Z"/>
                <path class="cls-10" d="m154.21,117.28c-.16-.05-.32-.07-.47-.07-1.31,0-2.58,1.63-2.94,2.98-.02.07-.03.14-.03.21,0,.59.36.74.92.74,1.65,0,2.95-1.86,3.15-3.47,0,0,0-.02,0-.03,0-.23-.37-.27-.63-.35Z"/>
                <path class="cls-10" d="m154.88,111.51c-.68,0-1.33.92-1.33,1.7,0,1.54,2.29-1.7,1.33-1.7Z"/>
                <path class="cls-10" d="m154.97,104.26c-.15-.05-.32-.08-.49-.08-.64,0-1.37.35-1.37.95,0,.44.38,1,.93,1,.72,0,1.56-.84,1.69-1.62,0-.02,0-.04,0-.06,0-.15-.13-.18-.29-.18-.1,0-.21.01-.3.01-.07,0-.13,0-.17-.02Z"/>
                <path class="cls-10" d="m161.54,106.03c-1.49.39-2.93,1.84-2.93,3.47,0,.73.52,1.08.99,1.08.01,0,.02,0,.04,0,1.88-.13,3.61-2.06,3.61-3.16,0-.75-.77-1.42-1.46-1.42-.09,0-.17.01-.25.03Z"/>
                <path class="cls-10" d="m162.8,96.3c-.71.28-1.21,1.05-1.21,1.73,0,.4.14.73.54.73.87,0,1.64-1.2,1.64-1.93,0-.38-.12-.64-.5-.64-.14,0-.3.03-.47.1Z"/>
                <path class="cls-10" d="m168.23,96.67c0,.63.42,1.4,1.04,1.4.87,0,1.8-1.52,1.8-2.39,0-.77-.66-1.02-1.48-1.02-.91,0-1.35,1.28-1.35,2.02Z"/>
                <path class="cls-10" d="m162.42,87.45c-.13.28-.19.67-.19,1.08,0,.86.3,1.78.89,1.78.55,0,1.29-.69,1.29-1.88s-.44-1.48-1.02-1.48c-.39,0-.81.16-.97.51Z"/>
                <path class="cls-10" d="m166.84,87.32c-.13.25-.22.5-.22.72,0,.4.35.63.67.63.53,0,.77-.8.95-1.34.03-.08.04-.15.04-.22,0-.32-.26-.56-.6-.56-.06,0-.13,0-.19.02l-.65.74Z"/>
                <path class="cls-10" d="m164.44,75.57c-1.02.86-1.67,2.23-1.67,3.63,0,.9.13,1.72,1.02,1.72,1.14,0,1.84-2.1,1.84-3.34,0-.75-.09-2.14-.84-2.14-.12,0-.23.04-.35.14Z"/>
                <path class="cls-10" d="m163.18,69.25c-.1.31-.16.7-.16,1.1,0,1.05.38,2.34,1.42,2.34.74,0,.94-.82.94-1.62,0-1.48-.87-2.22-1.67-2.22-.24,0-.44.12-.54.4Z"/>
                <path class="cls-10" d="m141.82,48.53c-.1-.25-.16-.5-.16-.73,0-.54.37-1.01,1-1.01.85,0,1.48.6,1.48,1.56,0,1.14-.42,1.32-.87,1.32-1,0-1.71-.79-1.71-1.53l.25.38Z"/>
                <path class="cls-10" d="m138.79,44.86c-.58-.41-1.42-1.26-1.42-1.98,0-.28.11-.53.41-.55.03,0,.07,0,.1,0,.98,0,2.07.97,2.07,1.97,0,.28-.08.55-.27.82-.03.04-.07.05-.14.05-.19,0-.53-.15-.75-.3Z"/>
                <path class="cls-10" d="m106.02,36.98c0,.89-1.5,1.29-2.37,1.29-7.88,0,2.37-6.97,2.37-1.29Z"/>
                <path class="cls-10" d="m98.56,39.11c0,.67-.54.93-1.2.93-2.54,0,1.2-2.76,1.2-.93Z"/>
                <path class="cls-10" d="m83.09,41.63c0,.44.54,1.07,1.36,1.07,1.19,0,2.73-1.13,3.53-2.01,1.2-1.31-4.89-1.24-4.89.94Z"/>
                <path class="cls-10" d="m69.91,53.46c-.45.51-.83,1.32-.83,1.96s.37.91.81.91c.65,0,1.02-.92,1.02-1.85,0-.52-.12-1.04-.37-1.4-.02-.03-.04-.04-.08-.04-.14,0-.4.24-.56.42Z"/>
                <path class="cls-10" d="m63.34,62.55c-.45.73-1.23,1.66-1.23,2.47,0,.54.4,1.07.94,1.07,1.15,0,2.28-1.89,2.28-2.97,0-.59-.4-1.27-.98-1.27-.35,0-.73.24-1.01.7Z"/>
                <path class="cls-10" d="m59.49,68.92c0,.56-.02,1.19.5,1.19.45,0,1.12-.72,1.12-1.47,0-.59-.42-.94-.84-.94-.33,0-.7.26-.7.67l-.08.55Z"/>
                <path class="cls-10" d="m55.41,80.64c0,.7.13,1.32.66,1.32.69,0,1.07-.69,1.07-1.4,0-1.52-1.73-2.82-1.73.09Z"/>
                <path class="cls-10" d="m55.25,88.21c-.48.48-.79.96-.79,1.48,0,.61.41,1,.84,1,.63,0,1.71-1.12,1.71-2.27,0-.39-.19-1.05-.58-1.05-.34,0-.77.43-1.18.84Z"/>
                <path class="cls-10" d="m54.09,97.25c0,.39.14.72.52.72.57,0,1.14-.57,1.14-1.36,0-2.01-1.66-.83-1.66.64Z"/>
                <path class="cls-10" d="m56.52,99.2c-.01.12-.02.24-.02.36,0,1.09.62,1.71.99,1.71.63,0,1.36-.69,1.36-1.78,0-.8-.3-1.25-1.27-1.25-.23,0-.47.03-.69.08-.39.09-.34.51-.38.88Z"/>
                <path class="cls-10" d="m56.52,105.14c-.23.51-.44,1.35-.44,2.09,0,.79.24,1.46.96,1.46.04,0,.08,0,.12,0,.68-.06.82-.78.82-1.61,0-.56-.06-1.17-.06-1.67,0-.31-.37-.68-.76-.68-.28,0-.52.18-.63.43Z"/>
                <path class="cls-10" d="m59.55,109.82c-.13.22-.19.48-.19.74,0,.92.73,1.93,1.49,1.93.48,0,.87-.33.87-1,0-.8-.65-2.09-1.41-2.09-.31,0-.61.18-.76.43Z"/>
                <path class="cls-10" d="m64.61,116.77c-.16.19-.23.42-.23.67,0,.66.54,1.55,1.21,1.55.86,0,1.25-.78,1.25-1.61,0-.73-.21-1.46-.95-1.46-.17,0-.35.03-.52.09-.27.09-.5.46-.76.76Z"/>
                <path class="cls-10" d="m72.82,128.27c-1.14-.55-1.93-.83-1.93-2.5,0-1.25.89-2.04,1.68-2.04.99,0,2.91,1.92,2.91,3.18,0,.91-.89,1.56-1.79,1.56-.28,0-.58-.06-.87-.21Z"/>
                <path class="cls-10" d="m79.27,126.12c-.64-.13-1.72-1.11-1.72-1.78,0-.39.37-.58.76-.58.84,0,2.1.75,2.1,1.76,0,.03,0,.06,0,.1-.02.32-.45.53-.89.53-.08,0-.17,0-.25-.02Z"/>
                <path class="cls-10" d="m92.28,126.38c-.46-.2-.71-.61-.71-1,0-.63.56-.83,1.2-.83.92,0,1.93.45,1.93,1.42,0,.43-.4.62-.85.62-.22,0-.45-.04-.66-.13l-.9-.08Z"/>
                <path class="cls-10" d="m79.27,131.94c-.26-.1-.59-.16-.92-.16-.72,0-1.43.27-1.43.9,0,.75.62,1.49,2.33,1.49,1.17,0,2.43.07,2.43-1.09,0-.18-.04-.35-.13-.51-.44-.8-1.56-.36-2.27-.63Z"/>
              </g>
            </g>
            <g>
              <path class="cls-23" d="m10,109.89s19.21,41.82,39.07,52.47c7.69,5.53,41.95,5.21,49.31,0,19.21-11.44,40.99-52.47,40.99-52.47H10Z"/>
              <path class="cls-14" d="m139.37,109.89c0,3.54-28.96,12.55-64.68,12.55s-64.68-9.02-64.68-12.55,35.04-12.74,70.77-12.74,58.6,9.21,58.6,12.74Z"/>
              <path class="cls-25" d="m131.36,109.95c0,2.98-25.38,9.42-56.68,9.42s-56.68-6.44-56.68-9.42,31.46-10.88,62.76-10.88,50.59,7.9,50.59,10.88Z"/>
              <path class="cls-8" d="m51.18,115.32c0-9.29,15.68-14.58,34.64-16.18-1.65-.05-3.33-.07-5.06-.07-31.3,0-62.76,7.9-62.76,10.88,0,2.2,13.88,6.29,33.76,8.28-.38-.97-.59-1.94-.59-2.91Z"/>
              <path class="cls-12" d="m74.68,119.37c26.23,0,48.28-4.52,54.75-7.74l-.95-1.84-2.45-1.14-1.39,2.03-1.6-1.46-2.13-1.21-2.03,1.21-.64-1.76-2.56-1.26-1.92,1.26-1.17-2.65-2.35-.64-1.28.64-2.67-.53-1.6,2.35v-1.6l-2.24-.43-3.31,1.6-1.17-1.6h-3.1l.75-2.03-3.52-.11v1.71l-2.78-.11-1.92,1.6-.64-1.92-4.16-1.81-2.35,1.81-1.28-1.81h-4.27l-.85,2.67-1.71-1.69-2.56,1.05-.64,1.28-2.24-2.33h-1.81l-1.8,1.67-1.71-1.67h-3.18l-3.46,3.39-1.17-1.49h-2.13l-2.24,2.03-2.67-2.03-6,1.57-.73,2.84-3.1-1.42-4.48.85-.85,2.56-3.3-.85-4.18.96-.52,1.66c9.05,3,28.62,6.38,51.33,6.38Z"/>
              <polygon class="cls-24" points="71.16 104.53 75.13 105.66 76.39 104.05 78.45 104.68 80.99 104.81 82.58 101.93 80.24 103.75 78.95 101.93 74.68 101.93 73.83 104.6 72.12 102.91 70.77 103.46 71.16 104.53"/>
              <g>
                <path class="cls-23" d="m60.47,79.8c-11.37,3.12-10.72-3.9-16.03-20.97-2.47-8.66-16.7.56-11.92,8.15,9.53,14.31,12.84,15.43,5.26,24.03l13.58,25.49,20.47-10.59-11.36-26.11Z"/>
                <path class="cls-6" d="m70.66,106.41l-11.23-25.09c-4.94,1.42-8.29-.18-10.66-3.18-5.56-7.03-5.71-21.71-8.21-22.79-4.34-.36-10.25,4.85-8.78,9.98,3.22,8.06,18.08,15.08,6.76,25.67l12.37,23.38,13.56-4.67,6.18-3.3Z"/>
                <path class="cls-4" d="m55.25,115.6l-11.48-22.11s6.28-5.96,14.81-6.46l-3.33,28.57Z"/>
                <path class="cls-19" d="m58.58,87.03c-5.61,1.24-8.95,2.55-13.59,6.71l9.68,20.64,13.99-6.55-10.08-20.8Z"/>
                <path class="cls-15" d="m44.99,93.74s10.02,3.18,13.59-6.71c0,0-7.84,1.02-13.59,6.71Z"/>
                <path class="cls-4" d="m38.02,57.24c.62.58-.28,6.14-1.79,7.76s-3.55,0-3.9-1.1c-.26-.81.33-3.16,1.84-4.78,1.51-1.62,3.24-2.47,3.86-1.89Z"/>
              </g>
              <polygon class="cls-12" points="48.61 114.97 47.16 112.95 50.32 110.65 55.04 110.85 56 109.36 57.71 108.58 61.19 109.03 60.04 106.67 62.76 105.6 65.15 106.51 66.78 105.09 69.1 105.37 69.25 106.56 71.28 104.53 75.13 105.66 75.52 107.84 51.69 117.61 48.61 114.97"/>
              <path class="cls-7" d="m10.36,110.65c2.66,5.61,20.41,41.9,38.71,51.72.57.41,1.3.78,2.14,1.13,27.2,3.41,55.02-16.48,53.74-29-1.88-18.42-57.92-1.94-94.6-23.84Z"/>
              <path class="cls-24" d="m128.48,109.8l-2.9,2.54-2.14-.31-3.16.1-1.43,1.12-1.12-1.93h-3.57l.41,1.53-2.35.1-1.94,3.06-3.26-.94h-3.77l-1.02,1.43-.92-1.43-2.24.64-1.53,1.9-2.55-1.7-1.94.58-.71,1.11-2.86-2.54-2.35,1.43v2.17l-2.45-1.05h-3.06l-1.84,1.05v-2.17l-3.39-.89-.87,1.63-1.56.37v1.05l-2.13-1.63-2.25-.54-2.96,1.76-2.55-1.76h-2.73l-2.76,1.11-.91-.78-2.27-.33-1.12,1.11-1.22-1.9-3.16-.64-2.73,1.96-2.17-.54h-2.44l-2.5-2.11h3.16l2.4-1.07,2.58,1.07.66-2.66-3.54-6.6-4.81,1.26-.73,2.84-3.1-1.42-4.48.85-.85,2.56-3.3-.85-4.18.96-.52,1.66c9.05,3,28.62,6.38,51.33,6.38,26.23,0,48.28-4.52,54.75-7.74l-.95-1.84Z"/>
              <polygon class="cls-24" points="82.95 109.22 85.6 107.34 88.15 107.34 90.39 109.8 91.51 108.57 93.96 108.57 93.96 107.34 97.02 107.34 99.27 110.65 100.29 109.22 103.24 109.22 105.59 111.07 107.83 109.8 110.08 109.22 108.14 110.65 105.69 112.25 102.94 109.89 101.31 109.89 98.96 112.25 96.51 108.16 94.78 108.16 94.88 109.99 91.72 109.22 90.29 111.07 87.54 108.16 85.6 108.16 82.95 109.22"/>
              <polygon class="cls-24" points="64.58 113.46 65.92 111.78 68.67 112.25 68.67 111.07 70.66 111.07 71.83 111.85 73.08 111.07 75.52 111.39 75.52 113.46 76.83 112.26 78.66 112.26 79.73 113.08 82.18 112.26 83.56 112.26 82.18 112.77 79.73 113.99 78.2 112.85 76.98 112.92 75.07 114.84 74.68 112.25 73.15 111.7 71.83 112.95 70.66 111.55 69.33 111.55 69.1 112.95 66.04 112.25 64.58 113.46"/>
              <path class="cls-14" d="m133.43,120.26c.35-.59.69-1.15,1.02-1.7-9.06,3.71-31.61,9.24-59.76,9.24s-51.99-5.84-60.51-9.55c.28.53.57,1.09.88,1.66,10.34,4.27,33.65,9.12,59.63,9.12s47.99-4.58,58.74-8.76Z"/>
              <path class="cls-8" d="m96.76,126.66c.92.28,1.77.6,2.56.95,14.76-1.68,27.03-4.6,34.11-7.35h0c.35-.58.69-1.15,1.01-1.69,0,0,0,0,0,0-6.53,2.68-20.08,6.3-37.68,8.11Z"/>
            </g>
            <g>
              <g>
                <path class="cls-16" d="m150.8,136.56c-.31,0-.61-.17-.77-.46-.23-.42-.07-.95.36-1.18.21-.11,21.68-11.47,52.35-15.18.47-.06.91.28.97.76.06.48-.28.91-.76.97-30.35,3.67-51.53,14.87-51.74,14.99-.13.07-.27.1-.41.1Z"/>
                <path class="cls-16" d="m151.3,132.68c-.28,0-.56-.14-.72-.39-.27-.4-.16-.94.24-1.2.2-.13,20.03-13.16,47.25-16.43.47-.05.91.28.97.76.06.48-.28.91-.76.97-26.81,3.22-46.3,16.02-46.5,16.15-.15.1-.32.15-.48.15Z"/>
                <path class="cls-16" d="m200.82,157.57c-.36,0-.7-.23-.82-.59-11.66-34.08-22.58-47.62-22.69-47.75-.3-.37-.25-.92.12-1.22.37-.3.92-.25,1.22.12.45.55,11.23,13.91,22.99,48.29.16.45-.09.95-.54,1.1-.09.03-.19.05-.28.05Z"/>
                <path class="cls-16" d="m167.91,164.58c-.3,0-.59-.16-.75-.43-.24-.42-.1-.95.32-1.19,25.15-14.58,38-37.11,38.13-37.34.24-.42.77-.56,1.18-.33.42.24.57.76.33,1.18-.13.23-13.21,23.17-38.77,37.99-.14.08-.29.12-.44.12Z"/>
                <path class="cls-16" d="m191.14,163.76c-21.2,0-37.37-12.02-37.54-12.15-.38-.29-.46-.83-.17-1.22.29-.38.83-.46,1.22-.17.16.12,16.73,12.45,38.2,11.77.47,0,.88.36.9.84.01.48-.36.88-.84.9-.59.02-1.18.03-1.76.03Z"/>
                <path class="cls-16" d="m198.41,159.93s-.04,0-.05,0c-31.7-1.89-46.97-13.87-47.6-14.38-.37-.3-.43-.85-.13-1.22.3-.37.85-.44,1.22-.13.15.12,15.51,12.15,46.62,14,.48.03.84.44.82.92-.03.46-.41.82-.87.82Z"/>
                <path class="cls-16" d="m181.71,166.94c-.3,0-.59-.16-.75-.44-14.63-25.4-13.56-55.84-13.55-56.14.02-.48.4-.88.9-.83.48.02.85.42.83.9-.01.3-1.05,30.25,13.32,55.21.24.42.1.95-.32,1.19-.14.08-.29.12-.43.12Z"/>
                <path class="cls-16" d="m175.41,166.53c-.31,0-.61-.17-.77-.46-13.84-26-11.02-53.03-10.99-53.3.05-.48.48-.82.96-.77.48.05.82.48.77.96-.03.26-2.78,26.79,10.8,52.29.23.42.07.95-.36,1.18-.13.07-.27.1-.41.1Z"/>
                <path class="cls-16" d="m159.98,158.88c-.34,0-.67-.2-.81-.54-9.12-22.52-3.47-38.19-3.22-38.85.17-.45.67-.68,1.12-.51.45.17.68.67.51,1.12-.06.15-5.64,15.74,3.2,37.59.18.44-.03.95-.48,1.13-.11.04-.22.06-.33.06Z"/>
                <path class="cls-16" d="m187.19,165.98c-.25,0-.51-.11-.68-.32-.3-.37-.24-.92.13-1.22.15-.12,15.11-12.63,13.31-46.3-.03-.48.34-.89.82-.91.47-.03.89.34.91.82,1.86,34.64-13.31,47.23-13.95,47.75-.16.13-.35.19-.54.19Z"/>
                <path class="cls-16" d="m208.06,141.68s-.05,0-.08,0c-35.3-3.24-56.38-1.08-56.59-1.06-.48.05-.91-.29-.96-.77-.05-.48.29-.91.77-.96.21-.02,21.47-2.21,56.93,1.05.48.04.83.47.79.94-.04.45-.42.79-.86.79Z"/>
                <path class="cls-16" d="m204.83,151.79c-.15,0-.3-.04-.44-.12-26.77-15.7-32.93-41.64-32.99-41.91-.11-.47.19-.93.65-1.04.47-.1.93.19,1.04.65.06.25,6.08,25.49,32.18,40.79.41.24.55.78.31,1.19-.16.28-.45.43-.75.43Z"/>
                <path class="cls-16" d="m163.24,161.98c-.25,0-.51-.11-.68-.33-.3-.37-.24-.92.14-1.22,21.09-16.88,25.79-49.83,25.83-50.16.06-.48.5-.81.98-.74.48.06.81.5.74.98-.05.34-4.85,33.97-26.47,51.28-.16.13-.35.19-.54.19Z"/>
              </g>
              <g>
                <path class="cls-28" d="m186.44,122.91c-.15,0-.3-.04-.43-.12-11.93-6.84-22.15-8.23-22.25-8.25-.48-.06-.81-.5-.75-.97.06-.48.5-.81.97-.75.43.06,10.67,1.45,22.89,8.46.42.24.56.77.32,1.19-.16.28-.45.44-.75.44Z"/>
                <path class="cls-28" d="m192.28,143.41c-.17,0-.34-.05-.49-.15-.4-.27-.5-.81-.22-1.21,8.87-12.93,8.85-23.32,8.85-23.42,0-.48.38-.87.86-.88.43,0,.87.38.88.86,0,.44.06,11.01-9.16,24.43-.17.24-.44.38-.72.38Z"/>
                <path class="cls-28" d="m188.7,153.12s-.05,0-.08,0c-16.3-1.53-21.81-7.77-22.03-8.03-.31-.36-.27-.91.1-1.22.37-.31.91-.27,1.22.09.08.09,5.41,5.98,20.88,7.43.48.05.83.47.78.95-.04.45-.42.79-.86.79Z"/>
                <path class="cls-28" d="m155.63,131.26s-.08,0-.13,0c-.47-.07-.8-.51-.73-.99.06-.39,1.48-9.71,7.81-17.15.31-.36.86-.41,1.23-.1.37.31.41.86.1,1.23-6,7.05-7.4,16.18-7.42,16.27-.06.43-.44.74-.86.74Z"/>
                <path class="cls-28" d="m158.96,151.26c-.39,0-.74-.26-.84-.65-1.11-4.23-.05-9.3,0-9.52.1-.47.56-.78,1.03-.67.47.1.77.56.67,1.03-.01.05-1.01,4.89,0,8.72.12.46-.16.94-.62,1.06-.07.02-.15.03-.22.03Z"/>
                <path class="cls-28" d="m162.15,151.79c-.4,0-.76-.28-.85-.68-1.08-4.91-.52-9.73-.5-9.93.06-.48.49-.82.97-.76.48.06.82.49.76.97,0,.05-.55,4.74.47,9.35.1.47-.19.93-.66,1.04-.06.01-.13.02-.19.02Z"/>
              </g>
              <g class="cls-2">
                <path class="cls-28" d="m186.85,122.06s-.1-.01-.14-.04c-12.02-6.89-22.59-8.47-22.7-8.48-.16-.02-.27-.17-.25-.33.02-.16.17-.27.33-.25.11.01,10.78,1.6,22.91,8.55.14.08.19.26.11.39-.05.09-.15.15-.25.15Z"/>
                <path class="cls-28" d="m192.07,142.56c-.06,0-.11-.02-.16-.05-.13-.09-.17-.27-.07-.4,8.99-13.1,8.85-23.57,8.85-23.67,0-.16.12-.29.28-.3.19,0,.29.12.3.28,0,.11.15,10.74-8.95,24.01-.06.08-.15.13-.24.13Z"/>
                <path class="cls-28" d="m189,152.26s-.02,0-.03,0c-16.06-1.51-21.64-7.49-21.87-7.75-.11-.12-.1-.3.02-.41.12-.11.3-.1.41.02.06.06,5.69,6.08,21.5,7.56.16.01.28.16.26.32-.01.15-.14.26-.29.26Z"/>
                <path class="cls-28" d="m155.29,130.85s-.03,0-.04,0c-.16-.02-.27-.17-.25-.33.01-.1,1.44-9.6,7.66-16.91.1-.12.29-.14.41-.03.12.1.14.29.03.41-6.12,7.18-7.52,16.53-7.53,16.62-.02.14-.14.25-.29.25Z"/>
                <path class="cls-28" d="m158.49,150.68c-.14,0-.26-.1-.28-.24-.82-4.4,0-9.17,0-9.22.03-.16.18-.27.33-.24.16.03.26.18.24.33,0,.05-.8,4.72,0,9.01.03.16-.07.31-.23.34-.02,0-.04,0-.05,0Z"/>
                <path class="cls-28" d="m161.83,151.21c-.13,0-.25-.09-.28-.23-1.06-4.81-.55-9.89-.54-9.94.02-.16.16-.28.32-.26.16.02.28.16.26.32,0,.05-.51,5.04.53,9.76.03.16-.06.31-.22.35-.02,0-.04,0-.06,0Z"/>
              </g>
              <g>
                <path class="cls-26" d="m179.51,167.02c-16.33,0-29.62-13.29-29.62-29.62s13.29-29.62,29.62-29.62,29.62,13.29,29.62,29.62-13.29,29.62-29.62,29.62Zm0-57.51c-15.38,0-27.89,12.51-27.89,27.89s12.51,27.89,27.89,27.89,27.89-12.51,27.89-27.89-12.51-27.89-27.89-27.89Z"/>
                <path class="cls-26" d="m163.07,163.33c-.24,0-.49-.1-.66-.3-.31-.36-.28-.91.09-1.23,24.63-21.32,35.81-46.44,35.92-46.7.19-.44.71-.64,1.14-.45.44.19.64.7.45,1.14-.11.25-11.45,25.74-36.37,47.31-.16.14-.37.21-.57.21Z"/>
                <path class="cls-26" d="m195.66,163.35c-.43,0-.81-.32-.86-.76-3.98-33.19-15.92-54.42-16.04-54.63-.24-.42-.09-.95.32-1.19.42-.24.95-.09,1.19.32.12.21,12.23,21.72,16.26,55.29.06.48-.28.91-.76.97-.04,0-.07,0-.11,0Z"/>
                <path class="cls-26" d="m150.75,142.14c-.47,0-.85-.37-.87-.84-.02-.48.36-.88.84-.9,30.71-1.07,54.98-13.96,55.22-14.09.42-.23.95-.07,1.18.35.23.42.07.95-.35,1.18-.24.13-24.85,13.21-55.98,14.3h-.03Z"/>
                <path class="cls-26" d="m177.26,167.02c-.26,0-.52-.12-.69-.34-15.52-19.99-13.53-54.46-13.51-54.8.03-.48.43-.85.92-.81.48.03.84.44.81.92-.02.34-1.97,34.16,13.15,53.63.29.38.23.93-.15,1.22-.16.12-.35.18-.53.18Z"/>
                <path class="cls-26" d="m177.98,156.9c-14.67,0-22.66-3.2-23.14-3.4-.44-.18-.65-.69-.47-1.14.18-.44.69-.66,1.13-.47.17.07,17.48,6.97,47.89.38.47-.1.93.2,1.03.67.1.47-.2.93-.67,1.03-10.08,2.18-18.71,2.93-25.78,2.93Z"/>
                <path class="cls-26" d="m150.75,134.11c-.26,0-.53-.12-.7-.35-.29-.38-.21-.93.17-1.22.19-.14,19.61-14.33,54.72-9.64.48.06.81.5.75.98-.06.48-.5.81-.98.75-34.4-4.59-53.26,9.17-53.44,9.31-.16.12-.34.17-.52.17Z"/>
                <path class="cls-26" d="m157.42,158.15c-.22,0-.44-.08-.61-.25-.34-.33-.35-.88-.02-1.23,20.28-20.86,25.65-48.76,25.7-49.04.09-.47.55-.78,1.01-.7.47.09.78.54.7,1.01-.05.28-5.5,28.69-26.16,49.93-.17.18-.4.26-.62.26Z"/>
                <path class="cls-26" d="m160.66,159.99c-.22,0-.43-.08-.6-.24-.35-.33-.36-.88-.02-1.23,23.23-24.08,30.21-47.42,30.28-47.65.13-.46.62-.73,1.08-.59.46.13.73.62.59,1.08-.07.24-7.15,23.97-30.7,48.38-.17.18-.4.27-.63.27Z"/>
                <path class="cls-26" d="m177.86,153.52c-8.57,0-17.81-.85-25.65-3.54-.45-.16-.7-.65-.54-1.1s.65-.69,1.1-.54c20.83,7.14,52.04,1,52.35.93.47-.09.93.21,1.02.68.1.47-.21.93-.68,1.02-.2.04-12.91,2.54-27.61,2.54Z"/>
                <path class="cls-26" d="m150.17,139.83c-.43,0-.81-.32-.86-.76-.06-.48.28-.91.75-.97.36-.05,36.43-4.7,54.83-14.2.43-.22.95-.05,1.17.37.22.43.05.95-.37,1.17-18.68,9.64-55.05,14.34-55.41,14.38-.04,0-.07,0-.11,0Z"/>
                <path class="cls-26" d="m183.35,167.02c-.27,0-.53-.12-.7-.36-17.51-24-15.54-56.01-15.52-56.33.03-.48.45-.84.93-.81.48.03.84.45.81.93-.02.31-1.94,31.71,15.19,55.19.28.39.2.93-.19,1.21-.16.11-.33.17-.51.17Z"/>
                <path class="cls-26" d="m189.21,165.34c-.19,0-.38-.06-.54-.19-.38-.3-.44-.84-.15-1.22,14.97-19.03,5.01-50.63,4.91-50.95-.15-.46.1-.95.56-1.09.45-.14.95.1,1.09.56.43,1.33,10.34,32.8-5.2,52.56-.17.22-.43.33-.68.33Z"/>
                <path class="cls-26" d="m152.04,146.81c-.1,0-.2-.02-.3-.05-.45-.16-.68-.66-.52-1.11.41-1.13,10.27-27.88,24.81-38.12.39-.28.93-.18,1.21.21.28.39.18.93-.21,1.21-14.09,9.92-24.08,37.02-24.18,37.29-.13.35-.46.57-.82.57Z"/>
                <path class="cls-26" d="m208.26,146.27s-.05,0-.08,0c-35.85-3.34-53.52-24.53-53.69-24.74-.3-.37-.25-.92.12-1.22.37-.3.92-.25,1.22.12.17.21,17.42,20.84,52.5,24.11.48.05.83.47.79.95-.04.45-.42.79-.86.79Z"/>
                <path class="cls-26" d="m209.13,138.28s-.04,0-.06,0c-38.63-2.5-51.81-19.43-52.35-20.15-.29-.38-.21-.93.17-1.22.38-.29.93-.21,1.22.17.13.17,13.32,17.02,51.08,19.47.48.03.84.44.81.92-.03.46-.41.81-.87.81Z"/>
                <g class="cls-3">
                  <path class="cls-26" d="m179.51,166.09c-16.01,0-29.04-13.03-29.04-29.04s13.03-29.04,29.04-29.04,29.04,13.03,29.04,29.04-13.03,29.04-29.04,29.04Zm0-57.51c-15.7,0-28.47,12.77-28.47,28.46s12.77,28.47,28.47,28.47,28.46-12.77,28.46-28.47-12.77-28.46-28.46-28.46Z"/>
                  <path class="cls-26" d="m162.63,162.75c-.08,0-.16-.03-.22-.1-.1-.12-.09-.3.03-.41,24.72-21.41,36.39-47,36.51-47.25.07-.15.24-.21.38-.15.15.07.21.24.15.38-.12.26-11.83,25.96-36.66,47.45-.05.05-.12.07-.19.07Z"/>
                  <path class="cls-26" d="m196.09,162.77c-.14,0-.27-.11-.29-.25-4-33.33-16.43-55.18-16.55-55.4-.08-.14-.03-.32.11-.4.14-.08.32-.03.4.11.13.22,12.61,22.17,16.62,55.61.02.16-.09.3-.25.32-.01,0-.02,0-.04,0Z"/>
                  <path class="cls-26" d="m150.75,141.22c-.16,0-.28-.12-.29-.28,0-.16.12-.29.28-.3,30.86-1.08,55.23-14.03,55.47-14.16.14-.08.32-.02.39.12.08.14.02.32-.12.39-.24.13-24.73,13.14-55.73,14.23h-.01Z"/>
                  <path class="cls-26" d="m177.26,166.09c-.09,0-.17-.04-.23-.11-15.39-19.82-13.41-54.07-13.39-54.41,0-.16.13-.3.31-.27.16,0,.28.15.27.31-.02.34-1.99,34.37,13.27,54.02.1.13.08.31-.05.41-.05.04-.12.06-.18.06Z"/>
                  <path class="cls-26" d="m178.19,155.93c-14.87,0-23.02-3.26-23.14-3.31-.15-.06-.22-.23-.16-.38.06-.15.23-.22.38-.16.17.07,17.6,7.04,48.24.41.15-.03.31.07.34.22.03.16-.07.31-.22.34-9.89,2.14-18.42,2.87-25.45,2.87Z"/>
                  <path class="cls-26" d="m150.75,133.18c-.09,0-.17-.04-.23-.12-.1-.13-.07-.31.06-.41.19-.14,19.42-14.19,54.29-9.53.16.02.27.17.25.33-.02.16-.16.26-.33.25-34.64-4.63-53.68,9.28-53.87,9.42-.05.04-.11.06-.17.06Z"/>
                  <path class="cls-26" d="m156.93,157.57c-.07,0-.15-.03-.2-.08-.11-.11-.12-.3,0-.41,20.42-21,26.28-49.41,26.34-49.69.03-.16.18-.26.34-.23.16.03.26.18.23.34-.06.29-5.95,28.86-26.49,49.98-.06.06-.13.09-.21.09Z"/>
                  <path class="cls-26" d="m160.66,159.06c-.07,0-.14-.03-.2-.08-.12-.11-.12-.29,0-.41,23.35-24.2,30.35-47.66,30.42-47.89.05-.15.21-.24.36-.2.15.05.24.21.2.36-.07.24-7.11,23.83-30.56,48.14-.06.06-.13.09-.21.09Z"/>
                  <path class="cls-26" d="m177.55,152.59c-8.59,0-17.83-.84-25.6-3.51-.15-.05-.23-.22-.18-.37.05-.15.22-.24.37-.18,20.97,7.19,52.78,1.02,53.1.95.16-.03.31.07.34.23.03.16-.07.31-.23.34-.2.04-13.05,2.53-27.81,2.53Z"/>
                  <path class="cls-26" d="m150.17,138.9c-.14,0-.27-.11-.29-.25-.02-.16.09-.3.25-.32.36-.05,36.53-4.72,55.03-14.26.14-.08.32-.02.39.12.07.14.02.32-.12.39-18.59,9.59-54.85,14.28-55.22,14.32-.01,0-.02,0-.04,0Z"/>
                  <path class="cls-26" d="m183.35,166.09c-.09,0-.18-.04-.23-.12-17.39-23.83-15.43-55.63-15.41-55.95.01-.16.16-.3.31-.27.16.01.28.15.27.31-.02.32-1.96,31.91,15.3,55.57.09.13.07.31-.06.41-.05.04-.11.06-.17.06Z"/>
                  <path class="cls-26" d="m189.22,164.41c-.06,0-.13-.02-.18-.06-.13-.1-.15-.28-.05-.41,15.16-19.27,5.11-51.16,5-51.48-.05-.15.04-.32.19-.37.15-.05.32.04.37.19.1.32,10.25,32.51-5.1,52.02-.06.07-.14.11-.23.11Z"/>
                  <path class="cls-26" d="m152.04,145.88s-.07,0-.1-.02c-.15-.06-.23-.22-.17-.37.1-.28,10.21-27.71,24.6-37.84.13-.09.31-.06.4.07.09.13.06.31-.07.4-14.24,10.03-24.29,37.29-24.39,37.57-.04.12-.15.19-.27.19Z"/>
                  <path class="cls-26" d="m208.6,145.34s-.02,0-.03,0c-35.61-3.32-53.71-24.34-53.89-24.55-.1-.12-.09-.3.03-.41.12-.1.31-.09.41.04.18.21,18.15,21.05,53.51,24.34.16.01.28.16.26.32-.01.15-.14.26-.29.26Z"/>
                  <path class="cls-26" d="m209.42,137.35s-.01,0-.02,0c-38.36-2.49-52.32-19.98-52.46-20.15-.1-.13-.07-.31.05-.41.13-.1.31-.08.41.05.14.17,13.96,17.46,52.04,19.93.16.01.28.15.27.31,0,.15-.14.27-.29.27Z"/>
                </g>
              </g>
              <g>
                <path class="cls-28" d="m191.15,165.98c-.31,0-.6-.16-.76-.44-15.04-26.92-19.6-56.47-19.64-56.76-.07-.48.26-.92.73-.99.47-.07.92.25.99.73.04.29,4.56,29.55,19.44,56.17.23.42.08.95-.33,1.18-.13.08-.28.11-.42.11Z"/>
                <path class="cls-28" d="m198.17,161.39c-.27,0-.53-.12-.7-.36-16.66-22.85-23.54-52.31-23.61-52.61-.11-.47.19-.93.65-1.04.47-.11.93.19,1.04.65.07.29,6.88,29.41,23.32,51.97.28.39.2.93-.19,1.21-.15.11-.33.17-.51.17Z"/>
                <path class="cls-28" d="m171.61,166.53c-.36,0-.69-.22-.82-.58-.16-.45.08-.95.53-1.11.27-.1,27.36-9.8,36.48-31.23.19-.44.7-.64,1.14-.46.44.19.65.7.46,1.14-9.42,22.14-37.22,32.09-37.5,32.18-.1.03-.19.05-.29.05Z"/>
                <path class="cls-28" d="m160.66,160.73c-.42,0-.78-.3-.86-.73-.08-.47.24-.92.71-1,31.46-5.27,46.41-30.06,46.56-30.31.24-.41.78-.55,1.19-.31.41.24.55.78.31,1.19-.15.26-15.52,25.74-47.77,31.14-.05,0-.1.01-.14.01Z"/>
                <path class="cls-28" d="m152.49,148.74c-.14,0-.28-.03-.41-.1-.42-.23-.58-.75-.36-1.18.27-.5,6.93-12.45,44.17-34.53.42-.24.95-.11,1.19.3.24.41.11.95-.3,1.19-36.82,21.83-43.46,33.73-43.52,33.85-.16.29-.46.46-.77.46Z"/>
                <path class="cls-28" d="m150.17,142.85c-.18,0-.36-.05-.51-.17-.39-.28-.47-.83-.19-1.21.15-.2,15.15-20.57,42.49-31.18.44-.17.95.05,1.12.5.17.45-.05.95-.5,1.12-26.85,10.42-41.57,30.38-41.72,30.58-.17.23-.44.36-.7.36Z"/>
              </g>
              <g class="cls-2">
                <path class="cls-28" d="m190.97,165.95c-.1,0-.2-.05-.25-.15-14.99-26.82-19.55-57.22-19.59-57.52-.02-.16.09-.31.25-.33.15-.03.3.09.33.24.04.3,4.59,30.59,19.52,57.32.08.14.03.32-.11.39-.05.03-.09.04-.14.04Z"/>
                <path class="cls-28" d="m198.17,161.15c-.09,0-.18-.04-.23-.12-16.59-22.76-23.74-52.87-23.81-53.17-.04-.16.06-.31.22-.35.16-.04.31.06.35.22.07.3,7.19,30.3,23.71,52.96.09.13.07.31-.06.41-.05.04-.11.06-.17.06Z"/>
                <path class="cls-28" d="m171.01,165.74c-.12,0-.23-.07-.27-.19-.05-.15.03-.32.18-.37.28-.1,27.86-10.09,37.08-31.76.06-.15.24-.21.38-.15.15.06.22.23.15.38-9.32,21.91-37.14,31.98-37.42,32.08-.03.01-.06.02-.1.02Z"/>
                <path class="cls-28" d="m160.22,159.94c-.14,0-.26-.1-.29-.24-.03-.16.08-.31.24-.33,31.71-5.31,47.26-30.61,47.41-30.86.08-.14.26-.18.4-.1.14.08.18.26.1.4-.15.26-15.83,25.78-47.81,31.14-.02,0-.03,0-.05,0Z"/>
                <path class="cls-28" d="m152.04,148.16s-.1-.01-.14-.04c-.14-.08-.19-.25-.11-.39.07-.12,7.31-12.74,44.4-34.73.14-.08.31-.04.4.1.08.14.04.32-.1.4-36.96,21.91-44.12,34.39-44.19,34.51-.05.1-.15.15-.25.15Z"/>
                <path class="cls-28" d="m149.74,142.27c-.06,0-.12-.02-.17-.06-.13-.1-.16-.28-.06-.41.15-.21,15.48-20.83,42.67-31.39.15-.05.32.02.38.17.06.15-.02.32-.17.38-27.04,10.49-42.26,30.98-42.41,31.19-.06.08-.14.12-.23.12Z"/>
              </g>
            </g>
            <path class="cls-21" d="m91.4,171.18s7.91,4.17,28.99,3.81c21-.35,26.73-3.77,26.73-3.77,0,0-2.77,4.6-26.89,4.61-24.36.01-28.82-4.65-28.82-4.65Z"/>
            <g>
              <path class="cls-32" d="m156.94,147.05h-63.79s3.97,31.48,3.97,31.49c0,.94,11.06,4.17,27.87,4.17s27.52-3.15,27.84-4.13l4.1-31.53Z"/>
              <path class="cls-13" d="m95.15,147.97l5.13,30.18s14.34,4.35,36.53,2.28l3.52-30.54s-25.43,2.14-45.18-1.93Z"/>
              <path class="cls-31" d="m156.94,147.05c0,1.58-14.28,6.17-31.89,6.17s-31.89-4.58-31.89-6.17,14.28-5.34,31.89-5.34,31.89,3.76,31.89,5.34Z"/>
              <path class="cls-12" d="m125.04,141.71c-17.61,0-31.89,3.76-31.89,5.34s14.28,6.17,31.89,6.17,31.89-4.58,31.89-6.17-14.28-5.34-31.89-5.34Zm0,9.5c-15.25,0-27.61-2.73-27.61-4.1s12.36-4.62,27.61-4.62,27.61,3.25,27.61,4.62-12.36,4.1-27.61,4.1Z"/>
              <path class="cls-31" d="m97.44,147.1s12.3-8.11,28.12-8.11,27.09,8.11,27.09,8.11h-55.21Z"/>
              <g class="cls-9">
                <path class="cls-32" d="m152.65,147.1s.07-.4-1.11-.87c-2.44-1.12-12-7.25-25.98-7.25-.15,0-.29.01-.44.01l-.07,3.06s23.15,5.81-11.69,8.6c5.42.5,15.64.75,24.18-.1,5.52-.55,15.15-2.29,15.12-3.46Z"/>
              </g>
              <path class="cls-32" d="m133.94,140.53c0,.39-3.98,1.54-8.9,1.54s-8.9-1.14-8.9-1.54,3.98-1.33,8.9-1.33,8.9.94,8.9,1.33Z"/>
              <g>
                <path class="cls-29" d="m128.72,128.91c-2.41,4.29-2.95,12.08-3.24,12.08s-.92-7.49.62-12.83l2.61.75Z"/>
                <path class="cls-29" d="m128.81,128.87c-.15.47-.89.71-1.66.53-.77-.18-1.27-.72-1.12-1.19.15-.47.89-.71,1.66-.53.77.18,1.27.72,1.12,1.19Z"/>
              </g>
              <path class="cls-13" d="m125.04,153.21c-8.81,0-16.78-1.15-22.55-2.49-1.4-.25-2.5-.52-3.12-.8l4.01,23.92s10.32,3.88,24.12,1.57l1.37-22.27c-1.26.05-2.54.07-3.83.07Z"/>
            </g>
            <g>
              <path class="cls-32" d="m186.46,161.16h-45.86l2.89,22.6s-.04.03-.04.04c0,.67,7.95,3,20.04,3s19.78-2.26,20.02-2.97h.06l2.89-22.67Z"/>
              <path class="cls-13" d="m142.04,161.83l3.69,21.7s10.31,3.13,26.26,1.64l2.53-21.95s-18.28,1.54-32.48-1.38Z"/>
              <path class="cls-31" d="m186.46,161.16c0,1.14-10.27,4.43-22.93,4.43s-22.93-3.3-22.93-4.43,10.27-3.84,22.93-3.84,22.93,2.7,22.93,3.84Z"/>
              <path class="cls-12" d="m163.53,157.32c-12.66,0-22.93,2.7-22.93,3.84s10.27,4.43,22.93,4.43,22.93-3.3,22.93-4.43-10.27-3.84-22.93-3.84Zm0,6.83c-10.96,0-19.85-1.96-19.85-2.95s8.89-3.32,19.85-3.32,19.85,2.34,19.85,3.32-8.89,2.95-19.85,2.95Z"/>
              <path class="cls-31" d="m143.68,161.2s8.84-5.83,20.22-5.83,19.48,5.83,19.48,5.83h-39.69Z"/>
              <g class="cls-9">
                <path class="cls-32" d="m183.38,161.2s.05-.29-.8-.62c-1.75-.81-8.63-5.21-18.68-5.21-.11,0-.21,0-.32.01l-.05,2.2s16.64,4.18-8.4,6.18c3.9.36,11.25.54,17.38-.07,3.97-.4,10.89-1.64,10.87-2.49Z"/>
              </g>
              <path class="cls-32" d="m169.93,156.48c0,.28-2.86,1.1-6.4,1.1s-6.4-.82-6.4-1.1,2.86-.96,6.4-.96,6.4.67,6.4.96Z"/>
              <g>
                <path class="cls-29" d="m166.17,148.12c-1.73,3.08-2.12,8.69-2.33,8.69s-.66-5.39.45-9.22l1.88.54Z"/>
                <path class="cls-29" d="m166.24,148.09c-.11.34-.64.51-1.19.38-.55-.13-.91-.52-.8-.86.11-.34.64-.51,1.19-.38.55.13.91.52.8.86Z"/>
              </g>
              <path class="cls-13" d="m163.53,165.6c-6.33,0-12.06-.82-16.21-1.79-1.01-.18-1.8-.37-2.25-.58l2.89,17.2s7.42,2.79,17.34,1.13l.98-16.01c-.9.03-1.82.05-2.76.05Z"/>
              <path class="cls-21" d="m143.45,183.81s5.69,3.13,20.87,2.87c15.12-.27,19.24-2.84,19.24-2.84,0,0-2,3.46-19.37,3.47-17.54,0-20.75-3.5-20.75-3.5Z"/>
            </g>
            <g>
              <g>
                <path class="cls-30" d="m64.86,178.96c.06,0,.11.02.17.03,0,0,.02,0,.02,0,.89.16,1.74.48,2.59.71,1.11.31,2.22.46,3.42-.08,1.71-.78,3.24-2.42,5.23-2.49.18,0,.3.02.38.06.34.18-.27.78-.45,1.16-.38.83-.55,1.78-.51,2.7.04.96.36,1.87.71,2.76.36.91.63,1.81.93,2.76.31.98.87,1.94,1.01,2.97.8-.87,1.54-1.75,2.43-2.52.01,0,.03-.03.03-.03.07-.05.13-.1.19-.15,1.56-1.28,3.61-2.3,3.84-4.51.16-1.44-.28-2.71-.93-3.91-.1-.19-.21-.38-.32-.57.06.04.13.08.19.13.25.17.48.35.72.53.35.26.69.54,1.01.82.87.73,1.69,1.51,2.45,2.34,0,0,.02.01.03.03.42.46.83.93,1.21,1.41.44.54.93,1.63,1.5,1.79h0c.23.06.48-.03.74-.38,1.31-1.75,1.1-5.09.65-7.07-.66-2.91-3.37-4.43-6.25-4.31-.22,0-.44.03-.64.07-.25.03-.47.09-.71.16.86-.87,1.62-1.88,2.26-2.74,1.43-1.95,1.87-3.78,1.32-6.13-.27-1.15-1.03-2.59-.9-3.81-.04.05-.09.11-.14.16-1.85,2.14-4.05,4.3-5.25,6.88-.33.71-.58,1.46-.74,2.24-.32-1.15-.75-2.26-1.37-3.23-1.44-2.29-3.65-3.28-6.25-3.73-1.29-.23-3.33-.75-4.66-.33,0,.07.02.14.04.21.18.73.96,1.48,1.27,2.19.75,1.68,1.21,3.37,2.42,4.8.51.61,1.09,1.17,1.72,1.67.56.44,1.34.75,1.83,1.24-.08.04-.18.06-.29.08-.65.07-1.63-.31-2.19-.36-1.55-.14-3.13-.11-4.45.82-1.37.97-1.88,2.52-2.73,3.88-.43.69-1.03,1.18-1.56,1.77Z"/>
                <path class="cls-33" d="m79,175c.11.04.22.09.32.12.08.02.16.05.24.07,0,0,.02.01.02.01.05.02.08.02.12.03.25.07.48.11.71.12.05,0,.11,0,.16,0,0,0,.02,0,.02,0h0c.34,0,.67-.05,1-.14.45-.12.92-.33,1.44-.57.39-.18.75-.38,1.09-.59.4-.25.77-.53,1.1-.85-.25.03-.47.09-.71.16.86-.87,1.62-1.88,2.26-2.74,1.43-1.95,1.87-3.78,1.32-6.13-.27-1.15-1.03-2.59-.9-3.81-.04.05-.09.11-.14.16.01.39.06.77.11,1.14.17,1.29.28,2.66.22,3.96-.09,1.62-.77,3.08-1.77,4.32-.39.5-.82.98-1.24,1.46-.19.22-.4.58-.7.61-.05-.32.09-.65.15-.96.11-.52.15-1.06.38-1.55-.47.34-.88.85-1.27,1.27-.4.45-.76,1.17-1.29,1.44.36-1.64,1.06-3.23,1.67-4.8-.41.1-.8.42-1.08.76-.55.66-1.09,1.47-1.55,2.21-.18.29-.34.6-.49.92-.26.57-.49,1.17-.71,1.76-.09.26-.18.5-.27.75l-.02.08-.07.26v.05s-.14.5-.14.5Z"/>
                <path class="cls-33" d="m79.25,175.26c.01.07.03.15.05.22h0s.01.04.02.04c.01.04.03.08.05.12.1.19.25.38.44.54.7.63,1.87,1.1,2.46,1.42.54.29,1.09.55,1.64.81.25.13.51.25.75.38.29.16.58.32.85.52.08.05.16.11.24.16.84.62,1.56,1.36,2.21,2.17,0,0,.02.01.03.03.42.46.83.93,1.21,1.41.44.54.93,1.63,1.5,1.79-.04-.14-.08-.28-.12-.4-.46-1.54-1.08-2.94-2.09-4.2-.92-1.17-2.13-2.18-3.31-3.07-.31-.24-1.03-.54-1.15-.95.42-.4,1.42-.04,1.95-.06-.29-.25-.84-.39-1.21-.51-.27-.09-.8-.1-.98-.34.38-.32,1.21-.2,1.68-.2.91,0,1.89.43,2.78.29-.27-.53-1.41-.83-1.95-1.01-.71-.25-1.44-.37-2.19-.39h0c-.19,0-.38,0-.57,0-.61.03-2,.03-2.33.75,0,0-.01,0-.01.02l-.44.1h-.02s-.43.11-.43.11l-.47.1-.24.06h-.03s-.24.06-.24.06l-.07.02Z"/>
                <path class="cls-33" d="m80.96,177.63c.4.91,0,2.23.21,3.21.61-.65.87-2.49.71-3.27,1.15,2.45,1.47,5.4.08,7.84-.3.54-.7,1.07-1.14,1.57.07-.05.13-.1.19-.15,1.56-1.28,3.61-2.3,3.84-4.51.16-1.44-.28-2.71-.93-3.91.25.13.51.25.75.38-.04-.1-.09-.2-.16-.29-.31-.56-.72-1.08-1.21-1.5l-1.7-1.79-.39-.41-.63-.65-.09-.1c-.15.12-.29.26-.41.41h0s0,0-.01.02c-.04.04-.08.08-.11.13-.14.18-.26.37-.37.57,0,0,0,.02,0,.02-.04.07-.07.13-.1.21-.04.08-.07.16-.11.24-.12.28-.2.58-.27.89-.32,1.61,0,3.47.37,4.9.31-.36.23-1.28.38-1.75.21-.67.68-1.47,1.1-2.05Z"/>
                <path class="cls-33" d="m65.06,178.99c.89.16,1.74.48,2.59.71,1.11.31,2.22.46,3.42-.08,1.71-.78,3.24-2.42,5.23-2.49.18,0,.3.02.38.06.78-.19,1.68-.35,2.44-.66.25-.09.49-.22.71-.35.26-.18.49-.39.66-.65.02-.02.04-.05.05-.07v-.02s.05-.06.06-.1h0c.06-.13.12-.28.16-.44,0-.02.01-.05.02-.08.05,0,.07,0,.08,0-.02-.02-.04-.02-.07-.04-.09-.03-.24-.07-.39-.11-.01,0-.04,0-.05,0-.07-.01-.13-.03-.2-.03-.06-.01-.13-.03-.19-.03-.26-.04-.54-.09-.8-.12,0,0-.02,0-.03,0-.31-.05-.62-.08-.94-.11-1.4-.14-2.76-.13-4.15.07-1.07.15-2.17.38-3.21.7-.25.08-.74.17-.81.42,1.25.16,2.73-.52,3.94-.04-.8.44-1.98.35-2.87.57-.78.2-1.78.46-2.38,1.02.89-.07,1.78-.38,2.67-.51.85-.13,2.37-.56,3.19-.15-.8.52-1.9.8-2.79,1.19-1.19.54-2.38.95-3.67,1.13-.95.13-2.02.25-3.04.2Z"/>
                <path class="cls-33" d="m80.09,174.47s-.02-.01-.03-.01c0,0,.02.01.01.03.03.05.05.11.07.17.05.12.11.25.16.38.07.17.13.34.18.51,0,0,0,.01.01.02l.04-.09.2-.54.04-.09v-.04s.03-.05.03-.05c-.24-.11-.47-.2-.72-.27Z"/>
                <path class="cls-33" d="m68.84,162.87c.18.73.96,1.48,1.27,2.19.75,1.68,1.21,3.37,2.42,4.8.51.61,1.09,1.17,1.72,1.67.56.44,1.34.75,1.83,1.24-.08.04-.18.06-.29.08.47.23.95.45,1.43.66.91.41,1.9.62,2.84.94-.64-1.44-1.58-2.78-2.9-3.62-1.37-.88-2.98-1.34-4.11-2.57-1.08-1.18-1.91-2.63-2.9-3.89-.41-.52-.85-1.02-1.31-1.49Z"/>
                <path class="cls-33" d="m80.49,174.62c.33-.99-.05-2.34-.37-3.28-.44-1.3-1.11-3-2.15-3.95.25,1.15,1.14,2.32,1.07,3.52-.66-1.07-1.34-1.98-2.34-2.77-.54-.43-1.74-1.54-2.49-1.56,1.21,1.05,2.15,2.6,3.01,3.93.71,1.1,1.32,2.23,1.75,3.47.16.46.46,1.08.33,1.58l1.19-.94Z"/>
              </g>
              <path class="cls-35" d="m81.17,174.4c.67-1.67,1.37-3.39,1.62-5.18.06-.46.12-.93.17-1.4.02,0,.04,0,.06,0,.33-.03.59-.35.65-.66.03-.18,0-.37-.07-.55.08-.19.12-.41.05-.62-.03-.08-.06-.15-.11-.22.11-.19.2-.39.23-.59.03-.19,0-.38-.1-.54.02-.05.04-.1.06-.15.06-.29-.03-.6-.21-.83-.14-.33-.47-.6-.84-.42-.17.08-.2.32-.1.44-.04.06-.1.12-.13.19-.09.21,0,.43.19.55-.4.16-.29.8.1.86,0,.02-.02.03-.03.05.06-.11,0,0-.01.01-.02.03-.05.06-.08.09,0-.01-.03.04-.07.06-.3.24-.23.64.07.81-.13.15-.17.45-.03.6,0,0,.03.04.06.06-.02.02-.04.03-.06.05-.24.26-.14.61.11.75-.07.49-.15.99-.26,1.48-.38,1.72-1.18,3.29-1.72,4.95-.1.3.33.51.45.21Z"/>
            </g>
            <g>
              <g>
                <path class="cls-22" d="m72.72,177.98c-.06,0-.12,0-.17-.02,0,0-.02,0-.02,0-.9-.06-1.8.04-2.68.06-1.15.03-2.27-.09-3.3-.91-1.47-1.17-2.56-3.13-4.47-3.68-.18-.05-.3-.06-.38-.04-.38.09.08.82.15,1.23.17.9.1,1.86-.16,2.74-.27.92-.8,1.73-1.36,2.5-.57.79-1.05,1.61-1.57,2.45-.54.87-1.31,1.67-1.7,2.63-.56-1.04-1.07-2.07-1.75-3.04-.01-.01-.02-.03-.02-.04-.05-.06-.1-.13-.15-.19-1.2-1.62-2.94-3.11-2.64-5.31.19-1.43.93-2.56,1.85-3.56.14-.16.3-.32.45-.48-.07.03-.15.05-.22.08-.28.11-.55.22-.83.34-.4.17-.8.35-1.18.55-1.02.49-2,1.06-2.94,1.67,0,0-.02,0-.03.02-.52.34-1.03.7-1.52,1.08-.56.42-1.3,1.36-1.88,1.37h0c-.24,0-.46-.15-.63-.55-.85-2.01.16-5.21,1.08-7.02,1.34-2.66,4.34-3.48,7.11-2.67.21.06.42.14.6.23.23.09.44.2.65.32-.63-1.06-1.12-2.21-1.53-3.21-.91-2.23-.9-4.12.21-6.27.54-1.05,1.62-2.26,1.79-3.48.03.06.06.13.1.19,1.28,2.52,2.89,5.15,3.43,7.95.15.77.21,1.56.17,2.35.59-1.04,1.28-2.01,2.11-2.8,1.95-1.87,4.34-2.3,6.97-2.11,1.31.09,3.41.08,4.6.81-.02.07-.05.13-.09.19-.35.66-1.29,1.2-1.77,1.82-1.14,1.44-1.99,2.97-3.51,4.07-.65.47-1.34.87-2.08,1.21-.64.29-1.49.41-2.08.76.07.06.16.1.26.15.62.23,1.66.1,2.21.18,1.54.24,3.06.66,4.12,1.88,1.09,1.27,1.21,2.9,1.71,4.42.25.77.71,1.4,1.09,2.1Z"/>
                <path class="cls-27" d="m59.97,170.71c-.12.02-.23.03-.34.04-.09,0-.17.01-.25,0,0,0-.02,0-.03,0-.05,0-.09,0-.12,0-.25,0-.49-.01-.72-.05-.05-.01-.11-.02-.16-.04,0,0-.02,0-.02,0h0c-.33-.09-.64-.21-.94-.38-.41-.23-.81-.54-1.26-.9-.33-.27-.64-.55-.91-.84-.33-.34-.61-.7-.86-1.1.23.09.44.2.65.32-.63-1.06-1.12-2.21-1.53-3.21-.91-2.23-.9-4.12.21-6.27.54-1.05,1.62-2.26,1.79-3.48.03.06.06.13.1.19-.1.37-.24.74-.38,1.08-.48,1.21-.92,2.51-1.17,3.79-.31,1.59,0,3.17.67,4.62.26.58.56,1.15.85,1.71.13.26.25.66.53.76.13-.3.07-.65.08-.97.02-.53.12-1.06,0-1.59.37.44.65,1.03.92,1.54.28.53.46,1.32.9,1.71.05-1.68-.25-3.39-.45-5.06.38.2.68.6.86.99.37.77.7,1.69.97,2.51.1.33.18.66.25,1.01.11.62.19,1.26.26,1.88.02.27.05.53.08.79v.08s0,.27,0,.27v.05s0,.52,0,.52Z"/>
                <path class="cls-27" d="m59.66,170.9c-.03.07-.06.14-.11.2h0s-.02.03-.03.04c-.02.04-.05.08-.08.1-.14.16-.34.3-.56.42-.83.44-2.08.61-2.73.78-.6.15-1.19.26-1.79.39-.28.06-.55.12-.82.19-.32.08-.64.17-.95.3-.09.03-.18.07-.28.1-.96.4-1.84.94-2.67,1.57,0,0-.02,0-.03.02-.52.34-1.03.7-1.52,1.08-.56.42-1.3,1.36-1.88,1.37.07-.13.15-.25.21-.35.82-1.38,1.76-2.59,3.04-3.57,1.18-.91,2.6-1.6,3.96-2.18.36-.15,1.13-.27,1.35-.64-.31-.49-1.37-.38-1.88-.53.34-.17.91-.18,1.3-.2.28-.02.8.09,1.04-.09-.29-.4-1.13-.49-1.58-.6-.88-.21-1.94-.04-2.77-.39.39-.45,1.57-.46,2.13-.51.75-.07,1.49-.01,2.22.15h0c.19.05.37.1.55.15.59.18,1.93.51,2.08,1.29,0,0,.01.01,0,.02l.41.2h.02s.4.22.4.22l.43.21.22.11h.03s.21.12.21.12l.06.03Z"/>
                <path class="cls-27" d="m57.43,172.79c-.61.78-.54,2.16-.98,3.07-.43-.78-.24-2.62.1-3.35-1.71,2.1-2.73,4.88-1.98,7.59.16.6.42,1.21.73,1.8-.05-.06-.1-.13-.15-.19-1.2-1.62-2.94-3.11-2.64-5.31.19-1.43.93-2.56,1.85-3.56-.28.06-.55.12-.82.19.07-.09.14-.17.23-.25.43-.47.96-.87,1.54-1.16l2.08-1.32.48-.3.77-.48.11-.07c.12.16.22.32.29.5h0s0,.01,0,.02c.03.05.05.1.08.16.1.21.17.42.22.64,0,0,0,.02,0,.02.02.08.03.15.04.22.02.09.03.17.05.25.04.3.05.61.04.93-.08,1.64-.84,3.37-1.55,4.66-.21-.42.09-1.29.06-1.79-.04-.7-.31-1.6-.57-2.25Z"/>
                <path class="cls-27" d="m72.52,177.96c-.9-.06-1.8.04-2.68.06-1.15.03-2.27-.09-3.3-.91-1.47-1.17-2.56-3.13-4.47-3.68-.18-.05-.3-.06-.38-.04-.71-.38-1.55-.75-2.21-1.23-.22-.15-.43-.33-.6-.51-.21-.24-.38-.49-.48-.79-.01-.03-.02-.06-.03-.08v-.02s-.03-.07-.03-.11h0c-.03-.15-.05-.3-.05-.46,0-.02,0-.06,0-.09-.05,0-.07-.01-.08-.02.02-.01.04-.01.08-.02.09-.01.25,0,.41,0,.01,0,.04,0,.05,0,.07,0,.13,0,.2.02.06,0,.13,0,.19.01.27.02.54.05.8.07,0,0,.02,0,.03,0,.31.03.62.07.94.12,1.39.21,2.71.54,4.01,1.08,1,.4,2.01.89,2.94,1.46.22.14.68.35.68.61-1.25-.14-2.52-1.17-3.81-.99.67.62,1.84.82,2.65,1.25.7.38,1.62.88,2.07,1.57-.84-.29-1.63-.8-2.47-1.14-.8-.33-2.17-1.12-3.06-.92.65.7,1.65,1.23,2.41,1.83,1.03.81,2.08,1.49,3.29,1.98.89.36,1.9.73,2.9.93Z"/>
                <path class="cls-27" d="m59.04,169.93s.03,0,.03,0c0,0-.02,0-.02.02-.04.05-.08.09-.11.14-.08.11-.17.22-.24.33-.11.15-.21.3-.3.45,0,0-.01.01-.02.02v-.1s-.08-.58-.08-.58l-.02-.09v-.04s0-.06,0-.06c.25-.05.5-.08.76-.09Z"/>
                <path class="cls-27" d="m72.76,161.4c-.35.66-1.29,1.2-1.77,1.82-1.14,1.44-1.99,2.97-3.51,4.07-.65.47-1.34.87-2.08,1.21-.64.29-1.49.41-2.08.76.07.06.16.1.26.15-.51.11-1.03.21-1.54.3-.98.18-1.99.14-2.98.23.97-1.24,2.2-2.31,3.69-2.81,1.54-.53,3.22-.58,4.61-1.5,1.33-.88,2.49-2.09,3.75-3.08.52-.41,1.07-.79,1.64-1.13Z"/>
                <path class="cls-27" d="m58.62,169.98c-.09-1.04.62-2.25,1.15-3.09.74-1.15,1.8-2.64,3.04-3.32-.52,1.05-1.67,1.98-1.89,3.15.9-.88,1.78-1.59,2.94-2.12.63-.28,2.06-1.08,2.8-.9-1.43.72-2.72,2-3.87,3.08-.95.89-1.82,1.84-2.54,2.94-.27.41-.71.94-.7,1.45l-.93-1.2Z"/>
              </g>
              <path class="cls-35" d="m58.5,169.51c-.12-1.75-.51-3.46-.47-5.22.01-.5.05-1,.1-1.5.28-.07.46-.39.29-.7-.01-.02-.03-.04-.05-.06.03-.02.06-.04.07-.05.17-.12.21-.42.12-.59.34-.09.5-.47.26-.77-.03-.03-.05-.09-.05-.08-.02-.04-.04-.07-.05-.11,0-.02-.04-.13,0-.02,0-.02-.01-.04-.02-.05.39.04.66-.56.31-.81.22-.06.35-.26.32-.48-.01-.08-.05-.14-.08-.21.13-.09.16-.33.01-.45-.31-.26-.7-.08-.92.21-.23.18-.39.46-.41.75,0,.06.01.11.02.16-.13.13-.21.31-.23.5-.02.21.02.42.08.63-.06.05-.11.11-.16.19-.12.19-.13.4-.1.61-.11.15-.19.33-.2.51-.02.31.16.69.47.8.02,0,.04,0,.06.01-.07.46-.13.93-.18,1.4-.19,1.8.07,3.64.31,5.42.04.32.51.22.49-.09Z"/>
            </g>
          </g>
        </g>
      </g>
    </g>
  </g>
</svg>